<?xml version="1.0" encoding="UTF-8"?>
<svg id="Ebene_1" xmlns="http://www.w3.org/2000/svg" version="1.1" viewBox="0 0 2034.72 1149.12">
  <!-- Generator: Adobe Illustrator 29.5.1, SVG Export Plug-In . SVG Version: 2.1.0 Build 141)  -->
  <defs>
    <style>
      .st0 {
        fill: #fced98;
      }

      .st1 {
        fill: #cccccb;
      }

      .st2 {
        fill: #ec9fc5;
      }

      .st3 {
        fill: #848d79;
      }

      .st4 {
        fill: #fae016;
      }

      .st5 {
        fill: #100b09;
      }

      .st6 {
        fill: #130c07;
      }

      .st7 {
        fill: #fcfcfc;
      }

      .st8 {
        fill: #c9dce0;
      }

      .st9 {
        fill: #3b7d57;
      }

      .st10 {
        fill: #af7d4a;
      }

      .st11 {
        fill: #d9d8d7;
      }

      .st12 {
        fill: #080605;
      }

      .st13 {
        fill: #fbf09a;
      }

      .st14 {
        fill: #c9c9c9;
      }

      .st15 {
        fill: #cae1ad;
      }

      .st16 {
        fill: #5b000f;
      }

      .st17 {
        fill: #471500;
      }

      .st18 {
        fill: #a6a6a6;
      }

      .st19 {
        fill: #fef2bc;
      }

      .st20 {
        fill: #90b657;
      }

      .st21 {
        fill: #060504;
      }

      .st22 {
        fill: #050505;
      }

      .st23 {
        fill: #69853d;
      }

      .st24 {
        fill: #a7472b;
      }

      .st25 {
        fill: #cae0ac;
      }

      .st26 {
        fill: #407f58;
      }

      .st27 {
        fill: #dddcdb;
      }

      .st28 {
        fill: #fef2bd;
      }

      .st29 {
        fill: #1b1614;
      }

      .st30 {
        fill: #f3f2f1;
      }

      .st31 {
        fill: #bbbbba;
      }

      .st32 {
        fill: #f9f9f9;
      }

      .st33 {
        fill: #74bd8c;
      }

      .st34 {
        fill: #873862;
      }

      .st35 {
        fill: #cac8bb;
      }

      .st36 {
        fill: #3e7f59;
      }

      .st37 {
        fill: #efefee;
      }

      .st38 {
        fill: #7d532f;
      }

      .st39 {
        fill: #195113;
      }

      .st40 {
        fill: #0d0705;
      }

      .st41 {
        fill: #6a853e;
      }

      .st42 {
        fill: #ae6f44;
      }

      .st43 {
        fill: #90b658;
      }

      .st44 {
        fill: #fff9e5;
      }

      .st45 {
        fill: #91b658;
      }

      .st46 {
        fill: #12100d;
      }

      .st47, .st48 {
        fill: #b07345;
      }

      .st47, .st49 {
        stroke: #000;
        stroke-miterlimit: 10;
      }

      .st50 {
        fill: #f5c9df;
      }

      .st51 {
        fill: #ce88a9;
      }

      .st52 {
        fill: #e371a8;
      }

      .st53 {
        fill: #0c0704;
      }

      .st54 {
        fill: #6a3f13;
      }

      .st55 {
        fill: #ddd;
      }

      .st56 {
        fill: #3e7e58;
      }

      .st57 {
        fill: #020100;
      }

      .st58 {
        fill: #fcf1bc;
      }

      .st59 {
        fill: #030201;
      }

      .st60 {
        fill: #fced99;
      }

      .st61 {
        fill: #010000;
      }

      .st62 {
        fill: #fafaf9;
      }

      .st63 {
        fill: #af7044;
      }

      .st64 {
        fill: #f5cfe3;
      }

      .st65 {
        fill: #e5f8fd;
      }

      .st66 {
        fill: #74be8c;
      }

      .st67 {
        fill: #c6c6c6;
      }

      .st68 {
        fill: #3d7e58;
      }

      .st69 {
        fill: #fefefe;
      }

      .st70 {
        fill: #fafafa;
      }

      .st49 {
        fill: #c88950;
      }

      .st71 {
        fill: #dcdbda;
      }

      .st72 {
        fill: #3e7e57;
      }

      .st73 {
        fill: #c9e0ac;
      }

      .st74 {
        fill: #883862;
      }

      .st75 {
        fill: #bebebe;
      }

      .st76 {
        fill: #414141;
      }

      .st77 {
        fill: #e371a9;
      }
    </style>
  </defs>
  <path class="st44" d="M1434.17-.04l3,.92v420.1l-3,1.2-1.44,1.92h-824.07l-1.88-1.92c-.83-.1-1.47-.2-1.47-.3-.25-138.9.09-283.28,1.47-421.92h827.39Z"/>
  <g>
    <path class="st22" d="M794.86,265.2c2.25-.23.74-.9.48-1.57-.33-.82-.94-2.06-.04-2.68,11.75,2.67,23.99,2.69,35.81.45,10.26-1.95,21.32-5.23,25.29-16.25.62.09.26,1.5.21,1.92-.37,2.92-1.61,6.75-2.88,9.39-.29.6-3.3,5.14-3.07,5.34,12.62.08,22.95-5,31.22-14.49,7.92-9.07,13.31-20.6,14.93-32.7l.86,3.59c.59,4.92.81,9.82.34,14.76-.23,2.43-.83,4.84-1.05,7.25,6.77-6.65,10.69-15.24,12.42-24.62,4.67-25.17-.73-46.7-8.65-70.24-10.23-30.46-25.84-62.16-44.4-88.16-18.49-25.89-56.17-54.39-89.09-43.41-1.46.49-6.73,3.12-7.53,3.12-.9,0-4.89-1.85-6.26-2.26-32.81-9.83-63.44,11.88-83.17,36.64-21.25,26.67-36.6,56.58-46.84,89.37-5.36,17.16-9.83,34.38-10.49,52.51-.62,17.03,2.17,33.33,13.43,46.44l-.77-11.86c-.1-3.39.13-6.76.71-10.1l.81-2.72c1.93,15.42,10.52,29.54,22.83,38.5,4,2.91,7.88,4.84,12.6,6.23,2.45.72,4.97,1.06,7.39,1.84.36-.39-1.81-3.15-2.17-3.8-1.96-3.61-3.1-7.43-3.48-11.56-.03-.34-.35-1.05.21-.99,4.66,11.64,16.29,14.6,27.35,16.3,6.91,1.06,14.37,1.55,21.36,1.28,4.02-.16,8.83-1.22,12.63-1.2.51,0,1.11.39,1.69.28-.2,1.76-2.35,2.9-.61,4.32l.69.19c2.51-.85,3.25-11.04,2.79-13.62,19.37,10.59,42.09,10.78,61.41.25l.69,10.09c.3.97,1.24,2.59,2.28,2.16h.04Z"/>
    <path class="st48" d="M660.93,497.17l1.03-1.33c6.67-13.79,13.32-27.67,18.98-41.95,5.01-12.65,8.13-25.38,10.02-38.82.37-2.66.8-13.24.75-19.2,0-.61,1.2-1.45,1.33-2.04.15-.74-.34-2.24-.5-2.98-.19-.92-.66-2.75-.94-3.64s-.92-2.66-1.27-3.53c-.53-1.32-1.64-3.94-2.32-5.19-.38-.69-1.41-1.92-1.71-2.65-.95-2.31-.93-7.53-2.04-9.76-.08-.15-.29-.47-.46-.52-9.1-2.86-20.75.62-30.02-2.57l-.81.38c-1.06,13.62-1.1,27.21-.97,40.75.23,13.65-1.87,26.86-6.37,39.89l-14.23,47.68c-.47,1.8-.78,3.63-.94,5.48,9.38.39,21.14.53,30.46,0v.02Z"/>
    <path class="st61" d="M692.71,394.49c3.85,1.1-.02-2.17,3.21-4,4.23-2.4.75-1.51-3.37,1.19-1.6,1.05-.66-.88-1.47,5.86.83,7.65-.36,15.62-1.59,23.2-1.78,10.99-4.56,21.05-8.51,31.4-5.87,15.36-13.37,30.05-20.05,45.04.44-.02,1.25.2,1.54-.19,9.36-21.71,21.32-43.01,26.41-66.38,1.92-8.79,4.26-21.56,3.71-30.44-1.35-3.83.33-7.48,1.11-1.14,1.17,6.1,2.03,12.66,2.21,18.87.28,1.94.28,3.92,0,5.86-.55,16.72-9.03,33.84-13.95,49.74-2.24,7.21-4.79,15.21-6.71,22.44-.51,1.92.56,1.67,1.3.09,2.83-6.12,4.59-15.97,6.7-22.76,4.89-15.68,13.29-32.68,13.88-49.19.29-2.15.28-4.33,0-6.48-.23-7.95-1.73-15.75-3.03-23.58,1.52-2.64,5.83-7,8.76-8.5.1,2.27-.46,9.95.85,11.93,2.32,6.08,8.41,28.78,13.75,25.38.36-.23.45,8.13.67,8.09.38-.06,2.37-7.75,3.42-7.57.97.17,3.44.45,4.36.42.48-.01,4.57-1.33,4.7-1.54.16-.24-.64-.26.49-1.34.15-.15.12,7.54.14,7.53.11-.07,1.8-7.1,2.38-6.93,6.35,1.76,13.23,22.08,14.2,15.05.26-1.88,9.12-25.51,9.51-26.83.08-.29-1.67,13.46-1.11,12.57,2.52-4.05,7.06,6.61,8.16,1.99,27.2,13.39,47.73-31.65,75.73-20.08.61.52.22,6.08.3,7.4,1.14,17.7,9.65,33.8,16.13,49.83,4.7,11.63,9.22,23.44,12.49,35.59l1.24.18c-3.1-12.28-7.8-24.36-12.52-36.08-7.28-18.04-16.96-35.91-16.13-56.15,7.72,2.71,15.52,7.04,23.94,5.82,3.46-.5-14.23-2.35-10.98-3.75,12.43-5.33,31.57-15.27,29.74-26.87-1.18-7.52,2.74-20.82,1.03-28.2,2.42-.63,3.5,2.34,3.33-1.46-.18-4.03-1.43-9.39-2.28-13.41-4.22-19.98-12.55-40.92-30.04-52.26-16.31-10.57-37.64-15.27-56.79-15.86-.38.11-.36.43-.5.56h.03s-.74-.09-.74-.09c-16.63,22.94-57.7,24.4-74.69,1.07l-.88-.06c-2.3.81-6.34,1.24-9.06,2-30.86,8.62-50.92,15.87-61.3,49.59-3.99,12.95-5.58,27.03-5.3,40.6l5.08.66c-.43,5.73-.44,11.4-.6,17.13-.44,16.37.97,33.62-2.58,49.5l-19.71,66.84c-.26.67.75.39,1.15.41,5.91-21.3,12.9-42.31,18.78-63.62,4.68-16.91,2.88-30.95,3.23-48.22.09-4.37.42-8.89.62-13.25.13-2.82.22-5.66.3-8.48h3.18l25.77,3.22"/>
    <path class="st63" d="M794.86,265.2c-.46-.74-1.89-1.38-1.73-3.01l-.69-9.94c-.33-.36-3.65,1.61-4.32,1.9-16.96,7.58-33.64,8.19-50.87,1.02-2.53-1.05-4.9-2.41-7.4-3.54.03,4.71.57,9.2-1.9,13.49-.35.61-.77.75-.96,1.02-.99,1.36-2.52,3.72-4.22,4.32,1.24,1.27,2.27,3.08,3.45,4.33,17.62,18.55,53.83,17,70.6-2.17.79-.91,1.45-2.26,2.26-3.09-1.8-.49-3.02-1.98-4.05-3.42-.21-.3-.1-.79-.17-.89v-.02Z"/>
    <path class="st18" d="M697.12,424.06c.51-1.88.51-4.6,0-6.48.06,2.09.07,4.39,0,6.48Z"/>
    <path class="st76" d="M695.92,423.75c.51-1.66.51-4.18,0-5.86.05,1.93.06,3.93,0,5.86Z"/>
    <path class="st42" d="M723.07,107.27l4.42,1.48c3.27,1.32,8.46,5.27,7.94,9.31-13.33-3.3-26.97-4.45-38.7,4.07-1.26.91-4.94,4.57-5.84,4.83-.52.15-.74.23-.71-.41.06-1.33,1.08-2.56,1.06-3.85-9.62,8.02-15.18,20.59-14.93,33.31-1-1.2-1.3-2.98-2.17-4.42-1.48-2.45-5.38-5.75-8.24-6.07-5.48-.62-10.8,2.98-11.33,8.78-.79,8.85,1.03,23.35,6.23,30.68,3.53,4.99,11.47,11.44,17.77,10.82,1.63-.16,2.1-.45,1.94-2.27-.25-2.99-1.81-7.52-2.35-10.89-.36-2.33-.78-5.03-.95-7.36-.03-.34-.22-1.15.29-1.07,2.83,10.12,5.47,21.22,9.42,30.93,6.68,16.39,20.77,32.4,35.92,41,12.01,6.81,31.92,12.91,45.56,11.01,23.1-3.23,53.22-25.25,64.49-46.02,6.54-12.05,8.37-25.34,12.02-38.46.53-.07.28.7.29,1.07.16,4.21-.55,8.99-1.36,13.12-.36,1.88-1.4,4.41-1.61,6.09-.07.57.04,1.07.29,1.57,7.6.46,13.17-2.56,17.1-9.11.19-.32.31-.99.35-1.02.06-.05,1.06.57,1.47.27.46-.33,3.38-8.69,3.74-9.91,1.78-6.15,3.1-15.02,2.34-21.37-.37-3.15-4.54-8-7.72-8.45-2.93-.41-7.34.81-9.63,2.74-1.65,1.4-2.73,4.59-4.67,5.87.01-5.23-.55-10.45-1.9-15.49-3.8-14.17-14.65-25.58-24.64-35.57-2.1-2.1-3.86-3.28-5.85-5.73-6.6-8.13-12.24-17.96-17.38-27.11-.44-.12-.5.12-.76.3-1.78,1.27-3.78,3.32-5.61,4.76-13.73,10.82-25.56,17.57-41.82,23.86-8.08,3.12-16.41,5.63-24.5,8.72h.03Z"/>
    <path class="st69" d="M648.26,361.75l34.09,2.78c-.49-11.83.76-23.64,4.39-34.88.57.2,2.35-.44,2.24.47-.22,1.76-1.58,4.83-2.09,6.82-3.25,12.93-3.77,27.68,1.03,40.22,1.45-.67,6.31,17.27,6.5,18.74,2.61,19.6,3.08,15.09,2.9,31.33-.28,23.93-35.45,76.97-10.45,82.35,16.47,3.55,63.46,4.02,86.79-4.21,6.14-2.17,90.33,64.17,67.42-87.8-2.47-16.42,2.64-22,.53-39.14l-12.36-59.88c1.31.13,1.97-.59,2.33.84,1.26,5.12,1.65,11.97,2.59,17.41,1.21,7,2.7,13.95,4.14,20.91.42.36,7.87-2.48,9.11-2.85,8.06-2.4,17.29-4.07,25.7-4.25,4.77-.1,9.56.78,14.35.16-3.3-23.97-10.82-51.46-32-65.06-11.55-7.42-27.4-12.33-40.89-14.33-2.48-.37-13.22-1.71-14.76-.68-.66.44-2.86,3.64-3.89,4.66-17.43,17.37-50.06,18.62-68.47,2.14-2.02-1.82-3.65-4.17-5.72-5.83-10.13,2.77-20.38,5.42-30.19,9.22-5.62,2.18-11.18,4.67-16.11,8.21-21.5,15.44-27.17,47.39-27.17,72.62l-.02.03Z"/>
    <path class="st49" d="M660.26,363.73l.25-.35c3.79-.91,7.29-6.37,5.94-10.34-.95-2.78-4.56.29-6,1.33-2.02,1.45-6.87,4.8-5.63,7.65.69,1.56,1.89,1.27,3.24,1.62"/>
    <path class="st47" d="M669.61,416.47"/>
    <path class="st47" d="M656.93,364.54c6.48,4.75,31.1-14.29,41.73-19.55,1.37-.68.92-.41,1.94-1.1,1.31-.88.66-.26,6.06-2.92-1.85,5.89-7.16,15.59-1.42,20.58,2.4,2.09,5.06,2.36,8.02,1.21-.68-4.28-.09-8.97,1.46-13.06.19-.49,1.6-3.72,1.79-3.8.11-.06-.12.02.17.05-.67,3.36-1.96,6.65-2.71,9.97-.48,2.13-.73,4.47.41,6.42,1.49,2.52,6.49,4.11,9.27,3.62,3.36-.58,1.77-1.82,2.3-4.48.92-4.63,3.26-8.68,5.71-12.6.52.09.18.81-.03,1.11-3.65,5.44-5.37,10.28-4.81,13.38.97,5.32,11.45,5.53,15.09,3.12.78-.52,2.84-2.62,3.08-3.42l1.04-3.43c.13-.42-.06-.84-.4-1.13-.79-.68-.19-2.2-.5-1.1-1.87-.28-3.41,4.07-2.91,2.25.85-3.06,2.54-2.5,4.72-3.57,6.93-3.41,10.88-9.72,14.23-16.56l2.61-3.15-1.66,5.46c13.04,12.31,26.59,24.11,40.25,35.72,8.22,7,16.53,13.98,24.91,20.77,11.92,9.66,17.53,16.86,34.04,16.38,6.4-.19,10.47-.73,14.8-6.12,9.3-11.54,8.36-42.67,9.16-56.64-13.25-2.36-35.27,2.16-44.02,5.96-.31.7,2.88,1.41,3.24,1.67,1.95,1.5,4.34,2.38,6.4,3.61,4.47,2.67,10.37,5.95,13.74,9.92.23.28.71.88-.11.55-7.69-5.02-15.33-10.25-23.36-14.73-2.63-1.47-5.78-2.66-8.53-4.17-20.66-11.42-40.36-25.71-60.98-37.12-17.9-9.9-30.3-7.28-48.18.39-20.36,8.74-39.5,21.16-58.03,33.34-.75.74.2,1.45.39,2.25.61,2.63-1.09,5.9-2.98,7.69-.67.63-2.39,1.97-3.5,2.39l-2.25.58"/>
    <path class="st62" d="M786.11,160.32c.15,2.38.75,4.6,1.66,6.78.07.16.5,1.3.75.62l.29-.92c-5.08-14.04,11.88-25.12,23.19-16.72,12.28,9.12,3.57,27.64-10.61,26.07l-.81.52-.75.31c7.47,1.71,17.6.39,23.07-5.55,14.95-15.05.21-37.72-19.58-34.43-10.6,1.76-19.58,12.14-17.22,23.32h0Z"/>
    <path class="st32" d="M735.43,157.69c-.14-18.46-23.14-26.01-35.85-14.29-5.85,5.4-7.55,11.85-5.94,19.62.21,1.04,1.71,6.94,3,5.07-.34-1.23-.69-2.44-1.02-3.61.7-.44.43-.79-.3-.93.52-10.46,8.54-17.2,18.75-14.94,15.61,3.45,15.19,25.31-.26,28.15l-.38.68c-.64.32.31-.14.87.03,1.47-.22,1.26-.08,2.3-.38,10.42-.49,19.87-8.15,18.85-19.39h0Z"/>
    <path class="st59" d="M787.01,208.75c-.65.64,1.19,1.56,1.19,1.69-14.05,6.87-30.55,8.65-45.95,6.59-3.19-.43-7.45-2-10.29-2.14-1.22-.06-2.57,0-2.57,1.56.59.11,3.43-.16,3.6.02.05.05.1,1.05.22,1.46,8.39,27.01,44.47,27.07,55.35,1.2.56-1.32,2.07-6.83,2.51-7.32.59-.65,1.49.17,2.27,0,.15-1.68-5.82-3.59-6.33-3.08v.02Z"/>
    <path class="st57" d="M785.81,116.21c3.29-.22,6.37-1.55,9.59-2.07,10.45-1.68,19.61.18,27.66,7.32.46.41,4.99,5.33,5.28,4.93-.54-6.86-6.6-13.57-12.09-17.09-6.75-4.34-16.33-6.85-23.7-2.7-3.1,1.74-6.87,5.77-6.73,9.61h-.01Z"/>
    <path class="st5" d="M786.11,160.32c-1.02-15.8,13.02-26.47,27.69-21.99,14.25,4.35,19.53,21.79,9.11,33.09.13.62.77-.32.9-.46,6.87-7.03,9.16-15.3,3.87-24.31-9.72-16.54-36.23-15.79-41.72,3.8-.83,2.95-1.82,7.3.15,9.87Z"/>
    <path class="st46" d="M701.65,174.51c.37-.34.07-.86-.9-1.54.58-.84-.58-2.11-1.51-1.85-1.29-2.3-2.29-4.78-3.05-7.26-.3,0-.49.17-.57.48.11.93.31,1.59.48,2.45.06.32.39,1.01-.16.94-2.51-4.96-3.17-13.01-.55-17.98,9.8-18.59,38.09-13.61,40.06,7.81.49-.31.34-1.19.3-1.69-1.48-16.1-16.5-24.34-30.88-18.01-5.88,2.59-12.31,9.74-12.86,16.46-.7,8.56,1.8,16.25,9.65,20.2h-.02Z"/>
    <path class="st40" d="M766.24,184.04c.06.09,1.58.63,1.98.9,1.38.92,2.19,1.59,3.05,3.05,2.94,4.99.69,5.63-3.8,6.79-5.39,1.39-8.15.77-13.4-.61-1.45-.38-5.18-2-6.14-2.07-1.71-.12-1.06,1.7-.05,2.55,6.25,5.23,20.4,6.28,25.88-.53,2.33-2.9,1.02-6.46-.92-9.25-.4-.58-3.07-3.71-3.5-3.79-1.29-.26-3.91,1.66-3.1,2.98v-.02Z"/>
    <path class="st29" d="M788.52,167.73c1.73,4.22,7.73,8.29,12.07,8.95,15.26,2.29,24.35-17.02,12.34-26.66s-30.64,2.53-24.41,17.71Z"/>
    <path class="st6" d="M676.31,178.83c-3.49-3.23.02-7.14-1.04-11.42-.68-2.74-6.54-9.12-9.53-7.25-1.66,1.04,3.38,3.73,4.03,4.23.46.35,2.32,1.8,2.46,2.11,1.41,3.16-2.53,12.75,4.08,12.33Z"/>
    <path class="st53" d="M847.34,178.21c.47.54,2.89-2.95,3-3.56.2-1.15.07-3.64.03-4.93-.03-.84-.65-3.01-.45-3.55.25-.69,4.93-4.84,5.86-6,.28-.35.73-.5.6-1.08-2.68.18-5.28,1.75-6.92,3.86-1.36,1.74-1.79,3.59-1.79,5.82,0,1.27.65,3.41.57,4.62-.09,1.37-1.34,3.18-.89,4.82h0Z"/>
    <path class="st38" d="M695.31,163.41c.38.77.38.97.38.97,0,0,1.83,4.74,3.46,6.74l.32-.78c-.81-2-.57-4.15-.21-6.23l.28-.65v-.49c.07-1.93.89-2.92,2.81-2.6l.42-.66,1.19.4c10.59-2.19,16.14,11.55,4.45,14.59l-.22.74c-.7.27-1.48.26-1.2.93,17.81,4.74,26.44-20.79,9.05-27.28-10.54-3.93-20.3,2.68-20.7,13.94l-.03.38Z"/>
    <path class="st46" d="M695.32,163.41c.12-4.19,3.79-11.2,7.54-13.11,10.88-5.56,25.01,2.36,21.88,15.58-2.18,9.19-9.61,10.47-17.65,10.49.36.9,5.41,1.03,6.34.93,3.63-.4,8.6-3.53,10.41-6.78,6.58-11.82-2.62-24.16-15.35-22.79-8.02.86-13.48,7.54-13.16,15.69h-.01Z"/>
    <path class="st70" d="M738.75,217.08c-.25.23.83,1.57,1.05,1.85,9.93,12.46,31.37,11.05,41.63-.31.48-.53,3.84-4.87,3.46-5.25-4.22,1.31-8.34,2.88-12.66,3.86-7.64,1.73-14.96,1.83-22.78,1.38-3.62-.21-7.11-1.24-10.71-1.54h.01Z"/>
    <path class="st24" d="M780.98,228.19c-1.91-.75-3.78-.02-5.57,0-9.19.16-19.05.15-27.3,4.77,9.98,7.17,25.05,4.61,32.87-4.78h0Z"/>
    <path class="st21" d="M702.85,159.74l-.02.73c2.85,2.42-.96,5.99-3.11,2.95l-.79.19c-.62,2.84-.89,5.32.3,8.08.6.78.9,1.05,1.51,1.94,2.27,1.49,4.8,2.73,7.54,2.59,3.68-1.48,7.33-2.74,7.26-7.92-.06-4.61-2.28-7.24-6.29-8.47-2.85-.87-3.68-.64-6.4-.09h-.01Z"/>
    <path class="st38" d="M791.84,170.81l.33-.69c-.93-2.22-.78-4.76.18-6.94l-.21-.69c.22-.11.42-.28.45-.54.19-1.99,1.49-2.71,3.38-2.26l.7-.29.58.34c10.27-2.43,14.46,12.46,3.53,14.74l-.5.65-.46.62c16.24,3.6,25.03-19.18,9.86-26.75-13.33-6.66-28.16,8.86-18.76,21.34.1.13.77,1.09.9.47h.01Z"/>
    <path class="st12" d="M796.67,159.4l-.27.64c1.8,2.85-1.61,5.11-3.57,2.43l-.67.02c-1.5,2.2-1.57,6-.3,8.33,1.35,2.47,5.74,4.43,8.44,4.32,8-.32,10.51-11.37,3.22-15.17-1.73-.9-5.2-1.92-6.83-.56h-.01Z"/>
    <path class="st37" d="M698.94,163.41c.73.42,1.14,1.27,2.02,1.48,3.1.74,5.08-3.49,1.89-5.18-1,.19-1.86-.33-2.88.61-.94.88-.81,2.04-1.04,3.09h0Z"/>
    <path class="st30" d="M792.14,162.48c1.44,3.1,6.23,1.96,5.22-1.8-.08-.28-.51-1.13-.7-1.28-1.95-1.52-5.64.67-4.53,3.08Z"/>
  </g>
  <path class="st7" d="M531.07-.04l5.5,457.21,77.69-23.87,816.47,1.08,61.67,10.27s-.14-440.38-.14-440.38c-.28-7.14,540.32.41,543.02-2.02-.97,0,1.84,1147.29-.96,1144.01,1.57,5.6-2032.12-.04-2033.01,1.9C-3.05,1147.56,1.87,3.86.07,2.27,1.26,2.49,531.07-.04,531.07-.04Z"/>
  <path class="st39" d="M2034.16,644.01c.84,163.3.84,336.77,0,500.93l-.93,4.62H1.14l-1.22-4.62v-500.93h2034.24Z"/>
  <path class="st35" d="M2034.16,1148.6c.27-.84.59-.83.96,0v.96H-.08v-.96h2034.24Z"/>
  <polygon class="st3" points="2035.12 1148.6 2034.16 1148.6 2034.16 1124.61 2034.16 1100.62 2034.16 1045.92 2034.16 837.69 2035.12 837.69 2035.12 1148.6"/>
  <g>
    <path class="st71" d="M1468.01-.04l.76.88.19,66.64c7.44-1.93,14.89-4.18,22.37-6.76l.19-59.61.76-1.14h17.82v484.13c.15,1.96-2.66,4.12-3.16,4.07-3.67-.31-11.44-7.91-15.43-10.32-.2-1.9.02-2.59.72-2.95-1.15-4.13-1.85-5.14-3.91-5.18-6.53-5.84-13.21-10.99-20.04-13.88-2.53,1.47-3.55.54-5.53-2.95-3.08,2.45-4.72.13-4.93-6.98-1.81-2.44-3.83-4.18-6.05-5.23l-.34-2.27c.46-4.35.45-8.16.28-12.38l1.3-1.28c1.92.43,6.79,2.63,8.6,3.97.45.34.79,1.23,1.1,2.11l-.76-.66v-83.11l.76-1.16c-2.33,1.01-12.84-1.61-13.23-3-.17-.62-.11-1.51-.04-2.28-.07-1.57.47-2.32,1.6-2.24-.32-3.94-.22-7.03.3-9.28,2.75-1.78,6.93-.52,9.9.8.57.25,1.04,1.18,1.48,2.08l-.76-.66v-115.24l.76-1.17c-2.2,2.37-15.47,3.28-16.18,1.31-.21-.58-.19-1.48-.13-2.27l.33-1.92,4.15-.11c-.46-4.43-.32-7.59.45-9.49l1.2-1.87c2.02-.55,6.93-.91,8.92-.56.47.08.88.77,1.26,1.47l-.76-.66v-115.24l.76-1.17c-3.29,3.36-7.94,4.91-11.38,2.88l-.51-1.44c.17-3.38.27-7.25-.62-10.07l.92-2.28c3.57-1.94,7.18-3.09,10.84-3.68V1.11l.76-1.15h5.31-.01Z"/>
    <path class="st55" d="M606.54-.04v422.22h821.65S1428.19-.04,1428.19-.04h2.28l.52,6.75c.07,133.92.08,268.46.02,403.64l-.29,24.04c1.04.06,2.28,4.46,1.9,6.62,3.69,1.54,7.37,4.07,10.98,6.67.37.26.71.79,1.05,1.34s.68,1.24.99,1.95l-2.83,1.01-850.14.02-2.06-1.98c-.39-2.45-.04-2.64.76-.96l.52-1.63c4.54-2.54,8.92-5.6,13.16-9.19l.36-437.08.76-1.2h.38,0Z"/>
    <path class="st67" d="M1441.09-.04l.76.64.37,75.46c1.03-1.2,1.79-.98,2.28.67.83-3.33,4.57-3.6,5.69-.96.29.1.99-.29,1.11.05.22.62.7,10.05.03,11.46-1.74,3.48-5.18,4.1-7.21,1.92l.76.66v109.97l-.76,1.16c2.16-.47,4.4-.63,6.73-.47l.48,1.91.38,11.52h-5.31c-.26,1.1-.77,1.97-1.53,2.62v108.85l6.07,1.66.39,2.02c.48,1.61.55,11.12.38,11.52-.13.31-1.81-.22-2.28,0-1.02,1.57-2.3,2.12-3.82,1.63l-.75,78.79c2.12,1.36,4.28,2.32,6.5,2.88l.35,2.11c2.07,3.66.05,11.48.56,13.46.18.71,5.19,1.21,6.19,5.44.31,1.3.65,6.54.87,6.93.33.6,2.54-1.2,3.54-.85,1.29.46,1.77,3.29,2.38,3.65.69.4,2.2-1.25,3.63-.59,6.4,2.97,13.14,7.83,19.3,13.53.92.85,2.03.32,2.88,1.34.8.95.88,3.49,1.97,4.61s5.57,2.06,6.08,3.34c.36.91.09,2.01-.56,1.91-2.53-.39-4.78-4.66-7.02-.96-15.26-9.24-30.66-17.35-45.89-26.87-4.46-2.79-8.9-6.13-13.41-8.58-.38-4.07-.75-5.31-2.15-7.45.88-106.66.05-213.63-.01-320.26-.02-38.29.54-76.43.4-114.72h10.62,0Z"/>
    <path class="st14" d="M542.45-.04l.76.88.05,59.73c2.22,1.09,4.6,1.87,7.14,2.35l1.15,2.29c2.66.66,2.88,13.72,0,12.47l-1.54,1.59c-2.31-.69-4.57-.68-6.8.03v120.98l-.76,1.18c3.08.63,6.17.77,9.28.44,2.23-1.25,2.15,10.15,1.07,12.18-2.7.04-5.39.31-8.07.82-.31,1.25-.81,2.11-1.52,2.57v120.56c2,.01,4-.28,6.01-.87l1.58,1.52c.76-.45,2.4-1.29,2.94-.08.19.42.48,11.91-.66,11.6-2.83,4-7.54,6.24-10.62,3.84l.76.67v90.28l-.76,1.17c2.67-3.75,6.5-5.34,9.48-3.84,1.16-.35,1.67,1.49,1.55,5.53-.43,5.58-.03,7.6,1.21,6.07,2.96-3.27,4.82-2.13,5.59,3.42,9.74-4.87,19.42-10.16,29.04-15.88,2-1.02,4.05,4.56,2.05,7.58-.34.21-.61.87-.76.96-1.75,1.08-3.56,1.79-5.31,2.88l-1.14.96c-17.15,10.6-34.37,20.68-51.58,30.71-1.41,1.14-2.17.65-2.28-1.48V1.15s.77-1.2.77-1.2h11.38Z"/>
    <path class="st11" d="M572.03-.04l.76.88v68.58l.76,2.51c1.75.74,1.63,11.93,0,12.47l-.76,2.59-.02,112.71c.4.71.78,1.62,1.16,2.73,1.18,1.04.81,10.71-.38,11.52l-.76,2.58-.02,113.16-.36,2.3c2.53-1.08,3.25,8.92,1.9,12.47.02,1.77-.47,2.43-1.49,1.98-.06,29.46-.08,57.9-.03,85.35,1.69-.85,2.34,2.68,1.94,10.57,2.1.22,4.26-.8,6.36-1.84,6.04-3.64,11.99-7.01,17.86-10.1V1.16l.76-1.2h6.45l-.38,438.07c0,1.3-.24,1.65-.63,2.24-.58.87-4.5,3.55-5.52,4.26-2.71,1.89-5.54,2.83-8.26,4.53.74-9.91-4.04-4.17-5.99-3.16-8.03,4.2-16.24,9.69-24.09,12.15-.37.12-.77,1.63-1.17,1.5-.85-.3-.94-5.09-1.61-5.62-.73-.57-4.48,3.52-5.83,1.85-.34-.85.67-11.69-.76-13.44l1.15-2.57c2.18-1.71,11.9-7.78,13.3-6.23.26.29.49.69.73,1.13l-.76-.67v-85.49l.76-1.17-1.04,1.8c-4.22,1.08-8.4,2.06-12.55,2.93l-.45-1.85v-11.52h-2.28c-.13-.68-.25-1.52-.09-2.09.51-1.83,14.09-4.35,16.4-2.7l-.76-.66v-117.16l.76-1.17-1.31,1.35c-6.08,1-12.3.71-18.43.4-.44-.02-.88-.28-1.32-.57s-.89-.72-1.32-1.18c1.39-2.72,6.55.46,7.53-1.09.57-.91.57-9.14.09-10.82-.57-2.03-8.52,1.09-9.9-1.52.4-.47.79-.91,1.2-1.22s.8-.58,1.2-.61c7.45-.58,15.13-.55,22.25,1.35l-.76-.66v-116.68l.76-1.17c-4.92,1.84-10.44.43-15.12-2.64l-.43-2.16c1.86-.52,1.43-11,0-12.47.43-.37.87-.7,1.32-.9s.88-.38,1.29-.27c3.94,1.07,7.89,2.18,11.8,3.81V1.12l.76-1.16h5.31Z"/>
    <path class="st55" d="M599.71-.04v430.38c-.07,1.97-.73,2.74-1.43,3.11-7.04,1.3-15.44,9.73-22.27,10.84-.7.11-1.41-.1-2.1-.03-.08-2.55.27-10.91-.44-12.35-.21-.43-.55,0-.7-.13l.18-2.06c6.23-3.27,12.37-6.58,18.4-9.94-.3-.08-.75-.36-.76-.89-.24-24.62-.24-51.05,0-75.69l.76-1.15c-1.07-.44-2.2-.47-3.39-.07l-13.12,4.23-.56-1.76c-.08-2.82-.18-7.94-.63-10.35-.28-1.53-.9-1.14-1.26-2.13l.27-2,17.52-4.57c.65-1.04.85-28.16.88-32.68.19-25.65.02-52.65-.45-77.29-5.01.55-10.31.9-15.36.23-.63-.08-1.2-.93-1.73-1.72l.38-11.52,1.33-1.74c5.01-.17,9.99-.8,14.94-1.91l.41-107.26-15.6-4.99-1.46-2.13c.45-3.93.71-8.64,0-12.47.98-.57,1.98-1.15,2.99-.93l13.7,3.58V1.12l.76-1.16s8.73,0,8.73,0Z"/>
    <path class="st1" d="M528.41-.04l.52,26.76c.21,151.53.33,303.07.38,454.61.85,1.44,1.06,3.15.62,5.15-1.86.84-2.98,1.23-4.91-.05-.21-10.98.38-22.18-.41-33.02l.02-453.45s3.79,0,3.79,0Z"/>
    <polygon class="st65" points="1492.28 -.04 1492.12 62.39 1468.21 70.03 1468.01 -.04 1492.28 -.04"/>
    <path class="st65" d="M566.72-.04v70.05c-5.03-2.03-10.12-3.27-15.17-4.79-2.7-.81-5.42-1.89-8.16-1.91l-.89-1.58-.05-61.76h24.27Z"/>
    <path class="st65" d="M590.99-.04v76.77c-5.81-1.43-11.67-2.73-17.45-4.8-.48-.17-1.03.13-1.52,0V-.04h18.96Z"/>
    <path class="st65" d="M1462.7-.04v71.97c-2.05,0-4.17.43-6.21,1.08s-4.23,2.09-6.3,2.76c-1.75.56-3.92.38-5.69.96l-.76-.89V1.12l.76-1.16s18.2,0,18.2,0Z"/>
    <path class="st27" d="M531.07-.04v484.04s1.52.56,1.52.56c-.66,1.24-1.83,1.54-2.65,1.92l-1.34-4.77c-.43-160.49-.06-321.19-.18-481.75h2.65Z"/>
    <path class="st8" d="M1444.5-.04v76.77c-.87.28-2.14,1.35-3.03,1.92l-.38-78.69s3.41,0,3.41,0Z"/>
    <path class="st55" d="M585.3,452.89c-.19.12-.64.65-1.14.96l1.14-.96Z"/>
    <polygon class="st65" points="1492.28 76.73 1492.28 201.48 1468.01 201.48 1468.01 82.49 1492.28 76.73"/>
    <polygon class="st65" points="1492.28 214.91 1492.28 340.62 1468.01 333.9 1468.01 214.91 1492.28 214.91"/>
    <polygon class="st65" points="1492.28 354.05 1492.28 446.17 1468.01 434.66 1468.01 347.33 1492.28 354.05"/>
    <path class="st65" d="M1451.33,87.28c3.78-1.1,7.57-2.51,11.38-2.88v117.07c-3.63,1.58-7.65,1.1-11.38.96-1.07-.04-7.21.86-7.21-1.44v-111.79c2.38-.96,4.81-1.22,7.21-1.92Z"/>
    <path class="st65" d="M1446.39,213.95c.13.03.58.97,1.28,1.03,4.99.4,10.03-.44,15.02-.07v117.07c-3.82-.25-7.6-1.79-11.38-2.88-1.01-.29-7.14-1.21-7.23-2.48l.02-110.28c.08-2.91,1.33-2.61,2.28-2.4h0Z"/>
    <path class="st65" d="M1449.43,340.62c.07.02.43.87.92,1,3.8,1.04,7.6,2.05,11.41,2.83.31-.03.95.91.95,1.44v84.92c-3.69-.42-7.37-2.99-11-4.8-1.95-.97-5.27-1.48-6.94-3.06-.46-.44-.63-.95-.64-2.21l.76-81.1c1.5.53,3.05.58,4.55.97h0Z"/>
    <rect class="st75" x="1466.87" y="82.49" width=".76" height="118.99"/>
    <rect class="st75" x="1466.87" y="214.91" width=".76" height="118.99"/>
    <path class="st65" d="M551.55,77.69c.78.2,2.18,1.62,3.23,1.91,4.09,1.12,8.22,1.89,12.32,2.89v118.51c0,3.25-5.7.51-6.62.44-6-.43-12.03.4-18.03.04v-124.75c2.97.1,6.15.23,9.1.96h0Z"/>
    <path class="st65" d="M544.72,214.91c7.43-.66,14.94.49,22.38,0v118.99c-5.11,1.69-10.27,2.39-15.39,3.8-.5.14-.84.98-.92,1-2.75.79-5.59,1.05-8.34,1.92v-125.72c.75-.05,1.52.07,2.28,0h0Z"/>
    <path class="st65" d="M553.07,350.21c.77-.24,1.65.22,2.46,0,3.86-1.07,7.66-3.6,11.57-2.87v87.32c-5.17.97-10.15,5.12-15.17,7.68-3.1,1.58-6.33,2.94-9.48,3.84v-92.12c3.55-.79,7.1-2.74,10.62-3.84h0Z"/>
    <path class="st65" d="M573.54,213.95c5.67-.87,11.7.56,17.41.11.17,2.02.38,4.01.43,6.1.77,28.28.73,71.54,0,99.87-.06,2.42-.38,4.7-.41,7.12l-18.57,4.84c-.27-.73-.48-1.01-.4-2.3l.02-115.74c.5-.06,1.02.08,1.52,0h0Z"/>
    <path class="st65" d="M573.54,84.4c5.78.57,12.03,4.13,17.83,5.34l-.43,111.62c-5.66-.81-11.37,2.14-17.03,1.06-1.09-.21-1.95.59-1.92-3.31l.02-114.72c.5.02,1.02-.04,1.52,0h0Z"/>
    <path class="st65" d="M574.3,344.46c2.2-.64,15.88-5.76,16.62-4.64.04.06.44,2.12.44,2.24v77.73c0,.61-.5,2.59-.91,2.56l-17.67,9.43c-.23-.22-.81.56-.77-.57v-83.44c-.06-4.39,1.15-2.98,2.28-3.31h0Z"/>
    <rect class="st31" x="593.64" y="90.16" width=".76" height="111.31"/>
  </g>
  <polygon class="st17" points="546.63 548.64 11.37 548.64 70.18 520.57 501.7 520.57 546.63 548.64"/>
  <rect class="st16" x="156.83" y="-20.06" width="1.65" height="569.44" transform="translate(107.82 -39.34) rotate(21.47)"/>
  <rect class="st16" x="412.43" y="-20.19" width="1.76" height="572.55" transform="translate(895.33 362.4) rotate(158.53)"/>
  <g>
    <path class="st9" d="M154.72,436.68c-6.12-1.74-10.74-4.19-17.56-4.53-6.79-.34-12.2,1.51-18.45,3.4.44-2.36-.37-7.24-2.07-9.17-.49-.56-2.13.07-2.81-.6.44,3.27.26,6.28-1.07,9.39-.56.36-9.28-3.65-9.64-4.2-.3-.45.9-5.33.76-6.89-.18-1.89-1.24-3.63-1.7-5.46l-1.24,4.72c-.98,1.32-1.42,4.76-3.64,3.57-.51-.27-5.95-5.19-6.06-5.56-.24-.78,1.66-5,1.67-6.69,0-.8-1.72-7.99-2.57-6.96.21,2.77-.65,6.5-2.78,8.64-.76.77-1.68-1.31-2.04-1.91-1.64-2.73-5.87-15.86-6.14-19-1.39-16.36,25.81-13.32,37.23-11.8l-1.26,1.7-5.1,3.94c4.5.44,7.42-.52,10.8-3.01.53-.39.73-1.29,1.34-1.47,1.32-.39,10.71,3.33,10.72,3.91-1.84,2.15-3.84,4.31-6.77,5.27,3.89,1.88,7.85-.75,11.16-2.39,1.59.28,7.99,8,8.26,9.63.43,2.55-7.71,3.43-9.68,3.29,3.56,3.02,8.6,3.85,13.13,2.07l7.63,17.69c1.19,4.16,1.19,8.63,0,12.79-.19,1.29-2.19.88-2.12-.37h0Z"/>
    <path class="st9" d="M163.61,428.41l7.22-16.55c4.72,1.66,9.41,1.06,13.12-2.08-1.9.14-9.1-.89-9.71-2.69-.56-1.69,6.66-9.47,8.65-10.66,2.84,2.79,7.09,4.08,11.22,3l-3.82-2.06c-1.15-1.17-3.12-2.15-2.93-3.93,2.49-.57,7.47-3.73,9.91-3.43.92.11,3.85,3.14,5.87,3.85,2.2.77,4.32.75,6.65.68l-4.67-3.57-1.69-2.07c11.73-1.49,38.45-4.77,37.27,11.84-.24,3.38-1.81,5.82-2.75,8.84-1.3,4.21-1.68,9.17-5.29,12.42l-2.43-4.43-.96-4.97c-1.51,3.09-2.16,6.56-1.66,9.94.13.86,1.61,3.69,1.46,3.99-.19.37-5.81,5.34-6.35,5.65-.41.24-.73.46-1.26.38-.62-.09-2.46-4.37-2.68-5.19-.27-1.02.3-2.94-.94-3.48-1.61,3.94-2.53,7.86-.53,11.86l-.31.35c-1.08.81-9.19,4.81-9.75,4.35-.17-1.62-1.12-3.08-1.27-4.71-.15-1.62.38-3.11.21-4.69-.69.67-2.32.05-2.81.6-1.8,2.03-2.27,6.67-2.07,9.17-6.42-2.12-11.83-3.81-18.87-3.4-6.59.38-10.16,2.62-15.87,4.16-.01,1.08-.45,1.21-1.27.37-.63,1.19-1.6.87-1.7-.37-.36-.49-.73-1.03-.77-1.63-.14-1.95-.36-9.58.22-10.73.14-.29.34-.55.55-.81h-.01Z"/>
    <path class="st20" d="M138.19,446.09l.64.5c.47,4.9,4.67,11.11,10.25,12.22.92-1.61,1.64-1.03,2.9-.02,4.01,6.21,14.59,5.66,18.49-.39,1.81-1.76,2.5-.89,3.38.89,2.55-1.75,4.12-4.91,4.16-7.87l.84-.81c1.38.04,2.61.81,3.7,2.32.92,1.53,1.95,2.26,3.09,2.19.32.39.55.75.85,1.13.25.38.25.64,0,.75-1.83,2.02-3.6,4.25-5.31,6.7l-4.89,3.78c-.06.15.58,3.11.75,3.12,3.69.06,9.32-7.84,8.57-11.23l.87-.86c1.58.96,2.79,2.43,3.64,4.42.32,1.54.95,2.45,1.86,2.73.1.35.36.66.43,1.13-.9.63-6.04,6.63-5.84,7.04.06.14,2.65,1.11,3.03,1.06,1.24-.17,2.26-5.62,1.99-6.77l.82-.57c.95,1.41-.04,8.1,1.56,8.6.57.18,1.29-.02,1.83.05,2.95.79,7.45,2.59,8.05,5.27-.06.27-.14.53-.27.78-1.39,2.61-13.37,5.34-16.99,5.23,6.08,4.26,14.78,1.99,17.2-4.51l.91-.37c.86-.46,1.72.06,2.57,1.56l2.44,3.61.92.1c.17.26.28.51.43.75.48,1.03.34,1.41-.43,1.13l-.63-.14c-6.66,4.24-14.62,7.11-22.99,6.62,7.03,4.91,19.01,1.63,22.47-5.59l1.15-.51c.2-.05.4-.09.58-.05.42.08,2.94,6.6,3,7.2l-.61.75-.39,1.3c-6.87,5.84-18.43,9.19-27.13,5.08l-7.98-.82c-6.08,3.53-14.39,3.21-21.41,2.14-3.24-.5-7.52-1.71-5.91-5.3-4.92,1.32-10.38,2.1-15.16.44-9.99,3.34-20.68.16-27.93-6.61.77-3.05,2.01-5.81,3.39-8.66.6.6.74.34.43-.75,1.48-2.83,2.41-4.64,4.66-7.15,1.35,1.13,1.49,1.01.43-.37,1.16-1.21,2.41-2.59,3.85-3.54,1.14-.75,4.7-1.89,4.85-2.08.16-.21.43-3.55.62-4.53.31-.18.61-.22.93-.08.43,3.06,2.01,4.78,4.75,5.15,1.51,1.79,2.74,1.93,3.67.43-3.12-2.18-6.26-4.51-8.38-7.55l-.12-1.34c1.07-3.33,2.62-7.06,5.08-9.78.48.04.58-.25.43-.75,1.04-2.59,3.87-5.14,5.93-7.15h0Z"/>
    <path class="st20" d="M107.69,495.38l1.12.47c3.96,8.31,15.72,12.23,24.19,6.63,2.8-2.48,3.77-1.34,2.78,1.51,4.98,1.96,10.2.99,15.05-.92,4.99,7.28,17.66,9.05,24.61,3.13,2.28-3.62,4.59-3.72,4.32.84.56.65,7.35.98,7.71.55-1.28-2.55,1-3.03,2.74-1.15,7.82,4.3,19.01,2.28,23.1-5.35l1.14-.45c.95,1.19,1.41,2.75,1.37,4.67-.14,1.39.11,2.46.75,3.24-.07,1.25-.05,1.48-.43,2.64-.61.23-.99.21-1.22-.32-6.24,3.54-17.47,8.29-23.85,3.1-3.48.8-7.13,1-10.94.59-2.68,5.25,6.37,3.33,9.67,2.57,1.64-1.16,2.79-1.39,3.47-.68-2.45,6.8-10.79,9.62-16.52,3.76-.12,1.11-.89,2.55-.88,3.6,0,.95,1.44,0,.46,1.67-7.46,1.86-15.31,3.24-22.79.25l-1.36-1.38c-1.07-3.19-1.69-6.1-2.13-9.4l-2.73,3.4c-6.84,5.67-14.63.17-16.75-6.41l.93-.37c3.56,3.21,8.03,4.49,13.1,3.46.81-.17,5.44-1.56,5.66-1.75.1-.09-1.32-2.03-1.55-2.05-5.44,1.15-11.64,1.25-16.82-.63-.47.39-.9.84-1.31,1.34-.16-.08-.64.08-.85,0-7.76.27-15.37,0-21.87-4.81l-1.01.67c-.67-1.85-.58-4.62-.42-6.58.16-2,.84-3.9,1.27-5.84h0Z"/>
    <path class="st23" d="M107.69,494.25c.79-.59.96-.03,1.49.36,6.01,4.54,12.1,7.37,20.33,6.78,1.87-.13,4.46-1.11,5.93-1.13,1.32-.01,3.23.65,4.68.75,4.41.29,7.96-.68,12.06-1.87-1.83,4.22-.97,4.46,3.3,5.53,4.72,1.19,11.9,1.25,16.72.39,1.79-.32,5.49-2.08,6.44-2.11.68-.02,6.86.57,7.64.7,1.03.18,1.86,1.24,3.87,1.46,10.22,1.12,16.19-1.41,23.47-7.1-.19-1.25.68-1.64,1.7-.75.06.21-.06.53,0,.75.08,1.26-.2,2.14-.85,2.64-3.75,8.5-15.93,11.13-24.53,6.54-.74-.4-1.48-1.71-2.16-1.09l.85,2.07c-1.65.64-8.67.45-9.55-.74-.46-.62.17-3.43-.83-3.39-.21,0-1.76,2.33-2.32,2.83-6.41,5.78-21.13,4.52-25.25-3.21-3.79,2.07-8.26,2.66-12.58,1.78-3.79-.77-3.53-.91-2.44-4.04-8.99,8.34-23.68,4.23-27.96-6.02.08-.34-.08-.8,0-1.13h0Z"/>
    <path class="st43" d="M156.84,437.06l.85.39c-.79,3.37-.09,6,2.12,7.89.46-.46,1.21-.8,2.24-1.02.33-1.2.86-2.11,1.58-2.74.5.27,1.11.44,1.7.37,1.89.52,3.16,1.28,3.81,2.26l.28.8-4.08,4.86c3.95,4.09,4.24-1.37,4.27-4.28l.8-.63c2-.24,7.25,2.41,6.78,4.51.85.97-.75,2.86-1.57,3.76-2.01,1.22-3.08,2.46-3.22,3.7.01.53-1.33,1.38-2.08,1.79-2.77,1.49-15.41,1.53-18.45.09-1.72-.57-2.19-1.47-1.4-2.7l-7.2-4.63c-1.53-1.25-4.57-4.11-4.63-5.77,1.35-1.27,5.51-5.28,7.2-5.65.79,1.44.93,1.44.43,0,2.22-2.13,5.66-2.32,8.47-3.38.7.2,1.29.52,2.12.37h0Z"/>
    <path class="st23" d="M132.26,453.24c7.95,13.51,27.3,18.89,42.79,12.42-2.39,8-16.47,9.36-23.27,5.05-1.77-1.12-4.91-5.76-4.27-.92-8.6-.29-16.92-8.07-15.67-15.8.07-.42.35-.57.43-.75h0Z"/>
    <path class="st23" d="M138.61,445.71l5.08,5.09c1.1,1.32,7.55,4.13,7.6,5.23.02.46-.63,1.42-.39,1.71s6.9,1.45,7.84,1.51c2.16.13,10.97-.72,12.51-1.68.69-.43-.09-1.1.18-1.68.24-.52,2.88-2.46,3.6-3.22.96-1.02,1.6-2.59,2.13-3.19-.39-1.13.66-1.39,1.27-.37,1.13.15,1.71,1.01.43,1.5.15,3.21-.93,5.77-3.21,8.25-2.97,3.22-1.74.54-3.98-1.1-3.4,7.81-16.95,8.41-20.77.75-1.45-.24-.51,1.29-2.23,1.07-4.83-.61-11.47-8.93-10.47-13.49.13-.13.29-.25.43-.37h0Z"/>
    <path class="st23" d="M111.5,484.84c5.85,4.06,16.48,7.33,23.9,6.36,1.36-.18,2.16-.97,3.41-1.11,2.03-.24,4.56.15,6.74-.03,2.99-.25,6.79-1.2,9.38-2.59.2,3.45-5.4,6.25-8.67,6.98-1.65.37-6.98,1.02-8.24.21-.71-.45.17-2.41-.46-3.05-8.05,7.06-23.15,3.54-26.48-6.02.13-.27.29-.5.43-.75h0Z"/>
    <path class="st23" d="M193.27,516.45c-.8,0-2.24,1.1-3.27,1.42-2.72.85-5.38,1.09-8.27.74-4.58-.55-2.3-1.6-2.44-4.8,3.21.11,6.28.21,9.49-.04.75-.06,2.22-.66,2.61-.6.32.05,1.06,1.85,4.22,2.14,6.9.63,14.12-1.93,19.49-5.64l1.05,1.51c-.29.89-.94,1.99-1.27,3.01-3.32,6.02-12.9,7.73-19.07,4.14-.74-.68-1.35-1.89-2.54-1.88h0Z"/>
    <path class="st10" d="M163.61,418.63c.31,3.02-.03,6.67,0,9.78.04,4.27.25,8.94,0,13.17-.14,2.33-.54,4.37-3.81,3.76-1.39-.75-1.81-1.44-1.27-2.07l-.56-.12c-.34-8.01-.43-16.1-.28-24.27l.85-.45c-.92-1.98,4.76-1.93,5.08.19h0Z"/>
    <path class="st23" d="M129.72,511.94c-.95,1.14-2.74,2.51-4.24,3.01-5.78,3.62-16.2.22-18.64-5.65-.06-.47,0-1.02,0-1.5,0-.68-.19-1.69.21-2.26,3.49,2.89,9.21,5.25,13.99,5.64,2.34.19,5.49-.34,7.63,0,.86.14.97.72,1.05.75h0Z"/>
    <path class="st23" d="M152.17,524.35c7.95,3.47,14.75,2.73,22.86.56.82-.22,1.47-.56,1.28.58-.75,1.27-1.78,2.46-2.97,3.38-4,5.28-15.64,4.34-19.49-.75-.71-1.39-1.16-2.18-1.7-3.76h0Z"/>
    <path class="st23" d="M116.59,477.32c3.63,2.13,8.15,4.08,12.55,4.47,2.51.22,5.26-.36,7.58.42l.21-1.5c1.79,1.27,14.6-.76,14.83-1.7l-.85-1.68c8.55,2.66,17.05,2.62,24.79-1.88,1.1-.23.24.89.08,1.2-3.49,6.6-12.6,8.72-20.01,6.34-2.96-.95-2.24-1.54-4-3.4-1.55,3.7-6.04,6.25-10.43,6.35-.43,0-3.4-.25-3.53-.36-.21-.17-.25-2.89-.65-3.36-6.42,6.82-18.89,4.34-20.97-4.52.12-.14.3-.24.43-.37h0Z"/>
    <path class="st43" d="M173.36,528.87c-4.42,9.92-13.93,9.71-19.25.33-.23-.42-.14-.88-.24-1.09,1.63.53,2.73,1.67,4.37,2.33,4.67,1.88,11.2,1.48,15.12-1.58h0Z"/>
    <path class="st43" d="M195.81,518.33c2.19-.08,4.23,1.1,6.56,1.16,5.15.13,9.12-2.13,12.5-5.29-1.05,3.24-.78,5.96-4.52,8.22-5.69,3.43-10.74-.56-14.55-4.08h0Z"/>
    <path class="st45" d="M125.48,514.95c-7.58,8.91-17.32,4.67-18.64-5.65,1.47.66,2.04,2.07,3.18,3.01,3.8,3.1,10.65,4.25,15.46,2.64h0Z"/>
    <path class="st54" d="M156.84,424.27c.03-1.88-.29-4.45.02-6.19.6-3.37,6.29-4.04,6.75.54-.75-1.07-5.08-1.02-5.08-.19v24.83c0,.21,1.18,1.56,1.27,2.07-4.24-.79-2.9-5.13-2.97-8.28-.09-4.25-.08-8.55,0-12.79Z"/>
    <path class="st23" d="M126.75,463.77c2.74,3.78,6.11,6.42,10.17,9.03-1.04-.19-2.81,2.26-3.18,2.26-.18,0-1.94-1.82-2.61-2.19-1.06-.57-2.65-.67-3.01-.9-.75-.46-1.55-3.99-2.22-4.81.25-1.31.43-2.11.85-3.38h0Z"/>
    <path class="st23" d="M146.24,440.07c.79.17,2.51,2.47,3.39,3.2.59.5,3.65,2.32,3.76,2.5.23.37-.32,1.33-.34,1.97,0,.46.47,1.02.42,1.5-.01.11-1.37.55-1.08,1.74-4.65-2.04-7.19-6.33-6.56-10.92.1-.02.32-.02.43,0h0Z"/>
    <path class="st41" d="M192.42,466.78c.03.24-.02.51,0,.75.15,2.13-.24,6.53-2.31,7.94-1.16.79-3.96-1.65-5.74-1.17,2.78-2,4.23-4.75,6.23-7.05.66-.76.85-.5,1.82-.47Z"/>
    <path class="st73" d="M210.64,487.85c-.36.68-.69,1.12-1.47.37-1.48-1.43-2.18-4.6-4.46-5.63-.63-.25-.91-.63-.85-1.13-2.54-2.43-4.4-4.05-8.05-5.27,7.24.98,11.51,6.48,14.83,11.67h0Z"/>
    <path class="st73" d="M166.58,441.57l10.3,5.33c1.07.47,1.17.99,1.56,1.81.37.12.37.24,0,.37-.35.06-1.07.15-1.27.37-1.61-2.01-4.28-3.48-6.78-4.51-.36-.46-.78-.7-1.27-.75l-4.24-1.51.43-.75c.23-.02.91-.28,1.27-.37h0Z"/>
    <path class="st25" d="M185.64,455.12l-1.26,1.5c-1.23-2.26-3.51-4.27-5.52-6.02-.04-.9-.25-.93-.43-1.5-.04-.12.05-.28,0-.37,3.19.73,5.34,4.17,7.2,6.39h0Z"/>
    <path class="st15" d="M192,465.66c-1.32,2.25-1.94-1.29-2.59-2.4-.93-1.59-2.12-3.09-2.91-4.75-.82-.47-.82-1.03,0-1.5v-.75c2.52,3.25,4.4,5.36,5.51,9.4Z"/>
    <path class="st73" d="M215.3,497.26c-.64.08-1.22.38-1.7.75l-2.97-7.9c-.37-.13-.37-.25,0-.37.12-.29.64-.58.43-1.13,1.83,3.05,3.18,5.14,4.24,8.66h0Z"/>
    <path class="st73" d="M216.57,508.55l-1.28.56c.26-2.82-.93-5.69-.85-8.47.03-.91.04-1.95.85-2.64,1.06,3.91,1.49,6.38,1.27,10.53h0Z"/>
    <path class="st33" d="M153.44,432.92c-14.5-14.99-32.89-27.66-54.13-34.13l-8.56-1.61c2.3-.1,4.61.14,6.86.48,17.61,2.67,39.99,16.91,51.16,29.06,1.68,1.82,3.73,4.03,4.67,6.2h0Z"/>
    <path class="st66" d="M228.01,402.45l-6.35,1.32c-21.65,6.35-40.35,19.23-55.08,34.42,1.11-2.17,2.99-4.35,4.67-6.2,11.08-12.14,33-25.92,50.39-29,2.09-.37,4.22-.67,6.37-.55h0Z"/>
    <path class="st23" d="M210.64,490.11c-2.96,7.12-11.37,10.1-19.51,8.86-2.14-.32-4.97-2.47-5.27-2.46-.35.02-.44,1.02-.93,1.13-1.99.45-8.63-.69-9.66-2.64-3.6,6.94-14.33,8.75-19.92,2.64-.25-.28-2.59-2.87-.91-2.58,2.1.37,4.3,1.21,6.48,1.4,4.94.45,9.38-.62,14.14-1.46l-2.33-3.76c2.2.68,4.51,1.23,6.83,1.46.99.1,5.06-.12,5.24.05.22.21-.55,2.22.69,2.58.9.26,5.87.14,7.1.01,3.23-.32,8.91-2.06,11.83-3.42,1.4-.65,3.79-2.51,4.82-2.87.72-.24,1.65-.37,1.39.68-.05.11.05.27,0,.37h0Z"/>
    <path class="st23" d="M203.86,481.46c.15.14,1.03-.51.85,1.13-.46,4.19-6.35,7.74-10.82,7.91-4.36.17-6.93-2.47-8.52-2.58-.53-.04-1.08.68-2.03.71-3.89.14-9.03-2.95-9.98-6.42,3.87.91,7.81,1.78,11.86,1.51l-.43,3.01c6.89.05,13.45-1.74,19.07-5.27h0Z"/>
    <path class="st23" d="M186.49,457v1.5c-.04,6.21-3.49,11.07-10.16,13.17,0-1.26-.87-3.24-.83-4.36.02-.51,4.09-3.15,5.05-4.11.85-.86,1.75-2.09,2.47-3.07.98-1.34,1.08-3.54,3.47-3.12h0Z"/>
    <path class="st23" d="M130.57,511.94c-.09-.28-.41-.95-.35-1.07.04-.08,1.29-1.1,1.39-1.11.3-.04,2.08.75,2.77.88,4.98.92,10.89.99,15.69-.58-.92,3.48,4.68,4.75,7.63,5.45,4.39,1.05,8.74,1.34,13.24.47,2.99-.58,5.55-2.22,8.37-3.1-4.56,11.26-22.81,10.81-29.07.97-4.87,2.41-10.24,3.2-15.44.93-1.77-.78-2.78-2.09-4.22-2.83Z"/>
    <path class="st23" d="M169.12,444.21c1.4-1.07,1.19-.18,1.27.75.18,2.04.12,4.22-1.04,6.04-2.08,3.26-2.67-.65-5.74-.78,2.03-1.34,3.88-4.77,5.51-6.02h0Z"/>
  </g>
  <g>
    <path class="st4" d="M393.29,397.5c3.52,2.57,5.67,6.72,4.33,11.73,1.61.16,2.55.69,2.81,1.6,8.42,2.89,15.71,6.9,22.41,12.78,2.18,1.92,4.15,4.14,6.14,6.27,6.42-4.57,12.44-4.28,17.45.59.57,1.05.94,1.97-.01,3.22-1.41.68-2.2,1.18-1.16,2.33-.51,1.36-.97,2.9.67,2.75.77.82,1.86,1.67,2.95,1.65,1.44.08.81,4.15-.69,4.07.86,1.02-2.14,5.77-3.52,5.77l.17.96c-1.28.83-2.48,1.72-3.6,2.68,1.14,5.38,1.06,10.81-.21,16.3,1.12-.28,2.96.59,2.83,2l.33.2c2.7,2.13,4.67,4.45,4.95,8.37.13,1.78.21,3.64-1.37,4.9,1.04,1.56-1.12,2.41-1.9.86-.9.06-1.48.64-1.76,1.72-1.39.39-2.03,1.13-1.16,2.33-.53,1.33-.66,2.54-.02,3.75-.15,2.27-3.88,3.73-5.81,4.3-2.66.77-4.53.53-6.89-.44-.34-.18-.65-.41-.98-.6-1.43.13-2.75-.35-3.93-1.43-4.63,3.35-9.49,5.85-14.57,7.5l-.54,4.2-.99.46c.86,1.03-2.16,5.78-3.52,5.77.56,1.77-4.05,4.39-5.23,3.4-1.27.31-1.52-.11-1.61-1.46-1.15-.1-1.84-.74-1.18-2.07-2.76-1.23-4.01-.76-6.21,2.17.45,1.53.14,2.25-.92,2.16-3.54-1.89-6.46-5.73-6.78-10.23-.1-1.45.41-3.13.35-4.26-1.05-1.85-2.36-2.96-3.93-3.32-.85.69-1.63,1.05-2.34,1.07-2.99-1.05-5.79-2.15-8.56-3.65l-.45-.78c1.35-3.03-1.83-4.71-3.91-2.31l-.88-.11c-3.47-2.29-6.68-4.72-9.77-7.55-1.11.03-2.03-.63-2.78-2-3.74,2.7-7.76,3.55-11.46,1.75-1.44-.76-1.7-.65-2.94-1.8l.03-.6c.66-1.23,1.43-2.82,2.31-4.75l-.87-.32c-.23-1.87-.85-2.49-1.85-1.85-1.39-.91-2.24-1.46-3.01.84-1.09.91-1.76.47-1.93-.78.33-5.02-.11-7.51,3.18-12.41,1-1.48,4.47-3.93,4.62-4.21.1-.19-.6-3.01-.69-3.85l.15-1.01c3.3-2.38,3.56-5.5-.39-5.87l-.4-.9c.03-1.28,1.03-6.46.91-6.75-.23-.56-3.9-2.3-4.85-3.18-3.44-3.17-3.4-8.23-2.33-12.91.61-1.58,1.62-.86,2.15.4.98.15,1.89.81,2.64,1.43l.78-.87c1.42-.15,2.29-.3,2.02-1.9,1.37-1.66,1.69-2.43.07-3.2.19-1.46.15-2.22-1.31-1.39-1.26-.03-2.31-1.31-1.42-2.54,3.58-3.6,9.48-4.89,13.54-3.21,1.03.43,3.41,2.37,3.64,2.36.31-.02,4.76-3.07,5.78-3.61h.92c1.55,3.63,6.1,2.54,5.1-1.97l.64-.82c.74-.29,3.81-1.34,4.05-1.59.57-.6,1.49-5.04,2.28-6.5,2.46-4.54,5.43-5.5,9.2-7.76,1-.43,1.23.12.81,1.18-.31.16-.45,2.14-.4,2.45.26,1.59,2.91,3.95,4.2,1.95.73.1,1.45-.19,2.16-.85-.31-1.32,1.31-4.59,2.87-3.6.55.31,1.1.65,1.64,1h0Z"/>
    <path class="st28" d="M429.25,497.6c-3.39,1.36-6.54,3.73-9.96,5.25-1.03.46-5.21,1.49-5.6,1.95-.35.4-.65,3.98-1.1,5.19-2.23,5.93-7.84,11.12-13.68,10.79-2.46-1.34-.74-4.62,1.55-3.28,1.36-.63,4.39-2.04,5.23-3.4l3.52-5.77c.55-.9.54-4.13.81-4.91.42-1.21,3.9-1.73,5.15-2.27,3.52-1.51,6.83-3.46,10.03-5.77.89-.07,3.08,1.68,4.05,2.21h0Z"/>
    <path class="st28" d="M452.35,439.91c.66,6.3-3.27,12.2-8.54,15.56.74,5.42,1.13,11.05.05,16.74-1.16-.7-2.18-1.19-3.46-1.62.82-3.36.91-6.96.83-10.27-.04-1.49-.89-5.49-.74-6.55.17-1.14,3.6-2.55,4.18-3.5l3.52-5.77c.33-.55.89-3.28.69-4.07,1.05-2.15,2.74-2.81,3.47-.52h0Z"/>
    <path class="st56" d="M446.42,430.48c1.05,1.02.59,1.74,1.95.13l1,1.67,1.9-2c-.6,1.97.82,1.5.92,1.84.33,1.01-1.77,1.69,1.66,2.39l-1.27,1.33.87.79-1.68.56c.16.98.47,1.7.57,2.73-1.35-.93-2.16-1.04-1.92.93-.47-.23-1-.91-1.55-.41-.32.29-.59,1.13-.94,1.54l-1.17-1.76-.94,1.53c-.53-.31.24-1.95-.21-2.23-.23-.14-1.69.96-2.17.25l.94-1.54-1.21-.22,1.5-1.72-1.96-1.21c.29-.46,1.68-.55,1.8-.74.24-.44-.87-1.02-.39-1.55l1.87.61.42-2.9h0Z"/>
    <path class="st72" d="M336.88,418.47c1.67,3.04.92,1.48,3.32.44-.61,1.72-.26,1.41,1.08,1.19l-1.17,1.92,2.76.64c-1.27.91-2.49,1.17-.96,2.31l-1.8.74,1.04,1.96c-1.47.47-1.76-1.08-2.03,1.13l-1.31-.8-1.08,2.51-.93-2.15-1.2.85c.47-2.68-.64-.91-2.37-.91l1.06-1.73-1.34-.03c.69-3.02-.3-2.13-.46-2.93-.21-1.04,1.61-.45,1.8-.74.26-.43-1.02-1.08-.28-1.75.35-.31,1.47,1.44,2.18-2.1,1.33,1.12,1.01.12,1.69-.56h0Z"/>
    <path class="st26" d="M390.54,518.29c.83-1.16-.08-1.7-.93-2.16l1.91-.93-.51-1.37c1.8,1.01,1.95-.1,2.06-1.91l1.31.79.61-1.73c.65,3.88,2.38.36,2.92.74.5.34-1.19,2.09,1.24,1.27l-1.17,1.92,2.76.64-1.2.85.92,1.09c-.51.24-1.89.7-2.03,1.12s.74,1.45.48,2.16c-1.35-.08-1.5-1.14-1.92.94l-1.31-.8-1.08,2.51-.92-2.15-1.36.75c.91-2.45-.79-.81-2.2-.82l1.17-1.93-1.77-.03c.14-.62.88-.75,1.03-.96h0Z"/>
    <path class="st26" d="M382.01,395.36s-.17-.44.05-.51c1.4-.43,1.87,1.64,1.83-2.56l1.4,1.38.61-1.73.93,2.15,2.23-1.8c.33.03-.98,2.14,1.23,1.28l-1.17,1.92c.62.49,1.61.14,2.26.46.26.13.23.53.26.55l-1.6,1.13.87.79-1.68.56.92,2.15c-1,.74-2.22-1.52-1.94,1.71l-1.4-1.38-1.08,2.5c-.77-.14-.42-1.51-1-1.67-.51-.14-1.06,1.09-1.53.66.88-2.4-.61-1.36-1.97-1.2l1.17-1.93-1.77-.03,1.5-1.72-1.63-1c.58-1.44,2.46.24,1.5-1.73h0Z"/>
    <path class="st36" d="M331.76,477.64c2.15,1.25,1.44-.55,1.73-2.1,1.08.76,1.32,1.21,2.02-.36l1.16,1.77,1.51-1.72c.52.29-.08,1.34,0,1.56.18.46,1.87-.63.56,1.95l2.43.43c-2.07,1.39-.84,2.22-.96,2.31-.26.21-1.12.14-1.36.74-.3.77,1.2,1.6.81,2.35-.55-.07-1.22-.46-1.7-.5-.51-.04-.08,1.37-.88,1.05-.27-.24-.68-.38-.98-.6l-1.08,2.5c-.77-1.37-.64-2.54-2.03-.71-.11-.86.52-1.82-.61-1.94-.65-.07-1.12,1.36-1.85.45l1.17-1.92-1.22-.22,1.26-1.33-1.63-1.01c.34-.9,1.26-.59,1.72-1.32.17-.28-.38-.45-.36-.65.04-.42.28-.66.29-.72h0Z"/>
    <path class="st68" d="M447.77,485.68c1.91-3.42,2.38-.22,1.67,2.14.87-.03,1.36.24,1.47.83.04.28,1.46.15-.5,1.54l.87.81c-3.45,1.33-1.37.97-1.22,3.47l-1.88-.6-.04,1.55-1.64-.99c-.14.95-.49,1.71-1.08,2.5-.94-.43-1.95-1.68-2.47-2.57-.71,0-1.35.41-2.01.35l1.17-1.93-1.21-.21,1.5-1.72-1.96-1.21c3.11-.06.94-2.15,1.4-2.3l1.88.6.43-2.9c1.09,2.38,1.55-.08,1.95.13l1,1.67c.27-.32.46-.92.7-1.15h0Z"/>
    <path class="st58" d="M450.9,488.65c-4.06.9-1.3-2.7-1.94-3.82-.31.19-.96.64-1.19.86,1.75-5.35-.51-9.89-3.58-13.27,5.3,3.28,8,6.33,7.45,13.7-.05.69-.75,2.42-.74,2.55h0Z"/>
    <path class="st58" d="M445.41,496.91c-1.44,1.95-5.75,3.45-7.87,3.55-3.37.16-4.62-.82-7.31-2.26,4.36.65,8.98-.28,12.7-3.86,1.77,0,2.14.94,2.47,2.57Z"/>
    <path class="st19" d="M400.43,410.84c-.85-.29-3.3-.35-3.66-1.26-.05-.12.5-2.03.47-2.77-.14-3.87-1.59-6.76-3.95-9.31,4.99,3.21,7.64,6.26,7.14,13.33h0Z"/>
    <path class="st28" d="M354.26,487.16l-4.9,1.74c-4.41,1.02-5.89-.19-9.33-1.99,3.97.73,7.86-.01,11.54-2.74.52-.04,2.19,2.53,2.69,2.99h0Z"/>
    <path class="st13" d="M359.83,414.02c2.39-1.27,4.31-1.87,6.65-2.8,1.86,5.83-4.75,8.25-6.65,2.8Z"/>
    <path class="st13" d="M338.87,457.17c-.29-2.46-.71-5.26-.64-7.78,5.5.22,5.36,4.79.64,7.78Z"/>
    <path class="st0" d="M369.27,497.91c-1.74-.94-3.58-2.11-5.24-3.2,2.79-4.04,7.81-1.03,5.24,3.2Z"/>
    <path class="st0" d="M377.83,501.56c1.68-2.79,4.19-2.44,5.51-.11.08.14.75,2.22.75,2.35-1.97-1.03-4.18-1.51-6.27-2.25h0Z"/>
    <path class="st0" d="M372.29,420.66c4.18,1.38,1.56,7.63-1.87,6.97-5.12-.98-1.62-8.12,1.87-6.97Z"/>
    <path class="st0" d="M358.39,437.52c4.44,1.36,1.31,7.98-2.18,6.91-4.44-1.36-1.31-7.98,2.18-6.91Z"/>
    <path class="st0" d="M406.78,483.44c4.33,1.81-.7,10.34-4.53,5.35-1.53-1.99,1.38-6.67,4.53-5.35Z"/>
    <path class="st0" d="M401.47,464.88c3.64,1.16,1.69,7.67-1.87,6.97-5.34-1.04-1.65-8.1,1.87-6.97Z"/>
    <path class="st60" d="M441.42,480.39c.74,3.61-4.51,6.71-6.34,2.85-1.88-3.98,5.3-7.95,6.34-2.85Z"/>
    <path class="st0" d="M399.99,496.73c5.3,1.52,1.33,8.16-2.18,6.92-3.77-1.33-.98-7.82,2.18-6.92Z"/>
    <path class="st0" d="M378.42,470.63c-.78-4.98,7.11-6.36,6.59-1.39-.48,4.62-6.01,5.07-6.59,1.39Z"/>
    <path class="st0" d="M380.77,414.52c-.78-4.98,7.11-6.36,6.59-1.39-.48,4.62-6.01,5.07-6.59,1.39Z"/>
    <path class="st0" d="M397.95,435.29c3.73,1.47,1.02,7.51-1.85,6.98-5.72-1.05-1.71-8.39,1.85-6.98Z"/>
    <path class="st0" d="M380.26,445.12c.81,5.13-7.09,6.28-6.59,1.4.45-4.37,5.99-5.22,6.59-1.4Z"/>
    <path class="st0" d="M366.55,474.19c6.03,1.31.78,9.23-2.67,6.61-2.68-2.04-.18-7.23,2.67-6.61Z"/>
    <path class="st0" d="M350.96,471c6.27,1.35.19,10.12-3.2,6.17-1.84-2.14.54-6.74,3.2-6.17Z"/>
    <path class="st60" d="M389.42,486.05c4.84,1.01,1.8,8.18-2.17,6.92-3.97-1.27-1-7.58,2.17-6.92Z"/>
    <path class="st0" d="M422.44,459.23c4.84,1.01,1.8,8.18-2.17,6.92-3.97-1.27-1-7.58,2.17-6.92Z"/>
    <path class="st0" d="M392.55,451.51c3.64,1.16,1.69,7.67-1.87,6.97-5-.97-1.82-8.15,1.87-6.97Z"/>
    <path class="st0" d="M437.34,435.58c3.64,1.16,1.69,7.67-1.87,6.97-5-.97-1.82-8.15,1.87-6.97Z"/>
    <path class="st0" d="M387.8,429.09c3.86,1.52.99,7.5-1.85,6.98-5.64-1.03-1.63-8.35,1.85-6.98Z"/>
    <path class="st0" d="M414.65,445.49c3.71,1.45,1.44,7.57-1.85,6.98-5.73-1.02-1.33-8.23,1.85-6.98Z"/>
    <path class="st0" d="M352.01,421.48c5.11,1.63-1.09,10.57-4.35,5.3-1.51-2.43,1.8-6.11,4.35-5.3Z"/>
    <path class="st60" d="M351.63,447.13c3.4,1.58.92,7.56-2.17,6.9-5.17-1.11-1.63-8.67,2.17-6.9Z"/>
    <path class="st0" d="M365.38,455.53c3.5,1.63.35,7.66-2.8,6.61-4.83-1.6-1-8.37,2.8-6.61Z"/>
    <path class="st60" d="M419.64,428.49c5.02,1.07,1.92,8.44-2.18,6.91-3.32-1.24-1.05-7.6,2.18-6.91h0Z"/>
    <path class="st0" d="M425.39,481.62c4.05.87,2.86,6.55-.37,6.99-5.6.77-3.46-7.81.37-6.99Z"/>
    <path class="st60" d="M401.49,418.45c6.63,1.43-1.11,11.16-3.75,5.1-1-2.31,1.59-5.56,3.75-5.1Z"/>
    <path class="st60" d="M434.07,450.5c5.95,1.76-.68,10.29-3.68,5.68-1.46-2.24,1.26-6.4,3.68-5.68Z"/>
  </g>
  <g>
    <path class="st4" d="M1749.72,400.93c3.52,2.57,5.67,6.72,4.33,11.73,1.61.16,2.55.69,2.81,1.6,8.42,2.89,15.71,6.9,22.41,12.78,2.18,1.92,4.15,4.14,6.14,6.27,6.42-4.57,12.44-4.28,17.45.59.57,1.05.94,1.97-.01,3.22-1.41.68-2.2,1.18-1.16,2.33-.51,1.36-.97,2.9.67,2.75.77.82,1.86,1.67,2.95,1.65,1.44.08.81,4.15-.69,4.07.86,1.02-2.14,5.77-3.52,5.77l.17.96c-1.28.83-2.48,1.72-3.6,2.68,1.14,5.38,1.06,10.81-.21,16.3,1.12-.28,2.96.59,2.83,2l.33.2c2.7,2.13,4.67,4.45,4.95,8.37.13,1.78.21,3.64-1.37,4.9,1.04,1.56-1.12,2.41-1.9.86-.9.06-1.48.64-1.76,1.72-1.39.39-2.03,1.13-1.16,2.33-.53,1.33-.66,2.54-.02,3.75-.15,2.27-3.88,3.73-5.81,4.3-2.66.77-4.53.53-6.89-.44-.34-.18-.65-.41-.98-.6-1.43.13-2.75-.35-3.93-1.43-4.63,3.35-9.49,5.85-14.57,7.5l-.54,4.2-.99.46c.86,1.03-2.16,5.78-3.52,5.77.56,1.77-4.05,4.39-5.23,3.4-1.27.31-1.52-.11-1.61-1.46-1.15-.1-1.84-.74-1.18-2.07-2.76-1.23-4.01-.76-6.21,2.17.45,1.53.14,2.25-.92,2.16-3.54-1.89-6.46-5.73-6.78-10.23-.1-1.45.41-3.13.35-4.26-1.05-1.85-2.36-2.96-3.93-3.32-.85.69-1.63,1.05-2.34,1.07-2.99-1.05-5.79-2.15-8.56-3.65l-.45-.78c1.35-3.03-1.83-4.71-3.91-2.31l-.88-.11c-3.47-2.29-6.68-4.72-9.77-7.55-1.11.03-2.03-.63-2.78-2-3.74,2.7-7.76,3.55-11.46,1.75-1.44-.76-1.7-.65-2.94-1.8l.03-.6c.66-1.23,1.43-2.82,2.31-4.75l-.87-.32c-.23-1.87-.85-2.49-1.85-1.85-1.39-.91-2.24-1.46-3.01.84-1.09.91-1.76.47-1.93-.78.33-5.02-.11-7.51,3.18-12.41,1-1.48,4.47-3.93,4.62-4.21.1-.19-.6-3.01-.69-3.85l.15-1.01c3.3-2.38,3.56-5.5-.39-5.87l-.4-.9c.03-1.28,1.03-6.46.91-6.75-.23-.56-3.9-2.3-4.85-3.18-3.44-3.17-3.4-8.23-2.33-12.91.61-1.58,1.62-.86,2.15.4.98.15,1.89.81,2.64,1.43l.78-.87c1.42-.15,2.29-.3,2.02-1.9,1.37-1.66,1.69-2.43.07-3.2.19-1.46.15-2.22-1.31-1.39-1.26-.03-2.31-1.31-1.42-2.54,3.58-3.6,9.48-4.89,13.54-3.21,1.03.43,3.41,2.37,3.64,2.36.31-.02,4.76-3.07,5.78-3.61h.92c1.55,3.63,6.1,2.54,5.1-1.97l.64-.82c.74-.29,3.81-1.34,4.05-1.59.57-.6,1.49-5.04,2.28-6.5,2.46-4.54,5.43-5.5,9.2-7.76,1-.43,1.23.12.81,1.18-.31.16-.45,2.14-.4,2.45.26,1.59,2.91,3.95,4.2,1.95.73.1,1.45-.19,2.16-.85-.31-1.32,1.31-4.59,2.87-3.6.55.31,1.1.65,1.64,1h0Z"/>
    <path class="st28" d="M1785.68,501.02c-3.39,1.36-6.54,3.73-9.96,5.25-1.03.46-5.21,1.49-5.6,1.95-.35.4-.65,3.98-1.1,5.19-2.23,5.93-7.84,11.12-13.68,10.79-2.46-1.34-.74-4.62,1.55-3.28,1.36-.63,4.39-2.04,5.23-3.4l3.52-5.77c.55-.9.54-4.13.81-4.91.42-1.21,3.9-1.73,5.15-2.27,3.52-1.51,6.83-3.46,10.03-5.77.89-.07,3.08,1.68,4.05,2.21h0Z"/>
    <path class="st28" d="M1808.78,443.34c.66,6.3-3.27,12.2-8.54,15.56.74,5.42,1.13,11.05.05,16.74-1.16-.7-2.18-1.19-3.46-1.62.82-3.36.91-6.96.83-10.27-.04-1.49-.89-5.49-.74-6.55.17-1.14,3.6-2.55,4.18-3.5l3.52-5.77c.33-.55.89-3.28.69-4.07,1.05-2.15,2.74-2.81,3.47-.52h0Z"/>
    <path class="st56" d="M1802.85,433.91c1.05,1.02.59,1.74,1.95.13l1,1.67,1.9-2c-.6,1.97.82,1.5.92,1.84.33,1.01-1.77,1.69,1.66,2.39l-1.27,1.33.87.79-1.68.56c.16.98.47,1.7.57,2.73-1.35-.93-2.16-1.04-1.92.93-.47-.23-1-.91-1.55-.41-.32.29-.59,1.13-.94,1.54l-1.17-1.76-.94,1.53c-.53-.31.24-1.95-.21-2.23-.23-.14-1.69.96-2.17.25l.94-1.54-1.21-.22,1.5-1.72-1.96-1.21c.29-.46,1.68-.55,1.8-.74.24-.44-.87-1.02-.39-1.55l1.87.61.42-2.9h0Z"/>
    <path class="st72" d="M1693.31,421.9c1.67,3.04.92,1.48,3.32.44-.61,1.72-.26,1.41,1.08,1.19l-1.17,1.92,2.76.64c-1.27.91-2.49,1.17-.96,2.31l-1.8.74,1.04,1.96c-1.47.47-1.76-1.08-2.03,1.13l-1.31-.8-1.08,2.51-.93-2.15-1.2.85c.47-2.68-.64-.91-2.37-.91l1.06-1.73-1.34-.03c.69-3.02-.3-2.13-.46-2.93-.21-1.04,1.61-.45,1.8-.74.26-.43-1.02-1.08-.28-1.75.35-.31,1.47,1.44,2.18-2.1,1.33,1.12,1.01.12,1.69-.56h0Z"/>
    <path class="st26" d="M1746.97,521.72c.83-1.16-.08-1.7-.93-2.16l1.91-.93-.51-1.37c1.8,1.01,1.95-.1,2.06-1.91l1.31.79.61-1.73c.65,3.88,2.38.36,2.92.74.5.34-1.19,2.09,1.24,1.27l-1.17,1.92,2.76.64-1.2.85.92,1.09c-.51.24-1.89.7-2.03,1.12s.74,1.45.48,2.16c-1.35-.08-1.5-1.14-1.92.94l-1.31-.8-1.08,2.51-.92-2.15-1.36.75c.91-2.45-.79-.81-2.2-.82l1.17-1.93-1.77-.03c.14-.62.88-.75,1.03-.96h0Z"/>
    <path class="st26" d="M1738.44,398.79s-.17-.44.05-.51c1.4-.43,1.87,1.64,1.83-2.56l1.4,1.38.61-1.73.93,2.15,2.23-1.8c.33.03-.98,2.14,1.23,1.28l-1.17,1.92c.62.49,1.61.14,2.26.46.26.13.23.53.26.55l-1.6,1.13.87.79-1.68.56.92,2.15c-1,.74-2.22-1.52-1.94,1.71l-1.4-1.38-1.08,2.5c-.77-.14-.42-1.51-1-1.67-.51-.14-1.06,1.09-1.53.66.88-2.4-.61-1.36-1.97-1.2l1.17-1.93-1.77-.03,1.5-1.72-1.63-1c.58-1.44,2.46.24,1.5-1.73h0Z"/>
    <path class="st36" d="M1688.19,481.06c2.15,1.25,1.44-.55,1.73-2.1,1.08.76,1.32,1.21,2.02-.36l1.16,1.77,1.51-1.72c.52.29-.08,1.34,0,1.56.18.46,1.87-.63.56,1.95l2.43.43c-2.07,1.39-.84,2.22-.96,2.31-.26.21-1.12.14-1.36.74-.3.77,1.2,1.6.81,2.35-.55-.07-1.22-.46-1.7-.5-.51-.04-.08,1.37-.88,1.05-.27-.24-.68-.38-.98-.6l-1.08,2.5c-.77-1.37-.64-2.54-2.03-.71-.11-.86.52-1.82-.61-1.94-.65-.07-1.12,1.36-1.85.45l1.17-1.92-1.22-.22,1.26-1.33-1.63-1.01c.34-.9,1.26-.59,1.72-1.32.17-.28-.38-.45-.36-.65.04-.42.28-.66.29-.72h0Z"/>
    <path class="st68" d="M1804.2,489.1c1.91-3.42,2.38-.22,1.67,2.14.87-.03,1.36.24,1.47.83.04.28,1.46.15-.5,1.54l.87.81c-3.45,1.33-1.37.97-1.22,3.47l-1.88-.6-.04,1.55-1.64-.99c-.14.95-.49,1.71-1.08,2.5-.94-.43-1.95-1.68-2.47-2.57-.71,0-1.35.41-2.01.35l1.17-1.93-1.21-.21,1.5-1.72-1.96-1.21c3.11-.06.94-2.15,1.4-2.3l1.88.6.43-2.9c1.09,2.38,1.55-.08,1.95.13l1,1.67c.27-.32.46-.92.7-1.15h0Z"/>
    <path class="st58" d="M1807.33,492.07c-4.06.9-1.3-2.7-1.94-3.82-.31.19-.96.64-1.19.86,1.75-5.35-.51-9.89-3.58-13.27,5.3,3.28,8,6.33,7.45,13.7-.05.69-.75,2.42-.74,2.55h0Z"/>
    <path class="st58" d="M1801.83,500.33c-1.44,1.95-5.75,3.45-7.87,3.55-3.37.16-4.62-.82-7.31-2.26,4.36.65,8.98-.28,12.7-3.86,1.77,0,2.14.94,2.47,2.57Z"/>
    <path class="st19" d="M1756.86,414.26c-.85-.29-3.3-.35-3.66-1.26-.05-.12.5-2.03.47-2.77-.14-3.87-1.59-6.76-3.95-9.31,4.99,3.21,7.64,6.26,7.14,13.33h0Z"/>
    <path class="st28" d="M1710.69,490.58l-4.9,1.74c-4.41,1.02-5.89-.19-9.33-1.99,3.97.73,7.86-.01,11.54-2.74.52-.04,2.19,2.53,2.69,2.99h0Z"/>
    <path class="st13" d="M1716.26,417.44c2.39-1.27,4.31-1.87,6.65-2.8,1.86,5.83-4.75,8.25-6.65,2.8Z"/>
    <path class="st13" d="M1695.29,460.6c-.29-2.46-.71-5.26-.64-7.78,5.5.22,5.36,4.79.64,7.78Z"/>
    <path class="st0" d="M1725.7,501.34c-1.74-.94-3.58-2.11-5.24-3.2,2.79-4.04,7.81-1.03,5.24,3.2Z"/>
    <path class="st0" d="M1734.26,504.98c1.68-2.79,4.19-2.44,5.51-.11.08.14.75,2.22.75,2.35-1.97-1.03-4.18-1.51-6.27-2.25h0Z"/>
    <path class="st0" d="M1728.71,424.09c4.18,1.38,1.56,7.63-1.87,6.97-5.12-.98-1.62-8.12,1.87-6.97Z"/>
    <path class="st0" d="M1714.81,440.95c4.44,1.36,1.31,7.98-2.18,6.91-4.44-1.36-1.31-7.98,2.18-6.91Z"/>
    <path class="st0" d="M1763.21,486.86c4.33,1.81-.7,10.34-4.53,5.35-1.53-1.99,1.38-6.67,4.53-5.35Z"/>
    <path class="st0" d="M1757.89,468.3c3.64,1.16,1.69,7.67-1.87,6.97-5.34-1.04-1.65-8.1,1.87-6.97Z"/>
    <path class="st60" d="M1797.85,483.81c.74,3.61-4.51,6.71-6.34,2.85-1.88-3.98,5.3-7.95,6.34-2.85Z"/>
    <path class="st0" d="M1756.41,500.15c5.3,1.52,1.33,8.16-2.18,6.92-3.77-1.33-.98-7.82,2.18-6.92Z"/>
    <path class="st0" d="M1734.85,474.05c-.78-4.98,7.11-6.36,6.59-1.39-.48,4.62-6.01,5.07-6.59,1.39Z"/>
    <path class="st0" d="M1737.2,417.94c-.78-4.98,7.11-6.36,6.59-1.39-.48,4.62-6.01,5.07-6.59,1.39Z"/>
    <path class="st0" d="M1754.38,438.71c3.73,1.47,1.02,7.51-1.85,6.98-5.72-1.05-1.71-8.39,1.85-6.98Z"/>
    <path class="st0" d="M1736.69,448.55c.81,5.13-7.09,6.28-6.59,1.4.45-4.37,5.99-5.22,6.59-1.4Z"/>
    <path class="st0" d="M1722.98,477.61c6.03,1.31.78,9.23-2.67,6.61-2.68-2.04-.18-7.23,2.67-6.61Z"/>
    <path class="st0" d="M1707.39,474.43c6.27,1.35.19,10.12-3.2,6.17-1.84-2.14.54-6.74,3.2-6.17Z"/>
    <path class="st60" d="M1745.85,489.47c4.84,1.01,1.8,8.18-2.17,6.92-3.97-1.27-1-7.58,2.17-6.92Z"/>
    <path class="st0" d="M1778.86,462.65c4.84,1.01,1.8,8.18-2.17,6.92-3.97-1.27-1-7.58,2.17-6.92Z"/>
    <path class="st0" d="M1748.97,454.94c3.64,1.16,1.69,7.67-1.87,6.97-5-.97-1.82-8.15,1.87-6.97Z"/>
    <path class="st0" d="M1793.77,439.01c3.64,1.16,1.69,7.67-1.87,6.97-5-.97-1.82-8.15,1.87-6.97Z"/>
    <path class="st0" d="M1744.23,432.51c3.86,1.52.99,7.5-1.85,6.98-5.64-1.03-1.63-8.35,1.85-6.98Z"/>
    <path class="st0" d="M1771.07,448.91c3.71,1.45,1.44,7.57-1.85,6.98-5.73-1.02-1.33-8.23,1.85-6.98Z"/>
    <path class="st0" d="M1708.44,424.9c5.11,1.63-1.09,10.57-4.35,5.3-1.51-2.43,1.8-6.11,4.35-5.3Z"/>
    <path class="st60" d="M1708.05,450.55c3.4,1.58.92,7.56-2.17,6.9-5.17-1.11-1.63-8.67,2.17-6.9Z"/>
    <path class="st0" d="M1721.8,458.95c3.5,1.63.35,7.66-2.8,6.61-4.83-1.6-1-8.37,2.8-6.61Z"/>
    <path class="st60" d="M1776.06,431.91c5.02,1.07,1.92,8.44-2.18,6.91-3.32-1.24-1.05-7.6,2.18-6.91h0Z"/>
    <path class="st0" d="M1781.82,485.05c4.05.87,2.86,6.55-.37,6.99-5.6.77-3.46-7.81.37-6.99Z"/>
    <path class="st60" d="M1757.91,421.88c6.63,1.43-1.11,11.16-3.75,5.1-1-2.31,1.59-5.56,3.75-5.1Z"/>
    <path class="st60" d="M1790.49,453.93c5.95,1.76-.68,10.29-3.68,5.68-1.46-2.24,1.26-6.4,3.68-5.68Z"/>
  </g>
  <polygon class="st17" points="1285.89 672.08 750.63 672.08 809.44 644.01 1240.96 644.01 1285.89 672.08"/>
  <g>
    <path class="st9" d="M998.57,553.27c-6.39-1.86-11.2-4.49-18.32-4.85-7.09-.36-12.73,1.61-19.25,3.64.46-2.52-.38-7.75-2.16-9.81-.51-.59-2.22.08-2.93-.64.46,3.5.27,6.72-1.12,10.05-.58.38-9.68-3.91-10.06-4.49-.31-.48.94-5.71.79-7.37-.18-2.02-1.29-3.89-1.77-5.84l-1.3,5.05c-1.03,1.41-1.49,5.09-3.8,3.82-.53-.29-6.2-5.55-6.32-5.95-.25-.84,1.73-5.35,1.74-7.16,0-.85-1.8-8.55-2.68-7.45.22,2.96-.68,6.96-2.9,9.24-.8.82-1.75-1.4-2.13-2.04-1.71-2.93-6.13-16.98-6.4-20.33-1.45-17.51,26.92-14.25,38.84-12.63l-1.31,1.82-5.32,4.21c4.7.47,7.74-.56,11.27-3.22.55-.42.76-1.38,1.4-1.57,1.38-.42,11.18,3.56,11.19,4.19-1.92,2.3-4.01,4.61-7.06,5.64,4.06,2.01,8.19-.8,11.65-2.55,1.66.29,8.34,8.56,8.62,10.3.45,2.73-8.04,3.68-10.1,3.53,3.72,3.24,8.97,4.11,13.69,2.22l7.96,18.93c1.25,4.45,1.24,9.24,0,13.69-.2,1.38-2.28.94-2.21-.4h0Z"/>
    <path class="st9" d="M1007.86,544.42l7.53-17.71c4.93,1.77,9.82,1.13,13.68-2.22-1.98.15-9.5-.96-10.13-2.88-.59-1.81,6.95-10.13,9.02-11.41,2.97,2.99,7.4,4.37,11.71,3.21l-3.98-2.21c-1.2-1.25-3.26-2.3-3.05-4.2,2.6-.61,7.79-3.99,10.34-3.67.96.12,4.02,3.36,6.12,4.12,2.29.82,4.51.8,6.94.72l-4.87-3.82-1.76-2.22c12.24-1.6,40.12-5.11,38.89,12.67-.25,3.62-1.89,6.23-2.87,9.46-1.36,4.5-1.75,9.81-5.52,13.29l-2.54-4.74-1-5.32c-1.58,3.31-2.26,7.02-1.73,10.63.13.92,1.68,3.95,1.52,4.27-.19.39-6.06,5.71-6.62,6.05-.42.26-.76.49-1.32.41-.64-.09-2.57-4.68-2.8-5.56-.28-1.1.31-3.14-.98-3.73-1.68,4.22-2.64,8.41-.55,12.7l-.32.37c-1.13.87-9.59,5.14-10.18,4.65-.17-1.73-1.17-3.3-1.33-5.04-.16-1.73.4-3.33.22-5.02-.72.71-2.42.05-2.93.64-1.87,2.17-2.37,7.13-2.16,9.82-6.7-2.27-12.34-4.08-19.68-3.64-6.87.41-10.6,2.8-16.56,4.45-.01,1.16-.47,1.3-1.33.4-.66,1.27-1.67.93-1.77-.4-.37-.53-.76-1.1-.81-1.74-.14-2.09-.38-10.25.23-11.48.15-.31.36-.59.58-.87h-.01Z"/>
    <path class="st20" d="M981.33,563.34l.67.54c.49,5.24,4.87,11.89,10.69,13.07.96-1.72,1.71-1.11,3.02-.02,4.19,6.65,15.22,6.06,19.29-.42,1.88-1.88,2.61-.96,3.53.95,2.66-1.87,4.3-5.25,4.35-8.42l.87-.86c1.44.04,2.72.87,3.86,2.49.96,1.64,2.03,2.42,3.22,2.34.34.42.58.8.88,1.21.26.41.26.68,0,.81-1.91,2.16-3.76,4.55-5.54,7.17l-5.1,4.04c-.06.16.6,3.33.79,3.34,3.85.06,9.72-8.39,8.94-12.02l.91-.92c1.64,1.02,2.92,2.6,3.8,4.73.34,1.65.99,2.62,1.94,2.92.1.37.37.71.44,1.21-.94.67-6.3,7.09-6.09,7.54.06.14,2.76,1.18,3.16,1.13,1.29-.18,2.36-6.01,2.08-7.25l.86-.61c.99,1.51-.04,8.67,1.62,9.2.6.19,1.35-.02,1.91.06,3.07.85,7.77,2.77,8.4,5.64-.06.29-.15.57-.28.83-1.46,2.8-13.95,5.71-17.73,5.6,6.34,4.56,15.42,2.12,17.94-4.83l.95-.4c.9-.49,1.79.06,2.69,1.67l2.54,3.86.96.11c.17.28.29.54.44.81.5,1.11.35,1.51-.44,1.21l-.65-.15c-6.95,4.54-15.25,7.61-23.99,7.08,7.33,5.25,19.83,1.75,23.45-5.98l1.2-.55c.21-.06.41-.09.6-.05.44.09,3.07,7.06,3.13,7.71l-.64.8-.41,1.39c-7.17,6.24-19.23,9.84-28.31,5.44l-8.33-.87c-6.34,3.78-15.01,3.44-22.34,2.29-3.38-.53-7.84-1.83-6.16-5.67-5.14,1.41-10.83,2.25-15.81.47-10.42,3.57-21.57.17-29.14-7.07.81-3.26,2.1-6.22,3.54-9.26.62.64.77.37.44-.81,1.54-3.03,2.51-4.97,4.86-7.65,1.41,1.21,1.56,1.08.44-.4,1.21-1.29,2.51-2.77,4.02-3.79,1.19-.8,4.91-2.02,5.06-2.23.17-.23.45-3.8.64-4.85.32-.19.64-.23.97-.09.44,3.28,2.09,5.11,4.95,5.52,1.58,1.91,2.86,2.07,3.83.46-3.26-2.34-6.53-4.82-8.74-8.07l-.12-1.44c1.12-3.56,2.74-7.55,5.3-10.47.5.04.61-.27.44-.81,1.09-2.78,4.04-5.5,6.19-7.65h0Z"/>
    <path class="st20" d="M949.51,616.09l1.17.5c4.13,8.9,16.4,13.09,25.24,7.1,2.93-2.65,3.93-1.44,2.91,1.62,5.19,2.1,10.64,1.06,15.7-.99,5.2,7.79,18.42,9.68,25.67,3.35,2.38-3.87,4.79-3.98,4.51.9.58.7,7.66,1.05,8.05.59-1.34-2.73,1.04-3.24,2.86-1.23,8.16,4.6,19.83,2.44,24.1-5.72l1.19-.48c.99,1.27,1.47,2.94,1.43,4.99-.14,1.48.12,2.64.79,3.46-.07,1.33-.05,1.58-.44,2.82-.64.24-1.03.22-1.27-.34-6.51,3.79-18.23,8.87-24.89,3.32-3.63.86-7.44,1.07-11.42.63-2.8,5.62,6.65,3.56,10.09,2.75,1.71-1.24,2.92-1.48,3.62-.73-2.56,7.27-11.26,10.3-17.23,4.03-.13,1.18-.93,2.73-.92,3.85,0,1.02,1.5,0,.48,1.78-7.78,1.99-15.97,3.47-23.78.27l-1.42-1.47c-1.12-3.41-1.76-6.52-2.22-10.06l-2.85,3.64c-7.14,6.07-15.27.18-17.48-6.86l.97-.39c3.72,3.44,8.38,4.81,13.66,3.7.85-.18,5.68-1.67,5.9-1.87.1-.1-1.38-2.17-1.61-2.19-5.67,1.23-12.14,1.33-17.55-.68-.49.42-.94.9-1.37,1.43-.16-.09-.66.08-.88,0-8.09.28-16.03,0-22.82-5.14l-1.05.71c-.7-1.98-.6-4.94-.44-7.04.16-2.14.87-4.18,1.32-6.24h0Z"/>
    <path class="st23" d="M949.51,614.88c.82-.63,1.01-.03,1.55.39,6.27,4.86,12.62,7.88,21.21,7.25,1.95-.14,4.65-1.19,6.18-1.21,1.38-.01,3.37.7,4.88.8,4.6.31,8.3-.72,12.59-2-1.91,4.52-1.02,4.77,3.44,5.92,4.93,1.27,12.42,1.34,17.44.42,1.86-.34,5.73-2.22,6.72-2.26.71-.02,7.16.61,7.97.75,1.08.19,1.94,1.32,4.04,1.56,10.66,1.2,16.89-1.51,24.48-7.6-.19-1.34.71-1.75,1.77-.81.06.23-.06.57,0,.81.08,1.35-.21,2.29-.88,2.82-3.92,9.1-16.62,11.91-25.59,7-.77-.42-1.54-1.83-2.26-1.16l.88,2.21c-1.72.69-9.04.48-9.97-.79-.48-.66.17-3.68-.87-3.63-.22,0-1.84,2.5-2.42,3.03-6.69,6.18-22.04,4.84-26.34-3.43-3.95,2.21-8.62,2.84-13.13,1.91-3.96-.82-3.69-.98-2.55-4.33-9.38,8.92-24.71,4.53-29.17-6.44.08-.36-.08-.86,0-1.21h0Z"/>
    <path class="st43" d="M1000.78,553.68l.89.42c-.83,3.6-.09,6.42,2.21,8.44.48-.49,1.26-.86,2.33-1.1.35-1.28.9-2.26,1.64-2.93.52.28,1.16.47,1.77.4,1.97.56,3.3,1.37,3.98,2.41l.29.86-4.26,5.2c4.12,4.38,4.43-1.46,4.46-4.58l.84-.67c2.08-.26,7.56,2.58,7.07,4.83.89,1.04-.79,3.06-1.64,4.03-2.09,1.31-3.21,2.63-3.36,3.96.01.57-1.39,1.48-2.17,1.91-2.89,1.59-16.08,1.63-19.25.09-1.79-.61-2.28-1.57-1.47-2.89l-7.51-4.96c-1.59-1.33-4.76-4.39-4.83-6.18,1.41-1.36,5.75-5.65,7.51-6.04.82,1.54.97,1.54.44,0,2.32-2.27,5.91-2.49,8.84-3.62.73.21,1.35.56,2.21.4h0Z"/>
    <path class="st23" d="M975.15,570.99c8.3,14.46,28.48,20.22,44.64,13.29-2.5,8.56-17.19,10.01-24.28,5.41-1.84-1.2-5.12-6.17-4.45-.98-8.97-.31-17.65-8.64-16.35-16.91.07-.45.37-.61.44-.81h0Z"/>
    <path class="st23" d="M981.77,562.94l5.3,5.44c1.15,1.42,7.87,4.42,7.93,5.6.02.49-.65,1.52-.41,1.83s7.2,1.56,8.18,1.61c2.26.14,11.44-.77,13.05-1.8.72-.46-.09-1.17.19-1.8.25-.56,3.01-2.63,3.76-3.45,1-1.09,1.67-2.77,2.22-3.41-.4-1.21.69-1.49,1.33-.4,1.18.16,1.78,1.08.44,1.61.15,3.44-.97,6.18-3.35,8.82-3.1,3.45-1.82.57-4.16-1.17-3.55,8.35-17.68,9-21.67.81-1.51-.26-.53,1.38-2.32,1.14-5.04-.66-11.96-9.55-10.93-14.44.14-.14.3-.27.44-.4h0Z"/>
    <path class="st23" d="M953.49,604.81c6.1,4.35,17.19,7.84,24.94,6.81,1.42-.19,2.25-1.03,3.55-1.19,2.12-.26,4.76.16,7.04-.03,3.11-.27,7.09-1.29,9.78-2.77.21,3.69-5.64,6.68-9.04,7.47-1.72.4-7.28,1.09-8.6.23-.74-.48.18-2.58-.48-3.26-8.4,7.56-24.15,3.79-27.63-6.44.13-.29.3-.54.44-.81h0Z"/>
    <path class="st23" d="M1038.8,638.64c-.83,0-2.34,1.17-3.41,1.52-2.84.91-5.61,1.16-8.63.79-4.77-.58-2.4-1.71-2.55-5.13,3.35.12,6.55.23,9.9-.04.79-.06,2.31-.71,2.73-.65.33.05,1.11,1.98,4.4,2.29,7.2.67,14.74-2.07,20.34-6.04l1.1,1.61c-.3.95-.98,2.13-1.33,3.22-3.47,6.44-13.45,8.27-19.89,4.43-.77-.72-1.41-2.02-2.65-2.01h0Z"/>
    <path class="st10" d="M1007.86,533.95c.32,3.23-.03,7.14,0,10.47.04,4.57.26,9.56,0,14.09-.14,2.49-.56,4.67-3.98,4.03-1.46-.8-1.89-1.54-1.33-2.22l-.59-.13c-.35-8.57-.45-17.23-.29-25.97l.88-.48c-.96-2.12,4.96-2.07,5.3.2h0Z"/>
    <path class="st23" d="M972.49,633.8c-.99,1.22-2.86,2.69-4.42,3.22-6.03,3.88-16.9.23-19.45-6.04-.06-.5,0-1.09,0-1.61,0-.73-.19-1.81.22-2.41,3.64,3.1,9.61,5.62,14.6,6.03,2.44.2,5.73-.36,7.96,0,.9.15,1.01.77,1.09.8h0Z"/>
    <path class="st23" d="M995.92,647.09c8.29,3.72,15.39,2.93,23.85.59.86-.24,1.53-.59,1.34.62-.78,1.36-1.86,2.64-3.09,3.62-4.17,5.65-16.32,4.65-20.33-.81-.74-1.49-1.21-2.34-1.77-4.03h0Z"/>
    <path class="st23" d="M958.79,596.76c3.78,2.27,8.51,4.37,13.09,4.78,2.62.24,5.49-.39,7.91.44l.21-1.6c1.87,1.36,15.23-.81,15.47-1.82l-.89-1.8c8.92,2.84,17.79,2.81,25.86-2.01,1.15-.25.25.96.08,1.28-3.64,7.07-13.15,9.34-20.88,6.78-3.08-1.02-2.33-1.65-4.18-3.64-1.62,3.96-6.3,6.69-10.88,6.8-.45,0-3.55-.27-3.68-.38-.21-.18-.26-3.1-.68-3.6-6.7,7.3-19.71,4.65-21.88-4.83.13-.14.31-.26.44-.4h0Z"/>
    <path class="st43" d="M1018.02,651.92c-4.61,10.62-14.53,10.39-20.08.36-.24-.44-.14-.95-.25-1.16,1.7.57,2.85,1.79,4.55,2.49,4.87,2.01,11.69,1.58,15.78-1.69h0Z"/>
    <path class="st43" d="M1041.45,640.65c2.28-.08,4.42,1.17,6.85,1.24,5.37.14,9.51-2.28,13.04-5.66-1.09,3.46-.81,6.38-4.71,8.79-5.94,3.68-11.2-.6-15.18-4.36h0Z"/>
    <path class="st45" d="M968.07,637.03c-7.91,9.54-18.07,4.99-19.45-6.04,1.53.71,2.13,2.22,3.32,3.22,3.97,3.32,11.11,4.54,16.13,2.82h0Z"/>
    <path class="st54" d="M1000.78,539.99c.03-2.01-.3-4.76.02-6.62.63-3.61,6.56-4.33,7.05.58-.78-1.14-5.3-1.09-5.3-.2v26.58c0,.23,1.24,1.67,1.33,2.22-4.43-.84-3.03-5.49-3.09-8.86-.09-4.54-.08-9.15,0-13.69Z"/>
    <path class="st23" d="M969.4,582.26c2.86,4.05,6.38,6.87,10.61,9.66-1.08-.2-2.94,2.41-3.31,2.41-.19,0-2.02-1.95-2.73-2.34-1.1-.61-2.76-.72-3.14-.96-.78-.49-1.61-4.27-2.31-5.14.26-1.41.45-2.26.88-3.62h0Z"/>
    <path class="st23" d="M989.73,556.9c.82.18,2.62,2.64,3.53,3.43.62.54,3.81,2.48,3.93,2.68.24.39-.34,1.42-.35,2.11,0,.49.49,1.09.43,1.6-.01.12-1.43.58-1.13,1.86-4.85-2.18-7.5-6.78-6.85-11.68.1-.02.34-.02.44,0h0Z"/>
    <path class="st41" d="M1037.91,585.49c.03.26-.02.54,0,.81.15,2.27-.25,6.98-2.41,8.5-1.21.85-4.13-1.76-5.98-1.25,2.9-2.14,4.41-5.08,6.5-7.54.69-.81.88-.53,1.9-.51Z"/>
    <path class="st73" d="M1056.92,608.03c-.37.72-.72,1.2-1.53.39-1.54-1.53-2.27-4.93-4.65-6.03-.66-.27-.95-.67-.88-1.21-2.65-2.6-4.59-4.33-8.4-5.64,7.55,1.05,12,6.93,15.47,12.48h0Z"/>
    <path class="st73" d="M1010.95,558.51l10.75,5.71c1.12.5,1.23,1.06,1.62,1.94.39.13.38.26,0,.4-.37.07-1.12.16-1.33.4-1.68-2.15-4.47-3.72-7.07-4.83-.37-.49-.82-.75-1.33-.81l-4.42-1.61.44-.8c.24-.02.95-.3,1.33-.4h0Z"/>
    <path class="st25" d="M1030.84,573.01l-1.32,1.61c-1.28-2.41-3.66-4.57-5.76-6.44-.04-.97-.26-1-.44-1.61-.04-.13.05-.29,0-.4,3.33.78,5.58,4.47,7.51,6.84h0Z"/>
    <path class="st15" d="M1037.47,584.28c-1.38,2.41-2.03-1.38-2.71-2.57-.97-1.7-2.21-3.3-3.04-5.08-.86-.51-.86-1.1,0-1.61v-.81c2.63,3.48,4.59,5.73,5.75,10.06Z"/>
    <path class="st73" d="M1061.78,618.1c-.66.09-1.28.41-1.77.81l-3.09-8.46c-.38-.14-.38-.27,0-.4.13-.31.66-.62.44-1.21,1.91,3.26,3.31,5.5,4.42,9.26h0Z"/>
    <path class="st73" d="M1063.11,630.18l-1.33.6c.27-3.01-.97-6.09-.88-9.06.03-.98.04-2.09.88-2.82,1.1,4.19,1.55,6.82,1.33,11.27h0Z"/>
    <path class="st33" d="M997.24,549.25c-15.13-16.04-34.32-29.6-56.48-36.53l-8.93-1.72c2.4-.11,4.81.15,7.16.52,18.38,2.86,41.72,18.09,53.38,31.1,1.75,1.95,3.89,4.31,4.87,6.64h0Z"/>
    <path class="st66" d="M1075.04,516.64l-6.62,1.41c-22.59,6.8-42.1,20.58-57.46,36.84,1.16-2.32,3.11-4.66,4.87-6.63,11.56-12.99,34.43-27.74,52.57-31.03,2.18-.4,4.4-.72,6.64-.58h0Z"/>
    <path class="st23" d="M1056.92,610.45c-3.08,7.62-11.87,10.81-20.36,9.49-2.23-.35-5.19-2.65-5.5-2.63-.36.02-.46,1.09-.97,1.21-2.08.48-9-.74-10.08-2.83-3.75,7.43-14.95,9.36-20.78,2.82-.26-.29-2.7-3.08-.95-2.76,2.19.4,4.48,1.29,6.76,1.5,5.16.48,9.78-.67,14.76-1.56l-2.43-4.03c2.3.72,4.7,1.32,7.13,1.56,1.04.11,5.28-.13,5.47.05.23.22-.57,2.38.72,2.76.94.28,6.12.14,7.41.01,3.37-.34,9.3-2.21,12.34-3.66,1.46-.7,3.95-2.69,5.03-3.07.75-.26,1.72-.39,1.46.72-.05.12.05.28,0,.4h0Z"/>
    <path class="st23" d="M1049.84,601.19c.15.15,1.07-.55.88,1.21-.48,4.49-6.62,8.28-11.29,8.46-4.55.18-7.23-2.64-8.89-2.76-.55-.04-1.13.73-2.11.76-4.06.15-9.42-3.15-10.41-6.87,4.04.98,8.15,1.9,12.37,1.61l-.44,3.22c7.19.05,14.04-1.86,19.89-5.64h0Z"/>
    <path class="st23" d="M1031.73,575.02v1.61c-.04,6.65-3.64,11.85-10.6,14.09,0-1.35-.91-3.47-.87-4.67.02-.54,4.27-3.37,5.27-4.4.89-.92,1.83-2.24,2.58-3.29,1.02-1.43,1.13-3.79,3.62-3.34h0Z"/>
    <path class="st23" d="M973.38,633.8c-.09-.3-.42-1.02-.36-1.14.04-.08,1.35-1.18,1.45-1.19.31-.04,2.17.8,2.89.94,5.2.98,11.36,1.06,16.37-.62-.96,3.72,4.88,5.09,7.96,5.83,4.58,1.12,9.11,1.44,13.81.5,3.12-.62,5.79-2.37,8.74-3.32-4.75,12.05-23.8,11.57-30.33,1.04-5.08,2.58-10.68,3.42-16.11.99-1.85-.83-2.9-2.24-4.41-3.03Z"/>
    <path class="st23" d="M1013.6,561.33c1.47-1.15,1.24-.19,1.33.81.19,2.19.13,4.51-1.09,6.46-2.17,3.49-2.79-.69-5.98-.83,2.12-1.44,4.05-5.1,5.75-6.44h0Z"/>
  </g>
  <g>
    <polygon class="st17" points="2032.51 546.23 1497.25 546.23 1556.06 518.16 1987.58 518.16 2032.51 546.23"/>
    <rect class="st16" x="1642.44" y="-20.06" width="1.65" height="569.44" transform="translate(210.93 -583.15) rotate(21.47)"/>
    <rect class="st16" x="1900.44" y="-21.62" width="1.76" height="572.55" transform="translate(3767.56 -185.04) rotate(158.53)"/>
  </g>
  <g>
    <path class="st34" d="M217.05,490.21c1.24.44,2.14,1.35,2.71,2.74,2.06,1.61,2.4,2.81,1.01,3.61-2.22.29-4.7.91-1.35,2.61,1.93.75,2.83,1.71,2.71,2.9-1.57,1.05-3.02,2.25-4.32,3.6,1.54.48,3.12.88,4.71,1.2l.25.77c.78.59-.86,3.14-1.44,4-.28.91-.75,1.32-1.41,1.22,2.12,0,4.23-.27,6.33-.81,1.44,1,1.27,2.56.49,4-.01,1.46-1.51,2.84-3,2.76v.84c-1.72,1.3-3.53,2.5-5.47,3.44l-.76-.37c-2.27.96-6.53,1.83-9.04,2.16-1,.13-8,.71-8.22.12,1.75-4.78,4.86-9.39,8.56-12.9-5.17-1.1-10.23-2.87-14.83-5.56,3.2-2.76,6.93-4.73,10.69-6.6-2.98-2.44-6.3-4.78-8.59-7.93-.67-.93,1.33-1.34,2.04-1.54,4.33-1.21,10.13-1.69,14.61-1.15,1.03-.92,3.73-.32,4.34.91h0Z"/>
    <path class="st50" d="M356.37,507.17c-1.46.2-2.82.41-4.31.39.55,1.58.62,3.28.64,4.93-3.42-1-5.97-3.14-8.57-5.42-.38,1.02-.6,2.29-1.06,3.27-9.93,21.38-49.2,34.23-71.62,33.95-17.67-.22-36.27-7.16-46.81-22-2.49,1.04-4.84,2.27-7.53,2.78l.36-2.36c1.96-.82,4.59-2.58,6.24-3.91l1.1.14c22.72,28.09,61.55,24.15,90.76,10.21,11.02-5.26,22.21-12.6,26.89-24.19l.79-.98c2.73.88,5.49,1.59,8.25,2.15l.92.73c.87-.89,3.28-.78,3.92.32h0Z"/>
    <path class="st52" d="M338.43,484.87c.91-.23,1.04.38.27.88.88,1.22-.37,2.46-1.64,1.38-14.9-14.4-36.06-21.85-56.37-24.01-21.23-2.25-45.63,4.27-56.66,23.16-.79.5-2.62.15-2.9-.79.46-1.55,1.45-3.16,2.47-4.51,10.22-16.36,32.15-23.27,50.77-22.55,19.52.76,51.92,10.43,64.06,26.44h0Z"/>
    <path class="st51" d="M348.7,482.43c.21.82.08,1.77-.39,2.87,2.59-.05,5.21.1,7.7.92,1.04.3,1.33.82.59,1.54-1.45,1.6-2.83,3.12-4.16,4.56,1.28.45,6.18,2.3,6.09,3.7-.09,1.32-5.51,3.43-6.89,3.79,2.02,1.28,4.45,4.05,5.64,6.11v.99c-.31.05-.61.21-.89.25-1.32-.19-2.59-.17-3.92-.32l-1.13-.51c-.84-2.22-2.02-4.24-3.54-6.03.48-1.15-.13-1.8-1.83-1.96-3.1.62-4.05-2.24-2.77-4.35.63-.08,5.4-.84,5.34-1.24-.02-.09-1.63-.1-1.91-.08-2.44.65-6.37,1.36-4.98-2.44.84-.09,3.98-2.61,3.66-2.97-.29-.32-3.71,1.55-4.09,2.15-1.28.15-2.26-1.8-.82-2.01-.02-1.92,3-3.47,4.69-4.32,1.2-.87,2.32-1.14,3.34-.82l.29.16h0Z"/>
    <path class="st74" d="M348.7,482.43c1.03-1.14,12.25-1.49,12.54-.46-2.04,3.1-4.1,6.02-6.89,8.5.27.65,1.73.41,2.09.6l7.59,4.16c-1.84,2.14-5.1,3.17-7.77,3.99l5.69,6.6c.13.85-4.02.99-4.69,1.09-1.68-1.92-2.95-4.15-4.87-5.89-.57-.51-2.16-.98-2.1-1.79,2.82-.22,5.48-1.66,7.75-3.26-2.11-1.93-4.75-2.55-7.31-3.65,1.11-.27,6.01-4.62,5.84-5.22-3.01-1.21-6.27-1.24-9.43-1.14.79-.96.77-2.66,1.56-3.54h0Z"/>
    <path class="st50" d="M348.41,482.28c-2.98,1.29-5.87,2.59-8.03,5.13-.81.66-2.04-.75-1.7-1.66-.13-.19-.13-.7-.27-.88,1.27-1.11,2.03-2.95,3.16-4.23.96-1.09,6.13-4.94,7.4-4.84.58.05.32,1.85.29,2.3-.09,1.35-.22,2.97-.86,4.18h0Z"/>
    <path class="st50" d="M221.13,485.48c.36,1.44-.92,4.18-2.05,5.11-.37.61-1.05.48-2.03-.38-1.49-.42-2.81-.73-4.34-.91l-.85-3.21c.95-.62,6.81,1.19,6.96.88-.13-.68-.98-1.21-.45-1.89,3.55,1.42,3.1-2.5,5.23-4.11-.86,1.37-1.75,3.05-2.47,4.51h0Z"/>
    <path class="st2" d="M340.38,487.41c.04.08-.42,1.15.68,1.47,1.3-1.66,3.49-2.19,5.47-2.5-.65,1.45-1.58,2.65-2.87,3.58-.8.58-1.86.31-1.75,1.41.24,2.29,2.94.72,4.77.66.55-.02,3.49.1,3.6.44-1.99,1.63-4.68,1.81-7.12,2.14.18.55.33,2.86.72,3.08.11.06,1.61-.13,2.37.07,1.19.3,2.57.91,3.68,1.48-.19.48-2.04-.1-1.56.8.36.66,1.32,1.47,1.81,2.35.84,1.48,1.19,3.17,2.28,4.47-1.34-.15-2.58-.25-3.9-.62-1.74-.49-3.34-1.24-5.07-1.75-1.25,2.19-2.09,4.56-3.5,6.68-11.09,16.69-42.77,27.75-62.27,29.25-16.96,1.3-35.24-3.09-47.95-15.1-2.16-2.05-3.83-4.56-6.04-6.5,1.05-.85,2.08-1.77,3-2.76.39-1.32,1.12-2.53,2.21-3.6-1.26.82-2.02.86-2.29.11-.25.04-.47.05-.56-.05-.53-.63.89-3.62,1.26-4.36-1.72.31-3.19.14-4.42-.5.44-1.6,1.56-2.98,3.37-4.15l-2.79-.67c-3.34-1.45-.75-2.7,1.57-3.41l-3.52-2.55c-1.32-1.53.63-2.4,2.42-2.16-1.41-1.24-2.92-2.4-4.59-3.28l-.33-.85c.37-1.85,1.22-3.45,2.05-5.11.52-.15,2.16.54,2.3.49.26-.09,2.39-3.79,3.04-4.61,12.77-16.17,35.83-21.1,55.62-18.74,19.65,2.34,41.93,10.19,55.96,24.61l.64-1.49c.33.46,1.59,1.47,1.7,1.66h0Z"/>
    <path class="st51" d="M219.07,490.59c2.61,1.09,4.21,2.97,6.56,4.33-.21.76-.36.39-.72.42-1.13.1-2.51-.2-3.54.54,1.69,1.43,3.37,2.79,5.42,3.71-.48.34-4.68,1.31-4.43,1.97,1.72,1.16,3.85,1.15,5.77,1.7-1.89,1.09-3.67,2.46-4.94,4.26,1.83.19,3.61.05,5.4-.34-.63,1.2-1.92,3.61-1.95,4.94-.01.4.16.33.47.48l3.55-1.71c-.97,1.93-2.48,3.6-3.95,5.17l-.18-3.4c-1.48.16-4.9,1.17-6.22.83-.36-.09-.47-.52-.42-.62l2.86-5.21c-1.97-.79-4.25-.6-6.06-1.86,1.57-1.72,3.42-3.14,5.38-4.38-2.09-1.06-4.06-2.18-5.7-3.87-.03-.18,2.82-1.39,3.25-1.54.45-.16,1.81.13,1.62-.55-.04-.14-1.66-1.62-2.05-2.16-.74-1.02-1.13-2.26-2.15-3.08.51.14,1.49.16,2.03.38h0Z"/>
    <path class="st64" d="M293.98,522.47c2.53-.77,5.26-.79,7.84-1.38,11.14-2.55,24.85-10.61,32.96-18.51.35-.35,3.32-4.02,3.63-3.42-.68,15.44-19.34,28.15-34.17,26.8-1.03-.09-5.43-.84-6.11-1.22l-4.15-2.28h0Z"/>
    <path class="st52" d="M317.64,475.75c7,2.71,1.61,13.23-4.94,8.2-3.93-3.02-.06-10.13,4.94-8.2Z"/>
    <path class="st77" d="M302.48,470.76c6.87,2.29,2.92,11.78-3.26,9.11-5.43-2.34-2.35-10.98,3.26-9.11Z"/>
    <path class="st52" d="M242.69,476.27c-1.94-6.46,8.44-8.75,9.62-2.13,1.06,5.99-7.86,7.98-9.62,2.13Z"/>
    <path class="st52" d="M284.41,466.35c8.31,2.57,1.18,13.98-4.67,7.88-3.5-3.64.55-9.16,4.67-7.88Z"/>
    <path class="st52" d="M236.94,479.56c6.52,2.36,2.64,11.59-3.26,9.1-5.98-2.51-2.24-11.09,3.26-9.1Z"/>
    <path class="st52" d="M329.9,483.95c6.94,2.51,1.84,12.65-4.38,8.51-4.53-3.01-.66-10.34,4.38-8.51Z"/>
    <path class="st52" d="M265.73,467.1c4.32,1.26,5.71,5.86,2.13,8.68-4.08,3.21-10.01-2-6.81-6.74.92-1.37,3.02-2.42,4.68-1.94Z"/>
    <path class="st52" d="M286.16,480.14c5.53,1.73,2.82,8.85-1.79,7.57-5.27-1.45-2.81-9.01,1.79-7.57Z"/>
    <path class="st52" d="M258.76,480.52c5.8,1.81,2.46,9.12-2.06,7.51-4.92-1.76-2.42-8.91,2.06-7.51Z"/>
    <path class="st52" d="M271.92,478.93c6.43,1.84,1.88,10.61-3.05,6.97-3.66-2.7-.47-7.98,3.05-6.97Z"/>
    <path class="st52" d="M248.01,488.57c6.07,2.05,2.16,9.6-2.63,7.25-4.16-2.04-1.61-8.68,2.63-7.25Z"/>
    <path class="st52" d="M299.25,485.48c3.15.9,4.52,3.84,2.41,6.39-3.41,4.12-9.99-2.01-5.34-5.78.56-.45,2.22-.81,2.93-.61h0Z"/>
  </g>
</svg>