<?xml version="1.0" encoding="UTF-8"?>
<svg id="Ebene_1" xmlns="http://www.w3.org/2000/svg" version="1.1" viewBox="0 0 2034.72 1149.12">
  <!-- Generator: Adobe Illustrator 29.5.1, SVG Export Plug-In . SVG Version: 2.1.0 Build 141)  -->
  <defs>
    <style>
      .st0 {
        fill: #8a523b;
      }

      .st1 {
        fill: #0e0806;
      }

      .st2 {
        fill: #27201b;
      }

      .st3 {
        fill: #090605;
      }

      .st4 {
        fill: #d3e198;
      }

      .st5 {
        fill: #524283;
      }

      .st6 {
        fill: #cccccb;
      }

      .st7 {
        fill: #848d79;
      }

      .st8 {
        fill: #110c0a;
      }

      .st9 {
        fill: #cdab71;
      }

      .st10 {
        fill: #88513a;
      }

      .st11 {
        fill: #fafaf6;
      }

      .st12 {
        fill: #120f0d;
      }

      .st13 {
        fill: #282d63;
      }

      .st14 {
        fill: #130c07;
      }

      .st15 {
        fill: #fcfcfc;
      }

      .st16 {
        fill: #c9dce0;
      }

      .st17 {
        fill: #62493e;
      }

      .st18 {
        fill: #e41c20;
      }

      .st19 {
        fill: #b8794d;
      }

      .st20 {
        fill: #080808;
      }

      .st21 {
        fill: #0d0805;
      }

      .st22 {
        fill: #d9d8d7;
      }

      .st23 {
        fill: #cdaa71;
      }

      .st24 {
        fill: #f1efee;
      }

      .st25 {
        fill: #4cad32;
      }

      .st26 {
        fill: #080605;
      }

      .st27 {
        fill: #29221d;
      }

      .st28 {
        fill: #88513b;
      }

      .st29 {
        fill: #c9c9c9;
      }

      .st30 {
        fill: #fff;
      }

      .st31 {
        fill: #89523b;
      }

      .st32 {
        fill: #070604;
      }

      .st33 {
        fill: #fbe0d9;
      }

      .st34 {
        fill: #684338;
      }

      .st35 {
        fill: #060504;
      }

      .st36 {
        fill: #050505;
      }

      .st37 {
        fill: #eeeeec;
      }

      .st38 {
        fill: #dddcdb;
      }

      .st39 {
        fill: #060302;
      }

      .st40 {
        fill: #ae7044;
      }

      .st41 {
        fill: #60382a;
      }

      .st42 {
        fill: #bbbbba;
      }

      .st43 {
        fill: #fbfbfb;
      }

      .st44 {
        fill: #f9f9f9;
      }

      .st45 {
        fill: #834c38;
      }

      .st46 {
        fill: #de844f;
      }

      .st47 {
        fill: #cac8bb;
      }

      .st48 {
        fill: #7d532f;
      }

      .st49 {
        fill: #030101;
      }

      .st50 {
        fill: #fbded7;
      }

      .st51 {
        fill: #195113;
      }

      .st52 {
        fill: #0a0404;
      }

      .st53 {
        fill: #e31c20;
      }

      .st54 {
        fill: #fff9e5;
      }

      .st55 {
        fill: #3b2920;
      }

      .st56 {
        fill: #cdaa70;
      }

      .st57 {
        fill: #e41d20;
      }

      .st58 {
        fill: #493e36;
      }

      .st59 {
        fill: #0c0505;
      }

      .st60 {
        fill: #88503b;
      }

      .st61 {
        fill: #ddd;
      }

      .st62 {
        fill: #0e0805;
      }

      .st63 {
        fill: #385b77;
      }

      .st64 {
        fill: #e31d20;
      }

      .st65 {
        fill: #040202;
      }

      .st66 {
        fill: #fafaf9;
      }

      .st67 {
        fill: #272c63;
      }

      .st68 {
        fill: #b46f3c;
      }

      .st69 {
        fill: #080303;
      }

      .st70 {
        fill: #312017;
      }

      .st71 {
        fill: #e5f8fd;
      }

      .st72 {
        fill: #0d0505;
      }

      .st73 {
        fill: #f9f8f8;
      }

      .st74 {
        fill: #aea5c7;
      }

      .st75 {
        fill: #c6c6c6;
      }

      .st76 {
        fill: #cdab70;
      }

      .st77 {
        fill: #cb050b;
      }

      .st78 {
        fill: #84bc2d;
      }

      .st79 {
        fill: #eb635a;
      }

      .st80 {
        fill: #f9a66c;
      }

      .st81 {
        fill: #eeeceb;
      }

      .st82 {
        fill: #dcdbda;
      }

      .st83 {
        fill: #a46038;
      }

      .st84 {
        fill: #bebebe;
      }

      .st85 {
        fill: #60372a;
      }

      .st86 {
        fill: #fbdfd8;
      }

      .st87 {
        fill: #fce1da;
      }
    </style>
  </defs>
  <path class="st54" d="M1434.17-.04l3,.92v420.1l-3,1.2-1.44,1.92h-824.07l-1.88-1.92c-.83-.1-1.47-.2-1.47-.3-.25-138.9.09-283.28,1.47-421.92h827.39,0Z"/>
  <g>
    <path class="st36" d="M1056.13,275.09c1.99,2.45,15.78,4.98,19.92,6.44,24.66,8.69,37.79,19.14,48.66,45.67,6.95,16.96,12.3,34.88,19.09,51.93.45,3.36-7.37,7.13-9.87,8.52,1.9,10.65,4.06,21.41,5.73,32.21,4.44,28.76,6.26,58.39,10.94,86.95,3.84,23.45,12.21,50.31.26,72.87-3.57,6.73-5.16,6.48-10.33,10.03-1.45,1-2.53,3.23-4.7,4.34-3.23,1.65-4.1.44-6.52.77-.83.11-2.94,2.26-4.38,2.59-3.35.79-5.69-.22-5.51-4.35.34-7.8,6.78-20.4,7.49-28.91v-12.94l-3.27,12.26c-1.85,3.58-6.51,11.54-10.36,11.84-7.67.61-2.37-11.42-1.48-15.55,2.47-11.38,1.16-22.45,4.41-33.54,1.28-4.36,4.64-9.85,4.62-14.32-.02-3.41-1.59-9.33-2.3-12.93-2.88-14.76-6.72-29.92-10.06-44.63-.16-.68.03-1.95-.79-1.81l3.76,37.03c.67,3.51-8.98,5.41-9.14,6.05-.15,9.8.3,19.65.06,29.44-.15,6.12-.84,12.52-1.08,18.63-2.54,62.24-7.58,124.39-11.77,186.49-.04,3.01-8.97,4.91-9.11,5.49.37,1.68-.45,6.92.12,7.96.17.31,4.17,1.77,5.1,2.38,1.14.75,4.37,3.36,5.22,4.34,1.68,1.94,2.91,6.49,4.04,7.48,1.52,1.33,6.45,3.45,8.8,5.14,7.51,5.4,16.18,13.94,17.88,24.08.24,2,.21,4.02,0,6.02-2.84,20.21-24.39,22.18-39.19,19.77-15.41-2.5-41.47-15.87-47.44-33.21-2.45-7.11-.47-19.68,2.13-26.68,1.06-2.85,4.91-8.62,5.33-10.25.27-1.06.29-4.76.11-5.89-.49-3.04-8.34-2.52-9.06-6.64-2.97-59.88-6.83-119.6-11.77-179.27-.37-4.49-.14-9.6-1.04-13.87-.48-.38-4.16-.44-4.31-.26-.16.19-.47,4.31-.53,5.12-4.5,62.92-9.47,125.83-12.85,188.88,0,3.05-8.95,4.92-9.09,5.51-1.31,5.46,2.63,8.99,4.4,13.66,2.91,7.65,3.37,14.42,3.11,22.67-.44,6.23-3.63,4.86-3.21-.6l-.76-1.45c1.17-6.42-.5-12.96-2.58-18.91-1.73,6.79-12.8,14.08-18.43,10.14-6.98-10.13-21.41-21.1-29.67-6.52,6.78.55,13.44,3.24,18.26,9.08,8.45,12.85-5.21,4.09-9.42-.19-5.44-3.55-12-3.86-17.4-.08l-1.44-.49c-1.37-.54-1.19-1.74.53-3.61,1.21-.86,2.95-1.32,4.01-2.4,3.3-3.32,3.7-8.2,8.78-11.17,1-.59,5.15-1.89,5.3-2.16.56-.98-.27-6.89.1-8.59-1.74-.79-7.32-2.19-8.44-3.51-.6-.71-1.04-5.88-1.2-7.37-3.09-28.79-3.52-58.83-5.35-87.83-2.48-39.28-5.84-78.6-6.96-117.9-.74-6.5,1.07-16.21.03-22.29-.32-1.89-2.71-1.85-4.11-2.59-1.75-.93-4.9-2.27-5.03-4.6l4.31-35.21-10.85,47.03c-4.76,12.54,3.02,20.6,4.83,32.24,1.35,8.66.38,15.83,2.43,24.94.8,3.55,5.04,13.46,1.68,16.06-5.22,4.05-12.66-8.83-14.22-13.37l-2.57-10.04v11.13c0,8.29,6.94,21.81,7.49,30.09.31,4.57-1.76,5.75-5.59,5.07-1.94-.35-3.35-2.39-4.5-2.65-.82-.19-2,.43-3,.34-2.99-.26-4.46-2.03-6.79-3.67-5.31-3.73-8.99-6.24-12.26-12.83-11.92-23.99-1.48-55.25,2.14-80.22,3.86-26.65,5.75-53.7,9.87-80.33,1.62-10.44,3.8-20.82,5.66-31.12-1.83-.44-9.1-4.94-9.49-6.5-.13-.51-.1-1.02.02-1.52,7.49-18.41,13.38-38.56,21.35-56.63,11.36-25.77,29.88-33.52,52.94-42.06,4.31-1.6,10.24-1.85,13.23-5.85"/>
    <path class="st11" d="M1066.06,282.33c7.44,1.5,14.65,4.42,21.53,7.89,17.58,8.86,25.7,16.59,33.92,36.4,7.13,17.18,12.56,35.83,19.62,53.12.18.79-.4,1.1-.86,1.5-9.54,8.13-27.17,12.46-38.98,12.98-1.65-16.77-2.13-34.09-4.35-50.76-.14-1.02-.76-6.77-1-7.01-.32-.33-1.92.08-2.08.95l15.18,152.5c-15.41,7.71-33.93,11.35-50.77,13.2-34.97,3.85-80.98,3.36-115.02-6.42-2.54-.73-14.29-4.46-15.6-5.89-.65-.71-.57-1.47-.54-2.39.24-7.58,2.74-18.57,3.68-26.59,4.49-38.29,10.07-79.42,11.82-117.84.12-2.69-.07-5.42,0-8.12-1.56,1.12-1.77,4.43-2.06,6.4-2.51,16.91-2.59,34.35-4.94,51.29-13.53-.31-28.44-4.43-39.4-13.55,6.76-17.18,12.44-35.43,19.6-52.37,2.33-5.52,4.99-11.63,8.43-16.38,11.33-15.64,31.03-22.8,47.51-28.83,2.79,8.16,5.19,14.57,11.83,19.63,24.23,18.45,72.4,16.83,82.46-19.72h.02,0Z"/>
    <path class="st63" d="M1100.75,496.48c-.68,11.31-.58,22.69-1.04,34.02-2.15,52.8-5.79,107.24-9.64,160.01-.96,13.15-2.21,26.31-3.45,39.43-15.67,7.51-34.52,7.19-50.4.48-1.86-19.42-2.18-39.04-3.31-58.54-2.57-44.39-6.78-88.66-9.59-132.99-.05-.81-.3-1.37-.55-2.08,1.98.07,13.85-.51,13.88-2.71.02-2.02-7.6-.31-8.78-.28-5.13.14-10.99.28-16.07,0-1.65-.09-8.43-2.08-8.79-.32-.64,3.16,11.25,2.57,11.22,3.61l-13.84,192.59c-.72,1.76-5.09,3.15-6.89,3.67-13.66,3.98-30.91,2.57-44.12-2.77-1.44-10.17-2.25-20.71-3-31.05-1.39-19.21-1.98-38.52-3.22-57.75-3.12-48.43-7.19-96.74-7.47-145.3,15.59,5.24,32.07,8.34,48.34,9.62,23.64,1.86,49.62,1.94,73.17-.6,14.72-1.59,29.3-4.73,43.54-9.02v-.02h.01Z"/>
    <path class="st68" d="M935.68,396.01c-1.88,11.95-2.35,24.21-4.52,36.11-4.23,23.18-11.77,46.63-15.95,69.88-2.55,14.18-.47,12.35,3.24,24.41,3.41,11.09,1.72,20.44,3.92,31.09.72,3.48,2.6,7.63,3.04,11.02,1.31,10.15-7.13-1.06-8.84-4.47-2.73-5.46-2.77-10.91-4.53-16.56-1.53-4.93-3.5-4.78-4.06.51-1.71,16.13,3.22,30.02,7.41,45.12.15,3.34-2.89,1.82-4.55.85-8.69-5.08-13.85-29.98-14.68-40.32-.2-.16-1.2.86-1.34,1.22-.46,1.14.65,9.02.97,10.93,1.57,9.41,5.03,18.28,9.46,26.34-3.98.43-7.25-3.85-9.3-7.27-5.58-9.31-6.44-21.53-7.26-32.43-1.95-2.48-1.64,7.92-1.59,8.71.46,7.61,2.82,16.38,5.87,23.17-1.18.33-1.19-.76-1.71-1.38-17.16-20.25-5.23-57.3-1.65-80.92,3.67-24.24,5.31-49.32,8.79-73.73,1.89-13.26,4.12-26.45,6.86-39.51,9.76,3.98,19.97,6.98,30.44,7.23h-.02,0Z"/>
    <path class="st68" d="M1144.03,584.32c2.15-6.18,4.26-12.52,5.18-19.13.32-2.31,1.42-11.4.15-12.76-.91-.97-.9.23-1.07.88-1.03,3.73-.96,9.88-1.76,14.27-1.38,7.56-4.54,18.03-10.25,22.75-1.36,1.12-3.36,2.45-5.07,1.51,6.88-10.58,10.75-24.45,10.68-37.6-.8-.17-1.21.19-1.49,1.02-.96,2.82-1.4,9.86-2.29,13.67-1.64,7.07-6.46,21.57-12.41,25.13-.93.56-3.72,1.87-4.07.14,2.87-13.1,8.58-26.5,7.99-40.29-.09-2.19-.98-14.06-3.88-8.53-4.15,7.94-1.51,17.66-10.02,25.41-1.71,1.56-4.12,3.3-4.22-.59-.08-3.12,3.55-12.42,4.15-16.93,1.36-10.26.14-17.58,3.39-28.07,3.98-12.87,5-10.54,2.28-25.12-5.93-31.87-16.12-61.29-18.96-94.16-.27-3.08-.46-6.23-.54-9.32,10.11-.39,20.38-3.29,29.66-7.81,2.97,13.41,5.17,27.04,7.12,40.7,3.91,27.39,5.7,55.61,10.4,82.74.93,5.36,2.52,10.7,3.42,16.01,3.02,17.95,4.6,42.64-8.38,56.08h-.01Z"/>
    <path class="st68" d="M1051.6,266.05c.18,9.26,3.09,14.59,11.76,15.05-8.05,30.73-46.29,33.94-68.74,23.57-9.42-4.35-17.52-10.87-19.87-22.75-.25-1.25.15-.5.71-.83,6.42-3.81,8.8-6.67,9.91-15.63"/>
    <path class="st77" d="M1077.91,263.72"/>
    <path class="st77" d="M1079.04,261.22"/>
    <path class="st36" d="M980.63,277.32c-12.82,3.05-23.13,3.63-36.03.88-10.71-2.28-21.07-6.01-25.41-17.48-.3,6.25,2.77,12.7,6.05,17.79h-6.5c-1.18,0-5.79-1.38-7.19-1.86-18.98-6.45-31.93-30.34-34.3-50.1l-1.34,6.79c.08,7.13-.55,14.36,1.34,21.29-.87.24-.87-.36-1.27-.78-16-16.93-15.35-52.89-11.07-74.59,8.22-41.72,31.35-94.71,55.03-129.34,18.43-26.95,56.33-58.38,90.06-47.83,2.13.67,8.47,4.01,9.65,4.01,1.64,0,9.14-3.32,11.96-3.93,54.41-11.83,97.52,59.67,116.16,103.3,14.09,33,31.63,91.05,21.77,126.34-2.19,7.82-6.32,16.39-11.53,22.37.82-6.75,1.01-13.56.91-20.38l-1.36-6.77c-3.28,24.02-20.44,48.4-44.85,51.02,3-4.05,5.51-9.55,5.85-14.73.03-.5.31-2.21-.46-2.12-4.16,11.16-14.68,14.71-25.04,16.7-9.6,1.85-17.77,2.05-27.44,1.55-3,0-3.9-1.89-6.88-2.2l-2.61-2.16c-1.22.8,1.81,4.85-2.95,1.33l-1.92-4.96c-.43-1.58-.82-4.99-.45-6.06l1.55-1.81c30-15.42,44.78-46.76,51.13-79.7,1.11-2.64,2.93-1.22,2.57,1.07-.68,5.36-1.67,10.69-2.97,15.99-1.99,7.35,8.51,1.67,11.13-.16,11.59-8.07,15.2-27.44,13.75-41.05-1.57-14.71-17.69-10.67-20.49,1.07-1.03.45-1.66.67-1.94-.59.12-22.36-14.68-40.35-34.57-47.36-13.18-5.23-26.42-10.3-39.73-15.21-18.3-6.79-34.7-18.12-48.72-31.9-5.78,11.59-12.11,23.46-20.52,33.3-16.02,15.17-31.54,34.34-30.56,58.27-.11,1.47-.79,1.3-1.99.97-3.33-4.82-8.86-11.34-15.28-8.1-11.43,5.77-3.91,32.38.2,41.87.62,0,1.26,0,1.77.5,2.4,4.68,5.36,7.74,10.19,9.64,1.2.48,7.31,2.23,6.49-.45-1.47-4.13-4.01-21.51-2.87-22.34.97-.7,2.04-.24,2.2,1.09l5.15,21.72c6.4,29.48,29.19,51.53,54.55,64.09,18.3,9.06,34.45,8.05,53.22.63l1.69.32c.98-.27,4.99-2.98,4.82-1.83-.32,2.09-18.55,7.21-20.89,7.87-16.65,4.75-29.96.03-44.76-7.87-.75,2.86-.73,4.7-1.92,7.46l-3.38,4.42h0Z"/>
    <path class="st20" d="M1065.61,279.45c-2.87-.28-6.25.6-8.97-.47,3.08,0,6.07.32,8.97.47Z"/>
    <path class="st40" d="M1046.78,267.28c-11.05,4.59-26.49,8.1-38.2,5.94-20.87-3.86-49.4-25.18-60.92-43.61-9.75-15.61-12.36-32.08-16.59-49.86-.77-.12-.48,1.12-.44,1.63.36,4.51.74,8.99,1.47,13.45,1.11,6.77,5.04,11.16-5.08,8.58-3.85-.98-6.9-3.45-9.39-6.58-.78-.98-1.51-2.98-2.04-3.53-.63-.65-1.38.15-1.78-.41-1.63-2.31-4.43-12.68-5.03-15.85-1.32-6.91-3.08-17.7.84-23.66,2.6-3.95,5.91-5.62,10.41-4.47,5.93,1.51,6.74,5.36,10.58,9.31-1.19-18.76,7.98-34.81,19.51-48.22,4.15-4.82,9.45-9.15,13.42-14.08,7.31-9.11,12.79-20.83,18.89-30.85,8.95,7.3,17.65,15.4,27.56,21.31,21.33,12.72,46.9,18.24,68.93,29.17,16.81,8.34,27.87,25.85,27.51,45.49l1.55-3.76c3.8-7.86,13.78-11.6,19.27-3.23,3.14,4.78,1.56,19.02.49,24.8-2.11,11.45-7.79,21.62-18.77,25.81-2.07.79-7.24,2.07-7-1.65.33-5.08,2.7-11.36,3.1-16.93.05-.63.38-2.9-.44-3.03-3.46,13.86-6.87,28.87-13.38,41.51-8.99,17.45-23.08,32.54-40.44,40.88-1.18.57-2.89,1.4-4.04,1.87v-.03h.01Z"/>
    <path class="st66" d="M992.07,160.54c.52,7.57-.56,14.3-6.27,19.43-9,8.07-25.43,6.86-32.74-3.05-21.57-25.35,21-54.19,36.8-26.33,1.47,2.59,3.36,7.34,2.22,9.95h0Z"/>
    <path class="st44" d="M1082.21,179.27c-1.19,1.49-2.83,2.74-4.93,3.75-6.56,2.61-12.97,3.61-19.73.69-9.3-4.01-14.19-13.9-12.12-24.1,2.31-21.99,30.58-26.11,41-7.53,4.76,8.49,3.6,21.31-4.23,27.19h.01Z"/>
    <path class="st3" d="M1057,115.27c8.2-.98,22.83,2.55,29.47,7.82,1.43,1.14,8.07,8.53,7.85,10.05-.12.81-.75.5-1.23.37-8.1-2.2-13.91-7.77-22.81-8.97-3.16-.42-7.04-.18-10.26-.53-1.23-.13-6.79-.79-7.41-1.16-1.11-.68-1.72-4.11-1.12-5.39.67-1.44,4.1-2.03,5.52-2.2h0Z"/>
    <path class="st32" d="M943.63,130.58c-.31-1.76.62-2.94,1.43-4.35,5.66-9.95,15.36-13.71,26.17-13.45,2.36.06,6.7.21,8.91.53,1.08.16,7.27,2.72,7.44,3.48.59,2.69-7.99,2.82-9.58,3.1-7.84,1.36-18.78,3.07-26.05,6.05-1.07.44-8.01,5.02-8.32,4.65h0Z"/>
    <path class="st1" d="M992.03,229.78c.09-.04.16-1.28,1.09-.89.14.06,1.31,1.21,1.83,1.51,5.07,3,20.15,4.28,27.75,4.03,5.01-.17,17.86-2.01,21.22-3.84.86-.47.63-.95.71-.99.19-.1,4.15.8,3.27-1.25,3.1,1.95.08,1.81-2.15,2.42-1.4.38-3.38,1.42-5.13,1.94-12.95,3.85-32.39,3.94-44.55-.72-.74-.28-2.07-1.12-2.59-1.24-1.07-.24-1.67.27-2.72-.07-.97-.31-2.39-1.18-1.81-1.8,1.1-1.16,1.64,1.48,3.08.89h0Z"/>
    <path class="st8" d="M953.05,176.93c-.19.93-1.15-.49-1.34-.7-11.48-12.35-4.19-31.09,9.87-36.97,17.24-7.22,34.33,7.69,31.38,26.44l-.89-5.15c-.71-10.3-9.21-19.22-19.07-20.12-19.74-1.8-32.17,19.97-19.95,36.51h0Z"/>
    <path class="st12" d="M1082.66,179.74c-.63.62-.86.36-.45-.47,7.39-7.16,8.19-20.84,1.98-28.98-11.94-15.65-34.8-10.13-38.75,9.32-1.02-1.06-.17-3.08.13-4.31,2.73-11.06,12.64-17.76,23.41-16.75,19.33,1.81,29.31,27.34,13.69,41.19h-.01Z"/>
    <path class="st21" d="M1013.11,192.34c-.08.12-1.96.73-2.63,1.24-2.16,1.66-6.05,6.82-2.88,9.03,2.71,1.89,9.16,2.68,12.38,2.29,2.12-.26,12.42-4.12,12.89-3.62,1.17,1.24-1.95,3.41-2.72,3.94-5.95,4.09-15.15,4.88-21.5,1.45-4.36-2.35-5.94-5.52-4.24-10.53.44-1.3,3.96-6.63,5.02-6.95,2.06-.62,4.55,1.89,3.68,3.16h0Z"/>
    <path class="st14" d="M1117.64,165.23c1.79,1.87-6.3,5.9-6.94,7.5-1.51,3.77,2.45,13.37-3.82,13.56.16-1.32,1.25-2.08,1.31-3.54.12-2.88-1.9-6.1-.52-9.9,1.17-3.21,6.3-8.62,9.97-7.62h0Z"/>
    <path class="st62" d="M928.83,185.82c-.66.78-3.35-3.58-3.48-4.09-.75-3.04,1.15-7.56.11-9.94-.26-.6-7.11-7-6.49-7.49,1.96.15,4.32,1.29,5.8,2.61,4.91,4.36,2.7,8.44,3.18,14,.14,1.67,1,3.2.89,4.92h-.01Z"/>
    <path class="st14" d="M1027.44,243.36c.29.31-.04,1.21-.56,1.5-2.41,1.37-8.43,1.53-11.21,1.16-.97-.13-6.34-1.66-6.35-2.51-.01-1.27,4.29.61,4.9.74,3.23.69,7.37.12,10.66-.31.5-.07,2.47-.68,2.56-.58h0Z"/>
    <path class="st58" d="M1082.66,179.74c-2.58,2.29-2.43,2.1-5.38,3.28,1.14-1.48,3.68-2.53,4.93-3.75l.45.47Z"/>
    <path class="st48" d="M968.51,185.59c-.71-.13-.94-.35-1.35-.47-6.3-2.67-11.92-8.66-10.69-17.97,2.79-21.09,33.46-17.25,30.99,4.51-1.24,10.92-9.44,14.75-18.96,13.93h.01Z"/>
    <path class="st27" d="M968.5,185.7c2.25-.97,4.74-.23,7.2-.68,14-2.53,15.73-25.23,1.87-30.09-20.58-7.22-29.47,22.47-10.13,29.78l-.28.52c-16.98-4.94-13.61-30.77,2.45-32.32,25.04-2.42,24.46,37.43-1.1,32.79h-.01Z"/>
    <path class="st48" d="M1075.2,181.54c-1.46,1.22-3.65,2.55-5.38,3.28-6.76,1.5-13.24,1.02-17.77-5.14-5.44-7.4-3.92-18.97,4.01-23.77,16.53-10.01,32.3,11.99,19.14,25.64h0Z"/>
    <path class="st2" d="M1075.61,181.55l3.36-6.09c3.93-8.48-2.45-19.93-11.26-21.02-22.68-2.79-23.48,28.43-5.33,30.37h7.84c-19.04,8-30.01-20.43-12.86-30.04s31.98,15.3,18.24,26.77h.01Z"/>
    <path class="st26" d="M977.08,169.06l.64,1.05c-1.64,3.09.54,4.54,3.1,2.36l1.15.42c.21.7.87,1.21,1.04,2.5,1.95,14.79-19.38,14.34-18.38,1.67.55-6.94,6.66-8.46,12.45-8Z"/>
    <path class="st24" d="M981.76,173.07c-3.64,4.13-7.59.82-4.73-4.16,1.99.17,3.64-.87,4.49,1.78.28.88.09,1.81.24,2.38Z"/>
    <path class="st35" d="M1067.5,168.77c-.76,4-.34,5.18,3.58,4.43,1.53-.31,1.01.85,1.02,1.91.11,8.03-5.24,13.46-12.47,10.2-8.24-3.71-5.84-15.37,2.61-16.97,2.39-.45,3.44.22,5.25.42h.01Z"/>
    <path class="st37" d="M1071.26,173.68c-2.93,3.5-8.36-1.15-4.04-3.99.18.02.96-.55,1.88-.41,2.42.37,3.64,2.63,2.16,4.4h0Z"/>
  </g>
  <path class="st15" d="M531.07-.04l5.5,457.21,77.69-23.87,816.47,1.08,61.67,10.27-.14-440.38c-.28-7.14,540.32.41,543.02-2.02-.97,0,1.84,1147.29-.96,1144.01,1.57,5.6-2032.12-.04-2033.01,1.9C-3.05,1147.56,1.87,3.86.07,2.27,1.26,2.49,531.07-.04,531.07-.04Z"/>
  <path class="st51" d="M2034.16,644.01c.84,163.3.84,336.77,0,500.93l-.93,4.62H1.14l-1.22-4.62v-500.93h2034.24Z"/>
  <path class="st47" d="M2034.16,1148.6c.27-.84.59-.83.96,0v.96H-.08v-.96h2034.24Z"/>
  <polygon class="st7" points="2035.12 1148.6 2034.16 1148.6 2034.16 1124.61 2034.16 1100.62 2034.16 1045.92 2034.16 837.69 2035.12 837.69 2035.12 1148.6"/>
  <g>
    <path class="st82" d="M1468.01-.04l.76.88.19,66.64c7.44-1.93,14.89-4.18,22.37-6.76l.19-59.61.76-1.14h17.82v484.13c.15,1.96-2.66,4.12-3.16,4.07-3.67-.31-11.44-7.91-15.43-10.32-.2-1.9.02-2.59.72-2.95-1.15-4.13-1.85-5.14-3.91-5.18-6.53-5.84-13.21-10.99-20.04-13.88-2.53,1.47-3.55.54-5.53-2.95-3.08,2.45-4.72.13-4.93-6.98-1.81-2.44-3.83-4.18-6.05-5.23l-.34-2.27c.46-4.35.45-8.16.28-12.38l1.3-1.28c1.92.43,6.79,2.63,8.6,3.97.45.34.79,1.23,1.1,2.11l-.76-.66v-83.11l.76-1.16c-2.33,1.01-12.84-1.61-13.23-3-.17-.62-.11-1.51-.04-2.28-.07-1.57.47-2.32,1.6-2.24-.32-3.94-.22-7.03.3-9.28,2.75-1.78,6.93-.52,9.9.8.57.25,1.04,1.18,1.48,2.08l-.76-.66v-115.24l.76-1.17c-2.2,2.37-15.47,3.28-16.18,1.31-.21-.58-.19-1.48-.13-2.27l.33-1.92,4.15-.11c-.46-4.43-.32-7.59.45-9.49l1.2-1.87c2.02-.55,6.93-.91,8.92-.56.47.08.88.77,1.26,1.47l-.76-.66v-115.24l.76-1.17c-3.29,3.36-7.94,4.91-11.38,2.88l-.51-1.44c.17-3.38.27-7.25-.62-10.07l.92-2.28c3.57-1.94,7.18-3.09,10.84-3.68V1.11l.76-1.15h5.31-.03Z"/>
    <path class="st61" d="M606.54-.04v422.22h821.65V-.04h2.28l.52,6.75c.07,133.92.08,268.46.02,403.64l-.29,24.04c1.04.06,2.28,4.46,1.9,6.62,3.69,1.54,7.37,4.07,10.98,6.67.37.26.71.79,1.05,1.34s.68,1.24.99,1.95l-2.83,1.01-850.14.02-2.06-1.98c-.39-2.45-.04-2.64.76-.96l.52-1.63c4.54-2.54,8.92-5.6,13.16-9.19l.36-437.08.76-1.2h.38-.01Z"/>
    <path class="st75" d="M1441.09-.04l.76.64.37,75.46c1.03-1.2,1.79-.98,2.28.67.83-3.33,4.57-3.6,5.69-.96.29.1.99-.29,1.11.05.22.62.7,10.05.03,11.46-1.74,3.48-5.18,4.1-7.21,1.92l.76.66v109.97l-.76,1.16c2.16-.47,4.4-.63,6.73-.47l.48,1.91.38,11.52h-5.31c-.26,1.1-.77,1.97-1.53,2.62v108.85l6.07,1.66.39,2.02c.48,1.61.55,11.12.38,11.52-.13.31-1.81-.22-2.28,0-1.02,1.57-2.3,2.12-3.82,1.63l-.75,78.79c2.12,1.36,4.28,2.32,6.5,2.88l.35,2.11c2.07,3.66.05,11.48.56,13.46.18.71,5.19,1.21,6.19,5.44.31,1.3.65,6.54.87,6.93.33.6,2.54-1.2,3.54-.85,1.29.46,1.77,3.29,2.38,3.65.69.4,2.2-1.25,3.63-.59,6.4,2.97,13.14,7.83,19.3,13.53.92.85,2.03.32,2.88,1.34.8.95.88,3.49,1.97,4.61s5.57,2.06,6.08,3.34c.36.91.09,2.01-.56,1.91-2.53-.39-4.78-4.66-7.02-.96-15.26-9.24-30.66-17.35-45.89-26.87-4.46-2.79-8.9-6.13-13.41-8.58-.38-4.07-.75-5.31-2.15-7.45.88-106.66.05-213.63-.01-320.26-.02-38.29.54-76.43.4-114.72h10.62Z"/>
    <path class="st29" d="M542.45-.04l.76.88.05,59.73c2.22,1.09,4.6,1.87,7.14,2.35l1.15,2.29c2.66.66,2.88,13.72,0,12.47l-1.54,1.59c-2.31-.69-4.57-.68-6.8.03v120.98l-.76,1.18c3.08.63,6.17.77,9.28.44,2.23-1.25,2.15,10.15,1.07,12.18-2.7.04-5.39.31-8.07.82-.31,1.25-.81,2.11-1.52,2.57v120.56c2,.01,4-.28,6.01-.87l1.58,1.52c.76-.45,2.4-1.29,2.94-.08.19.42.48,11.91-.66,11.6-2.83,4-7.54,6.24-10.62,3.84l.76.67v90.28l-.76,1.17c2.67-3.75,6.5-5.34,9.48-3.84,1.16-.35,1.67,1.49,1.55,5.53-.43,5.58-.03,7.6,1.21,6.07,2.96-3.27,4.82-2.13,5.59,3.42,9.74-4.87,19.42-10.16,29.04-15.88,2-1.02,4.05,4.56,2.05,7.58-.34.21-.61.87-.76.96-1.75,1.08-3.56,1.79-5.31,2.88l-1.14.96c-17.15,10.6-34.37,20.68-51.58,30.71-1.41,1.14-2.17.65-2.28-1.48V1.15l.77-1.2h11.38-.01Z"/>
    <path class="st22" d="M572.03-.04l.76.88v68.58l.76,2.51c1.75.74,1.63,11.93,0,12.47l-.76,2.59-.02,112.71c.4.71.78,1.62,1.16,2.73,1.18,1.04.81,10.71-.38,11.52l-.76,2.58-.02,113.16-.36,2.3c2.53-1.08,3.25,8.92,1.9,12.47.02,1.77-.47,2.43-1.49,1.98-.06,29.46-.08,57.9-.03,85.35,1.69-.85,2.34,2.68,1.94,10.57,2.1.22,4.26-.8,6.36-1.84,6.04-3.64,11.99-7.01,17.86-10.1V1.16l.76-1.2h6.45l-.38,438.07c0,1.3-.24,1.65-.63,2.24-.58.87-4.5,3.55-5.52,4.26-2.71,1.89-5.54,2.83-8.26,4.53.74-9.91-4.04-4.17-5.99-3.16-8.03,4.2-16.24,9.69-24.09,12.15-.37.12-.77,1.63-1.17,1.5-.85-.3-.94-5.09-1.61-5.62-.73-.57-4.48,3.52-5.83,1.85-.34-.85.67-11.69-.76-13.44l1.15-2.57c2.18-1.71,11.9-7.78,13.3-6.23.26.29.49.69.73,1.13l-.76-.67v-85.49l.76-1.17-1.04,1.8c-4.22,1.08-8.4,2.06-12.55,2.93l-.45-1.85v-11.52h-2.28c-.13-.68-.25-1.52-.09-2.09.51-1.83,14.09-4.35,16.4-2.7l-.76-.66v-117.16l.76-1.17-1.31,1.35c-6.08,1-12.3.71-18.43.4-.44-.02-.88-.28-1.32-.57s-.89-.72-1.32-1.18c1.39-2.72,6.55.46,7.53-1.09.57-.91.57-9.14.09-10.82-.57-2.03-8.52,1.09-9.9-1.52.4-.47.79-.91,1.2-1.22s.8-.58,1.2-.61c7.45-.58,15.13-.55,22.25,1.35l-.76-.66v-116.68l.76-1.17c-4.92,1.84-10.44.43-15.12-2.64l-.43-2.16c1.86-.52,1.43-11,0-12.47.43-.37.87-.7,1.32-.9s.88-.38,1.29-.27c3.94,1.07,7.89,2.18,11.8,3.81V1.12l.76-1.16h5.33Z"/>
    <path class="st61" d="M599.71-.04v430.38c-.07,1.97-.73,2.74-1.43,3.11-7.04,1.3-15.44,9.73-22.27,10.84-.7.11-1.41-.1-2.1-.03-.08-2.55.27-10.91-.44-12.35-.21-.43-.55,0-.7-.13l.18-2.06c6.23-3.27,12.37-6.58,18.4-9.94-.3-.08-.75-.36-.76-.89-.24-24.62-.24-51.05,0-75.69l.76-1.15c-1.07-.44-2.2-.47-3.39-.07l-13.12,4.23-.56-1.76c-.08-2.82-.18-7.94-.63-10.35-.28-1.53-.9-1.14-1.26-2.13l.27-2,17.52-4.57c.65-1.04.85-28.16.88-32.68.19-25.65.02-52.65-.45-77.29-5.01.55-10.31.9-15.36.23-.63-.08-1.2-.93-1.73-1.72l.38-11.52,1.33-1.74c5.01-.17,9.99-.8,14.94-1.91l.41-107.26-15.6-4.99-1.46-2.13c.45-3.93.71-8.64,0-12.47.98-.57,1.98-1.15,2.99-.93l13.7,3.58V1.12l.76-1.16h8.74Z"/>
    <path class="st6" d="M528.41-.04l.52,26.76c.21,151.53.33,303.07.38,454.61.85,1.44,1.06,3.15.62,5.15-1.86.84-2.98,1.23-4.91-.05-.21-10.98.38-22.18-.41-33.02l.02-453.45h3.79-.01Z"/>
    <polygon class="st71" points="1492.28 -.04 1492.12 62.39 1468.21 70.03 1468.01 -.04 1492.28 -.04"/>
    <path class="st71" d="M566.72-.04v70.05c-5.03-2.03-10.12-3.27-15.17-4.79-2.7-.81-5.42-1.89-8.16-1.91l-.89-1.58-.05-61.76h24.27,0Z"/>
    <path class="st71" d="M590.99-.04v76.77c-5.81-1.43-11.67-2.73-17.45-4.8-.48-.17-1.03.13-1.52,0V-.04h18.97Z"/>
    <path class="st71" d="M1462.7-.04v71.97c-2.05,0-4.17.43-6.21,1.08s-4.23,2.09-6.3,2.76c-1.75.56-3.92.38-5.69.96l-.76-.89V1.12l.76-1.16s18.2,0,18.2,0Z"/>
    <path class="st38" d="M531.07-.04v484.04l1.52.56c-.66,1.24-1.83,1.54-2.65,1.92l-1.34-4.77c-.43-160.49-.06-321.19-.18-481.75h2.65Z"/>
    <path class="st16" d="M1444.5-.04v76.77c-.87.28-2.14,1.35-3.03,1.92l-.38-78.69s3.41,0,3.41,0Z"/>
    <path class="st61" d="M585.3,452.89c-.19.12-.64.65-1.14.96l1.14-.96Z"/>
    <polygon class="st71" points="1492.28 76.73 1492.28 201.48 1468.01 201.48 1468.01 82.49 1492.28 76.73"/>
    <polygon class="st71" points="1492.28 214.91 1492.28 340.62 1468.01 333.9 1468.01 214.91 1492.28 214.91"/>
    <polygon class="st71" points="1492.28 354.05 1492.28 446.17 1468.01 434.66 1468.01 347.33 1492.28 354.05"/>
    <path class="st71" d="M1451.33,87.28c3.78-1.1,7.57-2.51,11.38-2.88v117.07c-3.63,1.58-7.65,1.1-11.38.96-1.07-.04-7.21.86-7.21-1.44v-111.79c2.38-.96,4.81-1.22,7.21-1.92Z"/>
    <path class="st71" d="M1446.39,213.95c.13.03.58.97,1.28,1.03,4.99.4,10.03-.44,15.02-.07v117.07c-3.82-.25-7.6-1.79-11.38-2.88-1.01-.29-7.14-1.21-7.23-2.48l.02-110.28c.08-2.91,1.33-2.61,2.28-2.4h0Z"/>
    <path class="st71" d="M1449.43,340.62c.07.02.43.87.92,1,3.8,1.04,7.6,2.05,11.41,2.83.31-.03.95.91.95,1.44v84.92c-3.69-.42-7.37-2.99-11-4.8-1.95-.97-5.27-1.48-6.94-3.06-.46-.44-.63-.95-.64-2.21l.76-81.1c1.5.53,3.05.58,4.55.97h-.01Z"/>
    <rect class="st84" x="1466.87" y="82.49" width=".76" height="118.99"/>
    <rect class="st84" x="1466.87" y="214.91" width=".76" height="118.99"/>
    <path class="st71" d="M551.55,77.69c.78.2,2.18,1.62,3.23,1.91,4.09,1.12,8.22,1.89,12.32,2.89v118.51c0,3.25-5.7.51-6.62.44-6-.43-12.03.4-18.03.04v-124.75c2.97.1,6.15.23,9.1.96h0Z"/>
    <path class="st71" d="M544.72,214.91c7.43-.66,14.94.49,22.38,0v118.99c-5.11,1.69-10.27,2.39-15.39,3.8-.5.14-.84.98-.92,1-2.75.79-5.59,1.05-8.34,1.92v-125.72c.75-.05,1.52.07,2.28,0h-.01Z"/>
    <path class="st71" d="M553.07,350.21c.77-.24,1.65.22,2.46,0,3.86-1.07,7.66-3.6,11.57-2.87v87.32c-5.17.97-10.15,5.12-15.17,7.68-3.1,1.58-6.33,2.94-9.48,3.84v-92.12c3.55-.79,7.1-2.74,10.62-3.84h0Z"/>
    <path class="st71" d="M573.54,213.95c5.67-.87,11.7.56,17.41.11.17,2.02.38,4.01.43,6.1.77,28.28.73,71.54,0,99.87-.06,2.42-.38,4.7-.41,7.12l-18.57,4.84c-.27-.73-.48-1.01-.4-2.3l.02-115.74c.5-.06,1.02.08,1.52,0h0Z"/>
    <path class="st71" d="M573.54,84.4c5.78.57,12.03,4.13,17.83,5.34l-.43,111.62c-5.66-.81-11.37,2.14-17.03,1.06-1.09-.21-1.95.59-1.92-3.31l.02-114.72c.5.02,1.02-.04,1.52,0h0Z"/>
    <path class="st71" d="M574.3,344.46c2.2-.64,15.88-5.76,16.62-4.64.04.06.44,2.12.44,2.24v77.73c0,.61-.5,2.59-.91,2.56l-17.67,9.43c-.23-.22-.81.56-.77-.57v-83.44c-.06-4.39,1.15-2.98,2.28-3.31h0Z"/>
    <rect class="st42" x="593.64" y="90.16" width=".76" height="111.31"/>
  </g>
  <g>
    <path class="st19" d="M965.22,710.73c.15-.67-.35-.58-.75-.78-1.49-.78-3.09-1.4-4.55-2.23-7.89-4.48-14.92-11.8-7.53-20.48-11.42-15.83-12.75-36.78-3.35-53.9-4.79-2.49-9.45-6.09-11.04-11.41-3.8-12.67,6.99-24.36,19.7-25.18,9.3-.6,15.89,2.34,19.28,11.13,22.02-11.17,49.95-11.09,71.99,0,.75-1.36,1.19-2.81,2-4.14,5.58-9.11,20.08-8.56,28.26-3.3,13.18,8.47,12.47,27.04-2.64,32.75,9.65,16.84,8.39,38.17-3.06,53.83-.09.48,1.43,2.2,1.79,2.87,3.97,7.37-2.07,13.46-8.11,17.08l-6.49,3.5-.23.59-5.15,1.63c-.37.34-.98.52-1.85.56-8.15,2.8-17.11,4.02-25.82,4.97-.98-.13-.88-.64-.1-1.08.1-.24.19-.24.28,0l.28-.28.56-.92c16.48-8.08,8.28-35.49-3.2-44.12-1.37-.68-2.47-1.51-3.3-2.49.24-.13.49-.24.75-.32,2.02-.59,9.05,1.25,11.49,1.91,4.89,1.34,9.54,3.17,13.92,5.39,4.57,1.84,4.75-3.49.48-4.36l-5.19-2.29-.19-.62.54-.75c10.66-3.63,11.96-18.96,1.5-23.73-12.84-5.85-24.57,9.25-15.66,19.73v.86s-1.72.21-1.72.21c-10.3-2.05-20.8-1.2-31.11.02l-.88-.23v-.84c6.13-6.98,2.15-19.57-7.49-20.79-16.51-2.08-21.49,18.97-6.63,24.74l.52.77.06.36c-2.48,1.13-4.99,2.3-7.53,3.5-2.2,1.55-.63,4.9,2,3.64,7.65-3.77,16.43-6.6,25.08-7.24l.8.29c-.76.98-1.8,1.83-3.12,2.53-11.32,9.27-19,36.76-1.73,44.39l.6.89c-.26.8-2,.67-2.82.57-7.82-.93-18.49-2.49-25.74-5.34-.58-.23-1.05-.64-1.48-1.07-.67.68-2.64-.33-3.4-.83h0Z"/>
    <path class="st19" d="M1057.32,718.51c.15-.1.3-.19.47-.25,2.08-.72,9.61,6.45,10.49,8.51,4.1,9.63,7.97,19.49,11.76,29.25,3.63,9.33,7.2,18.66,9.95,28.29.13.45.17.93.2,1.41.04.48.03.97,0,1.46,2.42,8.95,4.89,21.38,5.38,30.72.15,2.92-.45,6.91.29,9.59-.4,9.11-2.77,18.42-8.28,25.93-10.01,13.63-29.04,18.24-44.71,20.22-19.38,2.16-39.77,3.87-59.23,1.11-.25.11-.5.2-.76.26-2.12.49-10.97-1.96-13.64-2.74-20.56-6.01-36.5-19.74-38.88-41.44.42-1.3-.01-1.55-.01-2.63-.01-13.45,1.73-25.1,5.11-37.95l.03-1.58c5.76-22.91,14.99-46.03,24.22-67.09.1-1.1,5.01-3.33,5.48-3.19.25.07.46.19.59.42-.06.96-.13,1.93-.42,2.85-4.56,14.32-8.69,27.57-11.12,42.48-3.45,21.22-5.3,50.1,4.85,69.58,16.73,32.11,68.36,39.78,95.16,15.82,35.66-31.88,16.31-91.39,3-129.45-.09-.52-.07-1.04.07-1.56h0Z"/>
    <path class="st19" d="M1105.21,974.8c-.03-.31-.31-.03-.85.83-5.88,4.45-21.66-1.16-26.07-6.54-5.77-7.04-5.46-21.93-7.46-31.04-3.55-16.13-10.3-38.42-18.9-52.48l.96-.94c22.01-8.26,43.42-26.35,44.64-50.89l.59-1.27c13.28,31.36,17.32,66.12,18.15,99.92.14,5.91-.63,13.14.07,18.84.82,6.73,8.93,11.53,9.01,17.87.04,2.67-2.15,4.8-4.78,5.08-.83.09-1.75-.26-2.13-.17s-.78.77-1.23,1.02c-4.04,2.27-7.87.85-12-.23h0Z"/>
    <path class="st19" d="M974.85,886.96c-8.19,14.09-15.95,39.52-18.85,55.59-2.82,15.66.21,28.25-18.91,33.44-3.95,1.07-10.87,2.37-14.1-.63-.27-.92-.46-1.1-.57-.56-3.62,1-7.61,2.38-11.24.61-.58-.28-1.71-1.33-1.99-1.39-1.02-.22-1.93.48-3.85-.38-4.29-1.93-2.88-6.65-1.1-9.85,3.43-6.19,6.96-7.02,7.43-15.23.42-7.34-.22-15.13-.02-22.54.81-30.99,5.59-63.05,17.3-91.86l.78,1.36c4.1,23.02,22.08,42.17,44,50.47l1.12.98h0Z"/>
    <path class="st19" d="M1157.36,827.75l-.54-.16c-.76,2.2-2.33,3.79-4.62,4.46-2.04.6-5.91,1.14-3.07-1.39,1.82-2.51,1.73-4.78,1.14-7.63l.43,3.06c.09.55-.05.88-.43.97.65.06.01,1.54-.24,2.07-1.04,2.21-2.51,3.68-5.15,3.35-.71-.22-2.22-1.07-2.82-1.54-.64-.51-.75-1.46-1.72-1.51-.42-.33-.83,1.16-.28.83-2.93,5.86-7.39-.03-9.03-3.51-1.61-3.42-2.24-6.92-4.24-10.29-4.72-7.94-15.4-14.52-23-19.83-3.88-12.22-8.22-24.88-13.24-37-3-7.24-6.23-14.4-9.78-21.34-4.53-8.86-9.49-16.27-15.06-24.45-.47-.69-.76-1.47-1.02-2.26,19.1,6.43,38.97,18.47,53.43,32.24,17.74,16.9,38.04,47.62,40.37,72.14.4,4.16.71,7.97-1.13,11.81h0Z"/>
    <path class="st19" d="M964.65,711.84c-.07.68-.26,1.32-.56,1.93-17.83,24.76-29.29,54.32-37.98,82.85-7.96,5.5-19.06,12.3-23.67,20.84-2.25,4.17-3.58,12.71-8.16,14.78-2.49,1.13-3.35.04-4.44-1.99-.21-.09-.7-3.66-.61-3.5.17.3.25,2,.05,2.39-1.13,1.34-2.5,2.83-4.25,3.34-1.99.23-3.12-.23-4.3-1.82-.58-.78-1.78-2.69-1.08-3.33-.85-.58-.38-3.15,0-4.17-.96,2.59-.46,6.56,2.19,8.65.61,1.32-2.75.63-3.59.43-2.38-.57-4.5-2.36-5.22-4.67l-.46.46c-4.48-9.06,2.1-28.96,6.27-37.9,10.71-22.92,27.53-44.21,48.33-59.05,11.52-8.22,24.29-14.12,37.5-19.23Z"/>
    <path class="st83" d="M1060.72,710.45c1.2,0,2.81.72,3.97,1.11,8.72,11.2,15.43,23.4,21.3,36.23,7,15.3,13.19,31.43,17.78,47.61.09.32.48,1.04.02,1.22-4.52-3.15-9.25-6.06-13.6-9.45-5.51-20.35-14.81-40.34-22.42-60.15-2.56-3.52-6.1-7.25-10.45-8.51-.26.07-.36-.02-.28-.28-.75-.06-2.21-4.75-2.13-5.02.08-.23.2-.42.43-.54.03-.02-.15-.39.35-.64.65-.33,4.39-1.58,5.04-1.58h0Z"/>
    <path class="st83" d="M1095.86,827.48c.02.09-.03.2,0,.28l.28.28c.62,1.48,1.35,2.95,1.98,4.45-.18,25.43-23.47,45.12-46.19,53.09-2.61-4.27-5.59-8.32-9.07-11.95-.24-.87.9-.49,1.76-.63,27.99-4.6,48.31-13.46,50.67-44.55.04-.53-.32-1.12.56-.96h0Z"/>
    <path class="st83" d="M983.64,874.73c-3.04,3.98-6.26,7.89-8.78,12.23-13.67-4.58-26.48-14.49-34.8-26.04-5.72-7.93-9.76-17.08-11.1-26.77.4-.99,1.13-2.45,1.42-3.34.52.29.47.77.56,1.26,4.85,27.24,26.69,38.97,52.72,42.66Z"/>
    <path class="st83" d="M968.62,711.56l.43.48c-.75,2.12-1.5,4.25-2.25,6.37l-.73.37c-.05.25-.15.24-.28,0-1.21.25-4.48,1.58-5.23,2.51-1.02,1.27-2.89,6.48-3.69,8.34-8.31,19.29-16.07,40.35-21.4,60.59-3.05,2.22-6.25,4.25-9.35,6.39-.39-1.06.38-2.78.71-3.89,5.23-17.69,12.44-36.05,20.59-52.64,5.07-10.31,11.18-18.67,17.25-28.25.18-.29.39-.95.57-1.11.55-.51,2.6.57,3.4.83h0Z"/>
    <path class="st60" d="M872.55,828.03c-.2-1.51-.32-2.73.08-4.23l1.34-2.99c-2.24,6.27.35,11.85,7.65,11.39-3.16-2.68-3.43-6.29-1.98-10,.7,0,0,.82,0,.97v4.17c0,.38.89,2.31,1.18,2.73,1.08,1.61,2.39,1.99,4.2,2.41-4.73,1.36-10.23.08-12.47-4.45h0Z"/>
    <path class="st28" d="M1157.36,827.75c-1.03,2.14-1.9,3.33-4.25,4.3-2.07.85-6.11,1.06-8.21.42,2.18-.54,3.71-1.22,4.68-3.33.12-.26.71-1.98.71-2.09v-4.03l.86,2.93c-.07,2.56-.96,4.51-2.84,6.24,7.38.39,9.58-5.05,7.65-11.39l1.35,3.26.07,3.69h0Z"/>
    <path class="st31" d="M889.27,829.14c-1.01-2.97-.63-6.47,1-9.18.11-.18.23-1.02.7-.55.17.17-1.77,3.7-1.41,4.59l.28,6.25c-.24-.44-.36-.49-.57-1.11h0Z"/>
    <path class="st0" d="M1105.21,974.8c-.32.47-.43.51-.85.83,2.28-4.46-.76-7.04-3.68-10l3.26,2.5c1.55,2.13,2.99,4.19,1.27,6.67h0Z"/>
    <path class="st10" d="M1140.35,829.42c-.1.28-.13.54-.28.83-.6.35-.67.5-.46-.31.94-3.73.94-6.58-.38-10.25,2.24,2.83,2.26,6.48,1.13,9.73Z"/>
    <path class="st0" d="M922.43,974.8c-1.83-3.05.65-6.14,2.97-8.06.32-.26.46-.67.99-.55-1.91,2.12-3.92,3.69-3.69,6.82.06.84.66,1.7.29,2.35-.22-.2-.36-.22-.57-.56h0Z"/>
    <path class="st19" d="M1096.14,828.03l-.28-.28c.02.07.23.16.28.28Z"/>
    <path class="st80" d="M1022.18,669.31c7.69,3.15,12.21,11.81,14.53,19.24,3.47,11.12,3.06,22.5-8.58,28.29l-.28.28c-.08.04-.21-.04-.28,0-.11.2-.23.4-.38.57-1.11,1.29-7.23,2.52-9.23,2.78-5.89.78-12.18-.16-17.79-1.87-.54-.16-1.6-.6-1.5-1.21-13.91-6.09-12.99-20.82-8.07-32.79,2.42-5.89,6.18-12.28,12.32-15.02l.54-.83c5.78-2.11,12.33-2.2,18.17-.26l.56.81h0Z"/>
    <path class="st46" d="M998.66,717.4c.84.13,1.51.7,2.33.91,9.48,2.46,17.42,2.93,26.58-1.19-.43.7-.41.57.35.49,6.54-.68,13.09-1.64,19.49-3.12,2.25-.52,4.95-1.67,7.01-2.03.4-.07.88.24.92.22l1.7,5.56-.48.38c-4.77-1.09-9.69-.85-14.75.72-16.01,4.9-32.43,6.9-49.12,3.46-7.9-1.89-15.86-3.12-23.9-3.69-1.12.24-2.02.13-2.71-.32l2.55-7.23c9.14,3.05,17.49,4.62,27.07,5.83.8.1,2.56-.06,2.97,0h0Z"/>
    <path class="st45" d="M1029.83,665.14l.83.05c3.46,3.5,7.82,4.02,12.45,3.27l.32.57c.56.06,2.78,1.12,3.5,1.43.89.39,4.36,1.97,4.84,2.48,1.58,1.66.4,4.47-1.97,4.44-.94-.01-5.34-2.39-6.66-2.92-6.62-2.65-13.79-4.68-20.96-5.15-5.54-2.27-13.8-2.16-19.27.28-7.78.73-15.48,3.06-22.66,5.99-1.23.5-3.18,1.86-4.4,1.82-2.45-.09-3.35-3.31-1.27-4.87.69-.51,7.18-3.38,7.92-3.49-.01-.27.09-.47.34-.58,4.68.8,8.96.12,12.5-3.34l.77.03c11.16-1.84,22.6-2.41,33.72,0h0Z"/>
    <path class="st80" d="M1062.36,605.46c9.18-1.02,18.55,6.24,16.08,15.77-.43,1.64-3.3,6.38-5.11,6.4-.61,0-2.78-3.21-3.39-3.9-4.62-5.22-9.88-9.34-15.71-13.2,1.66-2.95,4.74-4.69,8.13-5.07h0Z"/>
    <path class="st80" d="M971.41,610.9c-.11.19-3.14,1.89-3.74,2.32-5.8,4.18-10.83,8.93-15.07,14.65-10.14-6.67-5.43-20,5.75-22.13,3.32-.63,7.39-.53,10.24,1.46.63.44,3.29,2.9,2.81,3.69h0Z"/>
    <path class="st30" d="M996.11,665.14c-2.02,2.12-5.38,3.93-8.35,4.18-1.58.13-4.18-.45-5.25-.29-15.86-5.17-11.76-27.61,5.54-26.14,10.68.91,15.32,14.63,8.07,22.25Z"/>
    <path class="st30" d="M1043.43,669.04c-1.32-.13-3.55.43-5.25.29-3.19-.27-6.24-1.93-8.35-4.18-9.5-10.14.75-25.82,14.11-21.76,12.81,3.89,12.15,21.99-.5,25.65h0Z"/>
    <path class="st41" d="M1040.25,632.98c2.05-.23,3.58.02,5.42.93,1.03.51,5.51,3.75,2.95,4.5-1.43.42-1.41-.67-2.19-1.35-1.64-1.43-3.69-2.14-5.89-1.86-1.26.16-4.79,2.21-4.78.06.01-1.37,3.34-2.15,4.5-2.28h0Z"/>
    <path class="st85" d="M983,632.97c1.53-.2,6.68.37,7.12,2.07.61,2.34-3.91.26-4.72.16-1.6-.2-2.8,0-4.23.71-1.07.53-3.57,3.58-4.5,2.29-1.01-1.4,2.78-4.02,3.93-4.52.67-.28,1.68-.61,2.39-.71Z"/>
    <path class="st46" d="M1027.85,717.12l.28-.28c-.05.03-.12.2-.28.28Z"/>
    <path class="st80" d="M1057.04,718.24c.1.07.19.2.28.28,12.93,38.12,31.73,91.42,2.13,126.48-25.18,29.83-82.03,23.56-100.52-10.38-8.92-16.38-8.65-38.4-7.03-56.47,1.82-20.31,6.93-40.23,13.88-59.35.09-.02.19.02.28,0,6.99-1.24,21.22,2.69,28.85,3.81,11.13,1.64,20.15,2.05,31.29,0,7.95-1.46,19.59-5.85,27.28-5.2.71.06,3.05.49,3.55.83h0Z"/>
    <path class="st55" d="M1013.68,696.55c-.42.78-.98.79-1.42,0-4.36-.23-8.76-2.35-9.51-6.94-.55-3.36-.25-4.87,3.26-5.72,3.02-.74,10.32-.68,13.39-.05,4.07.83,4.48,2.56,3.54,6.37-1.04,4.23-5.1,6.12-9.27,6.34h0Z"/>
    <path class="st34" d="M1013.68,696.55c.11,6.23-1.61,14.03,6.29,16.21,4.71,1.3,10.76-1.81,9.8-7.11-.12-.67-1.44-2.66-.35-2.98,1.84-.53,1.98,4.62,1.82,5.68-.32,2.09-2.8,4.54-4.69,5.4-5.05,2.3-11.23-.13-13.57-4.97-2.35,4.39-7.33,6.8-12.33,5.42-3.12-.86-6.14-3.97-6.24-7.24-.03-.92.62-4,1.61-4.25,1.81-.47.23,2.2.12,2.9-.34,2.31.31,4.15,2.11,5.67,3.28,2.78,8.44,2.22,11.48-.68,3.8-3.63,2.21-9.38,2.54-14.05.46.02.96.02,1.42,0h0Z"/>
    <path class="st17" d="M984.14,646.32c15.93-2.24,15.79,21.68.28,19.59-11.17-1.5-10.98-18.08-.28-19.59Z"/>
    <path class="st17" d="M1037.7,646.32c11.88-1.69,16.71,12.83,7.13,18.39-6.3,3.66-14.44-.5-15.2-7.56-.52-4.81,2.99-10.11,8.07-10.83h0Z"/>
    <path class="st70" d="M984.13,647.98c9.96-1.65,14.12,10.38,6.4,15.18-6.91,4.29-15.45-3.14-12.14-10.52.85-1.9,3.61-4.31,5.74-4.66Z"/>
    <path class="st70" d="M1037.98,647.98c13.34-1.9,13.2,17.45.78,16.32-9.65-.88-9.66-15.06-.78-16.32h0Z"/>
    <path class="st73" d="M982.71,650.46c2.3-.34,2.62,3.81-.29,2.96-1.56-.45-1.24-2.73.29-2.96Z"/>
    <path class="st81" d="M979.46,656.46c-1.1-1.09.75-2.38,1.51-1.34.62.85-.59,2.25-1.51,1.34Z"/>
    <path class="st43" d="M1036.53,650.47c1.62-.14,2.27,2.72.51,3-2.62.42-2.44-2.83-.51-3Z"/>
    <path class="st73" d="M1034.61,656.49c-.62.98-2.74-.57-1.4-1.51,1.03-.73,1.9.73,1.4,1.51Z"/>
    <g>
      <path class="st78" d="M1049.85,812.6c-2.23,10.7-12.57,17.97-24.33,17.53-9.2-.1-18.4-.07-27.59.09-13.8-.04-23.67-12.43-22.4-24.59.12-1.18.28-2.25.5-3.41,1.44-5.38,5.02-10.11,10.06-13.25,4.78-2.98,8.67-3.17,14.45-3.33,9.69-.02,19.36-.13,29.04-.31,12.81,1.27,21.82,13.05,20.78,24.54-.01.67-.39,1.96-.51,2.74h0s0,0,0,0Z"/>
      <path class="st4" d="M975.53,805.63c-.37,9.55,5.17,19.35,15.01,22.99,5.74,2.12,14.65,1.06,20.97,1.04,6.56-.02,16.53.82,22.61-.94,8.04-2.33,13.52-8.81,15.73-16.11-2.19,13.28-11.67,19.68-25.91,19.79-8.2.06-16.59.15-24.78-.01-5.56-.11-8.19-.11-12.97-3.08-8.81-5.47-11.65-14.3-10.65-23.67h0s0,0,0,0Z"/>
      <path class="st25" d="M1050.36,809.87c.22-11.47-8.06-23.11-21.18-24.24-11.16.64-23.17-.21-34.23.64-8.8.68-16.67,8.41-18.71,16.05l-.21-.11c1.79-9.04,8.37-16.72,18.51-18.49l34.05-.81c11.81.64,20.46,9.76,21.84,20.24.3,2.3.06,4.41-.07,6.71h0s0,0,0,0Z"/>
      <path class="st79" d="M1005.52,793.45c-.63,4.63-7.95,4.93-8.88.3-.03-.32-.03-.7-.01-1.02.76-4.67,8.19-4.65,8.88.05.01.22.02.46,0,.68h0s0,0,0,0Z"/>
      <path class="st79" d="M1026.25,793.5c-1.03,4.69-8.6,4.26-8.89-.56,0-.11,0-.23,0-.34.67-4.52,7.51-5.01,8.87-.63.07.59.09.87.02,1.54h0Z"/>
      <path class="st79" d="M996.84,807.55c-.09,4.83-7.66,5.52-8.87.98-.13-.82-.15-1.11-.03-1.87,1.57-4.1,7.98-3.85,8.89.56.01.11,0,.23,0,.34h0Z"/>
      <path class="st79" d="M1038.3,807.82c-1.17,4.6-8.6,4.09-8.89-.73,0-.11,0-.23,0-.34.79-4.44,7.2-4.81,8.87-.81.14.77.12,1.05.03,1.87h0Z"/>
      <path class="st79" d="M1005.94,822.07c-.47,4.76-7.84,5.06-8.88.46-.03-.37-.04-.83-.02-1.19.88-4.58,8.29-4.45,8.89.21,0,.17.01.34,0,.51h0s0,0,0,0Z"/>
      <path class="st79" d="M1026.67,822.12c-.94,4.71-8.45,4.46-8.89-.39,0-.17-.02-.34,0-.51.74-4.45,7.42-4.76,8.87-.63.1.63.06.86.02,1.54h0Z"/>
      <path class="st79" d="M1017.58,807.77c-.7,4.62-8.04,4.72-8.88.12-.02-.28-.02-.57-.01-.85.69-4.7,8.06-4.81,8.88-.12.01.28.02.58.01.85h0Z"/>
      <path class="st56" d="M1029.41,807.09c.96,4.41,6.98,4.8,8.89.73-.18,1.59-.65,2.78-2.35,3.53-3.55,1.55-6.49-.95-6.54-4.26h0Z"/>
      <path class="st76" d="M1017.78,821.74c1.12,4.43,7.25,4.6,8.89.39-.35,5.72-8.73,5.47-8.89-.39Z"/>
      <path class="st64" d="M1017.56,806.92c-1.57-4.22-7.43-4.13-8.88.12.2-5.72,8.52-5.83,8.88-.12Z"/>
      <path class="st76" d="M987.98,808.52c2.03,4.02,8.03,3.46,8.87-.98.13,5.77-7.48,6.2-8.77,2-.12-.4-.05-.69-.1-1.02h0Z"/>
      <path class="st23" d="M1008.69,807.9c1.53,4.12,7.47,4.04,8.88-.12-.3,5.67-8.41,5.78-8.88.12Z"/>
      <path class="st57" d="M1005.93,821.56c-1.28-4.21-7.29-4.33-8.89-.21.31-5.4,8.54-5.69,8.89.21h0Z"/>
      <path class="st53" d="M1038.28,805.95l-.23.13c-1.34-3.16-6.14-3.48-8-.52-.25.41-.27.88-.64,1.19.29-5.39,7.94-5.86,8.87-.81h0Z"/>
      <path class="st64" d="M1026.65,820.59l-.2.11c-1.01-2.85-5.15-3.52-7.41-1.46-.65.59-.77,1.33-1.26,1.98.32-5.44,8.08-5.78,8.87-.63h0Z"/>
      <path class="st9" d="M997.06,822.54c1.74,4.09,7.69,3.88,8.88-.46-.17,5.87-8.41,6-8.88.46Z"/>
      <path class="st18" d="M1026.23,791.97l-.95-1.26c-2.67-2.64-6.82-1.42-7.92,1.89.26-5.68,8.23-5.83,8.87-.63h0Z"/>
      <path class="st9" d="M996.64,793.75c1.63,4.19,7.55,3.88,8.88-.3-.25,5.74-8.39,5.86-8.88.3Z"/>
      <path class="st18" d="M1005.51,792.77c-1.4-4.24-7.42-4.25-8.88-.05.25-5.62,8.55-5.68,8.88.05h0Z"/>
      <path class="st9" d="M1017.36,792.95c1.1,4.42,7.09,4.75,8.89.56-.52,5.41-7.93,5.07-8.83.68-.09-.41-.05-.82-.06-1.24h0Z"/>
      <path class="st53" d="M996.84,807.21c-.38-.3-.41-.77-.68-1.17-1.96-2.92-6.74-2.48-7.98.74l-.23-.12c.78-5.03,8.42-4.86,8.89.56h0Z"/>
      <path class="st39" d="M1001.79,793.48c-.4.62-2.09.16-1.37-.97.49-.78,1.94.1,1.37.97Z"/>
      <path class="st87" d="M1022.76,795.6l1.36-1.05,1.18-2.22c.71,1.62-.57,3.55-2.54,3.27h0Z"/>
      <path class="st52" d="M1021.08,792.24c.39-.59,2.08-.18,1.56.8-.55,1.05-2.07-.04-1.56-.8Z"/>
      <path class="st33" d="M993.18,810.32c.16-.34.74-.35,1.09-.62.69-.54,1.27-1.83,1.36-2.65,1.05,1.5-.5,3.84-2.45,3.27h0Z"/>
      <path class="st69" d="M991.52,807.93c-.74-1.15,1.87-1.71,1.63-.25-.12.74-1.35.68-1.63.25Z"/>
      <path class="st33" d="M1034.82,809.74l1.54-1.23.56-.84.44-1.2c.78,1.52-.64,3.83-2.54,3.27h0Z"/>
      <path class="st59" d="M1034.74,807.32c-.26.44-1.49.53-1.64-.2-.28-1.45,2.35-.97,1.64.2Z"/>
      <path class="st50" d="M1002.46,824.67l1.35-1.22c.55-.64.65-1.02.83-1.79s.58.12.55.65c-.07,1.25-1.29,2.55-2.73,2.36h0,0Z"/>
      <path class="st65" d="M1000.78,822.29c-.58-.81.79-1.84,1.35-1.02.67.98-.97,1.56-1.35,1.02Z"/>
      <path class="st33" d="M1023.18,824.05c1.37-.29,2.12-1.76,2.45-2.93,1.14,1.18-1.07,4.14-2.45,2.93Z"/>
      <path class="st72" d="M1023.11,821.27c.31.98-1.34,1.15-1.6.47-.42-1.11,1.29-1.46,1.6-.47Z"/>
      <path class="st86" d="M1013.9,810.03c.01-.29.52-.2.8-.37.26-.16.46-.38.66-.59l1.26-2.15c.74,1.53-.89,3.72-2.73,3.1h0s0,0,0,0Z"/>
      <path class="st49" d="M1013.83,806.92c.43,1.26-1.63,1.41-1.45.16.11-.76,1.22-.84,1.45-.16Z"/>
    </g>
  </g>
  <g>
    <path class="st19" d="M292.77,707.54c.15-.67-.34-.57-.74-.77-1.47-.77-3.06-1.39-4.49-2.2-7.8-4.43-14.75-11.67-7.45-20.25-11.29-15.66-12.61-36.37-3.31-53.3-4.74-2.46-9.34-6.02-10.92-11.28-3.75-12.53,6.91-24.09,19.47-24.9,9.2-.59,15.72,2.31,19.06,11,21.77-11.04,49.39-10.97,71.18,0,.74-1.34,1.17-2.78,1.98-4.1,5.52-9.01,19.86-8.47,27.94-3.27,13.03,8.38,12.33,26.74-2.61,32.39,9.55,16.65,8.3,37.74-3.03,53.23-.09.47,1.42,2.18,1.77,2.83,3.92,7.29-2.05,13.31-8.01,16.89l-6.42,3.46-.23.59-5.1,1.61c-.36.33-.97.52-1.83.55-8.06,2.77-16.92,3.98-25.53,4.91-.97-.13-.87-.63-.1-1.07.09-.24.19-.24.28,0l.28-.27.55-.91c16.3-7.99,8.19-35.1-3.17-43.63-1.36-.68-2.45-1.5-3.27-2.46.24-.12.49-.24.74-.31,2-.59,8.95,1.23,11.36,1.89,4.83,1.32,9.43,3.14,13.76,5.33,4.52,1.82,4.7-3.45.47-4.31l-5.14-2.26-.19-.61.53-.75c10.54-3.59,11.83-18.75,1.49-23.46-12.69-5.78-24.29,9.15-15.48,19.51v.85s-1.7.21-1.7.21c-10.18-2.03-20.56-1.19-30.76.02l-.87-.23v-.83c6.06-6.9,2.12-19.35-7.41-20.56-16.33-2.06-21.25,18.76-6.55,24.47l.51.76.06.36c-2.45,1.12-4.93,2.27-7.44,3.46-2.18,1.54-.63,4.85,1.98,3.6,7.57-3.72,16.24-6.53,24.79-7.16l.79.29c-.75.97-1.78,1.81-3.08,2.51-11.19,9.17-18.79,36.35-1.71,43.89l.59.88c-.26.79-1.98.66-2.79.56-7.73-.92-18.28-2.46-25.45-5.28-.57-.22-1.03-.63-1.46-1.05-.66.67-2.61-.32-3.36-.82h0Z"/>
    <path class="st19" d="M383.84,715.24c.15-.1.3-.19.46-.24,2.05-.72,9.51,6.38,10.37,8.41,4.05,9.53,7.88,19.27,11.63,28.92,3.59,9.23,7.12,18.46,9.84,27.97.13.44.16.92.2,1.39.04.48.03.96,0,1.44,2.4,8.85,4.83,21.14,5.32,30.38.15,2.89-.45,6.83.28,9.48-.39,9.01-2.74,18.22-8.19,25.64-9.89,13.48-28.71,18.04-44.21,19.99-19.17,2.14-39.33,3.82-58.56,1.1-.25.11-.49.2-.75.26-2.09.48-10.85-1.94-13.48-2.71-20.33-5.95-36.09-19.52-38.44-40.99.42-1.28-.01-1.53-.01-2.6-.01-13.3,1.71-24.82,5.06-37.53l.03-1.56c5.7-22.66,14.83-45.52,23.95-66.35.1-1.08,4.95-3.29,5.42-3.15.25.07.45.18.58.42-.05.95-.13,1.91-.42,2.82-4.51,14.16-8.6,27.26-10.99,42.01-3.41,20.98-5.24,49.55,4.79,68.81,16.54,31.76,67.59,39.34,94.09,15.64,35.26-31.53,16.13-90.38,2.97-128.02-.09-.52-.07-1.03.07-1.54h0Z"/>
    <path class="st19" d="M431.19,968.68c-.03-.31-.31-.03-.84.82-5.82,4.4-21.41-1.15-25.77-6.47-5.71-6.96-5.4-21.69-7.38-30.7-3.51-15.96-10.18-37.99-18.69-51.9l.95-.93c21.76-8.17,42.93-26.06,44.14-50.32l.59-1.25c13.14,31.01,17.13,65.39,17.94,98.81.14,5.85-.62,13,.07,18.63.81,6.66,8.83,11.4,8.91,17.67.04,2.64-2.12,4.74-4.72,5.02-.82.09-1.73-.26-2.11-.17s-.77.76-1.22,1.01c-4,2.25-7.78.84-11.86-.23h0Z"/>
    <path class="st19" d="M302.3,881.82c-8.09,13.93-15.77,39.08-18.64,54.97-2.79,15.49.21,27.94-18.69,33.07-3.91,1.06-10.75,2.34-13.94-.62-.27-.91-.46-1.09-.56-.55-3.58.98-7.53,2.35-11.12.6-.57-.28-1.69-1.32-1.97-1.38-1.01-.22-1.91.47-3.8-.38-4.24-1.91-2.85-6.57-1.09-9.74,3.39-6.12,6.88-6.94,7.35-15.06.41-7.26-.22-14.96-.02-22.29.81-30.65,5.53-62.35,17.1-90.84l.77,1.34c4.05,22.76,21.83,41.71,43.51,49.91l1.11.97h0Z"/>
    <path class="st19" d="M482.75,823.27l-.53-.16c-.75,2.17-2.31,3.75-4.57,4.41-2.01.59-5.84,1.13-3.03-1.37,1.8-2.48,1.71-4.73,1.13-7.55l.42,3.03c.09.55-.05.87-.42.96.64.06.01,1.52-.23,2.05-1.03,2.19-2.48,3.63-5.09,3.31-.71-.21-2.2-1.06-2.79-1.53-.63-.5-.74-1.44-1.7-1.5-.42-.32-.82,1.14-.28.82-2.9,5.8-7.31-.03-8.93-3.48-1.59-3.39-2.21-6.84-4.19-10.18-4.67-7.85-15.23-14.36-22.74-19.61-3.84-12.09-8.13-24.61-13.09-36.59-2.97-7.16-6.16-14.24-9.67-21.11-4.48-8.76-9.39-16.09-14.89-24.18-.46-.68-.75-1.46-1.01-2.23,18.88,6.36,38.54,18.26,52.83,31.88,17.54,16.71,37.61,47.1,39.92,71.34.39,4.11.7,7.89-1.12,11.68h0Z"/>
    <path class="st19" d="M292.21,708.64c-.07.67-.26,1.3-.56,1.91-17.63,24.49-28.96,53.72-37.55,81.93-7.87,5.44-18.85,12.16-23.4,20.61-2.22,4.12-3.54,12.57-8.07,14.62-2.46,1.11-3.32.04-4.39-1.97-.21-.09-.7-3.62-.61-3.46.17.3.25,1.98.05,2.36-1.11,1.32-2.47,2.8-4.2,3.3-1.97.23-3.08-.22-4.25-1.8-.58-.78-1.76-2.66-1.07-3.29-.84-.57-.38-3.11,0-4.12-.95,2.56-.46,6.49,2.16,8.55.61,1.3-2.72.63-3.55.43-2.35-.56-4.45-2.34-5.16-4.62l-.46.45c-4.43-8.96,2.07-28.64,6.2-37.48,10.59-22.66,27.22-43.72,47.79-58.4,11.39-8.13,24.01-13.96,37.08-19.02Z"/>
    <path class="st83" d="M387.2,707.26c1.19,0,2.78.72,3.92,1.1,8.62,11.08,15.26,23.14,21.06,35.82,6.92,15.13,13.05,31.08,17.58,47.08.09.32.48,1.03.02,1.21-4.47-3.12-9.15-5.99-13.45-9.35-5.45-20.13-14.64-39.89-22.17-59.48-2.53-3.48-6.03-7.17-10.33-8.42-.26.07-.35-.02-.28-.27-.74-.06-2.19-4.7-2.1-4.96.08-.23.2-.41.42-.54.03-.02-.14-.39.34-.63.65-.33,4.34-1.56,4.98-1.57h0Z"/>
    <path class="st83" d="M421.95,822.99c.02.09-.03.2,0,.27l.28.27c.62,1.47,1.33,2.92,1.96,4.4-.17,25.15-23.2,44.62-45.67,52.5-2.58-4.22-5.52-8.23-8.97-11.82-.24-.86.89-.49,1.74-.62,27.68-4.55,47.76-13.31,50.1-44.05.04-.53-.31-1.11.56-.95h0Z"/>
    <path class="st83" d="M310.99,869.72c-3.01,3.94-6.19,7.8-8.69,12.09-13.52-4.53-26.19-14.33-34.41-25.75-5.65-7.85-9.65-16.89-10.98-26.48.4-.98,1.11-2.42,1.4-3.3.52.28.47.76.55,1.24,4.79,26.94,26.39,38.54,52.13,42.19Z"/>
    <path class="st83" d="M296.13,708.36l.42.48c-.74,2.1-1.48,4.2-2.22,6.3l-.72.36c-.05.25-.15.24-.28,0-1.2.25-4.43,1.56-5.17,2.48-1.01,1.26-2.85,6.41-3.64,8.24-8.21,19.08-15.89,39.9-21.16,59.92-3.01,2.19-6.18,4.2-9.25,6.32-.38-1.05.38-2.75.7-3.85,5.18-17.5,12.3-35.65,20.35-52.05,5.01-10.2,11.05-18.47,17.05-27.94.18-.29.39-.94.56-1.1.54-.51,2.57.56,3.36.82h0Z"/>
    <path class="st60" d="M201.14,823.54c-.19-1.49-.32-2.7.08-4.18l1.32-2.96c-2.22,6.2.35,11.72,7.57,11.27-3.13-2.65-3.39-6.22-1.96-9.89.69,0,0,.81,0,.96v4.12c0,.38.88,2.28,1.17,2.7,1.07,1.59,2.36,1.97,4.16,2.38-4.68,1.34-10.12.07-12.33-4.4h0Z"/>
    <path class="st28" d="M482.75,823.27c-1.01,2.12-1.88,3.29-4.21,4.26-2.05.85-6.04,1.05-8.12.42,2.15-.53,3.67-1.21,4.62-3.3.12-.26.7-1.95.7-2.06v-3.99l.85,2.9c-.07,2.54-.95,4.46-2.81,6.17,7.3.38,9.48-5,7.57-11.27l1.33,3.23.07,3.64h0Z"/>
    <path class="st31" d="M217.68,824.64c-1-2.94-.62-6.4.98-9.08.11-.18.23-1.01.7-.54.17.17-1.75,3.66-1.4,4.54l.28,6.18c-.23-.44-.35-.49-.56-1.1h0Z"/>
    <path class="st0" d="M431.19,968.68c-.32.46-.42.51-.84.82,2.25-4.41-.75-6.96-3.64-9.89l3.23,2.47c1.53,2.1,2.95,4.14,1.26,6.6h0Z"/>
    <path class="st10" d="M465.94,824.91c-.1.28-.13.53-.28.82-.59.35-.66.49-.46-.31.93-3.69.93-6.51-.38-10.14,2.22,2.8,2.23,6.41,1.12,9.62Z"/>
    <path class="st0" d="M250.46,968.68c-1.81-3.02.64-6.07,2.94-7.97.31-.26.46-.67.98-.55-1.89,2.1-3.88,3.65-3.65,6.74.06.83.66,1.68.29,2.32-.21-.2-.36-.22-.56-.55h0Z"/>
    <path class="st19" d="M422.23,823.54l-.28-.27c.02.07.23.16.28.27Z"/>
    <path class="st80" d="M349.09,666.58c7.6,3.12,12.07,11.68,14.37,19.03,3.43,11,3.02,22.25-8.48,27.97l-.28.27c-.08.04-.2-.04-.28,0-.11.2-.23.4-.37.57-1.09,1.28-7.15,2.49-9.13,2.75-5.82.77-12.04-.15-17.59-1.85-.53-.16-1.58-.6-1.49-1.19-13.75-6.02-12.84-20.59-7.98-32.43,2.39-5.83,6.11-12.14,12.18-14.85l.53-.82c5.72-2.09,12.19-2.17,17.97-.26l.55.8h0Z"/>
    <path class="st46" d="M325.84,714.14c.83.13,1.49.69,2.3.9,9.38,2.43,17.22,2.9,26.28-1.18-.43.69-.41.56.35.48,6.47-.67,12.94-1.62,19.27-3.09,2.22-.52,4.89-1.65,6.93-2.01.4-.07.87.24.91.22l1.68,5.5-.48.38c-4.72-1.07-9.58-.84-14.59.71-15.83,4.85-32.07,6.82-48.57,3.42-7.81-1.87-15.69-3.08-23.64-3.64-1.1.24-2,.13-2.68-.32l2.52-7.15c9.04,3.01,17.29,4.57,26.76,5.77.79.1,2.53-.06,2.94,0h0Z"/>
    <path class="st45" d="M356.66,662.46l.82.05c3.42,3.46,7.73,3.97,12.31,3.23l.32.57c.55.06,2.75,1.1,3.46,1.41.88.38,4.31,1.95,4.79,2.45,1.57,1.64.39,4.42-1.95,4.39-.93-.01-5.28-2.36-6.59-2.89-6.55-2.62-13.64-4.62-20.73-5.09-5.48-2.25-13.65-2.14-19.05.27-7.69.72-15.31,3.02-22.41,5.92-1.22.5-3.15,1.84-4.35,1.8-2.42-.09-3.32-3.27-1.25-4.81.68-.51,7.1-3.34,7.83-3.45-.01-.27.09-.46.33-.58,4.63.79,8.86.12,12.36-3.3l.76.03c11.03-1.82,22.34-2.38,33.34,0h0Z"/>
    <path class="st80" d="M388.82,603.43c9.08-1,18.34,6.18,15.9,15.59-.42,1.63-3.26,6.31-5.05,6.32-.6,0-2.75-3.18-3.35-3.86-4.57-5.16-9.77-9.24-15.53-13.05,1.64-2.92,4.68-4.64,8.04-5.01h0Z"/>
    <path class="st80" d="M298.9,608.81c-.11.18-3.11,1.87-3.69,2.29-5.73,4.13-10.71,8.84-14.9,14.49-10.02-6.59-5.37-19.78,5.69-21.88,3.28-.62,7.31-.52,10.13,1.45.62.44,3.25,2.86,2.78,3.65h0Z"/>
    <path class="st30" d="M323.31,662.46c-2,2.1-5.32,3.88-8.26,4.13-1.56.13-4.14-.44-5.19-.29-15.68-5.11-11.63-27.31,5.47-25.85,10.56.9,15.15,14.47,7.98,22Z"/>
    <path class="st30" d="M370.11,666.31c-1.3-.13-3.51.43-5.19.28-3.16-.27-6.17-1.91-8.26-4.13-9.4-10.02.74-25.53,13.95-21.52,12.67,3.85,12.01,21.74-.5,25.37h0Z"/>
    <path class="st41" d="M366.96,630.65c2.03-.23,3.54.02,5.35.92,1.02.5,5.45,3.7,2.92,4.45-1.41.42-1.39-.66-2.17-1.34-1.62-1.42-3.65-2.12-5.83-1.84-1.25.16-4.74,2.18-4.72.06.01-1.35,3.31-2.13,4.45-2.26h0Z"/>
    <path class="st85" d="M310.36,630.64c1.51-.2,6.6.37,7.04,2.05.6,2.32-3.86.26-4.66.15-1.58-.2-2.77,0-4.18.7-1.06.52-3.53,3.54-4.45,2.27-1-1.38,2.74-3.98,3.89-4.47.66-.28,1.67-.61,2.37-.7Z"/>
    <path class="st46" d="M354.7,713.86l.28-.27s-.12.2-.28.27Z"/>
    <path class="st80" d="M383.56,714.96c.1.07.18.19.28.27,12.79,37.7,31.37,90.4,2.11,125.08-24.89,29.5-81.11,23.3-99.39-10.27-8.82-16.2-8.56-37.97-6.96-55.85,1.8-20.09,6.85-39.78,13.73-58.69.09-.02.19.02.28,0,6.91-1.23,20.98,2.66,28.52,3.77,11.01,1.62,19.92,2.03,30.94,0,7.86-1.45,19.37-5.79,26.98-5.14.7.06,3.01.49,3.51.82h0Z"/>
    <path class="st55" d="M340.69,693.52c-.42.77-.97.78-1.4,0-4.31-.23-8.67-2.32-9.4-6.86-.54-3.32-.24-4.81,3.23-5.66,2.99-.73,10.2-.67,13.24-.05,4.03.82,4.43,2.53,3.5,6.3-1.03,4.18-5.04,6.05-9.16,6.27h0Z"/>
    <path class="st34" d="M340.69,693.52c.11,6.16-1.59,13.87,6.21,16.03,4.65,1.29,10.64-1.79,9.69-7.03-.12-.66-1.43-2.63-.34-2.95,1.81-.53,1.96,4.57,1.79,5.61-.32,2.06-2.76,4.49-4.64,5.34-4.99,2.27-11.1-.12-13.41-4.91-2.33,4.34-7.24,6.73-12.19,5.36-3.09-.85-6.07-3.93-6.17-7.16-.03-.91.61-3.95,1.59-4.21,1.79-.47.22,2.17.12,2.87-.33,2.28.31,4.1,2.08,5.6,3.25,2.75,8.35,2.19,11.35-.67,3.76-3.59,2.19-9.28,2.51-13.89.46.02.95.02,1.4,0h0Z"/>
    <path class="st17" d="M311.48,643.84c15.75-2.22,15.61,21.44.28,19.37-11.04-1.49-10.86-17.88-.28-19.37Z"/>
    <path class="st17" d="M364.44,643.84c11.75-1.67,16.52,12.69,7.05,18.19-6.23,3.62-14.28-.5-15.03-7.47-.51-4.76,2.96-10,7.98-10.71h0Z"/>
    <path class="st70" d="M311.47,645.48c9.85-1.63,13.96,10.27,6.33,15.01-6.83,4.24-15.28-3.11-12-10.4.84-1.88,3.57-4.26,5.67-4.61Z"/>
    <path class="st70" d="M364.72,645.49c13.19-1.88,13.06,17.26.77,16.14-9.54-.87-9.55-14.89-.77-16.14h0Z"/>
    <path class="st73" d="M310.07,647.93c2.27-.34,2.59,3.76-.28,2.92-1.54-.45-1.22-2.7.28-2.92Z"/>
    <path class="st81" d="M306.85,653.86c-1.08-1.07.74-2.35,1.49-1.32.61.84-.58,2.22-1.49,1.32Z"/>
    <path class="st43" d="M363.29,647.95c1.61-.14,2.24,2.69.5,2.97-2.59.42-2.41-2.8-.5-2.97Z"/>
    <path class="st73" d="M361.39,653.9c-.62.96-2.71-.56-1.39-1.5,1.01-.72,1.88.72,1.39,1.5Z"/>
    <g>
      <path class="st67" d="M401.55,617.91c11.38-.91,15.78,14.79,5.68,20.01.38,1.57.83,2.95.8,4.58,0,.5-.37,2.16-.26,2.39.06.14,1.91,1.44,2.35,1.91,4.52,4.88,3.98,12.9-1.72,16.17,1,1.95,1.22,4.1,1.44,6.23,6.97,1.04,10.9,9.13,7.65,15.43-1.44,2.8-4.48,5.07-7.59,5.32,1.97,8.23-5.05,15.17-13.09,12.56-.66-.21-1.99-1.14-2.52-.89-.3.14-2.14,2.83-2.49,3.35-2.05,2.99-5.4,10.06-8.82,11.1-1.96.6-3.95-.58-5.3-2-9.4-9.86,9.07-11.77,14.24-15.2-.85-.92-1.3-2.14-1.72-3.32-.34-.71.32-1.07.15-.26,3.28,5.28,11.39,5.64,13.69-.44,2.61-6.91-4.92-13.32-11.13-9.39l-.32-.44c1.55-1.6,3.65-2.72,5.79-3.22.04-.18.11-.45.25-.45,1.32-.07,4.22.59,5.47,1.11l.15.52.5-.21c1.35.8,2.56,1.86,3.54,3.1,9.98-4.51,2.21-19.03-7.07-13.26-1.31-.29-.34-1.37.41-1.83,2.42-1.19,3.01-2.07,2.57-4.95-.77-5.16-5.03-7.83-9.85-6.67l-.48-.28c-.98-1.54-1.24-3.19-1.3-4.97l.24-.02c.52,1.43,1.26,2.65,2.21,3.68,3.36-.77,6.91-1.16,9.93,1.2,6.37-5.64.84-15.68-7.3-13.38-1.55-.8,1.02-1.68,1.93-1.81,2.55-.21,3.9-.51,3.81-3.43-.14-4.58-2.63-7.88-7.24-8.22-1.12-1.57,2.66-1.01,3.51-.84,1.54.31,2.74.92,4,1.83,7.01-2.57,5.68-12.96-1.72-14.51l-.4-.51h.01s0,0,0,0Z"/>
      <path class="st5" d="M388.16,637.83c.08-.24.14-.49.24-.72.59-.16.88.4.87,1.67,4.33,7.32,11.28-3.66,2.96-4.67-1.87.47-2.26.26-.58-1.07.44-.35.95-.61,1.45-.85-.01-.07-.04-.14-.05-.2.08-.48.56-.75,1.42-.8-1.27-2.11-2.04-4.24-1.47-6.7.12-.35.23-.65.39-.98.57.24.87.92.93,2.02,4.11,6.52,10.75-3.07,3.29-4.98-1.36.2-3.18.3-1.1-1.04.87-.63,2.11-1.26,3.18-1.33.71-.21,1.12-.37,1.86-.25,6.26,1.05,9.39,8.21,5.38,13.3-.53.67-2.46,2.32-3.26,2.17-.39-.08-1.4-.94-1.92-1.17-1.65-.76-3.89-1.12-5.65-.79.31.32,1,.13,1.49.24,4.09,1,6.72,4.99,6.16,9.23-.15,1.16-.4,2.43-1.58,2.69-1.65.36-3.36.26-4.86,1.43l2.52-.36c7.74-.25,11.41,9.92,5.16,14.5-2.04-1.28-4.54-2.07-6.92-1.73-2.38.34-3.17,1.73-4.51-1.13-.38-.82-.43-1.72-.97-2.37,0-.25.04-.46.04-.67.53-.09.92.39,1.18,1.44,1.44,2.05,4.73,1.61,5.81-.5,2.11-4.12-3.79-7.38-6.14-3.71l-.51.03c-.82.04-.35-.91-.08-1.46l.91-1.62c-4.05-1.14-6.54-5.53-5.63-9.62h0s0-.02,0-.02Z"/>
      <path class="st5" d="M389.3,667.55c.4-.26.76.06,1.09.96,6.22,5.4,9.44-7.2,1.23-5.5-1.62.87-2.03.87-1.07-.94.3-.58.73-1.1,1.21-1.54.39-.44,1.62-1.43,2.13-1.64,3-1.21,7.31.09,9.26,2.91,1.28,1.85,2.19,5.67,1.1,7.72-.41.77-3.07,1.52-3.41,2.85,10.1-6.46,18.31,9.54,7.33,14.02-.93-1.27-2.54-2.71-3.91-3.4l-.05-.54c3.73-3.72-2.47-9.03-5.41-4.62-.06.87-.9,1.42-.94.36-.18-.09-.32-.22-.41-.4-.19-.4.61-2.4.85-2.9-4.22.39-9.11-2.46-9-7.35h0v.02Z"/>
      <path class="st5" d="M390.35,695.32l.43-.21c1.83,2.4,6.14,1.12,6.2-1.87.08-4.25-5.03-5.57-6.82-1.87-.23.12-.42.07-.56-.15-.13-.2.71-2.96.93-3.44.58-.99,1.27-1.91,2.07-2.73.55.16,1.04-.45,1.64-.64,11.3-3.63,15.38,13.93,3.63,15.4-2.93.37-6.34-1.69-7.51-4.49h0s0,0,0,0Z"/>
      <path class="st74" d="M390.52,687.76l-.79,3.51c1.89-4.07,7.37-2.98,7.66,1.67.18,2.98-3.44,4.82-5.93,3.3-.36-.22-.66-.65-1.1-.94-.02-.01-.04-.25-.25-.16l.11.42c-1-2.81-1.22-5.16.31-7.81h0s0,0,0,0Z"/>
      <path class="st74" d="M391.75,660.54c-.61.69-1.19,1.98-1.61,2.83,1.76-1.4,4.58-1.56,6,.48,3.15,4.48-2.96,8.97-6.17,4.8-.28-.36-.27-.92-.67-1.1,0,.2-.08.21-.2.05-.05-2.46.5-5.65,2.64-7.07h0s0,0,0,0Z"/>
      <path class="st74" d="M393.39,623.5c1.21-2.71,2.36-4.18,5.18-5.25.32-.12.83-.39,1.12-.09-1.57.46-2.79,1.28-4.14,2.15l1.92-.21c5.14.49,5.29,7.88-.11,8.04-1.1.04-2.84-1-3.29-2.07-.35-.82-.34-1.78-.68-2.57h0s0,0,0,0Z"/>
      <path class="st74" d="M388.4,637.11c.89-2.1,2.36-4.44,4.7-4.93l-2.48,1.95c3.27-1.64,6.87,1.4,5.66,4.96-1.16,3.43-6.13,3.33-7.36-.03-.26-.71,0-1.48-.52-1.94h0s0,0,0,0Z"/>
      <path class="st74" d="M392.68,651.04c-.46-.4-.28-.62.29-.52,2.33-4.34,9.22-1.14,7.07,3.74-1.13,2.59-5.21,3.02-6.68.53-.31-.53-.31-1.19-.76-1.53,0-.48-.02-1.89.06-2.22h0s0,0,0,0Z"/>
      <path class="st74" d="M397.66,678.25c.02-.19.09-.21.2-.05.03,0,.31.29.44.1.03-.04-.03-.44.14-.69,3.43-5.1,10.46,1.36,5.8,5.39-.98-.49-4.97-1.38-5.87-1.18l-.72-3.57h0s0,0,0,0Z"/>
      <path class="st67" d="M388.16,637.83l.21,2.48c.47,3.24,2.67,6.12,5.85,6.81.41.37-1.64,2.58-1.25,3.4-.07.13-.29.49-.29.52-4.52-3.14-6.34-7.98-4.53-13.21h0Z"/>
      <path class="st67" d="M389.1,667.6l.2-.05c.64,4.75,5.45,7.95,9.84,6.58-.62,1.27-1.33,2.57-1.29,4.07-.07,0-.14.06-.2.05-5.03-.79-8.46-5.61-8.56-10.64h0s0,0,0,0Z"/>
      <path class="st13" d="M393,624.47l.22,2.48c.28,1.74,1,3.06,2.02,4.46l-2.21.55c-.09-.75-.49-1.59-.62-2.37-.3-1.94-.04-3.35.58-5.12h0s0,0,0,0Z"/>
    </g>
  </g>
</svg>