<?xml version="1.0" encoding="UTF-8"?>
<svg id="Ebene_1" xmlns="http://www.w3.org/2000/svg" version="1.1" viewBox="0 0 2034.72 1149.12">
  <!-- Generator: Adobe Illustrator 29.6.0, SVG Export Plug-In . SVG Version: 2.1.1 Build 207)  -->
  <defs>
    <style>
      .st0 {
        fill: #0e0806;
      }

      .st1 {
        fill: #090605;
      }

      .st2 {
        fill: #cccccb;
      }

      .st3 {
        fill: #848d79;
      }

      .st4 {
        stroke: #120f0d;
        stroke-miterlimit: 10;
      }

      .st4, .st5 {
        fill: #120f0d;
      }

      .st6 {
        fill: #fafaf6;
      }

      .st7 {
        fill: #130c07;
      }

      .st8 {
        fill: #fcfcfc;
      }

      .st9 {
        fill: #c9dce0;
      }

      .st10 {
        fill: #080808;
      }

      .st11 {
        fill: #0d0805;
      }

      .st12 {
        fill: #d9d8d7;
      }

      .st13 {
        fill: #c9c9c9;
      }

      .st14 {
        fill: #070604;
      }

      .st15 {
        fill: #060504;
      }

      .st16 {
        fill: #050505;
      }

      .st17 {
        fill: #eeeeec;
      }

      .st18 {
        fill: #dddcdb;
      }

      .st19 {
        fill: #ae7044;
      }

      .st20 {
        fill: #bbbbba;
      }

      .st21 {
        fill: #f9f9f9;
      }

      .st22 {
        fill: #cac8bb;
      }

      .st23 {
        fill: #7d532f;
      }

      .st24 {
        fill: #195113;
      }

      .st25 {
        fill: #fff9e5;
      }

      .st26 {
        fill: #493e36;
      }

      .st27 {
        fill: #ddd;
      }

      .st28 {
        fill: #0e0805;
      }

      .st29 {
        fill: #b46f3c;
      }

      .st30 {
        fill: #e5f8fd;
      }

      .st31 {
        fill: #c6c6c6;
      }

      .st32 {
        fill: #cb050b;
      }

      .st33 {
        fill: #dcdbda;
      }

      .st34 {
        fill: #bebebe;
      }
    </style>
  </defs>
  <rect class="st8" width="2034.72" height="810.01"/>
  <path class="st25" d="M1434.17-.04l3,.92v420.1l-3,1.2-1.44,1.92h-824.07l-1.88-1.92c-.83-.1-1.47-.2-1.47-.3-.25-138.9.09-283.28,1.47-421.92h827.39,0Z"/>
  <path class="st24" d="M2034.16,644.01c.84,163.3.84,336.77,0,500.93l-.93,4.62H1.14l-1.22-4.62v-500.93h2034.24Z"/>
  <path class="st22" d="M2034.16,1148.6c.27-.84.59-.83.96,0v.96H-.08v-.96h2034.24Z"/>
  <polygon class="st3" points="2035.12 1148.6 2034.16 1148.6 2034.16 1124.61 2034.16 1100.62 2034.16 1045.92 2034.16 837.69 2035.12 837.69 2035.12 1148.6"/>
  <g>
    <path class="st33" d="M1468.01-.04l.76.88.19,66.64c7.44-1.93,14.89-4.18,22.37-6.76l.19-59.61.76-1.14h17.82v484.13c.15,1.96-2.66,4.12-3.16,4.07-3.67-.31-11.44-7.91-15.43-10.32-.2-1.9.02-2.59.72-2.95-1.15-4.13-1.85-5.14-3.91-5.18-6.53-5.84-13.21-10.99-20.04-13.88-2.53,1.47-3.55.54-5.53-2.95-3.08,2.45-4.72.13-4.93-6.98-1.81-2.44-3.83-4.18-6.05-5.23l-.34-2.27c.46-4.35.45-8.16.28-12.38l1.3-1.28c1.92.43,6.79,2.63,8.6,3.97.45.34.79,1.23,1.1,2.11l-.76-.66v-83.11l.76-1.16c-2.33,1.01-12.84-1.61-13.23-3-.17-.62-.11-1.51-.04-2.28-.07-1.57.47-2.32,1.6-2.24-.32-3.94-.22-7.03.3-9.28,2.75-1.78,6.93-.52,9.9.8.57.25,1.04,1.18,1.48,2.08l-.76-.66v-115.24l.76-1.17c-2.2,2.37-15.47,3.28-16.18,1.31-.21-.58-.19-1.48-.13-2.27l.33-1.92,4.15-.11c-.46-4.43-.32-7.59.45-9.49l1.2-1.87c2.02-.55,6.93-.91,8.92-.56.47.08.88.77,1.26,1.47l-.76-.66v-115.24l.76-1.17c-3.29,3.36-7.94,4.91-11.38,2.88l-.51-1.44c.17-3.38.27-7.25-.62-10.07l.92-2.28c3.57-1.94,7.18-3.09,10.84-3.68V1.11l.76-1.15h5.31-.03Z"/>
    <path class="st27" d="M606.54-.04v422.22h821.65V-.04h2.28l.52,6.75c.07,133.92.08,268.46.02,403.64l-.29,24.04c1.04.06,2.28,4.46,1.9,6.62,3.69,1.54,7.37,4.07,10.98,6.67.37.26.71.79,1.05,1.34s.68,1.24.99,1.95l-2.83,1.01-850.14.02-2.06-1.98c-.39-2.45-.04-2.64.76-.96l.52-1.63c4.54-2.54,8.92-5.6,13.16-9.19l.36-437.08.76-1.2h.38-.01Z"/>
    <path class="st31" d="M1441.09-.04l.76.64.37,75.46c1.03-1.2,1.79-.98,2.28.67.83-3.33,4.57-3.6,5.69-.96.29.1.99-.29,1.11.05.22.62.7,10.05.03,11.46-1.74,3.48-5.18,4.1-7.21,1.92l.76.66v109.97l-.76,1.16c2.16-.47,4.4-.63,6.73-.47l.48,1.91.38,11.52h-5.31c-.26,1.1-.77,1.97-1.53,2.62v108.85l6.07,1.66.39,2.02c.48,1.61.55,11.12.38,11.52-.13.31-1.81-.22-2.28,0-1.02,1.57-2.3,2.12-3.82,1.63l-.75,78.79c2.12,1.36,4.28,2.32,6.5,2.88l.35,2.11c2.07,3.66.05,11.48.56,13.46.18.71,5.19,1.21,6.19,5.44.31,1.3.65,6.54.87,6.93.33.6,2.54-1.2,3.54-.85,1.29.46,1.77,3.29,2.38,3.65.69.4,2.2-1.25,3.63-.59,6.4,2.97,13.14,7.83,19.3,13.53.92.85,2.03.32,2.88,1.34.8.95.88,3.49,1.97,4.61s5.57,2.06,6.08,3.34c.36.91.09,2.01-.56,1.91-2.53-.39-4.78-4.66-7.02-.96-15.26-9.24-30.66-17.35-45.89-26.87-4.46-2.79-8.9-6.13-13.41-8.58-.38-4.07-.75-5.31-2.15-7.45.88-106.66.05-213.63-.01-320.26-.02-38.29.54-76.43.4-114.72h10.62Z"/>
    <path class="st13" d="M542.45-.04l.76.88.05,59.73c2.22,1.09,4.6,1.87,7.14,2.35l1.15,2.29c2.66.66,2.88,13.72,0,12.47l-1.54,1.59c-2.31-.69-4.57-.68-6.8.03v120.98l-.76,1.18c3.08.63,6.17.77,9.28.44,2.23-1.25,2.15,10.15,1.07,12.18-2.7.04-5.39.31-8.07.82-.31,1.25-.81,2.11-1.52,2.57v120.56c2,.01,4-.28,6.01-.87l1.58,1.52c.76-.45,2.4-1.29,2.94-.08.19.42.48,11.91-.66,11.6-2.83,4-7.54,6.24-10.62,3.84l.76.67v90.28l-.76,1.17c2.67-3.75,6.5-5.34,9.48-3.84,1.16-.35,1.67,1.49,1.55,5.53-.43,5.58-.03,7.6,1.21,6.07,2.96-3.27,4.82-2.13,5.59,3.42,9.74-4.87,19.42-10.16,29.04-15.88,2-1.02,4.05,4.56,2.05,7.58-.34.21-.61.87-.76.96-1.75,1.08-3.56,1.79-5.31,2.88l-1.14.96c-17.15,10.6-34.37,20.68-51.58,30.71-1.41,1.14-2.17.65-2.28-1.48V1.15l.77-1.2h11.38-.01Z"/>
    <path class="st12" d="M572.03-.04l.76.88v68.58l.76,2.51c1.75.74,1.63,11.93,0,12.47l-.76,2.59-.02,112.71c.4.71.78,1.62,1.16,2.73,1.18,1.04.81,10.71-.38,11.52l-.76,2.58-.02,113.16-.36,2.3c2.53-1.08,3.25,8.92,1.9,12.47.02,1.77-.47,2.43-1.49,1.98-.06,29.46-.08,57.9-.03,85.35,1.69-.85,2.34,2.68,1.94,10.57,2.1.22,4.26-.8,6.36-1.84,6.04-3.64,11.99-7.01,17.86-10.1V1.16l.76-1.2h6.45l-.38,438.07c0,1.3-.24,1.65-.63,2.24-.58.87-4.5,3.55-5.52,4.26-2.71,1.89-5.54,2.83-8.26,4.53.74-9.91-4.04-4.17-5.99-3.16-8.03,4.2-16.24,9.69-24.09,12.15-.37.12-.77,1.63-1.17,1.5-.85-.3-.94-5.09-1.61-5.62-.73-.57-4.48,3.52-5.83,1.85-.34-.85.67-11.69-.76-13.44l1.15-2.57c2.18-1.71,11.9-7.78,13.3-6.23.26.29.49.69.73,1.13l-.76-.67v-85.49l.76-1.17-1.04,1.8c-4.22,1.08-8.4,2.06-12.55,2.93l-.45-1.85v-11.52h-2.28c-.13-.68-.25-1.52-.09-2.09.51-1.83,14.09-4.35,16.4-2.7l-.76-.66v-117.16l.76-1.17-1.31,1.35c-6.08,1-12.3.71-18.43.4-.44-.02-.88-.28-1.32-.57s-.89-.72-1.32-1.18c1.39-2.72,6.55.46,7.53-1.09.57-.91.57-9.14.09-10.82-.57-2.03-8.52,1.09-9.9-1.52.4-.47.79-.91,1.2-1.22s.8-.58,1.2-.61c7.45-.58,15.13-.55,22.25,1.35l-.76-.66v-116.68l.76-1.17c-4.92,1.84-10.44.43-15.12-2.64l-.43-2.16c1.86-.52,1.43-11,0-12.47.43-.37.87-.7,1.32-.9s.88-.38,1.29-.27c3.94,1.07,7.89,2.18,11.8,3.81V1.12l.76-1.16h5.33Z"/>
    <path class="st27" d="M599.71-.04v430.38c-.07,1.97-.73,2.74-1.43,3.11-7.04,1.3-15.44,9.73-22.27,10.84-.7.11-1.41-.1-2.1-.03-.08-2.55.27-10.91-.44-12.35-.21-.43-.55,0-.7-.13l.18-2.06c6.23-3.27,12.37-6.58,18.4-9.94-.3-.08-.75-.36-.76-.89-.24-24.62-.24-51.05,0-75.69l.76-1.15c-1.07-.44-2.2-.47-3.39-.07l-13.12,4.23-.56-1.76c-.08-2.82-.18-7.94-.63-10.35-.28-1.53-.9-1.14-1.26-2.13l.27-2,17.52-4.57c.65-1.04.85-28.16.88-32.68.19-25.65.02-52.65-.45-77.29-5.01.55-10.31.9-15.36.23-.63-.08-1.2-.93-1.73-1.72l.38-11.52,1.33-1.74c5.01-.17,9.99-.8,14.94-1.91l.41-107.26-15.6-4.99-1.46-2.13c.45-3.93.71-8.64,0-12.47.98-.57,1.98-1.15,2.99-.93l13.7,3.58V1.12l.76-1.16h8.74Z"/>
    <path class="st2" d="M528.41-.04l.52,26.76c.21,151.53.33,303.07.38,454.61.85,1.44,1.06,3.15.62,5.15-1.86.84-2.98,1.23-4.91-.05-.21-10.98.38-22.18-.41-33.02l.02-453.45h3.79-.01Z"/>
    <polygon class="st30" points="1492.28 -.04 1492.12 62.39 1468.21 70.03 1468.01 -.04 1492.28 -.04"/>
    <path class="st30" d="M566.72-.04v70.05c-5.03-2.03-10.12-3.27-15.17-4.79-2.7-.81-5.42-1.89-8.16-1.91l-.89-1.58-.05-61.76h24.27,0Z"/>
    <path class="st30" d="M590.99-.04v76.77c-5.81-1.43-11.67-2.73-17.45-4.8-.48-.17-1.03.13-1.52,0V-.04h18.97Z"/>
    <path class="st30" d="M1462.7-.04v71.97c-2.05,0-4.17.43-6.21,1.08s-4.23,2.09-6.3,2.76c-1.75.56-3.92.38-5.69.96l-.76-.89V1.12l.76-1.16s18.2,0,18.2,0Z"/>
    <path class="st18" d="M531.07-.04v484.04l1.52.56c-.66,1.24-1.83,1.54-2.65,1.92l-1.34-4.77c-.43-160.49-.06-321.19-.18-481.75h2.65Z"/>
    <path class="st9" d="M1444.5-.04v76.77c-.87.28-2.14,1.35-3.03,1.92l-.38-78.69s3.41,0,3.41,0Z"/>
    <path class="st27" d="M585.3,452.89c-.19.12-.64.65-1.14.96l1.14-.96Z"/>
    <polygon class="st30" points="1492.28 76.73 1492.28 201.48 1468.01 201.48 1468.01 82.49 1492.28 76.73"/>
    <polygon class="st30" points="1492.28 214.91 1492.28 340.62 1468.01 333.9 1468.01 214.91 1492.28 214.91"/>
    <polygon class="st30" points="1492.28 354.05 1492.28 446.17 1468.01 434.66 1468.01 347.33 1492.28 354.05"/>
    <path class="st30" d="M1451.33,87.28c3.78-1.1,7.57-2.51,11.38-2.88v117.07c-3.63,1.58-7.65,1.1-11.38.96-1.07-.04-7.21.86-7.21-1.44v-111.79c2.38-.96,4.81-1.22,7.21-1.92Z"/>
    <path class="st30" d="M1446.39,213.95c.13.03.58.97,1.28,1.03,4.99.4,10.03-.44,15.02-.07v117.07c-3.82-.25-7.6-1.79-11.38-2.88-1.01-.29-7.14-1.21-7.23-2.48l.02-110.28c.08-2.91,1.33-2.61,2.28-2.4h0Z"/>
    <path class="st30" d="M1449.43,340.62c.07.02.43.87.92,1,3.8,1.04,7.6,2.05,11.41,2.83.31-.03.95.91.95,1.44v84.92c-3.69-.42-7.37-2.99-11-4.8-1.95-.97-5.27-1.48-6.94-3.06-.46-.44-.63-.95-.64-2.21l.76-81.1c1.5.53,3.05.58,4.55.97h-.01Z"/>
    <rect class="st34" x="1466.87" y="82.49" width=".76" height="118.99"/>
    <rect class="st34" x="1466.87" y="214.91" width=".76" height="118.99"/>
    <path class="st30" d="M551.55,77.69c.78.2,2.18,1.62,3.23,1.91,4.09,1.12,8.22,1.89,12.32,2.89v118.51c0,3.25-5.7.51-6.62.44-6-.43-12.03.4-18.03.04v-124.75c2.97.1,6.15.23,9.1.96h0Z"/>
    <path class="st30" d="M544.72,214.91c7.43-.66,14.94.49,22.38,0v118.99c-5.11,1.69-10.27,2.39-15.39,3.8-.5.14-.84.98-.92,1-2.75.79-5.59,1.05-8.34,1.92v-125.72c.75-.05,1.52.07,2.28,0h-.01Z"/>
    <path class="st30" d="M553.07,350.21c.77-.24,1.65.22,2.46,0,3.86-1.07,7.66-3.6,11.57-2.87v87.32c-5.17.97-10.15,5.12-15.17,7.68-3.1,1.58-6.33,2.94-9.48,3.84v-92.12c3.55-.79,7.1-2.74,10.62-3.84h0Z"/>
    <path class="st30" d="M573.54,213.95c5.67-.87,11.7.56,17.41.11.17,2.02.38,4.01.43,6.1.77,28.28.73,71.54,0,99.87-.06,2.42-.38,4.7-.41,7.12l-18.57,4.84c-.27-.73-.48-1.01-.4-2.3l.02-115.74c.5-.06,1.02.08,1.52,0h0Z"/>
    <path class="st30" d="M573.54,84.4c5.78.57,12.03,4.13,17.83,5.34l-.43,111.62c-5.66-.81-11.37,2.14-17.03,1.06-1.09-.21-1.95.59-1.92-3.31l.02-114.72c.5.02,1.02-.04,1.52,0h0Z"/>
    <path class="st30" d="M574.3,344.46c2.2-.64,15.88-5.76,16.62-4.64.04.06.44,2.12.44,2.24v77.73c0,.61-.5,2.59-.91,2.56l-17.67,9.43c-.23-.22-.81.56-.77-.57v-83.44c-.06-4.39,1.15-2.98,2.28-3.31h0Z"/>
    <rect class="st20" x="593.64" y="90.16" width=".76" height="111.31"/>
  </g>
  <g>
    <path class="st16" d="M897.78,420.64c.56-4.31-4.52,14.03-.59-22.2,1.09-10.05,3.8-19.88,5.66-29.72-1.83-.42-9.12-4.72-9.51-6.2-.13-.49-.1-.97.02-1.45,7.5-17.58,13.41-36.83,21.39-54.08,11.38-24.61,29.93-32.01,53.02-40.16,4.32-1.53,10.26-1.77,13.25-5.59"/>
    <path class="st16" d="M1141.36,422.4c-.32-1.8-83.26-165.11-84.65-165.82-1.75-.89-77.45,4.46-77.58,2.24l-67.99,105.98-14.57,56.02"/>
    <path class="st16" d="M1056.19,261.82c1.99,2.34,15.81,4.76,19.95,6.15,24.7,8.3,37.85,18.28,48.74,43.61,6.96,16.19,12.32,33.31,19.12,49.59.46,3.21-7.39,6.81-9.89,8.14,1.91,10.17,3.75,20.51,5.74,30.76,5.61,28.99,1.61,20.05,1.51,23.07"/>
    <path class="st6" d="M932.4,421.9c4.49-36.56,8.34-57.6,10.1-94.29.12-2.57-.07-5.18,0-7.75-1.56,1.07-1.77,4.23-2.06,6.11-2.51,16.15-2.59,32.8-4.95,48.98-13.55-.3-28.49-4.23-39.46-12.94,6.77-16.41,12.46-33.84,19.63-50.01,2.34-5.28,5-11.11,8.44-15.64,11.35-14.94,31.08-21.78,47.59-27.53,2.8,7.8,5.2,13.91,11.85,18.75,24.27,17.62,72.52,16.07,82.6-18.83,7.45,1.44,14.67,4.22,21.56,7.53,17.61,8.46,25.74,15.85,33.98,34.76,7.14,16.41,12.58,34.21,19.65,50.73.18.76-.4,1.05-.87,1.44-9.56,7.77-27.21,11.9-39.04,12.39-1.65-16.01-2.13-32.55-4.36-48.47-.14-.98-.76-6.46-1-6.69-.32-.32-1.92.07-2.08.91l8.77,101.06"/>
    <path class="st29" d="M897.78,420.64c1.89-12.67,4.53-37.78,7.27-50.25,9.78,3.8,20.01,6.67,30.49,6.9-1.89,11.41-4.33,31.81-5.13,43.35"/>
    <path class="st29" d="M1106.28,422.01c-6.22-30.5-2.62-3.76-5.6-35.21-.28-2.94-.49-5.97-.57-8.92,10.6-.37,21.36-3.15,31.09-7.48,3.11,12.83,8.11,39.79,10.16,52.86"/>
    <path class="st29" d="M1051.65,253.19c.18,8.84,3.09,13.93,11.78,14.37-8.06,29.35-46.36,32.41-68.85,22.51-9.43-4.16-17.55-10.38-19.9-21.73-.25-1.19.15-.47.71-.79,6.43-3.64,8.82-6.37,9.93-14.93"/>
    <path class="st32" d="M1078.01,250.97"/>
    <path class="st32" d="M1079.14,248.58"/>
    <path class="st16" d="M980.57,263.96c-12.84,2.91-23.17,3.47-36.09.84-10.73-2.18-21.11-5.74-25.45-16.69-.3,5.96,2.78,12.13,6.06,16.99h-6.51c-1.18,0-5.8-1.32-7.2-1.77-19.01-6.16-31.98-28.98-34.35-47.85l-1.34,6.49c.08,6.8-.55,13.71,1.34,20.33-.87.23-.87-.34-1.27-.75-16.03-16.17-15.37-50.5-11.09-71.23,8.23-39.84,31.4-90.44,55.12-123.52,18.46-25.74,56.42-55.75,90.2-45.68,2.14.64,8.49,3.83,9.66,3.83,1.65,0,9.15-3.17,11.98-3.75,54.5-11.3,97.68,56.98,116.35,98.64,14.11,31.51,31.68,86.95,21.8,120.65-2.19,7.47-6.33,15.65-11.55,21.36.82-6.45,1.01-12.95.91-19.46l-1.36-6.46c-3.29,22.94-20.47,46.22-44.92,48.72,3-3.87,5.52-9.12,5.85-14.06.03-.48.31-2.11-.46-2.02-4.16,10.65-14.71,14.05-25.08,15.95-9.62,1.76-17.8,1.96-27.48,1.48-3.01,0-3.91-1.8-6.89-2.1l-2.61-2.06c-1.22.77,1.81,4.63-2.95,1.27l-1.92-4.74c-.44-1.51-.82-4.76-.45-5.78l1.56-1.73c30.04-14.73,44.85-44.66,51.21-76.11,1.11-2.52,2.93-1.16,2.57,1.02-.68,5.12-1.67,10.21-2.97,15.27-1.99,7.02,8.53,1.59,11.15-.15,11.61-7.71,15.23-26.2,13.77-39.2-1.57-14.04-17.72-10.19-20.52,1.02-1.03.43-1.67.64-1.94-.56.12-21.35-14.71-38.53-34.63-45.23-13.2-5-26.47-9.84-39.79-14.52-18.33-6.49-34.75-17.3-48.79-30.46-5.79,11.07-12.13,22.4-20.55,31.8-16.05,14.48-31.59,32.79-30.61,55.65-.11,1.4-.79,1.24-1.99.93-3.34-4.61-8.88-10.83-15.31-7.73-11.45,5.51-3.91,30.92.2,39.98.62,0,1.26,0,1.78.48,2.4,4.47,5.37,7.39,10.21,9.21,1.21.45,7.33,2.13,6.5-.43-1.47-3.94-4.02-20.54-2.88-21.33.97-.67,2.05-.23,2.21,1.04l5.16,20.74c6.41,28.15,29.24,49.21,54.63,61.21,18.33,8.65,34.51,7.69,53.3.6l1.69.31c.98-.26,5-2.84,4.82-1.75-.32,2-18.58,6.88-20.93,7.52-16.68,4.53-30.01.03-44.84-7.52-.75,2.73-.73,4.49-1.92,7.12l-3.39,4.22v-.03Z"/>
    <path class="st10" d="M1065.69,265.99c-2.88-.27-6.26.57-8.98-.45,3.09,0,6.08.3,8.98.45Z"/>
    <path class="st19" d="M1046.82,254.36c-11.07,4.38-26.53,7.74-38.26,5.67-20.91-3.68-49.48-24.04-61.02-41.65-9.76-14.91-12.38-30.63-16.62-47.62-.77-.11-.48,1.07-.44,1.55.36,4.31.74,8.59,1.47,12.84,1.11,6.47,5.04,10.65-5.09,8.19-3.86-.94-6.91-3.29-9.41-6.28-.78-.93-1.51-2.85-2.04-3.37-.63-.62-1.39.14-1.78-.39-1.63-2.2-4.43-12.11-5.04-15.14-1.32-6.6-3.08-16.9.84-22.59,2.6-3.77,5.92-5.36,10.43-4.27,5.94,1.44,6.75,5.12,10.6,8.89-1.19-17.92,7.99-33.24,19.54-46.05,4.15-4.61,9.47-8.73,13.44-13.45,7.32-8.7,12.81-19.89,18.92-29.46,8.96,6.97,17.68,14.7,27.61,20.35,21.36,12.14,46.98,17.42,69.04,27.85,16.84,7.96,27.92,24.69,27.55,43.44l1.55-3.59c3.81-7.5,13.8-11.08,19.3-3.08,3.14,4.57,1.56,18.17.49,23.68-2.11,10.94-7.8,20.64-18.8,24.65-2.08.76-7.25,1.97-7.01-1.58.33-4.85,2.71-10.85,3.11-16.17.05-.6.38-2.77-.44-2.9-3.46,13.24-6.88,27.57-13.4,39.64-9.01,16.66-23.11,31.07-40.5,39.04-1.18.54-2.89,1.33-4.04,1.79h0Z"/>
    <path class="st1" d="M1057.06,111.21c8.22-.94,22.86,2.43,29.51,7.47,1.43,1.08,8.08,8.15,7.86,9.6-.12.77-.76.48-1.24.36-7.02-1.82-12.87-7.28-22.85-8.56-3.17-.4-7.05-.17-10.27-.51-1.23-.13-6.8-.75-7.42-1.11-1.11-.65-1.72-3.92-1.12-5.15.67-1.38,4.11-1.94,5.52-2.1h.01Z"/>
    <path class="st14" d="M943.51,128.83c-.31-1.68.62-2.8,1.43-4.16,5.67-9.5,15.39-13.09,26.21-12.85,2.37.05,6.72.2,8.93.5,1.08.15,7.28,2.6,7.45,3.33.59,2.57-8.01,2.69-9.59,2.96-7.85,1.3-18.81,2.93-26.09,5.78-1.07.42-8.02,4.79-8.34,4.44h0Z"/>
    <path class="st0" d="M983.93,211c.11-.09.2-3.2,1.34-2.23.17.14,1.62,3.02,2.26,3.79,6.28,7.52,24.96,10.72,34.37,10.09,6.2-.42,22.12-5.03,26.28-9.61,1.07-1.17.79-2.38.88-2.49.23-.25,5.14,2.01,4.04-3.13,3.84,4.87.1,4.54-2.67,6.07-1.74.96-4.18,3.54-6.36,4.85-16.03,9.64-40.11,9.85-55.17-1.8-.91-.7-2.56-2.81-3.2-3.1-1.33-.59-2.06.67-3.37-.18-1.2-.78-2.96-2.95-2.24-4.5,1.36-2.9,2.03,3.71,3.82,2.23h.02Z"/>
    <path class="st11" d="M1013.1,182.8c-.08.12-1.97.69-2.64,1.18-2.16,1.58-6.06,6.52-2.89,8.63,2.72,1.81,9.18,2.56,12.4,2.18,2.12-.24,12.44-3.94,12.91-3.46,1.18,1.19-1.95,3.25-2.73,3.76-5.96,3.9-15.17,4.66-21.53,1.38-4.36-2.25-5.95-5.27-4.25-10.05.44-1.24,3.97-6.33,5.03-6.64,2.06-.59,4.55,1.8,3.69,3.02h0Z"/>
    <path class="st7" d="M1117.8,156.91c1.8,1.78-6.31,5.63-6.95,7.16-1.52,3.6,2.46,12.76-3.83,12.95.16-1.26,1.25-1.98,1.31-3.39.12-2.75-1.9-5.82-.52-9.45,1.17-3.06,6.31-8.23,9.98-7.27h0Z"/>
    <path class="st28" d="M928.68,176.58c-.66.74-3.36-3.42-3.48-3.9-.75-2.9,1.15-7.21.11-9.5-.26-.57-7.12-6.68-6.5-7.16,1.96.14,4.32,1.23,5.8,2.49,4.92,4.16,2.71,8.06,3.18,13.37.14,1.6,1,3.06.89,4.7Z"/>
    <path class="st7" d="M1030.2,232.01c.39.45-.05,1.74-.75,2.16-3.22,1.96-11.28,2.2-15,1.66-1.3-.19-8.49-2.38-8.5-3.6-.02-1.82,5.75.88,6.55,1.07,4.32.99,9.86.18,14.27-.45.67-.1,3.31-.97,3.42-.84h.01Z"/>
  </g>
  <g>
    <path class="st21" d="M1079.62,168.94c-1.19,1.42-2.84,2.61-4.94,3.58-6.57,2.49-12.99,3.44-19.76.66-9.31-3.83-14.22-13.27-12.14-23.01,8.29-15,31.9-16.43,40.54-4.84,4.77,8.11,4.13,18-3.71,23.61h.01Z"/>
    <path class="st4" d="M1078.34,170.23c-.63.59,1.8-.47,2.21-1.26,8.87-7.3,5.67-18.86,3.42-21.95-11.93-16.37-39.53-6.55-41.67,5.71,0-1.68.49-4.1,2.14-6.18,8.94-9.43,14.05-10.26,18.99-10.73,23.45.81,29.21,22.97,16.19,33.13l-1.28,1.28Z"/>
    <path class="st26" d="M1074.68,172.52c1.14-1.41,3.69-2.42,4.94-3.58l.45.45h0"/>
    <path class="st23" d="M1075.13,165.81c-1.46,1.16-3.65,2.43-5.39,3.13-6.77,1.43-13.26.97-17.8-4.91-5.45-7.07-3.92-18.12,4.02-22.7,16.55-9.56,32.35,11.45,19.17,24.48Z"/>
    <path class="st5" d="M1075.13,165.81l3.37-5.81c3.94-8.1-2.45-19.03-11.28-20.07-22.72-2.66-23.52,27.15-5.34,29h7.86c-19.07,7.64-30.06-19.51-12.88-28.69,16.97-9.07,32.03,14.61,18.27,25.56h0Z"/>
    <path class="st15" d="M1067.94,147.48c-.67,3.23-.3,4.18,3.14,3.58,1.34-.25.89.69.9,1.54.1,6.48-4.6,10.86-10.95,8.23-7.23-3-5.13-12.4,2.29-13.69,2.1-.36,3.02.18,4.61.34h0Z"/>
    <path class="st17" d="M1071.09,151.06c-2.28,3.14-6.51-1.03-3.14-3.58.14,0,.75-.49,1.46-.37,1.88.33,2.84,2.36,1.68,3.94h0Z"/>
  </g>
  <g>
    <path class="st21" d="M954.43,167.91c-7.84-5.61-8.48-15.5-3.71-23.61,8.64-11.59,32.25-10.16,40.54,4.84,2.08,9.74-2.83,19.18-12.14,23.01-6.77,2.78-13.19,1.83-19.76-.66-2.1-.97-3.75-2.16-4.94-3.58h.01Z"/>
    <path class="st4" d="M954.42,167.91c-13.02-10.15-7.26-32.31,16.19-33.13,4.94.48,10.04,1.31,18.99,10.73,1.65,2.09,2.14,4.51,2.14,6.18-2.14-12.26-29.74-22.09-41.67-5.71-2.25,3.08-5.45,14.64,3.42,21.95.41.79,2.84,1.85,2.21,1.26l-1.28-1.28Z"/>
    <path class="st26" d="M953.97,168.36h0l.45-.45c1.25,1.16,3.8,2.17,4.94,3.58"/>
    <path class="st23" d="M978.08,140.3c7.94,4.58,9.47,15.63,4.02,22.7-4.54,5.88-11.03,6.34-17.8,4.91-1.74-.7-3.93-1.97-5.39-3.13-13.18-13.03,2.62-34.04,19.17-24.48Z"/>
    <path class="st5" d="M958.91,164.77c-13.76-10.95,1.3-34.63,18.27-25.56,17.18,9.18,6.19,36.33-12.88,28.69h7.86c18.18-1.85,17.38-31.66-5.34-29-8.83,1.04-15.22,11.97-11.28,20.07l3.37,5.81h0Z"/>
    <path class="st15" d="M966.11,146.45c1.59-.16,2.51-.7,4.61-.34,7.42,1.29,9.52,10.69,2.29,13.69-6.35,2.63-11.05-1.75-10.95-8.23.01-.85-.44-1.79.9-1.54,3.44.6,3.81-.35,3.14-3.58h0Z"/>
    <path class="st17" d="M962.95,150.02c-1.16-1.58-.2-3.61,1.68-3.94.71-.12,1.32.38,1.46.37,3.37,2.55-.86,6.72-3.14,3.58h0Z"/>
  </g>
</svg>