<?xml version="1.0" encoding="UTF-8"?>
<svg id="Ebene_1" xmlns="http://www.w3.org/2000/svg" version="1.1" viewBox="0 0 2034.72 1149.12">
  <!-- Generator: Adobe Illustrator 29.5.1, SVG Export Plug-In . SVG Version: 2.1.0 Build 141)  -->
  <defs>
    <style>
      .st0 {
        fill: #8a523b;
      }

      .st1 {
        fill: #0e0806;
      }

      .st2 {
        fill: #27201b;
      }

      .st3 {
        fill: #090605;
      }

      .st4 {
        fill: #524283;
      }

      .st5 {
        fill: #cccccb;
      }

      .st6 {
        fill: #848d79;
      }

      .st7 {
        fill: #110c0a;
      }

      .st8 {
        fill: #88513a;
      }

      .st9 {
        fill: #fafaf6;
      }

      .st10 {
        fill: #120f0d;
      }

      .st11 {
        fill: #282d63;
      }

      .st12 {
        fill: #130c07;
      }

      .st13 {
        fill: #fcfcfc;
      }

      .st14 {
        fill: #c9dce0;
      }

      .st15 {
        fill: #62493e;
      }

      .st16 {
        fill: #b8794d;
      }

      .st17 {
        fill: #080808;
      }

      .st18 {
        fill: #0d0805;
      }

      .st19 {
        fill: #d9d8d7;
      }

      .st20 {
        fill: #f1efee;
      }

      .st21 {
        fill: #080605;
      }

      .st22 {
        fill: #29221d;
      }

      .st23 {
        fill: #88513b;
      }

      .st24 {
        fill: #c9c9c9;
      }

      .st25 {
        fill: #fff;
      }

      .st26 {
        fill: #89523b;
      }

      .st27 {
        fill: #070604;
      }

      .st28 {
        fill: #684338;
      }

      .st29 {
        fill: #060504;
      }

      .st30 {
        fill: #050505;
      }

      .st31 {
        fill: #eeeeec;
      }

      .st32 {
        fill: #dddcdb;
      }

      .st33 {
        fill: #ae7044;
      }

      .st34 {
        fill: #60382a;
      }

      .st35 {
        fill: #bbbbba;
      }

      .st36 {
        fill: #fbfbfb;
      }

      .st37 {
        fill: #f9f9f9;
      }

      .st38 {
        fill: #834c38;
      }

      .st39 {
        fill: #de844f;
      }

      .st40 {
        fill: #cac8bb;
      }

      .st41 {
        fill: #7d532f;
      }

      .st42 {
        fill: #195113;
      }

      .st43 {
        fill: #fff9e5;
      }

      .st44 {
        fill: #3b2920;
      }

      .st45 {
        fill: #493e36;
      }

      .st46 {
        fill: #88503b;
      }

      .st47 {
        fill: #ddd;
      }

      .st48 {
        fill: #0e0805;
      }

      .st49 {
        fill: #385b77;
      }

      .st50 {
        fill: #fafaf9;
      }

      .st51 {
        fill: #272c63;
      }

      .st52 {
        fill: #b46f3c;
      }

      .st53 {
        fill: #312017;
      }

      .st54 {
        fill: #e5f8fd;
      }

      .st55 {
        fill: #f9f8f8;
      }

      .st56 {
        fill: #aea5c7;
      }

      .st57 {
        fill: #c6c6c6;
      }

      .st58 {
        fill: #cb050b;
      }

      .st59 {
        fill: #f9a66c;
      }

      .st60 {
        fill: #eeeceb;
      }

      .st61 {
        fill: #dcdbda;
      }

      .st62 {
        fill: #a46038;
      }

      .st63 {
        fill: #bebebe;
      }

      .st64 {
        fill: #60372a;
      }
    </style>
  </defs>
  <path class="st43" d="M1434.17-.04l3,.92v420.1l-3,1.2-1.44,1.92h-824.07l-1.88-1.92c-.83-.1-1.47-.2-1.47-.3-.25-138.9.09-283.28,1.47-421.92h827.39,0Z"/>
  <g>
    <path class="st30" d="M807.08,279.18c3.03,4.07,9.04,4.33,13.41,5.95,23.36,8.69,42.13,16.57,53.65,42.78,8.07,18.38,14.05,38.88,21.64,57.6.12.52.15,1.03.02,1.55-.39,1.58-7.77,6.16-9.62,6.61,1.88,10.48,4.09,21.03,5.73,31.65,4.18,27.09,6.09,54.6,10.01,81.71,3.67,25.39,14.25,57.19,2.17,81.59-3.32,6.7-7.05,9.25-12.43,13.05-2.37,1.67-3.86,3.46-6.89,3.73-1.02.09-2.22-.54-3.05-.35-1.17.27-2.61,2.35-4.57,2.7-3.88.7-5.98-.51-5.67-5.15.56-8.42,7.59-22.16,7.59-30.6v-11.32s-2.6,10.21-2.6,10.21c-1.58,4.62-9.11,17.71-14.41,13.6-3.41-2.65.89-12.73,1.7-16.34,2.09-9.26,1.1-16.55,2.47-25.36,1.84-11.84,9.73-20.04,4.9-32.79l-11-47.84,4.37,35.82c-.13,2.37-3.32,3.73-5.09,4.68-1.41.76-3.83.72-4.16,2.64-1.05,6.18.78,16.06.03,22.67-1.14,39.97-4.55,79.96-7.06,119.92-1.86,29.5-2.3,60.04-5.43,89.33-.16,1.52-.61,6.77-1.22,7.5-1.13,1.35-6.79,2.77-8.55,3.57.39,1.73-.45,7.74.11,8.74.15.27,4.35,1.59,5.37,2.19,5.15,3.02,5.56,7.98,8.9,11.36,1.08,1.1,2.84,1.56,4.07,2.44,1.75,1.9,1.93,3.12.54,3.67l-1.46.5c-5.48-3.85-12.13-3.53-17.64.08-4.26,4.35-18.11,13.26-9.54.19,4.89-5.94,11.64-8.68,18.51-9.24-8.38-14.83-23-3.68-30.08,6.63-5.71,4.01-16.92-3.4-18.68-10.31-2.11,6.06-3.81,12.71-2.62,19.24l-.77,1.48c.43,5.55-2.81,6.95-3.25.61-.26-8.39.2-15.28,3.15-23.06,1.8-4.75,5.79-8.35,4.46-13.9-.14-.6-9.21-2.51-9.21-5.61-3.43-64.13-8.47-128.11-13.03-192.11-.05-.83-.37-5.02-.53-5.21-.15-.18-3.88-.11-4.37.27-.91,4.34-.67,9.55-1.05,14.11-5.01,60.7-8.92,121.43-11.93,182.34-.74,4.18-8.69,3.66-9.19,6.75-.19,1.14-.17,4.91.11,5.99.43,1.65,4.32,7.52,5.4,10.42,2.64,7.12,4.64,19.9,2.16,27.14-6.04,17.63-32.46,31.23-48.08,33.77-15,2.44-36.84.45-39.72-20.11-.21-2.04-.24-4.09,0-6.12,1.74-10.31,10.52-18.99,18.13-24.49,2.37-1.71,7.37-3.87,8.91-5.22,1.15-1.01,2.4-5.64,4.1-7.61.87-1,4.15-3.66,5.3-4.42.93-.62,4.99-2.11,5.16-2.42.58-1.06-.24-6.38.13-8.09-.14-.58-9.19-2.52-9.23-5.58-4.25-63.16-9.36-126.38-11.93-189.68-.25-6.22-.94-12.72-1.1-18.95-.25-9.96.21-19.98.06-29.94-.15-.65-9.94-2.58-9.26-6.15l3.81-37.66c-.83-.15-.64,1.14-.8,1.84-3.39,14.96-7.28,30.38-10.2,45.39-.71,3.66-2.31,9.68-2.33,13.15-.02,4.54,3.38,10.12,4.68,14.56,3.29,11.28,1.97,22.54,4.47,34.12.91,4.19,6.27,16.43-1.5,15.81-3.9-.31-8.62-8.39-10.5-12.04l-3.32-12.47v13.16c.73,8.65,7.26,21.47,7.6,29.4.18,4.2-2.18,5.22-5.58,4.42-1.46-.35-3.59-2.52-4.44-2.64-2.45-.34-3.34.89-6.61-.79-2.2-1.13-3.29-3.4-4.76-4.41-5.24-3.61-6.85-3.35-10.47-10.2-12.12-22.95-3.63-50.27.26-74.12,4.74-29.06,6.59-59.19,11.09-88.44,1.69-10.99,3.87-21.94,5.8-32.77-2.54-1.42-10.47-5.26-10.01-8.67,6.88-17.34,12.3-35.57,19.35-52.82,11.02-26.98,24.32-37.61,49.32-46.45,4.19-1.48,18.18-4.06,20.19-6.55"/>
    <path class="st9" d="M720.91,287.18l.04.02c10.2,37.17,59.02,38.83,83.58,20.06,6.73-5.15,9.16-11.67,11.99-19.97,16.71,6.13,36.68,13.41,48.16,29.32,3.48,4.83,6.17,11.04,8.54,16.66,7.25,17.22,13.01,35.79,19.86,53.26-11.1,9.27-26.22,13.46-39.93,13.78-2.38-17.23-2.46-34.97-5-52.17-.3-2.01-.51-5.37-2.09-6.51.07,2.73-.12,5.51,0,8.25,1.78,39.08,7.43,80.92,11.98,119.86.95,8.16,3.49,19.34,3.73,27.05.03.93.11,1.7-.55,2.43-1.32,1.45-13.24,5.25-15.81,5.99-34.51,9.94-81.15,10.45-116.59,6.53-17.07-1.89-35.84-5.59-51.46-13.43l15.39-155.11c-.17-.89-1.79-1.31-2.11-.97-.24.25-.87,6.09-1.01,7.13-2.25,16.95-2.74,34.56-4.41,51.62-11.97-.53-29.84-4.93-39.51-13.2-.48-.41-1.07-.72-.88-1.53,7.15-17.59,12.65-36.55,19.88-54.03,8.33-20.14,16.56-28.01,34.38-37.02,6.97-3.53,14.28-6.49,21.82-8.02h0Z"/>
    <path class="st49" d="M685.75,504.98h0c14.43,4.36,29.21,7.56,44.13,9.17,23.88,2.58,50.21,2.5,74.17.61,16.49-1.3,33.2-4.45,49-9.78-.28,49.39-4.41,98.53-7.57,147.79-1.25,19.55-1.85,39.19-3.26,58.73-.76,10.51-1.58,21.23-3.04,31.58-13.39,5.44-30.87,6.87-44.72,2.82-1.83-.53-6.26-1.94-6.99-3.73l-14.03-195.88c-.02-1.05,12.03-.45,11.38-3.67-.36-1.79-7.24.23-8.91.32-5.16.29-11.09.14-16.29,0-1.2-.03-8.92-1.78-8.9.28.03,2.24,12.06,2.83,14.07,2.76-.25.72-.51,1.29-.56,2.11-2.85,45.1-7.11,90.12-9.72,135.27-1.14,19.84-1.47,39.78-3.35,59.54-16.09,6.84-35.2,7.16-51.08-.48-1.26-13.34-2.53-26.73-3.5-40.1-3.9-53.66-7.59-109.03-9.77-162.74-.47-11.52-.37-23.1-1.06-34.6h0Z"/>
    <path class="st52" d="M853.05,402.8h-.01c10.62-.25,20.96-3.3,30.86-7.35,2.77,13.29,5.03,26.7,6.95,40.19,3.53,24.82,5.19,50.34,8.91,74.99,3.63,24.02,15.72,61.71-1.67,82.3-.53.63-.54,1.73-1.73,1.4,3.1-6.9,5.48-15.82,5.95-23.56.05-.81.37-11.38-1.61-8.86-.83,11.09-1.71,23.52-7.36,32.99-2.08,3.47-5.39,7.83-9.43,7.39,4.5-8.2,8-17.22,9.59-26.79.32-1.95,1.44-9.96.98-11.12-.15-.36-1.16-1.41-1.36-1.24-.85,10.52-6.08,35.84-14.88,41.01-1.68.98-4.76,2.52-4.61-.87,4.24-15.36,9.24-29.49,7.51-45.89-.57-5.37-2.57-5.52-4.12-.51-1.78,5.75-1.82,11.28-4.59,16.84-1.74,3.48-10.29,14.87-8.97,4.55.45-3.45,2.35-7.67,3.08-11.21,2.22-10.83.51-20.34,3.97-31.62,3.76-12.27,5.86-10.41,3.28-24.83-4.23-23.65-11.87-47.51-16.16-71.08-2.2-12.1-2.67-24.58-4.58-36.73h0Z"/>
    <path class="st52" d="M641.88,594.34h.01c-13.16-13.67-11.56-38.77-8.5-57.03.9-5.4,2.52-10.83,3.46-16.28,4.77-27.6,6.59-56.3,10.55-84.16,1.97-13.89,4.2-27.76,7.21-41.4,9.41,4.59,19.81,7.55,30.06,7.94-.08,3.14-.28,6.35-.55,9.48-2.88,33.43-13.21,63.36-19.22,95.77-2.75,14.82-1.73,12.46,2.31,25.55,3.29,10.67,2.05,18.11,3.43,28.55.6,4.59,4.28,14.05,4.2,17.22-.09,3.96-2.54,2.18-4.27.6-8.63-7.89-5.95-17.77-10.16-25.85-2.93-5.63-3.84,6.44-3.93,8.67-.59,14.02,5.19,27.66,8.1,40.98-.35,1.76-3.17.43-4.12-.14-6.03-3.62-10.91-18.37-12.57-25.56-.9-3.87-1.35-11.03-2.32-13.9-.28-.84-.7-1.21-1.51-1.04-.07,13.38,3.84,27.49,10.82,38.25-1.73.96-3.76-.4-5.14-1.54-5.79-4.8-8.99-15.45-10.39-23.14-.81-4.47-.74-10.73-1.78-14.52-.18-.66-.17-1.88-1.09-.89-1.29,1.38-.18,10.63.15,12.98.93,6.72,3.07,13.16,5.25,19.45h0Z"/>
    <path class="st52" d="M802.69,269.99c1.13,9.12,3.55,12.03,10.05,15.9.57.35.97-.42.72.85-2.38,12.09-10.59,18.71-20.14,23.14-22.76,10.55-61.52,7.29-69.68-23.97,8.79-.46,11.74-5.88,11.92-15.3"/>
    <path class="st58" d="M708.89,268.25"/>
    <path class="st58" d="M707.75,265.7"/>
    <path class="st30" d="M807.49,282.08h-.02l-3.43-4.49c-1.2-2.81-1.18-4.68-1.94-7.59-15,8.04-28.49,12.84-45.37,8.01-2.37-.68-20.86-5.88-21.18-8.01-.18-1.17,3.89,1.58,4.88,1.86l1.71-.33c19.02,7.55,35.39,8.58,53.94-.64,25.7-12.77,48.8-35.21,55.29-65.19l5.22-22.09c.16-1.36,1.25-1.82,2.23-1.11,1.16.84-1.42,18.52-2.91,22.72-.83,2.73,5.36.94,6.58.46,4.89-1.94,7.9-5.05,10.33-9.81.52-.51,1.17-.51,1.8-.51,4.16-9.64,11.78-36.72.2-42.58-6.51-3.29-12.11,3.33-15.49,8.24-1.21.33-1.9.5-2.01-.99.99-24.34-14.74-43.85-30.98-59.27-8.53-10.01-14.94-22.08-20.8-33.87-14.21,14.01-30.83,25.53-49.38,32.44-13.48,4.99-26.9,10.15-40.26,15.47-20.16,7.13-35.16,25.43-35.04,48.17-.27,1.28-.92,1.06-1.96.6-2.84-11.94-19.18-16.05-20.77-1.09-1.48,13.84,2.19,33.54,13.93,41.75,2.65,1.86,13.3,7.64,11.28.16-1.32-5.38-2.32-10.8-3.01-16.26-.36-2.33,1.48-3.77,2.61-1.09,6.44,33.5,21.42,65.37,51.82,81.06l1.57,1.84c.38,1.09-.01,4.55-.45,6.16l-1.94,5.05c-4.83,3.57-1.75-.54-2.99-1.36l-2.64,2.2c-3.02.32-3.93,2.24-6.97,2.24-9.8.51-18.08.3-27.81-1.58-10.5-2.03-21.17-5.64-25.38-16.99-.78-.09-.49,1.64-.46,2.15.33,5.27,2.88,10.86,5.92,14.98-24.74-2.67-42.13-27.46-45.46-51.89l-1.38,6.88c-.1,6.94.09,13.86.92,20.73-5.27-6.08-9.47-14.79-11.68-22.75-9.99-35.89,7.78-94.94,22.06-128.5,18.89-44.37,62.59-117.09,117.74-105.06,2.86.63,10.45,4,12.12,4,1.19.01,7.62-3.39,9.78-4.07,34.18-10.73,72.6,21.24,91.28,48.65,24,35.23,47.44,89.13,55.77,131.56,4.33,22.08,5,58.65-11.22,75.87-.4.43-.4,1.03-1.28.79,1.91-7.05,1.28-14.4,1.36-21.65l-1.35-6.91c-2.39,20.1-15.53,44.4-34.76,50.96-1.42.49-6.09,1.89-7.29,1.89h-6.59c3.33-5.18,6.44-11.75,6.14-18.1-4.4,11.67-14.91,15.46-25.76,17.78-13.07,2.8-23.53,2.21-36.52-.89h0Z"/>
    <path class="st17" d="M730.45,283.76c-2.75,1.09-6.18.2-9.09.48,2.93-.16,5.97-.48,9.09-.48Z"/>
    <path class="st33" d="M740.45,271.86h-.01c-1.16-.48-2.89-1.32-4.09-1.9-17.6-8.49-31.88-23.84-40.99-41.58-6.6-12.86-10.06-28.12-13.56-42.22-.83.14-.49,2.45-.44,3.09.41,5.66,2.82,12.05,3.15,17.22.25,3.78-4.99,2.49-7.09,1.68-11.13-4.26-16.89-14.6-19.03-26.25-1.08-5.87-2.68-20.35.5-25.22,5.56-8.52,15.68-4.71,19.53,3.28l1.57,3.82c-.37-19.97,10.84-37.79,27.88-46.27,22.32-11.11,48.25-16.74,69.86-29.67,10.05-6.01,18.87-14.24,27.94-21.67,6.18,10.2,11.74,22.11,19.15,31.38,4.02,5.03,9.4,9.42,13.6,14.33,11.69,13.65,20.97,29.97,19.77,49.05,3.9-4.02,4.72-7.94,10.73-9.47,4.57-1.16,7.93.53,10.56,4.55,3.97,6.06,2.18,17.03.85,24.06-.61,3.22-3.45,13.77-5.1,16.12-.4.57-1.16-.24-1.8.42-.54.56-1.28,2.6-2.07,3.59-2.53,3.18-5.62,5.69-9.52,6.69-10.25,2.62-6.28-1.84-5.15-8.73.74-4.54,1.13-9.09,1.49-13.68.05-.52.34-1.77-.44-1.65-4.29,18.08-6.94,34.83-16.82,50.71-11.67,18.75-40.59,40.44-61.75,44.36-11.87,2.2-27.52-1.37-38.72-6.04h0Z"/>
    <path class="st50" d="M795.91,163.31h0c-1.15-2.65.76-7.48,2.25-10.12,16.01-28.34,59.16,1,37.3,26.78-7.42,10.07-24.07,11.31-33.19,3.1-5.8-5.22-6.89-12.07-6.36-19.77h0Z"/>
    <path class="st37" d="M700.25,154.7c10.56-18.9,39.21-14.7,41.56,7.66,2.11,10.38-2.86,20.43-12.28,24.51-6.84,2.96-13.34,1.95-19.99-.71-2.13-1.03-3.79-2.3-5-3.81-7.93-5.98-9.12-19.01-4.29-27.65Z"/>
    <path class="st3" d="M730.09,117.27h0c1.44.17,4.91.76,5.59,2.23.6,1.3-.02,4.79-1.14,5.48-.63.38-6.26,1.05-7.51,1.18-3.27.35-7.2.11-10.4.54-9.02,1.21-14.91,6.88-23.12,9.12-.49.13-1.13.44-1.25-.38-.22-1.55,6.51-9.08,7.96-10.23,6.73-5.36,21.56-8.95,29.87-7.95h0Z"/>
    <path class="st27" d="M845.01,132.83h0c-.32.38-7.36-4.28-8.44-4.73-7.37-3.03-18.45-4.77-26.4-6.15-1.61-.28-10.31-.42-9.71-3.15.17-.77,6.44-3.38,7.54-3.54,2.23-.33,6.64-.48,9.03-.54,10.95-.26,20.78,3.56,26.52,13.68.82,1.44,1.77,2.64,1.45,4.43h0Z"/>
    <path class="st1" d="M795.93,233.73c1.47.61,2.02-2.08,3.13-.9.59.63-.85,1.51-1.83,1.83-1.07.34-1.67-.17-2.76.07-.52.12-1.87.97-2.62,1.26-12.32,4.73-32.03,4.65-45.15.73-1.78-.53-3.78-1.58-5.2-1.97-2.26-.63-5.32-.49-2.18-2.47-.9,2.09,3.12,1.17,3.31,1.27.08.04-.15.53.72,1.01,3.41,1.85,16.43,3.73,21.51,3.9,7.7.26,22.99-1.04,28.13-4.1.52-.31,1.71-1.48,1.85-1.54.93-.39,1.01.87,1.1.91h-.01Z"/>
    <path class="st7" d="M835.45,179.97h-.01c12.38-16.82-.21-38.96-20.22-37.13-10,.92-18.61,9.99-19.33,20.47l-.9,5.23c-2.99-19.06,14.33-34.23,31.81-26.89,14.25,5.98,21.65,25.04,10.01,37.6-.2.22-1.17,1.67-1.36.72h0Z"/>
    <path class="st10" d="M717.95,140.94c10.91-1.03,20.95,5.78,23.72,17.03.31,1.25,1.17,3.3.13,4.38-4.01-19.78-27.18-25.4-39.28-9.48-6.29,8.28-5.48,22.2,2.01,29.48.42.84.19,1.11-.45.48-15.84-14.08-5.72-40.04,13.87-41.89Z"/>
    <path class="st18" d="M774.57,195.64h0c-.88-1.29,1.64-3.84,3.73-3.21,1.07.32,4.64,5.75,5.09,7.07,1.72,5.09.11,8.32-4.3,10.71-6.44,3.49-15.75,2.69-21.79-1.47-.78-.55-3.95-2.75-2.76-4.01.48-.5,10.92,3.43,13.07,3.69,3.26.39,9.8-.4,12.55-2.33,3.21-2.25-.73-7.5-2.92-9.19-.68-.52-2.59-1.14-2.67-1.26h0Z"/>
    <path class="st12" d="M668.63,168.07h0c3.71-1.02,8.92,4.49,10.1,7.75,1.41,3.87-.64,7.14-.52,10.07.06,1.5,1.17,2.27,1.33,3.61-6.36-.2-2.34-9.97-3.87-13.8-.65-1.63-8.86-5.73-7.04-7.63h0Z"/>
    <path class="st48" d="M860.01,189.01c-.11-1.74.76-3.3.9-5,.48-5.66-1.76-9.8,3.22-14.24,1.5-1.34,3.88-2.5,5.87-2.65.63.5-6.32,7.01-6.58,7.62-1.05,2.43.87,7.02.11,10.11-.13.52-2.86,4.95-3.53,4.16h.01Z"/>
    <path class="st12" d="M760.05,247.55h0c.09-.1,2.08.52,2.59.59,3.34.45,7.54,1.02,10.81.32.61-.13,4.97-2.05,4.96-.76,0,.86-5.46,2.42-6.44,2.55-2.82.38-8.92.21-11.36-1.18-.52-.3-.85-1.21-.56-1.53h0Z"/>
    <path class="st45" d="M704.53,182.35c1.27,1.24,3.85,2.3,5,3.81-2.99-1.19-2.83-1-5.45-3.33l.45-.48Z"/>
    <path class="st41" d="M816.41,188.37h-.01c-9.64.82-17.96-3.03-19.21-13.99-2.49-21.83,28.59-25.69,31.42-4.52,1.24,9.34-4.45,15.36-10.84,18.04-.4.12-.64.34-1.36.47h0Z"/>
    <path class="st22" d="M816.43,188.28h0c-25.91,4.66-26.5-35.39-1.12-32.95,16.28,1.57,19.69,27.51,2.48,32.48l-.29-.52c19.6-7.34,10.59-37.18-10.27-29.92-14.04,4.89-12.29,27.7,1.9,30.24,2.49.45,5.02-.29,7.3.68h0Z"/>
    <path class="st41" d="M705.68,184.66c-13.34-13.89,2.65-36.26,19.4-26.08,8.04,4.88,9.59,16.65,4.07,24.18-4.59,6.26-11.16,6.75-18.01,5.23-1.75-.74-3.97-2.09-5.45-3.33h-.01Z"/>
    <path class="st2" d="M705.72,185.01h0c-13.93-11.67,1.32-36.89,18.49-27.23,17.38,9.77,6.26,38.69-13.04,30.55h7.95c18.4-1.97,17.59-33.72-5.4-30.89-8.93,1.11-15.39,12.75-11.41,21.38l3.41,6.19h0Z"/>
    <path class="st21" d="M805.03,168.93h0c5.57-.47,11.44,1.08,11.97,8.19.97,12.97-19.55,13.43-17.67-1.71.16-1.33.8-1.84,1-2.56l1.1-.43c2.46,2.23,4.55.75,2.98-2.42l.62-1.07h0Z"/>
    <path class="st20" d="M800.45,171.33c.97-2.82,2.84-1.7,5.09-1.89,3.24,5.3-1.23,8.81-5.36,4.42.17-.61-.05-1.6.27-2.53Z"/>
    <path class="st29" d="M709.11,168.58h0c1.83-.22,2.9-.97,5.31-.47,8.55,1.78,10.97,14.75,2.64,18.88-7.31,3.62-12.72-2.42-12.61-11.35.01-1.18-.52-2.48,1.03-2.13,3.96.83,4.39-.48,3.62-4.93h0Z"/>
    <path class="st31" d="M705.8,174.38h0c-1.46-2.06-.26-4.69,2.13-5.12.9-.16,1.67.5,1.85.48,4.26,3.31-1.09,8.73-3.98,4.65h0Z"/>
  </g>
  <path class="st13" d="M531.07-.04l5.5,457.21,77.69-23.87,816.47,1.08,61.67,10.27-.14-440.38c-.28-7.14,540.32.41,543.02-2.02-.97,0,1.84,1147.29-.96,1144.01,1.57,5.6-2032.12-.04-2033.01,1.9C-3.05,1147.56,1.87,3.86.07,2.27,1.26,2.49,531.07-.04,531.07-.04Z"/>
  <path class="st42" d="M2034.16,644.01c.84,163.3.84,336.77,0,500.93l-.93,4.62H1.14l-1.22-4.62v-500.93h2034.24Z"/>
  <path class="st40" d="M2034.16,1148.6c.27-.84.59-.83.96,0v.96H-.08v-.96h2034.24Z"/>
  <polygon class="st6" points="2035.12 1148.6 2034.16 1148.6 2034.16 1124.61 2034.16 1100.62 2034.16 1045.92 2034.16 837.69 2035.12 837.69 2035.12 1148.6"/>
  <g>
    <path class="st61" d="M1468.01-.04l.76.88.19,66.64c7.44-1.93,14.89-4.18,22.37-6.76l.19-59.61.76-1.14h17.82v484.13c.15,1.96-2.66,4.12-3.16,4.07-3.67-.31-11.44-7.91-15.43-10.32-.2-1.9.02-2.59.72-2.95-1.15-4.13-1.85-5.14-3.91-5.18-6.53-5.84-13.21-10.99-20.04-13.88-2.53,1.47-3.55.54-5.53-2.95-3.08,2.45-4.72.13-4.93-6.98-1.81-2.44-3.83-4.18-6.05-5.23l-.34-2.27c.46-4.35.45-8.16.28-12.38l1.3-1.28c1.92.43,6.79,2.63,8.6,3.97.45.34.79,1.23,1.1,2.11l-.76-.66v-83.11l.76-1.16c-2.33,1.01-12.84-1.61-13.23-3-.17-.62-.11-1.51-.04-2.28-.07-1.57.47-2.32,1.6-2.24-.32-3.94-.22-7.03.3-9.28,2.75-1.78,6.93-.52,9.9.8.57.25,1.04,1.18,1.48,2.08l-.76-.66v-115.24l.76-1.17c-2.2,2.37-15.47,3.28-16.18,1.31-.21-.58-.19-1.48-.13-2.27l.33-1.92,4.15-.11c-.46-4.43-.32-7.59.45-9.49l1.2-1.87c2.02-.55,6.93-.91,8.92-.56.47.08.88.77,1.26,1.47l-.76-.66v-115.24l.76-1.17c-3.29,3.36-7.94,4.91-11.38,2.88l-.51-1.44c.17-3.38.27-7.25-.62-10.07l.92-2.28c3.57-1.94,7.18-3.09,10.84-3.68V1.11l.76-1.15h5.31-.03Z"/>
    <path class="st47" d="M606.54-.04v422.22h821.65V-.04h2.28l.52,6.75c.07,133.92.08,268.46.02,403.64l-.29,24.04c1.04.06,2.28,4.46,1.9,6.62,3.69,1.54,7.37,4.07,10.98,6.67.37.26.71.79,1.05,1.34s.68,1.24.99,1.95l-2.83,1.01-850.14.02-2.06-1.98c-.39-2.45-.04-2.64.76-.96l.52-1.63c4.54-2.54,8.92-5.6,13.16-9.19l.36-437.08.76-1.2h.38-.01Z"/>
    <path class="st57" d="M1441.09-.04l.76.64.37,75.46c1.03-1.2,1.79-.98,2.28.67.83-3.33,4.57-3.6,5.69-.96.29.1.99-.29,1.11.05.22.62.7,10.05.03,11.46-1.74,3.48-5.18,4.1-7.21,1.92l.76.66v109.97l-.76,1.16c2.16-.47,4.4-.63,6.73-.47l.48,1.91.38,11.52h-5.31c-.26,1.1-.77,1.97-1.53,2.62v108.85l6.07,1.66.39,2.02c.48,1.61.55,11.12.38,11.52-.13.31-1.81-.22-2.28,0-1.02,1.57-2.3,2.12-3.82,1.63l-.75,78.79c2.12,1.36,4.28,2.32,6.5,2.88l.35,2.11c2.07,3.66.05,11.48.56,13.46.18.71,5.19,1.21,6.19,5.44.31,1.3.65,6.54.87,6.93.33.6,2.54-1.2,3.54-.85,1.29.46,1.77,3.29,2.38,3.65.69.4,2.2-1.25,3.63-.59,6.4,2.97,13.14,7.83,19.3,13.53.92.85,2.03.32,2.88,1.34.8.95.88,3.49,1.97,4.61s5.57,2.06,6.08,3.34c.36.91.09,2.01-.56,1.91-2.53-.39-4.78-4.66-7.02-.96-15.26-9.24-30.66-17.35-45.89-26.87-4.46-2.79-8.9-6.13-13.41-8.58-.38-4.07-.75-5.31-2.15-7.45.88-106.66.05-213.63-.01-320.26-.02-38.29.54-76.43.4-114.72h10.62Z"/>
    <path class="st24" d="M542.45-.04l.76.88.05,59.73c2.22,1.09,4.6,1.87,7.14,2.35l1.15,2.29c2.66.66,2.88,13.72,0,12.47l-1.54,1.59c-2.31-.69-4.57-.68-6.8.03v120.98l-.76,1.18c3.08.63,6.17.77,9.28.44,2.23-1.25,2.15,10.15,1.07,12.18-2.7.04-5.39.31-8.07.82-.31,1.25-.81,2.11-1.52,2.57v120.56c2,.01,4-.28,6.01-.87l1.58,1.52c.76-.45,2.4-1.29,2.94-.08.19.42.48,11.91-.66,11.6-2.83,4-7.54,6.24-10.62,3.84l.76.67v90.28l-.76,1.17c2.67-3.75,6.5-5.34,9.48-3.84,1.16-.35,1.67,1.49,1.55,5.53-.43,5.58-.03,7.6,1.21,6.07,2.96-3.27,4.82-2.13,5.59,3.42,9.74-4.87,19.42-10.16,29.04-15.88,2-1.02,4.05,4.56,2.05,7.58-.34.21-.61.87-.76.96-1.75,1.08-3.56,1.79-5.31,2.88l-1.14.96c-17.15,10.6-34.37,20.68-51.58,30.71-1.41,1.14-2.17.65-2.28-1.48V1.15l.77-1.2h11.38-.01Z"/>
    <path class="st19" d="M572.03-.04l.76.88v68.58l.76,2.51c1.75.74,1.63,11.93,0,12.47l-.76,2.59-.02,112.71c.4.71.78,1.62,1.16,2.73,1.18,1.04.81,10.71-.38,11.52l-.76,2.58-.02,113.16-.36,2.3c2.53-1.08,3.25,8.92,1.9,12.47.02,1.77-.47,2.43-1.49,1.98-.06,29.46-.08,57.9-.03,85.35,1.69-.85,2.34,2.68,1.94,10.57,2.1.22,4.26-.8,6.36-1.84,6.04-3.64,11.99-7.01,17.86-10.1V1.16l.76-1.2h6.45l-.38,438.07c0,1.3-.24,1.65-.63,2.24-.58.87-4.5,3.55-5.52,4.26-2.71,1.89-5.54,2.83-8.26,4.53.74-9.91-4.04-4.17-5.99-3.16-8.03,4.2-16.24,9.69-24.09,12.15-.37.12-.77,1.63-1.17,1.5-.85-.3-.94-5.09-1.61-5.62-.73-.57-4.48,3.52-5.83,1.85-.34-.85.67-11.69-.76-13.44l1.15-2.57c2.18-1.71,11.9-7.78,13.3-6.23.26.29.49.69.73,1.13l-.76-.67v-85.49l.76-1.17-1.04,1.8c-4.22,1.08-8.4,2.06-12.55,2.93l-.45-1.85v-11.52h-2.28c-.13-.68-.25-1.52-.09-2.09.51-1.83,14.09-4.35,16.4-2.7l-.76-.66v-117.16l.76-1.17-1.31,1.35c-6.08,1-12.3.71-18.43.4-.44-.02-.88-.28-1.32-.57s-.89-.72-1.32-1.18c1.39-2.72,6.55.46,7.53-1.09.57-.91.57-9.14.09-10.82-.57-2.03-8.52,1.09-9.9-1.52.4-.47.79-.91,1.2-1.22s.8-.58,1.2-.61c7.45-.58,15.13-.55,22.25,1.35l-.76-.66v-116.68l.76-1.17c-4.92,1.84-10.44.43-15.12-2.64l-.43-2.16c1.86-.52,1.43-11,0-12.47.43-.37.87-.7,1.32-.9s.88-.38,1.29-.27c3.94,1.07,7.89,2.18,11.8,3.81V1.12l.76-1.16h5.33Z"/>
    <path class="st47" d="M599.71-.04v430.38c-.07,1.97-.73,2.74-1.43,3.11-7.04,1.3-15.44,9.73-22.27,10.84-.7.11-1.41-.1-2.1-.03-.08-2.55.27-10.91-.44-12.35-.21-.43-.55,0-.7-.13l.18-2.06c6.23-3.27,12.37-6.58,18.4-9.94-.3-.08-.75-.36-.76-.89-.24-24.62-.24-51.05,0-75.69l.76-1.15c-1.07-.44-2.2-.47-3.39-.07l-13.12,4.23-.56-1.76c-.08-2.82-.18-7.94-.63-10.35-.28-1.53-.9-1.14-1.26-2.13l.27-2,17.52-4.57c.65-1.04.85-28.16.88-32.68.19-25.65.02-52.65-.45-77.29-5.01.55-10.31.9-15.36.23-.63-.08-1.2-.93-1.73-1.72l.38-11.52,1.33-1.74c5.01-.17,9.99-.8,14.94-1.91l.41-107.26-15.6-4.99-1.46-2.13c.45-3.93.71-8.64,0-12.47.98-.57,1.98-1.15,2.99-.93l13.7,3.58V1.12l.76-1.16h8.74Z"/>
    <path class="st5" d="M528.41-.04l.52,26.76c.21,151.53.33,303.07.38,454.61.85,1.44,1.06,3.15.62,5.15-1.86.84-2.98,1.23-4.91-.05-.21-10.98.38-22.18-.41-33.02l.02-453.45h3.79-.01Z"/>
    <polygon class="st54" points="1492.28 -.04 1492.12 62.39 1468.21 70.03 1468.01 -.04 1492.28 -.04"/>
    <path class="st54" d="M566.72-.04v70.05c-5.03-2.03-10.12-3.27-15.17-4.79-2.7-.81-5.42-1.89-8.16-1.91l-.89-1.58-.05-61.76h24.27,0Z"/>
    <path class="st54" d="M590.99-.04v76.77c-5.81-1.43-11.67-2.73-17.45-4.8-.48-.17-1.03.13-1.52,0V-.04h18.97Z"/>
    <path class="st54" d="M1462.7-.04v71.97c-2.05,0-4.17.43-6.21,1.08s-4.23,2.09-6.3,2.76c-1.75.56-3.92.38-5.69.96l-.76-.89V1.12l.76-1.16s18.2,0,18.2,0Z"/>
    <path class="st32" d="M531.07-.04v484.04l1.52.56c-.66,1.24-1.83,1.54-2.65,1.92l-1.34-4.77c-.43-160.49-.06-321.19-.18-481.75h2.65Z"/>
    <path class="st14" d="M1444.5-.04v76.77c-.87.28-2.14,1.35-3.03,1.92l-.38-78.69s3.41,0,3.41,0Z"/>
    <path class="st47" d="M585.3,452.89c-.19.12-.64.65-1.14.96l1.14-.96Z"/>
    <polygon class="st54" points="1492.28 76.73 1492.28 201.48 1468.01 201.48 1468.01 82.49 1492.28 76.73"/>
    <polygon class="st54" points="1492.28 214.91 1492.28 340.62 1468.01 333.9 1468.01 214.91 1492.28 214.91"/>
    <polygon class="st54" points="1492.28 354.05 1492.28 446.17 1468.01 434.66 1468.01 347.33 1492.28 354.05"/>
    <path class="st54" d="M1451.33,87.28c3.78-1.1,7.57-2.51,11.38-2.88v117.07c-3.63,1.58-7.65,1.1-11.38.96-1.07-.04-7.21.86-7.21-1.44v-111.79c2.38-.96,4.81-1.22,7.21-1.92Z"/>
    <path class="st54" d="M1446.39,213.95c.13.03.58.97,1.28,1.03,4.99.4,10.03-.44,15.02-.07v117.07c-3.82-.25-7.6-1.79-11.38-2.88-1.01-.29-7.14-1.21-7.23-2.48l.02-110.28c.08-2.91,1.33-2.61,2.28-2.4h0Z"/>
    <path class="st54" d="M1449.43,340.62c.07.02.43.87.92,1,3.8,1.04,7.6,2.05,11.41,2.83.31-.03.95.91.95,1.44v84.92c-3.69-.42-7.37-2.99-11-4.8-1.95-.97-5.27-1.48-6.94-3.06-.46-.44-.63-.95-.64-2.21l.76-81.1c1.5.53,3.05.58,4.55.97h-.01Z"/>
    <rect class="st63" x="1466.87" y="82.49" width=".76" height="118.99"/>
    <rect class="st63" x="1466.87" y="214.91" width=".76" height="118.99"/>
    <path class="st54" d="M551.55,77.69c.78.2,2.18,1.62,3.23,1.91,4.09,1.12,8.22,1.89,12.32,2.89v118.51c0,3.25-5.7.51-6.62.44-6-.43-12.03.4-18.03.04v-124.75c2.97.1,6.15.23,9.1.96h0Z"/>
    <path class="st54" d="M544.72,214.91c7.43-.66,14.94.49,22.38,0v118.99c-5.11,1.69-10.27,2.39-15.39,3.8-.5.14-.84.98-.92,1-2.75.79-5.59,1.05-8.34,1.92v-125.72c.75-.05,1.52.07,2.28,0h-.01Z"/>
    <path class="st54" d="M553.07,350.21c.77-.24,1.65.22,2.46,0,3.86-1.07,7.66-3.6,11.57-2.87v87.32c-5.17.97-10.15,5.12-15.17,7.68-3.1,1.58-6.33,2.94-9.48,3.84v-92.12c3.55-.79,7.1-2.74,10.62-3.84h0Z"/>
    <path class="st54" d="M573.54,213.95c5.67-.87,11.7.56,17.41.11.17,2.02.38,4.01.43,6.1.77,28.28.73,71.54,0,99.87-.06,2.42-.38,4.7-.41,7.12l-18.57,4.84c-.27-.73-.48-1.01-.4-2.3l.02-115.74c.5-.06,1.02.08,1.52,0h0Z"/>
    <path class="st54" d="M573.54,84.4c5.78.57,12.03,4.13,17.83,5.34l-.43,111.62c-5.66-.81-11.37,2.14-17.03,1.06-1.09-.21-1.95.59-1.92-3.31l.02-114.72c.5.02,1.02-.04,1.52,0h0Z"/>
    <path class="st54" d="M574.3,344.46c2.2-.64,15.88-5.76,16.62-4.64.04.06.44,2.12.44,2.24v77.73c0,.61-.5,2.59-.91,2.56l-17.67,9.43c-.23-.22-.81.56-.77-.57v-83.44c-.06-4.39,1.15-2.98,2.28-3.31h0Z"/>
    <rect class="st35" x="593.64" y="90.16" width=".76" height="111.31"/>
  </g>
  <g>
    <path class="st16" d="M292.77,707.54c.15-.67-.34-.57-.74-.77-1.47-.77-3.06-1.39-4.49-2.2-7.8-4.43-14.75-11.67-7.45-20.25-11.29-15.66-12.61-36.37-3.31-53.3-4.74-2.46-9.34-6.02-10.92-11.28-3.75-12.53,6.91-24.09,19.47-24.9,9.2-.59,15.72,2.31,19.06,11,21.77-11.04,49.39-10.97,71.18,0,.74-1.34,1.17-2.78,1.98-4.1,5.52-9.01,19.86-8.47,27.94-3.27,13.03,8.38,12.33,26.74-2.61,32.39,9.55,16.65,8.3,37.74-3.03,53.23-.09.47,1.42,2.18,1.77,2.83,3.92,7.29-2.05,13.31-8.01,16.89l-6.42,3.46-.23.59-5.1,1.61c-.36.33-.97.52-1.83.55-8.06,2.77-16.92,3.98-25.53,4.91-.97-.13-.87-.63-.1-1.07.09-.24.19-.24.28,0l.28-.27.55-.91c16.3-7.99,8.19-35.1-3.17-43.63-1.36-.68-2.45-1.5-3.27-2.46.24-.12.49-.24.74-.31,2-.59,8.95,1.23,11.36,1.89,4.83,1.32,9.43,3.14,13.76,5.33,4.52,1.82,4.7-3.45.47-4.31l-5.14-2.26-.19-.61.53-.75c10.54-3.59,11.83-18.75,1.49-23.46-12.69-5.78-24.29,9.15-15.48,19.51v.85s-1.7.21-1.7.21c-10.18-2.03-20.56-1.19-30.76.02l-.87-.23v-.83c6.06-6.9,2.12-19.35-7.41-20.56-16.33-2.06-21.25,18.76-6.55,24.47l.51.76.06.36c-2.45,1.12-4.93,2.27-7.44,3.46-2.18,1.54-.63,4.85,1.98,3.6,7.57-3.72,16.24-6.53,24.79-7.16l.79.29c-.75.97-1.78,1.81-3.08,2.51-11.19,9.17-18.79,36.35-1.71,43.89l.59.88c-.26.79-1.98.66-2.79.56-7.73-.92-18.28-2.46-25.45-5.28-.57-.22-1.03-.63-1.46-1.05-.66.67-2.61-.32-3.36-.82h0Z"/>
    <path class="st16" d="M383.84,715.24c.15-.1.3-.19.46-.24,2.05-.72,9.51,6.38,10.37,8.41,4.05,9.53,7.88,19.27,11.63,28.92,3.59,9.23,7.12,18.46,9.84,27.97.13.44.16.92.2,1.39.04.48.03.96,0,1.44,2.4,8.85,4.83,21.14,5.32,30.38.15,2.89-.45,6.83.28,9.48-.39,9.01-2.74,18.22-8.19,25.64-9.89,13.48-28.71,18.04-44.21,19.99-19.17,2.14-39.33,3.82-58.56,1.1-.25.11-.49.2-.75.26-2.09.48-10.85-1.94-13.48-2.71-20.33-5.95-36.09-19.52-38.44-40.99.42-1.28-.01-1.53-.01-2.6-.01-13.3,1.71-24.82,5.06-37.53l.03-1.56c5.7-22.66,14.83-45.52,23.95-66.35.1-1.08,4.95-3.29,5.42-3.15.25.07.45.18.58.42-.05.95-.13,1.91-.42,2.82-4.51,14.16-8.6,27.26-10.99,42.01-3.41,20.98-5.24,49.55,4.79,68.81,16.54,31.76,67.59,39.34,94.09,15.64,35.26-31.53,16.13-90.38,2.97-128.02-.09-.52-.07-1.03.07-1.54h0Z"/>
    <path class="st16" d="M431.19,968.68c-.03-.31-.31-.03-.84.82-5.82,4.4-21.41-1.15-25.77-6.47-5.71-6.96-5.4-21.69-7.38-30.7-3.51-15.96-10.18-37.99-18.69-51.9l.95-.93c21.76-8.17,42.93-26.06,44.14-50.32l.59-1.25c13.14,31.01,17.13,65.39,17.94,98.81.14,5.85-.62,13,.07,18.63.81,6.66,8.83,11.4,8.91,17.67.04,2.64-2.12,4.74-4.72,5.02-.82.09-1.73-.26-2.11-.17s-.77.76-1.22,1.01c-4,2.25-7.78.84-11.86-.23h0Z"/>
    <path class="st16" d="M302.3,881.82c-8.09,13.93-15.77,39.08-18.64,54.97-2.79,15.49.21,27.94-18.69,33.07-3.91,1.06-10.75,2.34-13.94-.62-.27-.91-.46-1.09-.56-.55-3.58.98-7.53,2.35-11.12.6-.57-.28-1.69-1.32-1.97-1.38-1.01-.22-1.91.47-3.8-.38-4.24-1.91-2.85-6.57-1.09-9.74,3.39-6.12,6.88-6.94,7.35-15.06.41-7.26-.22-14.96-.02-22.29.81-30.65,5.53-62.35,17.1-90.84l.77,1.34c4.05,22.76,21.83,41.71,43.51,49.91l1.11.97h0Z"/>
    <path class="st16" d="M482.75,823.27l-.53-.16c-.75,2.17-2.31,3.75-4.57,4.41-2.01.59-5.84,1.13-3.03-1.37,1.8-2.48,1.71-4.73,1.13-7.55l.42,3.03c.09.55-.05.87-.42.96.64.06.01,1.52-.23,2.05-1.03,2.19-2.48,3.63-5.09,3.31-.71-.21-2.2-1.06-2.79-1.53-.63-.5-.74-1.44-1.7-1.5-.42-.32-.82,1.14-.28.82-2.9,5.8-7.31-.03-8.93-3.48-1.59-3.39-2.21-6.84-4.19-10.18-4.67-7.85-15.23-14.36-22.74-19.61-3.84-12.09-8.13-24.61-13.09-36.59-2.97-7.16-6.16-14.24-9.67-21.11-4.48-8.76-9.39-16.09-14.89-24.18-.46-.68-.75-1.46-1.01-2.23,18.88,6.36,38.54,18.26,52.83,31.88,17.54,16.71,37.61,47.1,39.92,71.34.39,4.11.7,7.89-1.12,11.68h0Z"/>
    <path class="st16" d="M292.21,708.64c-.07.67-.26,1.3-.56,1.91-17.63,24.49-28.96,53.72-37.55,81.93-7.87,5.44-18.85,12.16-23.4,20.61-2.22,4.12-3.54,12.57-8.07,14.62-2.46,1.11-3.32.04-4.39-1.97-.21-.09-.7-3.62-.61-3.46.17.3.25,1.98.05,2.36-1.11,1.32-2.47,2.8-4.2,3.3-1.97.23-3.08-.22-4.25-1.8-.58-.78-1.76-2.66-1.07-3.29-.84-.57-.38-3.11,0-4.12-.95,2.56-.46,6.49,2.16,8.55.61,1.3-2.72.63-3.55.43-2.35-.56-4.45-2.34-5.16-4.62l-.46.45c-4.43-8.96,2.07-28.64,6.2-37.48,10.59-22.66,27.22-43.72,47.79-58.4,11.39-8.13,24.01-13.96,37.08-19.02Z"/>
    <path class="st62" d="M387.2,707.26c1.19,0,2.78.72,3.92,1.1,8.62,11.08,15.26,23.14,21.06,35.82,6.92,15.13,13.05,31.08,17.58,47.08.09.32.48,1.03.02,1.21-4.47-3.12-9.15-5.99-13.45-9.35-5.45-20.13-14.64-39.89-22.17-59.48-2.53-3.48-6.03-7.17-10.33-8.42-.26.07-.35-.02-.28-.27-.74-.06-2.19-4.7-2.1-4.96.08-.23.2-.41.42-.54.03-.02-.14-.39.34-.63.65-.33,4.34-1.56,4.98-1.57h0Z"/>
    <path class="st62" d="M421.95,822.99c.02.09-.03.2,0,.27l.28.27c.62,1.47,1.33,2.92,1.96,4.4-.17,25.15-23.2,44.62-45.67,52.5-2.58-4.22-5.52-8.23-8.97-11.82-.24-.86.89-.49,1.74-.62,27.68-4.55,47.76-13.31,50.1-44.05.04-.53-.31-1.11.56-.95h0Z"/>
    <path class="st62" d="M310.99,869.72c-3.01,3.94-6.19,7.8-8.69,12.09-13.52-4.53-26.19-14.33-34.41-25.75-5.65-7.85-9.65-16.89-10.98-26.48.4-.98,1.11-2.42,1.4-3.3.52.28.47.76.55,1.24,4.79,26.94,26.39,38.54,52.13,42.19Z"/>
    <path class="st62" d="M296.13,708.36l.42.48c-.74,2.1-1.48,4.2-2.22,6.3l-.72.36c-.05.25-.15.24-.28,0-1.2.25-4.43,1.56-5.17,2.48-1.01,1.26-2.85,6.41-3.64,8.24-8.21,19.08-15.89,39.9-21.16,59.92-3.01,2.19-6.18,4.2-9.25,6.32-.38-1.05.38-2.75.7-3.85,5.18-17.5,12.3-35.65,20.35-52.05,5.01-10.2,11.05-18.47,17.05-27.94.18-.29.39-.94.56-1.1.54-.51,2.57.56,3.36.82h0Z"/>
    <path class="st46" d="M201.14,823.54c-.19-1.49-.32-2.7.08-4.18l1.32-2.96c-2.22,6.2.35,11.72,7.57,11.27-3.13-2.65-3.39-6.22-1.96-9.89.69,0,0,.81,0,.96v4.12c0,.38.88,2.28,1.17,2.7,1.07,1.59,2.36,1.97,4.16,2.38-4.68,1.34-10.12.07-12.33-4.4h0Z"/>
    <path class="st23" d="M482.75,823.27c-1.01,2.12-1.88,3.29-4.21,4.26-2.05.85-6.04,1.05-8.12.42,2.15-.53,3.67-1.21,4.62-3.3.12-.26.7-1.95.7-2.06v-3.99l.85,2.9c-.07,2.54-.95,4.46-2.81,6.17,7.3.38,9.48-5,7.57-11.27l1.33,3.23.07,3.64h0Z"/>
    <path class="st26" d="M217.68,824.64c-1-2.94-.62-6.4.98-9.08.11-.18.23-1.01.7-.54.17.17-1.75,3.66-1.4,4.54l.28,6.18c-.23-.44-.35-.49-.56-1.1h0Z"/>
    <path class="st0" d="M431.19,968.68c-.32.46-.42.51-.84.82,2.25-4.41-.75-6.96-3.64-9.89l3.23,2.47c1.53,2.1,2.95,4.14,1.26,6.6h0Z"/>
    <path class="st8" d="M465.94,824.91c-.1.28-.13.53-.28.82-.59.35-.66.49-.46-.31.93-3.69.93-6.51-.38-10.14,2.22,2.8,2.23,6.41,1.12,9.62Z"/>
    <path class="st0" d="M250.46,968.68c-1.81-3.02.64-6.07,2.94-7.97.31-.26.46-.67.98-.55-1.89,2.1-3.88,3.65-3.65,6.74.06.83.66,1.68.29,2.32-.21-.2-.36-.22-.56-.55h0Z"/>
    <path class="st16" d="M422.23,823.54l-.28-.27c.02.07.23.16.28.27Z"/>
    <path class="st59" d="M349.09,666.58c7.6,3.12,12.07,11.68,14.37,19.03,3.43,11,3.02,22.25-8.48,27.97l-.28.27c-.08.04-.2-.04-.28,0-.11.2-.23.4-.37.57-1.09,1.28-7.15,2.49-9.13,2.75-5.82.77-12.04-.15-17.59-1.85-.53-.16-1.58-.6-1.49-1.19-13.75-6.02-12.84-20.59-7.98-32.43,2.39-5.83,6.11-12.14,12.18-14.85l.53-.82c5.72-2.09,12.19-2.17,17.97-.26l.55.8h0Z"/>
    <path class="st39" d="M325.84,714.14c.83.13,1.49.69,2.3.9,9.38,2.43,17.22,2.9,26.28-1.18-.43.69-.41.56.35.48,6.47-.67,12.94-1.62,19.27-3.09,2.22-.52,4.89-1.65,6.93-2.01.4-.07.87.24.91.22l1.68,5.5-.48.38c-4.72-1.07-9.58-.84-14.59.71-15.83,4.85-32.07,6.82-48.57,3.42-7.81-1.87-15.69-3.08-23.64-3.64-1.1.24-2,.13-2.68-.32l2.52-7.15c9.04,3.01,17.29,4.57,26.76,5.77.79.1,2.53-.06,2.94,0h0Z"/>
    <path class="st38" d="M356.66,662.46l.82.05c3.42,3.46,7.73,3.97,12.31,3.23l.32.57c.55.06,2.75,1.1,3.46,1.41.88.38,4.31,1.95,4.79,2.45,1.57,1.64.39,4.42-1.95,4.39-.93-.01-5.28-2.36-6.59-2.89-6.55-2.62-13.64-4.62-20.73-5.09-5.48-2.25-13.65-2.14-19.05.27-7.69.72-15.31,3.02-22.41,5.92-1.22.5-3.15,1.84-4.35,1.8-2.42-.09-3.32-3.27-1.25-4.81.68-.51,7.1-3.34,7.83-3.45-.01-.27.09-.46.33-.58,4.63.79,8.86.12,12.36-3.3l.76.03c11.03-1.82,22.34-2.38,33.34,0h0Z"/>
    <path class="st59" d="M388.82,603.43c9.08-1,18.34,6.18,15.9,15.59-.42,1.63-3.26,6.31-5.05,6.32-.6,0-2.75-3.18-3.35-3.86-4.57-5.16-9.77-9.24-15.53-13.05,1.64-2.92,4.68-4.64,8.04-5.01h0Z"/>
    <path class="st59" d="M298.9,608.81c-.11.18-3.11,1.87-3.69,2.29-5.73,4.13-10.71,8.84-14.9,14.49-10.02-6.59-5.37-19.78,5.69-21.88,3.28-.62,7.31-.52,10.13,1.45.62.44,3.25,2.86,2.78,3.65h0Z"/>
    <path class="st25" d="M323.31,662.46c-2,2.1-5.32,3.88-8.26,4.13-1.56.13-4.14-.44-5.19-.29-15.68-5.11-11.63-27.31,5.47-25.85,10.56.9,15.15,14.47,7.98,22Z"/>
    <path class="st25" d="M370.11,666.31c-1.3-.13-3.51.43-5.19.28-3.16-.27-6.17-1.91-8.26-4.13-9.4-10.02.74-25.53,13.95-21.52,12.67,3.85,12.01,21.74-.5,25.37h0Z"/>
    <path class="st34" d="M366.96,630.65c2.03-.23,3.54.02,5.35.92,1.02.5,5.45,3.7,2.92,4.45-1.41.42-1.39-.66-2.17-1.34-1.62-1.42-3.65-2.12-5.83-1.84-1.25.16-4.74,2.18-4.72.06.01-1.35,3.31-2.13,4.45-2.26h0Z"/>
    <path class="st64" d="M310.36,630.64c1.51-.2,6.6.37,7.04,2.05.6,2.32-3.86.26-4.66.15-1.58-.2-2.77,0-4.18.7-1.06.52-3.53,3.54-4.45,2.27-1-1.38,2.74-3.98,3.89-4.47.66-.28,1.67-.61,2.37-.7Z"/>
    <path class="st39" d="M354.7,713.86l.28-.27s-.12.2-.28.27Z"/>
    <path class="st59" d="M383.56,714.96c.1.07.18.19.28.27,12.79,37.7,31.37,90.4,2.11,125.08-24.89,29.5-81.11,23.3-99.39-10.27-8.82-16.2-8.56-37.97-6.96-55.85,1.8-20.09,6.85-39.78,13.73-58.69.09-.02.19.02.28,0,6.91-1.23,20.98,2.66,28.52,3.77,11.01,1.62,19.92,2.03,30.94,0,7.86-1.45,19.37-5.79,26.98-5.14.7.06,3.01.49,3.51.82h0Z"/>
    <path class="st44" d="M340.69,693.52c-.42.77-.97.78-1.4,0-4.31-.23-8.67-2.32-9.4-6.86-.54-3.32-.24-4.81,3.23-5.66,2.99-.73,10.2-.67,13.24-.05,4.03.82,4.43,2.53,3.5,6.3-1.03,4.18-5.04,6.05-9.16,6.27h0Z"/>
    <path class="st28" d="M340.69,693.52c.11,6.16-1.59,13.87,6.21,16.03,4.65,1.29,10.64-1.79,9.69-7.03-.12-.66-1.43-2.63-.34-2.95,1.81-.53,1.96,4.57,1.79,5.61-.32,2.06-2.76,4.49-4.64,5.34-4.99,2.27-11.1-.12-13.41-4.91-2.33,4.34-7.24,6.73-12.19,5.36-3.09-.85-6.07-3.93-6.17-7.16-.03-.91.61-3.95,1.59-4.21,1.79-.47.22,2.17.12,2.87-.33,2.28.31,4.1,2.08,5.6,3.25,2.75,8.35,2.19,11.35-.67,3.76-3.59,2.19-9.28,2.51-13.89.46.02.95.02,1.4,0h0Z"/>
    <path class="st15" d="M311.48,643.84c15.75-2.22,15.61,21.44.28,19.37-11.04-1.49-10.86-17.88-.28-19.37Z"/>
    <path class="st15" d="M364.44,643.84c11.75-1.67,16.52,12.69,7.05,18.19-6.23,3.62-14.28-.5-15.03-7.47-.51-4.76,2.96-10,7.98-10.71h0Z"/>
    <path class="st53" d="M311.47,645.48c9.85-1.63,13.96,10.27,6.33,15.01-6.83,4.24-15.28-3.11-12-10.4.84-1.88,3.57-4.26,5.67-4.61Z"/>
    <path class="st53" d="M364.72,645.49c13.19-1.88,13.06,17.26.77,16.14-9.54-.87-9.55-14.89-.77-16.14h0Z"/>
    <path class="st55" d="M310.07,647.93c2.27-.34,2.59,3.76-.28,2.92-1.54-.45-1.22-2.7.28-2.92Z"/>
    <path class="st60" d="M306.85,653.86c-1.08-1.07.74-2.35,1.49-1.32.61.84-.58,2.22-1.49,1.32Z"/>
    <path class="st36" d="M363.29,647.95c1.61-.14,2.24,2.69.5,2.97-2.59.42-2.41-2.8-.5-2.97Z"/>
    <path class="st55" d="M361.39,653.9c-.62.96-2.71-.56-1.39-1.5,1.01-.72,1.88.72,1.39,1.5Z"/>
    <g>
      <path class="st51" d="M401.55,617.91c11.38-.91,15.78,14.79,5.68,20.01.38,1.57.83,2.95.8,4.58,0,.5-.37,2.16-.26,2.39.06.14,1.91,1.44,2.35,1.91,4.52,4.88,3.98,12.9-1.72,16.17,1,1.95,1.22,4.1,1.44,6.23,6.97,1.04,10.9,9.13,7.65,15.43-1.44,2.8-4.48,5.07-7.59,5.32,1.97,8.23-5.05,15.17-13.09,12.56-.66-.21-1.99-1.14-2.52-.89-.3.14-2.14,2.83-2.49,3.35-2.05,2.99-5.4,10.06-8.82,11.1-1.96.6-3.95-.58-5.3-2-9.4-9.86,9.07-11.77,14.24-15.2-.85-.92-1.3-2.14-1.72-3.32-.34-.71.32-1.07.15-.26,3.28,5.28,11.39,5.64,13.69-.44,2.61-6.91-4.92-13.32-11.13-9.39l-.32-.44c1.55-1.6,3.65-2.72,5.79-3.22.04-.18.11-.45.25-.45,1.32-.07,4.22.59,5.47,1.11l.15.52.5-.21c1.35.8,2.56,1.86,3.54,3.1,9.98-4.51,2.21-19.03-7.07-13.26-1.31-.29-.34-1.37.41-1.83,2.42-1.19,3.01-2.07,2.57-4.95-.77-5.16-5.03-7.83-9.85-6.67l-.48-.28c-.98-1.54-1.24-3.19-1.3-4.97l.24-.02c.52,1.43,1.26,2.65,2.21,3.68,3.36-.77,6.91-1.16,9.93,1.2,6.37-5.64.84-15.68-7.3-13.38-1.55-.8,1.02-1.68,1.93-1.81,2.55-.21,3.9-.51,3.81-3.43-.14-4.58-2.63-7.88-7.24-8.22-1.12-1.57,2.66-1.01,3.51-.84,1.54.31,2.74.92,4,1.83,7.01-2.57,5.68-12.96-1.72-14.51l-.4-.51h.01s0,0,0,0Z"/>
      <path class="st4" d="M388.16,637.83c.08-.24.14-.49.24-.72.59-.16.88.4.87,1.67,4.33,7.32,11.28-3.66,2.96-4.67-1.87.47-2.26.26-.58-1.07.44-.35.95-.61,1.45-.85-.01-.07-.04-.14-.05-.2.08-.48.56-.75,1.42-.8-1.27-2.11-2.04-4.24-1.47-6.7.12-.35.23-.65.39-.98.57.24.87.92.93,2.02,4.11,6.52,10.75-3.07,3.29-4.98-1.36.2-3.18.3-1.1-1.04.87-.63,2.11-1.26,3.18-1.33.71-.21,1.12-.37,1.86-.25,6.26,1.05,9.39,8.21,5.38,13.3-.53.67-2.46,2.32-3.26,2.17-.39-.08-1.4-.94-1.92-1.17-1.65-.76-3.89-1.12-5.65-.79.31.32,1,.13,1.49.24,4.09,1,6.72,4.99,6.16,9.23-.15,1.16-.4,2.43-1.58,2.69-1.65.36-3.36.26-4.86,1.43l2.52-.36c7.74-.25,11.41,9.92,5.16,14.5-2.04-1.28-4.54-2.07-6.92-1.73-2.38.34-3.17,1.73-4.51-1.13-.38-.82-.43-1.72-.97-2.37,0-.25.04-.46.04-.67.53-.09.92.39,1.18,1.44,1.44,2.05,4.73,1.61,5.81-.5,2.11-4.12-3.79-7.38-6.14-3.71l-.51.03c-.82.04-.35-.91-.08-1.46l.91-1.62c-4.05-1.14-6.54-5.53-5.63-9.62h0s0-.02,0-.02Z"/>
      <path class="st4" d="M389.3,667.55c.4-.26.76.06,1.09.96,6.22,5.4,9.44-7.2,1.23-5.5-1.62.87-2.03.87-1.07-.94.3-.58.73-1.1,1.21-1.54.39-.44,1.62-1.43,2.13-1.64,3-1.21,7.31.09,9.26,2.91,1.28,1.85,2.19,5.67,1.1,7.72-.41.77-3.07,1.52-3.41,2.85,10.1-6.46,18.31,9.54,7.33,14.02-.93-1.27-2.54-2.71-3.91-3.4l-.05-.54c3.73-3.72-2.47-9.03-5.41-4.62-.06.87-.9,1.42-.94.36-.18-.09-.32-.22-.41-.4-.19-.4.61-2.4.85-2.9-4.22.39-9.11-2.46-9-7.35h0v.02Z"/>
      <path class="st4" d="M390.35,695.32l.43-.21c1.83,2.4,6.14,1.12,6.2-1.87.08-4.25-5.03-5.57-6.82-1.87-.23.12-.42.07-.56-.15-.13-.2.71-2.96.93-3.44.58-.99,1.27-1.91,2.07-2.73.55.16,1.04-.45,1.64-.64,11.3-3.63,15.38,13.93,3.63,15.4-2.93.37-6.34-1.69-7.51-4.49h0s0,0,0,0Z"/>
      <path class="st56" d="M390.52,687.76l-.79,3.51c1.89-4.07,7.37-2.98,7.66,1.67.18,2.98-3.44,4.82-5.93,3.3-.36-.22-.66-.65-1.1-.94-.02-.01-.04-.25-.25-.16l.11.42c-1-2.81-1.22-5.16.31-7.81h0s0,0,0,0Z"/>
      <path class="st56" d="M391.75,660.54c-.61.69-1.19,1.98-1.61,2.83,1.76-1.4,4.58-1.56,6,.48,3.15,4.48-2.96,8.97-6.17,4.8-.28-.36-.27-.92-.67-1.1,0,.2-.08.21-.2.05-.05-2.46.5-5.65,2.64-7.07h0s0,0,0,0Z"/>
      <path class="st56" d="M393.39,623.5c1.21-2.71,2.36-4.18,5.18-5.25.32-.12.83-.39,1.12-.09-1.57.46-2.79,1.28-4.14,2.15l1.92-.21c5.14.49,5.29,7.88-.11,8.04-1.1.04-2.84-1-3.29-2.07-.35-.82-.34-1.78-.68-2.57h0s0,0,0,0Z"/>
      <path class="st56" d="M388.4,637.11c.89-2.1,2.36-4.44,4.7-4.93l-2.48,1.95c3.27-1.64,6.87,1.4,5.66,4.96-1.16,3.43-6.13,3.33-7.36-.03-.26-.71,0-1.48-.52-1.94h0s0,0,0,0Z"/>
      <path class="st56" d="M392.68,651.04c-.46-.4-.28-.62.29-.52,2.33-4.34,9.22-1.14,7.07,3.74-1.13,2.59-5.21,3.02-6.68.53-.31-.53-.31-1.19-.76-1.53,0-.48-.02-1.89.06-2.22h0s0,0,0,0Z"/>
      <path class="st56" d="M397.66,678.25c.02-.19.09-.21.2-.05.03,0,.31.29.44.1.03-.04-.03-.44.14-.69,3.43-5.1,10.46,1.36,5.8,5.39-.98-.49-4.97-1.38-5.87-1.18l-.72-3.57h0s0,0,0,0Z"/>
      <path class="st51" d="M388.16,637.83l.21,2.48c.47,3.24,2.67,6.12,5.85,6.81.41.37-1.64,2.58-1.25,3.4-.07.13-.29.49-.29.52-4.52-3.14-6.34-7.98-4.53-13.21h0Z"/>
      <path class="st51" d="M389.1,667.6l.2-.05c.64,4.75,5.45,7.95,9.84,6.58-.62,1.27-1.33,2.57-1.29,4.07-.07,0-.14.06-.2.05-5.03-.79-8.46-5.61-8.56-10.64h0s0,0,0,0Z"/>
      <path class="st11" d="M393,624.47l.22,2.48c.28,1.74,1,3.06,2.02,4.46l-2.21.55c-.09-.75-.49-1.59-.62-2.37-.3-1.94-.04-3.35.58-5.12h0s0,0,0,0Z"/>
    </g>
  </g>
</svg>