<?xml version="1.0" encoding="UTF-8"?>
<svg id="Ebene_1" xmlns="http://www.w3.org/2000/svg" version="1.1" viewBox="0 0 2034.72 1149.12">
  <!-- Generator: Adobe Illustrator 29.6.0, SVG Export Plug-In . SVG Version: 2.1.1 Build 207)  -->
  <defs>
    <style>
      .st0 {
        fill: #cccccb;
      }

      .st1 {
        fill: #848d79;
      }

      .st2 {
        fill: #100b09;
      }

      .st3 {
        fill: #130c07;
      }

      .st4 {
        fill: #fcfcfc;
      }

      .st5 {
        fill: #c9dce0;
      }

      .st6 {
        fill: #d9d8d7;
      }

      .st7 {
        fill: #080605;
      }

      .st8 {
        fill: #c9c9c9;
      }

      .st9 {
        fill: #a6a6a6;
      }

      .st10 {
        fill: #060504;
      }

      .st11 {
        fill: #050505;
      }

      .st12 {
        fill: #a7472b;
      }

      .st13 {
        fill: #dddcdb;
      }

      .st14 {
        fill: #1b1614;
      }

      .st15 {
        fill: #f3f2f1;
      }

      .st16 {
        fill: #bbbbba;
      }

      .st17 {
        fill: #f9f9f9;
      }

      .st18 {
        fill: #cac8bb;
      }

      .st19 {
        fill: #efefee;
      }

      .st20 {
        fill: #7d532f;
      }

      .st21 {
        fill: #195113;
      }

      .st22 {
        fill: #0d0705;
      }

      .st23 {
        fill: #ae6f44;
      }

      .st24 {
        fill: #fff9e5;
      }

      .st25 {
        fill: #12100d;
      }

      .st26, .st27 {
        fill: #b07345;
      }

      .st26, .st28 {
        stroke: #000;
        stroke-miterlimit: 10;
      }

      .st29 {
        fill: #0c0704;
      }

      .st30 {
        fill: #ddd;
      }

      .st31 {
        fill: #020100;
      }

      .st32 {
        fill: #030201;
      }

      .st33 {
        fill: #010000;
      }

      .st34 {
        fill: #fafaf9;
      }

      .st35 {
        fill: #af7044;
      }

      .st36 {
        fill: #e5f8fd;
      }

      .st37 {
        fill: #c6c6c6;
      }

      .st38 {
        fill: #fefefe;
      }

      .st39 {
        fill: #fafafa;
      }

      .st28 {
        fill: #c88950;
      }

      .st40 {
        fill: #dcdbda;
      }

      .st41 {
        fill: #bebebe;
      }

      .st42 {
        fill: #414141;
      }
    </style>
  </defs>
  <rect class="st4" y="0" width="2034.72" height="810.01"/>
  <path class="st24" d="M1434.17-.04l3,.92v420.1l-3,1.2-1.44,1.92h-824.07l-1.88-1.92c-.83-.1-1.47-.2-1.47-.3-.25-138.9.09-283.28,1.47-421.92h827.39,0Z"/>
  <g>
    <path class="st11" d="M792.34,253.84h.03c2.25-.23.74-.9.48-1.57-.33-.82-.94-2.06-.04-2.68,11.75,2.67,23.99,2.69,35.81.45,10.26-1.95,21.32-5.23,25.29-16.25.62.09.26,1.5.21,1.92-.37,2.92-1.61,6.75-2.88,9.39-.29.6-3.3,5.14-3.07,5.34,12.62.08,22.95-5,31.22-14.49,7.92-9.07,13.31-20.6,14.93-32.7l.86,3.59c.59,4.92.81,9.82.34,14.76-.23,2.43-.83,4.84-1.05,7.25,6.77-6.65,10.69-15.24,12.42-24.62,4.67-25.17-.73-46.7-8.65-70.24-10.23-30.46-25.84-62.16-44.4-88.16-18.49-25.89-56.17-54.39-89.09-43.41-1.46.49-6.73,3.12-7.53,3.12-.9,0-4.89-1.85-6.26-2.26-32.81-9.83-63.44,11.88-83.17,36.64-21.25,26.67-36.6,56.58-46.84,89.37-5.36,17.16-9.83,34.38-10.49,52.51-.62,17.03,2.17,33.33,13.43,46.44l-.77-11.86c-.1-3.39.13-6.76.71-10.1l.81-2.72c1.93,15.42,10.52,29.54,22.83,38.5,4,2.91,7.88,4.84,12.6,6.23,2.45.72,4.97,1.06,7.39,1.84.36-.39-1.81-3.15-2.17-3.8-1.96-3.61-3.1-7.43-3.48-11.56-.03-.34-.35-1.05.21-.99,4.66,11.64,16.29,14.6,27.35,16.3,6.91,1.06,14.37,1.55,21.36,1.28,4.02-.16,8.83-1.22,12.63-1.2.51,0,1.11.39,1.69.28-.2,1.76-2.35,2.9-.61,4.32l.69.19c2.51-.85,3.25-11.04,2.79-13.62,19.37,10.59,42.09,10.78,61.41.25l.69,10.09c.3.97,1.24,2.59,2.28,2.16h.04Z"/>
    <path class="st27" d="M658.44,485.83v-.02l1.03-1.33c6.67-13.79,13.32-27.67,18.98-41.95,5.01-12.65,8.13-25.38,10.02-38.82.37-2.66.8-13.24.75-19.2,0-.61,1.2-1.45,1.33-2.04.15-.74-.34-2.24-.5-2.98-.19-.92-.66-2.75-.94-3.64s-.92-2.66-1.27-3.53c-.53-1.32-1.64-3.94-2.32-5.19-.38-.69-1.41-1.92-1.71-2.65-.95-2.31-.93-7.53-2.04-9.76-.08-.15-.29-.47-.46-.52-9.1-2.86-20.75.62-30.02-2.57l-.81.38c-1.06,13.62-1.1,27.21-.97,40.75.23,13.65-1.87,26.86-6.37,39.89l-14.23,47.68c-.47,1.8-.78,3.63-.94,5.48,9.38.39,21.14.53,30.46,0v.02h0Z"/>
    <path class="st33" d="M690.22,383.13c3.85,1.1-.02-2.17,3.21-4,4.23-2.4.75-1.51-3.37,1.19-1.6,1.05-.66-.88-1.47,5.86.83,7.65-.36,15.62-1.59,23.2-1.78,10.99-4.56,21.05-8.51,31.4-5.87,15.36-13.37,30.05-20.05,45.04.44-.02,1.25.2,1.54-.19,9.36-21.71,21.32-43.01,26.41-66.38,1.92-8.79,4.26-21.56,3.71-30.44-1.35-3.83.33-7.48,1.11-1.14,1.17,6.1,2.03,12.66,2.21,18.87.28,1.94.28,3.92,0,5.86-.55,16.72-9.03,33.84-13.95,49.74-2.24,7.21-4.79,15.21-6.71,22.44-.51,1.92.56,1.67,1.3.09,2.83-6.12,4.59-15.97,6.7-22.76,4.89-15.68,13.29-32.68,13.88-49.19.29-2.15.28-4.33,0-6.48-.23-7.95-1.73-15.75-3.03-23.58,1.52-2.64,5.83-7,8.76-8.5.1,2.27-.46,9.95.85,11.93,2.32,6.08,8.41,28.78,13.75,25.38.36-.23.45,8.13.67,8.09.38-.06,2.37-7.75,3.42-7.57.97.17,3.44.45,4.36.42.48-.01,4.57-1.33,4.7-1.54.16-.24-.64-.26.49-1.34.15-.15.12,7.54.14,7.53.11-.07,1.8-7.1,2.38-6.93,6.35,1.76,13.23,22.08,14.2,15.05.26-1.88,9.12-25.51,9.51-26.83.08-.29-1.67,13.46-1.11,12.57,2.52-4.05,7.06,6.61,8.16,1.99,27.2,13.39,47.73-31.65,75.73-20.08.61.52.22,6.08.3,7.4,1.14,17.7,9.65,33.8,16.13,49.83,4.7,11.63,9.22,23.44,12.49,35.59l1.24.18c-3.1-12.28-7.8-24.36-12.52-36.08-7.28-18.04-16.96-35.91-16.13-56.15,7.72,2.71,15.52,7.04,23.94,5.82,3.46-.5-14.23-2.35-10.98-3.75,12.43-5.33,31.57-15.27,29.74-26.87-1.18-7.52,2.74-20.82,1.03-28.2,2.42-.63,3.5,2.34,3.33-1.46-.18-4.03-1.43-9.39-2.28-13.41-4.22-19.98-12.55-40.92-30.04-52.26-16.31-10.57-37.64-15.27-56.79-15.86-.38.11-.36.43-.5.56h.03l-.74-.09c-16.63,22.94-57.7,24.4-74.69,1.07l-.88-.06c-2.3.81-6.34,1.24-9.06,2-30.86,8.62-50.92,15.87-61.3,49.59-3.99,12.95-5.58,27.03-5.3,40.6l5.08.66c-.43,5.73-.44,11.4-.6,17.13-.44,16.37.97,33.62-2.58,49.5l-19.71,66.84c-.26.67.75.39,1.15.41,5.91-21.3,12.9-42.31,18.78-63.62,4.68-16.91,2.88-30.95,3.23-48.22.09-4.37.42-8.89.62-13.25.13-2.82.22-5.66.3-8.48h3.18l25.77,3.22"/>
    <path class="st35" d="M792.37,253.84h0c-.46-.74-1.89-1.38-1.73-3.01l-.69-9.94c-.33-.36-3.65,1.61-4.32,1.9-16.96,7.58-33.64,8.19-50.87,1.02-2.53-1.05-4.9-2.41-7.4-3.54.03,4.71.57,9.2-1.9,13.49-.35.61-.77.75-.96,1.02-.99,1.36-2.52,3.72-4.22,4.32,1.24,1.27,2.27,3.08,3.45,4.33,17.62,18.55,53.83,17,70.6-2.17.79-.91,1.45-2.26,2.26-3.09-1.8-.49-3.02-1.98-4.05-3.42-.21-.3-.1-.79-.17-.89v-.02h0Z"/>
    <path class="st9" d="M694.63,412.7c.51-1.88.51-4.6,0-6.48.06,2.09.07,4.39,0,6.48Z"/>
    <path class="st42" d="M693.43,412.39c.51-1.66.51-4.18,0-5.86.05,1.93.06,3.93,0,5.86Z"/>
    <path class="st23" d="M720.58,95.91h0l4.42,1.48c3.27,1.32,8.46,5.27,7.94,9.31-13.33-3.3-26.97-4.45-38.7,4.07-1.26.91-4.94,4.57-5.84,4.83-.52.15-.74.23-.71-.41.06-1.33,1.08-2.56,1.06-3.85-9.62,8.02-15.18,20.59-14.93,33.31-1-1.2-1.3-2.98-2.17-4.42-1.48-2.45-5.38-5.75-8.24-6.07-5.48-.62-10.8,2.98-11.33,8.78-.79,8.85,1.03,23.35,6.23,30.68,3.53,4.99,11.47,11.44,17.77,10.82,1.63-.16,2.1-.45,1.94-2.27-.25-2.99-1.81-7.52-2.35-10.89-.36-2.33-.78-5.03-.95-7.36-.03-.34-.22-1.15.29-1.07,2.83,10.12,5.47,21.22,9.42,30.93,6.68,16.39,20.77,32.4,35.92,41,12.01,6.81,31.92,12.91,45.56,11.01,23.1-3.23,53.22-25.25,64.49-46.02,6.54-12.05,8.37-25.34,12.02-38.46.53-.07.29.7.29,1.07.16,4.21-.55,8.99-1.36,13.12-.36,1.88-1.4,4.41-1.61,6.09-.07.57.04,1.07.29,1.57,7.6.46,13.17-2.56,17.1-9.11.19-.32.31-.99.35-1.02.06-.05,1.06.57,1.47.27.46-.33,3.38-8.69,3.74-9.91,1.78-6.15,3.1-15.02,2.34-21.37-.37-3.15-4.54-8-7.72-8.45-2.93-.41-7.34.81-9.63,2.74-1.65,1.4-2.73,4.59-4.67,5.87.01-5.23-.55-10.45-1.9-15.49-3.8-14.17-14.65-25.58-24.64-35.57-2.1-2.1-3.86-3.28-5.85-5.73-6.6-8.13-12.24-17.96-17.38-27.11-.44-.12-.5.12-.76.3-1.78,1.27-3.78,3.32-5.61,4.76-13.73,10.82-25.56,17.57-41.82,23.86-8.08,3.12-16.41,5.63-24.5,8.72h.03Z"/>
    <path class="st38" d="M645.77,350.39h0l34.09,2.78c-.49-11.83.76-23.64,4.39-34.88.57.2,2.35-.44,2.24.47-.22,1.76-1.58,4.83-2.09,6.82-3.25,12.93-3.77,27.68,1.03,40.22,1.45-.67,6.31,17.27,6.5,18.74,2.61,19.6,3.08,15.09,2.9,31.33-.28,23.93-35.45,76.97-10.45,82.35,16.47,3.55,63.46,4.02,86.79-4.21,6.14-2.17,90.33,64.17,67.42-87.8-2.47-16.42,2.64-22,.53-39.14l-12.36-59.88c1.31.13,1.97-.59,2.33.84,1.26,5.12,1.65,11.97,2.59,17.41,1.21,7,2.7,13.95,4.14,20.91.42.36,7.87-2.48,9.11-2.85,8.06-2.4,17.29-4.07,25.7-4.25,4.77-.1,9.56.78,14.35.16-3.3-23.97-10.82-51.46-32-65.06-11.55-7.42-27.4-12.33-40.89-14.33-2.48-.37-13.22-1.71-14.76-.68-.66.44-2.86,3.64-3.89,4.66-17.43,17.37-50.06,18.62-68.47,2.14-2.02-1.82-3.65-4.17-5.72-5.83-10.13,2.77-20.38,5.42-30.19,9.22-5.62,2.18-11.18,4.67-16.11,8.21-21.5,15.44-27.17,47.39-27.17,72.62l-.02.03h0Z"/>
    <path class="st28" d="M657.77,352.37l.25-.35c3.79-.91,7.29-6.37,5.94-10.34-.95-2.78-4.56.29-6,1.33-2.02,1.45-6.87,4.8-5.63,7.65.69,1.56,1.89,1.27,3.24,1.62"/>
    <path class="st26" d="M667.12,405.11"/>
    <path class="st26" d="M654.44,353.18c6.48,4.75,31.1-14.29,41.73-19.55,1.37-.68.92-.41,1.94-1.1,1.31-.88.66-.26,6.06-2.92-1.85,5.89-7.16,15.59-1.42,20.58,2.4,2.09,5.06,2.36,8.02,1.21-.68-4.28-.09-8.97,1.46-13.06.19-.49,1.6-3.72,1.79-3.8.11-.06-.12.02.17.05-.67,3.36-1.96,6.65-2.71,9.97-.48,2.13-.73,4.47.41,6.42,1.49,2.52,6.49,4.11,9.27,3.62,3.36-.58,1.77-1.82,2.3-4.48.92-4.63,3.26-8.68,5.71-12.6.52.09.18.81-.03,1.11-3.65,5.44-5.37,10.28-4.81,13.38.97,5.32,11.45,5.53,15.09,3.12.78-.52,2.84-2.62,3.08-3.42l1.04-3.43c.13-.42-.06-.84-.4-1.13-.79-.68-.19-2.2-.5-1.1-1.87-.28-3.41,4.07-2.91,2.25.85-3.06,2.54-2.5,4.72-3.57,6.93-3.41,10.88-9.72,14.23-16.56l2.61-3.15-1.66,5.46c13.04,12.31,26.59,24.11,40.25,35.72,8.22,7,16.53,13.98,24.91,20.77,11.92,9.66,17.53,16.86,34.04,16.38,6.4-.19,10.47-.73,14.8-6.12,9.3-11.54,8.36-42.67,9.16-56.64-13.25-2.36-35.27,2.16-44.02,5.96-.31.7,2.88,1.41,3.24,1.67,1.95,1.5,4.34,2.38,6.4,3.61,4.47,2.67,10.37,5.95,13.74,9.92.23.28.71.88-.11.55-7.69-5.02-15.33-10.25-23.36-14.73-2.63-1.47-5.78-2.66-8.53-4.17-20.66-11.42-40.36-25.71-60.98-37.12-17.9-9.9-30.3-7.28-48.18.39-20.36,8.74-39.5,21.16-58.03,33.34-.75.74.2,1.45.39,2.25.61,2.63-1.09,5.9-2.98,7.69-.67.63-2.39,1.97-3.5,2.39l-2.25.58"/>
    <path class="st34" d="M783.62,148.96c.15,2.38.75,4.6,1.66,6.78.07.16.5,1.3.75.62l.29-.92c-5.08-14.04,11.88-25.12,23.19-16.72,12.28,9.12,3.57,27.64-10.61,26.07l-.81.52-.75.31c7.47,1.71,17.6.39,23.07-5.55,14.95-15.05.21-37.72-19.58-34.43-10.6,1.76-19.58,12.14-17.22,23.32h.01Z"/>
    <path class="st17" d="M732.96,146.33h-.02c-.14-18.46-23.14-26.01-35.85-14.29-5.85,5.4-7.55,11.85-5.94,19.62.21,1.04,1.71,6.94,3,5.07-.34-1.23-.69-2.44-1.02-3.61.7-.44.43-.79-.3-.93.52-10.46,8.54-17.2,18.75-14.94,15.61,3.45,15.19,25.31-.26,28.15l-.38.68c-.64.32.31-.14.87.03,1.47-.22,1.26-.08,2.3-.38,10.42-.49,19.87-8.15,18.85-19.39h0Z"/>
    <path class="st32" d="M784.52,197.39c-.65.64,1.19,1.56,1.19,1.69-14.05,6.87-30.55,8.65-45.95,6.59-3.19-.43-7.45-2-10.29-2.14-1.22-.06-2.57,0-2.57,1.56.59.11,3.43-.16,3.6.02.05.05.1,1.05.22,1.46,8.39,27.01,44.47,27.07,55.35,1.2.56-1.32,2.07-6.83,2.51-7.32.59-.65,1.49.17,2.27,0,.15-1.68-5.82-3.59-6.33-3.08v.02h0Z"/>
    <path class="st31" d="M783.33,104.85h-.01c3.29-.22,6.37-1.55,9.59-2.07,10.45-1.68,19.61.18,27.66,7.32.46.41,4.99,5.33,5.28,4.93-.54-6.86-6.6-13.57-12.09-17.09-6.75-4.34-16.33-6.85-23.7-2.7-3.1,1.74-6.87,5.77-6.73,9.61h0Z"/>
    <path class="st2" d="M783.62,148.96h0c-1.02-15.8,13.02-26.47,27.69-21.99,14.25,4.35,19.53,21.79,9.11,33.09.13.62.77-.32.9-.46,6.87-7.03,9.16-15.3,3.87-24.31-9.72-16.54-36.23-15.79-41.72,3.8-.83,2.95-1.82,7.3.15,9.87h0Z"/>
    <path class="st25" d="M699.15,163.15h.01c.37-.34.07-.86-.9-1.54.58-.84-.58-2.11-1.51-1.85-1.29-2.3-2.29-4.78-3.05-7.26-.3,0-.49.17-.57.48.11.93.31,1.59.48,2.45.06.32.39,1.01-.16.94-2.51-4.96-3.17-13.01-.55-17.98,9.8-18.59,38.09-13.61,40.06,7.81.49-.31.34-1.19.3-1.69-1.48-16.1-16.5-24.34-30.88-18.01-5.88,2.59-12.31,9.74-12.86,16.46-.7,8.56,1.8,16.25,9.65,20.2h-.02Z"/>
    <path class="st22" d="M763.75,172.68h0c.06.09,1.58.63,1.98.9,1.38.92,2.19,1.59,3.05,3.05,2.94,4.99.69,5.63-3.8,6.79-5.39,1.39-8.15.77-13.4-.61-1.45-.38-5.18-2-6.14-2.07-1.71-.12-1.06,1.7-.05,2.55,6.25,5.23,20.4,6.28,25.88-.53,2.33-2.9,1.02-6.46-.92-9.25-.4-.58-3.07-3.71-3.5-3.79-1.29-.26-3.91,1.66-3.1,2.98v-.02h0Z"/>
    <path class="st14" d="M786.03,156.37h0c1.73,4.22,7.73,8.29,12.07,8.95,15.26,2.29,24.35-17.02,12.34-26.66s-30.64,2.53-24.41,17.71h0Z"/>
    <path class="st3" d="M673.82,167.47h0c-3.49-3.23.02-7.14-1.04-11.42-.68-2.74-6.54-9.12-9.53-7.25-1.66,1.04,3.38,3.73,4.03,4.23.46.35,2.32,1.8,2.46,2.11,1.41,3.16-2.53,12.75,4.08,12.33h0Z"/>
    <path class="st29" d="M844.86,166.85h-.01c.47.54,2.89-2.95,3-3.56.2-1.15.07-3.64.03-4.93-.03-.84-.65-3.01-.45-3.55.25-.69,4.93-4.84,5.86-6,.28-.35.73-.5.6-1.08-2.68.18-5.28,1.75-6.92,3.86-1.36,1.74-1.79,3.59-1.79,5.82,0,1.27.65,3.41.57,4.62-.09,1.37-1.34,3.18-.89,4.82h0Z"/>
    <path class="st20" d="M692.85,151.67l-.03.38c.38.77.38.97.38.97,0,0,1.83,4.74,3.46,6.74l.32-.78c-.81-2-.57-4.15-.21-6.23l.28-.65v-.49c.07-1.93.89-2.92,2.81-2.6l.42-.66,1.19.4c10.59-2.19,16.14,11.55,4.45,14.59l-.22.74c-.7.27-1.48.26-1.2.93,17.81,4.74,26.44-20.79,9.05-27.28-10.54-3.93-20.3,2.68-20.7,13.94h0Z"/>
    <path class="st25" d="M692.83,152.05h0c.12-4.19,3.79-11.2,7.54-13.11,10.88-5.56,25.01,2.36,21.88,15.58-2.18,9.19-9.61,10.47-17.65,10.49.36.9,5.41,1.03,6.34.93,3.63-.4,8.6-3.53,10.41-6.78,6.58-11.82-2.62-24.16-15.35-22.79-8.02.86-13.48,7.54-13.16,15.69h-.01Z"/>
    <path class="st39" d="M736.26,205.72h0c-.25.23.83,1.57,1.05,1.85,9.93,12.46,31.37,11.05,41.63-.31.48-.53,3.84-4.87,3.46-5.25-4.22,1.31-8.34,2.88-12.66,3.86-7.64,1.73-14.96,1.83-22.78,1.38-3.62-.21-7.11-1.24-10.71-1.54h.01Z"/>
    <path class="st12" d="M778.49,216.83h0c-1.91-.75-3.78-.02-5.57,0-9.19.16-19.05.15-27.3,4.77,9.98,7.17,25.05,4.61,32.87-4.78h0Z"/>
    <path class="st10" d="M700.36,148.38l-.02.73c2.85,2.42-.96,5.99-3.11,2.95l-.79.19c-.62,2.84-.89,5.32.3,8.08.6.78.9,1.05,1.51,1.94,2.27,1.49,4.8,2.73,7.54,2.59,3.68-1.48,7.33-2.74,7.26-7.92-.06-4.61-2.28-7.24-6.29-8.47-2.85-.87-3.68-.64-6.4-.09h-.01.01Z"/>
    <path class="st20" d="M789.35,159.45h0l.33-.69c-.93-2.22-.78-4.76.18-6.94l-.21-.69c.22-.11.42-.28.45-.54.19-1.99,1.49-2.71,3.38-2.26l.7-.29.58.34c10.27-2.43,14.46,12.46,3.53,14.74l-.5.65-.46.62c16.24,3.6,25.03-19.18,9.86-26.75-13.33-6.66-28.16,8.86-18.76,21.34.1.13.77,1.09.9.47h.02,0Z"/>
    <path class="st7" d="M794.18,148.04h0l-.27.64c1.8,2.85-1.61,5.11-3.57,2.43l-.67.02c-1.5,2.2-1.57,6-.3,8.33,1.35,2.47,5.74,4.43,8.44,4.32,8-.32,10.51-11.37,3.22-15.17-1.73-.9-5.2-1.92-6.83-.56h-.02,0Z"/>
    <path class="st19" d="M696.45,152.05h0c.73.42,1.14,1.27,2.02,1.48,3.1.74,5.08-3.49,1.89-5.18-1,.19-1.86-.33-2.88.61-.94.88-.81,2.04-1.04,3.09h.01,0Z"/>
    <path class="st15" d="M789.65,151.12c1.44,3.1,6.23,1.96,5.22-1.8-.08-.28-.51-1.13-.7-1.28-1.95-1.52-5.64.67-4.53,3.08h.01Z"/>
  </g>
  <rect class="st4" x="12" y="444.32" width="2014" height="365.69"/>
  <path class="st21" d="M2034.16,644.01c.84,163.3.84,336.77,0,500.93l-.93,4.62H1.14l-1.22-4.62v-500.93h2034.24Z"/>
  <path class="st18" d="M2034.16,1148.6c.27-.84.59-.83.96,0v.96H-.08v-.96h2034.24Z"/>
  <polygon class="st1" points="2035.12 1148.6 2034.16 1148.6 2034.16 1124.61 2034.16 1100.62 2034.16 1045.92 2034.16 837.69 2035.12 837.69 2035.12 1148.6"/>
  <g>
    <path class="st40" d="M1468.01-.04l.76.88.19,66.64c7.44-1.93,14.89-4.18,22.37-6.76l.19-59.61.76-1.14h17.82v484.13c.15,1.96-2.66,4.12-3.16,4.07-3.67-.31-11.44-7.91-15.43-10.32-.2-1.9.02-2.59.72-2.95-1.15-4.13-1.85-5.14-3.91-5.18-6.53-5.84-13.21-10.99-20.04-13.88-2.53,1.47-3.55.54-5.53-2.95-3.08,2.45-4.72.13-4.93-6.98-1.81-2.44-3.83-4.18-6.05-5.23l-.34-2.27c.46-4.35.45-8.16.28-12.38l1.3-1.28c1.92.43,6.79,2.63,8.6,3.97.45.34.79,1.23,1.1,2.11l-.76-.66v-83.11l.76-1.16c-2.33,1.01-12.84-1.61-13.23-3-.17-.62-.11-1.51-.04-2.28-.07-1.57.47-2.32,1.6-2.24-.32-3.94-.22-7.03.3-9.28,2.75-1.78,6.93-.52,9.9.8.57.25,1.04,1.18,1.48,2.08l-.76-.66v-115.24l.76-1.17c-2.2,2.37-15.47,3.28-16.18,1.31-.21-.58-.19-1.48-.13-2.27l.33-1.92,4.15-.11c-.46-4.43-.32-7.59.45-9.49l1.2-1.87c2.02-.55,6.93-.91,8.92-.56.47.08.88.77,1.26,1.47l-.76-.66v-115.24l.76-1.17c-3.29,3.36-7.94,4.91-11.38,2.88l-.51-1.44c.17-3.38.27-7.25-.62-10.07l.92-2.28c3.57-1.94,7.18-3.09,10.84-3.68V1.11l.76-1.15h5.31-.03,0Z"/>
    <path class="st30" d="M606.54-.04v422.22h821.65V-.04h2.28l.52,6.75c.07,133.92.08,268.46.02,403.64l-.29,24.04c1.04.06,2.28,4.46,1.9,6.62,3.69,1.54,7.37,4.07,10.98,6.67.37.26.71.79,1.05,1.34s.68,1.24.99,1.95l-2.83,1.01-850.14.02-2.06-1.98c-.39-2.45-.04-2.64.76-.96l.52-1.63c4.54-2.54,8.92-5.6,13.16-9.19l.36-437.08.76-1.2h.38-.01Z"/>
    <path class="st37" d="M1441.09-.04l.76.64.37,75.46c1.03-1.2,1.79-.98,2.28.67.83-3.33,4.57-3.6,5.69-.96.29.1.99-.29,1.11.05.22.62.7,10.05.03,11.46-1.74,3.48-5.18,4.1-7.21,1.92l.76.66v109.97l-.76,1.16c2.16-.47,4.4-.63,6.73-.47l.48,1.91.38,11.52h-5.31c-.26,1.1-.77,1.97-1.53,2.62v108.85l6.07,1.66.39,2.02c.48,1.61.55,11.12.38,11.52-.13.31-1.81-.22-2.28,0-1.02,1.57-2.3,2.12-3.82,1.63l-.75,78.79c2.12,1.36,4.28,2.32,6.5,2.88l.35,2.11c2.07,3.66.05,11.48.56,13.46.18.71,5.19,1.21,6.19,5.44.31,1.3.65,6.54.87,6.93.33.6,2.54-1.2,3.54-.85,1.29.46,1.77,3.29,2.38,3.65.69.4,2.2-1.25,3.63-.59,6.4,2.97,13.14,7.83,19.3,13.53.92.85,2.03.32,2.88,1.34.8.95.88,3.49,1.97,4.61s5.57,2.06,6.08,3.34c.36.91.09,2.01-.56,1.91-2.53-.39-4.78-4.66-7.02-.96-15.26-9.24-30.66-17.35-45.89-26.87-4.46-2.79-8.9-6.13-13.41-8.58-.38-4.07-.75-5.31-2.15-7.45.88-106.66.05-213.63-.01-320.26-.02-38.29.54-76.43.4-114.72h10.62Z"/>
    <path class="st8" d="M542.45-.04l.76.88.05,59.73c2.22,1.09,4.6,1.87,7.14,2.35l1.15,2.29c2.66.66,2.88,13.72,0,12.47l-1.54,1.59c-2.31-.69-4.57-.68-6.8.03v120.98l-.76,1.18c3.08.63,6.17.77,9.28.44,2.23-1.25,2.15,10.15,1.07,12.18-2.7.04-5.39.31-8.07.82-.31,1.25-.81,2.11-1.52,2.57v120.56c2,.01,4-.28,6.01-.87l1.58,1.52c.76-.45,2.4-1.29,2.94-.08.19.42.48,11.91-.66,11.6-2.83,4-7.54,6.24-10.62,3.84l.76.67v90.28l-.76,1.17c2.67-3.75,6.5-5.34,9.48-3.84,1.16-.35,1.67,1.49,1.55,5.53-.43,5.58-.03,7.6,1.21,6.07,2.96-3.27,4.82-2.13,5.59,3.42,9.74-4.87,19.42-10.16,29.04-15.88,2-1.02,4.05,4.56,2.05,7.58-.34.21-.61.87-.76.96-1.75,1.08-3.56,1.79-5.31,2.88l-1.14.96c-17.15,10.6-34.37,20.68-51.58,30.71-1.41,1.14-2.17.65-2.28-1.48V1.15l.77-1.2h11.38-.01Z"/>
    <path class="st6" d="M572.03-.04l.76.88v68.58l.76,2.51c1.75.74,1.63,11.93,0,12.47l-.76,2.59-.02,112.71c.4.71.78,1.62,1.16,2.73,1.18,1.04.81,10.71-.38,11.52l-.76,2.58-.02,113.16-.36,2.3c2.53-1.08,3.25,8.92,1.9,12.47.02,1.77-.47,2.43-1.49,1.98-.06,29.46-.08,57.9-.03,85.35,1.69-.85,2.34,2.68,1.94,10.57,2.1.22,4.26-.8,6.36-1.84,6.04-3.64,11.99-7.01,17.86-10.1V1.16l.76-1.2h6.45l-.38,438.07c0,1.3-.24,1.65-.63,2.24-.58.87-4.5,3.55-5.52,4.26-2.71,1.89-5.54,2.83-8.26,4.53.74-9.91-4.04-4.17-5.99-3.16-8.03,4.2-16.24,9.69-24.09,12.15-.37.12-.77,1.63-1.17,1.5-.85-.3-.94-5.09-1.61-5.62-.73-.57-4.48,3.52-5.83,1.85-.34-.85.67-11.69-.76-13.44l1.15-2.57c2.18-1.71,11.9-7.78,13.3-6.23.26.29.49.69.73,1.13l-.76-.67v-85.49l.76-1.17-1.04,1.8c-4.22,1.08-8.4,2.06-12.55,2.93l-.45-1.85v-11.52h-2.28c-.13-.68-.25-1.52-.09-2.09.51-1.83,14.09-4.35,16.4-2.7l-.76-.66v-117.16l.76-1.17-1.31,1.35c-6.08,1-12.3.71-18.43.4-.44-.02-.88-.28-1.32-.57s-.89-.72-1.32-1.18c1.39-2.72,6.55.46,7.53-1.09.57-.91.57-9.14.09-10.82-.57-2.03-8.52,1.09-9.9-1.52.4-.47.79-.91,1.2-1.22s.8-.58,1.2-.61c7.45-.58,15.13-.55,22.25,1.35l-.76-.66v-116.68l.76-1.17c-4.92,1.84-10.44.43-15.12-2.64l-.43-2.16c1.86-.52,1.43-11,0-12.47.43-.37.87-.7,1.32-.9s.88-.38,1.29-.27c3.94,1.07,7.89,2.18,11.8,3.81V1.12l.76-1.16h5.33Z"/>
    <path class="st30" d="M599.71-.04v430.38c-.07,1.97-.73,2.74-1.43,3.11-7.04,1.3-15.44,9.73-22.27,10.84-.7.11-1.41-.1-2.1-.03-.08-2.55.27-10.91-.44-12.35-.21-.43-.55,0-.7-.13l.18-2.06c6.23-3.27,12.37-6.58,18.4-9.94-.3-.08-.75-.36-.76-.89-.24-24.62-.24-51.05,0-75.69l.76-1.15c-1.07-.44-2.2-.47-3.39-.07l-13.12,4.23-.56-1.76c-.08-2.82-.18-7.94-.63-10.35-.28-1.53-.9-1.14-1.26-2.13l.27-2,17.52-4.57c.65-1.04.85-28.16.88-32.68.19-25.65.02-52.65-.45-77.29-5.01.55-10.31.9-15.36.23-.63-.08-1.2-.93-1.73-1.72l.38-11.52,1.33-1.74c5.01-.17,9.99-.8,14.94-1.91l.41-107.26-15.6-4.99-1.46-2.13c.45-3.93.71-8.64,0-12.47.98-.57,1.98-1.15,2.99-.93l13.7,3.58V1.12l.76-1.16h8.74,0Z"/>
    <path class="st0" d="M528.41-.04l.52,26.76c.21,151.53.33,303.07.38,454.61.85,1.44,1.06,3.15.62,5.15-1.86.84-2.98,1.23-4.91-.05-.21-10.98.38-22.18-.41-33.02l.02-453.45h3.79-.01Z"/>
    <polygon class="st36" points="1492.28 -.04 1492.12 62.39 1468.21 70.03 1468.01 -.04 1492.28 -.04"/>
    <path class="st36" d="M566.72-.04v70.05c-5.03-2.03-10.12-3.27-15.17-4.79-2.7-.81-5.42-1.89-8.16-1.91l-.89-1.58-.05-61.76h24.27,0Z"/>
    <path class="st36" d="M590.99-.04v76.77c-5.81-1.43-11.67-2.73-17.45-4.8-.48-.17-1.03.13-1.52,0V-.04h18.97Z"/>
    <path class="st36" d="M1462.7-.04v71.97c-2.05,0-4.17.43-6.21,1.08s-4.23,2.09-6.3,2.76c-1.75.56-3.92.38-5.69.96l-.76-.89V1.12l.76-1.16s18.2,0,18.2,0Z"/>
    <path class="st13" d="M531.07-.04v484.04l1.52.56c-.66,1.24-1.83,1.54-2.65,1.92l-1.34-4.77c-.43-160.49-.06-321.19-.18-481.75h2.65Z"/>
    <path class="st5" d="M1444.5-.04v76.77c-.87.28-2.14,1.35-3.03,1.92l-.38-78.69s3.41,0,3.41,0Z"/>
    <path class="st30" d="M585.3,452.89c-.19.12-.64.65-1.14.96l1.14-.96Z"/>
    <polygon class="st36" points="1492.28 76.73 1492.28 201.48 1468.01 201.48 1468.01 82.49 1492.28 76.73"/>
    <polygon class="st36" points="1492.28 214.91 1492.28 340.62 1468.01 333.9 1468.01 214.91 1492.28 214.91"/>
    <polygon class="st36" points="1492.28 354.05 1492.28 446.17 1468.01 434.66 1468.01 347.33 1492.28 354.05"/>
    <path class="st36" d="M1451.33,87.28c3.78-1.1,7.57-2.51,11.38-2.88v117.07c-3.63,1.58-7.65,1.1-11.38.96-1.07-.04-7.21.86-7.21-1.44v-111.79c2.38-.96,4.81-1.22,7.21-1.92Z"/>
    <path class="st36" d="M1446.39,213.95c.13.03.58.97,1.28,1.03,4.99.4,10.03-.44,15.02-.07v117.07c-3.82-.25-7.6-1.79-11.38-2.88-1.01-.29-7.14-1.21-7.23-2.48l.02-110.28c.08-2.91,1.33-2.61,2.28-2.4h0Z"/>
    <path class="st36" d="M1449.43,340.62c.07.02.43.87.92,1,3.8,1.04,7.6,2.05,11.41,2.83.31-.03.95.91.95,1.44v84.92c-3.69-.42-7.37-2.99-11-4.8-1.95-.97-5.27-1.48-6.94-3.06-.46-.44-.63-.95-.64-2.21l.76-81.1c1.5.53,3.05.58,4.55.97h-.01Z"/>
    <rect class="st41" x="1466.87" y="82.49" width=".76" height="118.99"/>
    <rect class="st41" x="1466.87" y="214.91" width=".76" height="118.99"/>
    <path class="st36" d="M551.55,77.69c.78.2,2.18,1.62,3.23,1.91,4.09,1.12,8.22,1.89,12.32,2.89v118.51c0,3.25-5.7.51-6.62.44-6-.43-12.03.4-18.03.04v-124.75c2.97.1,6.15.23,9.1.96h0Z"/>
    <path class="st36" d="M544.72,214.91c7.43-.66,14.94.49,22.38,0v118.99c-5.11,1.69-10.27,2.39-15.39,3.8-.5.14-.84.98-.92,1-2.75.79-5.59,1.05-8.34,1.92v-125.72c.75-.05,1.52.07,2.28,0h-.01Z"/>
    <path class="st36" d="M553.07,350.21c.77-.24,1.65.22,2.46,0,3.86-1.07,7.66-3.6,11.57-2.87v87.32c-5.17.97-10.15,5.12-15.17,7.68-3.1,1.58-6.33,2.94-9.48,3.84v-92.12c3.55-.79,7.1-2.74,10.62-3.84h0Z"/>
    <path class="st36" d="M573.54,213.95c5.67-.87,11.7.56,17.41.11.17,2.02.38,4.01.43,6.1.77,28.28.73,71.54,0,99.87-.06,2.42-.38,4.7-.41,7.12l-18.57,4.84c-.27-.73-.48-1.01-.4-2.3l.02-115.74c.5-.06,1.02.08,1.52,0h0Z"/>
    <path class="st36" d="M573.54,84.4c5.78.57,12.03,4.13,17.83,5.34l-.43,111.62c-5.66-.81-11.37,2.14-17.03,1.06-1.09-.21-1.95.59-1.92-3.31l.02-114.72c.5.02,1.02-.04,1.52,0h0Z"/>
    <path class="st36" d="M574.3,344.46c2.2-.64,15.88-5.76,16.62-4.64.04.06.44,2.12.44,2.24v77.73c0,.61-.5,2.59-.91,2.56l-17.67,9.43c-.23-.22-.81.56-.77-.57v-83.44c-.06-4.39,1.15-2.98,2.28-3.31h0Z"/>
    <rect class="st16" x="593.64" y="90.16" width=".76" height="111.31"/>
  </g>
</svg>