<?xml version="1.0" encoding="UTF-8"?>
<svg id="Ebene_1" xmlns="http://www.w3.org/2000/svg" version="1.1" viewBox="0 0 2034.72 1149.12">
  <!-- Generator: Adobe Illustrator 29.6.0, SVG Export Plug-In . SVG Version: 2.1.1 Build 207)  -->
  <defs>
    <style>
      .st0 {
        fill: #cccccb;
      }

      .st1 {
        fill: #848d79;
      }

      .st2 {
        fill: #100b09;
      }

      .st3 {
        fill: #130c07;
      }

      .st4 {
        fill: #fcfcfc;
      }

      .st5 {
        fill: #c9dce0;
      }

      .st6 {
        fill: #d9d8d7;
      }

      .st7 {
        fill: #080605;
      }

      .st8 {
        fill: #c9c9c9;
      }

      .st9 {
        fill: #a6a6a6;
      }

      .st10 {
        fill: #060504;
      }

      .st11 {
        fill: #050505;
      }

      .st12 {
        fill: #a7472b;
      }

      .st13 {
        fill: #dddcdb;
      }

      .st14 {
        fill: #1b1614;
      }

      .st15 {
        fill: #f3f2f1;
      }

      .st16 {
        fill: #bbbbba;
      }

      .st17 {
        fill: #f9f9f9;
      }

      .st18 {
        fill: #cac8bb;
      }

      .st19 {
        fill: #efefee;
      }

      .st20 {
        fill: #7d532f;
      }

      .st21 {
        fill: #195113;
      }

      .st22 {
        fill: #0d0705;
      }

      .st23 {
        fill: #ae6f44;
      }

      .st24 {
        fill: #fff9e5;
      }

      .st25 {
        fill: #12100d;
      }

      .st26, .st27 {
        fill: #b07345;
      }

      .st26, .st28 {
        stroke: #000;
        stroke-miterlimit: 10;
      }

      .st29 {
        fill: #0c0704;
      }

      .st30 {
        fill: #ddd;
      }

      .st31 {
        fill: #020100;
      }

      .st32 {
        fill: #030201;
      }

      .st33 {
        fill: #010000;
      }

      .st34 {
        fill: #fafaf9;
      }

      .st35 {
        fill: #af7044;
      }

      .st36 {
        fill: #e5f8fd;
      }

      .st37 {
        fill: #c6c6c6;
      }

      .st38 {
        fill: #fefefe;
      }

      .st39 {
        fill: #fafafa;
      }

      .st28 {
        fill: #c88950;
      }

      .st40 {
        fill: #dcdbda;
      }

      .st41 {
        fill: #bebebe;
      }

      .st42 {
        fill: #414141;
      }
    </style>
  </defs>
  <rect class="st4" y="0" width="2034.72" height="810.01"/>
  <path class="st24" d="M1434.17-.04l3,.92v420.1l-3,1.2-1.44,1.92h-824.07l-1.88-1.92c-.83-.1-1.47-.2-1.47-.3-.25-138.9.09-283.28,1.47-421.92h827.39,0Z"/>
  <g>
    <path class="st11" d="M1242.81,258.09h.04c1.04.43,1.98-1.19,2.28-2.16l.69-10.09c19.32,10.53,42.04,10.34,61.41-.25-.46,2.58.28,12.77,2.79,13.62l.69-.19c1.74-1.42-.41-2.56-.61-4.32.58.11,1.18-.28,1.69-.28,3.8-.02,8.61,1.04,12.63,1.2,6.99.27,14.45-.22,21.36-1.28,11.06-1.7,22.69-4.66,27.35-16.3.56-.06.24.65.21.99-.38,4.13-1.52,7.95-3.48,11.56-.36.65-2.53,3.41-2.17,3.8,2.42-.78,4.94-1.12,7.39-1.84,4.72-1.39,8.6-3.32,12.6-6.23,12.31-8.96,20.9-23.08,22.83-38.5l.81,2.72c.58,3.34.81,6.71.71,10.1l-.77,11.86c11.26-13.11,14.05-29.41,13.43-46.44-.66-18.13-5.13-35.35-10.49-52.51-10.24-32.79-25.59-62.7-46.84-89.37-19.73-24.76-50.36-46.47-83.17-36.64-1.37.41-5.36,2.26-6.26,2.26-.8,0-6.07-2.63-7.53-3.12-32.92-10.98-70.6,17.52-89.09,43.41-18.56,26-34.17,57.7-44.4,88.16-7.92,23.54-13.32,45.07-8.65,70.24,1.73,9.38,5.65,17.97,12.42,24.62-.22-2.41-.82-4.82-1.05-7.25-.47-4.94-.25-9.84.34-14.76l.86-3.59c1.62,12.1,7.01,23.63,14.93,32.7,8.27,9.49,18.6,14.57,31.22,14.49.23-.2-2.78-4.74-3.07-5.34-1.27-2.64-2.51-6.47-2.88-9.39-.05-.42-.41-1.83.21-1.92,3.97,11.02,15.03,14.3,25.29,16.25,11.82,2.24,24.06,2.22,35.81-.45.9.62.29,1.86-.04,2.68-.26.67-1.77,1.34.48,1.57h.03Z"/>
    <path class="st27" d="M1376.72,490.09v-.02c9.32.53,21.08.39,30.46,0-.16-1.85-.47-3.68-.94-5.48l-14.23-47.68c-4.5-13.03-6.6-26.24-6.37-39.89.13-13.54.09-27.13-.97-40.75l-.81-.38c-9.27,3.19-20.92-.29-30.02,2.57-.17.05-.38.37-.46.52-1.11,2.23-1.09,7.45-2.04,9.76-.3.73-1.33,1.96-1.71,2.65-.68,1.25-1.79,3.87-2.32,5.19-.35.87-.99,2.64-1.27,3.53s-.75,2.72-.94,3.64c-.16.74-.65,2.24-.5,2.98.13.59,1.33,1.43,1.33,2.04-.05,5.96.38,16.54.75,19.2,1.89,13.44,5.01,26.17,10.02,38.82,5.66,14.28,12.31,28.16,18.98,41.95l1.03,1.33v.02h0Z"/>
    <path class="st33" d="M1355.29,359.73l25.77-3.22h3.18c.08,2.82.17,5.66.3,8.48.2,4.36.53,8.88.62,13.25.35,17.27-1.45,31.31,3.23,48.22,5.88,21.31,12.87,42.32,18.78,63.62.4-.02,1.41.26,1.15-.41l-19.71-66.84c-3.55-15.88-2.14-33.13-2.58-49.5-.16-5.73-.17-11.4-.6-17.13l5.08-.66c.28-13.57-1.31-27.65-5.3-40.6-10.38-33.72-30.44-40.97-61.3-49.59-2.72-.76-6.76-1.19-9.06-2l-.88.06c-16.99,23.33-58.06,21.87-74.69-1.07l-.74.09h.03c-.14-.13-.12-.45-.5-.56-19.15.59-40.48,5.29-56.79,15.86-17.49,11.34-25.82,32.28-30.04,52.26-.85,4.02-2.1,9.38-2.28,13.41-.17,3.8.91.83,3.33,1.46-1.71,7.38,2.21,20.68,1.03,28.2-1.83,11.6,17.31,21.54,29.74,26.87,3.25,1.4-14.44,3.25-10.98,3.75,8.42,1.22,16.22-3.11,23.94-5.82.83,20.24-8.85,38.11-16.13,56.15-4.72,11.72-9.42,23.8-12.52,36.08l1.24-.18c3.27-12.15,7.79-23.96,12.49-35.59,6.48-16.03,14.99-32.13,16.13-49.83.08-1.32-.31-6.88.3-7.4,28-11.57,48.53,33.47,75.73,20.08,1.1,4.62,5.64-6.04,8.16-1.99.56.89-1.19-12.86-1.11-12.57.39,1.32,9.25,24.95,9.51,26.83.97,7.03,7.85-13.29,14.2-15.05.58-.17,2.27,6.86,2.38,6.93.02.01-.01-7.68.14-7.53,1.13,1.08.33,1.1.49,1.34.13.21,4.22,1.53,4.7,1.54.92.03,3.39-.25,4.36-.42,1.05-.18,3.04,7.51,3.42,7.57.22.04.31-8.32.67-8.09,5.34,3.4,11.43-19.3,13.75-25.38,1.31-1.98.75-9.66.85-11.93,2.93,1.5,7.24,5.86,8.76,8.5-1.3,7.83-2.8,15.63-3.03,23.58-.28,2.15-.29,4.33,0,6.48.59,16.51,8.99,33.51,13.88,49.19,2.11,6.79,3.87,16.64,6.7,22.76.74,1.58,1.81,1.83,1.3-.09-1.92-7.23-4.47-15.23-6.71-22.44-4.92-15.9-13.4-33.02-13.95-49.74-.28-1.94-.28-3.92,0-5.86.18-6.21,1.04-12.77,2.21-18.87.78-6.34,2.46-2.69,1.11,1.14-.55,8.88,1.79,21.65,3.71,30.44,5.09,23.37,17.05,44.67,26.41,66.38.29.39,1.1.17,1.54.19-6.68-14.99-14.18-29.68-20.05-45.04-3.95-10.35-6.73-20.41-8.51-31.4-1.23-7.58-2.42-15.55-1.59-23.2-.81-6.74.13-4.81-1.47-5.86-4.12-2.7-7.6-3.59-3.37-1.19,3.23,1.83-.64,5.1,3.21,4"/>
    <path class="st35" d="M1242.78,258.1v.02c-.07.1.04.59-.17.89-1.03,1.44-2.25,2.93-4.05,3.42.81.83,1.47,2.18,2.26,3.09,16.77,19.17,52.98,20.72,70.6,2.17,1.18-1.25,2.21-3.06,3.45-4.33-1.7-.6-3.23-2.96-4.22-4.32-.19-.27-.61-.41-.96-1.02-2.47-4.29-1.93-8.78-1.9-13.49-2.5,1.13-4.87,2.49-7.4,3.54-17.23,7.17-33.91,6.56-50.87-1.02-.67-.29-3.99-2.26-4.32-1.9l-.69,9.94c.16,1.63-1.27,2.27-1.73,3.01h0Z"/>
    <path class="st9" d="M1340.52,410.48c-.51,1.88-.51,4.6,0,6.48-.07-2.09-.06-4.39,0-6.48Z"/>
    <path class="st42" d="M1341.72,410.79c-.51,1.68-.51,4.2,0,5.86-.06-1.93-.05-3.93,0-5.86Z"/>
    <path class="st23" d="M1314.57,100.18h.03c-8.09-3.09-16.42-5.6-24.5-8.72-16.26-6.29-28.09-13.04-41.82-23.86-1.83-1.44-3.83-3.49-5.61-4.76-.26-.18-.32-.42-.76-.3-5.14,9.15-10.78,18.98-17.38,27.11-1.99,2.45-3.75,3.63-5.85,5.73-9.99,9.99-20.84,21.4-24.64,35.57-1.35,5.04-1.91,10.26-1.9,15.49-1.94-1.28-3.02-4.47-4.67-5.87-2.29-1.93-6.7-3.15-9.63-2.74-3.18.45-7.35,5.3-7.72,8.45-.76,6.35.56,15.22,2.34,21.37.36,1.22,3.28,9.58,3.74,9.91.41.3,1.41-.32,1.47-.27.04.03.16.7.35,1.02,3.93,6.55,9.5,9.57,17.1,9.11.25-.5.36-1,.29-1.57-.21-1.68-1.25-4.21-1.61-6.09-.81-4.13-1.52-8.91-1.36-13.12,0-.37-.24-1.14.29-1.07,3.65,13.12,5.48,26.41,12.02,38.46,11.27,20.77,41.39,42.79,64.49,46.02,13.64,1.9,33.55-4.2,45.56-11.01,15.15-8.6,29.24-24.61,35.92-41,3.95-9.71,6.59-20.81,9.42-30.93.51-.08.32.73.29,1.07-.17,2.33-.59,5.03-.95,7.36-.54,3.37-2.1,7.9-2.35,10.89-.16,1.82.31,2.11,1.94,2.27,6.3.62,14.24-5.83,17.77-10.82,5.2-7.33,7.02-21.83,6.23-30.68-.53-5.8-5.85-9.4-11.33-8.78-2.86.32-6.76,3.62-8.24,6.07-.87,1.44-1.17,3.22-2.17,4.42.25-12.72-5.31-25.29-14.93-33.31-.02,1.29,1,2.52,1.06,3.85.03.64-.19.56-.71.41-.9-.26-4.58-3.92-5.84-4.83-11.73-8.52-25.37-7.37-38.7-4.07-.52-4.04,4.67-7.99,7.94-9.31l4.42-1.48h0Z"/>
    <path class="st38" d="M1389.39,354.65l-.02-.03c0-25.23-5.67-57.18-27.17-72.62-4.93-3.54-10.49-6.03-16.11-8.21-9.81-3.8-20.06-6.45-30.19-9.22-2.07,1.66-3.7,4.01-5.72,5.83-18.41,16.48-51.04,15.23-68.47-2.14-1.03-1.02-3.23-4.22-3.89-4.66-1.54-1.03-12.28.31-14.76.68-13.49,2-29.34,6.91-40.89,14.33-21.18,13.6-28.7,41.09-32,65.06,4.79.62,9.58-.26,14.35-.16,8.41.18,17.64,1.85,25.7,4.25,1.24.37,8.69,3.21,9.11,2.85,1.44-6.96,2.93-13.91,4.14-20.91.94-5.44,1.33-12.29,2.59-17.41.36-1.43,1.02-.71,2.33-.84l-12.36,59.88c-2.11,17.14,3,22.72.53,39.14-22.91,151.97,61.28,85.63,67.42,87.8,23.33,8.23,70.32,7.76,86.79,4.21,25-5.38-10.17-58.42-10.45-82.35-.18-16.24.29-11.73,2.9-31.33.19-1.47,5.05-19.41,6.5-18.74,4.8-12.54,4.28-27.29,1.03-40.22-.51-1.99-1.87-5.06-2.09-6.82-.11-.91,1.67-.27,2.24-.47,3.63,11.24,4.88,23.05,4.39,34.88l34.09-2.78h0Z"/>
    <path class="st28" d="M1379.58,356.54c1.35-.35,2.55-.06,3.24-1.62,1.24-2.85-3.61-6.2-5.63-7.65-1.44-1.04-5.05-4.11-6-1.33-1.35,3.97,2.15,9.43,5.94,10.34l.25.35"/>
    <path class="st26" d="M1368.03,409.37"/>
    <path class="st26" d="M1380.53,357.18l-2.25-.58c-1.11-.42-2.83-1.76-3.5-2.39-1.89-1.79-3.59-5.06-2.98-7.69.19-.8,1.14-1.51.39-2.25-18.53-12.18-37.67-24.6-58.03-33.34-17.88-7.67-30.28-10.29-48.18-.39-20.62,11.41-40.32,25.7-60.98,37.12-2.75,1.51-5.9,2.7-8.53,4.17-8.03,4.48-15.67,9.71-23.36,14.73-.82.33-.34-.27-.11-.55,3.37-3.97,9.27-7.25,13.74-9.92,2.06-1.23,4.45-2.11,6.4-3.61.36-.26,3.55-.97,3.24-1.67-8.75-3.8-30.77-8.32-44.02-5.96.8,13.97-.14,45.1,9.16,56.64,4.33,5.39,8.4,5.93,14.8,6.12,16.51.48,22.12-6.72,34.04-16.38,8.38-6.79,16.69-13.77,24.91-20.77,13.66-11.61,27.21-23.41,40.25-35.72l-1.66-5.46,2.61,3.15c3.35,6.84,7.3,13.15,14.23,16.56,2.18,1.07,3.87.51,4.72,3.57.5,1.82-1.04-2.53-2.91-2.25-.31-1.1.29.42-.5,1.1-.34.29-.53.71-.4,1.13l1.04,3.43c.24.8,2.3,2.9,3.08,3.42,3.64,2.41,14.12,2.2,15.09-3.12.56-3.1-1.16-7.94-4.81-13.38-.21-.3-.55-1.02-.03-1.11,2.45,3.92,4.79,7.97,5.71,12.6.53,2.66-1.06,3.9,2.3,4.48,2.78.49,7.78-1.1,9.27-3.62,1.14-1.95.89-4.29.41-6.42-.75-3.32-2.04-6.61-2.71-9.97.29-.03.06-.11.17-.05.19.08,1.6,3.31,1.79,3.8,1.55,4.09,2.14,8.78,1.46,13.06,2.96,1.15,5.62.88,8.02-1.21,5.74-4.99.43-14.69-1.42-20.58,5.4,2.66,4.75,2.04,6.06,2.92,1.02.69.57.42,1.94,1.1,10.63,5.26,35.25,24.3,41.73,19.55"/>
    <path class="st34" d="M1251.54,153.22h0c2.36-11.18-6.62-21.56-17.22-23.32-19.79-3.29-34.53,19.38-19.58,34.43,5.47,5.94,15.6,7.26,23.07,5.55l-.75-.31-.81-.52c-14.18,1.57-22.89-16.95-10.61-26.07,11.31-8.4,28.27,2.68,23.19,16.72l.29.92c.25.68.68-.46.75-.62.91-2.18,1.51-4.4,1.66-6.78h.01Z"/>
    <path class="st17" d="M1302.19,150.6h0c-1.02,11.24,8.43,18.9,18.85,19.39,1.04.3.83.16,2.3.38.56-.17,1.51.29.87-.03l-.38-.68c-15.45-2.84-15.87-24.7-.26-28.15,10.21-2.26,18.23,4.48,18.75,14.94-.73.14-1,.49-.3.93-.33,1.17-.68,2.38-1.02,3.61,1.29,1.87,2.79-4.03,3-5.07,1.61-7.77-.09-14.22-5.94-19.62-12.71-11.72-35.71-4.17-35.85,14.29h-.02Z"/>
    <path class="st32" d="M1250.63,201.65v-.02c-.51-.51-6.48,1.4-6.33,3.08.78.17,1.68-.65,2.27,0,.44.49,1.95,6,2.51,7.32,10.88,25.87,46.96,25.81,55.35-1.2.12-.41.17-1.41.22-1.46.17-.18,3.01.09,3.6-.02,0-1.56-1.35-1.62-2.57-1.56-2.84.14-7.1,1.71-10.29,2.14-15.4,2.06-31.9.28-45.95-6.59,0-.13,1.84-1.05,1.19-1.69h0Z"/>
    <path class="st31" d="M1251.82,109.11c.14-3.84-3.63-7.87-6.73-9.61-7.37-4.15-16.95-1.64-23.7,2.7-5.49,3.52-11.55,10.23-12.09,17.09.29.4,4.82-4.52,5.28-4.93,8.05-7.14,17.21-9,27.66-7.32,3.22.52,6.3,1.85,9.59,2.07h-.01Z"/>
    <path class="st2" d="M1251.53,153.22c1.97-2.57.98-6.92.15-9.87-5.49-19.59-32-20.34-41.72-3.8-5.29,9.01-3,17.28,3.87,24.31.13.14.77,1.08.9.46-10.42-11.3-5.14-28.74,9.11-33.09,14.67-4.48,28.71,6.19,27.69,21.99h0Z"/>
    <path class="st25" d="M1336,167.42h-.02c7.85-3.95,10.35-11.64,9.65-20.2-.55-6.72-6.98-13.87-12.86-16.46-14.38-6.33-29.4,1.91-30.88,18.01-.04.5-.19,1.38.3,1.69,1.97-21.42,30.26-26.4,40.06-7.81,2.62,4.97,1.96,13.02-.55,17.98-.55.07-.22-.62-.16-.94.17-.86.37-1.52.48-2.45-.08-.31-.27-.48-.57-.48-.76,2.48-1.76,4.96-3.05,7.26-.93-.26-2.09,1.01-1.51,1.85-.97.68-1.27,1.2-.9,1.54h.01Z"/>
    <path class="st22" d="M1271.4,176.94v.02c.81-1.32-1.81-3.24-3.1-2.98-.43.08-3.1,3.21-3.5,3.79-1.94,2.79-3.25,6.35-.92,9.25,5.48,6.81,19.63,5.76,25.88.53,1.01-.85,1.66-2.67-.05-2.55-.96.07-4.69,1.69-6.14,2.07-5.25,1.38-8.01,2-13.4.61-4.49-1.16-6.74-1.8-3.8-6.79.86-1.46,1.67-2.13,3.05-3.05.4-.27,1.92-.81,1.98-.9h0Z"/>
    <path class="st14" d="M1249.12,160.63c6.23-15.18-12.4-27.35-24.41-17.71s-2.92,28.95,12.34,26.66c4.34-.66,10.34-4.73,12.07-8.95h0Z"/>
    <path class="st3" d="M1361.33,171.73c6.61.42,2.67-9.17,4.08-12.33.14-.31,2-1.76,2.46-2.11.65-.5,5.69-3.19,4.03-4.23-2.99-1.87-8.85,4.51-9.53,7.25-1.06,4.28,2.45,8.19-1.04,11.42h0Z"/>
    <path class="st29" d="M1190.29,171.11h0c.45-1.64-.8-3.45-.89-4.82-.08-1.21.57-3.35.57-4.62,0-2.23-.43-4.08-1.79-5.82-1.64-2.11-4.24-3.68-6.92-3.86-.13.58.32.73.6,1.08.93,1.16,5.61,5.31,5.86,6,.2.54-.42,2.71-.45,3.55-.04,1.29-.17,3.78.03,4.93.11.61,2.53,4.1,3,3.56h-.01,0Z"/>
    <path class="st20" d="M1342.3,155.93c-.4-11.26-10.16-17.87-20.7-13.94-17.39,6.49-8.76,32.02,9.05,27.28.28-.67-.5-.66-1.2-.93l-.22-.74c-11.69-3.04-6.14-16.78,4.45-14.59l1.19-.4.42.66c1.92-.32,2.74.67,2.81,2.6v.49l.28.65c.36,2.08.6,4.23-.21,6.23l.32.78c1.63-2,3.46-6.74,3.46-6.74,0,0,0-.2.38-.97l-.03-.38h0Z"/>
    <path class="st25" d="M1342.32,156.32h-.01c.32-8.15-5.14-14.83-13.16-15.69-12.73-1.37-21.93,10.97-15.35,22.79,1.81,3.25,6.78,6.38,10.41,6.78.93.1,5.98-.03,6.34-.93-8.04-.02-15.47-1.3-17.65-10.49-3.13-13.22,11-21.14,21.88-15.58,3.75,1.91,7.42,8.92,7.54,13.11h0Z"/>
    <path class="st39" d="M1298.89,209.97h.01c-3.6.3-7.09,1.33-10.71,1.54-7.82.45-15.14.35-22.78-1.38-4.32-.98-8.44-2.55-12.66-3.86-.38.38,2.98,4.72,3.46,5.25,10.26,11.36,31.7,12.77,41.63.31.22-.28,1.3-1.62,1.05-1.85h0Z"/>
    <path class="st12" d="M1256.66,221.08h0c7.82,9.39,22.89,11.95,32.87,4.78-8.25-4.62-18.11-4.61-27.3-4.77-1.79-.02-3.66-.75-5.57,0h0Z"/>
    <path class="st10" d="M1334.8,152.64h-.01c-2.72-.55-3.55-.78-6.4.09-4.01,1.23-6.23,3.86-6.29,8.47-.07,5.18,3.58,6.44,7.26,7.92,2.74.14,5.27-1.1,7.54-2.59.61-.89.91-1.16,1.51-1.94,1.19-2.76.92-5.24.3-8.08l-.79-.19c-2.15,3.04-5.96-.53-3.11-2.95l-.02-.73h.01Z"/>
    <path class="st20" d="M1245.81,163.71h.01c.13.62.8-.34.9-.47,9.4-12.48-5.43-28-18.76-21.34-15.17,7.57-6.38,30.35,9.86,26.75l-.46-.62-.5-.65c-10.93-2.28-6.74-17.17,3.53-14.74l.58-.34.7.29c1.89-.45,3.19.27,3.38,2.26.03.26.23.43.45.54l-.21.69c.96,2.18,1.11,4.72.18,6.94l.33.69h.01Z"/>
    <path class="st7" d="M1240.96,152.31h-.01c-1.63-1.36-5.1-.34-6.83.56-7.29,3.8-4.78,14.85,3.22,15.17,2.7.11,7.09-1.85,8.44-4.32,1.27-2.33,1.2-6.13-.3-8.33l-.67-.02c-1.96,2.68-5.37.42-3.57-2.43l-.27-.64h0Z"/>
    <path class="st19" d="M1338.71,156.31h0c-.23-1.05-.1-2.21-1.04-3.09-1.02-.94-1.88-.42-2.88-.61-3.19,1.69-1.21,5.92,1.89,5.18.88-.21,1.29-1.06,2.02-1.48h.01Z"/>
    <path class="st15" d="M1245.51,155.38c1.11-2.41-2.58-4.6-4.53-3.08-.19.15-.62,1-.7,1.28-1.01,3.76,3.78,4.9,5.22,1.8h.01Z"/>
  </g>
  <rect class="st4" x="12" y="444.32" width="2014" height="365.69"/>
  <path class="st21" d="M2034.16,644.01c.84,163.3.84,336.77,0,500.93l-.93,4.62H1.14l-1.22-4.62v-500.93h2034.24Z"/>
  <path class="st18" d="M2034.16,1148.6c.27-.84.59-.83.96,0v.96H-.08v-.96h2034.24Z"/>
  <polygon class="st1" points="2035.12 1148.6 2034.16 1148.6 2034.16 1124.61 2034.16 1100.62 2034.16 1045.92 2034.16 837.69 2035.12 837.69 2035.12 1148.6"/>
  <g>
    <path class="st40" d="M1468.01-.04l.76.88.19,66.64c7.44-1.93,14.89-4.18,22.37-6.76l.19-59.61.76-1.14h17.82v484.13c.15,1.96-2.66,4.12-3.16,4.07-3.67-.31-11.44-7.91-15.43-10.32-.2-1.9.02-2.59.72-2.95-1.15-4.13-1.85-5.14-3.91-5.18-6.53-5.84-13.21-10.99-20.04-13.88-2.53,1.47-3.55.54-5.53-2.95-3.08,2.45-4.72.13-4.93-6.98-1.81-2.44-3.83-4.18-6.05-5.23l-.34-2.27c.46-4.35.45-8.16.28-12.38l1.3-1.28c1.92.43,6.79,2.63,8.6,3.97.45.34.79,1.23,1.1,2.11l-.76-.66v-83.11l.76-1.16c-2.33,1.01-12.84-1.61-13.23-3-.17-.62-.11-1.51-.04-2.28-.07-1.57.47-2.32,1.6-2.24-.32-3.94-.22-7.03.3-9.28,2.75-1.78,6.93-.52,9.9.8.57.25,1.04,1.18,1.48,2.08l-.76-.66v-115.24l.76-1.17c-2.2,2.37-15.47,3.28-16.18,1.31-.21-.58-.19-1.48-.13-2.27l.33-1.92,4.15-.11c-.46-4.43-.32-7.59.45-9.49l1.2-1.87c2.02-.55,6.93-.91,8.92-.56.47.08.88.77,1.26,1.47l-.76-.66v-115.24l.76-1.17c-3.29,3.36-7.94,4.91-11.38,2.88l-.51-1.44c.17-3.38.27-7.25-.62-10.07l.92-2.28c3.57-1.94,7.18-3.09,10.84-3.68V1.11l.76-1.15h5.31-.03,0Z"/>
    <path class="st30" d="M606.54-.04v422.22h821.65V-.04h2.28l.52,6.75c.07,133.92.08,268.46.02,403.64l-.29,24.04c1.04.06,2.28,4.46,1.9,6.62,3.69,1.54,7.37,4.07,10.98,6.67.37.26.71.79,1.05,1.34s.68,1.24.99,1.95l-2.83,1.01-850.14.02-2.06-1.98c-.39-2.45-.04-2.64.76-.96l.52-1.63c4.54-2.54,8.92-5.6,13.16-9.19l.36-437.08.76-1.2h.38-.01Z"/>
    <path class="st37" d="M1441.09-.04l.76.64.37,75.46c1.03-1.2,1.79-.98,2.28.67.83-3.33,4.57-3.6,5.69-.96.29.1.99-.29,1.11.05.22.62.7,10.05.03,11.46-1.74,3.48-5.18,4.1-7.21,1.92l.76.66v109.97l-.76,1.16c2.16-.47,4.4-.63,6.73-.47l.48,1.91.38,11.52h-5.31c-.26,1.1-.77,1.97-1.53,2.62v108.85l6.07,1.66.39,2.02c.48,1.61.55,11.12.38,11.52-.13.31-1.81-.22-2.28,0-1.02,1.57-2.3,2.12-3.82,1.63l-.75,78.79c2.12,1.36,4.28,2.32,6.5,2.88l.35,2.11c2.07,3.66.05,11.48.56,13.46.18.71,5.19,1.21,6.19,5.44.31,1.3.65,6.54.87,6.93.33.6,2.54-1.2,3.54-.85,1.29.46,1.77,3.29,2.38,3.65.69.4,2.2-1.25,3.63-.59,6.4,2.97,13.14,7.83,19.3,13.53.92.85,2.03.32,2.88,1.34.8.95.88,3.49,1.97,4.61s5.57,2.06,6.08,3.34c.36.91.09,2.01-.56,1.91-2.53-.39-4.78-4.66-7.02-.96-15.26-9.24-30.66-17.35-45.89-26.87-4.46-2.79-8.9-6.13-13.41-8.58-.38-4.07-.75-5.31-2.15-7.45.88-106.66.05-213.63-.01-320.26-.02-38.29.54-76.43.4-114.72h10.62Z"/>
    <path class="st8" d="M542.45-.04l.76.88.05,59.73c2.22,1.09,4.6,1.87,7.14,2.35l1.15,2.29c2.66.66,2.88,13.72,0,12.47l-1.54,1.59c-2.31-.69-4.57-.68-6.8.03v120.98l-.76,1.18c3.08.63,6.17.77,9.28.44,2.23-1.25,2.15,10.15,1.07,12.18-2.7.04-5.39.31-8.07.82-.31,1.25-.81,2.11-1.52,2.57v120.56c2,.01,4-.28,6.01-.87l1.58,1.52c.76-.45,2.4-1.29,2.94-.08.19.42.48,11.91-.66,11.6-2.83,4-7.54,6.24-10.62,3.84l.76.67v90.28l-.76,1.17c2.67-3.75,6.5-5.34,9.48-3.84,1.16-.35,1.67,1.49,1.55,5.53-.43,5.58-.03,7.6,1.21,6.07,2.96-3.27,4.82-2.13,5.59,3.42,9.74-4.87,19.42-10.16,29.04-15.88,2-1.02,4.05,4.56,2.05,7.58-.34.21-.61.87-.76.96-1.75,1.08-3.56,1.79-5.31,2.88l-1.14.96c-17.15,10.6-34.37,20.68-51.58,30.71-1.41,1.14-2.17.65-2.28-1.48V1.15l.77-1.2h11.38-.01Z"/>
    <path class="st6" d="M572.03-.04l.76.88v68.58l.76,2.51c1.75.74,1.63,11.93,0,12.47l-.76,2.59-.02,112.71c.4.71.78,1.62,1.16,2.73,1.18,1.04.81,10.71-.38,11.52l-.76,2.58-.02,113.16-.36,2.3c2.53-1.08,3.25,8.92,1.9,12.47.02,1.77-.47,2.43-1.49,1.98-.06,29.46-.08,57.9-.03,85.35,1.69-.85,2.34,2.68,1.94,10.57,2.1.22,4.26-.8,6.36-1.84,6.04-3.64,11.99-7.01,17.86-10.1V1.16l.76-1.2h6.45l-.38,438.07c0,1.3-.24,1.65-.63,2.24-.58.87-4.5,3.55-5.52,4.26-2.71,1.89-5.54,2.83-8.26,4.53.74-9.91-4.04-4.17-5.99-3.16-8.03,4.2-16.24,9.69-24.09,12.15-.37.12-.77,1.63-1.17,1.5-.85-.3-.94-5.09-1.61-5.62-.73-.57-4.48,3.52-5.83,1.85-.34-.85.67-11.69-.76-13.44l1.15-2.57c2.18-1.71,11.9-7.78,13.3-6.23.26.29.49.69.73,1.13l-.76-.67v-85.49l.76-1.17-1.04,1.8c-4.22,1.08-8.4,2.06-12.55,2.93l-.45-1.85v-11.52h-2.28c-.13-.68-.25-1.52-.09-2.09.51-1.83,14.09-4.35,16.4-2.7l-.76-.66v-117.16l.76-1.17-1.31,1.35c-6.08,1-12.3.71-18.43.4-.44-.02-.88-.28-1.32-.57s-.89-.72-1.32-1.18c1.39-2.72,6.55.46,7.53-1.09.57-.91.57-9.14.09-10.82-.57-2.03-8.52,1.09-9.9-1.52.4-.47.79-.91,1.2-1.22s.8-.58,1.2-.61c7.45-.58,15.13-.55,22.25,1.35l-.76-.66v-116.68l.76-1.17c-4.92,1.84-10.44.43-15.12-2.64l-.43-2.16c1.86-.52,1.43-11,0-12.47.43-.37.87-.7,1.32-.9s.88-.38,1.29-.27c3.94,1.07,7.89,2.18,11.8,3.81V1.12l.76-1.16h5.33Z"/>
    <path class="st30" d="M599.71-.04v430.38c-.07,1.97-.73,2.74-1.43,3.11-7.04,1.3-15.44,9.73-22.27,10.84-.7.11-1.41-.1-2.1-.03-.08-2.55.27-10.91-.44-12.35-.21-.43-.55,0-.7-.13l.18-2.06c6.23-3.27,12.37-6.58,18.4-9.94-.3-.08-.75-.36-.76-.89-.24-24.62-.24-51.05,0-75.69l.76-1.15c-1.07-.44-2.2-.47-3.39-.07l-13.12,4.23-.56-1.76c-.08-2.82-.18-7.94-.63-10.35-.28-1.53-.9-1.14-1.26-2.13l.27-2,17.52-4.57c.65-1.04.85-28.16.88-32.68.19-25.65.02-52.65-.45-77.29-5.01.55-10.31.9-15.36.23-.63-.08-1.2-.93-1.73-1.72l.38-11.52,1.33-1.74c5.01-.17,9.99-.8,14.94-1.91l.41-107.26-15.6-4.99-1.46-2.13c.45-3.93.71-8.64,0-12.47.98-.57,1.98-1.15,2.99-.93l13.7,3.58V1.12l.76-1.16h8.74,0Z"/>
    <path class="st0" d="M528.41-.04l.52,26.76c.21,151.53.33,303.07.38,454.61.85,1.44,1.06,3.15.62,5.15-1.86.84-2.98,1.23-4.91-.05-.21-10.98.38-22.18-.41-33.02l.02-453.45h3.79-.01Z"/>
    <polygon class="st36" points="1492.28 -.04 1492.12 62.39 1468.21 70.03 1468.01 -.04 1492.28 -.04"/>
    <path class="st36" d="M566.72-.04v70.05c-5.03-2.03-10.12-3.27-15.17-4.79-2.7-.81-5.42-1.89-8.16-1.91l-.89-1.58-.05-61.76h24.27,0Z"/>
    <path class="st36" d="M590.99-.04v76.77c-5.81-1.43-11.67-2.73-17.45-4.8-.48-.17-1.03.13-1.52,0V-.04h18.97Z"/>
    <path class="st36" d="M1462.7-.04v71.97c-2.05,0-4.17.43-6.21,1.08s-4.23,2.09-6.3,2.76c-1.75.56-3.92.38-5.69.96l-.76-.89V1.12l.76-1.16s18.2,0,18.2,0Z"/>
    <path class="st13" d="M531.07-.04v484.04l1.52.56c-.66,1.24-1.83,1.54-2.65,1.92l-1.34-4.77c-.43-160.49-.06-321.19-.18-481.75h2.65Z"/>
    <path class="st5" d="M1444.5-.04v76.77c-.87.28-2.14,1.35-3.03,1.92l-.38-78.69s3.41,0,3.41,0Z"/>
    <path class="st30" d="M585.3,452.89c-.19.12-.64.65-1.14.96l1.14-.96Z"/>
    <polygon class="st36" points="1492.28 76.73 1492.28 201.48 1468.01 201.48 1468.01 82.49 1492.28 76.73"/>
    <polygon class="st36" points="1492.28 214.91 1492.28 340.62 1468.01 333.9 1468.01 214.91 1492.28 214.91"/>
    <polygon class="st36" points="1492.28 354.05 1492.28 446.17 1468.01 434.66 1468.01 347.33 1492.28 354.05"/>
    <path class="st36" d="M1451.33,87.28c3.78-1.1,7.57-2.51,11.38-2.88v117.07c-3.63,1.58-7.65,1.1-11.38.96-1.07-.04-7.21.86-7.21-1.44v-111.79c2.38-.96,4.81-1.22,7.21-1.92Z"/>
    <path class="st36" d="M1446.39,213.95c.13.03.58.97,1.28,1.03,4.99.4,10.03-.44,15.02-.07v117.07c-3.82-.25-7.6-1.79-11.38-2.88-1.01-.29-7.14-1.21-7.23-2.48l.02-110.28c.08-2.91,1.33-2.61,2.28-2.4h0Z"/>
    <path class="st36" d="M1449.43,340.62c.07.02.43.87.92,1,3.8,1.04,7.6,2.05,11.41,2.83.31-.03.95.91.95,1.44v84.92c-3.69-.42-7.37-2.99-11-4.8-1.95-.97-5.27-1.48-6.94-3.06-.46-.44-.63-.95-.64-2.21l.76-81.1c1.5.53,3.05.58,4.55.97h-.01Z"/>
    <rect class="st41" x="1466.87" y="82.49" width=".76" height="118.99"/>
    <rect class="st41" x="1466.87" y="214.91" width=".76" height="118.99"/>
    <path class="st36" d="M551.55,77.69c.78.2,2.18,1.62,3.23,1.91,4.09,1.12,8.22,1.89,12.32,2.89v118.51c0,3.25-5.7.51-6.62.44-6-.43-12.03.4-18.03.04v-124.75c2.97.1,6.15.23,9.1.96h0Z"/>
    <path class="st36" d="M544.72,214.91c7.43-.66,14.94.49,22.38,0v118.99c-5.11,1.69-10.27,2.39-15.39,3.8-.5.14-.84.98-.92,1-2.75.79-5.59,1.05-8.34,1.92v-125.72c.75-.05,1.52.07,2.28,0h-.01Z"/>
    <path class="st36" d="M553.07,350.21c.77-.24,1.65.22,2.46,0,3.86-1.07,7.66-3.6,11.57-2.87v87.32c-5.17.97-10.15,5.12-15.17,7.68-3.1,1.58-6.33,2.94-9.48,3.84v-92.12c3.55-.79,7.1-2.74,10.62-3.84h0Z"/>
    <path class="st36" d="M573.54,213.95c5.67-.87,11.7.56,17.41.11.17,2.02.38,4.01.43,6.1.77,28.28.73,71.54,0,99.87-.06,2.42-.38,4.7-.41,7.12l-18.57,4.84c-.27-.73-.48-1.01-.4-2.3l.02-115.74c.5-.06,1.02.08,1.52,0h0Z"/>
    <path class="st36" d="M573.54,84.4c5.78.57,12.03,4.13,17.83,5.34l-.43,111.62c-5.66-.81-11.37,2.14-17.03,1.06-1.09-.21-1.95.59-1.92-3.31l.02-114.72c.5.02,1.02-.04,1.52,0h0Z"/>
    <path class="st36" d="M574.3,344.46c2.2-.64,15.88-5.76,16.62-4.64.04.06.44,2.12.44,2.24v77.73c0,.61-.5,2.59-.91,2.56l-17.67,9.43c-.23-.22-.81.56-.77-.57v-83.44c-.06-4.39,1.15-2.98,2.28-3.31h0Z"/>
    <rect class="st16" x="593.64" y="90.16" width=".76" height="111.31"/>
  </g>
</svg>