<?xml version="1.0" encoding="UTF-8"?>
<svg id="Ebene_1" xmlns="http://www.w3.org/2000/svg" version="1.1" viewBox="0 0 2034.72 1149.12">
  <!-- Generator: Adobe Illustrator 29.5.1, SVG Export Plug-In . SVG Version: 2.1.0 Build 141)  -->
  <defs>
    <style>
      .st0 {
        fill: #0e0806;
      }

      .st1 {
        fill: #27201b;
      }

      .st2 {
        fill: #090605;
      }

      .st3 {
        fill: #cccccb;
      }

      .st4 {
        fill: #848d79;
      }

      .st5 {
        fill: #110c0a;
      }

      .st6 {
        fill: #fafaf6;
      }

      .st7 {
        fill: #120f0d;
      }

      .st8 {
        fill: #130c07;
      }

      .st9 {
        fill: #fcfcfc;
      }

      .st10 {
        fill: #c9dce0;
      }

      .st11 {
        fill: #080808;
      }

      .st12 {
        fill: #0d0805;
      }

      .st13 {
        fill: #d9d8d7;
      }

      .st14 {
        fill: #f1efee;
      }

      .st15 {
        fill: #080605;
      }

      .st16 {
        fill: #29221d;
      }

      .st17 {
        fill: #c9c9c9;
      }

      .st18 {
        fill: #070604;
      }

      .st19 {
        fill: #060504;
      }

      .st20 {
        fill: #050505;
      }

      .st21 {
        fill: #eeeeec;
      }

      .st22 {
        fill: #dddcdb;
      }

      .st23 {
        fill: #ae7044;
      }

      .st24 {
        fill: #bbbbba;
      }

      .st25 {
        fill: #f9f9f9;
      }

      .st26 {
        fill: #cac8bb;
      }

      .st27 {
        fill: #7d532f;
      }

      .st28 {
        fill: #195113;
      }

      .st29 {
        fill: #fff9e5;
      }

      .st30 {
        fill: #493e36;
      }

      .st31 {
        fill: #ddd;
      }

      .st32 {
        fill: #0e0805;
      }

      .st33 {
        fill: #385b77;
      }

      .st34 {
        fill: #fafaf9;
      }

      .st35 {
        fill: #b46f3c;
      }

      .st36 {
        fill: #e5f8fd;
      }

      .st37 {
        fill: #c6c6c6;
      }

      .st38 {
        fill: #cb050b;
      }

      .st39 {
        fill: #dcdbda;
      }

      .st40 {
        fill: #bebebe;
      }
    </style>
  </defs>
  <path class="st29" d="M1284.93.6l1.92,427.41-1.92,1.24-.92,1.99h-526.84s-1.2-1.99-1.2-1.99c-.53-.1-.94-.21-.94-.31-.16-143.74.06-293.15.94-428.34h528.96"/>
  <g>
    <path class="st20" d="M1156.8,283.35c2.01,2.49,16,5.07,20.19,6.55,25,8.84,38.3,19.47,49.32,46.45,7.05,17.25,12.47,35.48,19.35,52.82.46,3.41-7.47,7.25-10.01,8.67,1.93,10.83,4.11,21.78,5.8,32.77,4.5,29.25,6.35,59.38,11.09,88.44,3.89,23.85,12.38,51.17.26,74.12-3.62,6.85-5.23,6.59-10.47,10.2-1.47,1.01-2.56,3.28-4.76,4.41-3.27,1.68-4.16.45-6.61.79-.85.12-2.98,2.29-4.44,2.64-3.4.8-5.76-.22-5.58-4.42.34-7.93,6.87-20.75,7.6-29.4v-13.16l-3.32,12.47c-1.88,3.65-6.6,11.73-10.5,12.04-7.77.62-2.41-11.62-1.5-15.81,2.5-11.58,1.18-22.84,4.47-34.12,1.3-4.44,4.7-10.02,4.68-14.56-.02-3.47-1.62-9.49-2.33-13.15-2.92-15.01-6.81-30.43-10.2-45.39-.16-.7.03-1.99-.8-1.84l3.81,37.66c.68,3.57-9.11,5.5-9.26,6.15-.15,9.96.31,19.98.06,29.94-.16,6.23-.85,12.73-1.1,18.95-2.57,63.3-7.68,126.52-11.93,189.68-.04,3.06-9.09,5-9.23,5.58.37,1.71-.45,7.03.13,8.09.17.31,4.23,1.8,5.16,2.42,1.15.76,4.43,3.42,5.3,4.42,1.7,1.97,2.95,6.6,4.1,7.61,1.54,1.35,6.54,3.51,8.91,5.22,7.61,5.5,16.39,14.18,18.13,24.49.24,2.03.21,4.08,0,6.12-2.88,20.56-24.72,22.55-39.72,20.11-15.62-2.54-42.04-16.14-48.08-33.77-2.48-7.24-.48-20.02,2.16-27.14,1.08-2.9,4.97-8.77,5.4-10.42.28-1.08.3-4.85.11-5.99-.5-3.09-8.45-2.57-9.19-6.75-3.01-60.91-6.92-121.64-11.93-182.34-.38-4.56-.14-9.77-1.05-14.11-.49-.38-4.22-.45-4.37-.27-.16.19-.48,4.38-.53,5.21-4.56,64-9.6,127.98-13.03,192.11,0,3.1-9.07,5.01-9.21,5.61-1.33,5.55,2.66,9.15,4.46,13.9,2.95,7.78,3.41,14.67,3.15,23.06-.44,6.34-3.68,4.94-3.25-.61l-.77-1.48c1.19-6.53-.51-13.18-2.62-19.24-1.76,6.91-12.97,14.32-18.68,10.31-7.08-10.31-21.7-21.46-30.08-6.63,6.87.56,13.62,3.3,18.51,9.24,8.57,13.07-5.28,4.16-9.54-.19-5.51-3.61-12.16-3.93-17.64-.08l-1.46-.5c-1.39-.55-1.21-1.77.54-3.67,1.23-.88,2.99-1.34,4.07-2.44,3.34-3.38,3.75-8.34,8.9-11.36,1.02-.6,5.22-1.92,5.37-2.19.56-1-.28-7.01.11-8.74-1.76-.8-7.42-2.22-8.55-3.57-.61-.73-1.06-5.98-1.22-7.5-3.13-29.29-3.57-59.83-5.43-89.33-2.51-39.96-5.92-79.95-7.06-119.92-.75-6.61,1.08-16.49.03-22.67-.33-1.92-2.75-1.88-4.16-2.64-1.77-.95-4.96-2.31-5.09-4.68l4.37-35.82-11,47.84c-4.83,12.75,3.06,20.95,4.9,32.79,1.37,8.81.38,16.1,2.47,25.36.81,3.61,5.11,13.69,1.7,16.34-5.3,4.11-12.83-8.98-14.41-13.6l-2.6-10.21v11.32c0,8.44,7.03,22.18,7.59,30.6.31,4.64-1.79,5.85-5.67,5.15-1.96-.35-3.4-2.43-4.57-2.7-.83-.19-2.03.44-3.05.35-3.03-.27-4.52-2.06-6.89-3.73-5.38-3.8-9.11-6.35-12.43-13.05-12.08-24.4-1.5-56.2,2.17-81.59,3.92-27.11,5.83-54.62,10.01-81.71,1.64-10.62,3.85-21.17,5.73-31.65-1.85-.45-9.23-5.03-9.62-6.61-.13-.52-.1-1.03.02-1.55,7.59-18.72,13.57-39.22,21.64-57.6,11.52-26.21,30.29-34.09,53.65-42.78,4.37-1.62,10.38-1.88,13.41-5.95"/>
    <path class="st6" d="M1166.86,290.72c7.54,1.53,14.85,4.49,21.82,8.02,17.82,9.01,26.05,16.88,34.38,37.02,7.23,17.48,12.73,36.44,19.88,54.03.19.81-.4,1.12-.88,1.53-9.67,8.27-27.54,12.67-39.51,13.2-1.67-17.06-2.16-34.67-4.41-51.62-.14-1.04-.77-6.88-1.01-7.13-.32-.34-1.94.08-2.11.97l15.39,155.11c-15.62,7.84-34.39,11.54-51.46,13.43-35.44,3.92-82.08,3.41-116.59-6.53-2.57-.74-14.49-4.54-15.81-5.99-.66-.73-.58-1.5-.55-2.43.24-7.71,2.78-18.89,3.73-27.05,4.55-38.94,10.2-80.78,11.98-119.86.12-2.74-.07-5.52,0-8.25-1.58,1.14-1.79,4.5-2.09,6.51-2.54,17.2-2.62,34.94-5,52.17-13.71-.32-28.83-4.51-39.93-13.78,6.85-17.47,12.61-36.04,19.86-53.26,2.37-5.62,5.06-11.83,8.54-16.66,11.48-15.91,31.45-23.19,48.16-29.32,2.83,8.3,5.26,14.82,11.99,19.97,24.56,18.77,73.38,17.11,83.58-20.06Z"/>
    <path class="st33" d="M1202.02,508.52c-.69,11.5-.59,23.08-1.06,34.6-2.18,53.71-5.87,109.08-9.77,162.74-.97,13.37-2.24,26.76-3.5,40.1-15.88,7.64-34.99,7.32-51.08.48-1.88-19.76-2.21-39.7-3.35-59.54-2.61-45.15-6.87-90.17-9.72-135.27-.05-.82-.31-1.39-.56-2.11,2.01.07,14.04-.52,14.07-2.76.02-2.06-7.7-.31-8.9-.28-5.2.14-11.13.29-16.29,0-1.67-.09-8.55-2.11-8.91-.32-.65,3.22,11.4,2.62,11.38,3.67l-14.03,195.88c-.73,1.79-5.16,3.2-6.99,3.73-13.85,4.05-31.33,2.62-44.72-2.82-1.46-10.35-2.28-21.07-3.04-31.58-1.41-19.54-2.01-39.18-3.26-58.73-3.16-49.26-7.29-98.4-7.57-147.79,15.8,5.33,32.51,8.48,49,9.78,23.96,1.89,50.29,1.97,74.17-.61,14.92-1.61,29.7-4.81,44.13-9.17Z"/>
    <path class="st35" d="M1034.72,406.34c-1.91,12.15-2.38,24.63-4.58,36.73-4.29,23.57-11.93,47.43-16.16,71.08-2.58,14.42-.48,12.56,3.28,24.83,3.46,11.28,1.75,20.79,3.97,31.62.73,3.54,2.63,7.76,3.08,11.21,1.32,10.32-7.23-1.07-8.97-4.55-2.77-5.56-2.81-11.09-4.59-16.84-1.55-5.01-3.55-4.86-4.12.51-1.73,16.4,3.27,30.53,7.51,45.89.15,3.39-2.93,1.85-4.61.87-8.8-5.17-14.03-30.49-14.88-41.01-.2-.17-1.21.88-1.36,1.24-.46,1.16.66,9.17.98,11.12,1.59,9.57,5.09,18.59,9.59,26.79-4.04.44-7.35-3.92-9.43-7.39-5.65-9.47-6.53-21.9-7.36-32.99-1.98-2.52-1.66,8.05-1.61,8.86.47,7.74,2.85,16.66,5.95,23.56-1.19.33-1.2-.77-1.73-1.4-17.39-20.59-5.3-58.28-1.67-82.3,3.72-24.65,5.38-50.17,8.91-74.99,1.92-13.49,4.18-26.9,6.95-40.19,9.9,4.05,20.24,7.1,30.86,7.35Z"/>
    <path class="st35" d="M1245.89,597.87c2.18-6.29,4.32-12.73,5.25-19.45.33-2.35,1.44-11.6.15-12.98-.92-.99-.91.23-1.09.89-1.04,3.79-.97,10.05-1.78,14.52-1.4,7.69-4.6,18.34-10.39,23.14-1.38,1.14-3.41,2.5-5.14,1.54,6.98-10.76,10.89-24.87,10.82-38.25-.81-.17-1.23.2-1.51,1.04-.97,2.87-1.42,10.03-2.32,13.9-1.66,7.19-6.54,21.94-12.57,25.56-.95.57-3.77,1.9-4.12.14,2.91-13.32,8.69-26.96,8.1-40.98-.09-2.23-1-14.3-3.93-8.67-4.21,8.08-1.53,17.96-10.16,25.85-1.73,1.58-4.18,3.36-4.27-.6-.08-3.17,3.6-12.63,4.2-17.22,1.38-10.44.14-17.88,3.43-28.55,4.04-13.09,5.06-10.73,2.31-25.55-6.01-32.41-16.34-62.34-19.22-95.77-.27-3.13-.47-6.34-.55-9.48,10.25-.39,20.65-3.35,30.06-7.94,3.01,13.64,5.24,27.51,7.21,41.4,3.96,27.86,5.78,56.56,10.55,84.16.94,5.45,2.56,10.88,3.46,16.28,3.06,18.26,4.66,43.36-8.5,57.03Z"/>
    <path class="st35" d="M1152.21,274.15c.18,9.42,3.13,14.84,11.92,15.3-8.16,31.26-46.92,34.52-69.68,23.97-9.55-4.43-17.76-11.05-20.14-23.14-.25-1.27.15-.5.72-.85,6.5-3.87,8.92-6.78,10.05-15.9"/>
    <path class="st38" d="M1178.88,271.79"/>
    <path class="st38" d="M1180.02,269.24"/>
    <path class="st20" d="M1080.28,285.62c-12.99,3.1-23.45,3.69-36.52.89-10.85-2.32-21.36-6.11-25.76-17.78-.3,6.35,2.81,12.92,6.14,18.1h-6.59c-1.2,0-5.87-1.4-7.29-1.89-19.23-6.56-32.37-30.86-34.76-50.96l-1.35,6.91c.08,7.25-.55,14.6,1.36,21.65-.88.24-.88-.36-1.28-.79-16.22-17.22-15.55-53.79-11.22-75.87,8.33-42.43,31.77-96.33,55.77-131.56,18.68-27.41,57.1-59.38,91.28-48.65,2.16.68,8.59,4.08,9.78,4.07,1.67,0,9.26-3.37,12.12-4,55.15-12.03,98.85,60.69,117.74,105.06,14.28,33.56,32.05,92.61,22.06,128.5-2.21,7.96-6.41,16.67-11.68,22.75.83-6.87,1.02-13.79.92-20.73l-1.38-6.88c-3.33,24.43-20.72,49.22-45.46,51.89,3.04-4.12,5.59-9.71,5.92-14.98.03-.51.32-2.24-.46-2.15-4.21,11.35-14.88,14.96-25.38,16.99-9.73,1.88-18.01,2.09-27.81,1.58-3.04,0-3.95-1.92-6.97-2.24l-2.64-2.2c-1.24.82,1.84,4.93-2.99,1.36l-1.94-5.05c-.44-1.61-.83-5.07-.45-6.16l1.57-1.84c30.4-15.69,45.38-47.56,51.82-81.06,1.13-2.68,2.97-1.24,2.61,1.09-.69,5.46-1.69,10.88-3.01,16.26-2.02,7.48,8.63,1.7,11.28-.16,11.74-8.21,15.41-27.91,13.93-41.75-1.59-14.96-17.93-10.85-20.77,1.09-1.04.46-1.69.68-1.96-.6.12-22.74-14.88-41.04-35.04-48.17-13.36-5.32-26.78-10.48-40.26-15.47-18.55-6.91-35.17-18.43-49.38-32.44-5.86,11.79-12.27,23.86-20.8,33.87-16.24,15.42-31.97,34.93-30.98,59.27-.11,1.49-.8,1.32-2.01.99-3.38-4.91-8.98-11.53-15.49-8.24-11.58,5.86-3.96,32.94.2,42.58.63,0,1.28.01,1.8.51,2.43,4.76,5.44,7.87,10.33,9.81,1.22.48,7.41,2.27,6.58-.46-1.49-4.2-4.07-21.88-2.91-22.72.98-.71,2.07-.25,2.23,1.11l5.22,22.09c6.49,29.98,29.59,52.42,55.29,65.19,18.55,9.22,34.92,8.19,53.94.64l1.71.33c.99-.28,5.06-3.03,4.88-1.86-.32,2.13-18.81,7.33-21.18,8.01-16.88,4.83-30.37.03-45.37-8.01-.76,2.91-.74,4.78-1.94,7.59l-3.43,4.49Z"/>
    <path class="st11" d="M1166.41,287.78c-2.91-.28-6.34.61-9.09-.48,3.12,0,6.16.32,9.09.48Z"/>
    <path class="st23" d="M1147.32,275.4c-11.2,4.67-26.85,8.24-38.72,6.04-21.16-3.92-50.08-25.61-61.75-44.36-9.88-15.88-12.53-32.63-16.82-50.71-.78-.12-.49,1.13-.44,1.65.36,4.59.75,9.14,1.49,13.68,1.13,6.89,5.1,11.35-5.15,8.73-3.9-1-6.99-3.51-9.52-6.69-.79-.99-1.53-3.03-2.07-3.59-.64-.66-1.4.15-1.8-.42-1.65-2.35-4.49-12.9-5.1-16.12-1.33-7.03-3.12-18,.85-24.06,2.63-4.02,5.99-5.71,10.56-4.55,6.01,1.53,6.83,5.45,10.73,9.47-1.2-19.08,8.08-35.4,19.77-49.05,4.2-4.91,9.58-9.3,13.6-14.33,7.41-9.27,12.97-21.18,19.15-31.38,9.07,7.43,17.89,15.66,27.94,21.67,21.61,12.93,47.54,18.56,69.86,29.67,17.04,8.48,28.25,26.3,27.88,46.27l1.57-3.82c3.85-7.99,13.97-11.8,19.53-3.28,3.18,4.87,1.58,19.35.5,25.22-2.14,11.65-7.9,21.99-19.03,26.25-2.1.81-7.34,2.1-7.09-1.68.33-5.17,2.74-11.56,3.15-17.22.05-.64.39-2.95-.44-3.09-3.5,14.1-6.96,29.36-13.56,42.22-9.11,17.74-23.39,33.09-40.99,41.58-1.2.58-2.93,1.42-4.09,1.9Z"/>
    <path class="st34" d="M1091.86,166.84c.53,7.7-.56,14.55-6.36,19.77-9.12,8.21-25.77,6.97-33.19-3.1-21.86-25.78,21.29-55.12,37.3-26.78,1.49,2.64,3.4,7.47,2.25,10.12Z"/>
    <path class="st25" d="M1183.23,185.89c-1.21,1.51-2.87,2.78-5,3.81-6.65,2.66-13.15,3.67-19.99.71-9.42-4.08-14.39-14.13-12.28-24.51,2.35-22.36,31-26.56,41.56-7.66,4.83,8.64,3.64,21.67-4.29,27.65Z"/>
    <path class="st2" d="M1157.68,120.8c8.31-1,23.14,2.59,29.87,7.95,1.45,1.15,8.18,8.68,7.96,10.23-.12.82-.76.51-1.25.38-8.21-2.24-14.1-7.91-23.12-9.12-3.2-.43-7.13-.19-10.4-.54-1.25-.13-6.88-.8-7.51-1.18-1.12-.69-1.74-4.18-1.14-5.48.68-1.47,4.15-2.06,5.59-2.23Z"/>
    <path class="st18" d="M1042.77,136.37c-.32-1.79.63-2.99,1.45-4.43,5.74-10.12,15.57-13.94,26.52-13.68,2.39.06,6.8.21,9.03.54,1.1.16,7.37,2.77,7.54,3.54.6,2.73-8.1,2.87-9.71,3.15-7.95,1.38-19.03,3.12-26.4,6.15-1.08.45-8.12,5.11-8.44,4.73Z"/>
    <path class="st0" d="M1091.83,237.27c.09-.04.17-1.3,1.1-.91.14.06,1.33,1.23,1.85,1.54,5.14,3.06,20.43,4.36,28.13,4.1,5.08-.17,18.1-2.05,21.51-3.9.87-.48.64-.97.72-1.01.19-.1,4.21.82,3.31-1.27,3.14,1.98.08,1.84-2.18,2.47-1.42.39-3.42,1.44-5.2,1.97-13.12,3.92-32.83,4-45.15-.73-.75-.29-2.1-1.14-2.62-1.26-1.09-.24-1.69.27-2.76-.07-.98-.32-2.42-1.2-1.83-1.83,1.11-1.18,1.66,1.51,3.13.9Z"/>
    <path class="st5" d="M1052.32,183.51c-.19.95-1.16-.5-1.36-.72-11.64-12.56-4.24-31.62,10.01-37.6,17.48-7.34,34.8,7.83,31.81,26.89l-.9-5.23c-.72-10.48-9.33-19.55-19.33-20.47-20.01-1.83-32.6,20.31-20.22,37.13Z"/>
    <path class="st7" d="M1183.69,186.37c-.64.63-.87.36-.45-.48,7.49-7.28,8.3-21.2,2.01-29.48-12.1-15.92-35.27-10.3-39.28,9.48-1.04-1.08-.18-3.13.13-4.38,2.77-11.25,12.81-18.06,23.72-17.03,19.59,1.85,29.71,27.81,13.87,41.89Z"/>
    <path class="st12" d="M1113.2,199.18c-.08.12-1.99.74-2.67,1.26-2.19,1.69-6.13,6.94-2.92,9.19,2.75,1.93,9.29,2.72,12.55,2.33,2.15-.26,12.59-4.19,13.07-3.69,1.19,1.26-1.98,3.46-2.76,4.01-6.04,4.16-15.35,4.96-21.79,1.47-4.41-2.39-6.02-5.62-4.3-10.71.45-1.32,4.02-6.75,5.09-7.07,2.09-.63,4.61,1.92,3.73,3.21Z"/>
    <path class="st8" d="M1219.14,171.61c1.82,1.9-6.39,6-7.04,7.63-1.53,3.83,2.49,13.6-3.87,13.8.16-1.34,1.27-2.11,1.33-3.61.12-2.93-1.93-6.2-.52-10.07,1.18-3.26,6.39-8.77,10.1-7.75Z"/>
    <path class="st32" d="M1027.77,192.55c-.67.79-3.4-3.64-3.53-4.16-.76-3.09,1.16-7.68.11-10.11-.26-.61-7.21-7.12-6.58-7.62,1.99.15,4.37,1.31,5.87,2.65,4.98,4.44,2.74,8.58,3.22,14.24.14,1.7,1.01,3.26.9,5Z"/>
    <path class="st8" d="M1127.72,251.08c.29.32-.04,1.23-.56,1.53-2.44,1.39-8.54,1.56-11.36,1.18-.98-.13-6.43-1.69-6.44-2.55-.01-1.29,4.35.63,4.96.76,3.27.7,7.47.13,10.81-.32.51-.07,2.5-.69,2.59-.59Z"/>
    <path class="st30" d="M1183.69,186.37c-2.62,2.33-2.46,2.14-5.45,3.33,1.15-1.51,3.73-2.57,5-3.81l.45.48Z"/>
    <path class="st27" d="M1071.36,191.91c-.72-.13-.96-.35-1.36-.47-6.39-2.68-12.08-8.7-10.84-18.04,2.83-21.17,33.91-17.31,31.42,4.52-1.25,10.96-9.57,14.81-19.21,13.99Z"/>
    <path class="st16" d="M1071.34,191.83c2.28-.97,4.81-.23,7.3-.68,14.19-2.54,15.94-25.35,1.9-30.24-20.86-7.26-29.87,22.58-10.27,29.92l-.29.52c-17.21-4.97-13.8-30.91,2.48-32.48,25.38-2.44,24.79,37.61-1.12,32.95Z"/>
    <path class="st27" d="M1182.08,188.2c-1.48,1.24-3.7,2.59-5.45,3.33-6.85,1.52-13.42,1.03-18.01-5.23-5.52-7.53-3.97-19.3,4.07-24.18,16.75-10.18,32.74,12.19,19.4,26.08Z"/>
    <path class="st1" d="M1182.05,188.55l3.41-6.19c3.98-8.63-2.48-20.27-11.41-21.38-22.99-2.83-23.8,28.92-5.4,30.89h7.95c-19.3,8.14-30.42-20.78-13.04-30.55,17.17-9.66,32.42,15.56,18.49,27.23Z"/>
    <path class="st15" d="M1082.74,172.47l.62,1.07c-1.57,3.17.52,4.65,2.98,2.42l1.1.43c.2.72.84,1.23,1,2.56,1.88,15.14-18.64,14.68-17.67,1.71.53-7.11,6.4-8.66,11.97-8.19Z"/>
    <path class="st14" d="M1087.59,177.4c-4.13,4.39-8.6.88-5.36-4.42,2.25.19,4.12-.93,5.09,1.89.32.93.1,1.92.27,2.53Z"/>
    <path class="st19" d="M1178.67,172.12c-.77,4.45-.34,5.76,3.62,4.93,1.55-.35,1.02.95,1.03,2.13.11,8.93-5.3,14.97-12.61,11.35-8.33-4.13-5.91-17.1,2.64-18.88,2.41-.5,3.48.25,5.31.47Z"/>
    <path class="st21" d="M1181.97,177.93c-2.89,4.08-8.24-1.34-3.98-4.65.18.02.95-.64,1.85-.48,2.39.43,3.59,3.06,2.13,5.12Z"/>
  </g>
  <path class="st9" d="M547.12-.04l1.92.92-.05,452.36c1.19,10.52,1.49,21.06.89,31.64,2.8.65,5.65.54,8.46.04l2.22,1.56c.55-1.83,2.79-2.47,6.72-1.92,42.75-12.94,86.55-23.1,130.56-30.71l2.88-.96c2.73-3.65,9.4-4.89,13.44-2.88l602.12.05,11.32.91c4.99.27,10.03.55,14.92,1.64,29.08,6.48,58.18,13.1,87.17,19.94,2.41.57,4.76,1.44,7.11,2.32s4.66,1.91,6.95,2.96c9.47.69,18.95,2.84,28.45,6.44,6.23,2.58,11.84,2.46,16.81-.38l-.14-482.74,1.92-1.2h544.32v837.73c-.27.84-.59.83-.96,0l-.93,1.92H1.14l-1.22-1.92V-.04h547.2Z"/>
  <path class="st28" d="M2034.16,644.01c.84,163.3.84,336.77,0,500.93l-.93,4.62H1.14l-1.22-4.62v-500.93h2034.24Z"/>
  <path class="st39" d="M1384.24-.04l1.93.88.47,66.64c18.83-1.93,37.7-4.18,56.62-6.76l.49-59.61,1.93-1.14h45.12v484.13c.38,1.96-6.73,4.12-7.99,4.07-9.3-.31-28.95-7.91-39.05-10.32-.51-1.9.06-2.59,1.81-2.95-2.9-4.13-4.69-5.14-9.91-5.18-16.53-5.84-33.45-10.99-50.74-13.88-6.4,1.47-8.98.54-14.01-2.95-7.79,2.45-11.95.13-12.48-6.98-4.59-2.44-9.69-4.18-15.31-5.23l-.86-2.27c1.16-4.35,1.15-8.16.71-12.38l3.3-1.28c4.85.43,17.18,2.63,21.77,3.97,1.15.34,2.01,1.23,2.78,2.11l-1.92-.66v-83.11l1.92-1.16c-5.89,1.01-32.51-1.61-33.49-3-.44-.62-.28-1.51-.11-2.28-.17-1.57,1.18-2.32,4.05-2.24-.81-3.94-.56-7.03.75-9.28,6.95-1.78,17.54-.52,25.05.8,1.44.25,2.64,1.18,3.75,2.08l-1.92-.66v-115.24l1.92-1.17c-5.58,2.37-39.16,3.28-40.95,1.31-.52-.58-.47-1.48-.33-2.27l.84-1.92,10.51-.11c-1.17-4.43-.8-7.59,1.13-9.49l3.04-1.87c5.11-.55,17.55-.91,22.59-.56,1.2.08,2.24.77,3.18,1.47l-1.92-.66v-115.24l1.92-1.17c-8.33,3.36-20.11,4.91-28.8,2.88l-1.3-1.44c.43-3.38.68-7.25-1.58-10.07l2.33-2.28c9.03-1.94,18.18-3.09,27.43-3.68V1.11l1.92-1.15h13.44-.03Z"/>
  <path class="st31" d="M754.48-.04v422.22h528.96V-.04h5.76l1.32,6.75c.17,133.92.19,268.46.06,403.64l-.73,24.04c2.62.06,5.77,4.46,4.8,6.62,9.33,1.54,18.65,4.07,27.79,6.67.93.26,1.79.79,2.66,1.34s1.71,1.24,2.5,1.95l-7.16,1.01-601.06.02-5.22-1.98c-.99-2.45-.09-2.64,1.92-.96l1.31-1.63c11.49-2.54,22.59-5.6,33.3-9.19l.9-437.08,1.92-1.2h.97,0Z"/>
  <path class="st37" d="M1316.08-.04l1.93.64.93,75.46c2.61-1.2,4.54-.98,5.78.67,2.1-3.33,11.58-3.6,14.4-.96.74.1,2.5-.29,2.81.05.56.62,1.78,10.05.07,11.46-4.41,3.48-13.1,4.1-18.24,1.92l1.92.66v109.97l-1.92,1.16c5.47-.47,11.15-.63,17.03-.47l1.21,1.91.96,11.52h-13.44c-.66,1.1-1.95,1.97-3.87,2.62v108.85l15.36,1.66.99,2.02c1.21,1.61,1.38,11.12.97,11.52-.32.31-4.59-.22-5.77,0-2.59,1.57-5.81,2.12-9.66,1.63l-1.91,78.79c5.36,1.36,10.84,2.32,16.46,2.88l.88,2.11c5.25,3.66.12,11.48,1.41,13.46.46.71,13.13,1.21,15.68,5.44.79,1.3,1.65,6.54,2.2,6.93.84.6,6.42-1.2,8.95-.85,3.27.46,4.48,3.29,6.03,3.65,1.74.4,5.56-1.25,9.19-.59,16.21,2.97,33.25,7.83,48.86,13.53,2.32.85,5.13.32,7.3,1.34,2.02.95,2.22,3.49,4.99,4.61s14.09,2.06,15.39,3.34c.92.91.22,2.01-1.42,1.91-6.41-.39-12.1-4.66-17.77-.96-38.63-9.24-77.6-17.35-116.16-26.87-11.3-2.79-22.54-6.13-33.94-8.58-.96-4.07-1.9-5.31-5.44-7.45,2.22-106.66.12-213.63-.03-320.26-.06-38.29,1.36-76.43,1.01-114.72h26.88-.02Z"/>
  <path class="st17" d="M592.24-.04l1.92.88.13,59.73c5.62,1.09,11.65,1.87,18.07,2.35l2.92,2.29c6.73.66,7.3,13.72,0,12.47l-3.91,1.59c-5.84-.69-11.57-.68-17.21.03v120.98l-1.92,1.18c7.79.63,15.62.77,23.48.44,5.64-1.25,5.45,10.15,2.72,12.18-6.84.04-13.65.31-20.44.82-.78,1.25-2.06,2.11-3.85,2.57v120.56c5.06.01,10.12-.28,15.21-.87l4,1.52c1.92-.45,6.08-1.29,7.43-.08.47.42,1.22,11.91-1.67,11.6-7.16,4-19.08,6.24-26.88,3.84l1.92.67v90.28l-1.92,1.17c6.77-3.75,16.45-5.34,24-3.84,2.93-.35,4.23,1.49,3.92,5.53-1.09,5.58-.07,7.6,3.06,6.07,7.49-3.27,12.2-2.13,14.14,3.42,24.66-4.87,49.17-10.16,73.52-15.88,5.06-1.02,10.26,4.56,5.2,7.58-.86.21-1.55.87-1.92.96-4.42,1.08-9.01,1.79-13.44,2.88l-2.88.96c-43.41,10.6-87.01,20.68-130.56,30.71-3.56,1.14-5.49.65-5.78-1.48l.02-481.92,1.92-1.2h28.8Z"/>
  <path class="st13" d="M667.12-.04l1.92.88v68.58l1.92,2.51c4.44.74,4.13,11.93,0,12.47l-1.93,2.59-.04,112.71c1,.71,1.97,1.62,2.93,2.73,2.98,1.04,2.04,10.71-.96,11.52l-1.93,2.58-.05,113.16-.9,2.3c6.4-1.08,8.23,8.92,4.8,12.47.06,1.77-1.19,2.43-3.76,1.98-.16,29.46-.19,57.9-.08,85.35,4.29-.85,5.92,2.68,4.92,10.57,5.32.22,10.78-.8,16.1-1.84,15.29-3.64,30.36-7.01,45.21-10.1V1.16l1.93-1.2h16.32l-.95,438.07c0,1.3-.61,1.65-1.6,2.24-1.46.87-11.39,3.55-13.98,4.26-6.85,1.89-14.03,2.83-20.91,4.53,1.87-9.91-10.23-4.17-15.16-3.16-20.33,4.2-41.12,9.69-60.97,12.15-.94.12-1.96,1.63-2.95,1.5-2.16-.3-2.37-5.09-4.07-5.62-1.85-.57-11.35,3.52-14.77,1.85-.85-.85,1.7-11.69-1.92-13.44l2.9-2.57c5.53-1.71,30.13-7.78,33.66-6.23.65.29,1.25.69,1.84,1.13l-1.92-.67v-85.49l1.92-1.17-2.62,1.8c-10.67,1.08-21.26,2.06-31.77,2.93l-1.13-1.85v-11.52h-5.76c-.33-.68-.63-1.52-.23-2.09,1.28-1.83,35.66-4.35,41.51-2.7l-1.92-.66v-117.16l1.92-1.17-3.31,1.35c-15.4,1-31.14.71-46.65.4-1.11-.02-2.22-.28-3.33-.57s-2.25-.72-3.35-1.18c3.52-2.72,16.57.46,19.06-1.09,1.45-.91,1.44-9.14.24-10.82-1.44-2.03-21.56,1.09-25.07-1.52,1-.47,2.01-.91,3.05-1.22s2.03-.58,3.04-.61c18.86-.58,38.3-.55,56.31,1.35l-1.92-.66v-116.68l1.92-1.17c-12.46,1.84-26.42.43-38.27-2.64l-1.09-2.16c4.71-.52,3.63-11,0-12.47,1.1-.37,2.21-.7,3.35-.9s2.22-.38,3.27-.27c9.97,1.07,19.97,2.18,29.86,3.81V1.12l1.93-1.16h13.44Z"/>
  <path class="st31" d="M737.2-.04v430.38c-.18,1.97-1.85,2.74-3.61,3.11-17.82,1.3-39.08,9.73-56.36,10.84-1.76.11-3.56-.1-5.32-.03-.2-2.55.68-10.91-1.12-12.35-.53-.43-1.38,0-1.76-.13l.46-2.06c15.77-3.27,31.3-6.58,46.58-9.94-.76-.08-1.91-.36-1.92-.89-.62-24.62-.62-51.05,0-75.69l1.92-1.15c-2.71-.44-5.57-.47-8.58-.07l-33.21,4.23-1.41-1.76c-.21-2.82-.46-7.94-1.6-10.35-.72-1.53-2.28-1.14-3.2-2.13l.69-2,44.36-4.57c1.64-1.04,2.14-28.16,2.22-32.68.47-25.65.06-52.65-1.13-77.29-12.69.55-26.11.9-38.87.23-1.6-.08-3.05-.93-4.39-1.72l.96-11.52,3.37-1.74c12.69-.17,25.3-.8,37.83-1.91l1.04-107.26-39.5-4.99-3.7-2.13c1.14-3.93,1.8-8.64,0-12.47,2.47-.57,5.02-1.15,7.57-.93l34.67,3.58V1.12l1.92-1.16s22.09,0,22.09,0Z"/>
  <path class="st3" d="M556.72-.04l1.32,26.76c.52,151.53.83,303.07.95,454.61,2.16,1.44,2.68,3.15,1.57,5.15-4.72.84-7.55,1.23-12.43-.05-.52-10.98.96-22.18-1.05-33.02l.04-453.45s9.6,0,9.6,0Z"/>
  <polygon class="st36" points="1445.68 -.04 1445.26 62.39 1384.73 70.03 1384.24 -.04 1445.68 -.04"/>
  <path class="st36" d="M653.68-.04v70.05c-12.72-2.03-25.61-3.27-38.4-4.79-6.84-.81-13.72-1.89-20.65-1.91l-2.26-1.58-.13-61.76h61.44Z"/>
  <path class="st36" d="M715.12-.04v76.77c-14.71-1.43-29.53-2.73-44.16-4.8-1.21-.17-2.6.13-3.84,0V-.04h48Z"/>
  <path class="st36" d="M1370.8-.04v71.97c-5.2,0-10.56.43-15.72,1.08s-10.71,2.09-15.96,2.76c-4.42.56-9.92.38-14.4.96l-1.92-.89V1.12l1.92-1.16s46.08,0,46.08,0Z"/>
  <path class="st22" d="M563.44-.04l-.02,484.04,3.86.56c-1.67,1.24-4.62,1.54-6.72,1.92l-3.38-4.77c-1.08-160.49-.16-321.19-.46-481.75h6.72Z"/>
  <path class="st26" d="M2034.16,1148.6c.27-.84.59-.83.96,0v.96H-.08v-.96h2034.24Z"/>
  <path class="st10" d="M1324.72-.04v76.77c-2.19.28-5.41,1.35-7.67,1.92l-.97-78.69s8.64,0,8.64,0Z"/>
  <polygon class="st4" points="2035.12 1148.6 2034.16 1148.6 2034.16 1124.61 2034.16 1100.62 2034.16 1045.92 2034.16 837.69 2035.12 837.69 2035.12 1148.6"/>
  <path class="st31" d="M700.72,452.89c-.48.12-1.61.65-2.88.96l2.88-.96Z"/>
  <polygon class="st36" points="1445.68 76.73 1445.68 201.48 1384.24 201.48 1384.24 82.49 1445.68 76.73"/>
  <polygon class="st36" points="1445.68 214.91 1445.68 340.62 1384.24 333.9 1384.24 214.91 1445.68 214.91"/>
  <polygon class="st36" points="1445.68 354.05 1445.68 446.17 1384.24 434.66 1384.24 347.33 1445.68 354.05"/>
  <path class="st36" d="M1342,87.28c9.57-1.1,19.15-2.51,28.8-2.88v117.07c-9.2,1.58-19.36,1.1-28.8.96-2.71-.04-18.24.86-18.24-1.44v-111.79c6.03-.96,12.18-1.22,18.24-1.92Z"/>
  <path class="st36" d="M1329.52,213.95c.33.03,1.46.97,3.25,1.03,12.64.4,25.39-.44,38.03-.07v117.07c-9.66-.25-19.23-1.79-28.8-2.88-2.55-.29-18.08-1.21-18.3-2.48l.05-110.28c.2-2.91,3.37-2.61,5.76-2.4h.01Z"/>
  <path class="st36" d="M1337.2,340.62c.18.02,1.09.87,2.32,1,9.61,1.04,19.25,2.05,28.88,2.83.78-.03,2.4.91,2.4,1.44v84.92c-9.33-.42-18.66-2.99-27.84-4.8-4.93-.97-13.34-1.48-17.58-3.06-1.17-.44-1.59-.95-1.63-2.21l1.93-81.1c3.8.53,7.72.58,11.52.97h0Z"/>
  <rect class="st40" x="1381.36" y="82.49" width="1.92" height="118.99"/>
  <rect class="st40" x="1381.36" y="214.91" width="1.92" height="118.99"/>
  <path class="st36" d="M615.28,77.69c1.98.2,5.52,1.62,8.17,1.91,10.36,1.12,20.82,1.89,31.19,2.89v118.51c0,3.25-14.42.51-16.76.44-15.18-.43-30.46.4-45.64.04v-124.75c7.51.1,15.58.23,23.04.96h0Z"/>
  <path class="st36" d="M598,214.91c18.82-.66,37.81.49,56.64,0v118.99c-12.93,1.69-25.99,2.39-38.96,3.8-1.26.14-2.13.98-2.32,1-6.97.79-14.14,1.05-21.12,1.92v-125.72c1.91-.05,3.85.07,5.76,0h0Z"/>
  <path class="st36" d="M619.12,350.21c1.95-.24,4.17.22,6.22,0,9.76-1.07,19.4-3.6,29.3-2.87v87.32c-13.08.97-25.7,5.12-38.4,7.68-7.85,1.58-16.02,2.94-24,3.84v-92.12c8.99-.79,17.96-2.74,26.88-3.84h0Z"/>
  <path class="st36" d="M670.96,213.95c14.36-.87,29.61.56,44.06.11.44,2.02.96,4.01,1.1,6.1,1.94,28.28,1.85,71.54,0,99.87-.16,2.42-.97,4.7-1.04,7.12l-47,4.84c-.68-.73-1.22-1.01-1.01-2.3l.05-115.74c1.27-.06,2.57.08,3.84,0h0Z"/>
  <path class="st36" d="M670.96,84.4c14.62.57,30.44,4.13,45.14,5.34l-1.08,111.62c-14.33-.81-28.79,2.14-43.1,1.06-2.77-.21-4.93.59-4.85-3.31l.04-114.72c1.27.02,2.57-.04,3.84,0h0Z"/>
  <path class="st36" d="M672.88,344.46c5.58-.64,40.19-5.76,42.08-4.64.11.06,1.12,2.12,1.12,2.24v77.73c0,.61-1.26,2.59-2.3,2.56l-44.74,9.43c-.58-.22-2.05.56-1.94-.57l-.03-83.44c-.12-4.39,2.95-2.98,5.81-3.31h0Z"/>
  <rect class="st24" x="721.84" y="90.16" width="1.92" height="111.31"/>
</svg>