<?xml version="1.0" encoding="UTF-8"?>
<svg id="Ebene_1" xmlns="http://www.w3.org/2000/svg" version="1.1" viewBox="0 0 2034.72 1149.12">
  <!-- Generator: Adobe Illustrator 29.6.0, SVG Export Plug-In . SVG Version: 2.1.1 Build 207)  -->
  <defs>
    <style>
      .st0 {
        fill: #140d07;
      }

      .st1 {
        fill: #585858;
      }

      .st2 {
        fill: #cccccb;
      }

      .st3 {
        fill: #848d79;
      }

      .st4 {
        fill: #838383;
      }

      .st5 {
        fill: #fcfcfc;
      }

      .st6 {
        fill: #c9dce0;
      }

      .st7 {
        fill: #908f8f;
      }

      .st8 {
        fill: #4a4a4a;
      }

      .st9 {
        fill: #f9f9f8;
      }

      .st10 {
        fill: #d9d8d7;
      }

      .st11 {
        fill: #ebebe9;
      }

      .st12 {
        fill: #080605;
      }

      .st13 {
        fill: #c9c9c9;
      }

      .st14 {
        fill: #5b5a5a;
      }

      .st15 {
        fill: #41342b;
      }

      .st16 {
        fill: #060504;
      }

      .st17 {
        fill: #dddcdb;
      }

      .st18 {
        fill: #ae7044;
      }

      .st19 {
        fill: #bbbbba;
      }

      .st20 {
        fill: #0d0806;
      }

      .st21 {
        fill: #cac8bb;
      }

      .st22 {
        fill: #040303;
      }

      .st23 {
        fill: #af7345;
      }

      .st24 {
        fill: #3f3e3e;
      }

      .st25 {
        fill: #195113;
      }

      .st26 {
        fill: #909090;
      }

      .st27 {
        fill: #c9bcb3;
      }

      .st28 {
        fill: #ad7044;
      }

      .st29 {
        fill: #f0efed;
      }

      .st30 {
        fill: #fff9e5;
      }

      .st31 {
        fill: #1f1e1e;
      }

      .st32 {
        fill: #7c532f;
      }

      .st33 {
        fill: #13100d;
      }

      .st34 {
        fill: #c78850;
      }

      .st35 {
        fill: #ae4e3a;
      }

      .st36 {
        fill: #0d0d0d;
      }

      .st37 {
        fill: #201a17;
      }

      .st38 {
        fill: #ddd;
      }

      .st39 {
        fill: #020100;
      }

      .st40 {
        fill: #030201;
      }

      .st41 {
        fill: #16120f;
      }

      .st42 {
        fill: #0b0b0b;
      }

      .st43 {
        fill: #583922;
      }

      .st44 {
        fill: #0e0705;
      }

      .st45 {
        fill: #e5f8fd;
      }

      .st46 {
        fill: #694529;
      }

      .st47 {
        fill: #959595;
      }

      .st48 {
        fill: #110c09;
      }

      .st49 {
        fill: #c6c6c6;
      }

      .st50 {
        fill: #5d5d5d;
      }

      .st51 {
        fill: #7a7979;
      }

      .st52 {
        fill: #fafafa;
      }

      .st53 {
        fill: #543821;
      }

      .st54 {
        fill: #f8f8f8;
      }

      .st55 {
        fill: #7f7e7e;
      }

      .st56 {
        fill: #dcdbda;
      }

      .st57 {
        fill: #8d8b8b;
      }

      .st58 {
        fill: #bebebe;
      }

      .st59 {
        fill: #483221;
      }

      .st60 {
        fill: #4e331f;
      }
    </style>
  </defs>
  <rect class="st5" y="0" width="2034.72" height="810.01"/>
  <path class="st30" d="M1434.17-.04l3,.92v420.1l-3,1.2-1.44,1.92h-824.07l-1.88-1.92c-.83-.1-1.47-.2-1.47-.3-.25-138.9.09-283.28,1.47-421.92h827.39,0Z"/>
  <g>
    <path class="st36" d="M1257.17.41c2.11-.39,4.51-.39,6.62,0,6.55-.55,13.19,1.12,18.91,4.49,32.69-13.86,65.69,6.72,86.46,32.89,19.39,24.42,34.27,53.4,44.35,83.32,6.24,18.51,10.96,37.97,11.53,57.48v8.54c-.15,2.08-.28,4.12-.39,6.1.75,8.44-2.09,16.56-5.88,23.88-1.34,2.6-3.86,7.48-5.87,9.26-.57.51-2.03-.29-1.87-1.29.35-.69,1.11-21.16.3-19.82-3.31,18.16-15.56,34.49-32.35,40.88-2.01.76-6.69,2.45-8.58,2.26-1.26-.12-1.25-.52-1.07-1.8,2.16-3.41,3.69-7.04,4.59-10.87-8.76,12.43-25.33,13.37-39.01,14-7.19-.31-14.27-.56-21.25-.73l-.43-.87c-1.16,1.43-3.09-1.37-1.56-2.24-.3-.04-.74-.13-.78-.36-.08-.47-.1-5.99,0-6.33l.78-.84c-.17.32-.35.62-.57.89-1.51,1.83-9.69,4.34-12.44,5.13-15.54,4.43-32.72,3.54-46.86-4.95-.37,2.47-.57,4.97-.6,7.49-.17.43-.79.56-1.85.39l-.67,1.04c-11.22,2.58-23.56,2.34-34.92.16-8.57-1.65-18.4-4.57-23.3-12.46,1.15,4.03,2.84,7.85,5.05,11.45.15.38.23.71.11.91-.89,1.44-9.11-.19-11.03-.69-18.18-4.79-30.87-23.87-34.41-42.18-.86,6.7-.38,13.49.39,20.19.03,1.33-.24,1.34-1.27.87-2.02-.92-5.01-5.76-6.26-7.92-7.37-12.8-7.3-26.87-6.79-41.34.93-26.56,11.37-54.39,22.15-78.44,16.69-37.22,39.56-77,77.07-93.7,6.89-3.07,14.14-5.44,21.67-4.82l.03.03h0Z"/>
    <path class="st5" d="M1293.39,369.78l.39,7.32.58.22c1.99,6.41,9.62,9.91,15.28,6.37,1.43-.26,2.07.89,2.42,2.16,3.82,1.13,7.73,1.49,11.14-.92,5.09,6.07,13.88,1.35,14.09-6.37-.12-1.92.18-3.35.89-4.31-.27-1.18-.38-2.54,0-3.66,1.9-.05,8.56,6.47,8.83,7.83.07.33.02.69-.07,1.05-2.85,11.39-4.47,25.54-1.99,37.05,2.95,13.7,7.16,26.35,11.94,39.48,1.42,4.33,2.82,8.67,4.07,13.05,1.02,3.59,2.04,7.19,2.8,10.85.08.41-.06.87-.26,1.34h-186.58l.03-2.01c5.52-18.27,12.08-36.02,19.69-53.26,4.62-11.56,7.94-23.93,7.77-36.37l.94-1.11c.12-.87.57-1.03,1.17-.41,25.62-11.21,51.01-22.99,76.34-34.88,2.27-1.53,3.57-.74,4.07,1.52.8,5.81,2.84,9.65,6.52,14.01.26.31.18.69-.07,1.04h.01Z"/>
    <path class="st23" d="M1374.41,389.31c-.69-.37-1.42-1.09-2.01-1.81-6.48-7.9-13.03-15.8-19.7-23.45,1.22-4.22,2.41-8.57,3.14-13.06.41-.78,1.3-.8,2.04-.65l27.29-2.44,1.02.37c.97,14.83,1.24,29.68.8,44.55l-.51,1.77.39,4.07c.73.65,1.07,7.57.85,8.02-.1.2-.27.37-.46.53l.57.37c6.42,24.5,13.25,48.92,20.49,73.24l-.42.43h-29.21c-.66-.46-1.21-1.04-1.55-1.8l-12.28-27.56c-7.5-17.26-14.2-35.62-15.88-54.64-.37-4.17-.93-10.63-.06-14.57.07-.3,1.02-.65,1.42-.38l11.17,12.51c5.05,5,10.31,9.62,17.57,7.93,2.3-3.03.76-5.66-.98-8.52l-3.69-4.9h0Z"/>
    <path class="st42" d="M1176.54,284.76l-.31,1.8c-9.45,14.36-14.48,31.88-16.22,48.94,15.95-1.03,31.82.86,46.49,6.98,2.27-12.13,4.2-24.2,5.78-36.21.04-2.75,3.1-4.31,3.94-1.18-1.46,11.99-3.53,24-6.21,36.03l-.82,1.75c22.92-6.2,45.8-12.34,68.63-18.42,21.28-4.94,33.73-1.51,50.8,13.22,8.41,7.25,15.99,15.45,23.48,23.69,4.62-14.32,3.26-30.29-1.16-44.62-.62-2.28,2.95-2.98,3.6-1.05l.58,4.04c2.21,9.34,4.27,19.41,2.94,28.99l31.73-2.83c-.07-13.61-1.73-28.33-6.06-41.75l.02-2.29c-.4-1.65-.14-2.06.78-1.22,3.56,9.17,5.68,19.24,6.62,29.09.22,2.28,1.18,16.79.6,17.71s-4.76.91-4.91,1.44l.82,12.15c0,1.97-.05,3.95-.02,5.92.43,7.97.27,16.02,0,24,.1,1.3.23,2.65.39,4.07.08,3.91-.05,7.91.39,11.8.17,1.19-.54,1.34-1.17.41-.33-2.62-.37-5.88-.39-8.54l-.39-4.07c-.08-15.33.43-30.7-.78-45.97l-28.97,2.5c-.96.33-1.38,5.56-1.67,6.8-.44,1.83-2.02,4.95-1.49,6.55,7.02,7.8,14.02,15.49,20.46,23.83.28.37.29.89.38,1.01.34.12.34.25,0,.41-.8.39-2.29.34-2.34-.81l-.48.28c-12.15-15.67-26.69-32.35-41.73-46.35-14-13.04-27.74-20.38-46.95-16.37-7.11,1.49-14.26,3.22-21.33,5.14-23.21,6.68-46.67,12.89-69.97,17.95l-6.39,2.39c-2.34,1.38-6.98.25-3.02-2.21,12.85-3.85,19.28-5.78,19.28-5.78-8.73-2.88-17.75-5.39-26.94-5.85-1.39-.07-8.61-.17-8.97.11-.54.41-3.48,11.38-3.94,13.34-1.03,4.31-1.81,8.68-2.1,13.12l-.88,1.86c-.38,2.42-.4,4.91,0,7.32l.87,1.12c2.78,22.66,29.15,19.94,44.4,13.19l1.47.34c-.61,3.82-.38,7.66-.83,11.54-1.96,16.5-9.78,31.54-15.71,46.65-4.44,11.33-8.6,22.79-11.89,34.57h-1.17c2.06-8.49,4.89-16.75,7.89-24.92,7.96-21.71,20.26-42.62,20.15-66.61-6.02,2.26-11.79,5.16-18.3,5.69-1.55-.3-3.12-.3-4.67,0-12.52-.87-22.65-7.7-23.37-21.56-.39-2.55-.39-5.17,0-7.73.45-9.78,3.48-19.08,5.84-28.48-1.29-.4-2.92-.29-4.28,0-.26-.01-.52.02-.78,0,.92-19.27,6.13-38.29,17.92-53.29.55-.54.75-.31.39.41l-.03-.04h0Z"/>
    <path class="st5" d="M1344.42,400.7c-.27-.19-.48-.38-.49-.59-.08-1.32,2.15-20.51,3.12-20.99,2.19-1.07,2.7,5.72.87,6.12-.37,2.27-.35,4.64,0,6.92.41.44.72.95.79,1.56,1.82,15.16,4.17,29.51,10.28,43.89,5.86,14.13,11.88,28.18,18.08,42.14l.06,1.5h-12.46l-1.01-1.91c-3.98-14.99-8.59-29.63-13.84-43.92-2.49-7.84-4.97-16.12-5.6-24.39-.05-.67.18-1.27.59-1.79l-.39-8.54h0Z"/>
    <path class="st15" d="M1285.21,346.6l1.04.25c1.51,4.02,2.6,8.2,3.29,12.53,1.06,5.11,4.35,8.11,8.08,11.05,3.59,3-1.17,10.16-2.53,3.32-.19,7.46,9.72,13.64,14.97,7.5l.86.13c-.31-.04-.76-.14-.78-.37-.1-1.33-.2-11.29,0-11.85.11-.31.47-.47.78-.6.29-.06.74-.14.84.05.93,1.75,2.48,6.82.71,8.08.31,1.45.31,2.94,0,4.47.57.46.66,1.29.25,2.48,6.45,4.17,11.14.76,11.03-6.97l.8-.39c.13-2.61.26-5.18.39-7.73,1.88-2.15,2.43,3.06,2.4,4.81-.08,3.97-.48,7.91-2.27,11.4,4.62,4.29,11.02-.97,10.96-6.85l-.2-11.17c1.43-2.92,2.79.39,3.43,2.06,7,6.07,13.36,13.03,19.08,20.87,4.85,5.41,10.46,11.54,17.63,12.63.31-1.23,2.45-1.27,2.73,0,.58-.63.82-.38.39.41-5.22,3.1-11.71-1.99-15.59-5.49-4.39-3.96-8.21-9.72-12.45-13.44-.3-.26-1.17-1.11-1.57-.8-2.11,35.59,15.68,67.1,29.22,98.24h-1.56c-9.3-22.23-20.83-43.55-25.98-67.45-1.45-6.76-2.99-14.75-3.24-21.64-.35-2.28-.37-4.63,0-6.92.12-1.62.76-3.19.1-4.78-.18-.43-.44-1.02-.88-.51-.39.46-1.72,10.57-1.89,12.06-.32,2.75-.7,5.96-.83,8.69l.39,8.54c.34,14.86,7.35,29.51,11.79,43.62,2.94,9.37,5.75,18.82,8.08,28.38h-1.17c-4.31-22.01-15.21-42.02-18.96-64.2-.46-2.69-1.11-6.16-1.29-8.83-.66-9.91,1.68-19.89,3.05-29.61-2.36-3.19-4.99-5.66-8.12-8.01-.41.92-.24,2.5,0,3.66-.33,5.08-.51,11.13-5.85,13.22-1.88.73-4.62.97-6.55.35-1.28-.41-2.09-2-2.65-2.11-.49-.1-2.53,1.29-3.54,1.47-1.74.31-6.54.23-8-.71-.53-.34-.3-1.72-1.33-1.99-.74-.19-3.2,1.11-4.59,1.19-5.38.31-10.71-2.99-11.89-8.57l-.39-7.32c-.45-.97-1.51-1.59-2.11-2.47-1.75-2.61-3.12-5.26-4.14-8.29-.39-1.18-.99-5.97-2.06-5.86-26.39,11.05-51.71,25.12-78.55,34.94,4.51-3.3,9.42-6,14.72-8.1,20.35-9.13,40.63-18.43,60.83-27.89l2.35-.62c.18-1.58.28-3.19.31-4.81l.47-.07v.02h0Z"/>
    <path class="st31" d="M1409.07,481.25h-1.17l-18.5-63.87c-.54-3.2-1.75-7.03-2.14-10.17l1.17-.41c.15,1.3.53,2.71.56,4.09l20.08,70.35h0Z"/>
    <path class="st26" d="M1263.79,0v.41c-2.07-.11-4.56-.11-6.62,0v-.41h6.62Z"/>
    <path class="st1" d="M1425.04,193.23h-.39c.07-1.96-.38-4.4.39-6.1v6.1Z"/>
    <path class="st28" d="M1363.9,142.38l1.63-3.38c6.6-9.3,18.4-8.17,19.35,4.86,1.04,14.23-4,32.17-17.73,37.93-2.32.97-7.05,2.75-7.81-.88,1.37-6.1,3.21-12.25,3.19-18.59-1.91,4.96-2.85,10.27-4.38,15.36-7.36,24.45-18.63,43.09-40.74,55.49-32.89,18.44-61.82,10.87-88.69-14.1-17.99-16.72-23.4-34.71-28.23-58.79l-.58-.4c.34,4.82.79,9.57,1.68,14.31.45,2.4,1.65,4.7,1.39,7.2-5.49.96-11.15-1.43-14.75-5.86-.64-.78-1.85-3.33-2.37-3.65-.48-.3-1.23-.02-1.58-.47-1.06-1.36-3.12-7.92-3.66-9.91-2.26-8.34-5.9-30.12,7.78-29.3,5.73.35,8.06,4.67,11.5,8.55-1.18-17.78,9.12-32.8,20.25-44.96,3.7-4.05,8.26-7.63,11.68-11.8,6.32-7.69,10.93-17.33,16.21-25.79.71-.18,9.81,7.7,11.33,8.85,12.68,9.54,26.15,16.1,40.82,21.64,12.28,4.64,25.52,8.1,37.35,13.88,15.54,7.6,25.62,21.53,26.35,39.81h.01Z"/>
    <path class="st18" d="M1249.38,247.34c.2-.06,1.15-.52,1.19-.67-.12-1.11.14-8.22.95-8.27,18.48,11.21,41.43,9.63,60.18,0v7.53c0,.94.58,2.07,1.56,2.24-.88.61-.73.19-.51,1.11.85,3.47,3.85,6.52,7.13,7.43.67,1.02.31,1.18-.78,1.22.83,1.05-1.4,3.13-2.34,2.44-16.23,16.26-44.94,19.03-63.32,5.21-3.19-2.4-7.27-5.85-8.35-9.68-.34-.12-.34-.25,0-.41,2.33-.45,4.71-5.1,5.3-7.29.35-1.3-.12-.79-1.01-.85h0Z"/>
    <path class="st50" d="M1235.35,255.88c3.24-.33,6.48-.33,9.74,0,16.17,24.01,51.6,22.01,71.67,4.47-1.3,3.85-6.06,6.96-9.53,9.04-20.31,12.16-49.31,7.21-63.77-11.79-19.61-.77-41.36,6.02-57.51,18.27l-1.63.35c-.55.54-.75.31-.39-.41,14.15-13.24,32.55-19.25,51.42-19.93Z"/>
    <path class="st24" d="M1184.33,276.22c-1.69,3.17-4.84,6.62-7.79,8.54l-.39-.41c2.55-3.25,4.77-5.72,7.79-8.54l.39.41Z"/>
    <path class="st57" d="M1245.09,255.47v.41c-3.24.09-6.5-.12-9.74,0,2.85-1.15,6.88.15,9.74-.41Z"/>
    <path class="st47" d="M1157.45,373.85c-.65-2.22-.65-5.55,0-7.73-.11,2.41-.12,5.33,0,7.73Z"/>
    <path class="st60" d="M1185.5,395.41c-1.38.11-3.28.1-4.67,0,1.12-.69,3.64-.68,4.67,0Z"/>
    <path class="st24" d="M1163.29,337.65c-1.42-.05-2.87.07-4.28,0,1.03-.86,2.82-.27,4.07-.38l.22.38h0Z"/>
    <path class="st23" d="M1372.07,388.9c.68.89-.47,3.08-1.56,2.44-.78,1.52.04,5.58,1.56,7.73.91,1.32,1.98,2.38,3.51,2.85.34-.18.46-.03.39.41-4.79.15-5.2-.46-9.08-3.33-9.41-6.95-15.8-18.35-24.41-26.58-1.78-1.69-5.13-2.86-4.68-5.9h-1.17c-.48,5.68,1.82,12.81-2.01,17.64-2.19,2.76-6.19,3.92-9.26,2.07-2.19-1.32-.38-2.51.08-4.32.77-2.97,1.29-6.42,1.07-9.49-.08-1.04-.21-4.1-1.57-3.85-.17,2.51-.3,5.09-.39,7.73-.16,3.16-.79,8.51-4.27,9.58-1.87.58-5.64.16-7.31-.94-1.86-1.23-.76-1.96-.5-3.76.31-1.54.31-3.03,0-4.47-.02-1.25.11-2.52-.09-3.77l-1.46-4.37v12.81c0,.38-2.57,2.52-3.22,2.74-6.71,2.3-14.95-4.59-13.14-12.3,1.72-.32,1.2,4.01,2.14,4.06,1.44.07,1.61-2.62,1.28-3.77-.26-.92-4.45-3.92-5.37-4.97-5.59-6.4-3.96-14.74-7.4-20.54l-.43.12c-.06,1.2-.18,2.79-.35,4.76-25.48,13.33-52.34,23.49-77.9,36.61-.38.14-.78.27-1.17.41-11.01,3.92-21.31,7.63-33.02,3.78-8.53-2.8-13.18-9.07-13.72-18.42-.4-2.42-.38-4.9,0-7.32.38-9.93,3.1-19.69,6.49-28.9,13.24-1.71,26.19,2.19,38.69,6.12l-3.89,1.82c-6.28,1.66-12.78,2.62-18.69,5.5.06.48.43.73.89.73,2.39-.03,7.71-2.65,10.4-3.38,7.79-2.1,16.17-3.37,24.08-5.36,20.86-5.24,41.82-11.99,62.7-16.69,24.33-5.48,37.53,2.6,54.82,19.4,10.64,10.33,22.87,23.86,32.32,35.4.92,1.12,5.21,7.54,5.64,7.74v-.02h0Z"/>
    <path class="st4" d="M1293.78,377.11c-.53-2.49-.42-4.72-.39-7.32.92,1.97.14,5.07.39,7.32Z"/>
    <path class="st8" d="M1338.18,370.6c-.05,1.21.08,2.45,0,3.66-.84-1.02-.22-2.81-.39-4.07.44-.07.36.39.39.41Z"/>
    <path class="st22" d="M1362.72,272.97c.52.57.3.78-.39.41-1.71-.1-3.43-.79-5.16-2.07-11.8-5.78-23.21-8.82-35.96-12.17-.79-.21-1.47-.72-2.12-1.22.28-.39.51-.82.78-1.22,16.32,4.56,28.2,5.84,42.85,16.27h0Z"/>
    <path class="st31" d="M1384.54,300.63c-.56.18-.77.63-.78,1.22l-1.26-1.09c-4.15-10.19-10.7-19.44-19.4-25.87l-.77-1.52.39-.41c9.62,6.86,17.41,16.32,21.81,27.66h.01Z"/>
    <path class="st51" d="M1388.04,390.94c-.11.36-.24.35-.39,0-.04-7.99.14-16.01,0-24,.65.42.39,1.54.4,2.23.09,7.25-.1,14.52,0,21.77h-.01Z"/>
    <path class="st14" d="M1388.04,395.01c-.71-.94-.38-2.79-.39-4.07h.39c.02,1.35-.03,2.72,0,4.07Z"/>
    <path class="st60" d="M1379.08,402.74c-.04-.19-.21-.39-.39-.41-.11-.79.02-1.71.38-2.75-.86-3.24-2.52-6.21-4.99-8.9l.32-.96v-.41s.65.04.94.43c2.05,2.69,8.27,10.3,3.73,13h.01Z"/>
    <path class="st31" d="M1386.87,398.67c-.71-.94-.38-2.79-.39-4.07.72.94.38,2.79.39,4.07Z"/>
    <path class="st5" d="M1316.76,260.35c.71-.84,1.54-1.33,2.34-2.44,8.29,1.46,16.81,4.01,24.74,6.91,5.81,2.12,13.36,5.09,18.49,8.55,9.56,6.45,17.33,17.46,21.42,28.48,4.09,11.02,5.58,23.07,6.62,34.79l.23,9.99-32.95,3.05c-.8-.6,0-2.29.03-3.26.18-6.1-.29-11.4-1.31-17.38-.79-4.61-2.38-9.1-2.61-13.76l-2.34.41c4.41,13.61,6.06,29.88,2.05,43.83-.18.61-.73,3.27-1.46,2.94-9.14-10.04-18.86-20.74-29.68-28.8-19.31-14.4-31.87-11.66-53.65-6.15-19.98,5.06-39.55,11.96-59.82,15.83,1.71-11.37,4.98-23,6.18-34.42.07-.65.44-3.79.39-3.99-.19-.86-1.75-1.32-2.18.47-1.09,4.53-1.36,10.78-2.18,15.64-1.24,7.33-2.84,14.59-4.16,21.89-5.57-1.01-10.79-3.48-16.35-4.69-10.05-2.19-20.7-2.43-30.92-1.88-.79-.24-.27-2.63-.19-3.34,1.76-15.61,7.85-35.78,17.08-48.26,2.29-3.1,4.94-6,7.79-8.54,12.62-11.26,35.54-18.47,52-19.52,1.41-.09,6.62-.25,7.59.2.34.16,4.09,4.79,5.06,5.7,18.32,17.1,51.28,17.09,67.78-2.24h0Z"/>
    <path class="st34" d="M1374.41,389.72c1.99,3.28,7.94,8.91,4.28,12.61-.83-.08-1.87-.03-2.73,0-.12-.14-.26-.28-.39-.41-1.51-.42-2.63-1.55-3.51-2.85-1.4-2.2-2.32-5.23-1.56-7.73.3.02,1.01-2.08,1.56-2.44.46.21,1.75-.11,2.34.81h.01Z"/>
    <path class="st60" d="M1158.62,373.85c-.66-2.07-.65-5.29,0-7.32-.09,2.29-.13,5.05,0,7.32Z"/>
    <path class="st55" d="M1344.81,409.24c-.62-2.52-.52-5.9-.39-8.54.76,2.61.33,5.78.39,8.54Z"/>
    <path class="st7" d="M1347.92,392.16c-.59-1.43-.55-4-.42-5.54.06-.69.41-1.28.42-1.38.06,2.3-.08,4.62,0,6.92Z"/>
    <path class="st43" d="M1324.55,376.29c.11-2.09-.13-4.22,0-6.31.03-.54-.25-1.3.39-1.42-.23,2.47.5,5.41-.39,7.73Z"/>
    <path class="st46" d="M1285.21,346.6c-1.06,1.18.29,3.78-.78,4.88v-5.29c.67-.15.57.05.78.4h0Z"/>
    <path class="st43" d="M1312.48,381.18c-.02-1.49.03-2.99,0-4.47,1.02,1.22.18,3.22,0,4.47Z"/>
    <path class="st40" d="M1264.85,199.84c5.26-.87,8.33,2.26,13.15,2.75,8.61.87,21.36-3.37,28.65.59,8.07,4.39,10.8,25.37-.21,25.45-6.18.04-13.89-5.15-20.63-5.71-10.12-.83-17.93,2.96-27.33,3.62-2.8.2-4.41.1-6.32-2.25-6.59-8.1,4.22-23.06,12.69-24.45h0Z"/>
    <path class="st9" d="M1257.56,146.86c-.06,1.67-.35,3.29-.78,4.88-.33.34-.46.07-.39-.81l-.45-.45c.55-8.93-6.42-15.96-14.85-15.96-16.48,0-20.05,22.2-4.95,28.2.71-.91,2.34-.34,2.34.81.57-.2,1.09-.2,1.56,0l3.5.81c-7.02,1.6-16.76.12-21.81-5.69-12.8-12.97-3.44-32.96,13.6-34.35,12.15-.99,24.45,9.16,22.23,22.55h0Z"/>
    <path class="st54" d="M1345.19,153.37c-1.52.84-1.17-2.61,0-2.85.18-20.69-31.7-19.11-29.14,1.09.8,6.27,3.74,9.2,9.08,11.5.35.15.55.4.59.84-.87.69-2.65.49-3.7.4-9.91-.88-16.96-10.59-15.39-20.74,2.69-27.18,43.54-23.39,40.69,5.39-.12,1.25-.77,4.62-2.13,4.37h0Z"/>
    <path class="st32" d="M1252.1,158.25c-.49-.94-.6-2.16-.36-3.65-.49-1.71-.5-3.2-.03-4.48l-.54-.09c-.2-2.1-.73-3.6-3.25-2.82l-.88-.35c-3.82.18-8.71.82-9.84,5.53-.99,4.11,1.67,8.56,5.79,9.06l.54.87c.94.1,1.33.37,1.17.81-.13.03-.39.36-.78.41-1.8-.25-3.65-.37-5.45,0-.96-.11-1.79-.63-2.34-.81-7.34-2.9-11.55-10.83-8.78-18.75,4.74-13.54,24.77-12.15,28.19,1.91,1.02,4.19.07,10-3.44,12.37h0Z"/>
    <path class="st39" d="M1264.18,115.13c-3.05,6.15-11.9,4.09-17.22,2.73-10.75-2.75-19.84-8.35-31.66-4.77l-3.69-.2c.03-1.57,6.92-4.21,8.35-4.7s3.4-1.14,4.86-1.43c13.79-2.73,25.78,8.68,39.36,8.36h0Z"/>
    <path class="st39" d="M1303.32,113.09c9.12-1.2,18.14-8.93,28.42-9.38,6.09-.26,12.61,2.09,16.18,7.34l-13.42-1.23c-11.39-1.76-25.43,11.62-36.14,6.42-1.08-.53-2.86-1.79-3.03-3.14,2.53-.24,5.52.32,7.98,0h.01Z"/>
    <path class="st48" d="M1257.56,146.86c.58-17.42-17.39-27.09-31.42-18.78-10.76,6.37-12.66,21.08-4.41,30.58-2.67-1.61-5.04-5.42-6.14-8.44-8.9-24.31,31.4-40.65,41.49-14.04,1.14,3.01,2.18,7.83.48,10.68h0Z"/>
    <path class="st33" d="M1340.52,160.69c-1.04.43-1.13,0-.39-.81-.35-1.12.84-3.06,1.95-3.25.84-2.3,1.88-3.39,3.12-3.25.63-.8,1.48-4.7,1.57-5.88,2.02-25.33-36.07-30.1-40.13-3.88-.72-.65-.42-2.09-.29-2.95,1.82-11.31,11.9-18.46,22.64-17.34,18.01,1.88,27.82,25.86,11.54,37.38v-.02h0Z"/>
    <path class="st44" d="M1295.34,178.99c.62,2.22-2.24,3.88-3.9,4.68-5.32,2.56-15.27,3.21-20.23-.43-3.37-2.48-3.96-6.43-1.97-10.14.52-.97,4.03-5.06,4.85-5.08.89-.03,2.77,1.5,2.51,2.56s-7.28,4.55-6.14,8.53c.82,2.85,10.63,3.35,12.98,3.13,4.22-.4,7.81-2.8,11.89-3.25h.01Z"/>
    <path class="st41" d="M1345.19,150.52l-.88-.86c-1.17-18.51-30.57-15.45-26.93,2.44,1.71,8.39,6.98,9.76,14.24,10.9l.33.54c.75-.31,1.19-.45.78.41-2.1.82-4.89.49-7.01,0-9.67-2.24-13.34-15.33-7.21-23.19,8.75-11.23,27.45-5.26,26.69,9.77h0Z"/>
    <path class="st37" d="M1256.39,150.92c.01,1.05-.25,2.13-.78,3.25-2.31,4.96-5.65,7.81-10.91,8.95l-1.17-.81.7-.8c2.62-.07,4.99-1.44,6.83-3.32l1.04.06c6.76-7.43,2.8-20.08-6.62-22.58-14.82-3.93-24.34,11.77-14.42,23.61l5.07,3.45c-14.25-4.68-12.99-24.67,1.16-28.29,9.75-2.49,20.09,5.69,19.1,16.49h0Z"/>
    <path class="st0" d="M1374.02,147.26c.47,3.43-5.44,4.25-6.42,6.51-1.39,3.18,2.27,12.25-3.7,12.2.08-1.1.96-1.46,1.14-2.66.37-2.39-.79-4.24-.79-6.49,0-4.54,5.29-10.23,9.77-9.56h0Z"/>
    <path class="st20" d="M1189.58,146.05c.74-.03,4.45,2.01,5.23,2.67,4.53,3.85,2.42,7.02,2.75,11.78.06.88,1.4,5.08.21,5.06-1.02-.02-2.8-4.37-2.89-5.54-.14-1.92,1.04-5.06.69-6.36-.33-1.21-5.19-5.04-6.17-6.6-.35-.55-.34-.98.19-1.01h0Z"/>
    <path class="st59" d="M1340.52,160.69c-2.81,1.99-4,3.39-7.79,3.25-.04,0-.08-.36-.78-.41-.54-.46-.15-.73,1.17-.81.77-.77,1.93-1.27,3.48-1.5,1.29-.95,2.47-1.4,3.53-1.35l.39.81h0Z"/>
    <path class="st12" d="M1243.92,163.54c-1.09.14-2.75.06-3.9,0-.51-.02-1.05.06-1.56,0,1.31-.68,4.07-.69,5.45,0h.01Z"/>
    <path class="st27" d="M1256.78,151.74c-.34,1.29-.75,1.54-1.17,2.44-.16-1.01.71-2.54.78-3.25l.39.81Z"/>
    <path class="st53" d="M1370.51,391.35c-.22,2.28.3,5.83,1.56,7.73-1.95-2.92-2.28-4.34-1.94-8.14.19.04.33.41.38.41h0Z"/>
    <path class="st60" d="M1375.58,401.92c-2.18.09-2.61-1.51-3.51-2.85.64.96,2.65,2.02,3.51,2.85Z"/>
    <path class="st52" d="M1309.36,208.28c-14.2,3.4-29.02,3.06-43.37.75-2.36-.38-5.35-.75-7.58-1.45-.39-.12-1.16.04-.85-.72.11-.28,1.98-2.14,2.36-2.42,8.02-5.96,18.6,1.6,27.39.94,6.65-.5,13.35-4.22,19.69-.12,1.07.69,2.56,1.5,2.37,3.02h-.01Z"/>
    <path class="st35" d="M1307.02,226.99c-9.75-4.83-20.28-5.83-30.96-4.87-3.52.32-7.42,1.37-10.92,1.62-.45.03-2.91.39-2.52-.6.83-2.09,8.24-5.74,10.42-6.62,8.33-3.36,16.55-5.19,24.53.21,3.82,2.59,6.73,6.52,9.45,10.26Z"/>
    <path class="st32" d="M1345.19,150.52c.09.92-.17,1.73-.3,2.61l.3.24c-.8,1.03-.99.69-2.01,2.58-.1.19-.89,1.53-1.11.68l-.67-.63c.06-1.75.03-3.44-.11-5.07-.26-1.47-.84-2.5-1.75-3.1-.85,0-1.56-.19-2.15-.56-10.6-1.93-16.37,11.58-4.64,14.62l.35.84-1.17.81c-6.04-.39-12.01-1.65-14.48-8.27-7.68-20.62,25.54-27.82,27.72-4.75h.02Z"/>
    <path class="st12" d="M1247.04,146.86c.2.25.36.57.25.9-.94,2.85,1.69,3.89,3.61,2.12l.82.24c.64,2.87,1.29,5.07.39,8.14-2.28,2.51-5.19,4.25-8.57,4.07-7.67-.41-9.94-11.2-3.71-14.66,1.36-.76,6.14-2.44,7.22-.8h-.01Z"/>
    <path class="st29" d="M1251.71,150.11c-2.67,3.7-7.63-.47-4.67-3.25,1.32-1.24,4.03-.76,4.59,1.11.22.74-.05,1.58.08,2.14h0Z"/>
    <path class="st16" d="M1333.12,162.72c-2.96-.12-6.93-2.76-7.36-5.94-1.01-7.32,4.02-10.3,10.3-10.34.74,0,1.57-.38,1.35.82-1.07,2.18.53,5.75,2.9,3.81l.99-.14c1.24-.23.67.65.77,1.42.16,1.32.33,2.97,0,4.27-.26,1.06-1.19,2.5-1.95,3.25-1.74,1.73-4.59,2.94-7.01,2.85h0Z"/>
    <path class="st11" d="M1341.3,150.92c-2.1,4.4-7.45-1.6-3.9-3.66,2.34-1.36,5.14,1.05,3.9,3.66Z"/>
  </g>
  <rect class="st5" x="12" y="444.32" width="2014" height="365.69"/>
  <path class="st25" d="M2034.16,644.01c.84,163.3.84,336.77,0,500.93l-.93,4.62H1.14l-1.22-4.62v-500.93h2034.24Z"/>
  <path class="st21" d="M2034.16,1148.6c.27-.84.59-.83.96,0v.96H-.08v-.96h2034.24Z"/>
  <polygon class="st3" points="2035.12 1148.6 2034.16 1148.6 2034.16 1124.61 2034.16 1100.62 2034.16 1045.92 2034.16 837.69 2035.12 837.69 2035.12 1148.6"/>
  <g>
    <path class="st56" d="M1468.01-.04l.76.88.19,66.64c7.44-1.93,14.89-4.18,22.37-6.76l.19-59.61.76-1.14h17.82v484.13c.15,1.96-2.66,4.12-3.16,4.07-3.67-.31-11.44-7.91-15.43-10.32-.2-1.9.02-2.59.72-2.95-1.15-4.13-1.85-5.14-3.91-5.18-6.53-5.84-13.21-10.99-20.04-13.88-2.53,1.47-3.55.54-5.53-2.95-3.08,2.45-4.72.13-4.93-6.98-1.81-2.44-3.83-4.18-6.05-5.23l-.34-2.27c.46-4.35.45-8.16.28-12.38l1.3-1.28c1.92.43,6.79,2.63,8.6,3.97.45.34.79,1.23,1.1,2.11l-.76-.66v-83.11l.76-1.16c-2.33,1.01-12.84-1.61-13.23-3-.17-.62-.11-1.51-.04-2.28-.07-1.57.47-2.32,1.6-2.24-.32-3.94-.22-7.03.3-9.28,2.75-1.78,6.93-.52,9.9.8.57.25,1.04,1.18,1.48,2.08l-.76-.66v-115.24l.76-1.17c-2.2,2.37-15.47,3.28-16.18,1.31-.21-.58-.19-1.48-.13-2.27l.33-1.92,4.15-.11c-.46-4.43-.32-7.59.45-9.49l1.2-1.87c2.02-.55,6.93-.91,8.92-.56.47.08.88.77,1.26,1.47l-.76-.66v-115.24l.76-1.17c-3.29,3.36-7.94,4.91-11.38,2.88l-.51-1.44c.17-3.38.27-7.25-.62-10.07l.92-2.28c3.57-1.94,7.18-3.09,10.84-3.68V1.11l.76-1.15h5.31-.03,0Z"/>
    <path class="st38" d="M606.54-.04v422.22h821.65V-.04h2.28l.52,6.75c.07,133.92.08,268.46.02,403.64l-.29,24.04c1.04.06,2.28,4.46,1.9,6.62,3.69,1.54,7.37,4.07,10.98,6.67.37.26.71.79,1.05,1.34s.68,1.24.99,1.95l-2.83,1.01-850.14.02-2.06-1.98c-.39-2.45-.04-2.64.76-.96l.52-1.63c4.54-2.54,8.92-5.6,13.16-9.19l.36-437.08.76-1.2h.38-.01Z"/>
    <path class="st49" d="M1441.09-.04l.76.64.37,75.46c1.03-1.2,1.79-.98,2.28.67.83-3.33,4.57-3.6,5.69-.96.29.1.99-.29,1.11.05.22.62.7,10.05.03,11.46-1.74,3.48-5.18,4.1-7.21,1.92l.76.66v109.97l-.76,1.16c2.16-.47,4.4-.63,6.73-.47l.48,1.91.38,11.52h-5.31c-.26,1.1-.77,1.97-1.53,2.62v108.85l6.07,1.66.39,2.02c.48,1.61.55,11.12.38,11.52-.13.31-1.81-.22-2.28,0-1.02,1.57-2.3,2.12-3.82,1.63l-.75,78.79c2.12,1.36,4.28,2.32,6.5,2.88l.35,2.11c2.07,3.66.05,11.48.56,13.46.18.71,5.19,1.21,6.19,5.44.31,1.3.65,6.54.87,6.93.33.6,2.54-1.2,3.54-.85,1.29.46,1.77,3.29,2.38,3.65.69.4,2.2-1.25,3.63-.59,6.4,2.97,13.14,7.83,19.3,13.53.92.85,2.03.32,2.88,1.34.8.95.88,3.49,1.97,4.61s5.57,2.06,6.08,3.34c.36.91.09,2.01-.56,1.91-2.53-.39-4.78-4.66-7.02-.96-15.26-9.24-30.66-17.35-45.89-26.87-4.46-2.79-8.9-6.13-13.41-8.58-.38-4.07-.75-5.31-2.15-7.45.88-106.66.05-213.63-.01-320.26-.02-38.29.54-76.43.4-114.72h10.62Z"/>
    <path class="st13" d="M542.45-.04l.76.88.05,59.73c2.22,1.09,4.6,1.87,7.14,2.35l1.15,2.29c2.66.66,2.88,13.72,0,12.47l-1.54,1.59c-2.31-.69-4.57-.68-6.8.03v120.98l-.76,1.18c3.08.63,6.17.77,9.28.44,2.23-1.25,2.15,10.15,1.07,12.18-2.7.04-5.39.31-8.07.82-.31,1.25-.81,2.11-1.52,2.57v120.56c2,.01,4-.28,6.01-.87l1.58,1.52c.76-.45,2.4-1.29,2.94-.08.19.42.48,11.91-.66,11.6-2.83,4-7.54,6.24-10.62,3.84l.76.67v90.28l-.76,1.17c2.67-3.75,6.5-5.34,9.48-3.84,1.16-.35,1.67,1.49,1.55,5.53-.43,5.58-.03,7.6,1.21,6.07,2.96-3.27,4.82-2.13,5.59,3.42,9.74-4.87,19.42-10.16,29.04-15.88,2-1.02,4.05,4.56,2.05,7.58-.34.21-.61.87-.76.96-1.75,1.08-3.56,1.79-5.31,2.88l-1.14.96c-17.15,10.6-34.37,20.68-51.58,30.71-1.41,1.14-2.17.65-2.28-1.48V1.15l.77-1.2h11.38-.01Z"/>
    <path class="st10" d="M572.03-.04l.76.88v68.58l.76,2.51c1.75.74,1.63,11.93,0,12.47l-.76,2.59-.02,112.71c.4.71.78,1.62,1.16,2.73,1.18,1.04.81,10.71-.38,11.52l-.76,2.58-.02,113.16-.36,2.3c2.53-1.08,3.25,8.92,1.9,12.47.02,1.77-.47,2.43-1.49,1.98-.06,29.46-.08,57.9-.03,85.35,1.69-.85,2.34,2.68,1.94,10.57,2.1.22,4.26-.8,6.36-1.84,6.04-3.64,11.99-7.01,17.86-10.1V1.16l.76-1.2h6.45l-.38,438.07c0,1.3-.24,1.65-.63,2.24-.58.87-4.5,3.55-5.52,4.26-2.71,1.89-5.54,2.83-8.26,4.53.74-9.91-4.04-4.17-5.99-3.16-8.03,4.2-16.24,9.69-24.09,12.15-.37.12-.77,1.63-1.17,1.5-.85-.3-.94-5.09-1.61-5.62-.73-.57-4.48,3.52-5.83,1.85-.34-.85.67-11.69-.76-13.44l1.15-2.57c2.18-1.71,11.9-7.78,13.3-6.23.26.29.49.69.73,1.13l-.76-.67v-85.49l.76-1.17-1.04,1.8c-4.22,1.08-8.4,2.06-12.55,2.93l-.45-1.85v-11.52h-2.28c-.13-.68-.25-1.52-.09-2.09.51-1.83,14.09-4.35,16.4-2.7l-.76-.66v-117.16l.76-1.17-1.31,1.35c-6.08,1-12.3.71-18.43.4-.44-.02-.88-.28-1.32-.57s-.89-.72-1.32-1.18c1.39-2.72,6.55.46,7.53-1.09.57-.91.57-9.14.09-10.82-.57-2.03-8.52,1.09-9.9-1.52.4-.47.79-.91,1.2-1.22s.8-.58,1.2-.61c7.45-.58,15.13-.55,22.25,1.35l-.76-.66v-116.68l.76-1.17c-4.92,1.84-10.44.43-15.12-2.64l-.43-2.16c1.86-.52,1.43-11,0-12.47.43-.37.87-.7,1.32-.9s.88-.38,1.29-.27c3.94,1.07,7.89,2.18,11.8,3.81V1.12l.76-1.16h5.33Z"/>
    <path class="st38" d="M599.71-.04v430.38c-.07,1.97-.73,2.74-1.43,3.11-7.04,1.3-15.44,9.73-22.27,10.84-.7.11-1.41-.1-2.1-.03-.08-2.55.27-10.91-.44-12.35-.21-.43-.55,0-.7-.13l.18-2.06c6.23-3.27,12.37-6.58,18.4-9.94-.3-.08-.75-.36-.76-.89-.24-24.62-.24-51.05,0-75.69l.76-1.15c-1.07-.44-2.2-.47-3.39-.07l-13.12,4.23-.56-1.76c-.08-2.82-.18-7.94-.63-10.35-.28-1.53-.9-1.14-1.26-2.13l.27-2,17.52-4.57c.65-1.04.85-28.16.88-32.68.19-25.65.02-52.65-.45-77.29-5.01.55-10.31.9-15.36.23-.63-.08-1.2-.93-1.73-1.72l.38-11.52,1.33-1.74c5.01-.17,9.99-.8,14.94-1.91l.41-107.26-15.6-4.99-1.46-2.13c.45-3.93.71-8.64,0-12.47.98-.57,1.98-1.15,2.99-.93l13.7,3.58V1.12l.76-1.16h8.74,0Z"/>
    <path class="st2" d="M528.41-.04l.52,26.76c.21,151.53.33,303.07.38,454.61.85,1.44,1.06,3.15.62,5.15-1.86.84-2.98,1.23-4.91-.05-.21-10.98.38-22.18-.41-33.02l.02-453.45h3.79-.01Z"/>
    <polygon class="st45" points="1492.28 -.04 1492.12 62.39 1468.21 70.03 1468.01 -.04 1492.28 -.04"/>
    <path class="st45" d="M566.72-.04v70.05c-5.03-2.03-10.12-3.27-15.17-4.79-2.7-.81-5.42-1.89-8.16-1.91l-.89-1.58-.05-61.76h24.27,0Z"/>
    <path class="st45" d="M590.99-.04v76.77c-5.81-1.43-11.67-2.73-17.45-4.8-.48-.17-1.03.13-1.52,0V-.04h18.97Z"/>
    <path class="st45" d="M1462.7-.04v71.97c-2.05,0-4.17.43-6.21,1.08s-4.23,2.09-6.3,2.76c-1.75.56-3.92.38-5.69.96l-.76-.89V1.12l.76-1.16s18.2,0,18.2,0Z"/>
    <path class="st17" d="M531.07-.04v484.04l1.52.56c-.66,1.24-1.83,1.54-2.65,1.92l-1.34-4.77c-.43-160.49-.06-321.19-.18-481.75h2.65Z"/>
    <path class="st6" d="M1444.5-.04v76.77c-.87.28-2.14,1.35-3.03,1.92l-.38-78.69s3.41,0,3.41,0Z"/>
    <path class="st38" d="M585.3,452.89c-.19.12-.64.65-1.14.96l1.14-.96Z"/>
    <polygon class="st45" points="1492.28 76.73 1492.28 201.48 1468.01 201.48 1468.01 82.49 1492.28 76.73"/>
    <polygon class="st45" points="1492.28 214.91 1492.28 340.62 1468.01 333.9 1468.01 214.91 1492.28 214.91"/>
    <polygon class="st45" points="1492.28 354.05 1492.28 446.17 1468.01 434.66 1468.01 347.33 1492.28 354.05"/>
    <path class="st45" d="M1451.33,87.28c3.78-1.1,7.57-2.51,11.38-2.88v117.07c-3.63,1.58-7.65,1.1-11.38.96-1.07-.04-7.21.86-7.21-1.44v-111.79c2.38-.96,4.81-1.22,7.21-1.92Z"/>
    <path class="st45" d="M1446.39,213.95c.13.03.58.97,1.28,1.03,4.99.4,10.03-.44,15.02-.07v117.07c-3.82-.25-7.6-1.79-11.38-2.88-1.01-.29-7.14-1.21-7.23-2.48l.02-110.28c.08-2.91,1.33-2.61,2.28-2.4h0Z"/>
    <path class="st45" d="M1449.43,340.62c.07.02.43.87.92,1,3.8,1.04,7.6,2.05,11.41,2.83.31-.03.95.91.95,1.44v84.92c-3.69-.42-7.37-2.99-11-4.8-1.95-.97-5.27-1.48-6.94-3.06-.46-.44-.63-.95-.64-2.21l.76-81.1c1.5.53,3.05.58,4.55.97h-.01Z"/>
    <rect class="st58" x="1466.87" y="82.49" width=".76" height="118.99"/>
    <rect class="st58" x="1466.87" y="214.91" width=".76" height="118.99"/>
    <path class="st45" d="M551.55,77.69c.78.2,2.18,1.62,3.23,1.91,4.09,1.12,8.22,1.89,12.32,2.89v118.51c0,3.25-5.7.51-6.62.44-6-.43-12.03.4-18.03.04v-124.75c2.97.1,6.15.23,9.1.96h0Z"/>
    <path class="st45" d="M544.72,214.91c7.43-.66,14.94.49,22.38,0v118.99c-5.11,1.69-10.27,2.39-15.39,3.8-.5.14-.84.98-.92,1-2.75.79-5.59,1.05-8.34,1.92v-125.72c.75-.05,1.52.07,2.28,0h-.01Z"/>
    <path class="st45" d="M553.07,350.21c.77-.24,1.65.22,2.46,0,3.86-1.07,7.66-3.6,11.57-2.87v87.32c-5.17.97-10.15,5.12-15.17,7.68-3.1,1.58-6.33,2.94-9.48,3.84v-92.12c3.55-.79,7.1-2.74,10.62-3.84h0Z"/>
    <path class="st45" d="M573.54,213.95c5.67-.87,11.7.56,17.41.11.17,2.02.38,4.01.43,6.1.77,28.28.73,71.54,0,99.87-.06,2.42-.38,4.7-.41,7.12l-18.57,4.84c-.27-.73-.48-1.01-.4-2.3l.02-115.74c.5-.06,1.02.08,1.52,0h0Z"/>
    <path class="st45" d="M573.54,84.4c5.78.57,12.03,4.13,17.83,5.34l-.43,111.62c-5.66-.81-11.37,2.14-17.03,1.06-1.09-.21-1.95.59-1.92-3.31l.02-114.72c.5.02,1.02-.04,1.52,0h0Z"/>
    <path class="st45" d="M574.3,344.46c2.2-.64,15.88-5.76,16.62-4.64.04.06.44,2.12.44,2.24v77.73c0,.61-.5,2.59-.91,2.56l-17.67,9.43c-.23-.22-.81.56-.77-.57v-83.44c-.06-4.39,1.15-2.98,2.28-3.31h0Z"/>
    <rect class="st19" x="593.64" y="90.16" width=".76" height="111.31"/>
  </g>
</svg>