<?xml version="1.0" encoding="UTF-8"?>
<svg id="Ebene_1" xmlns="http://www.w3.org/2000/svg" version="1.1" viewBox="0 0 2034.72 1149.12">
  <!-- Generator: Adobe Illustrator 29.5.1, SVG Export Plug-In . SVG Version: 2.1.0 Build 141)  -->
  <defs>
    <style>
      .st0 {
        fill: #0e0806;
      }

      .st1 {
        fill: #090605;
      }

      .st2 {
        fill: #cccccb;
      }

      .st3 {
        fill: #848d79;
      }

      .st4 {
        fill: #fcfcfc;
      }

      .st5 {
        fill: #c9dce0;
      }

      .st6 {
        fill: #d9d8d7;
      }

      .st7 {
        fill: #c9c9c9;
      }

      .st8 {
        fill: #fff;
      }

      .st9 {
        fill: #070604;
      }

      .st10 {
        fill: #060504;
      }

      .st11 {
        fill: #050505;
      }

      .st12 {
        fill: #dddcdb;
      }

      .st13 {
        fill: #bbbbba;
      }

      .st14 {
        fill: #f9f9f9;
      }

      .st15 {
        fill: #cac8bb;
      }

      .st16 {
        fill: #7d532f;
      }

      .st17 {
        fill: #090908;
      }

      .st18 {
        fill: #195113;
      }

      .st19 {
        fill: #ae6f44;
      }

      .st20 {
        fill: #fff9e5;
      }

      .st21 {
        fill: #26170f;
      }

      .st22 {
        fill: #ddd;
      }

      .st23 {
        fill: #0e0805;
      }

      .st24 {
        fill: #af7447;
      }

      .st25 {
        fill: #191514;
      }

      .st26 {
        fill: #af7044;
      }

      .st27 {
        fill: #100c0a;
      }

      .st28 {
        fill: #e5f8fd;
      }

      .st29 {
        fill: #140c08;
      }

      .st30 {
        fill: #020101;
      }

      .st31 {
        fill: #c6c6c6;
      }

      .st32 {
        fill: #b07345;
      }

      .st33 {
        fill: #fefefe;
      }

      .st34 {
        fill: #21150c;
      }

      .st35 {
        fill: #dcdbda;
      }

      .st36 {
        fill: #bebebe;
      }
    </style>
  </defs>
  <path class="st20" d="M1283.81.95l1.92.92v420.1l-1.92,1.2-.92,1.92h-526.84l-1.2-1.92c-.53-.1-.94-.2-.94-.3-.16-138.9.06-283.28.94-421.92h528.96Z"/>
  <path class="st33" d="M893.36,340.89c-.24-.33-.42-.65-.38-.94,3.53-24.72,11.11-52.01,33.48-65.52,16.25-9.81,35.73-14.46,54.5-14.82,14.3,18.47,41.53,24.05,62.4,14.16,6.81-3.23,11.21-7.55,15.99-12.69,12.96,3.02,25.59,7.06,37.88,12.12,23.98,10.71,32.69,36.06,35.89,60.79.32,2.45,1.88,16.93.48,18.43-.19.21-.46.31-.72.38l-33.13,2.85-1.05-.38c0-11.89-1.03-23.3-4.32-34.5l-.7-.12c4.72,14.24,4.73,29.17,3.24,43.97l-2.2,23.55c-1.73,18.12-2.91,35.72,4.25,52.85,5.38,14.54,9.93,29.32,14.15,44.36.27.97.43,1.93.22,2.94h-192.93l-.2-1.41c6-19.29,13.13-38.13,21.4-56.54,1.75-4.6,3.28-9.29,4.44-14.09,2.3-9.55,2.35-17.83,2.41-27.32,3.51-15.41,6.54-31.02,7.33-47.11.41-4.13,3.69-2.22,3.52.88-1.77,11.08,3.33,17.29,14.51,14.42,3.65,5.17,9.45,5.77,14.91,3.19.76-.07,1.31.28,1.53.99,7.21,2.28,16.12-.9,16.9-9.39l.84-.52c-.31-.09-.78-.22-.81-.47-.19-1.63-.27-8.86,0-10.29l.81-.59h.89c5.95,13.51,12.17,27.46,20.18,40.23,1.48,2.36,4.32,5.44,7.27,4.7,4.68-1.18,3.55-6.34,2.57-10.02-4.95-18.6-12.47-37.24-20.94-54.34-1.33-3.63-3.46-6.22-6.39-7.78-11.08-17.45-30.68-32.68-52.21-28.2-13.75,2.86-23.3,14.58-30.81,25.91-6.53,10.02-12.74,20.32-18.7,30.85-.65.4-13.33.84-15.12.72-.87-.06-1.42-.24-1.35-1.24h-.03Z"/>
  <path class="st32" d="M1125.04,488.32c-.75-.6-1.37-1.31-1.77-2.19l-12.47-27.46c-10.04-22.84-19.09-47.68-15.86-73.01.97-10.16,1.87-20.09,2.69-29.79,11.66-1.16,23.3-1.93,34.93-2.33,1.2,6.25,1.63,12.85,1.28,19.8-.93,16.72.09,33.16,3.05,49.33,6.29,21.04,12.42,42.13,18.38,63.26l.05,2.39h-30.28Z"/>
  <path class="st17" d="M893.36,340.89c.06-.04.88.4,1.4.42,4.83.13,9.77-.74,14.66-.5,2.83-5.46,5.97-10.76,9.2-15.98,14.55-23.54,28.35-48.71,60.39-39.97,12.11,3.3,24.48,15.11,31.97,25.1.52.69.74,1.93,1.14,2.34.54.55,1.72.56,2.66,1.61,2.63,2.95,7.43,13.66,9.28,17.76,5.35,11.83,10.85,26.45,14.38,38.97,1.11,3.93,4.24,12.09-.32,14.53-4.17,2.23-6.87-.63-9.33-3.83-4.84-6.32-8.04-15.61-12.42-22.4l-8.4-18.86v11.36c0,1.99-1.5,5.87-2.84,7.42-3.02,3.52-11.14,5.17-15.23,3.23-.53-.25-.49-.96-.73-.97-.63-.01-2.12.89-2.98,1.07-4.3.87-7.29.79-10.87-2.12-.85-.69-1.58-2.11-1.7-2.19-.14-.1-2.59.73-3.39.77-5.59.34-10.92-1.92-11.8-8.15-.35-2.49.42-7.55-.17-9.33-.19-.57-1.04-.85-1.55-1.1-.77,9.98-1.72,19.95-3.35,29.82-1.07,6.5-3.61,14.27-4.28,20.4-.37,3.39.16,7.25-.03,10.71-1.19,22.5-13.57,44.15-21.31,64.92-2.74,7.35-5.47,14.77-7.37,22.4h-1.21c3.16-12.99,8.32-25.47,13.25-37.86,3.81-9.58,8.51-18.78,11.48-28.72,2.38-7.96,3.72-15.92,3.92-24.27l-4.77,13.08c-7.86,23.9-45.7,32.61-54.97,5.3-8.24-24.28-.24-50.3,4.04-74.13.27-.49.67-.76,1.21-.83h.04Z"/>
  <path class="st30" d="M982.15,259.54l.92-.19c17.71,22.86,56.78,24.19,74.65.96l1.53.06c14.9,4.68,30.7,7.07,44.37,15.52,25.05,15.49,31.1,49.35,31.14,77.17l-1.25.44c.97,6.16.64,12.39.8,18.59.45,17.15-1.05,34.78,3.45,51.39,5.89,21.73,13.26,43.1,19.17,64.84h-1.61c-5.42-21.71-12.98-42.83-18.77-64.42-5.77-21.5-1.86-44.9-3.84-67.1-.04-.48-.37-2.67-.63-2.72l-34.3,2.48c-.44,2.11-.03,4.3-.18,6.42-1.2,16.62-4.13,31.88-1.42,48.54,4.46,27.45,17.8,51.82,28.87,76.8h-1.61l-1.02-.99c-4.45-9.14-8.82-18.47-12.85-27.86-6.09-14.2-11.98-28.6-14.82-43.9.22,4.72.94,9.41,2.19,13.96l14.52,44.4c1.8,4.76,2.83,9.55,3.1,14.4h-1.21c-2.52-7.72-4.32-15.7-6.75-23.44-5.14-16.38-13.25-32.39-13.83-49.85-.93-27.7,8.56-61.11,1.91-87.85-.62-2.48-1.41-4.95-2.31-7.34.54.09,2.71-.14,2.83,0,.07.08-.06,1.57.09,2.18.82,3.17,1.94,6.11,2.54,9.38,1.42,7.83,1.58,15.59,1.4,23.55l33.65-2.95c1.03-.33.72-4.37.68-5.54-.72-21.78-7.1-50.76-24.45-65.01-13.57-11.15-32.94-14.81-49.32-19.74-.81.01-4.09,4.28-5.14,5.28-18.02,17.01-51.48,15.85-69.04-1.24-1.81-1.76-3.05-3.86-4.83-5.38-17.85.3-37.67,4.97-53.2,14.13-22.96,13.54-30.51,41.18-34.19,66.4-.07.06.2,1.27-1.21.83,3.72-20.69,6.33-38.55,19.79-55.53,14.39-18.16,45.48-26.7,67.59-27.49,1.58-.06,1.62-.19,2.64.85l-.05-.03Z"/>
  <path class="st11" d="M985.79,255c-.08-.13-.78-.32-.77-.61,0-.22,1.9-2.28,1.17-3.52-12.24,2.67-24.92,2.74-37.21.29-9.7-1.93-20.23-5.27-24.14-15.57-.71-.08-.44,1.42-.39,1.85.51,5.11,3.19,9.11,5.57,13.3.25.45.72.79.08,1.16-.44.25-8.07-.98-9.29-1.24-11.66-2.52-19.61-9.65-26.32-19.32-5.4-7.77-9.23-17.22-10.41-26.73-.62.1-.64,1.76-.74,2.34-1.45,8.58-.14,13.65.35,21.81.03.45.26,1.57-.41,1.45-2.31-3.73-5.3-6.93-7.34-10.87-9.43-18.22-6.87-45.92-1.84-65.2,9.5-36.36,28.6-77.54,50.41-107.82,17.97-24.94,54.27-53.18,86.31-44.68,2.52.67,9.06,3.89,10.7,3.96s9.18-3.01,11.88-3.56c48.72-9.78,87.76,45.48,107.18,83.63,15.74,30.92,35.46,88.56,25.91,122.75-2.12,7.59-6.18,14.85-10.99,20.97-.23-7.54,1.75-15.73-.33-23.21-.12-.43-.09-1.25-.68-1.15-2.82,22.43-20.39,43.19-42.79,46.25,1.12-2.81,3.02-5.14,4.04-8.04.76-2.18,1.26-4.43,1.49-6.74.04-.45.48-1.4-.28-1.32-2.72,6.86-8.76,11.48-15.54,13.63-10.94,3.48-24.92,4.21-36.35,3.73-1.58-.07-10.52-1.48-11.08-.84-.42,1.5,2.37,3.26.4,4.13-1.71.11-2.8-2.95-3.25-4.49-.76-2.59-.45-6.2-.14-8.85-19.37,11.19-42.05,10.66-61.76.71l-.12,6.58c0,1.9-1.08,6.48-3.35,5.23h.03Z"/>
  <path class="st26" d="M1054.4,255.82c1.41,1.98,2.22,3.72,4.84,4.54-1.76.57-2.79,3.01-4.08,4.29-19.03,19-53.07,17.07-71.01-2.42-.74-.81-1.29-1.97-2.01-2.7,1.28-.71,4.6-2.96,3.63-4.54,4.01-1.92,1.88-8.95,2.83-12.8.34-.36,7.85,3.27,9.07,3.72,15.5,5.71,30.49,5.5,45.81-.63,1.34-.54,7.44-3.93,7.88-3.91.93.06.18,2.11.18,2.66-.04,5.63-.4,7.23,2.84,11.79h.02Z"/>
  <path class="st24" d="M890.94,393.34c.81-.16.66-.87.81-1.45,1.69-6.78,2.47-12.59,4.84-19.42,7.6-21.94,21.71-46.47,35.03-65.33,10.86-15.39,21.02-24.45,40.95-22.3,14.91,1.61,27.65,13.75,36.63,24.88s13.24,20.67,18.47,33.96c3.38,8.57,7.12,18.52,9.58,27.36,1.07,3.83,4.8,13.99-2.42,13.65-3.17-.15-7.06-7.59-8.6-10.23-5.97-10.23-13.06-23.95-16.93-35.12-.37-1.08-1.35-5.72-1.57-5.92-.27-.24-1.32-.43-1.75-.79.64,6.37,1.65,14.47.3,20.75-1.6,7.4-9.23,9.02-15.64,7.74,2.45-2.5,3.3-5.16,3.92-8.58.41-2.27,1.73-15.12.55-16.01-.4-.29-.8-.18-1.23-.18-.41,5.53.36,15.24-1.81,20.24-2.33,5.35-13.41,6.39-16.75,1.44,4.26-1.72,5.03-6.07,5.28-10.32.06-1.12-.32-1.96-.35-2.9-.06-1.96,1.49-3.2-1.69-3.92v10.94c0,.15-1.13,2-1.39,2.29-3.76,4.19-13.23,4.61-16.31-.7-2.63-4.53-.85-12.55-.47-17.49-1.01.63-2.09,1.56-2.02,2.89-.43.41-2.48-1.83-2.82-2.27-4.21-5.54-5.18-18.11-3.02-24.56.27-.81,2.8-5.15,2.61-5.38-4.25,2.37-5.15,5.49-5.64,10.12-.56,5.24-.13,10.54,1.82,15.47,2.47,6.28,4.22,4.8,3.84,13.03-.8,17.5-7.5,56.91-16.64,71.35-13.33,21.06-44.98,21.16-50.67-7.07-4.39-21.8,0-45.2,5.48-66.33l14.98-1.06c-4.74,10.45-10.75,20.44-14.24,31.47-.79,2.51-3.11,10.32-3.11,12.51v7.23h-.02Z"/>
  <path class="st19" d="M935.74,134.62c1.47-16.3,14.19-30.74,25.02-41.71,5.95-6.03,9.18-9.35,14.06-16.59,3.57-5.3,6.68-11.87,10.23-16.79.25-.35.38-.82.92-.67,8.35,6.84,17.41,14.42,26.86,19.61,14.06,7.73,30.33,12.18,45.21,17.96,5.38.86,19.75,5.99,19.75,5.99l8.06,4.08,4.68,5.63s15.01,20.31,14.74,33.03l3.23-5.57c4.41-5.33,11.67-6.9,16.34-1.05,3.01,3.76,2.52,9.94,2.23,14.68-.75,12.61-5.2,24.9-16.96,30.55-2.7,1.3-7.02,3.26-9.24.32,1.02-5.32,2.66-10.65,3.12-16.08.06-.67.44-2.76-.35-3.04-3.56,13.96-7.31,28.5-14.77,40.85-14.38,23.77-37.39,38.02-64.6,41.28-26.1,3.12-62.19-22.09-75.15-44.42-7.26-12.52-9.29-26.33-13-40.18-.71.29-.45,2.45-.42,3.11.18,3.55.77,7.43,1.43,10.93.3,1.61,1.72,5.38,1.74,6.48.03,1.96-4.55,1.07-5.67.84-3.77-.74-7.05-2.51-9.6-5.46-.7-.82-2.44-3.9-2.8-4.11-.32-.19-.89.32-1.42-.21-.82-.81-3.6-9.11-4.04-10.76-1.49-5.57-3.59-17.64-1.23-22.73,2.86-6.18,7.88-7.9,13.94-5.15,3.93,1.78,4.56,5.08,7.67,7.64.18-2.74-.24-5.76,0-8.47h.02Z"/>
  <path class="st27" d="M1084.93,161.12c25.94-32.05-35.73-55.18-38.65-11.63,2.59-38.57,59.9-19.97,38.65,11.63Z"/>
  <ellipse class="st14" cx="1068.27" cy="147.29" rx="21.39" ry="20.28"/>
  <path class="st27" d="M956.36,161.61c-25.94-32.05,35.73-55.18,38.65-11.63-2.59-38.57-59.9-19.97-38.65,11.63Z"/>
  <path class="st0" d="M1015.24,173.62c-.13.18-2.91,1.24-3.83,2.09-1.6,1.47-4.14,5.92-1.53,7.34,6.02,3.27,12.2,2.05,18.36.39,1.15-.31,6.72-3.03,6.34-.56-.14.92-3.96,3.2-4.93,3.65-5.67,2.59-15.13,3.01-20.25-.92-2.89-2.22-3.55-3.7-2.85-7.44.42-2.27,4.12-7.62,6.43-7.41,1.31.12,2.73,2.2,2.26,2.87h0Z"/>
  <ellipse class="st14" cx="973.19" cy="147.71" rx="21.39" ry="20.28"/>
  <ellipse class="st16" cx="975.9" cy="154.62" rx="14.76" ry="12.96"/>
  <ellipse class="st16" cx="1065.64" cy="153.82" rx="14.34" ry="13.59"/>
  <path class="st29" d="M1116.16,149.28c1.68,1.73-6.02,5.18-6.66,6.61-1.44,3.23,2.35,12.44-3.84,12.38,2.87-3.69-.78-7.81.72-11.86,1.15-3.09,6.21-8.1,9.78-7.13Z"/>
  <path class="st23" d="M924.44,148.46c4.56.49,8.63,4.03,8.89,8.86.11,2.06-.56,3.82-.42,5.79.05.74,1.5,4.82.2,4.75-.23,0-2.49-3.33-2.6-3.94-.46-2.57.97-7.06.18-8.85-.21-.48-4.5-3.99-5.44-5.17-.37-.47-.98-.67-.8-1.44h-.01Z"/>
  <path class="st25" d="M1079.8,157.71c-.65-2.59-.21-4.51-1.23-7.13-4.12-10.54-19.17-12.38-24.67-2.92-1.26,2.18-2.4,5.63-2.44,8.14-.34-5.72.29-8.9,4.49-12.54,10.51-9.13,26.61-.58,23.86,14.44h-.01Z"/>
  <path class="st25" d="M990.53,156.16c-.65-2.18-.52-4.39-1.54-6.6-4.11-8.89-19.13-10.44-24.62-2.46-1.26,1.84-2.69,5.66-2.73,7.78-.34-4.82.59-8.42,4.77-11.49,10.49-7.7,26.87.1,24.11,12.77h0Z"/>
  <circle class="st10" cx="978.07" cy="159.16" r="8.19"/>
  <ellipse class="st10" cx="1062.68" cy="159.16" rx="8.43" ry="7.96"/>
  <circle class="st8" cx="983.11" cy="153.44" r="1.88"/>
  <circle class="st8" cx="1066.91" cy="153.93" r="1.88"/>
  <path class="st33" d="M1123.05,487.33h-8.88c-4.76-19.65-12.15-38.4-18.13-57.64-2.23-7.7-3.01-15.69-2.25-23.72,3.61,29.19,17.81,54.94,29.26,81.36Z"/>
  <path class="st4" d="M547.12-.04l1.92.92-.05,452.36c1.19,10.52,1.49,21.06.89,31.64,2.8.65,5.65.54,8.46.04l2.22,1.56c.55-1.83,2.79-2.47,6.72-1.92,42.75-12.94,86.55-23.1,130.56-30.71l2.88-.96c2.73-3.65,9.4-4.89,13.44-2.88l602.12.05,11.32.91c4.99.27,10.03.55,14.92,1.64,29.08,6.48,58.18,13.1,87.17,19.94,2.41.57,4.76,1.44,7.11,2.32s4.66,1.91,6.95,2.96c9.47.69,18.95,2.84,28.45,6.44,6.23,2.58,11.84,2.46,16.81-.38l-.14-482.74,1.92-1.2h544.32v837.73c-.27.84-.59.83-.96,0l-.93,1.92H1.14l-1.22-1.92V-.04h547.2Z"/>
  <path class="st18" d="M2034.16,644.01c.84,163.3.84,336.77,0,500.93l-.93,4.62H1.14l-1.22-4.62v-500.93h2034.24Z"/>
  <path class="st35" d="M1384.24-.04l1.93.88.47,66.64c18.83-1.93,37.7-4.18,56.62-6.76l.49-59.61,1.93-1.14h45.12v484.13c.38,1.96-6.73,4.12-7.99,4.07-9.3-.31-28.95-7.91-39.05-10.32-.51-1.9.06-2.59,1.81-2.95-2.9-4.13-4.69-5.14-9.91-5.18-16.53-5.84-33.45-10.99-50.74-13.88-6.4,1.47-8.98.54-14.01-2.95-7.79,2.45-11.95.13-12.48-6.98-4.59-2.44-9.69-4.18-15.31-5.23l-.86-2.27c1.16-4.35,1.15-8.16.71-12.38l3.3-1.28c4.85.43,17.18,2.63,21.77,3.97,1.15.34,2.01,1.23,2.78,2.11l-1.92-.66v-83.11l1.92-1.16c-5.89,1.01-32.51-1.61-33.49-3-.44-.62-.28-1.51-.11-2.28-.17-1.57,1.18-2.32,4.05-2.24-.81-3.94-.56-7.03.75-9.28,6.95-1.78,17.54-.52,25.05.8,1.44.25,2.64,1.18,3.75,2.08l-1.92-.66v-115.24l1.92-1.17c-5.58,2.37-39.16,3.28-40.95,1.31-.52-.58-.47-1.48-.33-2.27l.84-1.92,10.51-.11c-1.17-4.43-.8-7.59,1.13-9.49l3.04-1.87c5.11-.55,17.55-.91,22.59-.56,1.2.08,2.24.77,3.18,1.47l-1.92-.66v-115.24l1.92-1.17c-8.33,3.36-20.11,4.91-28.8,2.88l-1.3-1.44c.43-3.38.68-7.25-1.58-10.07l2.33-2.28c9.03-1.94,18.18-3.09,27.43-3.68V1.11l1.92-1.15h13.44-.03Z"/>
  <path class="st22" d="M754.48-.04v422.22h528.96V-.04h5.76l1.32,6.75c.17,133.92.19,268.46.06,403.64l-.73,24.04c2.62.06,5.77,4.46,4.8,6.62,9.33,1.54,18.65,4.07,27.79,6.67.93.26,1.79.79,2.66,1.34s1.71,1.24,2.5,1.95l-7.16,1.01-601.06.02-5.22-1.98c-.99-2.45-.09-2.64,1.92-.96l1.31-1.63c11.49-2.54,22.59-5.6,33.3-9.19l.9-437.08,1.92-1.2h.97,0Z"/>
  <path class="st31" d="M1316.08-.04l1.93.64.93,75.46c2.61-1.2,4.54-.98,5.78.67,2.1-3.33,11.58-3.6,14.4-.96.74.1,2.5-.29,2.81.05.56.62,1.78,10.05.07,11.46-4.41,3.48-13.1,4.1-18.24,1.92l1.92.66v109.97l-1.92,1.16c5.47-.47,11.15-.63,17.03-.47l1.21,1.91.96,11.52h-13.44c-.66,1.1-1.95,1.97-3.87,2.62v108.85l15.36,1.66.99,2.02c1.21,1.61,1.38,11.12.97,11.52-.32.31-4.59-.22-5.77,0-2.59,1.57-5.81,2.12-9.66,1.63l-1.91,78.79c5.36,1.36,10.84,2.32,16.46,2.88l.88,2.11c5.25,3.66.12,11.48,1.41,13.46.46.71,13.13,1.21,15.68,5.44.79,1.3,1.65,6.54,2.2,6.93.84.6,6.42-1.2,8.95-.85,3.27.46,4.48,3.29,6.03,3.65,1.74.4,5.56-1.25,9.19-.59,16.21,2.97,33.25,7.83,48.86,13.53,2.32.85,5.13.32,7.3,1.34,2.02.95,2.22,3.49,4.99,4.61s14.09,2.06,15.39,3.34c.92.91.22,2.01-1.42,1.91-6.41-.39-12.1-4.66-17.77-.96-38.63-9.24-77.6-17.35-116.16-26.87-11.3-2.79-22.54-6.13-33.94-8.58-.96-4.07-1.9-5.31-5.44-7.45,2.22-106.66.12-213.63-.03-320.26-.06-38.29,1.36-76.43,1.01-114.72h26.88-.02Z"/>
  <path class="st7" d="M592.24-.04l1.92.88.13,59.73c5.62,1.09,11.65,1.87,18.07,2.35l2.92,2.29c6.73.66,7.3,13.72,0,12.47l-3.91,1.59c-5.84-.69-11.57-.68-17.21.03v120.98l-1.92,1.18c7.79.63,15.62.77,23.48.44,5.64-1.25,5.45,10.15,2.72,12.18-6.84.04-13.65.31-20.44.82-.78,1.25-2.06,2.11-3.85,2.57v120.56c5.06.01,10.12-.28,15.21-.87l4,1.52c1.92-.45,6.08-1.29,7.43-.08.47.42,1.22,11.91-1.67,11.6-7.16,4-19.08,6.24-26.88,3.84l1.92.67v90.28l-1.92,1.17c6.77-3.75,16.45-5.34,24-3.84,2.93-.35,4.23,1.49,3.92,5.53-1.09,5.58-.07,7.6,3.06,6.07,7.49-3.27,12.2-2.13,14.14,3.42,24.66-4.87,49.17-10.16,73.52-15.88,5.06-1.02,10.26,4.56,5.2,7.58-.86.21-1.55.87-1.92.96-4.42,1.08-9.01,1.79-13.44,2.88l-2.88.96c-43.41,10.6-87.01,20.68-130.56,30.71-3.56,1.14-5.49.65-5.78-1.48l.02-481.92,1.92-1.2h28.8Z"/>
  <path class="st6" d="M667.12-.04l1.92.88v68.58l1.92,2.51c4.44.74,4.13,11.93,0,12.47l-1.93,2.59-.04,112.71c1,.71,1.97,1.62,2.93,2.73,2.98,1.04,2.04,10.71-.96,11.52l-1.93,2.58-.05,113.16-.9,2.3c6.4-1.08,8.23,8.92,4.8,12.47.06,1.77-1.19,2.43-3.76,1.98-.16,29.46-.19,57.9-.08,85.35,4.29-.85,5.92,2.68,4.92,10.57,5.32.22,10.78-.8,16.1-1.84,15.29-3.64,30.36-7.01,45.21-10.1V1.16l1.93-1.2h16.32l-.95,438.07c0,1.3-.61,1.65-1.6,2.24-1.46.87-11.39,3.55-13.98,4.26-6.85,1.89-14.03,2.83-20.91,4.53,1.87-9.91-10.23-4.17-15.16-3.16-20.33,4.2-41.12,9.69-60.97,12.15-.94.12-1.96,1.63-2.95,1.5-2.16-.3-2.37-5.09-4.07-5.62-1.85-.57-11.35,3.52-14.77,1.85-.85-.85,1.7-11.69-1.92-13.44l2.9-2.57c5.53-1.71,30.13-7.78,33.66-6.23.65.29,1.25.69,1.84,1.13l-1.92-.67v-85.49l1.92-1.17-2.62,1.8c-10.67,1.08-21.26,2.06-31.77,2.93l-1.13-1.85v-11.52h-5.76c-.33-.68-.63-1.52-.23-2.09,1.28-1.83,35.66-4.35,41.51-2.7l-1.92-.66v-117.16l1.92-1.17-3.31,1.35c-15.4,1-31.14.71-46.65.4-1.11-.02-2.22-.28-3.33-.57s-2.25-.72-3.35-1.18c3.52-2.72,16.57.46,19.06-1.09,1.45-.91,1.44-9.14.24-10.82-1.44-2.03-21.56,1.09-25.07-1.52,1-.47,2.01-.91,3.05-1.22s2.03-.58,3.04-.61c18.86-.58,38.3-.55,56.31,1.35l-1.92-.66v-116.68l1.92-1.17c-12.46,1.84-26.42.43-38.27-2.64l-1.09-2.16c4.71-.52,3.63-11,0-12.47,1.1-.37,2.21-.7,3.35-.9s2.22-.38,3.27-.27c9.97,1.07,19.97,2.18,29.86,3.81V1.12l1.93-1.16h13.44Z"/>
  <path class="st22" d="M737.2-.04v430.38c-.18,1.97-1.85,2.74-3.61,3.11-17.82,1.3-39.08,9.73-56.36,10.84-1.76.11-3.56-.1-5.32-.03-.2-2.55.68-10.91-1.12-12.35-.53-.43-1.38,0-1.76-.13l.46-2.06c15.77-3.27,31.3-6.58,46.58-9.94-.76-.08-1.91-.36-1.92-.89-.62-24.62-.62-51.05,0-75.69l1.92-1.15c-2.71-.44-5.57-.47-8.58-.07l-33.21,4.23-1.41-1.76c-.21-2.82-.46-7.94-1.6-10.35-.72-1.53-2.28-1.14-3.2-2.13l.69-2,44.36-4.57c1.64-1.04,2.14-28.16,2.22-32.68.47-25.65.06-52.65-1.13-77.29-12.69.55-26.11.9-38.87.23-1.6-.08-3.05-.93-4.39-1.72l.96-11.52,3.37-1.74c12.69-.17,25.3-.8,37.83-1.91l1.04-107.26-39.5-4.99-3.7-2.13c1.14-3.93,1.8-8.64,0-12.47,2.47-.57,5.02-1.15,7.57-.93l34.67,3.58V1.12l1.92-1.16s22.09,0,22.09,0Z"/>
  <path class="st2" d="M556.72-.04l1.32,26.76c.52,151.53.83,303.07.95,454.61,2.16,1.44,2.68,3.15,1.57,5.15-4.72.84-7.55,1.23-12.43-.05-.52-10.98.96-22.18-1.05-33.02l.04-453.45s9.6,0,9.6,0Z"/>
  <polygon class="st28" points="1445.68 -.04 1445.26 62.39 1384.73 70.03 1384.24 -.04 1445.68 -.04"/>
  <path class="st28" d="M653.68-.04v70.05c-12.72-2.03-25.61-3.27-38.4-4.79-6.84-.81-13.72-1.89-20.65-1.91l-2.26-1.58-.13-61.76h61.44Z"/>
  <path class="st28" d="M715.12-.04v76.77c-14.71-1.43-29.53-2.73-44.16-4.8-1.21-.17-2.6.13-3.84,0V-.04h48Z"/>
  <path class="st28" d="M1370.8-.04v71.97c-5.2,0-10.56.43-15.72,1.08s-10.71,2.09-15.96,2.76c-4.42.56-9.92.38-14.4.96l-1.92-.89V1.12l1.92-1.16s46.08,0,46.08,0Z"/>
  <path class="st12" d="M563.44-.04l-.02,484.04,3.86.56c-1.67,1.24-4.62,1.54-6.72,1.92l-3.38-4.77c-1.08-160.49-.16-321.19-.46-481.75h6.72Z"/>
  <path class="st15" d="M2034.16,1148.6c.27-.84.59-.83.96,0v.96H-.08v-.96h2034.24Z"/>
  <path class="st5" d="M1324.72-.04v76.77c-2.19.28-5.41,1.35-7.67,1.92l-.97-78.69s8.64,0,8.64,0Z"/>
  <polygon class="st3" points="2035.12 1148.6 2034.16 1148.6 2034.16 1124.61 2034.16 1100.62 2034.16 1045.92 2034.16 837.69 2035.12 837.69 2035.12 1148.6"/>
  <path class="st22" d="M700.72,452.89c-.48.12-1.61.65-2.88.96l2.88-.96Z"/>
  <polygon class="st28" points="1445.68 76.73 1445.68 201.48 1384.24 201.48 1384.24 82.49 1445.68 76.73"/>
  <polygon class="st28" points="1445.68 214.91 1445.68 340.62 1384.24 333.9 1384.24 214.91 1445.68 214.91"/>
  <polygon class="st28" points="1445.68 354.05 1445.68 446.17 1384.24 434.66 1384.24 347.33 1445.68 354.05"/>
  <path class="st28" d="M1342,87.28c9.57-1.1,19.15-2.51,28.8-2.88v117.07c-9.2,1.58-19.36,1.1-28.8.96-2.71-.04-18.24.86-18.24-1.44v-111.79c6.03-.96,12.18-1.22,18.24-1.92Z"/>
  <path class="st28" d="M1329.52,213.95c.33.03,1.46.97,3.25,1.03,12.64.4,25.39-.44,38.03-.07v117.07c-9.66-.25-19.23-1.79-28.8-2.88-2.55-.29-18.08-1.21-18.3-2.48l.05-110.28c.2-2.91,3.37-2.61,5.76-2.4h.01Z"/>
  <path class="st28" d="M1337.2,340.62c.18.02,1.09.87,2.32,1,9.61,1.04,19.25,2.05,28.88,2.83.78-.03,2.4.91,2.4,1.44v84.92c-9.33-.42-18.66-2.99-27.84-4.8-4.93-.97-13.34-1.48-17.58-3.06-1.17-.44-1.59-.95-1.63-2.21l1.93-81.1c3.8.53,7.72.58,11.52.97h0Z"/>
  <rect class="st36" x="1381.36" y="82.49" width="1.92" height="118.99"/>
  <rect class="st36" x="1381.36" y="214.91" width="1.92" height="118.99"/>
  <path class="st28" d="M615.28,77.69c1.98.2,5.52,1.62,8.17,1.91,10.36,1.12,20.82,1.89,31.19,2.89v118.51c0,3.25-14.42.51-16.76.44-15.18-.43-30.46.4-45.64.04v-124.75c7.51.1,15.58.23,23.04.96h0Z"/>
  <path class="st28" d="M598,214.91c18.82-.66,37.81.49,56.64,0v118.99c-12.93,1.69-25.99,2.39-38.96,3.8-1.26.14-2.13.98-2.32,1-6.97.79-14.14,1.05-21.12,1.92v-125.72c1.91-.05,3.85.07,5.76,0h0Z"/>
  <path class="st28" d="M619.12,350.21c1.95-.24,4.17.22,6.22,0,9.76-1.07,19.4-3.6,29.3-2.87v87.32c-13.08.97-25.7,5.12-38.4,7.68-7.85,1.58-16.02,2.94-24,3.84v-92.12c8.99-.79,17.96-2.74,26.88-3.84h0Z"/>
  <path class="st28" d="M670.96,213.95c14.36-.87,29.61.56,44.06.11.44,2.02.96,4.01,1.1,6.1,1.94,28.28,1.85,71.54,0,99.87-.16,2.42-.97,4.7-1.04,7.12l-47,4.84c-.68-.73-1.22-1.01-1.01-2.3l.05-115.74c1.27-.06,2.57.08,3.84,0h0Z"/>
  <path class="st28" d="M670.96,84.4c14.62.57,30.44,4.13,45.14,5.34l-1.08,111.62c-14.33-.81-28.79,2.14-43.1,1.06-2.77-.21-4.93.59-4.85-3.31l.04-114.72c1.27.02,2.57-.04,3.84,0h0Z"/>
  <path class="st28" d="M672.88,344.46c5.58-.64,40.19-5.76,42.08-4.64.11.06,1.12,2.12,1.12,2.24v77.73c0,.61-1.26,2.59-2.3,2.56l-44.74,9.43c-.58-.22-2.05.56-1.94-.57l-.03-83.44c-.12-4.39,2.95-2.98,5.81-3.31h0Z"/>
  <rect class="st13" x="721.84" y="90.16" width="1.92" height="111.31"/>
  <path class="st9" d="M944.95,124.03c-.29-1.8.58-3,1.33-4.45,5.28-10.16,14.34-14.01,24.42-13.74,2.2.06,6.26.21,8.32.54,1.01.16,6.79,2.78,6.94,3.56.55,2.74-7.46,2.88-8.94,3.16-7.32,1.39-17.52,3.14-24.31,6.18-1,.45-7.48,5.13-7.77,4.75Z"/>
  <path class="st1" d="M1059.13,106.34c7.59-.88,21.11,2.27,27.25,6.98,1.32,1.01,7.46,7.61,7.26,8.97-.11.72-.7.45-1.14.33-7.49-1.97-12.87-6.94-21.1-8-2.92-.38-6.51-.16-9.49-.47-1.14-.12-6.28-.7-6.85-1.04-1.02-.61-1.59-3.67-1.04-4.81.62-1.29,3.79-1.81,5.1-1.96Z"/>
  <path class="st21" d="M1048.87,206.64c.15-.09.09-.72.18-.79.8-.63,2.17,1.34.55,1.91-7.71,1.94-15.35,4.34-23.3,4.84-12.24.77-20.13-1.18-31.61-4.53-.67-.2-4.54.21-4.67-1.52s2.35.27,2.57.27c.63-.02,1.08-.99,1.67-.84.9.23,2.89,2.13,4.63,2.69,10.86,3.46,29.31,3.09,40.37.61,1.25-.28,9.19-2.36,9.63-2.63Z"/>
  <path class="st34" d="M1028.84,220.97c1.61,1.57-6.22,3.09-6.79,3.14-3.12.28-7.75-.32-10.66-1.68-.7-.33-1.76-.64-1.74-1.72,2.2-.64,4.11,1.09,6.3,1.34,4.19.47,8.73-.69,12.89-1.08Z"/>
</svg>