<?xml version="1.0" encoding="UTF-8"?>
<svg id="Ebene_1" xmlns="http://www.w3.org/2000/svg" version="1.1" viewBox="0 0 2034.72 1149.12">
  <!-- Generator: Adobe Illustrator 29.5.1, SVG Export Plug-In . SVG Version: 2.1.0 Build 141)  -->
  <defs>
    <style>
      .st0 {
        fill: #8a523b;
      }

      .st1 {
        fill: #f7ec1a;
      }

      .st2 {
        fill: #d3e198;
      }

      .st3 {
        fill: #524283;
      }

      .st4 {
        fill: #cccccb;
      }

      .st5 {
        fill: #848d79;
      }

      .st6 {
        fill: #cdab71;
      }

      .st7 {
        fill: #100b09;
      }

      .st8 {
        fill: #88513a;
      }

      .st9 {
        fill: #282d63;
      }

      .st10 {
        fill: #130c07;
      }

      .st11 {
        fill: #fcfcfc;
      }

      .st12 {
        fill: #c9dce0;
      }

      .st13 {
        fill: #62493e;
      }

      .st14 {
        fill: #e41c20;
      }

      .st15 {
        fill: #b8794d;
      }

      .st16 {
        fill: #d9d8d7;
      }

      .st17 {
        fill: #cdaa71;
      }

      .st18 {
        fill: #4cad32;
      }

      .st19 {
        fill: #080605;
      }

      .st20 {
        fill: #88513b;
      }

      .st21 {
        fill: #c9c9c9;
      }

      .st22 {
        fill: #fff;
      }

      .st23 {
        fill: #89523b;
      }

      .st24 {
        fill: #a6a6a6;
      }

      .st25 {
        fill: #fbe0d9;
      }

      .st26 {
        fill: #684338;
      }

      .st27 {
        fill: #060504;
      }

      .st28 {
        fill: #050505;
      }

      .st29 {
        fill: #a7472b;
      }

      .st30 {
        fill: #dddcdb;
      }

      .st31 {
        fill: #1b1614;
      }

      .st32 {
        fill: #060302;
      }

      .st33 {
        fill: #60382a;
      }

      .st34 {
        fill: #f3f2f1;
      }

      .st35 {
        fill: #bbbbba;
      }

      .st36 {
        fill: #fbfbfb;
      }

      .st37 {
        fill: #f9f9f9;
      }

      .st38 {
        fill: #834c38;
      }

      .st39 {
        fill: #de844f;
      }

      .st40 {
        fill: #cac8bb;
      }

      .st41 {
        fill: #efefee;
      }

      .st42 {
        fill: #7d532f;
      }

      .st43 {
        fill: #030101;
      }

      .st44 {
        fill: #fbded7;
      }

      .st45 {
        fill: #fbf05d;
      }

      .st46 {
        fill: #195113;
      }

      .st47 {
        fill: #0a0404;
      }

      .st48 {
        fill: #0d0705;
      }

      .st49 {
        fill: #ae6f44;
      }

      .st50 {
        fill: #e31c20;
      }

      .st51 {
        fill: #fff9e5;
      }

      .st52 {
        fill: #3b2920;
      }

      .st53 {
        fill: #cdaa70;
      }

      .st54 {
        fill: #cde3b3;
      }

      .st55 {
        fill: #12100d;
      }

      .st56, .st57 {
        fill: #b07345;
      }

      .st56, .st58 {
        stroke: #000;
        stroke-miterlimit: 10;
      }

      .st59 {
        fill: #e41d20;
      }

      .st60 {
        fill: #0c0704;
      }

      .st61 {
        fill: #0c0505;
      }

      .st62 {
        fill: #88503b;
      }

      .st63 {
        fill: #ddd;
      }

      .st64 {
        fill: #020100;
      }

      .st65 {
        fill: #030201;
      }

      .st66 {
        fill: #e31d20;
      }

      .st67 {
        fill: #010000;
      }

      .st68 {
        fill: #040202;
      }

      .st69 {
        fill: #fafaf9;
      }

      .st70 {
        fill: #af7044;
      }

      .st71 {
        fill: #272c63;
      }

      .st72 {
        fill: #080303;
      }

      .st73 {
        fill: #312017;
      }

      .st74 {
        fill: #e5f8fd;
      }

      .st75 {
        fill: #0d0505;
      }

      .st76 {
        fill: #f2662f;
      }

      .st77 {
        fill: #f9f8f8;
      }

      .st78 {
        fill: #aea5c7;
      }

      .st79 {
        fill: #c6c6c6;
      }

      .st80 {
        fill: #fefefe;
      }

      .st81 {
        fill: #cdab70;
      }

      .st82 {
        fill: #84bc2d;
      }

      .st83 {
        fill: #fafafa;
      }

      .st58 {
        fill: #c88950;
      }

      .st84 {
        fill: #eb635a;
      }

      .st85 {
        fill: #f9a66c;
      }

      .st86 {
        fill: #eeeceb;
      }

      .st87 {
        fill: #dcdbda;
      }

      .st88 {
        fill: #a46038;
      }

      .st89 {
        fill: #bebebe;
      }

      .st90 {
        fill: #60372a;
      }

      .st91 {
        fill: #414141;
      }

      .st92 {
        fill: #fbdfd8;
      }

      .st93 {
        fill: #fce1da;
      }
    </style>
  </defs>
  <path class="st51" d="M1434.17-.04l3,.92v420.1l-3,1.2-1.44,1.92h-824.07l-1.88-1.92c-.83-.1-1.47-.2-1.47-.3-.25-138.9.09-283.28,1.47-421.92h827.39,0Z"/>
  <g>
    <path class="st28" d="M1241.01,253.83h.04c1.04.43,1.98-1.19,2.28-2.16l.69-10.09c19.32,10.53,42.04,10.34,61.41-.25-.46,2.58.28,12.77,2.79,13.62l.69-.19c1.74-1.42-.41-2.56-.61-4.32.58.11,1.18-.28,1.69-.28,3.8-.02,8.61,1.04,12.63,1.2,6.99.27,14.45-.22,21.36-1.28,11.06-1.7,22.69-4.66,27.35-16.3.56-.06.24.65.21.99-.38,4.13-1.52,7.95-3.48,11.56-.36.65-2.53,3.41-2.17,3.8,2.42-.78,4.94-1.12,7.39-1.84,4.72-1.39,8.6-3.32,12.6-6.23,12.31-8.96,20.9-23.08,22.83-38.5l.81,2.72c.58,3.34.81,6.71.71,10.1l-.77,11.86c11.26-13.11,14.05-29.41,13.43-46.44-.66-18.13-5.13-35.35-10.49-52.51-10.24-32.79-25.59-62.7-46.84-89.37-19.73-24.76-50.36-46.47-83.17-36.64-1.37.41-5.36,2.26-6.26,2.26-.8,0-6.07-2.63-7.53-3.12-32.92-10.98-70.6,17.52-89.09,43.41-18.56,26-34.17,57.7-44.4,88.16-7.92,23.54-13.32,45.07-8.65,70.24,1.73,9.38,5.65,17.97,12.42,24.62-.22-2.41-.82-4.82-1.05-7.25-.47-4.94-.25-9.84.34-14.76l.86-3.59c1.62,12.1,7.01,23.63,14.93,32.7,8.27,9.49,18.6,14.57,31.22,14.49.23-.2-2.78-4.74-3.07-5.34-1.27-2.64-2.51-6.47-2.88-9.39-.05-.42-.41-1.83.21-1.92,3.97,11.02,15.03,14.3,25.29,16.25,11.82,2.24,24.06,2.22,35.81-.45.9.62.29,1.86-.04,2.68-.26.67-1.77,1.34.48,1.57h.03Z"/>
    <path class="st57" d="M1374.92,485.83v-.02c9.32.53,21.08.39,30.46,0-.16-1.85-.47-3.68-.94-5.48l-14.23-47.68c-4.5-13.03-6.6-26.24-6.37-39.89.13-13.54.09-27.13-.97-40.75l-.81-.38c-9.27,3.19-20.92-.29-30.02,2.57-.17.05-.38.37-.46.52-1.11,2.23-1.09,7.45-2.04,9.76-.3.73-1.33,1.96-1.71,2.65-.68,1.25-1.79,3.87-2.32,5.19-.35.87-.99,2.64-1.27,3.53s-.75,2.72-.94,3.64c-.16.74-.65,2.24-.5,2.98.13.59,1.33,1.43,1.33,2.04-.05,5.96.38,16.54.75,19.2,1.89,13.44,5.01,26.17,10.02,38.82,5.66,14.28,12.31,28.16,18.98,41.95l1.03,1.33v.02Z"/>
    <path class="st67" d="M1353.49,355.47l25.77-3.22h3.18c.08,2.82.17,5.66.3,8.48.2,4.36.53,8.88.62,13.25.35,17.27-1.45,31.31,3.23,48.22,5.88,21.31,12.87,42.32,18.78,63.62.4-.02,1.41.26,1.15-.41l-19.71-66.84c-3.55-15.88-2.14-33.13-2.58-49.5-.16-5.73-.17-11.4-.6-17.13l5.08-.66c.28-13.57-1.31-27.65-5.3-40.6-10.38-33.72-30.44-40.97-61.3-49.59-2.72-.76-6.76-1.19-9.06-2l-.88.06c-16.99,23.33-58.06,21.87-74.69-1.07l-.74.09h.03c-.14-.13-.12-.45-.5-.56-19.15.59-40.48,5.29-56.79,15.86-17.49,11.34-25.82,32.28-30.04,52.26-.85,4.02-2.1,9.38-2.28,13.41-.17,3.8.91.83,3.33,1.46-1.71,7.38,2.21,20.68,1.03,28.2-1.83,11.6,17.31,21.54,29.74,26.87,3.25,1.4-14.44,3.25-10.98,3.75,8.42,1.22,16.22-3.11,23.94-5.82.83,20.24-8.85,38.11-16.13,56.15-4.72,11.72-9.42,23.8-12.52,36.08l1.24-.18c3.27-12.15,7.79-23.96,12.49-35.59,6.48-16.03,14.99-32.13,16.13-49.83.08-1.32-.31-6.88.3-7.4,28-11.57,48.53,33.47,75.73,20.08,1.1,4.62,5.64-6.04,8.16-1.99.56.89-1.19-12.86-1.11-12.57.39,1.32,9.25,24.95,9.51,26.83.97,7.03,7.85-13.29,14.2-15.05.58-.17,2.27,6.86,2.38,6.93.02.01-.01-7.68.14-7.53,1.13,1.08.33,1.1.49,1.34.13.21,4.22,1.53,4.7,1.54.92.03,3.39-.25,4.36-.42,1.05-.18,3.04,7.51,3.42,7.57.22.04.31-8.32.67-8.09,5.34,3.4,11.43-19.3,13.75-25.38,1.31-1.98.75-9.66.85-11.93,2.93,1.5,7.24,5.86,8.76,8.5-1.3,7.83-2.8,15.63-3.03,23.58-.28,2.15-.29,4.33,0,6.48.59,16.51,8.99,33.51,13.88,49.19,2.11,6.79,3.87,16.64,6.7,22.76.74,1.58,1.81,1.83,1.3-.09-1.92-7.23-4.47-15.23-6.71-22.44-4.92-15.9-13.4-33.02-13.95-49.74-.28-1.94-.28-3.92,0-5.86.18-6.21,1.04-12.77,2.21-18.87.78-6.34,2.46-2.69,1.11,1.14-.55,8.88,1.79,21.65,3.71,30.44,5.09,23.37,17.05,44.67,26.41,66.38.29.39,1.1.17,1.54.19-6.68-14.99-14.18-29.68-20.05-45.04-3.95-10.35-6.73-20.41-8.51-31.4-1.23-7.58-2.42-15.55-1.59-23.2-.81-6.74.13-4.81-1.47-5.86-4.12-2.7-7.6-3.59-3.37-1.19,3.23,1.83-.64,5.1,3.21,4"/>
    <path class="st70" d="M1240.98,253.84v.02c-.07.1.04.59-.17.89-1.03,1.44-2.25,2.93-4.05,3.42.81.83,1.47,2.18,2.26,3.09,16.77,19.17,52.98,20.72,70.6,2.17,1.18-1.25,2.21-3.06,3.45-4.33-1.7-.6-3.23-2.96-4.22-4.32-.19-.27-.61-.41-.96-1.02-2.47-4.29-1.93-8.78-1.9-13.49-2.5,1.13-4.87,2.49-7.4,3.54-17.23,7.17-33.91,6.56-50.87-1.02-.67-.29-3.99-2.26-4.32-1.9l-.69,9.94c.16,1.63-1.27,2.27-1.73,3.01h0Z"/>
    <path class="st24" d="M1338.72,406.22c-.51,1.88-.51,4.6,0,6.48-.07-2.09-.06-4.39,0-6.48Z"/>
    <path class="st91" d="M1339.92,406.53c-.51,1.68-.51,4.2,0,5.86-.06-1.93-.05-3.93,0-5.86Z"/>
    <path class="st49" d="M1312.77,95.92h.03c-8.09-3.09-16.42-5.6-24.5-8.72-16.26-6.29-28.09-13.04-41.82-23.86-1.83-1.44-3.83-3.49-5.61-4.76-.26-.18-.32-.42-.76-.3-5.14,9.15-10.78,18.98-17.38,27.11-1.99,2.45-3.75,3.63-5.85,5.73-9.99,9.99-20.84,21.4-24.64,35.57-1.35,5.04-1.91,10.26-1.9,15.49-1.94-1.28-3.02-4.47-4.67-5.87-2.29-1.93-6.7-3.15-9.63-2.74-3.18.45-7.35,5.3-7.72,8.45-.76,6.35.56,15.22,2.34,21.37.36,1.22,3.28,9.58,3.74,9.91.41.3,1.41-.32,1.47-.27.04.03.16.7.35,1.02,3.93,6.55,9.5,9.57,17.1,9.11.25-.5.36-1,.29-1.57-.21-1.68-1.25-4.21-1.61-6.09-.81-4.13-1.52-8.91-1.36-13.12,0-.37-.24-1.14.29-1.07,3.65,13.12,5.48,26.41,12.02,38.46,11.27,20.77,41.39,42.79,64.49,46.02,13.64,1.9,33.55-4.2,45.56-11.01,15.15-8.6,29.24-24.61,35.92-41,3.95-9.71,6.59-20.81,9.42-30.93.51-.08.32.73.29,1.07-.17,2.33-.59,5.03-.95,7.36-.54,3.37-2.1,7.9-2.35,10.89-.16,1.82.31,2.11,1.94,2.27,6.3.62,14.24-5.83,17.77-10.82,5.2-7.33,7.02-21.83,6.23-30.68-.53-5.8-5.85-9.4-11.33-8.78-2.86.32-6.76,3.62-8.24,6.07-.87,1.44-1.17,3.22-2.17,4.42.25-12.72-5.31-25.29-14.93-33.31-.02,1.29,1,2.52,1.06,3.85.03.64-.19.56-.71.41-.9-.26-4.58-3.92-5.84-4.83-11.73-8.52-25.37-7.37-38.7-4.07-.52-4.04,4.67-7.99,7.94-9.31l4.42-1.48h0Z"/>
    <path class="st80" d="M1387.59,350.39l-.02-.03c0-25.23-5.67-57.18-27.17-72.62-4.93-3.54-10.49-6.03-16.11-8.21-9.81-3.8-20.06-6.45-30.19-9.22-2.07,1.66-3.7,4.01-5.72,5.83-18.41,16.48-51.04,15.23-68.47-2.14-1.03-1.02-3.23-4.22-3.89-4.66-1.54-1.03-12.28.31-14.76.68-13.49,2-29.34,6.91-40.89,14.33-21.18,13.6-28.7,41.09-32,65.06,4.79.62,9.58-.26,14.35-.16,8.41.18,17.64,1.85,25.7,4.25,1.24.37,8.69,3.21,9.11,2.85,1.44-6.96,2.93-13.91,4.14-20.91.94-5.44,1.33-12.29,2.59-17.41.36-1.43,1.02-.71,2.33-.84l-12.36,59.88c-2.11,17.14,3,22.72.53,39.14-22.91,151.97,61.28,85.63,67.42,87.8,23.33,8.23,70.32,7.76,86.79,4.21,25-5.38-10.17-58.42-10.45-82.35-.18-16.24.29-11.73,2.9-31.33.19-1.47,5.05-19.41,6.5-18.74,4.8-12.54,4.28-27.29,1.03-40.22-.51-1.99-1.87-5.06-2.09-6.82-.11-.91,1.67-.27,2.24-.47,3.63,11.24,4.88,23.05,4.39,34.88l34.09-2.78h0Z"/>
    <path class="st58" d="M1377.78,352.28c1.35-.35,2.55-.06,3.24-1.62,1.24-2.85-3.61-6.2-5.63-7.65-1.44-1.04-5.05-4.11-6-1.33-1.35,3.97,2.15,9.43,5.94,10.34l.25.35"/>
    <path class="st56" d="M1366.23,405.11"/>
    <path class="st56" d="M1378.73,352.92l-2.25-.58c-1.11-.42-2.83-1.76-3.5-2.39-1.89-1.79-3.59-5.06-2.98-7.69.19-.8,1.14-1.51.39-2.25-18.53-12.18-37.67-24.6-58.03-33.34-17.88-7.67-30.28-10.29-48.18-.39-20.62,11.41-40.32,25.7-60.98,37.12-2.75,1.51-5.9,2.7-8.53,4.17-8.03,4.48-15.67,9.71-23.36,14.73-.82.33-.34-.27-.11-.55,3.37-3.97,9.27-7.25,13.74-9.92,2.06-1.23,4.45-2.11,6.4-3.61.36-.26,3.55-.97,3.24-1.67-8.75-3.8-30.77-8.32-44.02-5.96.8,13.97-.14,45.1,9.16,56.64,4.33,5.39,8.4,5.93,14.8,6.12,16.51.48,22.12-6.72,34.04-16.38,8.38-6.79,16.69-13.77,24.91-20.77,13.66-11.61,27.21-23.41,40.25-35.72l-1.66-5.46,2.61,3.15c3.35,6.84,7.3,13.15,14.23,16.56,2.18,1.07,3.87.51,4.72,3.57.5,1.82-1.04-2.53-2.91-2.25-.31-1.1.29.42-.5,1.1-.34.29-.53.71-.4,1.13l1.04,3.43c.24.8,2.3,2.9,3.08,3.42,3.64,2.41,14.12,2.2,15.09-3.12.56-3.1-1.16-7.94-4.81-13.38-.21-.3-.55-1.02-.03-1.11,2.45,3.92,4.79,7.97,5.71,12.6.53,2.66-1.06,3.9,2.3,4.48,2.78.49,7.78-1.1,9.27-3.62,1.14-1.95.89-4.29.41-6.42-.75-3.32-2.04-6.61-2.71-9.97.29-.03.06-.11.17-.05.19.08,1.6,3.31,1.79,3.8,1.55,4.09,2.14,8.78,1.46,13.06,2.96,1.15,5.62.88,8.02-1.21,5.74-4.99.43-14.69-1.42-20.58,5.4,2.66,4.75,2.04,6.06,2.92,1.02.69.57.42,1.94,1.1,10.63,5.26,35.25,24.3,41.73,19.55"/>
    <path class="st69" d="M1249.74,148.96h0c2.36-11.18-6.62-21.56-17.22-23.32-19.79-3.29-34.53,19.38-19.58,34.43,5.47,5.94,15.6,7.26,23.07,5.55l-.75-.31-.81-.52c-14.18,1.57-22.89-16.95-10.61-26.07,11.31-8.4,28.27,2.68,23.19,16.72l.29.92c.25.68.68-.46.75-.62.91-2.18,1.51-4.4,1.66-6.78h.01Z"/>
    <path class="st37" d="M1300.39,146.34h0c-1.02,11.24,8.43,18.9,18.85,19.39,1.04.3.83.16,2.3.38.56-.17,1.51.29.87-.03l-.38-.68c-15.45-2.84-15.87-24.7-.26-28.15,10.21-2.26,18.23,4.48,18.75,14.94-.73.14-1,.49-.3.93-.33,1.17-.68,2.38-1.02,3.61,1.29,1.87,2.79-4.03,3-5.07,1.61-7.77-.09-14.22-5.94-19.62-12.71-11.72-35.71-4.17-35.85,14.29h-.02Z"/>
    <path class="st65" d="M1248.83,197.39v-.02c-.51-.51-6.48,1.4-6.33,3.08.78.17,1.68-.65,2.27,0,.44.49,1.95,6,2.51,7.32,10.88,25.87,46.96,25.81,55.35-1.2.12-.41.17-1.41.22-1.46.17-.18,3.01.09,3.6-.02,0-1.56-1.35-1.62-2.57-1.56-2.84.14-7.1,1.71-10.29,2.14-15.4,2.06-31.9.28-45.95-6.59,0-.13,1.84-1.05,1.19-1.69h0Z"/>
    <path class="st64" d="M1250.02,104.85c.14-3.84-3.63-7.87-6.73-9.61-7.37-4.15-16.95-1.64-23.7,2.7-5.49,3.52-11.55,10.23-12.09,17.09.29.4,4.82-4.52,5.28-4.93,8.05-7.14,17.21-9,27.66-7.32,3.22.52,6.3,1.85,9.59,2.07,0,0-.01,0-.01,0Z"/>
    <path class="st7" d="M1249.73,148.96c1.97-2.57.98-6.92.15-9.87-5.49-19.59-32-20.34-41.72-3.8-5.29,9.01-3,17.28,3.87,24.31.13.14.77,1.08.9.46-10.42-11.3-5.14-28.74,9.11-33.09,14.67-4.48,28.71,6.19,27.69,21.99h0Z"/>
    <path class="st55" d="M1334.2,163.16h-.02c7.85-3.95,10.35-11.64,9.65-20.2-.55-6.72-6.98-13.87-12.86-16.46-14.38-6.33-29.4,1.91-30.88,18.01-.04.5-.19,1.38.3,1.69,1.97-21.42,30.26-26.4,40.06-7.81,2.62,4.97,1.96,13.02-.55,17.98-.55.07-.22-.62-.16-.94.17-.86.37-1.52.48-2.45-.08-.31-.27-.48-.57-.48-.76,2.48-1.76,4.96-3.05,7.26-.93-.26-2.09,1.01-1.51,1.85-.97.68-1.27,1.2-.9,1.54h.01Z"/>
    <path class="st48" d="M1269.6,172.68v.02c.81-1.32-1.81-3.24-3.1-2.98-.43.08-3.1,3.21-3.5,3.79-1.94,2.79-3.25,6.35-.92,9.25,5.48,6.81,19.63,5.76,25.88.53,1.01-.85,1.66-2.67-.05-2.55-.96.07-4.69,1.69-6.14,2.07-5.25,1.38-8.01,2-13.4.61-4.49-1.16-6.74-1.8-3.8-6.79.86-1.46,1.67-2.13,3.05-3.05.4-.27,1.92-.81,1.98-.9h0Z"/>
    <path class="st31" d="M1247.32,156.37c6.23-15.18-12.4-27.35-24.41-17.71s-2.92,28.95,12.34,26.66c4.34-.66,10.34-4.73,12.07-8.95h0Z"/>
    <path class="st10" d="M1359.53,167.47c6.61.42,2.67-9.17,4.08-12.33.14-.31,2-1.76,2.46-2.11.65-.5,5.69-3.19,4.03-4.23-2.99-1.87-8.85,4.51-9.53,7.25-1.06,4.28,2.45,8.19-1.04,11.42h0Z"/>
    <path class="st60" d="M1188.49,166.85h0c.45-1.64-.8-3.45-.89-4.82-.08-1.21.57-3.35.57-4.62,0-2.23-.43-4.08-1.79-5.82-1.64-2.11-4.24-3.68-6.92-3.86-.13.58.32.73.6,1.08.93,1.16,5.61,5.31,5.86,6,.2.54-.42,2.71-.45,3.55-.04,1.29-.17,3.78.03,4.93.11.61,2.53,4.1,3,3.56h-.01Z"/>
    <path class="st42" d="M1340.5,151.67c-.4-11.26-10.16-17.87-20.7-13.94-17.39,6.49-8.76,32.02,9.05,27.28.28-.67-.5-.66-1.2-.93l-.22-.74c-11.69-3.04-6.14-16.78,4.45-14.59l1.19-.4.42.66c1.92-.32,2.74.67,2.81,2.6v.49s.28.65.28.65c.36,2.08.6,4.23-.21,6.23l.32.78c1.63-2,3.46-6.74,3.46-6.74,0,0,0-.2.38-.97l-.03-.38Z"/>
    <path class="st55" d="M1340.52,152.06h-.01c.32-8.15-5.14-14.83-13.16-15.69-12.73-1.37-21.93,10.97-15.35,22.79,1.81,3.25,6.78,6.38,10.41,6.78.93.1,5.98-.03,6.34-.93-8.04-.02-15.47-1.3-17.65-10.49-3.13-13.22,11-21.14,21.88-15.58,3.75,1.91,7.42,8.92,7.54,13.11h0Z"/>
    <path class="st83" d="M1297.09,205.71h.01c-3.6.3-7.09,1.33-10.71,1.54-7.82.45-15.14.35-22.78-1.38-4.32-.98-8.44-2.55-12.66-3.86-.38.38,2.98,4.72,3.46,5.25,10.26,11.36,31.7,12.77,41.63.31.22-.28,1.3-1.62,1.05-1.85h0Z"/>
    <path class="st29" d="M1254.86,216.82h0c7.82,9.39,22.89,11.95,32.87,4.78-8.25-4.62-18.11-4.61-27.3-4.77-1.79-.02-3.66-.75-5.57,0h0Z"/>
    <path class="st27" d="M1333,148.38h-.01c-2.72-.55-3.55-.78-6.4.09-4.01,1.23-6.23,3.86-6.29,8.47-.07,5.18,3.58,6.44,7.26,7.92,2.74.14,5.27-1.1,7.54-2.59.61-.89.91-1.16,1.51-1.94,1.19-2.76.92-5.24.3-8.08l-.79-.19c-2.15,3.04-5.96-.53-3.11-2.95l-.02-.73h.01Z"/>
    <path class="st42" d="M1244.01,159.45h.01c.13.62.8-.34.9-.47,9.4-12.48-5.43-28-18.76-21.34-15.17,7.57-6.38,30.35,9.86,26.75l-.46-.62-.5-.65c-10.93-2.28-6.74-17.17,3.53-14.74l.58-.34.7.29c1.89-.45,3.19.27,3.38,2.26.03.26.23.43.45.54l-.21.69c.96,2.18,1.11,4.72.18,6.94l.33.69h0Z"/>
    <path class="st19" d="M1239.16,148.05h-.01c-1.63-1.36-5.1-.34-6.83.56-7.29,3.8-4.78,14.85,3.22,15.17,2.7.11,7.09-1.85,8.44-4.32,1.27-2.33,1.2-6.13-.3-8.33l-.67-.02c-1.96,2.68-5.37.42-3.57-2.43l-.27-.64h0Z"/>
    <path class="st41" d="M1336.91,152.05h0c-.23-1.05-.1-2.21-1.04-3.09-1.02-.94-1.88-.42-2.88-.61-3.19,1.69-1.21,5.92,1.89,5.18.88-.21,1.29-1.06,2.02-1.48h0Z"/>
    <path class="st34" d="M1243.71,151.12c1.11-2.41-2.58-4.6-4.53-3.08-.19.15-.62,1-.7,1.28-1.01,3.76,3.78,4.9,5.22,1.8h.01Z"/>
  </g>
  <path class="st11" d="M531.07-.04l5.5,457.21,77.69-23.87,816.47,1.08,61.67,10.27-.14-440.38c-.28-7.14,540.32.41,543.02-2.02-.97,0,1.84,1147.29-.96,1144.01,1.57,5.6-2032.12-.04-2033.01,1.9C-3.05,1147.56,1.87,3.86.07,2.27,1.26,2.49,531.07-.04,531.07-.04Z"/>
  <path class="st46" d="M2034.16,644.01c.84,163.3.84,336.77,0,500.93l-.93,4.62H1.14l-1.22-4.62v-500.93h2034.24Z"/>
  <path class="st40" d="M2034.16,1148.6c.27-.84.59-.83.96,0v.96H-.08v-.96h2034.24Z"/>
  <polygon class="st5" points="2035.12 1148.6 2034.16 1148.6 2034.16 1124.61 2034.16 1100.62 2034.16 1045.92 2034.16 837.69 2035.12 837.69 2035.12 1148.6"/>
  <g>
    <path class="st87" d="M1468.01-.04l.76.88.19,66.64c7.44-1.93,14.89-4.18,22.37-6.76l.19-59.61.76-1.14h17.82v484.13c.15,1.96-2.66,4.12-3.16,4.07-3.67-.31-11.44-7.91-15.43-10.32-.2-1.9.02-2.59.72-2.95-1.15-4.13-1.85-5.14-3.91-5.18-6.53-5.84-13.21-10.99-20.04-13.88-2.53,1.47-3.55.54-5.53-2.95-3.08,2.45-4.72.13-4.93-6.98-1.81-2.44-3.83-4.18-6.05-5.23l-.34-2.27c.46-4.35.45-8.16.28-12.38l1.3-1.28c1.92.43,6.79,2.63,8.6,3.97.45.34.79,1.23,1.1,2.11l-.76-.66v-83.11l.76-1.16c-2.33,1.01-12.84-1.61-13.23-3-.17-.62-.11-1.51-.04-2.28-.07-1.57.47-2.32,1.6-2.24-.32-3.94-.22-7.03.3-9.28,2.75-1.78,6.93-.52,9.9.8.57.25,1.04,1.18,1.48,2.08l-.76-.66v-115.24l.76-1.17c-2.2,2.37-15.47,3.28-16.18,1.31-.21-.58-.19-1.48-.13-2.27l.33-1.92,4.15-.11c-.46-4.43-.32-7.59.45-9.49l1.2-1.87c2.02-.55,6.93-.91,8.92-.56.47.08.88.77,1.26,1.47l-.76-.66v-115.24l.76-1.17c-3.29,3.36-7.94,4.91-11.38,2.88l-.51-1.44c.17-3.38.27-7.25-.62-10.07l.92-2.28c3.57-1.94,7.18-3.09,10.84-3.68V1.11l.76-1.15h5.31-.03Z"/>
    <path class="st63" d="M606.54-.04v422.22h821.65V-.04h2.28l.52,6.75c.07,133.92.08,268.46.02,403.64l-.29,24.04c1.04.06,2.28,4.46,1.9,6.62,3.69,1.54,7.37,4.07,10.98,6.67.37.26.71.79,1.05,1.34s.68,1.24.99,1.95l-2.83,1.01-850.14.02-2.06-1.98c-.39-2.45-.04-2.64.76-.96l.52-1.63c4.54-2.54,8.92-5.6,13.16-9.19l.36-437.08.76-1.2h.38-.01Z"/>
    <path class="st79" d="M1441.09-.04l.76.64.37,75.46c1.03-1.2,1.79-.98,2.28.67.83-3.33,4.57-3.6,5.69-.96.29.1.99-.29,1.11.05.22.62.7,10.05.03,11.46-1.74,3.48-5.18,4.1-7.21,1.92l.76.66v109.97l-.76,1.16c2.16-.47,4.4-.63,6.73-.47l.48,1.91.38,11.52h-5.31c-.26,1.1-.77,1.97-1.53,2.62v108.85l6.07,1.66.39,2.02c.48,1.61.55,11.12.38,11.52-.13.31-1.81-.22-2.28,0-1.02,1.57-2.3,2.12-3.82,1.63l-.75,78.79c2.12,1.36,4.28,2.32,6.5,2.88l.35,2.11c2.07,3.66.05,11.48.56,13.46.18.71,5.19,1.21,6.19,5.44.31,1.3.65,6.54.87,6.93.33.6,2.54-1.2,3.54-.85,1.29.46,1.77,3.29,2.38,3.65.69.4,2.2-1.25,3.63-.59,6.4,2.97,13.14,7.83,19.3,13.53.92.85,2.03.32,2.88,1.34.8.95.88,3.49,1.97,4.61s5.57,2.06,6.08,3.34c.36.91.09,2.01-.56,1.91-2.53-.39-4.78-4.66-7.02-.96-15.26-9.24-30.66-17.35-45.89-26.87-4.46-2.79-8.9-6.13-13.41-8.58-.38-4.07-.75-5.31-2.15-7.45.88-106.66.05-213.63-.01-320.26-.02-38.29.54-76.43.4-114.72h10.62Z"/>
    <path class="st21" d="M542.45-.04l.76.88.05,59.73c2.22,1.09,4.6,1.87,7.14,2.35l1.15,2.29c2.66.66,2.88,13.72,0,12.47l-1.54,1.59c-2.31-.69-4.57-.68-6.8.03v120.98l-.76,1.18c3.08.63,6.17.77,9.28.44,2.23-1.25,2.15,10.15,1.07,12.18-2.7.04-5.39.31-8.07.82-.31,1.25-.81,2.11-1.52,2.57v120.56c2,.01,4-.28,6.01-.87l1.58,1.52c.76-.45,2.4-1.29,2.94-.08.19.42.48,11.91-.66,11.6-2.83,4-7.54,6.24-10.62,3.84l.76.67v90.28l-.76,1.17c2.67-3.75,6.5-5.34,9.48-3.84,1.16-.35,1.67,1.49,1.55,5.53-.43,5.58-.03,7.6,1.21,6.07,2.96-3.27,4.82-2.13,5.59,3.42,9.74-4.87,19.42-10.16,29.04-15.88,2-1.02,4.05,4.56,2.05,7.58-.34.21-.61.87-.76.96-1.75,1.08-3.56,1.79-5.31,2.88l-1.14.96c-17.15,10.6-34.37,20.68-51.58,30.71-1.41,1.14-2.17.65-2.28-1.48V1.15l.77-1.2h11.38-.01Z"/>
    <path class="st16" d="M572.03-.04l.76.88v68.58l.76,2.51c1.75.74,1.63,11.93,0,12.47l-.76,2.59-.02,112.71c.4.71.78,1.62,1.16,2.73,1.18,1.04.81,10.71-.38,11.52l-.76,2.58-.02,113.16-.36,2.3c2.53-1.08,3.25,8.92,1.9,12.47.02,1.77-.47,2.43-1.49,1.98-.06,29.46-.08,57.9-.03,85.35,1.69-.85,2.34,2.68,1.94,10.57,2.1.22,4.26-.8,6.36-1.84,6.04-3.64,11.99-7.01,17.86-10.1V1.16l.76-1.2h6.45l-.38,438.07c0,1.3-.24,1.65-.63,2.24-.58.87-4.5,3.55-5.52,4.26-2.71,1.89-5.54,2.83-8.26,4.53.74-9.91-4.04-4.17-5.99-3.16-8.03,4.2-16.24,9.69-24.09,12.15-.37.12-.77,1.63-1.17,1.5-.85-.3-.94-5.09-1.61-5.62-.73-.57-4.48,3.52-5.83,1.85-.34-.85.67-11.69-.76-13.44l1.15-2.57c2.18-1.71,11.9-7.78,13.3-6.23.26.29.49.69.73,1.13l-.76-.67v-85.49l.76-1.17-1.04,1.8c-4.22,1.08-8.4,2.06-12.55,2.93l-.45-1.85v-11.52h-2.28c-.13-.68-.25-1.52-.09-2.09.51-1.83,14.09-4.35,16.4-2.7l-.76-.66v-117.16l.76-1.17-1.31,1.35c-6.08,1-12.3.71-18.43.4-.44-.02-.88-.28-1.32-.57s-.89-.72-1.32-1.18c1.39-2.72,6.55.46,7.53-1.09.57-.91.57-9.14.09-10.82-.57-2.03-8.52,1.09-9.9-1.52.4-.47.79-.91,1.2-1.22s.8-.58,1.2-.61c7.45-.58,15.13-.55,22.25,1.35l-.76-.66v-116.68l.76-1.17c-4.92,1.84-10.44.43-15.12-2.64l-.43-2.16c1.86-.52,1.43-11,0-12.47.43-.37.87-.7,1.32-.9s.88-.38,1.29-.27c3.94,1.07,7.89,2.18,11.8,3.81V1.12l.76-1.16h5.33Z"/>
    <path class="st63" d="M599.71-.04v430.38c-.07,1.97-.73,2.74-1.43,3.11-7.04,1.3-15.44,9.73-22.27,10.84-.7.11-1.41-.1-2.1-.03-.08-2.55.27-10.91-.44-12.35-.21-.43-.55,0-.7-.13l.18-2.06c6.23-3.27,12.37-6.58,18.4-9.94-.3-.08-.75-.36-.76-.89-.24-24.62-.24-51.05,0-75.69l.76-1.15c-1.07-.44-2.2-.47-3.39-.07l-13.12,4.23-.56-1.76c-.08-2.82-.18-7.94-.63-10.35-.28-1.53-.9-1.14-1.26-2.13l.27-2,17.52-4.57c.65-1.04.85-28.16.88-32.68.19-25.65.02-52.65-.45-77.29-5.01.55-10.31.9-15.36.23-.63-.08-1.2-.93-1.73-1.72l.38-11.52,1.33-1.74c5.01-.17,9.99-.8,14.94-1.91l.41-107.26-15.6-4.99-1.46-2.13c.45-3.93.71-8.64,0-12.47.98-.57,1.98-1.15,2.99-.93l13.7,3.58V1.12l.76-1.16h8.74Z"/>
    <path class="st4" d="M528.41-.04l.52,26.76c.21,151.53.33,303.07.38,454.61.85,1.44,1.06,3.15.62,5.15-1.86.84-2.98,1.23-4.91-.05-.21-10.98.38-22.18-.41-33.02l.02-453.45h3.79-.01Z"/>
    <polygon class="st74" points="1492.28 -.04 1492.12 62.39 1468.21 70.03 1468.01 -.04 1492.28 -.04"/>
    <path class="st74" d="M566.72-.04v70.05c-5.03-2.03-10.12-3.27-15.17-4.79-2.7-.81-5.42-1.89-8.16-1.91l-.89-1.58-.05-61.76h24.27,0Z"/>
    <path class="st74" d="M590.99-.04v76.77c-5.81-1.43-11.67-2.73-17.45-4.8-.48-.17-1.03.13-1.52,0V-.04h18.97Z"/>
    <path class="st74" d="M1462.7-.04v71.97c-2.05,0-4.17.43-6.21,1.08s-4.23,2.09-6.3,2.76c-1.75.56-3.92.38-5.69.96l-.76-.89V1.12l.76-1.16s18.2,0,18.2,0Z"/>
    <path class="st30" d="M531.07-.04v484.04l1.52.56c-.66,1.24-1.83,1.54-2.65,1.92l-1.34-4.77c-.43-160.49-.06-321.19-.18-481.75h2.65Z"/>
    <path class="st12" d="M1444.5-.04v76.77c-.87.28-2.14,1.35-3.03,1.92l-.38-78.69s3.41,0,3.41,0Z"/>
    <path class="st63" d="M585.3,452.89c-.19.12-.64.65-1.14.96l1.14-.96Z"/>
    <polygon class="st74" points="1492.28 76.73 1492.28 201.48 1468.01 201.48 1468.01 82.49 1492.28 76.73"/>
    <polygon class="st74" points="1492.28 214.91 1492.28 340.62 1468.01 333.9 1468.01 214.91 1492.28 214.91"/>
    <polygon class="st74" points="1492.28 354.05 1492.28 446.17 1468.01 434.66 1468.01 347.33 1492.28 354.05"/>
    <path class="st74" d="M1451.33,87.28c3.78-1.1,7.57-2.51,11.38-2.88v117.07c-3.63,1.58-7.65,1.1-11.38.96-1.07-.04-7.21.86-7.21-1.44v-111.79c2.38-.96,4.81-1.22,7.21-1.92Z"/>
    <path class="st74" d="M1446.39,213.95c.13.03.58.97,1.28,1.03,4.99.4,10.03-.44,15.02-.07v117.07c-3.82-.25-7.6-1.79-11.38-2.88-1.01-.29-7.14-1.21-7.23-2.48l.02-110.28c.08-2.91,1.33-2.61,2.28-2.4h0Z"/>
    <path class="st74" d="M1449.43,340.62c.07.02.43.87.92,1,3.8,1.04,7.6,2.05,11.41,2.83.31-.03.95.91.95,1.44v84.92c-3.69-.42-7.37-2.99-11-4.8-1.95-.97-5.27-1.48-6.94-3.06-.46-.44-.63-.95-.64-2.21l.76-81.1c1.5.53,3.05.58,4.55.97h-.01Z"/>
    <rect class="st89" x="1466.87" y="82.49" width=".76" height="118.99"/>
    <rect class="st89" x="1466.87" y="214.91" width=".76" height="118.99"/>
    <path class="st74" d="M551.55,77.69c.78.2,2.18,1.62,3.23,1.91,4.09,1.12,8.22,1.89,12.32,2.89v118.51c0,3.25-5.7.51-6.62.44-6-.43-12.03.4-18.03.04v-124.75c2.97.1,6.15.23,9.1.96h0Z"/>
    <path class="st74" d="M544.72,214.91c7.43-.66,14.94.49,22.38,0v118.99c-5.11,1.69-10.27,2.39-15.39,3.8-.5.14-.84.98-.92,1-2.75.79-5.59,1.05-8.34,1.92v-125.72c.75-.05,1.52.07,2.28,0h-.01Z"/>
    <path class="st74" d="M553.07,350.21c.77-.24,1.65.22,2.46,0,3.86-1.07,7.66-3.6,11.57-2.87v87.32c-5.17.97-10.15,5.12-15.17,7.68-3.1,1.58-6.33,2.94-9.48,3.84v-92.12c3.55-.79,7.1-2.74,10.62-3.84h0Z"/>
    <path class="st74" d="M573.54,213.95c5.67-.87,11.7.56,17.41.11.17,2.02.38,4.01.43,6.1.77,28.28.73,71.54,0,99.87-.06,2.42-.38,4.7-.41,7.12l-18.57,4.84c-.27-.73-.48-1.01-.4-2.3l.02-115.74c.5-.06,1.02.08,1.52,0h0Z"/>
    <path class="st74" d="M573.54,84.4c5.78.57,12.03,4.13,17.83,5.34l-.43,111.62c-5.66-.81-11.37,2.14-17.03,1.06-1.09-.21-1.95.59-1.92-3.31l.02-114.72c.5.02,1.02-.04,1.52,0h0Z"/>
    <path class="st74" d="M574.3,344.46c2.2-.64,15.88-5.76,16.62-4.64.04.06.44,2.12.44,2.24v77.73c0,.61-.5,2.59-.91,2.56l-17.67,9.43c-.23-.22-.81.56-.77-.57v-83.44c-.06-4.39,1.15-2.98,2.28-3.31h0Z"/>
    <rect class="st35" x="593.64" y="90.16" width=".76" height="111.31"/>
  </g>
  <g>
    <path class="st15" d="M1639.91,711.3c.14-.67-.34-.58-.72-.78-1.43-.78-2.98-1.4-4.38-2.23-7.6-4.48-14.36-11.8-7.25-20.48-10.99-15.83-12.28-36.78-3.23-53.9-4.61-2.49-9.1-6.09-10.63-11.41-3.65-12.67,6.73-24.36,18.96-25.18,8.95-.6,15.3,2.34,18.56,11.13,21.2-11.17,48.09-11.09,69.3,0,.72-1.36,1.14-2.81,1.93-4.14,5.38-9.11,19.34-8.56,27.21-3.3,12.69,8.47,12.01,27.04-2.54,32.75,9.29,16.84,8.08,38.17-2.95,53.83-.08.48,1.38,2.2,1.72,2.87,3.82,7.37-1.99,13.46-7.8,17.08l-6.25,3.5-.22.59-4.96,1.63c-.35.34-.95.52-1.78.56-7.85,2.8-16.47,4.02-24.86,4.97-.94-.13-.85-.64-.1-1.08.09-.24.18-.24.27,0l.27-.28.54-.92c15.87-8.08,7.97-35.49-3.08-44.12-1.32-.68-2.38-1.51-3.18-2.49.23-.13.47-.24.72-.32,1.94-.59,8.71,1.25,11.06,1.91,4.71,1.34,9.19,3.17,13.4,5.39,4.4,1.84,4.57-3.49.46-4.36l-5-2.29-.18-.62.52-.75c10.26-3.63,11.52-18.96,1.45-23.73-12.36-5.85-23.65,9.25-15.07,19.73v.86s-1.66.21-1.66.21c-9.91-2.05-20.02-1.2-29.95.02l-.84-.23v-.84c5.9-6.98,2.07-19.57-7.21-20.79-15.9-2.08-20.69,18.97-6.38,24.74l.5.77.06.36c-2.39,1.13-4.8,2.3-7.25,3.5-2.12,1.55-.61,4.9,1.92,3.64,7.37-3.77,15.82-6.6,24.14-7.24l.77.29c-.73.98-1.73,1.83-3,2.53-10.89,9.27-18.29,36.76-1.67,44.39l.58.89c-.25.8-1.93.67-2.72.57-7.53-.93-17.8-2.49-24.78-5.34-.55-.23-1.01-.64-1.42-1.07-.65.68-2.54-.33-3.27-.83h0Z"/>
    <path class="st15" d="M1728.58,719.09c.14-.1.29-.19.45-.25,2-.72,9.25,6.45,10.1,8.51,3.95,9.63,7.67,19.49,11.32,29.25,3.49,9.33,6.94,18.66,9.58,28.29.12.45.16.93.2,1.41.03.48.03.97,0,1.46,2.33,8.95,4.7,21.38,5.18,30.72.15,2.92-.44,6.91.28,9.59-.38,9.11-2.67,18.42-7.97,25.93-9.63,13.63-27.96,18.24-43.05,20.22-18.66,2.16-38.29,3.87-57.02,1.11-.24.11-.48.2-.73.26-2.04.49-10.56-1.96-13.13-2.74-19.79-6.01-35.14-19.74-37.43-41.44.41-1.3-.01-1.55-.01-2.63-.01-13.45,1.66-25.1,4.92-37.95l.03-1.58c5.55-22.91,14.43-46.03,23.32-67.09.1-1.1,4.82-3.33,5.28-3.19.24.07.44.19.57.42-.05.96-.12,1.93-.41,2.85-4.39,14.32-8.37,27.57-10.7,42.48-3.32,21.22-5.1,50.1,4.67,69.58,16.11,32.11,65.81,39.78,91.61,15.82,34.33-31.88,15.71-91.39,2.89-129.45-.09-.52-.07-1.04.07-1.56h0Z"/>
    <path class="st15" d="M1774.69,975.37c-.03-.31-.3-.03-.82.83-5.66,4.45-20.85-1.16-25.09-6.54-5.56-7.04-5.25-21.93-7.18-31.04-3.42-16.13-9.91-38.42-18.2-52.48l.92-.94c21.19-8.26,41.8-26.35,42.98-50.89l.57-1.27c12.79,31.36,16.68,66.12,17.47,99.92.14,5.91-.6,13.14.06,18.84.79,6.73,8.59,11.53,8.68,17.87.03,2.67-2.07,4.8-4.6,5.08-.8.09-1.69-.26-2.05-.17s-.75.77-1.19,1.02c-3.89,2.27-7.57.85-11.55-.23h0Z"/>
    <path class="st15" d="M1649.18,887.53c-7.88,14.09-15.36,39.52-18.15,55.59-2.72,15.66.2,28.25-18.2,33.44-3.8,1.07-10.46,2.37-13.58-.63-.26-.92-.45-1.1-.55-.56-3.48,1-7.33,2.38-10.83.61-.56-.28-1.64-1.33-1.92-1.39-.98-.22-1.86.48-3.7-.38-4.13-1.93-2.77-6.65-1.06-9.85,3.3-6.19,6.7-7.02,7.15-15.23.4-7.34-.21-15.13-.02-22.54.78-30.99,5.38-63.05,16.65-91.86l.75,1.36c3.94,23.02,21.26,42.17,42.36,50.47l1.08.98h0Z"/>
    <path class="st15" d="M1824.89,828.33l-.52-.16c-.73,2.2-2.25,3.79-4.44,4.46-1.96.6-5.69,1.14-2.95-1.39,1.76-2.51,1.66-4.78,1.1-7.63l.41,3.06c.09.55-.05.88-.41.97.63.06.01,1.54-.23,2.07-1,2.21-2.41,3.68-4.96,3.35-.69-.22-2.14-1.07-2.71-1.54-.62-.51-.72-1.46-1.65-1.51-.41-.33-.8,1.16-.27.83-2.83,5.86-7.12-.03-8.69-3.51-1.55-3.42-2.15-6.92-4.08-10.29-4.55-7.94-14.82-14.52-22.15-19.83-3.74-12.22-7.91-24.88-12.75-37-2.89-7.24-6-14.4-9.42-21.34-4.36-8.86-9.14-16.27-14.5-24.45-.45-.69-.73-1.47-.98-2.26,18.39,6.43,37.52,18.47,51.44,32.24,17.08,16.9,36.62,47.62,38.87,72.14.38,4.16.68,7.97-1.09,11.81h0Z"/>
    <path class="st15" d="M1639.36,712.42c-.07.68-.25,1.32-.54,1.93-17.16,24.76-28.19,54.32-36.56,82.85-7.66,5.5-18.35,12.3-22.79,20.84-2.16,4.17-3.45,12.71-7.86,14.78-2.4,1.13-3.23.04-4.28-1.99-.2-.09-.68-3.66-.59-3.5.17.3.24,2,.05,2.39-1.08,1.34-2.4,2.83-4.09,3.34-1.92.23-3-.23-4.14-1.82-.56-.78-1.72-2.69-1.04-3.33-.82-.58-.37-3.15,0-4.17-.93,2.59-.44,6.56,2.11,8.65.59,1.32-2.65.63-3.45.43-2.29-.57-4.33-2.36-5.03-4.67l-.45.46c-4.31-9.06,2.02-28.96,6.04-37.9,10.31-22.92,26.51-44.21,46.53-59.05,11.09-8.22,23.38-14.12,36.1-19.23Z"/>
    <path class="st88" d="M1731.85,711.03c1.16,0,2.71.72,3.82,1.11,8.39,11.2,14.86,23.4,20.51,36.23,6.74,15.3,12.7,31.43,17.12,47.61.09.32.47,1.04.02,1.22-4.35-3.15-8.91-6.06-13.1-9.45-5.31-20.35-14.26-40.34-21.59-60.15-2.47-3.52-5.87-7.25-10.06-8.51-.25.07-.35-.02-.27-.28-.72-.06-2.13-4.75-2.05-5.02.08-.23.19-.42.41-.54.03-.02-.14-.39.34-.64.63-.33,4.23-1.58,4.85-1.58h0Z"/>
    <path class="st88" d="M1765.68,828.05c.02.09-.03.2,0,.28l.27.28c.6,1.48,1.3,2.95,1.91,4.45-.17,25.43-22.59,45.12-44.47,53.09-2.51-4.27-5.38-8.32-8.73-11.95-.23-.87.87-.49,1.7-.63,26.95-4.6,46.51-13.46,48.78-44.55.04-.53-.31-1.12.54-.96h0Z"/>
    <path class="st88" d="M1657.64,875.3c-2.93,3.98-6.03,7.89-8.46,12.23-13.17-4.58-25.5-14.49-33.51-26.04-5.5-7.93-9.39-17.08-10.69-26.77.39-.99,1.08-2.45,1.36-3.34.5.29.46.77.54,1.26,4.67,27.24,25.7,38.97,50.75,42.66Z"/>
    <path class="st88" d="M1643.18,712.14l.41.48c-.72,2.12-1.44,4.25-2.17,6.37l-.7.37c-.05.25-.14.24-.27,0-1.17.25-4.32,1.58-5.04,2.51-.98,1.27-2.78,6.48-3.55,8.34-8,19.29-15.47,40.35-20.61,60.59-2.94,2.22-6.02,4.25-9,6.39-.37-1.06.37-2.78.68-3.89,5.04-17.69,11.97-36.05,19.82-52.64,4.88-10.31,10.76-18.67,16.6-28.25.18-.29.38-.95.55-1.11.53-.51,2.5.57,3.27.83h0Z"/>
    <path class="st62" d="M1550.69,828.6c-.19-1.51-.31-2.73.08-4.23l1.29-2.99c-2.16,6.27.34,11.85,7.37,11.39-3.04-2.68-3.3-6.29-1.91-10,.67,0,0,.82,0,.97v4.17c0,.38.86,2.31,1.14,2.73,1.04,1.61,2.3,1.99,4.05,2.41-4.56,1.36-9.85.08-12-4.45h0Z"/>
    <path class="st20" d="M1824.89,828.33c-.99,2.14-1.83,3.33-4.1,4.3-2,.85-5.88,1.06-7.91.42,2.09-.54,3.58-1.22,4.5-3.33.11-.26.68-1.98.68-2.09v-4.03l.83,2.93c-.07,2.56-.92,4.51-2.74,6.24,7.11.39,9.23-5.05,7.37-11.39l1.3,3.26.07,3.69h0Z"/>
    <path class="st23" d="M1566.79,829.72c-.97-2.97-.61-6.47.96-9.18.1-.18.22-1.02.68-.55.16.17-1.71,3.7-1.36,4.59l.27,6.25c-.23-.44-.34-.49-.55-1.11h0Z"/>
    <path class="st0" d="M1774.69,975.37c-.31.47-.41.51-.82.83,2.19-4.46-.73-7.04-3.55-10l3.14,2.5c1.49,2.13,2.87,4.19,1.23,6.67h0Z"/>
    <path class="st8" d="M1808.52,829.99c-.09.28-.13.54-.27.83-.57.35-.64.5-.45-.31.9-3.73.9-6.58-.37-10.25,2.16,2.83,2.17,6.48,1.09,9.73Z"/>
    <path class="st0" d="M1598.71,975.37c-1.76-3.05.63-6.14,2.86-8.06.31-.26.44-.67.96-.55-1.84,2.12-3.78,3.69-3.56,6.82.06.84.64,1.7.28,2.35-.21-.2-.35-.22-.55-.56h0Z"/>
    <path class="st15" d="M1765.96,828.6l-.27-.28c.02.07.22.16.27.28Z"/>
    <path class="st85" d="M1694.75,669.89c7.4,3.15,11.76,11.81,13.99,19.24,3.34,11.12,2.95,22.5-8.26,28.29l-.27.28c-.07.04-.2-.04-.27,0-.11.2-.22.4-.36.57-1.07,1.29-6.96,2.52-8.89,2.78-5.67.78-11.72-.16-17.13-1.87-.52-.16-1.54-.6-1.45-1.21-13.39-6.09-12.5-20.82-7.77-32.79,2.33-5.89,5.95-12.28,11.86-15.02l.52-.83c5.57-2.11,11.87-2.2,17.5-.26l.54.81h0Z"/>
    <path class="st39" d="M1672.1,717.97c.81.13,1.45.7,2.24.91,9.13,2.46,16.77,2.93,25.59-1.19-.42.7-.4.57.34.49,6.3-.68,12.6-1.64,18.76-3.12,2.16-.52,4.77-1.67,6.75-2.03.39-.07.84.24.88.22l1.64,5.56-.46.38c-4.59-1.09-9.33-.85-14.2.72-15.42,4.9-31.23,6.9-47.29,3.46-7.6-1.89-15.27-3.12-23.01-3.69-1.08.24-1.94.13-2.61-.32l2.46-7.23c8.8,3.05,16.84,4.62,26.06,5.83.77.1,2.46-.06,2.86,0h0Z"/>
    <path class="st38" d="M1702.11,665.72l.8.05c3.33,3.5,7.53,4.02,11.99,3.27l.31.57c.54.06,2.68,1.12,3.37,1.43.86.39,4.2,1.97,4.66,2.48,1.52,1.66.38,4.47-1.9,4.44-.91-.01-5.14-2.39-6.41-2.92-6.37-2.65-13.28-4.68-20.18-5.15-5.34-2.27-13.29-2.16-18.55.28-7.49.73-14.91,3.06-21.82,5.99-1.19.5-3.06,1.86-4.23,1.82-2.36-.09-3.23-3.31-1.22-4.87.66-.51,6.91-3.38,7.62-3.49-.01-.27.09-.47.32-.58,4.51.8,8.62.12,12.04-3.34l.74.03c10.74-1.84,21.76-2.41,32.47,0h0Z"/>
    <path class="st85" d="M1733.43,606.03c8.84-1.02,17.86,6.24,15.48,15.77-.41,1.64-3.18,6.38-4.92,6.4-.59,0-2.68-3.21-3.26-3.9-4.45-5.22-9.51-9.34-15.12-13.2,1.6-2.95,4.56-4.69,7.83-5.07h0Z"/>
    <path class="st85" d="M1645.88,611.47c-.11.19-3.03,1.89-3.6,2.32-5.58,4.18-10.43,8.93-14.51,14.65-9.76-6.67-5.23-20,5.54-22.13,3.2-.63,7.11-.53,9.86,1.46.61.44,3.17,2.9,2.71,3.69h0Z"/>
    <path class="st22" d="M1669.65,665.72c-1.95,2.12-5.18,3.93-8.04,4.18-1.52.13-4.03-.45-5.06-.29-15.27-5.17-11.33-27.61,5.33-26.14,10.28.91,14.75,14.63,7.77,22.25Z"/>
    <path class="st22" d="M1715.21,669.61c-1.27-.13-3.41.43-5.06.29-3.07-.27-6.01-1.93-8.04-4.18-9.15-10.14.72-25.82,13.58-21.76,12.33,3.89,11.69,21.99-.49,25.65h0Z"/>
    <path class="st33" d="M1712.15,633.55c1.97-.23,3.45.02,5.21.93.99.51,5.3,3.75,2.84,4.5-1.38.42-1.36-.67-2.11-1.35-1.58-1.43-3.55-2.14-5.67-1.86-1.22.16-4.61,2.21-4.6.06.01-1.37,3.22-2.15,4.33-2.28h0Z"/>
    <path class="st90" d="M1657.03,633.55c1.47-.2,6.43.37,6.86,2.07.59,2.34-3.76.26-4.54.16-1.54-.2-2.7,0-4.07.71-1.03.53-3.44,3.58-4.33,2.29-.97-1.4,2.67-4.02,3.78-4.52.64-.28,1.62-.61,2.31-.71Z"/>
    <path class="st39" d="M1700.21,717.7l.27-.28s-.12.2-.27.28Z"/>
    <path class="st85" d="M1728.31,718.81c.1.07.18.2.27.28,12.45,38.12,30.54,91.42,2.05,126.48-24.24,29.83-78.98,23.56-96.77-10.38-8.59-16.38-8.33-38.4-6.77-56.47,1.75-20.31,6.67-40.23,13.37-59.35.09-.02.18.02.27,0,6.73-1.24,20.43,2.69,27.77,3.81,10.72,1.64,19.4,2.05,30.13,0,7.65-1.46,18.86-5.85,26.27-5.2.68.06,2.94.49,3.41.83h0Z"/>
    <path class="st52" d="M1686.56,697.13c-.41.78-.95.79-1.36,0-4.2-.23-8.44-2.35-9.15-6.94-.52-3.36-.24-4.87,3.14-5.72,2.91-.74,9.93-.68,12.89-.05,3.92.83,4.31,2.56,3.41,6.37-1,4.23-4.91,6.12-8.92,6.34h0Z"/>
    <path class="st26" d="M1686.56,697.13c.11,6.23-1.55,14.03,6.05,16.21,4.53,1.3,10.36-1.81,9.44-7.11-.12-.67-1.39-2.66-.34-2.98,1.77-.53,1.9,4.62,1.75,5.68-.31,2.09-2.69,4.54-4.52,5.4-4.86,2.3-10.81-.13-13.06-4.97-2.26,4.39-7.05,6.8-11.87,5.42-3.01-.86-5.91-3.97-6.01-7.24-.03-.92.59-4,1.55-4.25,1.74-.47.22,2.2.12,2.9-.32,2.31.3,4.15,2.03,5.67,3.16,2.78,8.13,2.22,11.05-.68,3.66-3.63,2.13-9.38,2.45-14.05.44.02.92.02,1.36,0h0Z"/>
    <path class="st13" d="M1658.12,646.89c15.34-2.24,15.2,21.68.27,19.59-10.75-1.5-10.58-18.08-.27-19.59Z"/>
    <path class="st13" d="M1709.69,646.89c11.44-1.69,16.09,12.83,6.86,18.39-6.07,3.66-13.9-.5-14.63-7.56-.5-4.81,2.88-10.11,7.77-10.83h0Z"/>
    <path class="st73" d="M1658.12,648.55c9.59-1.65,13.6,10.38,6.17,15.18-6.65,4.29-14.87-3.14-11.69-10.52.82-1.9,3.48-4.31,5.52-4.66Z"/>
    <path class="st73" d="M1709.96,648.56c12.85-1.9,12.71,17.45.75,16.32-9.29-.88-9.3-15.06-.75-16.32h0Z"/>
    <path class="st77" d="M1656.75,651.03c2.21-.34,2.52,3.81-.28,2.96-1.5-.45-1.19-2.73.28-2.96Z"/>
    <path class="st86" d="M1653.62,657.03c-1.06-1.09.72-2.38,1.45-1.34.6.85-.57,2.25-1.45,1.34Z"/>
    <path class="st36" d="M1708.57,651.04c1.56-.14,2.18,2.72.49,3-2.53.42-2.35-2.83-.49-3Z"/>
    <path class="st77" d="M1706.72,657.07c-.6.98-2.64-.57-1.35-1.51.99-.73,1.83.73,1.35,1.51Z"/>
    <g>
      <path class="st71" d="M1745.83,620.67c11.08-.92,15.36,14.95,5.53,20.23.37,1.59.8,2.98.78,4.63,0,.5-.36,2.18-.26,2.42.06.14,1.86,1.46,2.29,1.93,4.4,4.93,3.88,13.05-1.68,16.35.97,1.97,1.19,4.15,1.4,6.3,6.78,1.06,10.61,9.23,7.45,15.6-1.41,2.83-4.36,5.13-7.39,5.38,1.92,8.32-4.91,15.34-12.74,12.7-.64-.21-1.94-1.15-2.46-.9-.29.14-2.09,2.86-2.43,3.39-2,3.03-5.26,10.17-8.58,11.23-1.91.61-3.85-.59-5.17-2.03-9.15-9.97,8.83-11.9,13.87-15.37-.82-.94-1.27-2.17-1.68-3.36-.33-.72.31-1.09.15-.26,3.2,5.33,11.09,5.71,13.33-.45,2.54-6.99-4.79-13.47-10.84-9.49l-.31-.44c1.51-1.62,3.55-2.75,5.64-3.25.04-.18.11-.46.24-.46,1.28-.08,4.11.59,5.33,1.12l.15.53.49-.21c1.32.81,2.49,1.89,3.45,3.14,9.71-4.56,2.15-19.24-6.88-13.41-1.28-.29-.33-1.38.4-1.86,2.36-1.2,2.93-2.09,2.5-5-.75-5.22-4.9-7.91-9.59-6.74l-.47-.28c-.96-1.55-1.21-3.23-1.26-5.02l.23-.02c.5,1.45,1.22,2.68,2.15,3.73,3.27-.78,6.72-1.17,9.67,1.21,6.2-5.71.82-15.86-7.11-13.53-1.51-.81.99-1.7,1.88-1.83,2.48-.21,3.8-.51,3.71-3.47-.14-4.63-2.56-7.97-7.04-8.31-1.09-1.59,2.59-1.03,3.42-.85,1.5.31,2.66.93,3.89,1.86,6.83-2.6,5.53-13.11-1.67-14.67l-.39-.51h.01s0,0,0,0Z"/>
      <path class="st3" d="M1732.78,640.82c.08-.24.14-.5.23-.73.57-.16.85.4.85,1.69,4.21,7.4,10.99-3.7,2.88-4.73-1.82.48-2.2.26-.56-1.08.43-.36.93-.61,1.41-.86-.01-.07-.04-.14-.05-.21.08-.49.55-.76,1.39-.81-1.24-2.13-1.99-4.29-1.43-6.77.12-.35.23-.65.38-.99.55.24.85.93.9,2.04,4,6.6,10.46-3.1,3.2-5.03-1.32.2-3.1.31-1.07-1.05.85-.64,2.06-1.28,3.09-1.35.69-.21,1.09-.38,1.81-.25,6.09,1.06,9.14,8.3,5.24,13.45-.51.68-2.4,2.35-3.17,2.19-.38-.08-1.37-.95-1.87-1.19-1.61-.77-3.79-1.14-5.5-.8.31.32.98.13,1.45.25,3.98,1.01,6.54,5.05,5.99,9.33-.15,1.17-.39,2.45-1.54,2.72-1.61.37-3.27.27-4.73,1.45l2.46-.36c7.54-.25,11.11,10.03,5.02,14.66-1.98-1.3-4.42-2.09-6.74-1.74-2.32.35-3.09,1.75-4.4-1.15-.37-.83-.42-1.74-.95-2.4,0-.25.03-.47.04-.68.51-.09.89.4,1.15,1.46,1.4,2.07,4.61,1.63,5.66-.5,2.05-4.17-3.69-7.46-5.97-3.75l-.49.03c-.8.04-.34-.92-.08-1.47l.88-1.64c-3.94-1.16-6.37-5.59-5.49-9.73h0s0-.02,0-.02Z"/>
      <path class="st3" d="M1733.9,670.87c.39-.26.74.07,1.06.97,6.06,5.46,9.19-7.28,1.2-5.56-1.58.88-1.98.88-1.05-.95.29-.59.71-1.11,1.17-1.56.38-.44,1.58-1.45,2.08-1.66,2.92-1.23,7.12.09,9.02,2.94,1.25,1.87,2.13,5.73,1.07,7.8-.4.78-2.99,1.54-3.32,2.88,9.84-6.53,17.83,9.65,7.14,14.18-.9-1.28-2.47-2.74-3.81-3.44l-.04-.54c3.63-3.76-2.4-9.13-5.26-4.67-.06.88-.88,1.43-.92.37-.17-.09-.31-.22-.4-.41-.18-.41.59-2.43.83-2.94-4.11.39-8.87-2.49-8.76-7.43h0v.02Z"/>
      <path class="st3" d="M1734.92,698.94l.42-.21c1.78,2.42,5.98,1.13,6.03-1.89.08-4.3-4.9-5.63-6.64-1.89-.23.12-.41.07-.55-.15-.13-.2.69-2.99.91-3.48.56-1,1.24-1.93,2.01-2.76.54.16,1.01-.45,1.6-.65,11-3.67,14.97,14.08,3.54,15.57-2.85.37-6.17-1.71-7.31-4.54h0s0,0,0,0Z"/>
      <path class="st78" d="M1735.09,691.31l-.77,3.54c1.84-4.11,7.18-3.02,7.46,1.69.18,3.02-3.35,4.88-5.77,3.34-.35-.23-.64-.66-1.07-.95-.02-.01-.04-.25-.24-.16l.11.42c-.98-2.84-1.19-5.22.3-7.89h0s0,0,0,0Z"/>
      <path class="st78" d="M1736.28,663.78c-.6.7-1.16,2-1.57,2.86,1.71-1.42,4.46-1.57,5.85.49,3.07,4.53-2.88,9.07-6.01,4.85-.27-.36-.27-.93-.65-1.11,0,.2-.07.21-.2.05-.05-2.48.49-5.72,2.57-7.14h0s0,0,0,0Z"/>
      <path class="st78" d="M1737.88,626.32c1.18-2.74,2.3-4.23,5.04-5.31.31-.12.81-.39,1.09-.09-1.53.47-2.72,1.3-4.04,2.17l1.87-.21c5,.49,5.16,7.97-.11,8.13-1.07.04-2.76-1.02-3.21-2.09-.34-.83-.33-1.8-.67-2.6h0s0,0,0,0Z"/>
      <path class="st78" d="M1733.02,640.08c.87-2.12,2.3-4.49,4.57-4.99l-2.42,1.97c3.19-1.66,6.69,1.41,5.52,5.02-1.13,3.47-5.97,3.37-7.17-.03-.25-.72,0-1.49-.51-1.96h0s0,0,0,0Z"/>
      <path class="st78" d="M1737.19,654.17c-.45-.41-.28-.63.28-.52,2.27-4.39,8.98-1.15,6.89,3.79-1.1,2.62-5.07,3.05-6.5.54-.3-.53-.3-1.21-.74-1.55,0-.48-.02-1.91.06-2.25h0s0,0,0,0Z"/>
      <path class="st78" d="M1742.03,681.69c.02-.19.09-.21.2-.05.03,0,.3.3.43.1.03-.04-.03-.44.14-.7,3.34-5.16,10.18,1.37,5.65,5.45-.95-.5-4.83-1.4-5.71-1.19l-.7-3.61h0s0,0,0,0Z"/>
      <path class="st71" d="M1732.78,640.82l.21,2.5c.46,3.28,2.6,6.19,5.7,6.89.4.38-1.6,2.61-1.21,3.44-.07.13-.28.49-.28.52-4.4-3.18-6.17-8.07-4.41-13.36h0Z"/>
      <path class="st71" d="M1733.7,670.92l.2-.05c.62,4.8,5.3,8.04,9.58,6.65-.6,1.28-1.3,2.6-1.25,4.12-.07,0-.14.06-.2.05-4.89-.79-8.24-5.67-8.33-10.76h0s0,0,0,0Z"/>
      <path class="st9" d="M1737.5,627.31l.22,2.51c.28,1.76.98,3.1,1.97,4.51l-2.15.56c-.09-.76-.48-1.61-.6-2.4-.29-1.96-.03-3.39.57-5.17h0s0,0,0,0Z"/>
    </g>
    <g>
      <path class="st82" d="M1721.39,813.17c-2.14,10.7-12.1,17.97-23.42,17.53-8.86-.1-17.71-.07-26.56.09-13.29-.04-22.79-12.43-21.56-24.59.12-1.18.27-2.25.48-3.41,1.39-5.38,4.83-10.11,9.68-13.25,4.6-2.98,8.35-3.17,13.91-3.33,9.32-.02,18.64-.13,27.96-.31,12.33,1.27,21,13.05,20.01,24.54-.01.67-.37,1.96-.49,2.74h0s0,0,0,0Z"/>
      <path class="st2" d="M1649.84,806.2c-.35,9.55,4.97,19.35,14.46,22.99,5.52,2.12,14.1,1.06,20.19,1.04,6.32-.02,15.91.82,21.76-.94,7.74-2.33,13.02-8.81,15.14-16.11-2.11,13.28-11.23,19.68-24.94,19.79-7.9.06-15.97.15-23.86-.01-5.35-.11-7.89-.11-12.49-3.08-8.48-5.47-11.21-14.3-10.25-23.67h0s0,0,0,0Z"/>
      <path class="st18" d="M1721.88,810.44c.22-11.47-7.76-23.11-20.39-24.24-10.74.64-22.31-.21-32.96.64-8.47.68-16.05,8.41-18.01,16.05l-.2-.11c1.73-9.04,8.06-16.72,17.82-18.49l32.78-.81c11.37.64,19.7,9.76,21.02,20.24.29,2.3.06,4.41-.06,6.71h0s0,0,0,0Z"/>
      <path class="st84" d="M1678.71,794.03c-.61,4.63-7.66,4.93-8.55.3-.03-.32-.03-.7-.01-1.02.73-4.67,7.88-4.65,8.55.05.01.22.02.46,0,.68h0s0,0,0,0Z"/>
      <path class="st84" d="M1698.67,794.08c-.99,4.69-8.28,4.26-8.56-.56,0-.11,0-.23,0-.34.65-4.52,7.23-5.01,8.54-.63.07.59.09.87.02,1.54h0Z"/>
      <path class="st84" d="M1670.36,808.12c-.08,4.83-7.37,5.52-8.54.98-.12-.82-.14-1.11-.03-1.87,1.51-4.1,7.68-3.85,8.56.56.01.11,0,.23,0,.34h0Z"/>
      <path class="st84" d="M1710.27,808.39c-1.13,4.6-8.28,4.09-8.56-.73,0-.11,0-.23,0-.34.76-4.44,6.93-4.81,8.54-.81.14.77.11,1.05.03,1.87h0Z"/>
      <path class="st84" d="M1679.11,822.65c-.46,4.76-7.55,5.06-8.55.46-.03-.37-.04-.83-.02-1.19.85-4.58,7.98-4.45,8.56.21,0,.17.01.34,0,.51h0s0,0,0,0Z"/>
      <path class="st84" d="M1699.07,822.7c-.9,4.71-8.13,4.46-8.56-.39,0-.17-.02-.34,0-.51.72-4.45,7.14-4.76,8.54-.63.09.63.06.86.02,1.54h0Z"/>
      <path class="st84" d="M1690.32,808.34c-.68,4.62-7.75,4.72-8.55.12-.02-.28-.02-.57-.01-.85.67-4.7,7.76-4.81,8.55-.12.01.28.02.58.01.85h0Z"/>
      <path class="st53" d="M1701.71,807.66c.93,4.41,6.72,4.8,8.56.73-.18,1.59-.62,2.78-2.26,3.53-3.41,1.55-6.25-.95-6.3-4.26h0Z"/>
      <path class="st81" d="M1690.51,822.31c1.08,4.43,6.98,4.6,8.56.39-.33,5.72-8.4,5.47-8.56-.39Z"/>
      <path class="st66" d="M1690.3,807.49c-1.51-4.22-7.15-4.13-8.55.12.19-5.72,8.2-5.83,8.55-.12Z"/>
      <path class="st81" d="M1661.82,809.1c1.95,4.02,7.73,3.46,8.54-.98.13,5.77-7.2,6.2-8.44,2-.12-.4-.05-.69-.1-1.02h0Z"/>
      <path class="st17" d="M1681.77,808.47c1.47,4.12,7.19,4.04,8.55-.12-.29,5.67-8.1,5.78-8.55.12Z"/>
      <path class="st59" d="M1679.11,822.13c-1.23-4.21-7.02-4.33-8.56-.21.29-5.4,8.22-5.69,8.56.21h0Z"/>
      <path class="st50" d="M1710.25,806.52l-.22.13c-1.29-3.16-5.91-3.48-7.7-.52-.25.41-.26.88-.62,1.19.27-5.39,7.65-5.86,8.54-.81h0Z"/>
      <path class="st66" d="M1699.05,821.17l-.2.11c-.97-2.85-4.96-3.52-7.13-1.46-.62.59-.74,1.33-1.21,1.98.31-5.44,7.78-5.78,8.54-.63h0Z"/>
      <path class="st6" d="M1670.57,823.11c1.68,4.09,7.4,3.88,8.55-.46-.16,5.87-8.09,6-8.55.46Z"/>
      <path class="st14" d="M1698.65,792.55l-.92-1.26c-2.57-2.64-6.56-1.42-7.63,1.89.25-5.68,7.92-5.83,8.54-.63h0Z"/>
      <path class="st6" d="M1670.16,794.32c1.57,4.19,7.26,3.88,8.55-.3-.24,5.74-8.07,5.86-8.55.3Z"/>
      <path class="st14" d="M1678.7,793.35c-1.35-4.24-7.14-4.25-8.55-.05.25-5.62,8.23-5.68,8.55.05h0Z"/>
      <path class="st6" d="M1690.11,793.52c1.06,4.42,6.83,4.75,8.56.56-.5,5.41-7.63,5.07-8.5.68-.08-.41-.05-.82-.06-1.24h0Z"/>
      <path class="st50" d="M1670.35,807.78c-.36-.3-.39-.77-.65-1.17-1.88-2.92-6.49-2.48-7.69.74l-.22-.12c.75-5.03,8.1-4.86,8.56.56h0Z"/>
      <path class="st32" d="M1675.12,794.05c-.39.62-2.01.16-1.32-.97.47-.78,1.87.1,1.32.97Z"/>
      <path class="st93" d="M1695.31,796.17l1.31-1.05,1.14-2.22c.68,1.62-.55,3.55-2.44,3.27h0Z"/>
      <path class="st47" d="M1693.69,792.82c.38-.59,2-.18,1.5.8-.53,1.05-1.99-.04-1.5-.8Z"/>
      <path class="st25" d="M1666.83,810.89c.16-.34.72-.35,1.05-.62.67-.54,1.23-1.83,1.31-2.65,1.01,1.5-.48,3.84-2.36,3.27h0Z"/>
      <path class="st72" d="M1665.24,808.5c-.72-1.15,1.8-1.71,1.57-.25-.11.74-1.3.68-1.57.25Z"/>
      <path class="st25" d="M1706.92,810.31l1.48-1.23.54-.84.43-1.2c.75,1.52-.62,3.83-2.44,3.27h0Z"/>
      <path class="st61" d="M1706.84,807.9c-.25.44-1.44.53-1.57-.2-.27-1.45,2.26-.97,1.57.2Z"/>
      <path class="st44" d="M1675.76,825.25l1.3-1.22c.53-.64.63-1.02.8-1.79s.55.12.53.65c-.07,1.25-1.24,2.55-2.63,2.36h0,0Z"/>
      <path class="st68" d="M1674.15,822.86c-.55-.81.76-1.84,1.3-1.02.65.98-.93,1.56-1.3,1.02Z"/>
      <path class="st25" d="M1695.71,824.62c1.32-.29,2.04-1.76,2.36-2.93,1.1,1.18-1.03,4.14-2.36,2.93Z"/>
      <path class="st75" d="M1695.64,821.85c.3.98-1.29,1.15-1.54.47-.41-1.11,1.24-1.46,1.54-.47Z"/>
      <path class="st92" d="M1686.78,810.6c.01-.29.5-.2.77-.37.25-.16.44-.38.63-.59l1.22-2.15c.71,1.53-.86,3.72-2.62,3.1h0s0,0,0,0Z"/>
      <path class="st43" d="M1686.71,807.49c.41,1.26-1.57,1.41-1.4.16.1-.76,1.17-.84,1.4-.16Z"/>
    </g>
    <g>
      <path class="st1" d="M1673.97,595.56c2.07,3.83-1.14,9.35-4.9,12.48-4.24,3.42-7.47,6.39-9.91,11.21-3.58,9.63-6.83,17.28-17.34,22.31-5.04,1.86-10.15,3.22-15.33,4.09-5.78,1.66-9.75,4.32-14.61,8.04-3.57,2.14-8.84,3.33-11.07.26-3.45-4.02-7.63-6.77-4.22-13.4,2.42-4.71,7.16-6.88,10.55-11.01,7.41-9.02,5.22-16.92,16.74-25.23,9.83-7.09,18.37-3.14,27.33-9.36,1.95-1.35,3.78-3.25,5.75-4.58,4.63-3.1,10.31-3.35,13.27.31,1.29,1.6,2.53,3.2,3.73,4.86h0Z"/>
      <path class="st54" d="M1600.82,653.96c2.34,1.6,5.08,1.73,8.19.62,3.55-1.26,5.65-3.67,8.8-5.65,11.61-7.31,20.31-2.42,31.86-13.35,7.2-6.81,6.4-14.01,11.8-20.93,4.8-6.15,11.73-8.11,12.65-16.21.13-1.14,0-1.82-.16-2.88,1.94,2.7,2.81,3.69,1.54,7.61-1.96,6.07-6.76,7.68-10.86,12.22-6.1,6.77-5.55,14.03-11.49,20.76-11.9,13.48-22.05,7.24-34.44,15.76-1.19.82-2.24,1.88-3.41,2.69-4.87,3.4-10.58,4.49-13.97.49-.36-.43-.49-1.09-.53-1.13h0Z"/>
      <path class="st80" d="M1643.89,608.21c11.42,11.02-5.91,30.59-19.05,24.1-9.4-4.65-7.51-18.55,3.22-24.7,5.13-2.94,12.29-2.81,15.82.6h0Z"/>
      <path class="st45" d="M1630.47,638.17c4-2.12,8.34-3.8,12.3-6.01,1.35-.75,4.12-2.29,5.19-3.24,2.01-1.78,4.01-7.08,5.35-9.51,2.09-3.79,4.83-7.41,8.34-10.25l-4.46,7.34c-2.39,5.54-3.33,10.9-7.07,16.11-4.64,6.46-14.2,9.58-19.65,5.55h0Z"/>
      <path class="st76" d="M1640.18,611.46c9.51,8.41-6.44,23.05-14.22,15.84-9.13-8.46,6.68-22.51,14.22-15.84Z"/>
    </g>
  </g>
  <g>
    <path class="st15" d="M965.22,710.73c.15-.67-.35-.58-.75-.78-1.49-.78-3.09-1.4-4.55-2.23-7.89-4.48-14.92-11.8-7.53-20.48-11.42-15.83-12.75-36.78-3.35-53.9-4.79-2.49-9.45-6.09-11.04-11.41-3.8-12.67,6.99-24.36,19.7-25.18,9.3-.6,15.89,2.34,19.28,11.13,22.02-11.17,49.95-11.09,71.99,0,.75-1.36,1.19-2.81,2-4.14,5.58-9.11,20.08-8.56,28.26-3.3,13.18,8.47,12.47,27.04-2.64,32.75,9.65,16.84,8.39,38.17-3.06,53.83-.09.48,1.43,2.2,1.79,2.87,3.97,7.37-2.07,13.46-8.11,17.08l-6.49,3.5-.23.59-5.15,1.63c-.37.34-.98.52-1.85.56-8.15,2.8-17.11,4.02-25.82,4.97-.98-.13-.88-.64-.1-1.08.1-.24.19-.24.28,0l.28-.28.56-.92c16.48-8.08,8.28-35.49-3.2-44.12-1.37-.68-2.47-1.51-3.3-2.49.24-.13.49-.24.75-.32,2.02-.59,9.05,1.25,11.49,1.91,4.89,1.34,9.54,3.17,13.92,5.39,4.57,1.84,4.75-3.49.48-4.36l-5.19-2.29-.19-.62.54-.75c10.66-3.63,11.96-18.96,1.5-23.73-12.84-5.85-24.57,9.25-15.66,19.73v.86s-1.72.21-1.72.21c-10.3-2.05-20.8-1.2-31.11.02l-.88-.23v-.84c6.13-6.98,2.15-19.57-7.49-20.79-16.51-2.08-21.49,18.97-6.63,24.74l.52.77.06.36c-2.48,1.13-4.99,2.3-7.53,3.5-2.2,1.55-.63,4.9,2,3.64,7.65-3.77,16.43-6.6,25.08-7.24l.8.29c-.76.98-1.8,1.83-3.12,2.53-11.32,9.27-19,36.76-1.73,44.39l.6.89c-.26.8-2,.67-2.82.57-7.82-.93-18.49-2.49-25.74-5.34-.58-.23-1.05-.64-1.48-1.07-.67.68-2.64-.33-3.4-.83h0Z"/>
    <path class="st15" d="M1057.32,718.51c.15-.1.3-.19.47-.25,2.08-.72,9.61,6.45,10.49,8.51,4.1,9.63,7.97,19.49,11.76,29.25,3.63,9.33,7.2,18.66,9.95,28.29.13.45.17.93.2,1.41.04.48.03.97,0,1.46,2.42,8.95,4.89,21.38,5.38,30.72.15,2.92-.45,6.91.29,9.59-.4,9.11-2.77,18.42-8.28,25.93-10.01,13.63-29.04,18.24-44.71,20.22-19.38,2.16-39.77,3.87-59.23,1.11-.25.11-.5.2-.76.26-2.12.49-10.97-1.96-13.64-2.74-20.56-6.01-36.5-19.74-38.88-41.44.42-1.3-.01-1.55-.01-2.63-.01-13.45,1.73-25.1,5.11-37.95l.03-1.58c5.76-22.91,14.99-46.03,24.22-67.09.1-1.1,5.01-3.33,5.48-3.19.25.07.46.19.59.42-.06.96-.13,1.93-.42,2.85-4.56,14.32-8.69,27.57-11.12,42.48-3.45,21.22-5.3,50.1,4.85,69.58,16.73,32.11,68.36,39.78,95.16,15.82,35.66-31.88,16.31-91.39,3-129.45-.09-.52-.07-1.04.07-1.56h0Z"/>
    <path class="st15" d="M1105.21,974.8c-.03-.31-.31-.03-.85.83-5.88,4.45-21.66-1.16-26.07-6.54-5.77-7.04-5.46-21.93-7.46-31.04-3.55-16.13-10.3-38.42-18.9-52.48l.96-.94c22.01-8.26,43.42-26.35,44.64-50.89l.59-1.27c13.28,31.36,17.32,66.12,18.15,99.92.14,5.91-.63,13.14.07,18.84.82,6.73,8.93,11.53,9.01,17.87.04,2.67-2.15,4.8-4.78,5.08-.83.09-1.75-.26-2.13-.17s-.78.77-1.23,1.02c-4.04,2.27-7.87.85-12-.23h0Z"/>
    <path class="st15" d="M974.85,886.96c-8.19,14.09-15.95,39.52-18.85,55.59-2.82,15.66.21,28.25-18.91,33.44-3.95,1.07-10.87,2.37-14.1-.63-.27-.92-.46-1.1-.57-.56-3.62,1-7.61,2.38-11.24.61-.58-.28-1.71-1.33-1.99-1.39-1.02-.22-1.93.48-3.85-.38-4.29-1.93-2.88-6.65-1.1-9.85,3.43-6.19,6.96-7.02,7.43-15.23.42-7.34-.22-15.13-.02-22.54.81-30.99,5.59-63.05,17.3-91.86l.78,1.36c4.1,23.02,22.08,42.17,44,50.47l1.12.98h0Z"/>
    <path class="st15" d="M1157.36,827.75l-.54-.16c-.76,2.2-2.33,3.79-4.62,4.46-2.04.6-5.91,1.14-3.07-1.39,1.82-2.51,1.73-4.78,1.14-7.63l.43,3.06c.09.55-.05.88-.43.97.65.06.01,1.54-.24,2.07-1.04,2.21-2.51,3.68-5.15,3.35-.71-.22-2.22-1.07-2.82-1.54-.64-.51-.75-1.46-1.72-1.51-.42-.33-.83,1.16-.28.83-2.93,5.86-7.39-.03-9.03-3.51-1.61-3.42-2.24-6.92-4.24-10.29-4.72-7.94-15.4-14.52-23-19.83-3.88-12.22-8.22-24.88-13.24-37-3-7.24-6.23-14.4-9.78-21.34-4.53-8.86-9.49-16.27-15.06-24.45-.47-.69-.76-1.47-1.02-2.26,19.1,6.43,38.97,18.47,53.43,32.24,17.74,16.9,38.04,47.62,40.37,72.14.4,4.16.71,7.97-1.13,11.81h0Z"/>
    <path class="st15" d="M964.65,711.84c-.07.68-.26,1.32-.56,1.93-17.83,24.76-29.29,54.32-37.98,82.85-7.96,5.5-19.06,12.3-23.67,20.84-2.25,4.17-3.58,12.71-8.16,14.78-2.49,1.13-3.35.04-4.44-1.99-.21-.09-.7-3.66-.61-3.5.17.3.25,2,.05,2.39-1.13,1.34-2.5,2.83-4.25,3.34-1.99.23-3.12-.23-4.3-1.82-.58-.78-1.78-2.69-1.08-3.33-.85-.58-.38-3.15,0-4.17-.96,2.59-.46,6.56,2.19,8.65.61,1.32-2.75.63-3.59.43-2.38-.57-4.5-2.36-5.22-4.67l-.46.46c-4.48-9.06,2.1-28.96,6.27-37.9,10.71-22.92,27.53-44.21,48.33-59.05,11.52-8.22,24.29-14.12,37.5-19.23Z"/>
    <path class="st88" d="M1060.72,710.45c1.2,0,2.81.72,3.97,1.11,8.72,11.2,15.43,23.4,21.3,36.23,7,15.3,13.19,31.43,17.78,47.61.09.32.48,1.04.02,1.22-4.52-3.15-9.25-6.06-13.6-9.45-5.51-20.35-14.81-40.34-22.42-60.15-2.56-3.52-6.1-7.25-10.45-8.51-.26.07-.36-.02-.28-.28-.75-.06-2.21-4.75-2.13-5.02.08-.23.2-.42.43-.54.03-.02-.15-.39.35-.64.65-.33,4.39-1.58,5.04-1.58h0Z"/>
    <path class="st88" d="M1095.86,827.48c.02.09-.03.2,0,.28l.28.28c.62,1.48,1.35,2.95,1.98,4.45-.18,25.43-23.47,45.12-46.19,53.09-2.61-4.27-5.59-8.32-9.07-11.95-.24-.87.9-.49,1.76-.63,27.99-4.6,48.31-13.46,50.67-44.55.04-.53-.32-1.12.56-.96h0Z"/>
    <path class="st88" d="M983.64,874.73c-3.04,3.98-6.26,7.89-8.78,12.23-13.67-4.58-26.48-14.49-34.8-26.04-5.72-7.93-9.76-17.08-11.1-26.77.4-.99,1.13-2.45,1.42-3.34.52.29.47.77.56,1.26,4.85,27.24,26.69,38.97,52.72,42.66Z"/>
    <path class="st88" d="M968.62,711.56l.43.48c-.75,2.12-1.5,4.25-2.25,6.37l-.73.37c-.05.25-.15.24-.28,0-1.21.25-4.48,1.58-5.23,2.51-1.02,1.27-2.89,6.48-3.69,8.34-8.31,19.29-16.07,40.35-21.4,60.59-3.05,2.22-6.25,4.25-9.35,6.39-.39-1.06.38-2.78.71-3.89,5.23-17.69,12.44-36.05,20.59-52.64,5.07-10.31,11.18-18.67,17.25-28.25.18-.29.39-.95.57-1.11.55-.51,2.6.57,3.4.83h0Z"/>
    <path class="st62" d="M872.55,828.03c-.2-1.51-.32-2.73.08-4.23l1.34-2.99c-2.24,6.27.35,11.85,7.65,11.39-3.16-2.68-3.43-6.29-1.98-10,.7,0,0,.82,0,.97v4.17c0,.38.89,2.31,1.18,2.73,1.08,1.61,2.39,1.99,4.2,2.41-4.73,1.36-10.23.08-12.47-4.45h0Z"/>
    <path class="st20" d="M1157.36,827.75c-1.03,2.14-1.9,3.33-4.25,4.3-2.07.85-6.11,1.06-8.21.42,2.18-.54,3.71-1.22,4.68-3.33.12-.26.71-1.98.71-2.09v-4.03l.86,2.93c-.07,2.56-.96,4.51-2.84,6.24,7.38.39,9.58-5.05,7.65-11.39l1.35,3.26.07,3.69h0Z"/>
    <path class="st23" d="M889.27,829.14c-1.01-2.97-.63-6.47,1-9.18.11-.18.23-1.02.7-.55.17.17-1.77,3.7-1.41,4.59l.28,6.25c-.24-.44-.36-.49-.57-1.11h0Z"/>
    <path class="st0" d="M1105.21,974.8c-.32.47-.43.51-.85.83,2.28-4.46-.76-7.04-3.68-10l3.26,2.5c1.55,2.13,2.99,4.19,1.27,6.67h0Z"/>
    <path class="st8" d="M1140.35,829.42c-.1.28-.13.54-.28.83-.6.35-.67.5-.46-.31.94-3.73.94-6.58-.38-10.25,2.24,2.83,2.26,6.48,1.13,9.73Z"/>
    <path class="st0" d="M922.43,974.8c-1.83-3.05.65-6.14,2.97-8.06.32-.26.46-.67.99-.55-1.91,2.12-3.92,3.69-3.69,6.82.06.84.66,1.7.29,2.35-.22-.2-.36-.22-.57-.56h0Z"/>
    <path class="st15" d="M1096.14,828.03l-.28-.28c.02.07.23.16.28.28Z"/>
    <path class="st85" d="M1022.18,669.31c7.69,3.15,12.21,11.81,14.53,19.24,3.47,11.12,3.06,22.5-8.58,28.29l-.28.28c-.08.04-.21-.04-.28,0-.11.2-.23.4-.38.57-1.11,1.29-7.23,2.52-9.23,2.78-5.89.78-12.18-.16-17.79-1.87-.54-.16-1.6-.6-1.5-1.21-13.91-6.09-12.99-20.82-8.07-32.79,2.42-5.89,6.18-12.28,12.32-15.02l.54-.83c5.78-2.11,12.33-2.2,18.17-.26l.56.81h0Z"/>
    <path class="st39" d="M998.66,717.4c.84.13,1.51.7,2.33.91,9.48,2.46,17.42,2.93,26.58-1.19-.43.7-.41.57.35.49,6.54-.68,13.09-1.64,19.49-3.12,2.25-.52,4.95-1.67,7.01-2.03.4-.07.88.24.92.22l1.7,5.56-.48.38c-4.77-1.09-9.69-.85-14.75.72-16.01,4.9-32.43,6.9-49.12,3.46-7.9-1.89-15.86-3.12-23.9-3.69-1.12.24-2.02.13-2.71-.32l2.55-7.23c9.14,3.05,17.49,4.62,27.07,5.83.8.1,2.56-.06,2.97,0h0Z"/>
    <path class="st38" d="M1029.83,665.14l.83.05c3.46,3.5,7.82,4.02,12.45,3.27l.32.57c.56.06,2.78,1.12,3.5,1.43.89.39,4.36,1.97,4.84,2.48,1.58,1.66.4,4.47-1.97,4.44-.94-.01-5.34-2.39-6.66-2.92-6.62-2.65-13.79-4.68-20.96-5.15-5.54-2.27-13.8-2.16-19.27.28-7.78.73-15.48,3.06-22.66,5.99-1.23.5-3.18,1.86-4.4,1.82-2.45-.09-3.35-3.31-1.27-4.87.69-.51,7.18-3.38,7.92-3.49-.01-.27.09-.47.34-.58,4.68.8,8.96.12,12.5-3.34l.77.03c11.16-1.84,22.6-2.41,33.72,0h0Z"/>
    <path class="st85" d="M1062.36,605.46c9.18-1.02,18.55,6.24,16.08,15.77-.43,1.64-3.3,6.38-5.11,6.4-.61,0-2.78-3.21-3.39-3.9-4.62-5.22-9.88-9.34-15.71-13.2,1.66-2.95,4.74-4.69,8.13-5.07h0Z"/>
    <path class="st85" d="M971.41,610.9c-.11.19-3.14,1.89-3.74,2.32-5.8,4.18-10.83,8.93-15.07,14.65-10.14-6.67-5.43-20,5.75-22.13,3.32-.63,7.39-.53,10.24,1.46.63.44,3.29,2.9,2.81,3.69h0Z"/>
    <path class="st22" d="M996.11,665.14c-2.02,2.12-5.38,3.93-8.35,4.18-1.58.13-4.18-.45-5.25-.29-15.86-5.17-11.76-27.61,5.54-26.14,10.68.91,15.32,14.63,8.07,22.25Z"/>
    <path class="st22" d="M1043.43,669.04c-1.32-.13-3.55.43-5.25.29-3.19-.27-6.24-1.93-8.35-4.18-9.5-10.14.75-25.82,14.11-21.76,12.81,3.89,12.15,21.99-.5,25.65h0Z"/>
    <path class="st33" d="M1040.25,632.98c2.05-.23,3.58.02,5.42.93,1.03.51,5.51,3.75,2.95,4.5-1.43.42-1.41-.67-2.19-1.35-1.64-1.43-3.69-2.14-5.89-1.86-1.26.16-4.79,2.21-4.78.06.01-1.37,3.34-2.15,4.5-2.28h0Z"/>
    <path class="st90" d="M983,632.97c1.53-.2,6.68.37,7.12,2.07.61,2.34-3.91.26-4.72.16-1.6-.2-2.8,0-4.23.71-1.07.53-3.57,3.58-4.5,2.29-1.01-1.4,2.78-4.02,3.93-4.52.67-.28,1.68-.61,2.39-.71Z"/>
    <path class="st39" d="M1027.85,717.12l.28-.28c-.05.03-.12.2-.28.28Z"/>
    <path class="st85" d="M1057.04,718.24c.1.07.19.2.28.28,12.93,38.12,31.73,91.42,2.13,126.48-25.18,29.83-82.03,23.56-100.52-10.38-8.92-16.38-8.65-38.4-7.03-56.47,1.82-20.31,6.93-40.23,13.88-59.35.09-.02.19.02.28,0,6.99-1.24,21.22,2.69,28.85,3.81,11.13,1.64,20.15,2.05,31.29,0,7.95-1.46,19.59-5.85,27.28-5.2.71.06,3.05.49,3.55.83h0Z"/>
    <path class="st52" d="M1013.68,696.55c-.42.78-.98.79-1.42,0-4.36-.23-8.76-2.35-9.51-6.94-.55-3.36-.25-4.87,3.26-5.72,3.02-.74,10.32-.68,13.39-.05,4.07.83,4.48,2.56,3.54,6.37-1.04,4.23-5.1,6.12-9.27,6.34h0Z"/>
    <path class="st26" d="M1013.68,696.55c.11,6.23-1.61,14.03,6.29,16.21,4.71,1.3,10.76-1.81,9.8-7.11-.12-.67-1.44-2.66-.35-2.98,1.84-.53,1.98,4.62,1.82,5.68-.32,2.09-2.8,4.54-4.69,5.4-5.05,2.3-11.23-.13-13.57-4.97-2.35,4.39-7.33,6.8-12.33,5.42-3.12-.86-6.14-3.97-6.24-7.24-.03-.92.62-4,1.61-4.25,1.81-.47.23,2.2.12,2.9-.34,2.31.31,4.15,2.11,5.67,3.28,2.78,8.44,2.22,11.48-.68,3.8-3.63,2.21-9.38,2.54-14.05.46.02.96.02,1.42,0h0Z"/>
    <path class="st13" d="M984.14,646.32c15.93-2.24,15.79,21.68.28,19.59-11.17-1.5-10.98-18.08-.28-19.59Z"/>
    <path class="st13" d="M1037.7,646.32c11.88-1.69,16.71,12.83,7.13,18.39-6.3,3.66-14.44-.5-15.2-7.56-.52-4.81,2.99-10.11,8.07-10.83h0Z"/>
    <path class="st73" d="M984.13,647.98c9.96-1.65,14.12,10.38,6.4,15.18-6.91,4.29-15.45-3.14-12.14-10.52.85-1.9,3.61-4.31,5.74-4.66Z"/>
    <path class="st73" d="M1037.98,647.98c13.34-1.9,13.2,17.45.78,16.32-9.65-.88-9.66-15.06-.78-16.32h0Z"/>
    <path class="st77" d="M982.71,650.46c2.3-.34,2.62,3.81-.29,2.96-1.56-.45-1.24-2.73.29-2.96Z"/>
    <path class="st86" d="M979.46,656.46c-1.1-1.09.75-2.38,1.51-1.34.62.85-.59,2.25-1.51,1.34Z"/>
    <path class="st36" d="M1036.53,650.47c1.62-.14,2.27,2.72.51,3-2.62.42-2.44-2.83-.51-3Z"/>
    <path class="st77" d="M1034.61,656.49c-.62.98-2.74-.57-1.4-1.51,1.03-.73,1.9.73,1.4,1.51Z"/>
    <g>
      <path class="st82" d="M1049.85,812.6c-2.23,10.7-12.57,17.97-24.33,17.53-9.2-.1-18.4-.07-27.59.09-13.8-.04-23.67-12.43-22.4-24.59.12-1.18.28-2.25.5-3.41,1.44-5.38,5.02-10.11,10.06-13.25,4.78-2.98,8.67-3.17,14.45-3.33,9.69-.02,19.36-.13,29.04-.31,12.81,1.27,21.82,13.05,20.78,24.54-.01.67-.39,1.96-.51,2.74h0s0,0,0,0Z"/>
      <path class="st2" d="M975.53,805.63c-.37,9.55,5.17,19.35,15.01,22.99,5.74,2.12,14.65,1.06,20.97,1.04,6.56-.02,16.53.82,22.61-.94,8.04-2.33,13.52-8.81,15.73-16.11-2.19,13.28-11.67,19.68-25.91,19.79-8.2.06-16.59.15-24.78-.01-5.56-.11-8.19-.11-12.97-3.08-8.81-5.47-11.65-14.3-10.65-23.67h0s0,0,0,0Z"/>
      <path class="st18" d="M1050.36,809.87c.22-11.47-8.06-23.11-21.18-24.24-11.16.64-23.17-.21-34.23.64-8.8.68-16.67,8.41-18.71,16.05l-.21-.11c1.79-9.04,8.37-16.72,18.51-18.49l34.05-.81c11.81.64,20.46,9.76,21.84,20.24.3,2.3.06,4.41-.07,6.71h0s0,0,0,0Z"/>
      <path class="st84" d="M1005.52,793.45c-.63,4.63-7.95,4.93-8.88.3-.03-.32-.03-.7-.01-1.02.76-4.67,8.19-4.65,8.88.05.01.22.02.46,0,.68h0s0,0,0,0Z"/>
      <path class="st84" d="M1026.25,793.5c-1.03,4.69-8.6,4.26-8.89-.56,0-.11,0-.23,0-.34.67-4.52,7.51-5.01,8.87-.63.07.59.09.87.02,1.54h0Z"/>
      <path class="st84" d="M996.84,807.55c-.09,4.83-7.66,5.52-8.87.98-.13-.82-.15-1.11-.03-1.87,1.57-4.1,7.98-3.85,8.89.56.01.11,0,.23,0,.34h0Z"/>
      <path class="st84" d="M1038.3,807.82c-1.17,4.6-8.6,4.09-8.89-.73,0-.11,0-.23,0-.34.79-4.44,7.2-4.81,8.87-.81.14.77.12,1.05.03,1.87h0Z"/>
      <path class="st84" d="M1005.94,822.07c-.47,4.76-7.84,5.06-8.88.46-.03-.37-.04-.83-.02-1.19.88-4.58,8.29-4.45,8.89.21,0,.17.01.34,0,.51h0s0,0,0,0Z"/>
      <path class="st84" d="M1026.67,822.12c-.94,4.71-8.45,4.46-8.89-.39,0-.17-.02-.34,0-.51.74-4.45,7.42-4.76,8.87-.63.1.63.06.86.02,1.54h0Z"/>
      <path class="st84" d="M1017.58,807.77c-.7,4.62-8.04,4.72-8.88.12-.02-.28-.02-.57-.01-.85.69-4.7,8.06-4.81,8.88-.12.01.28.02.58.01.85h0Z"/>
      <path class="st53" d="M1029.41,807.09c.96,4.41,6.98,4.8,8.89.73-.18,1.59-.65,2.78-2.35,3.53-3.55,1.55-6.49-.95-6.54-4.26h0Z"/>
      <path class="st81" d="M1017.78,821.74c1.12,4.43,7.25,4.6,8.89.39-.35,5.72-8.73,5.47-8.89-.39Z"/>
      <path class="st66" d="M1017.56,806.92c-1.57-4.22-7.43-4.13-8.88.12.2-5.72,8.52-5.83,8.88-.12Z"/>
      <path class="st81" d="M987.98,808.52c2.03,4.02,8.03,3.46,8.87-.98.13,5.77-7.48,6.2-8.77,2-.12-.4-.05-.69-.1-1.02h0Z"/>
      <path class="st17" d="M1008.69,807.9c1.53,4.12,7.47,4.04,8.88-.12-.3,5.67-8.41,5.78-8.88.12Z"/>
      <path class="st59" d="M1005.93,821.56c-1.28-4.21-7.29-4.33-8.89-.21.31-5.4,8.54-5.69,8.89.21h0Z"/>
      <path class="st50" d="M1038.28,805.95l-.23.13c-1.34-3.16-6.14-3.48-8-.52-.25.41-.27.88-.64,1.19.29-5.39,7.94-5.86,8.87-.81h0Z"/>
      <path class="st66" d="M1026.65,820.59l-.2.11c-1.01-2.85-5.15-3.52-7.41-1.46-.65.59-.77,1.33-1.26,1.98.32-5.44,8.08-5.78,8.87-.63h0Z"/>
      <path class="st6" d="M997.06,822.54c1.74,4.09,7.69,3.88,8.88-.46-.17,5.87-8.41,6-8.88.46Z"/>
      <path class="st14" d="M1026.23,791.97l-.95-1.26c-2.67-2.64-6.82-1.42-7.92,1.89.26-5.68,8.23-5.83,8.87-.63h0Z"/>
      <path class="st6" d="M996.64,793.75c1.63,4.19,7.55,3.88,8.88-.3-.25,5.74-8.39,5.86-8.88.3Z"/>
      <path class="st14" d="M1005.51,792.77c-1.4-4.24-7.42-4.25-8.88-.05.25-5.62,8.55-5.68,8.88.05h0Z"/>
      <path class="st6" d="M1017.36,792.95c1.1,4.42,7.09,4.75,8.89.56-.52,5.41-7.93,5.07-8.83.68-.09-.41-.05-.82-.06-1.24h0Z"/>
      <path class="st50" d="M996.84,807.21c-.38-.3-.41-.77-.68-1.17-1.96-2.92-6.74-2.48-7.98.74l-.23-.12c.78-5.03,8.42-4.86,8.89.56h0Z"/>
      <path class="st32" d="M1001.79,793.48c-.4.62-2.09.16-1.37-.97.49-.78,1.94.1,1.37.97Z"/>
      <path class="st93" d="M1022.76,795.6l1.36-1.05,1.18-2.22c.71,1.62-.57,3.55-2.54,3.27h0Z"/>
      <path class="st47" d="M1021.08,792.24c.39-.59,2.08-.18,1.56.8-.55,1.05-2.07-.04-1.56-.8Z"/>
      <path class="st25" d="M993.18,810.32c.16-.34.74-.35,1.09-.62.69-.54,1.27-1.83,1.36-2.65,1.05,1.5-.5,3.84-2.45,3.27h0Z"/>
      <path class="st72" d="M991.52,807.93c-.74-1.15,1.87-1.71,1.63-.25-.12.74-1.35.68-1.63.25Z"/>
      <path class="st25" d="M1034.82,809.74l1.54-1.23.56-.84.44-1.2c.78,1.52-.64,3.83-2.54,3.27h0Z"/>
      <path class="st61" d="M1034.74,807.32c-.26.44-1.49.53-1.64-.2-.28-1.45,2.35-.97,1.64.2Z"/>
      <path class="st44" d="M1002.46,824.67l1.35-1.22c.55-.64.65-1.02.83-1.79s.58.12.55.65c-.07,1.25-1.29,2.55-2.73,2.36h0,0Z"/>
      <path class="st68" d="M1000.78,822.29c-.58-.81.79-1.84,1.35-1.02.67.98-.97,1.56-1.35,1.02Z"/>
      <path class="st25" d="M1023.18,824.05c1.37-.29,2.12-1.76,2.45-2.93,1.14,1.18-1.07,4.14-2.45,2.93Z"/>
      <path class="st75" d="M1023.11,821.27c.31.98-1.34,1.15-1.6.47-.42-1.11,1.29-1.46,1.6-.47Z"/>
      <path class="st92" d="M1013.9,810.03c.01-.29.52-.2.8-.37.26-.16.46-.38.66-.59l1.26-2.15c.74,1.53-.89,3.72-2.73,3.1h0s0,0,0,0Z"/>
      <path class="st43" d="M1013.83,806.92c.43,1.26-1.63,1.41-1.45.16.11-.76,1.22-.84,1.45-.16Z"/>
    </g>
  </g>
  <g>
    <path class="st15" d="M292.77,707.54c.15-.67-.34-.57-.74-.77-1.47-.77-3.06-1.39-4.49-2.2-7.8-4.43-14.75-11.67-7.45-20.25-11.29-15.66-12.61-36.37-3.31-53.3-4.74-2.46-9.34-6.02-10.92-11.28-3.75-12.53,6.91-24.09,19.47-24.9,9.2-.59,15.72,2.31,19.06,11,21.77-11.04,49.39-10.97,71.18,0,.74-1.34,1.17-2.78,1.98-4.1,5.52-9.01,19.86-8.47,27.94-3.27,13.03,8.38,12.33,26.74-2.61,32.39,9.55,16.65,8.3,37.74-3.03,53.23-.09.47,1.42,2.18,1.77,2.83,3.92,7.29-2.05,13.31-8.01,16.89l-6.42,3.46-.23.59-5.1,1.61c-.36.33-.97.52-1.83.55-8.06,2.77-16.92,3.98-25.53,4.91-.97-.13-.87-.63-.1-1.07.09-.24.19-.24.28,0l.28-.27.55-.91c16.3-7.99,8.19-35.1-3.17-43.63-1.36-.68-2.45-1.5-3.27-2.46.24-.12.49-.24.74-.31,2-.59,8.95,1.23,11.36,1.89,4.83,1.32,9.43,3.14,13.76,5.33,4.52,1.82,4.7-3.45.47-4.31l-5.14-2.26-.19-.61.53-.75c10.54-3.59,11.83-18.75,1.49-23.46-12.69-5.78-24.29,9.15-15.48,19.51v.85s-1.7.21-1.7.21c-10.18-2.03-20.56-1.19-30.76.02l-.87-.23v-.83c6.06-6.9,2.12-19.35-7.41-20.56-16.33-2.06-21.25,18.76-6.55,24.47l.51.76.06.36c-2.45,1.12-4.93,2.27-7.44,3.46-2.18,1.54-.63,4.85,1.98,3.6,7.57-3.72,16.24-6.53,24.79-7.16l.79.29c-.75.97-1.78,1.81-3.08,2.51-11.19,9.17-18.79,36.35-1.71,43.89l.59.88c-.26.79-1.98.66-2.79.56-7.73-.92-18.28-2.46-25.45-5.28-.57-.22-1.03-.63-1.46-1.05-.66.67-2.61-.32-3.36-.82h0Z"/>
    <path class="st15" d="M383.84,715.24c.15-.1.3-.19.46-.24,2.05-.72,9.51,6.38,10.37,8.41,4.05,9.53,7.88,19.27,11.63,28.92,3.59,9.23,7.12,18.46,9.84,27.97.13.44.16.92.2,1.39.04.48.03.96,0,1.44,2.4,8.85,4.83,21.14,5.32,30.38.15,2.89-.45,6.83.28,9.48-.39,9.01-2.74,18.22-8.19,25.64-9.89,13.48-28.71,18.04-44.21,19.99-19.17,2.14-39.33,3.82-58.56,1.1-.25.11-.49.2-.75.26-2.09.48-10.85-1.94-13.48-2.71-20.33-5.95-36.09-19.52-38.44-40.99.42-1.28-.01-1.53-.01-2.6-.01-13.3,1.71-24.82,5.06-37.53l.03-1.56c5.7-22.66,14.83-45.52,23.95-66.35.1-1.08,4.95-3.29,5.42-3.15.25.07.45.18.58.42-.05.95-.13,1.91-.42,2.82-4.51,14.16-8.6,27.26-10.99,42.01-3.41,20.98-5.24,49.55,4.79,68.81,16.54,31.76,67.59,39.34,94.09,15.64,35.26-31.53,16.13-90.38,2.97-128.02-.09-.52-.07-1.03.07-1.54h0Z"/>
    <path class="st15" d="M431.19,968.68c-.03-.31-.31-.03-.84.82-5.82,4.4-21.41-1.15-25.77-6.47-5.71-6.96-5.4-21.69-7.38-30.7-3.51-15.96-10.18-37.99-18.69-51.9l.95-.93c21.76-8.17,42.93-26.06,44.14-50.32l.59-1.25c13.14,31.01,17.13,65.39,17.94,98.81.14,5.85-.62,13,.07,18.63.81,6.66,8.83,11.4,8.91,17.67.04,2.64-2.12,4.74-4.72,5.02-.82.09-1.73-.26-2.11-.17s-.77.76-1.22,1.01c-4,2.25-7.78.84-11.86-.23h0Z"/>
    <path class="st15" d="M302.3,881.82c-8.09,13.93-15.77,39.08-18.64,54.97-2.79,15.49.21,27.94-18.69,33.07-3.91,1.06-10.75,2.34-13.94-.62-.27-.91-.46-1.09-.56-.55-3.58.98-7.53,2.35-11.12.6-.57-.28-1.69-1.32-1.97-1.38-1.01-.22-1.91.47-3.8-.38-4.24-1.91-2.85-6.57-1.09-9.74,3.39-6.12,6.88-6.94,7.35-15.06.41-7.26-.22-14.96-.02-22.29.81-30.65,5.53-62.35,17.1-90.84l.77,1.34c4.05,22.76,21.83,41.71,43.51,49.91l1.11.97h0Z"/>
    <path class="st15" d="M482.75,823.27l-.53-.16c-.75,2.17-2.31,3.75-4.57,4.41-2.01.59-5.84,1.13-3.03-1.37,1.8-2.48,1.71-4.73,1.13-7.55l.42,3.03c.09.55-.05.87-.42.96.64.06.01,1.52-.23,2.05-1.03,2.19-2.48,3.63-5.09,3.31-.71-.21-2.2-1.06-2.79-1.53-.63-.5-.74-1.44-1.7-1.5-.42-.32-.82,1.14-.28.82-2.9,5.8-7.31-.03-8.93-3.48-1.59-3.39-2.21-6.84-4.19-10.18-4.67-7.85-15.23-14.36-22.74-19.61-3.84-12.09-8.13-24.61-13.09-36.59-2.97-7.16-6.16-14.24-9.67-21.11-4.48-8.76-9.39-16.09-14.89-24.18-.46-.68-.75-1.46-1.01-2.23,18.88,6.36,38.54,18.26,52.83,31.88,17.54,16.71,37.61,47.1,39.92,71.34.39,4.11.7,7.89-1.12,11.68h0Z"/>
    <path class="st15" d="M292.21,708.64c-.07.67-.26,1.3-.56,1.91-17.63,24.49-28.96,53.72-37.55,81.93-7.87,5.44-18.85,12.16-23.4,20.61-2.22,4.12-3.54,12.57-8.07,14.62-2.46,1.11-3.32.04-4.39-1.97-.21-.09-.7-3.62-.61-3.46.17.3.25,1.98.05,2.36-1.11,1.32-2.47,2.8-4.2,3.3-1.97.23-3.08-.22-4.25-1.8-.58-.78-1.76-2.66-1.07-3.29-.84-.57-.38-3.11,0-4.12-.95,2.56-.46,6.49,2.16,8.55.61,1.3-2.72.63-3.55.43-2.35-.56-4.45-2.34-5.16-4.62l-.46.45c-4.43-8.96,2.07-28.64,6.2-37.48,10.59-22.66,27.22-43.72,47.79-58.4,11.39-8.13,24.01-13.96,37.08-19.02Z"/>
    <path class="st88" d="M387.2,707.26c1.19,0,2.78.72,3.92,1.1,8.62,11.08,15.26,23.14,21.06,35.82,6.92,15.13,13.05,31.08,17.58,47.08.09.32.48,1.03.02,1.21-4.47-3.12-9.15-5.99-13.45-9.35-5.45-20.13-14.64-39.89-22.17-59.48-2.53-3.48-6.03-7.17-10.33-8.42-.26.07-.35-.02-.28-.27-.74-.06-2.19-4.7-2.1-4.96.08-.23.2-.41.42-.54.03-.02-.14-.39.34-.63.65-.33,4.34-1.56,4.98-1.57h0Z"/>
    <path class="st88" d="M421.95,822.99c.02.09-.03.2,0,.27l.28.27c.62,1.47,1.33,2.92,1.96,4.4-.17,25.15-23.2,44.62-45.67,52.5-2.58-4.22-5.52-8.23-8.97-11.82-.24-.86.89-.49,1.74-.62,27.68-4.55,47.76-13.31,50.1-44.05.04-.53-.31-1.11.56-.95h0Z"/>
    <path class="st88" d="M310.99,869.72c-3.01,3.94-6.19,7.8-8.69,12.09-13.52-4.53-26.19-14.33-34.41-25.75-5.65-7.85-9.65-16.89-10.98-26.48.4-.98,1.11-2.42,1.4-3.3.52.28.47.76.55,1.24,4.79,26.94,26.39,38.54,52.13,42.19Z"/>
    <path class="st88" d="M296.13,708.36l.42.48c-.74,2.1-1.48,4.2-2.22,6.3l-.72.36c-.05.25-.15.24-.28,0-1.2.25-4.43,1.56-5.17,2.48-1.01,1.26-2.85,6.41-3.64,8.24-8.21,19.08-15.89,39.9-21.16,59.92-3.01,2.19-6.18,4.2-9.25,6.32-.38-1.05.38-2.75.7-3.85,5.18-17.5,12.3-35.65,20.35-52.05,5.01-10.2,11.05-18.47,17.05-27.94.18-.29.39-.94.56-1.1.54-.51,2.57.56,3.36.82h0Z"/>
    <path class="st62" d="M201.14,823.54c-.19-1.49-.32-2.7.08-4.18l1.32-2.96c-2.22,6.2.35,11.72,7.57,11.27-3.13-2.65-3.39-6.22-1.96-9.89.69,0,0,.81,0,.96v4.12c0,.38.88,2.28,1.17,2.7,1.07,1.59,2.36,1.97,4.16,2.38-4.68,1.34-10.12.07-12.33-4.4h0Z"/>
    <path class="st20" d="M482.75,823.27c-1.01,2.12-1.88,3.29-4.21,4.26-2.05.85-6.04,1.05-8.12.42,2.15-.53,3.67-1.21,4.62-3.3.12-.26.7-1.95.7-2.06v-3.99l.85,2.9c-.07,2.54-.95,4.46-2.81,6.17,7.3.38,9.48-5,7.57-11.27l1.33,3.23.07,3.64h0Z"/>
    <path class="st23" d="M217.68,824.64c-1-2.94-.62-6.4.98-9.08.11-.18.23-1.01.7-.54.17.17-1.75,3.66-1.4,4.54l.28,6.18c-.23-.44-.35-.49-.56-1.1h0Z"/>
    <path class="st0" d="M431.19,968.68c-.32.46-.42.51-.84.82,2.25-4.41-.75-6.96-3.64-9.89l3.23,2.47c1.53,2.1,2.95,4.14,1.26,6.6h0Z"/>
    <path class="st8" d="M465.94,824.91c-.1.28-.13.53-.28.82-.59.35-.66.49-.46-.31.93-3.69.93-6.51-.38-10.14,2.22,2.8,2.23,6.41,1.12,9.62Z"/>
    <path class="st0" d="M250.46,968.68c-1.81-3.02.64-6.07,2.94-7.97.31-.26.46-.67.98-.55-1.89,2.1-3.88,3.65-3.65,6.74.06.83.66,1.68.29,2.32-.21-.2-.36-.22-.56-.55h0Z"/>
    <path class="st15" d="M422.23,823.54l-.28-.27c.02.07.23.16.28.27Z"/>
    <path class="st85" d="M349.09,666.58c7.6,3.12,12.07,11.68,14.37,19.03,3.43,11,3.02,22.25-8.48,27.97l-.28.27c-.08.04-.2-.04-.28,0-.11.2-.23.4-.37.57-1.09,1.28-7.15,2.49-9.13,2.75-5.82.77-12.04-.15-17.59-1.85-.53-.16-1.58-.6-1.49-1.19-13.75-6.02-12.84-20.59-7.98-32.43,2.39-5.83,6.11-12.14,12.18-14.85l.53-.82c5.72-2.09,12.19-2.17,17.97-.26l.55.8h0Z"/>
    <path class="st39" d="M325.84,714.14c.83.13,1.49.69,2.3.9,9.38,2.43,17.22,2.9,26.28-1.18-.43.69-.41.56.35.48,6.47-.67,12.94-1.62,19.27-3.09,2.22-.52,4.89-1.65,6.93-2.01.4-.07.87.24.91.22l1.68,5.5-.48.38c-4.72-1.07-9.58-.84-14.59.71-15.83,4.85-32.07,6.82-48.57,3.42-7.81-1.87-15.69-3.08-23.64-3.64-1.1.24-2,.13-2.68-.32l2.52-7.15c9.04,3.01,17.29,4.57,26.76,5.77.79.1,2.53-.06,2.94,0h0Z"/>
    <path class="st38" d="M356.66,662.46l.82.05c3.42,3.46,7.73,3.97,12.31,3.23l.32.57c.55.06,2.75,1.1,3.46,1.41.88.38,4.31,1.95,4.79,2.45,1.57,1.64.39,4.42-1.95,4.39-.93-.01-5.28-2.36-6.59-2.89-6.55-2.62-13.64-4.62-20.73-5.09-5.48-2.25-13.65-2.14-19.05.27-7.69.72-15.31,3.02-22.41,5.92-1.22.5-3.15,1.84-4.35,1.8-2.42-.09-3.32-3.27-1.25-4.81.68-.51,7.1-3.34,7.83-3.45-.01-.27.09-.46.33-.58,4.63.79,8.86.12,12.36-3.3l.76.03c11.03-1.82,22.34-2.38,33.34,0h0Z"/>
    <path class="st85" d="M388.82,603.43c9.08-1,18.34,6.18,15.9,15.59-.42,1.63-3.26,6.31-5.05,6.32-.6,0-2.75-3.18-3.35-3.86-4.57-5.16-9.77-9.24-15.53-13.05,1.64-2.92,4.68-4.64,8.04-5.01h0Z"/>
    <path class="st85" d="M298.9,608.81c-.11.18-3.11,1.87-3.69,2.29-5.73,4.13-10.71,8.84-14.9,14.49-10.02-6.59-5.37-19.78,5.69-21.88,3.28-.62,7.31-.52,10.13,1.45.62.44,3.25,2.86,2.78,3.65h0Z"/>
    <path class="st22" d="M323.31,662.46c-2,2.1-5.32,3.88-8.26,4.13-1.56.13-4.14-.44-5.19-.29-15.68-5.11-11.63-27.31,5.47-25.85,10.56.9,15.15,14.47,7.98,22Z"/>
    <path class="st22" d="M370.11,666.31c-1.3-.13-3.51.43-5.19.28-3.16-.27-6.17-1.91-8.26-4.13-9.4-10.02.74-25.53,13.95-21.52,12.67,3.85,12.01,21.74-.5,25.37h0Z"/>
    <path class="st33" d="M366.96,630.65c2.03-.23,3.54.02,5.35.92,1.02.5,5.45,3.7,2.92,4.45-1.41.42-1.39-.66-2.17-1.34-1.62-1.42-3.65-2.12-5.83-1.84-1.25.16-4.74,2.18-4.72.06.01-1.35,3.31-2.13,4.45-2.26h0Z"/>
    <path class="st90" d="M310.36,630.64c1.51-.2,6.6.37,7.04,2.05.6,2.32-3.86.26-4.66.15-1.58-.2-2.77,0-4.18.7-1.06.52-3.53,3.54-4.45,2.27-1-1.38,2.74-3.98,3.89-4.47.66-.28,1.67-.61,2.37-.7Z"/>
    <path class="st39" d="M354.7,713.86l.28-.27s-.12.2-.28.27Z"/>
    <path class="st85" d="M383.56,714.96c.1.07.18.19.28.27,12.79,37.7,31.37,90.4,2.11,125.08-24.89,29.5-81.11,23.3-99.39-10.27-8.82-16.2-8.56-37.97-6.96-55.85,1.8-20.09,6.85-39.78,13.73-58.69.09-.02.19.02.28,0,6.91-1.23,20.98,2.66,28.52,3.77,11.01,1.62,19.92,2.03,30.94,0,7.86-1.45,19.37-5.79,26.98-5.14.7.06,3.01.49,3.51.82h0Z"/>
    <path class="st52" d="M340.69,693.52c-.42.77-.97.78-1.4,0-4.31-.23-8.67-2.32-9.4-6.86-.54-3.32-.24-4.81,3.23-5.66,2.99-.73,10.2-.67,13.24-.05,4.03.82,4.43,2.53,3.5,6.3-1.03,4.18-5.04,6.05-9.16,6.27h0Z"/>
    <path class="st26" d="M340.69,693.52c.11,6.16-1.59,13.87,6.21,16.03,4.65,1.29,10.64-1.79,9.69-7.03-.12-.66-1.43-2.63-.34-2.95,1.81-.53,1.96,4.57,1.79,5.61-.32,2.06-2.76,4.49-4.64,5.34-4.99,2.27-11.1-.12-13.41-4.91-2.33,4.34-7.24,6.73-12.19,5.36-3.09-.85-6.07-3.93-6.17-7.16-.03-.91.61-3.95,1.59-4.21,1.79-.47.22,2.17.12,2.87-.33,2.28.31,4.1,2.08,5.6,3.25,2.75,8.35,2.19,11.35-.67,3.76-3.59,2.19-9.28,2.51-13.89.46.02.95.02,1.4,0h0Z"/>
    <path class="st13" d="M311.48,643.84c15.75-2.22,15.61,21.44.28,19.37-11.04-1.49-10.86-17.88-.28-19.37Z"/>
    <path class="st13" d="M364.44,643.84c11.75-1.67,16.52,12.69,7.05,18.19-6.23,3.62-14.28-.5-15.03-7.47-.51-4.76,2.96-10,7.98-10.71h0Z"/>
    <path class="st73" d="M311.47,645.48c9.85-1.63,13.96,10.27,6.33,15.01-6.83,4.24-15.28-3.11-12-10.4.84-1.88,3.57-4.26,5.67-4.61Z"/>
    <path class="st73" d="M364.72,645.49c13.19-1.88,13.06,17.26.77,16.14-9.54-.87-9.55-14.89-.77-16.14h0Z"/>
    <path class="st77" d="M310.07,647.93c2.27-.34,2.59,3.76-.28,2.92-1.54-.45-1.22-2.7.28-2.92Z"/>
    <path class="st86" d="M306.85,653.86c-1.08-1.07.74-2.35,1.49-1.32.61.84-.58,2.22-1.49,1.32Z"/>
    <path class="st36" d="M363.29,647.95c1.61-.14,2.24,2.69.5,2.97-2.59.42-2.41-2.8-.5-2.97Z"/>
    <path class="st77" d="M361.39,653.9c-.62.96-2.71-.56-1.39-1.5,1.01-.72,1.88.72,1.39,1.5Z"/>
    <g>
      <path class="st71" d="M401.55,617.91c11.38-.91,15.78,14.79,5.68,20.01.38,1.57.83,2.95.8,4.58,0,.5-.37,2.16-.26,2.39.06.14,1.91,1.44,2.35,1.91,4.52,4.88,3.98,12.9-1.72,16.17,1,1.95,1.22,4.1,1.44,6.23,6.97,1.04,10.9,9.13,7.65,15.43-1.44,2.8-4.48,5.07-7.59,5.32,1.97,8.23-5.05,15.17-13.09,12.56-.66-.21-1.99-1.14-2.52-.89-.3.14-2.14,2.83-2.49,3.35-2.05,2.99-5.4,10.06-8.82,11.1-1.96.6-3.95-.58-5.3-2-9.4-9.86,9.07-11.77,14.24-15.2-.85-.92-1.3-2.14-1.72-3.32-.34-.71.32-1.07.15-.26,3.28,5.28,11.39,5.64,13.69-.44,2.61-6.91-4.92-13.32-11.13-9.39l-.32-.44c1.55-1.6,3.65-2.72,5.79-3.22.04-.18.11-.45.25-.45,1.32-.07,4.22.59,5.47,1.11l.15.52.5-.21c1.35.8,2.56,1.86,3.54,3.1,9.98-4.51,2.21-19.03-7.07-13.26-1.31-.29-.34-1.37.41-1.83,2.42-1.19,3.01-2.07,2.57-4.95-.77-5.16-5.03-7.83-9.85-6.67l-.48-.28c-.98-1.54-1.24-3.19-1.3-4.97l.24-.02c.52,1.43,1.26,2.65,2.21,3.68,3.36-.77,6.91-1.16,9.93,1.2,6.37-5.64.84-15.68-7.3-13.38-1.55-.8,1.02-1.68,1.93-1.81,2.55-.21,3.9-.51,3.81-3.43-.14-4.58-2.63-7.88-7.24-8.22-1.12-1.57,2.66-1.01,3.51-.84,1.54.31,2.74.92,4,1.83,7.01-2.57,5.68-12.96-1.72-14.51l-.4-.51h.01s0,0,0,0Z"/>
      <path class="st3" d="M388.16,637.83c.08-.24.14-.49.24-.72.59-.16.88.4.87,1.67,4.33,7.32,11.28-3.66,2.96-4.67-1.87.47-2.26.26-.58-1.07.44-.35.95-.61,1.45-.85-.01-.07-.04-.14-.05-.2.08-.48.56-.75,1.42-.8-1.27-2.11-2.04-4.24-1.47-6.7.12-.35.23-.65.39-.98.57.24.87.92.93,2.02,4.11,6.52,10.75-3.07,3.29-4.98-1.36.2-3.18.3-1.1-1.04.87-.63,2.11-1.26,3.18-1.33.71-.21,1.12-.37,1.86-.25,6.26,1.05,9.39,8.21,5.38,13.3-.53.67-2.46,2.32-3.26,2.17-.39-.08-1.4-.94-1.92-1.17-1.65-.76-3.89-1.12-5.65-.79.31.32,1,.13,1.49.24,4.09,1,6.72,4.99,6.16,9.23-.15,1.16-.4,2.43-1.58,2.69-1.65.36-3.36.26-4.86,1.43l2.52-.36c7.74-.25,11.41,9.92,5.16,14.5-2.04-1.28-4.54-2.07-6.92-1.73-2.38.34-3.17,1.73-4.51-1.13-.38-.82-.43-1.72-.97-2.37,0-.25.04-.46.04-.67.53-.09.92.39,1.18,1.44,1.44,2.05,4.73,1.61,5.81-.5,2.11-4.12-3.79-7.38-6.14-3.71l-.51.03c-.82.04-.35-.91-.08-1.46l.91-1.62c-4.05-1.14-6.54-5.53-5.63-9.62h0s0-.02,0-.02Z"/>
      <path class="st3" d="M389.3,667.55c.4-.26.76.06,1.09.96,6.22,5.4,9.44-7.2,1.23-5.5-1.62.87-2.03.87-1.07-.94.3-.58.73-1.1,1.21-1.54.39-.44,1.62-1.43,2.13-1.64,3-1.21,7.31.09,9.26,2.91,1.28,1.85,2.19,5.67,1.1,7.72-.41.77-3.07,1.52-3.41,2.85,10.1-6.46,18.31,9.54,7.33,14.02-.93-1.27-2.54-2.71-3.91-3.4l-.05-.54c3.73-3.72-2.47-9.03-5.41-4.62-.06.87-.9,1.42-.94.36-.18-.09-.32-.22-.41-.4-.19-.4.61-2.4.85-2.9-4.22.39-9.11-2.46-9-7.35h0v.02Z"/>
      <path class="st3" d="M390.35,695.32l.43-.21c1.83,2.4,6.14,1.12,6.2-1.87.08-4.25-5.03-5.57-6.82-1.87-.23.12-.42.07-.56-.15-.13-.2.71-2.96.93-3.44.58-.99,1.27-1.91,2.07-2.73.55.16,1.04-.45,1.64-.64,11.3-3.63,15.38,13.93,3.63,15.4-2.93.37-6.34-1.69-7.51-4.49h0s0,0,0,0Z"/>
      <path class="st78" d="M390.52,687.76l-.79,3.51c1.89-4.07,7.37-2.98,7.66,1.67.18,2.98-3.44,4.82-5.93,3.3-.36-.22-.66-.65-1.1-.94-.02-.01-.04-.25-.25-.16l.11.42c-1-2.81-1.22-5.16.31-7.81h0s0,0,0,0Z"/>
      <path class="st78" d="M391.75,660.54c-.61.69-1.19,1.98-1.61,2.83,1.76-1.4,4.58-1.56,6,.48,3.15,4.48-2.96,8.97-6.17,4.8-.28-.36-.27-.92-.67-1.1,0,.2-.08.21-.2.05-.05-2.46.5-5.65,2.64-7.07h0s0,0,0,0Z"/>
      <path class="st78" d="M393.39,623.5c1.21-2.71,2.36-4.18,5.18-5.25.32-.12.83-.39,1.12-.09-1.57.46-2.79,1.28-4.14,2.15l1.92-.21c5.14.49,5.29,7.88-.11,8.04-1.1.04-2.84-1-3.29-2.07-.35-.82-.34-1.78-.68-2.57h0s0,0,0,0Z"/>
      <path class="st78" d="M388.4,637.11c.89-2.1,2.36-4.44,4.7-4.93l-2.48,1.95c3.27-1.64,6.87,1.4,5.66,4.96-1.16,3.43-6.13,3.33-7.36-.03-.26-.71,0-1.48-.52-1.94h0s0,0,0,0Z"/>
      <path class="st78" d="M392.68,651.04c-.46-.4-.28-.62.29-.52,2.33-4.34,9.22-1.14,7.07,3.74-1.13,2.59-5.21,3.02-6.68.53-.31-.53-.31-1.19-.76-1.53,0-.48-.02-1.89.06-2.22h0s0,0,0,0Z"/>
      <path class="st78" d="M397.66,678.25c.02-.19.09-.21.2-.05.03,0,.31.29.44.1.03-.04-.03-.44.14-.69,3.43-5.1,10.46,1.36,5.8,5.39-.98-.49-4.97-1.38-5.87-1.18l-.72-3.57h0s0,0,0,0Z"/>
      <path class="st71" d="M388.16,637.83l.21,2.48c.47,3.24,2.67,6.12,5.85,6.81.41.37-1.64,2.58-1.25,3.4-.07.13-.29.49-.29.52-4.52-3.14-6.34-7.98-4.53-13.21h0Z"/>
      <path class="st71" d="M389.1,667.6l.2-.05c.64,4.75,5.45,7.95,9.84,6.58-.62,1.27-1.33,2.57-1.29,4.07-.07,0-.14.06-.2.05-5.03-.79-8.46-5.61-8.56-10.64h0s0,0,0,0Z"/>
      <path class="st9" d="M393,624.47l.22,2.48c.28,1.74,1,3.06,2.02,4.46l-2.21.55c-.09-.75-.49-1.59-.62-2.37-.3-1.94-.04-3.35.58-5.12h0s0,0,0,0Z"/>
    </g>
  </g>
</svg>