<?xml version="1.0" encoding="UTF-8"?>
<svg id="Layer_1" xmlns="http://www.w3.org/2000/svg" version="1.1" viewBox="0 0 384 384">
  <!-- Generator: Adobe Illustrator 29.6.1, SVG Export Plug-In . SVG Version: 2.1.1 Build 9)  -->
  <defs>
    <style>
      .st0 {
        fill: #328cc8;
      }

      .st1 {
        fill: #d3d3d3;
      }

      .st2 {
        fill: #418fee;
      }

      .st3 {
        fill: #ddd;
      }

      .st4 {
        fill: #3b83d8;
      }

      .st5 {
        fill: #a8a8a8;
      }

      .st6 {
        fill: #a9a9a9;
      }

      .st7 {
        fill: #3799dc;
      }

      .st8 {
        fill: #f3f3f3;
      }

      .st9 {
        fill: #e8e8e8;
      }
    </style>
  </defs>
  <path class="st8" d="M342,118.5l-.46,1.67-27.56,7.14c-3.03,4.15-.39,6.52,4.2,5.41l31.11-8.67,3.97.45c2.88,1.01,6.29,1.2,9.39,2.24,9.22,3.09,16.78,7.65,21.36,16.51v.75l-.51,1.69-113.9,30.13c-2.29,3.11-4.27,6.41-5.96,9.93l-2.64,1.75c-.38,5.28-3.87,11.32-8.25,14.25-8.89,14.69-17.96,30.51-27.44,44.94-14.83,22.56-28.31,28.8-52.81,38.31-2.33.04-1.09-4.58-.45-6.25l56.92-97.91c-7.06,1.93-14.15,3.77-21.29,5.53l-3.77,6.37c-1,1.22-1.87,1.25-2.92,0l.11.92c-20.12,6.35-41.56,12.31-62.4,17.52-5.99,1.5-11.84,2.86-17.96,3.31-.95,2-2.1,1.99-3,0-5.78,3.42-39.67-4.79-40.39-7.78l.64-1.97-.87-1.54c5.05-6.92,1.85-8.52-9.61-4.8l-1.52-1.16c-3.4,1.08-6.43-.1-9.1-3.55-13.58-15.03-26.24-30.84-37.99-47.43-2.5-2.66-4.55-5.42-6.17-8.27,8.37-2.41,19.78-8.41,27.37-2.25l35.96,33.79,2.26.76c26.64-7.28,53.42-14.04,80.06-21.27,2.71-.73,5.45-1.55,8.12-2.42,1.22-.4,2.65.13,2.22-1.87,8.12-2.18,16.34-4.2,24.66-6.06l.84.81,2.18-2.14,28.31-8.91c3.14-1.1,5.98-1.91,9.26-.95,20.55-4.76,41.84-11.12,62.68-15.69,20.33-4.46,27.43-2.12,45.32,6.69Z"/>
  <path class="st7" d="M384,144v6h-.75c-6.79,6.24-15.21,10.53-25.24,12.88l-95.73,25.83-1.28-1.21c1.32-2.19,6.28-12.31,7.69-12.99l115.31-30.51Z"/>
  <path class="st3" d="M12.75,138c2.28.57,4.45,3.78,5.98,5.65,10.46,12.8,31.6,44.23,43.48,52.52,1.33.93,2.07,1.39,3.79,1.08-.36,2.33-4.24,4.01-6,2.25-2.24,2.33-9.41,4.14-12.9,4.64l-1.35-.89L0,145.5v-3c3.38-3.48,8.51-3.28,12.75-4.5Z"/>
  <path class="st3" d="M201,192.75c3.23-.42,4.11-6.83,6.17-7.75,6.92-.91,13.95-4.26,20.63-5.57,1.04-.2,3.74-.89,3.18.93l-57.91,99.6-.58,5.04c-3.92,1.52-17.64,7.3-20.62,7.54-4.15.33-4.55-.91-4.1-4.88,11.94-22.47,25.93-43.85,38.05-66.21.7-1.3,1.86-1.91-.58-1.71.29-1.7,1.27-3.46,2.96-5.28,1.61-4.14,3.87-7.38,6.79-9.72l-.39-2.25,6.39-9.75Z"/>
  <path class="st0" d="M383.25,150c-3.29,15.05-21.17,21.94-34.34,26.04l-96.16,25.71c2.77-4.58,5.43-9.57,8.25-14.25l96.57-26.05c6.66-2.1,13.04-4.45,19.15-7.85,2.02-1.12,4.66-4.35,6.52-3.6Z"/>
  <path class="st0" d="M195,204.75c-2.03,3.53-6.19,13.91-9.75,15-9.49,2.9-26.3,5.28-36.48,6.64-21.34,2.85-45.31,4.18-66.27-1.39,10-6.63,23.54-8.71,35.25-10.5.89-.15,2.03.07,3,0,22.18-2.1,45.11-5.93,67.59-9.79,2.2-.38,4.45-.2,6.66.04Z"/>
  <path class="st2" d="M78,204.75c.02,5.22-4.62,12.94-9,15.75-6.42,11.19-10.86,23.14-23.25,27.75-2.56.8-3.8-2.57-3.4-4.86l15.57-42.58,2.08-1.31c1.72-.48,4.32-1.84,6-2.25,3.07-.75,11.05-3.08,13.5-1.87,3.42,1.69-.23,6.94-1.5,9.37Z"/>
  <path class="st4" d="M60,199.5l-16.19,44.23c-.52,1.82,1.13,3.09,1.94,4.52-3.45,1.28-15.68,6.69-16.31.27l16.31-45.27c1.03-1.29,11.83-3.07,14.25-3.75Z"/>
  <path class="st3" d="M78,204.75c-.44,1.98,1.04,1.43,2.18,1.9,12.4,5.14,24.21,6.95,37.57,7.85-.25.04-1.24.93-2.2,1.14-11.06,2.41-22.39,5.75-33.05,9.36-4.63-1.23-8.84-3.47-13.5-4.5,2.9-5.06,6.36-10.68,9-15.75Z"/>
  <path class="st9" d="M234,127.5c-12.03,2.79-26.99,8.67-39.75,12-1.4-.1-2.74-.77-4.03-2.03l-67.64-38.87c-1.45-1.66-1.57-3.03-.33-4.1,8.83-1.29,17.76-3.43,26.75-3.47,31.59-.12,57.68,23.65,85,36.47Z"/>
  <path class="st1" d="M122.25,94.5l1.3,3.03c21.33,12.38,42.92,24.36,64.18,36.87,1.94,1.14,6.15,2.87,6.52,5.1-6.23,1.62-16.6,5.08-22.34,5.86-1.2.16-2.15.11-3.16-.61-21.51-13.46-45.77-24.69-66.98-38.4-2.86-1.85-8.8-6.44-2.22-8.67,5.54-1.87,16.41-2.26,22.69-3.18Z"/>
  <path class="st5" d="M342,118.5c3.71,1.83,7.41,4.66,11.25,6l-34.3,9.57c-6.62,1.92-10.38-2.85-5.74-7.99l28.79-7.58Z"/>
  <path class="st7" d="M201,192.75c1.46.41.05,2.31-.35,3.02-1.69,3.06-3.99,6.08-5.65,8.98-21.11,4.94-42.49,8.05-64.13,9.74-3.34.26-6.78-.23-10.12,0l80.25-21.75Z"/>
  <path class="st5" d="M275.72,135.94c5.78-.64,6.42,8.63,1.24,9.42-6.74,1.03-7.17-8.76-1.24-9.42Z"/>
  <path class="st6" d="M194.79,157.62c5.96-.93,6.64,9.57.58,9.58-5.21,0-6.91-8.59-.58-9.58Z"/>
  <path class="st5" d="M225.57,151.68c3.49,3.49-1.42,11.33-6.54,6.92s2.51-10.95,6.54-6.92Z"/>
  <path class="st5" d="M248.06,143.37c6.02-1.15,7.45,7.3,2.66,8.73-6.94,2.07-8.39-7.63-2.66-8.73Z"/>
  <path class="st5" d="M167.05,165.13c6.26-1.31,7.29,7.34,2.66,8.71-6.63,1.97-8.46-7.5-2.66-8.71Z"/>
  <path class="st6" d="M139.27,172.65c7.75-2.38,8.38,7.62,2.67,8.74-4.88.96-7.42-7.28-2.67-8.74Z"/>
</svg>