<?xml version="1.0" encoding="UTF-8"?>
<svg id="Layer_1" xmlns="http://www.w3.org/2000/svg" version="1.1" viewBox="0 0 1024 1024">
  <!-- Generator: Adobe Illustrator 29.6.0, SVG Export Plug-In . SVG Version: 2.1.1 Build 207)  -->
  <defs>
    <style>
      .st0 {
        fill: #60656b;
      }

      .st1 {
        fill: #fe3e04;
      }

      .st2 {
        fill: #fe9d8c;
      }

      .st3 {
        fill: #737f88;
      }

      .st4 {
        fill: #fe8573;
      }
    </style>
  </defs>
  <path class="st1" d="M507.63,390.92c-26.05-3.61-53.69-21.12-70.93-37.71-66.49-63.97-79.15-178.27-2.62-240.38,45.74-37.12,123.48-38.69,170.87-3.02,81.56,61.39,70.05,179.28,1.07,244.52-16.84,15.92-45.32,33.12-70.28,36.58l-.83,1.24c-8.76.81-17.7.81-26.45,0l-.83-1.24Z"/>
  <path class="st0" d="M514.16,423.24c4.85-3.3,9.85-4.1,14.82-1.7-.24,4.01-.18,8.99.21,13.65-.11,6.4-3.44,24.79-4.26,32.85-3.8,37.13-6.67,72.28,1.18,107.92,6.29,28.57,15.36,47.74,16.8,82.62,3.2,77.62-20.1,111.83-22.79,180.97-.97,24.93,1.51,57.62,5.68,80.76,1.3,7.18,6.59,24.7,6.7,29.62.36,16.54-7.03,25.63-12.49,13.49-10.72-23.86-15.33-91.24-14.34-124.04,1.67-55.89,12.47-77.1,19.91-123.31,10.78-66.91-3.91-82.28-14.16-134.92-6.94-35.65-5.07-80.89-1.16-118.09,1.41-13.36,4.74-25.62,3.89-39.81Z"/>
  <path class="st3" d="M535.73,390.92c2.53,5.56,15.31,18.95,14.74,24.23-.97,9.07-13.96,5.48-21.28,6.16v4.51c.02-.48-1.39-3.2-.65-4.51-4.79,0-9.6.02-14.38,0s-16.41,1.03-19.41-1.86c-3.63-3.49-1.91-6.51.11-9.98,3.63-6.22,9.11-12.27,12.76-18.56,6.82.94,21.29.95,28.11,0Z"/>
  <path class="st4" d="M454.68,134.8l.15.8c7.33-5.76,28.41-19.23,37.76-11.24,4.78,4.09,2,12.82-3.72,15.48-8.8,3.68-18.66,8.88-25.43,15.06-1.37,1.25-4.71,4.42-2.86,4.1-1.58,3.11-4.74,5.64-6.78,8.52-4.47,6.31-7.68,13.33-10.39,20.32-2.94,7.57-3.09,18.53-16.45,16.72-7.33-.99-7.93-6.93-7.55-12.06,1.27-17.17,14.1-39.19,27.43-51.81,2.12-2.01,5.04-4.79,7.86-5.9Z"/>
  <path class="st2" d="M495.21,126.36c1.78,4.02.57,8.57-2.61,11.82-.79.7-2.3,1.65-3.27,2.25-2.54.92-4.94,2.05-7.19,3.38-4.76,2.35-8.97,4.71-13.07,7.88-2.82,1.64-5.26,3.78-7.19,6.19-.42.38-.87.73-1.31,1.13-3.07,2.79-6.38,6.3-8.74,9.65-.54.76-5.21,9.42-5.64,8.93,5.78-14.48,18.16-26.15,33.13-34.23,2.64-1.43,6.16-2.45,8.62-3.83,12.54-7.06,6.26-20.84-9.72-15.69-17.49,5.64-33.33,19.16-42.51,32.92-1.24.1-.59-1.14-.3-1.66,3.4-5.99,13.51-15.57,19.26-20.28,4.57-3.75,9.35-6.73,15.02-9.3,8.06-3.65,20.06-8.48,25.51.86Z"/>
  <path class="st4" d="M492.59,138.18c2.96-3.89,2.89-7.28,2.61-11.82.36.61,1.04.69,1.27,1.98.75,4.2-.65,6.99-3.89,9.84Z"/>
  <path class="st4" d="M469.06,151.69c-2.07,1.6-5.2,4.39-7.19,6.19,1.15-2.36,4.4-5.17,7.19-6.19Z"/>
  <path class="st4" d="M489.32,140.43c-2.91,1.8-4.53,2.06-7.19,3.38,1.58-1.74,4.77-2.68,7.19-3.38Z"/>
</svg>