<?xml version="1.0" encoding="UTF-8"?>
<svg id="Ebene_1" xmlns="http://www.w3.org/2000/svg" version="1.1" viewBox="0 0 1024 1024">
  <!-- Generator: Adobe Illustrator 29.5.1, SVG Export Plug-In . SVG Version: 2.1.0 Build 141)  -->
  <defs>
    <style>
      .st0 {
        fill: #5988b8;
      }

      .st1 {
        fill: #7d476b;
      }

      .st2 {
        fill: #d99cc5;
      }

      .st3 {
        fill: #7c476b;
      }

      .st4 {
        fill: #abbad8;
      }

      .st5 {
        fill: #dbdbe6;
      }

      .st6 {
        fill: #2c3c90;
      }

      .st7 {
        fill: #654128;
      }

      .st8 {
        fill: #bdbed2;
      }

      .st9 {
        fill: #8989c1;
      }

      .st10 {
        fill: #fcfcfd;
      }

      .st11 {
        fill: #422d1e;
      }

      .st12 {
        fill: #382617;
      }

      .st13 {
        fill: #fbfbfc;
      }

      .st14 {
        fill: #fefdfe;
      }

      .st15 {
        fill: #fefefe;
      }

      .st16 {
        fill: #d89bc5;
      }

      .st17 {
        fill: #fdfdfd;
      }

      .st18 {
        fill: #2c1d10;
      }

      .st19 {
        fill: #553621;
      }
    </style>
  </defs>
  <g>
    <path class="st11" d="M86.52,577.47c63.94,5.94,85.73,42.71,106.88,69.65.15,2.61,1.62,6.23,7.73,5.75,189.22-23.88,392.03-23.1,577.39-4.58,73.45,13.99,43.32-.61,77.74-33.36,22.69-29.78,96.5-52.87,141.43-22.12,54.05,29.65,14.01,153.74-23.76,186.57-86.92,75.54-687.28,87.2-916.56,9.96-38.29-12.9-44.2-38.88-37.83-65.88-12.03-47.31-61.89-139.12,66.97-145.99ZM957.73,610.83c-31.32-21.62-79.28,40.33-82.99,53.77,29.01,4.49,70.04,18.93,90.52,25.43,5.53-23.69,22.3-58.64-7.53-79.19ZM99.48,612c-65.82-24.82-48.31,55.03-42.1,74.32,83.16-31.26,125.33-14.07,42.1-74.32ZM484.66,658.4c-92.95-5.55-568.55,29.68-346.62,98.6,93.91,44.7,1027.12,45.81,733.01-65.53-109.17-27.23-267.16-34.2-386.39-33.07Z"/>
    <path class="st7" d="M931.17,831.99c-1.72,1.61-2.26,3.51-3.24,5.27-13.78,3.99-26.6,8.89-40.3,12.98-6.19,1.84-12.99,4.16-19.08,5.75-14.12,3.7-30.44,6.98-45.34,9.95-94.08,18.77-199,27.44-299.04,28.68-15.91.2-32.68.2-48.58,0-94.82-1.21-192.16-9.25-282.85-24.58-15.87-2.68-32.07-5.45-47.5-8.78-24.93-5.37-48.91-12.27-72.33-19.31-.17-.25-1.44-.82-1.94-1.56-.96-1.41-.52-3.57-3.46-3.13-.12-.36.08-.79,0-1.17v-.59c.01-3.34-3.44-6.33-5.4-9.36-1.46-3.84-2.3-7.9-3.77-11.71-.48-1.26-2.96-2.71-1.63-3.5h1.08c40.62,13.76,76.47,22.17,122.24,30,13.62,2.33,44.81,8.22,57.51,8.63.7.02,1.77.17,1.63-.31l-8.65-29.55c16.01,1.84,32.43,3.23,48.58,4.68l8.78,31.53c117.4,12.91,239.92,14.44,358.66,5.85,19.87-1.44,39.64-3.32,59.34-5.29l1.61-.88c4.47-10.13,10.62-20.15,12.07-30.62,15.54-1.25,30.93-2.45,46.42-4.1-.12,9.91-4.9,19.62-8.63,29.26,65.25-9.42,130.55-21.54,184.07-44.47,1.2.2.4,1.35.25,1.89-2.04,7.5-7.22,16.81-10.52,24.44Z"/>
    <path class="st7" d="M903.11,876.47c-8.13,10.99-17.83,21.78-28.07,32.19-58.72,20.41-123.22,33.56-191.08,42.14-16.17,2.04-32.22,3.71-48.58,5.27-89.95,8.57-181.92,8.85-272.05.59-15.68-1.44-31.97-3.36-47.5-5.27-56.12-6.9-114.75-18.08-165.2-33.05-5.28-1.57-17.91-4.98-21.89-6.7-1.01-.44-1.71-1.57-2.92-2.38-1.4-.94-1.93-1.24-3.24-2.34,1.81-.18-.22-1.88-.66-2.27-1.79-1.57-4.03-3.18-5.81-4.75-1.52-1.64-3.35-3.52-4.88-5.26-5.22-5.95-10.37-12-14.55-18.15.48.33.79.68,1.44.95,18.7,7.6,46.25,14.82,67.65,20.12,16.94,4.19,33.27,7.64,50.74,11.12,84.83,16.89,170.53,25.64,261.26,26.92,14.45.2,29.8.18,44.26,0,94.58-1.21,186.12-11.79,273.13-31.02,19.02-4.2,34.53-7.72,52.9-12.88,19.81-5.56,39.52-11.28,57.22-18.73-.81,1.12-1.33,2.39-2.16,3.51Z"/>
    <path class="st7" d="M821.06,953.72c-4.54,2.97-9.2,5.94-14.03,8.78-1.3-.89-2.1.26-2.16,1.17-2.15,1.24-4.31,2.32-6.48,3.51-1.39.76-2.91,1.6-4.32,2.34-1.83.97-3.48,1.95-5.4,2.93-1.67.03-3.8.46-2.16,1.17-22.31,11.14-43.23,20.18-71.25,27.51-7.52,1.97-15.28,3.74-22.67,5.85-27.77,6.06-55.41,9.01-84.77,11.69-1.89.17-4.07-.26-4.83,1.18-2.14.09-4.34-.08-6.48,0-15.04.59-30.26.91-45.34,1.17-32.12.56-64.04.23-96.08-.59-5.34-.13-10.89.22-16.19,0-22.97-.94-47.49-3.15-70.17-5.85-6.46-.77-14.32-1.41-20.51-2.34-23.62-3.54-47.32-9.2-69.09-15.22s-41.05-13.83-59.38-22.82l1.06-.29c-1.14-.78-2.35-1.43-4.3-1.47-.37-.19-.71-.4-1.08-.59.37-1.12-.11-1.36-2.16-1.17-2.26-1.17-4.29-2.32-6.48-3.51l-1.08-.59c-1.08-.59-2.15-1.15-3.24-1.76.12-.81-.79-2.07-2.16-1.17-2.62-1.49-4.53-2.94-6.48-4.1l-3.24-1.76c-.34-.2-.74-.38-1.08-.59l.55-1.18c46.06,13.4,94.32,21.83,145.19,28.1,16.6,2.05,32.82,3.81,49.66,5.27,78.33,6.8,151.57,6.77,229.95.59,16.43-1.3,32.37-2.73,48.58-4.68,58.49-7.05,102.9-16.7,155.16-32.06,1.87-.55,2.74-1.45,2.45.45Z"/>
    <path class="st12" d="M875.04,908.66l1.08.59c-15.83,15.8-33.92,30.64-55.06,44.48.29-1.91-.59-1-2.45-.45-52.27,15.36-96.68,25-155.16,32.06,7.77-11.31,18.1-22.32,20.51-34.53,67.87-8.58,132.36-21.73,191.08-42.14Z"/>
    <path class="st12" d="M125.82,909.24c1.21.81,1.9,1.94,2.92,2.38,3.98,1.72,16.61,5.14,21.89,6.7,50.45,14.97,109.08,26.16,165.2,33.05,2.16,11.55,11.6,22.15,19.43,32.77-50.87-6.27-99.13-14.7-145.19-28.1l-.55,1.18c-24.17-14.69-47.09-30.4-63.69-47.99Z"/>
    <path class="st12" d="M951.69,781.07c-3.46,7.08-4.84,15.31-8.44,22.62-.26.52-.66.77-1.68.82l2.56.55c-4.01,9.19-7.22,18.59-12.95,27.51.08-.18-.08-.4,0-.59,3.3-7.63,8.48-16.94,10.52-24.44.15-.54.94-1.69-.25-1.89-53.52,22.93-118.82,35.06-184.07,44.47,3.73-9.64,8.51-19.35,8.63-29.26,58.55-6.22,116.93-15.38,167.24-33.12,6.13-2.16,11.71-5.08,18.44-6.68Z"/>
    <path class="st11" d="M551.17,1021.03v1.17c-31.66.51-64.58.31-96.08-.59v-1.17c32.04.81,63.96,1.14,96.08.59Z"/>
    <path class="st18" d="M931.17,832.57c-6.64,15.43-15.98,29.25-26.99,43.89h-1.08c.83-1.12,1.35-2.39,2.16-3.51,8.45-11.7,15.95-23.63,22.67-35.7.98-1.76,1.52-3.66,3.24-5.27-.08.18.08.4,0,.59Z"/>
    <path class="st18" d="M67.52,837.26c2.94-.44,2.5,1.72,3.46,3.13.5.74,1.77,1.31,1.94,1.56.32.48-.06,1.55.46,2.36,6.91,10.65,15.57,20.9,22.21,31.59h-1.08c-8.5-10.66-23.21-27.58-26.99-38.63Z"/>
    <path class="st11" d="M438.89,1020.44v.59c-24.54-1.02-46.45-3.01-70.17-5.85v-.59c22.68,2.7,47.2,4.91,70.17,5.85Z"/>
    <path class="st18" d="M814.48,648.75"/>
    <path class="st18" d="M815.56,649.92"/>
    <path class="st18" d="M958.16,776.39c-5.75,4.33-11.2,22.19-14.03,28.68l-2.56-.55c1.02-.05,1.42-.3,1.68-.82,3.6-7.31,4.98-15.54,8.44-22.62.95-1.94,2-4.33,6.48-4.68Z"/>
    <path class="st11" d="M693.67,1006.98c-28.87,6.58-59.09,11.57-90.68,12.88.76-1.44,2.95-1.01,4.83-1.18,29.35-2.68,57-5.63,84.77-11.69h1.08Z"/>
    <path class="st12" d="M596.51,1019.85c-4.71,1.58-10.61.93-15.7,1.15-1.38.06-2.83.61-3.19.61h-16.19c-2.11,0-6.87.53-10.26.59v-1.17c15.09-.26,30.3-.58,45.34-1.17Z"/>
    <path class="st11" d="M55.64,810.34c.39.03.84-.06,1.08,0v.59c-1.32.79,1.15,2.25,1.63,3.5,1.47,3.81,2.31,7.87,3.77,11.71-3.29-5.1-6.3-10.46-8.64-15.8.71.03,1.46-.05,2.16,0Z"/>
    <path class="st11" d="M348.21,1012.25v.59c-23.71-3.57-48.71-8.35-69.09-15.8,21.78,6.02,45.47,11.68,69.09,15.22Z"/>
    <path class="st11" d="M904.19,876.47c-8.62,11.47-17.14,21.87-28.07,32.77l-1.08-.59c10.24-10.41,19.94-21.19,28.07-32.19h1.08Z"/>
    <path class="st12" d="M368.72,1014.59v.59c-6.97-.83-13.14-1.23-20.51-2.34v-.59c6.19.93,14.05,1.57,20.51,2.34Z"/>
    <path class="st12" d="M67.52,835.5v.59c-4.03-2.72-4.17-6.72-5.4-9.95,1.96,3.03,5.41,6.02,5.4,9.36Z"/>
    <path class="st18" d="M455.08,1020.44v1.17c-5.38-.15-10.82-.36-16.19-.59v-.59c5.3.22,10.86-.13,16.19,0Z"/>
    <path class="st11" d="M96.67,876.47c4.19,6.15,9.33,12.21,14.55,18.15,1.53,1.74,3.36,3.61,4.88,5.26-8.64-7.61-14.98-15.7-21.59-24h1.08c.64.06.76.36,1.08.59Z"/>
    <path class="st12" d="M715.26,1001.13l-9.29,3.45c-3.95.84-8.43,1.52-12.3,2.4h-1.08c7.39-2.11,15.15-3.89,22.67-5.85Z"/>
    <path class="st12" d="M122.58,906.9c-2.8-2.37-4.37-4.74-6.48-7.02,1.78,1.57,4.02,3.17,5.81,4.75.45.39,2.47,2.1.66,2.27Z"/>
    <path class="st12" d="M219.74,974.21c-1.14-.56-2.14-1.2-3.24-1.76,1.95.03,3.16.69,4.3,1.47l-1.06.29Z"/>
    <path class="st12" d="M213.26,970.69c2.05-.19,2.53.05,2.16,1.17-.77-.39-1.43-.79-2.16-1.17Z"/>
    <path class="st12" d="M202.46,964.84c-.71-.4-1.46-.77-2.16-1.17,1.37-.9,2.28.36,2.16,1.17Z"/>
    <path class="st12" d="M788.67,972.45c-.74.38-1.41.8-2.16,1.17-1.64-.71.49-1.14,2.16-1.17Z"/>
    <path class="st12" d="M807.02,962.5c-.69.4-1.46.77-2.16,1.17.06-.91.86-2.06,2.16-1.17Z"/>
    <path class="st12" d="M193.83,959.57c-.91-.54-2.07-1.05-3.24-1.76l3.24,1.76Z"/>
    <path class="st12" d="M206.78,967.18c-.36-.2-.72-.39-1.08-.59l1.08.59Z"/>
    <path class="st12" d="M794.07,969.52c1.41-.74,2.93-1.58,4.32-2.34l-4.32,2.34Z"/>
    <path class="st18" d="M475.15,656.33c119.24-1.12,286.77,7.9,395.91,35.14,44.95,11.22,108.91,38.62,38.28,61.07-89.28,28.37-237.17,34.58-339.68,34.36-233.27-.49-301.28,1.98-430.7-26.22-55.7-12.13-104.21-34.91-34.07-60.49,93.36-34.05,259.48-42.82,370.26-43.86Z"/>
    <path class="st12" d="M719.58,824.97c-1.45,10.47-7.6,20.49-12.07,30.62l-1.61.88c-19.7,1.97-39.47,3.85-59.34,5.29-118.74,8.6-241.26,7.06-358.66-5.85l-8.78-31.53c143.75,12.97,296.52,12.16,440.46.59Z"/>
    <path class="st12" d="M172,811.92c19.1,2.94,39.12,5.54,58.53,7.77l8.65,29.55c.13.48-.93.33-1.63.31-12.69-.42-43.89-6.3-57.51-8.63-45.78-7.83-81.63-16.24-122.24-30-.32-.11-.59-.46-1.08-.59-.23-.06-.69.03-1.08,0-3.53-8.75-6.83-17.51-9.72-26.34"/>
    <path class="st12" d="M795.15,904.56c-87.01,19.23-178.55,29.81-273.13,31.02l2.16-40.97c100.04-1.23,204.96-9.9,299.04-28.68l-28.07,38.63Z"/>
    <path class="st12" d="M475.6,894.61c.23,3.21-.3,6.47-.04,9.68.06.77,1.12,1.52,1.12,1.73v22.82c0,.19,1,.98,1.12,1.73.26,1.65-.23,3.35-.04,5-90.73-1.28-176.42-10.03-261.26-26.92l-23.75-38.63c90.68,15.33,188.02,23.37,282.85,24.58Z"/>
    <path class="st12" d="M145.25,861.25c5.01,12.37,11.79,24.57,20.51,36.29-21.4-5.3-48.95-12.52-67.65-20.12-.66-.27-.97-.62-1.44-.95-.32-.22-.44-.53-1.08-.59-6.64-10.69-15.29-20.94-22.21-31.59-.53-.81-.14-1.88-.46-2.36,23.42,7.04,47.4,13.94,72.33,19.31Z"/>
    <path class="st19" d="M524.18,894.61l-2.16,40.97c-14.46.18-29.81.2-44.26,0-.19-1.65.29-3.35.04-5-.12-.75-1.12-1.54-1.12-1.73v-22.82c0-.21-1.06-.97-1.12-1.73-.26-3.21.27-6.47.04-9.68,15.9.2,32.67.2,48.58,0Z"/>
    <path class="st12" d="M927.94,837.26c-6.72,12.07-14.22,24-22.67,35.7-17.7,7.45-37.41,13.17-57.22,18.73l20.51-35.7c6.09-1.59,12.89-3.91,19.08-5.75,13.7-4.08,26.52-8.99,40.3-12.98Z"/>
    <path class="st19" d="M192.75,870.03l23.75,38.63c-17.47-3.48-33.8-6.93-50.74-11.12-8.72-11.72-15.5-23.92-20.51-36.29,15.44,3.33,31.64,6.1,47.5,8.78Z"/>
    <path class="st19" d="M868.56,855.98l-20.51,35.7c-18.37,5.16-33.88,8.67-52.9,12.88l28.07-38.63c14.9-2.97,31.22-6.25,45.34-9.95Z"/>
    <path class="st18" d="M57.8,810.92h-1.08v-.59c.49.12.76.48,1.08.59Z"/>
    <path class="st18" d="M67.52,836.09v-.59.59Z"/>
    <path class="st12" d="M635.37,956.06l-20.51,33.94c-78.38,6.19-151.62,6.21-229.95-.59l-21.59-32.77c90.13,8.27,182.1,7.98,272.05-.59Z"/>
    <path class="st19" d="M683.95,950.8c-2.41,12.21-12.74,23.22-20.51,34.53-16.21,1.95-32.15,3.38-48.58,4.68l20.51-33.94c16.36-1.56,32.41-3.22,48.58-5.27Z"/>
    <path class="st19" d="M363.32,956.65l21.59,32.77c-16.84-1.46-33.06-3.22-49.66-5.27-7.83-10.62-17.27-21.23-19.43-32.77,15.53,1.91,31.82,3.83,47.5,5.27Z"/>
  </g>
  <g>
    <path class="st6" d="M638.83,608.65l-5.37,10.39-71.85,120.12h-155.37c-25.47-43.43-52.3-86.17-77.04-130,23.43-38.28,45.2-77.6,68.88-115.73,2.25-3.62,5.83-10.74,8.78-13.16l6.37-1.5,147.58.35c1.11-.06,1.97.36,2.61,1.22l74.63,124.01.77,4.31Z"/>
    <polygon class="st1" points="638.83 608.65 561.79 480.63 406.88 480.26 490.01 437.89 596.37 438.1 649.69 531.71 638.83 608.65"/>
    <path class="st15" d="M515.39,615.49l85.7.38-26.33,42.91-62.51-34.17c-1.52-1.79.84-8.53,3.15-9.12Z"/>
    <path class="st15" d="M515.39,599.53l60.89-37.27,26.38,43.73-86.49.37c-2.44-.02-2.87-5.94-.79-6.84Z"/>
    <path class="st15" d="M538.97,508.37c.47.4-3.22,6.37-3.8,7.35-12.43,21.01-25.96,41.45-38.31,62.51-1.91,3.15-5.11-.59-8.22.03v-69.89h50.32Z"/>
    <path class="st15" d="M504.38,585.1l42.47-70.65,1.19.74,23.18,38.75-60.55,37.24c-1.3,1.49-5.66-3-6.61-4.33l.32-1.75Z"/>
    <path class="st3" d="M438.33,615.49l1.79.45c.55.45,5.88,11.82,3.71,12.47-16.75,10.26-33.35,20.81-50.61,30.29l-26.44-42.83c23.79-.35,47.74-.83,71.55-.37Z"/>
    <path class="st15" d="M446.98,508.37c10.47-.06,20.98.04,31.45,0v69.13c0,.44-8.22,2.07-8.68.42-10.77-17.85-21.49-35.73-32.2-53.6l-.41-2.36c2.46-4.16,4.92-8.32,7.38-12.48l2.47-1.11Z"/>
    <path class="st1" d="M508.31,661.83c.14.22,1.03.56,1.44,1.24,9.61,15.71,18.61,31.8,28.44,47.38h-54.25c-.23-16.01.86-31.9,1.57-47.86.05-.6.21-1.48.66-1.54,2.03-.3,19.44-1.02,20.4-.68l1.74,1.46Z"/>
    <path class="st3" d="M422.6,579.78c5.17,6.53,10.19,17.18,12.88,25.17l-1.08,1.42c-23.05.12-46.14-.08-69.19,0l26.8-45.53c10.57,5.41,20.56,12.49,30.6,18.95Z"/>
    <path class="st3" d="M453.27,648.92c-.3.5-.35,1.59-.9,2.51-10.53,17.54-21.46,34.93-32.51,52.17l-21.53-35.46c-.12-1.34,4.11-3.46,5.47-4.35,14.12-9.19,30.1-18.55,44.75-27.03l1.78.27c1.59,2.45,3.95,9.16,2.93,11.89Z"/>
    <path class="st1" d="M458.77,659.55c1.5-.19,1.9.47,1.98,1.72l13.75-.3.78,1.62c-.36,12.86.04,26.38-.75,39.16-.18,2.86-1.35,5.68-.82,8.71h-45.61c-.08-1.51,1.03-2.74,1.74-4.02,8.64-15.64,19.42-31.6,28.93-46.88Z"/>
    <path class="st3" d="M558.63,661.07c2.94,1.61,7.52,2.92,10.05,5.07.41.35,1.33.19.98,1.33l-22.05,38.42c-1.83.38-1.26-.23-1.75-.98-8.91-13.43-17.47-29.11-25.76-43.09.06-.6.25-1.5.69-1.53,8.06-.67,25-1.51,32.52-.64l5.31,1.41Z"/>
    <path class="st15" d="M415.53,563.83c-.53-.28-1.29-.85-1.12-1.19,3.72-7.45,9-16.55,13.5-23.6.98-2.81,2.36-4.17,4.13-4.08,8.32,13.78,17.25,27.33,25.3,41.27.77,1.34,4.59,7.3,4.21,8.12-.16.34-5.13,5.17-5.52,5.17-13.4-8.7-27.02-17.12-40.5-25.7Z"/>
    <path class="st2" d="M481.57,587.38c2.76-1.63,4.07-1.63,3.93,0,2.26.84,4.01,1.51,2.36,3.8l.32,2.52c-6.25,11.01-5.64,24.23,2.02,34.45l.02,2.54c-33.4,10.9-44.08-41.94-8.65-43.3Z"/>
    <path class="st1" d="M432.04,534.96l-16.51,28.87c-2.37-1.51-17.79-10.68-17.89-11.76,6.9-12.71,15.46-24.7,21.83-37.62,5.33,6.09,8.46,13.7,12.57,20.51Z"/>
    <path class="st15" d="M558.63,661.07l-38.53.76c-5.25-8.85-10.49-17.73-15.73-26.59-3.14-.89.02-4.91,2.36-3.04,17.17,9.8,34.56,19.34,51.9,28.87Z"/>
    <path class="st2" d="M384.07,554.73l-29.83,50.55c-2.28,2.25-8.6.63-11.84,1.09l33.04-56.21,8.63,4.57Z"/>
    <path class="st2" d="M544.48,720.33c.61,3.44,4.05,5.98,4.72,9.12h-66.05v-9.12h61.33Z"/>
    <path class="st2" d="M624.68,613.98l-31.43,52.81c-1.12,2.42-8.65-2.47-8.68-3.79l28.27-47.93c2.28-2.25,8.6-.63,11.84-1.09Z"/>
    <path class="st8" d="M487.86,591.18l2.21.3c3.94,4.32,7.41,8.95,10.41,13.89.45-2.46,1.49-3.9,3.11-4.31,4.26.41,4.08,8.19,3.52,11.65-.62,3.81-2.34,7.52-4.61,10.68-2.14,2.97-7.91,9.47-11.49,7.3-.22.08-.55-.08-.79,0-9.72-11.73-10.4-26.73-2.36-39.5Z"/>
    <path class="st16" d="M417.88,489.38h60.15c1.48,0,2.18,9.04-.11,9.77l-51.05.15c-4.85.17-6.33-6.8-9-9.92Z"/>
    <path class="st2" d="M344.76,615.49c3.11.44,8.83-1.11,11.05,1.09l28.19,47.83c-.19.75-5.47,3.74-6.61,4.28-.72.34-.65,1.33-1.54-.05l-31.09-53.15Z"/>
    <path class="st0" d="M504.38,585.1c1.15.9,5.73,5.21,6.29,6.08.95,1.47,2.07,6.11,3.12,7.86.44.72,1.56.43,1.6.5.18.31.77,6.36.79,6.84.03,1.19-.56,7.36-.79,9.12-.24,1.9-2.2,7.39-3.15,9.12-1.07,1.96-3.97,5.47-5.5,7.6-.55.77-2.51.88-2.36,3.04-2.31-1.5-3.7,2.32-5.55,1.96-2.03-.39-6.58-4.64-7.82-6.51,10.72-4.09,18.98-19.21,12.58-29.63-1.48-.42-1.48-1.09,0-1.52-1.8-5.29-4.68-9.73-8.64-13.34v-1.86c-.69-.26-.69-.51-.01-.76,3.98-2.68,6.11-1.07,9.44,1.52Z"/>
    <path class="st2" d="M593.22,551.67l30.67,53.17c-3.11-.44-8.83,1.11-11.05-1.09l-28.25-47.15,8.63-4.93Z"/>
    <path class="st16" d="M549.98,489.38c-1.84,1.69-7.82,9.88-9.83,9.88h-51.5v-9.88h61.33Z"/>
    <path class="st2" d="M579.17,547.78l-26.51-44.73c-.88-3.33,4.2-5.3,5.57-8.34l29.18,47.81c.38,1.31-6.91,6.02-8.25,5.27Z"/>
    <path class="st2" d="M579.47,671.72c1.53,2.23,7.99,2.83,7.16,6.07l-28.39,47.08c-1.4-2.46-5.65-7.45-4.97-10.04l26.2-43.11Z"/>
    <path class="st2" d="M410.01,494.7c.72,3.3,5.44,6.38,4.42,9.89l-24.45,41.02c-1.26,2.43-8.97-3.66-8.97-4.18l29-46.73Z"/>
    <path class="st2" d="M473.71,720.33l-.79,9.12h-56.61c.86-3.06,3.72-5.85,4.72-9.12h52.68Z"/>
    <path class="st2" d="M409.22,722.6l-1.63-.48-25.56-42.8c-1.94-2.44,6.4-6.35,7.54-5.78l24.01,39.88-4.36,9.17Z"/>
    <path class="st15" d="M508.31,661.83l-22.8.76c.31-7.07.39-14.18.82-21.24,3.24.43,7.84-3.23,10.1-.33,4.19,6.77,7.73,14.04,11.88,20.81Z"/>
    <path class="st14" d="M422.6,579.78c3.52,2.26,28.03,16.39,28.36,17.99.43,2.09-2.06,6.06-1.66,8.56-4.96.09-9.95.01-14.91.04l-11.79-26.59Z"/>
    <path class="st17" d="M475.28,662.59c-4.24-.67-11.42.91-15.2.03-.99-.23-.99-2.24-1.31-3.07,2.99-4.81,8.06-15.39,11.41-19.02.88-.95,4.24-.22,5.11.4,1.31.94.84,16.18.77,19.04-.03,1.12-.78,2.2-.79,2.62Z"/>
    <path class="st3" d="M446.98,508.37l-9.44,15.95c-3.16-5.27-6.83-10.37-9.43-15.95,6.28-.03,12.59.03,18.87,0Z"/>
    <path class="st10" d="M453.27,648.92l-4.72-12.16c1.45-.84,8.49-5.15,9.18-5.21,1.03-.1,3.91,2.65,4.06,3.42.36,1.83-7.14,11.65-8.52,13.95Z"/>
    <path class="st13" d="M438.33,615.49c2.84.05,10.33-.91,11.67,1.26.29.47,2.66,6.73,2.44,7.03-.28.39-7.22,3.77-8.61,4.62l-5.5-12.91Z"/>
    <path class="st9" d="M494.94,583.58c-.13.08.12.67,0,.76.72,2.61-2.23,4.42-4.72,3.8-.86,1.82-2.43,1.56-4.72-.76-1.21-.11-2.69-.05-3.93,0,5.45-1.02-1.55-4.75-1.56-5.7-.01-2.79,12.94-.57,14.92,1.9Z"/>
    <path class="st5" d="M490.22,588.14c5.91-1.64,11.91,6.16,13.37,11.4,0,.49.06,1.04,0,1.52-.16,1.18-1.49,4.83-2.16,5.87-.51.79.03,1.32-1.76.96-2.39-6.48-7.71-11.35-11.81-16.71-.8-1.05-1.35-2.74-2.36-3.8,1.31.12,3.54.4,4.72.76Z"/>
    <path class="st4" d="M503.59,599.53c-3.27-4.48-7.75-9.67-13.37-11.4,1.7-1.13,3.08-2.57,4.72-3.8,5.04,3.12,8.59,9.46,8.65,15.19Z"/>
  </g>
</svg>