<?xml version="1.0" encoding="UTF-8"?>
<svg id="Ebene_1" xmlns="http://www.w3.org/2000/svg" version="1.1" viewBox="0 0 1024 1024">
  <!-- Generator: Adobe Illustrator 29.5.1, SVG Export Plug-In . SVG Version: 2.1.0 Build 141)  -->
  <defs>
    <style>
      .st0 {
        fill: #e76951;
      }

      .st1 {
        fill: #9ccbc7;
      }

      .st2 {
        fill: #f3cfc9;
      }

      .st3 {
        fill: #f8e1dd;
      }

      .st4 {
        fill: #62b9b6;
      }

      .st5 {
        fill: #f7c963;
      }

      .st6 {
        fill: #b5d9d8;
      }

      .st7 {
        fill: #654128;
      }

      .st8 {
        fill: #fbd641;
      }

      .st9 {
        fill: #f8e2de;
      }

      .st10 {
        fill: #e76a52;
      }

      .st11 {
        fill: #f3baa9;
      }

      .st12 {
        fill: #fbd741;
      }

      .st13 {
        fill: #feec00;
      }

      .st14 {
        fill: #e87a65;
      }

      .st15 {
        fill: #f3beb0;
      }

      .st16 {
        fill: #12a099;
      }

      .st17 {
        fill: #422d1e;
      }

      .st18 {
        fill: #382617;
      }

      .st19 {
        fill: #e88673;
      }

      .st20 {
        fill: #2c1d10;
      }

      .st21 {
        fill: #553621;
      }

      .st22 {
        fill: #feec01;
      }
    </style>
  </defs>
  <g>
    <path class="st17" d="M86.52,577.47c63.94,5.94,85.73,42.71,106.88,69.65.15,2.61,1.62,6.23,7.73,5.75,189.22-23.88,392.03-23.1,577.39-4.58,73.45,13.99,43.32-.61,77.74-33.36,22.69-29.78,96.5-52.87,141.43-22.12,54.05,29.65,14.01,153.74-23.76,186.57-86.92,75.54-687.28,87.2-916.56,9.96-38.29-12.9-44.2-38.88-37.83-65.88-12.03-47.31-61.89-139.12,66.97-145.99ZM957.73,610.83c-31.32-21.62-79.28,40.33-82.99,53.77,29.01,4.49,70.04,18.93,90.52,25.43,5.53-23.69,22.3-58.64-7.53-79.19ZM99.48,612c-65.82-24.82-48.31,55.03-42.1,74.32,83.16-31.26,125.33-14.07,42.1-74.32ZM484.66,658.4c-92.95-5.55-568.55,29.68-346.62,98.6,93.91,44.7,1027.12,45.81,733.01-65.53-109.17-27.23-267.16-34.2-386.39-33.07Z"/>
    <path class="st7" d="M931.17,831.99c-1.72,1.61-2.26,3.51-3.24,5.27-13.78,3.99-26.6,8.89-40.3,12.98-6.19,1.84-12.99,4.16-19.08,5.75-14.12,3.7-30.44,6.98-45.34,9.95-94.08,18.77-199,27.44-299.04,28.68-15.91.2-32.68.2-48.58,0-94.82-1.21-192.16-9.25-282.85-24.58-15.87-2.68-32.07-5.45-47.5-8.78-24.93-5.37-48.91-12.27-72.33-19.31-.17-.25-1.44-.82-1.94-1.56-.96-1.41-.52-3.57-3.46-3.13-.12-.36.08-.79,0-1.17v-.59c.01-3.34-3.44-6.33-5.4-9.36-1.46-3.84-2.3-7.9-3.77-11.71-.48-1.26-2.96-2.71-1.63-3.5h1.08c40.62,13.76,76.47,22.17,122.24,30,13.62,2.33,44.81,8.22,57.51,8.63.7.02,1.77.17,1.63-.31l-8.65-29.55c16.01,1.84,32.43,3.23,48.58,4.68l8.78,31.53c117.4,12.91,239.92,14.44,358.66,5.85,19.87-1.44,39.64-3.32,59.34-5.29l1.61-.88c4.47-10.13,10.62-20.15,12.07-30.62,15.54-1.25,30.93-2.45,46.42-4.1-.12,9.91-4.9,19.62-8.63,29.26,65.25-9.42,130.55-21.54,184.07-44.47,1.2.2.4,1.35.25,1.89-2.04,7.5-7.22,16.81-10.52,24.44Z"/>
    <path class="st7" d="M903.11,876.47c-8.13,10.99-17.83,21.78-28.07,32.19-58.72,20.41-123.22,33.56-191.08,42.14-16.17,2.04-32.22,3.71-48.58,5.27-89.95,8.57-181.92,8.85-272.05.59-15.68-1.44-31.97-3.36-47.5-5.27-56.12-6.9-114.75-18.08-165.2-33.05-5.28-1.57-17.91-4.98-21.89-6.7-1.01-.44-1.71-1.57-2.92-2.38-1.4-.94-1.93-1.24-3.24-2.34,1.81-.18-.22-1.88-.66-2.27-1.79-1.57-4.03-3.18-5.81-4.75-1.52-1.64-3.35-3.52-4.88-5.26-5.22-5.95-10.37-12-14.55-18.15.48.33.79.68,1.44.95,18.7,7.6,46.25,14.82,67.65,20.12,16.94,4.19,33.27,7.64,50.74,11.12,84.83,16.89,170.53,25.64,261.26,26.92,14.45.2,29.8.18,44.26,0,94.58-1.21,186.12-11.79,273.13-31.02,19.02-4.2,34.53-7.72,52.9-12.88,19.81-5.56,39.52-11.28,57.22-18.73-.81,1.12-1.33,2.39-2.16,3.51Z"/>
    <path class="st7" d="M821.06,953.72c-4.54,2.97-9.2,5.94-14.03,8.78-1.3-.89-2.1.26-2.16,1.17-2.15,1.24-4.31,2.32-6.48,3.51-1.39.76-2.91,1.6-4.32,2.34-1.83.97-3.48,1.95-5.4,2.93-1.67.03-3.8.46-2.16,1.17-22.31,11.14-43.23,20.18-71.25,27.51-7.52,1.97-15.28,3.74-22.67,5.85-27.77,6.06-55.41,9.01-84.77,11.69-1.89.17-4.07-.26-4.83,1.18-2.14.09-4.34-.08-6.48,0-15.04.59-30.26.91-45.34,1.17-32.12.56-64.04.23-96.08-.59-5.34-.13-10.89.22-16.19,0-22.97-.94-47.49-3.15-70.17-5.85-6.46-.77-14.32-1.41-20.51-2.34-23.62-3.54-47.32-9.2-69.09-15.22s-41.05-13.83-59.38-22.82l1.06-.29c-1.14-.78-2.35-1.43-4.3-1.47-.37-.19-.71-.4-1.08-.59.37-1.12-.11-1.36-2.16-1.17-2.26-1.17-4.29-2.32-6.48-3.51l-1.08-.59c-1.08-.59-2.15-1.15-3.24-1.76.12-.81-.79-2.07-2.16-1.17-2.62-1.49-4.53-2.94-6.48-4.1l-3.24-1.76c-.34-.2-.74-.38-1.08-.59l.55-1.18c46.06,13.4,94.32,21.83,145.19,28.1,16.6,2.05,32.82,3.81,49.66,5.27,78.33,6.8,151.57,6.77,229.95.59,16.43-1.3,32.37-2.73,48.58-4.68,58.49-7.05,102.9-16.7,155.16-32.06,1.87-.55,2.74-1.45,2.45.45Z"/>
    <path class="st18" d="M875.04,908.66l1.08.59c-15.83,15.8-33.92,30.64-55.06,44.48.29-1.91-.59-1-2.45-.45-52.27,15.36-96.68,25-155.16,32.06,7.77-11.31,18.1-22.32,20.51-34.53,67.87-8.58,132.36-21.73,191.08-42.14Z"/>
    <path class="st18" d="M125.82,909.24c1.21.81,1.9,1.94,2.92,2.38,3.98,1.72,16.61,5.14,21.89,6.7,50.45,14.97,109.08,26.16,165.2,33.05,2.16,11.55,11.6,22.15,19.43,32.77-50.87-6.27-99.13-14.7-145.19-28.1l-.55,1.18c-24.17-14.69-47.09-30.4-63.69-47.99Z"/>
    <path class="st18" d="M951.69,781.07c-3.46,7.08-4.84,15.31-8.44,22.62-.26.52-.66.77-1.68.82l2.56.55c-4.01,9.19-7.22,18.59-12.95,27.51.08-.18-.08-.4,0-.59,3.3-7.63,8.48-16.94,10.52-24.44.15-.54.94-1.69-.25-1.89-53.52,22.93-118.82,35.06-184.07,44.47,3.73-9.64,8.51-19.35,8.63-29.26,58.55-6.22,116.93-15.38,167.24-33.12,6.13-2.16,11.71-5.08,18.44-6.68Z"/>
    <path class="st17" d="M551.17,1021.03v1.17c-31.66.51-64.58.31-96.08-.59v-1.17c32.04.81,63.96,1.14,96.08.59Z"/>
    <path class="st20" d="M931.17,832.57c-6.64,15.43-15.98,29.25-26.99,43.89h-1.08c.83-1.12,1.35-2.39,2.16-3.51,8.45-11.7,15.95-23.63,22.67-35.7.98-1.76,1.52-3.66,3.24-5.27-.08.18.08.4,0,.59Z"/>
    <path class="st20" d="M67.52,837.26c2.94-.44,2.5,1.72,3.46,3.13.5.74,1.77,1.31,1.94,1.56.32.48-.06,1.55.46,2.36,6.91,10.65,15.57,20.9,22.21,31.59h-1.08c-8.5-10.66-23.21-27.58-26.99-38.63Z"/>
    <path class="st17" d="M438.89,1020.44v.59c-24.54-1.02-46.45-3.01-70.17-5.85v-.59c22.68,2.7,47.2,4.91,70.17,5.85Z"/>
    <path class="st20" d="M814.48,648.75"/>
    <path class="st20" d="M815.56,649.92"/>
    <path class="st20" d="M958.16,776.39c-5.75,4.33-11.2,22.19-14.03,28.68l-2.56-.55c1.02-.05,1.42-.3,1.68-.82,3.6-7.31,4.98-15.54,8.44-22.62.95-1.94,2-4.33,6.48-4.68Z"/>
    <path class="st17" d="M693.67,1006.98c-28.87,6.58-59.09,11.57-90.68,12.88.76-1.44,2.95-1.01,4.83-1.18,29.35-2.68,57-5.63,84.77-11.69h1.08Z"/>
    <path class="st18" d="M596.51,1019.85c-4.71,1.58-10.61.93-15.7,1.15-1.38.06-2.83.61-3.19.61h-16.19c-2.11,0-6.87.53-10.26.59v-1.17c15.09-.26,30.3-.58,45.34-1.17Z"/>
    <path class="st17" d="M55.64,810.34c.39.03.84-.06,1.08,0v.59c-1.32.79,1.15,2.25,1.63,3.5,1.47,3.81,2.31,7.87,3.77,11.71-3.29-5.1-6.3-10.46-8.64-15.8.71.03,1.46-.05,2.16,0Z"/>
    <path class="st17" d="M348.21,1012.25v.59c-23.71-3.57-48.71-8.35-69.09-15.8,21.78,6.02,45.47,11.68,69.09,15.22Z"/>
    <path class="st17" d="M904.19,876.47c-8.62,11.47-17.14,21.87-28.07,32.77l-1.08-.59c10.24-10.41,19.94-21.19,28.07-32.19h1.08Z"/>
    <path class="st18" d="M368.72,1014.59v.59c-6.97-.83-13.14-1.23-20.51-2.34v-.59c6.19.93,14.05,1.57,20.51,2.34Z"/>
    <path class="st18" d="M67.52,835.5v.59c-4.03-2.72-4.17-6.72-5.4-9.95,1.96,3.03,5.41,6.02,5.4,9.36Z"/>
    <path class="st20" d="M455.08,1020.44v1.17c-5.38-.15-10.82-.36-16.19-.59v-.59c5.3.22,10.86-.13,16.19,0Z"/>
    <path class="st17" d="M96.67,876.47c4.19,6.15,9.33,12.21,14.55,18.15,1.53,1.74,3.36,3.61,4.88,5.26-8.64-7.61-14.98-15.7-21.59-24h1.08c.64.06.76.36,1.08.59Z"/>
    <path class="st18" d="M715.26,1001.13l-9.29,3.45c-3.95.84-8.43,1.52-12.3,2.4h-1.08c7.39-2.11,15.15-3.89,22.67-5.85Z"/>
    <path class="st18" d="M122.58,906.9c-2.8-2.37-4.37-4.74-6.48-7.02,1.78,1.57,4.02,3.17,5.81,4.75.45.39,2.47,2.1.66,2.27Z"/>
    <path class="st18" d="M219.74,974.21c-1.14-.56-2.14-1.2-3.24-1.76,1.95.03,3.16.69,4.3,1.47l-1.06.29Z"/>
    <path class="st18" d="M213.26,970.69c2.05-.19,2.53.05,2.16,1.17-.77-.39-1.43-.79-2.16-1.17Z"/>
    <path class="st18" d="M202.46,964.84c-.71-.4-1.46-.77-2.16-1.17,1.37-.9,2.28.36,2.16,1.17Z"/>
    <path class="st18" d="M788.67,972.45c-.74.38-1.41.8-2.16,1.17-1.64-.71.49-1.14,2.16-1.17Z"/>
    <path class="st18" d="M807.02,962.5c-.69.4-1.46.77-2.16,1.17.06-.91.86-2.06,2.16-1.17Z"/>
    <path class="st18" d="M193.83,959.57c-.91-.54-2.07-1.05-3.24-1.76l3.24,1.76Z"/>
    <path class="st18" d="M206.78,967.18c-.36-.2-.72-.39-1.08-.59l1.08.59Z"/>
    <path class="st18" d="M794.07,969.52c1.41-.74,2.93-1.58,4.32-2.34l-4.32,2.34Z"/>
    <path class="st20" d="M475.15,656.33c119.24-1.12,286.77,7.9,395.91,35.14,44.95,11.22,108.91,38.62,38.28,61.07-89.28,28.37-237.17,34.58-339.68,34.36-233.27-.49-301.28,1.98-430.7-26.22-55.7-12.13-104.21-34.91-34.07-60.49,93.36-34.05,259.48-42.82,370.26-43.86Z"/>
    <path class="st18" d="M719.58,824.97c-1.45,10.47-7.6,20.49-12.07,30.62l-1.61.88c-19.7,1.97-39.47,3.85-59.34,5.29-118.74,8.6-241.26,7.06-358.66-5.85l-8.78-31.53c143.75,12.97,296.52,12.16,440.46.59Z"/>
    <path class="st18" d="M172,811.92c19.1,2.94,39.12,5.54,58.53,7.77l8.65,29.55c.13.48-.93.33-1.63.31-12.69-.42-43.89-6.3-57.51-8.63-45.78-7.83-81.63-16.24-122.24-30-.32-.11-.59-.46-1.08-.59-.23-.06-.69.03-1.08,0-3.53-8.75-6.83-17.51-9.72-26.34"/>
    <path class="st18" d="M795.15,904.56c-87.01,19.23-178.55,29.81-273.13,31.02l2.16-40.97c100.04-1.23,204.96-9.9,299.04-28.68l-28.07,38.63Z"/>
    <path class="st18" d="M475.6,894.61c.23,3.21-.3,6.47-.04,9.68.06.77,1.12,1.52,1.12,1.73v22.82c0,.19,1,.98,1.12,1.73.26,1.65-.23,3.35-.04,5-90.73-1.28-176.42-10.03-261.26-26.92l-23.75-38.63c90.68,15.33,188.02,23.37,282.85,24.58Z"/>
    <path class="st18" d="M145.25,861.25c5.01,12.37,11.79,24.57,20.51,36.29-21.4-5.3-48.95-12.52-67.65-20.12-.66-.27-.97-.62-1.44-.95-.32-.22-.44-.53-1.08-.59-6.64-10.69-15.29-20.94-22.21-31.59-.53-.81-.14-1.88-.46-2.36,23.42,7.04,47.4,13.94,72.33,19.31Z"/>
    <path class="st21" d="M524.18,894.61l-2.16,40.97c-14.46.18-29.81.2-44.26,0-.19-1.65.29-3.35.04-5-.12-.75-1.12-1.54-1.12-1.73v-22.82c0-.21-1.06-.97-1.12-1.73-.26-3.21.27-6.47.04-9.68,15.9.2,32.67.2,48.58,0Z"/>
    <path class="st18" d="M927.94,837.26c-6.72,12.07-14.22,24-22.67,35.7-17.7,7.45-37.41,13.17-57.22,18.73l20.51-35.7c6.09-1.59,12.89-3.91,19.08-5.75,13.7-4.08,26.52-8.99,40.3-12.98Z"/>
    <path class="st21" d="M192.75,870.03l23.75,38.63c-17.47-3.48-33.8-6.93-50.74-11.12-8.72-11.72-15.5-23.92-20.51-36.29,15.44,3.33,31.64,6.1,47.5,8.78Z"/>
    <path class="st21" d="M868.56,855.98l-20.51,35.7c-18.37,5.16-33.88,8.67-52.9,12.88l28.07-38.63c14.9-2.97,31.22-6.25,45.34-9.95Z"/>
    <path class="st20" d="M57.8,810.92h-1.08v-.59c.49.12.76.48,1.08.59Z"/>
    <path class="st20" d="M67.52,836.09v-.59.59Z"/>
    <path class="st18" d="M635.37,956.06l-20.51,33.94c-78.38,6.19-151.62,6.21-229.95-.59l-21.59-32.77c90.13,8.27,182.1,7.98,272.05-.59Z"/>
    <path class="st21" d="M683.95,950.8c-2.41,12.21-12.74,23.22-20.51,34.53-16.21,1.95-32.15,3.38-48.58,4.68l20.51-33.94c16.36-1.56,32.41-3.22,48.58-5.27Z"/>
    <path class="st21" d="M363.32,956.65l21.59,32.77c-16.84-1.46-33.06-3.22-49.66-5.27-7.83-10.62-17.27-21.23-19.43-32.77,15.53,1.91,31.82,3.83,47.5,5.27Z"/>
  </g>
  <g>
    <path class="st14" d="M523.02,484.38c5.88,1.2,12.01,3.1,17.23,6.01.78.43,1.07,1.23,1.11,2.09,1.19,1.91-2.06,4.29-3.82,2.94l-1.57.74c-7.52-4.72-16.23-7.56-25.34-5.22,4.79,4.89,9.26,10.05,13.42,15.47l.49,2.99-.22,2.76c-11.73,16.07-12.14,37.84-3.97,55.33,2.4,5.8-2.79,10.27-8.08,6.11-15.66-12.53-36.85-15.35-56.23-10.21,7.54,16.97,21.21,30.97,40.35,35.71,2.09.48,2.42,2.31,2.04,4.08-3.79,15.09-2.31,27.63,4.05,42.34,1.06,2.46,11.3,16.71,13.12,16.9,2.67.29,12.7-15.31,13.52-17,7.29-15.05,7.72-29.56,3.48-45.55,15.35-7.73,30.18-17.24,36.36-33.63l2.2-1.65c1.39-1.8,5.88-.05,5.35,2.21,6.58.35,13.69,7.28,18.2,12.07,11.36,12.05,17.41,27.98,16.33,44.27-.41,6.22-1.44,15.52-6.25,19.49l1.1,1.26c-1.96,4.11-4.25,8.11-6.82,11.9l-1.93.09.45,1.84c-11.15,12.76-25.61,20.62-43.25,21.72-4.54.13-10.25.52-14.52-.74-.52-1.2,4.32-.3,4.09-.34-12.87-2.35-17.6-4.53-27.84-11.78l-.7-1.86c-2.08.39-3.86,1.13-5.35,2.21-.94.89-2.13.73-3.57-.49-1.07.9-1.89,1.39-3.31.49-1.71,3.96-8.5,7.25-12.83,8.92-5.55,2.14-12.63,3.21-18.51,2.86-.28-.35-.52-.71-.68-1.1-1.31-3.36,8.24-4.76,10.68-4.79,7.9-3.51,15.41-7.71,22.55-12.59-12.63-15.85-17.71-37.58-12.23-56.75-14.49-1.83-25.55-12.73-34.27-23.54-2.89-3.58-9.38-13.68-4.38-16.8-1.59-1.31-1.3-1.65.76-1.47-.32-1.98.76-3.65,2.56-4.66,5.81-3.27,26.31-2.22,33.01-.69,8.56,1.95,15.18,5.27,22.5,9.41-6.62-18.51-4.86-39.58,5.61-56.45-3.62-5.71-7.2-10.99-13.29-14.37-4.21-6.5,3.43-10.47,7.88-10.76l1.35-.5c.12-2.05,4.51-2.66,5.35-.74.21.05,1.88.98,3.82,1.47Z"/>
    <path class="st14" d="M453.47,563.15c-1.78,4.66,1.92,10.32,4.56,14.37,7.7,11.81,21.06,22.25,35.18,25.38-4.3,20.53-.6,41.66,13.75,57.79.09.29-3.32,1.24-4.2,1.83-6.01,3.98-12.72,9.4-20.05,11.6-3.43,1.03-9.56-.16-10.89,4.6-.21.31-.72.55-1.53.74-4.39.03-8.09-.26-12.23-.74-.87-1.24,4.05-.71,3.82-.73-11.04-.97-17.29-3.36-26.18-9.95-39.02-28.96-30.33-87.58,14.92-105.41l2.86.51Z"/>
    <path class="st14" d="M513.84,483.64c.4,1.91-.92,1.53-2.12,1.97-2.86,1.06-6.71,1.7-6.71,5.76s3.95,4,5.35,5.56c1.32,1.48,3.29,3.67,4.55,5.19,1.46,1.76,3.02,5.07,4.78,6.92-11.24,18.18-12.99,40.46-4.32,59.98l-16.06-8.45c-5.4-1.69-11.53-3.6-17.19-4.05-4.55-.36-21.44-.28-24.78,1.87-.19.12-2.98,3.08-3.1,3.27-.86-.43-1.73-.97-2.18-1.83-2.26-4.32-2.69-15.4-2.4-20.49,1.51-26.84,20.36-47.1,45.09-54.25,3.49-.8,4.66-1.07,8.41-1.47.8-2.75,9.86-2.64,10.7,0Z"/>
    <path class="st16" d="M368.63,655.16c2.69,1.56-1.23,4.35-3.06,2.21l-1.43.95c-3.62-2.39-7.3-3.3-11.05-2.72l6.08,7.23-.48,1.9.33,2.34c-8.52,14.44-3.91,30.96,9.69,40.54l-.09,2.02c-29.01,15.11-59.39-15.34-43.41-42.92,8.61-14.87,28.12-19.63,43.41-11.55Z"/>
    <path class="st16" d="M645.3,496.89c2.68,1.6-1.31,4.36-3.06,2.21l-1.46.92c-4.55-2.73-16.84-5.84-7,1.8,1.97,1.59,2.5,3.14,1.58,4.65l.32,2.34c-8.37,13.87-4.01,30.7,9.02,40.3l.59,2.26c-12.35,6.37-25.91,5.31-36.69-3.68l-1.84.38c-2.76-2.11-9.53-9.94-7.33-12.89-9.78-27.21,19.16-51.88,45.86-38.28Z"/>
    <path class="st16" d="M674.34,655.16c1.33,1.79-1.46,3.6-3.06,2.21-2.36.34-5.01-.24-7.97-1.75-6.49-1.74-6.03.46,1.37,6.59l-.28,1.79c2.01.41,1.93.89,0,1.47l.28,2.14c-9.06,13.21-3.57,30.96,9.2,39.95l.46,2.08c-26.11,13.3-55.44-10.01-46.62-36.81-1.88-2.76,3.97-11.1,6.31-13.23l2.09-.02c10.03-9.32,26.19-10.54,38.21-4.42Z"/>
    <path class="st16" d="M519.19,703.01c2.52.6,4.07,1.9,6.11,2.94,2.01,1.5-.34,3.26-2.29,2.21l-1.99.74c-3.39-1.98-6.93-2.93-10.61-2.86l5.56,7.78-.61,1.7.3,2.32c-8.48,14.28-3.81,31.24,9.81,40.61l-.17,1.98c-27.93,14.23-58.05-13.84-44.47-41,3.74-7.49,13.62-15.94,22.31-17.16l.65-1.56c4.96-.36,10-.13,14.91.68l.5,1.61Z"/>
    <path class="st16" d="M525.31,398.25c2.65,1.59-1.18,4.34-3.06,2.21l-1.4.96c-4.51-2.8-17.13-6.19-7.06,1.75,1.97,1.59,2.5,3.14,1.58,4.65l.32,2.34c-8.41,13.87-3.87,30.65,9.05,40.3l.57,2.26c-1.88.96-4.04,2.45-6.11,2.94l-.45,1.6c-4.79.79-9.71,1-14.56.72l-1.04-1.59c-7.9-1.11-17.78-9.05-21.53-15.7-15.41-27.39,14.89-56.94,43.69-42.45Z"/>
    <path class="st16" d="M396.14,497.63c1.35,1.88-2.2,3.64-3.82,2.21l-1.41.89c-5.01-1.75-17.08-5.94-6.98,1.81,1.9,1.72,2.41,3.27,1.51,4.65l.36,2.3c-8.26,13.94-4.12,31.31,9.63,40.38l.71,2.22c-23.47,11.71-49.92-4.35-48.18-29.85,1.55-22.69,27.63-35.22,48.18-24.63Z"/>
    <path class="st0" d="M494.74,485.12c1.92.71-.84,1.11-1.34,1.27-32.38,10.62-49.88,43.71-39.16,75.28-.12.2-.7,1.3-.76,1.47-36.19,12.71-51.84,53.08-33,85.89,8.27,14.4,24.48,26.05,41.4,28.96l-3.82.73c-16.12-1.85-32.01-9.51-42.04-22.08l-2.03-.17c-2.15-2.1-7.17-10.49-5.61-13.08-12.21-27.52-1.55-61.88,25.99-76.56l.33-1.82c4.1-1.88,8.48-3.14,12.84-4.31-.87-1.91-.68-3.3.59-4.17-7.08-33.43,12.33-63.51,46.62-71.41Z"/>
    <path class="st4" d="M377.04,660.32l1.78-.27c2.83,3.63,5.09,7.64,6.88,11.83l-1.03,1.68c4.13,14.62-2.39,28.96-16.05,36.07-3.06-3.16-6.67-5.4-9.35-9.03-8.1-10.99-7.93-24.59-.59-35.87.22-.64.47-.63.76,0h1.56s9.83,13.13,9.83,13.13c3.46-6.18-.07-13.92-5.38-18.02l.11-1.73c-.66-.21-.65-.46,0-.74.54-.44,2.78-.44,3.06-2.21,2.15,1.14,6.85,3.61,8.41,5.15Z"/>
    <path class="st4" d="M410.67,536.65l.98,1.45c-2.44,4.07-5.23,7.89-8.4,11.47l-1.75-.4c-.36.29-4.52,2.53-5.35,2.94-16.26-9.77-20.97-29.16-10.7-44.9l2.3.39c3.79,4.05,7.02,8.47,9.7,13.23,4.15-6.29-.26-14.79-5.41-19.33l.3-1.65,3.82-2.21c13.77,7.1,20.04,24.99,14.52,39.02Z"/>
    <path class="st4" d="M645.3,551.37c-15.44-10.6-20.35-29.07-9.94-44.9.22-.64.47-.63.76,0l1.59.13,9.65,13.18c3.71-6.11.02-14.04-5.26-18.21l.13-1.72c-.66-.21-.65-.46,0-.74.54-.44,2.78-.44,3.06-2.21,22.74,11.59,22.87,42.68,0,54.47Z"/>
    <path class="st4" d="M525.31,452.73c-15.3-10.67-20.41-29.1-9.94-44.9.22-.64.47-.63.76,0l1.59.13,9.65,13.18c3.71-6.14.12-14.06-5.24-18.2l.11-1.73c-.66-.21-.65-.46,0-.74.54-.44,2.78-.44,3.06-2.21,22.7,11.42,22.91,42.76,0,54.47Z"/>
    <path class="st4" d="M525.31,760.43c-2.67-2.94-6.24-5.01-8.72-8.16-8.44-10.7-8.93-25.65-1.21-36.74.22-.64.47-.63.76,0l1.65-.3,9.78,13.46c3.19-6.54.09-13.69-5.26-18.22l.71-1.57c-.71-.25-.71-.49,0-.74.35-.78,1.94-1.2,2.29-2.21,22.9,11.7,22.7,42.91,0,54.47Z"/>
    <path class="st4" d="M674.34,709.64c-14.86-9.21-21.19-30.09-9.94-44.17,1.04-.99,2.16-.71,3.38.87l8.48,12.15c2.83-6.34.65-14.11-4.86-18.47l-.12-1.91c-.67-.21-.66-.45,0-.74l3.06-2.21c22.39,11.41,22.34,43.09,0,54.47Z"/>
    <path class="st9" d="M613.2,647.07c-.21.63-.47.62-.76,0-2.09,1.43-7.38-2.19-7.64-4.42,12.55-29.47-.16-60.61-28.28-75.82-3.09-1.77.42-3.9,3.06-2.94-.51-1.45.27-1.72,1.53-.74,4.16,3.38,9.31,5.39,13.69,8.53,18.98,13.6,27.69,36.89,23.42,59.23-1.06,5.56-3.65,10.7-5.01,16.16Z"/>
    <path class="st13" d="M448.12,556.52c.37,1.75.8,3.5,1.53,5.14-4.5,1.15-11.32,3.05-15.29,5.16l-32.86-17.67c1.88-1.52,8.31-10.32,9.17-12.51l37.45,19.88Z"/>
    <path class="st13" d="M408.37,643.39c1.84,4.15,4.78,9.67,7.64,13.25l-31.34,16.93c-.89-3.14-5.35-10.97-7.64-13.25l31.34-16.93Z"/>
    <path class="st22" d="M511.55,668.41c1.98-1.79,7.97,2.75,7.64,5.15v29.45c-3.84-.91-12.18-1.28-16.05-.74v-29.45c.63-2.58,5.41-6.52,7.64-4.42.16-.69.42-.66.76,0Z"/>
    <path class="st13" d="M608.61,547.69l-27.51,15.46c-.49.27-1.04.46-1.53.74-2.64.57-7.11.16-8.28-2.36-.29-.62,2.38-11.39,3.7-12.36-.95-1.09-.52-1.5.76-.74,7.85-4.47,15.93-8.62,23.69-13.25,1.53,4.25,5.63,9.56,9.17,12.51Z"/>
    <path class="st22" d="M519.19,455.67v27.24c-.26-.06-3.48.86-5.35.74-4.76-.32-5.67-.54-10.7,0v-27.24c3.73.52,12.34.14,16.05-.74Z"/>
    <path class="st13" d="M636.13,659.58c-2.6,2.42-7.32,9.94-8.41,13.25l-23.69-13.25-.82-1.49c.57-1.14,6.79-10.6,7.36-10.96.52-.33,1.24-.2,1.86-.07.19.11.57-.11.76,0,7.61,4.2,15.09,8.69,22.93,12.51Z"/>
    <path class="st2" d="M575.75,548.42c-.27.15-.48.58-.76.74-.04,2.26-2.73,3.76-4.59,2.21l-1.22-2.54c2.38-21.35-7.9-42.13-26.57-53.84l-1.25-2.5c-5.5-3.21-11.85-6.43-18.34-8.1,32.24,3.4,55.07,33.5,52.74,64.04Z"/>
    <path class="st9" d="M603.26,659.58c-12.92,14.36-29.69,19.3-48.91,19.88,7.84-1.98,15.46-3.49,22.68-7.24,6.37-3.31,15.85-10.75,20.12-16.32,2.73-.9,5.7.96,6.11,3.68Z"/>
    <path class="st12" d="M612.44,647.07l-8.41,12.51c-.19-.11-.57.11-.76,0-2.04-1.15-4.08-2.5-6.11-3.68,2.21-2.87,6.22-9.91,7.64-13.25,2.84.97,5.09,3.02,7.64,4.42Z"/>
    <path class="st10" d="M515.37,664.73c3.66,1.05,11,7.25,15.89,9.36,4.18,1.81,8.59,3.26,13.15,3.9-.11,1.32-3.57.76-4.58.73-5.75-.18-15.47-2.75-20.64-5.15-1.78-.83-6.13-4.65-7.64-5.15-1.46-2.21,1.59-3.77,3.82-3.68Z"/>
    <path class="st3" d="M503.14,672.83c-11.45,5.25-20.26,6.53-32.86,6.63.19-.72.88-.69,1.53-.74,13.02-.87,20.87-5,31.34-11.78,2.61.59,1.82,4.49,0,5.89Z"/>
    <path class="st19" d="M570.4,551.37c1.12,3.09.91,6.66-.64,10.71,1.19.57,1.87,1.08,1.41,2.54-5.65,17.15-20.73,28.8-37.39,35.76,6.22,18.43,3.08,38.56-8.59,54.29-1.29,1.74-7.62,9.35-9.42,9.35-2.95,0-13.25-15.04-14.81-18.15-4.27-8.53-6.65-19.93-6.24-29.39.11-2.46,2.91-14.99,2.25-15.73-19.35-4.36-36.28-19.69-42.02-37.89,16.55-6.32,36.84-3.58,51.97,5.12,2.21,1.27,8.21,6.59,9.97,5.87,5.36-2.2.99-7.26-.19-10.88-5.94-18.3-4.61-38.14,7.85-53.57l1.88.7c7.9,8.48,14.86,17.65,20.88,27.51,7.8-12.83,1.56-30.71-9.52-40.1l-.24-2.1,3.82-2.94c21.26,12.42,32.53,34.88,29.04,58.89Z"/>
    <path class="st15" d="M537.54,495.42c11.36,8.53,17.98,25.51,13.14,38.79-.38,1.05-2.92,7.06-4.33,5.37-6.01-10.9-13.91-20.55-21.79-30.17-5.4-6.59-10.42-13.33-16.81-19.13,6.61-2.34,14.06-2.08,20.62.37,1.88.7,7.72,3.67,9.18,4.77Z"/>
    <path class="st11" d="M580.34,652.95c4.23-20.24,5.8-41.22,4.98-61.84,19.21,5.88,23.05,31.88,14.8,47.4-3.56,6.69-11.39,14.62-19.78,14.44Z"/>
    <path class="st5" d="M574.99,549.16c1.2,2.08-2.69,11.99-2.3,12.51.21.28,5.89,1.07,6.88,2.22-1.34.76-3.53,1.58-3.06,2.94-1.77-.96-3.82-1.45-5.35-2.21-.51-.25-3.08-1.77-3.12-1.94.71-3.82,1.8-7.44,2.36-11.31,1.49-.79,3.13-1.39,4.59-2.21Z"/>
    <path class="st8" d="M510.02,666.94c2.06-.28,2.33.15.76,1.47-1.48.21-5.57,3.47-7.64,4.42v-5.89c3.38-2.19,2.69-2.92,6.88,0Z"/>
    <path class="st14" d="M515.37,664.73l-3.82,3.68c-.17-.06-.58-.03-.76,0-.29-.37-.49-1.28-.76-1.47-.59-3.51,2.71-2.97,5.35-2.21Z"/>
    <path class="st1" d="M365.57,657.37c-.13.1.13.63,0,.74.72,2.25-3.95,5.89-6.11,6.63h-.76c-2.41-3.3-4.94-6.99-8.4-9.2,4.75-3.9,10.62-.46,15.28,1.84Z"/>
    <path class="st1" d="M642.24,499.1c-.13.1.13.63,0,.74,1.07,2.03-4.01,5.86-6.11,6.63h-.76c-2.06-3.66-5.46-6.23-8.39-9.2,4.85-3.53,10.76-.49,15.27,1.84Z"/>
    <path class="st6" d="M671.29,658.11c5.78,3.76,8.49,10.62,7.57,17.24-.16,1.19-1.71,6.79-3.36,4.84-2.7-3.21-5.7-8.75-8.48-12.45-.7-.93-2.53-2.11-2.61-2.26-.15-.28.1-1.04,0-1.47-.53-2.78,4.03-8.17,6.88-5.89Z"/>
    <path class="st1" d="M671.29,657.37v.74c-3.28.53-4.46,4.12-6.88,5.89-2.26-2.1-5.4-5.03-7.27-7.36-.59-.74-1.48-.94-1.14-2.21,5.65-1.79,10.42.33,15.28,2.94Z"/>
    <path class="st1" d="M523.02,708.17c-.05.11-.05.63,0,.74-.47,2.25-4.59,5.83-6.88,6.63h-.76l-7.64-10.3c5.54-2.14,10.39.81,15.28,2.94Z"/>
    <path class="st1" d="M522.25,400.46c-.13.1.13.63,0,.74,1.07,2.03-4.01,5.86-6.11,6.63h-.76c-2.06-3.66-5.46-6.23-8.39-9.2,4.7-3.91,10.7-.41,15.27,1.84Z"/>
    <path class="st6" d="M392.32,499.84c6.54,4.66,12.35,17.74,4.59,23.55-2.44-6.1-7.26-11.15-11.47-16.19-.95-1.13-1.62-2.51-2.67-3.69-.87-.98-5.72-5.12-5.72-5.51-.07-3.27,12.85.12,15.27,1.84Z"/>
    <path class="st6" d="M365.57,658.11c7.28,4.63,11.69,16.62,4.6,22.82-.33-3.95-10.55-13.81-10.71-16.19-.14-2.02,4.5-5.24,6.11-6.63Z"/>
    <path class="st6" d="M642.24,499.84c7.15,4.62,11.72,16.7,4.6,22.82-.37-3.88-10.71-13.92-10.71-16.19,0-2.15,4.41-5.17,6.11-6.63Z"/>
    <path class="st6" d="M522.25,401.2c7.28,4.63,11.69,16.62,4.6,22.82-.37-3.88-10.71-13.92-10.71-16.19,0-2.15,4.41-5.17,6.11-6.63Z"/>
    <path class="st6" d="M523.02,708.9c.37.85,3.92,3.79,5.01,5.85,2.86,5.41,3.57,11.56-.42,16.61l-11.47-15.84c-.11-1.69,4.8-6.31,6.88-6.63Z"/>
  </g>
</svg>