<?xml version="1.0" encoding="UTF-8"?>
<svg id="Ebene_1" xmlns="http://www.w3.org/2000/svg" version="1.1" viewBox="0 0 1024 1024">
  <!-- Generator: Adobe Illustrator 29.5.1, SVG Export Plug-In . SVG Version: 2.1.0 Build 141)  -->
  <defs>
    <style>
      .st0 {
        fill: #fced98;
      }

      .st1 {
        fill: #fae016;
      }

      .st2 {
        fill: #fbf09a;
      }

      .st3 {
        fill: #fef2bc;
      }

      .st4 {
        fill: #407f58;
      }

      .st5 {
        fill: #fef2bd;
      }

      .st6 {
        fill: #654128;
      }

      .st7 {
        fill: #3e7f59;
      }

      .st8 {
        fill: #3e7e58;
      }

      .st9 {
        fill: #fcf1bc;
      }

      .st10 {
        fill: #fced99;
      }

      .st11 {
        fill: #422d1e;
      }

      .st12 {
        fill: #382617;
      }

      .st13 {
        fill: #3d7e58;
      }

      .st14 {
        fill: #3e7e57;
      }

      .st15 {
        fill: #2c1d10;
      }

      .st16 {
        fill: #553621;
      }
    </style>
  </defs>
  <g>
    <path class="st11" d="M97.55,580.37c63.94,5.94,85.73,42.71,106.88,69.65.15,2.61,1.62,6.23,7.73,5.75,189.22-23.88,392.03-23.1,577.39-4.58,73.45,13.99,43.32-.61,77.74-33.36,22.69-29.78,96.5-52.87,141.43-22.12,54.05,29.65,14.01,153.74-23.76,186.57-86.92,75.54-687.28,87.2-916.56,9.96-38.29-12.9-44.2-38.88-37.83-65.88-12.03-47.31-61.89-139.12,66.97-145.99h.01ZM968.76,613.73c-31.32-21.62-79.28,40.33-82.99,53.77,29.01,4.49,70.04,18.93,90.52,25.43,5.53-23.69,22.3-58.64-7.53-79.19h0ZM110.51,614.9c-65.82-24.82-48.31,55.03-42.1,74.32,83.16-31.26,125.33-14.07,42.1-74.32ZM495.69,661.3c-92.95-5.55-568.55,29.68-346.62,98.6,93.91,44.7,1027.12,45.81,733.01-65.53-109.17-27.23-267.16-34.2-386.39-33.07h0Z"/>
    <path class="st6" d="M942.2,834.89c-1.72,1.61-2.26,3.51-3.24,5.27-13.78,3.99-26.6,8.89-40.3,12.98-6.19,1.84-12.99,4.16-19.08,5.75-14.12,3.7-30.44,6.98-45.34,9.95-94.08,18.77-199,27.44-299.04,28.68-15.91.2-32.68.2-48.58,0-94.82-1.21-192.16-9.25-282.85-24.58-15.87-2.68-32.07-5.45-47.5-8.78-24.93-5.37-48.91-12.27-72.33-19.31-.17-.25-1.44-.82-1.94-1.56-.96-1.41-.52-3.57-3.46-3.13-.12-.36.08-.79,0-1.17v-.59c.01-3.34-3.44-6.33-5.4-9.36-1.46-3.84-2.3-7.9-3.77-11.71-.48-1.26-2.96-2.71-1.63-3.5h1.08c40.62,13.76,76.47,22.17,122.24,30,13.62,2.33,44.81,8.22,57.51,8.63.7.02,1.77.17,1.63-.31l-8.65-29.55c16.01,1.84,32.43,3.23,48.58,4.68l8.78,31.53c117.4,12.91,239.92,14.44,358.66,5.85,19.87-1.44,39.64-3.32,59.34-5.29l1.61-.88c4.47-10.13,10.62-20.15,12.07-30.62,15.54-1.25,30.93-2.45,46.42-4.1-.12,9.91-4.9,19.62-8.63,29.26,65.25-9.42,130.55-21.54,184.07-44.47,1.2.2.4,1.35.25,1.89-2.04,7.5-7.22,16.81-10.52,24.44h.02Z"/>
    <path class="st6" d="M914.14,879.37c-8.13,10.99-17.83,21.78-28.07,32.19-58.72,20.41-123.22,33.56-191.08,42.14-16.17,2.04-32.22,3.71-48.58,5.27-89.95,8.57-181.92,8.85-272.05.59-15.68-1.44-31.97-3.36-47.5-5.27-56.12-6.9-114.75-18.08-165.2-33.05-5.28-1.57-17.91-4.98-21.89-6.7-1.01-.44-1.71-1.57-2.92-2.38-1.4-.94-1.93-1.24-3.24-2.34,1.81-.18-.22-1.88-.66-2.27-1.79-1.57-4.03-3.18-5.81-4.75-1.52-1.64-3.35-3.52-4.88-5.26-5.22-5.95-10.37-12-14.55-18.15.48.33.79.68,1.44.95,18.7,7.6,46.25,14.82,67.65,20.12,16.94,4.19,33.27,7.64,50.74,11.12,84.83,16.89,170.53,25.64,261.26,26.92,14.45.2,29.8.18,44.26,0,94.58-1.21,186.12-11.79,273.13-31.02,19.02-4.2,34.53-7.72,52.9-12.88,19.81-5.56,39.52-11.28,57.22-18.73-.81,1.12-1.33,2.39-2.16,3.51h-.01Z"/>
    <path class="st6" d="M832.09,956.62c-4.54,2.97-9.2,5.94-14.03,8.78-1.3-.89-2.1.26-2.16,1.17-2.15,1.24-4.31,2.32-6.48,3.51-1.39.76-2.91,1.6-4.32,2.34-1.83.97-3.48,1.95-5.4,2.93-1.67.03-3.8.46-2.16,1.17-22.31,11.14-43.23,20.18-71.25,27.51-7.52,1.97-15.28,3.74-22.67,5.85-27.77,6.06-55.41,9.01-84.77,11.69-1.89.17-4.07-.26-4.83,1.18-2.14.09-4.34-.08-6.48,0-15.04.59-30.26.91-45.34,1.17-32.12.56-64.04.23-96.08-.59-5.34-.13-10.89.22-16.19,0-22.97-.94-47.49-3.15-70.17-5.85-6.46-.77-14.32-1.41-20.51-2.34-23.62-3.54-47.32-9.2-69.09-15.22s-41.05-13.83-59.38-22.82l1.06-.29c-1.14-.78-2.35-1.43-4.3-1.47-.37-.19-.71-.4-1.08-.59.37-1.12-.11-1.36-2.16-1.17-2.26-1.17-4.29-2.32-6.48-3.51l-1.08-.59c-1.08-.59-2.15-1.15-3.24-1.76.12-.81-.79-2.07-2.16-1.17-2.62-1.49-4.53-2.94-6.48-4.1l-3.24-1.76c-.34-.2-.74-.38-1.08-.59l.55-1.18c46.06,13.4,94.32,21.83,145.19,28.1,16.6,2.05,32.82,3.81,49.66,5.27,78.33,6.8,151.57,6.77,229.95.59,16.43-1.3,32.37-2.73,48.58-4.68,58.49-7.05,102.9-16.7,155.16-32.06,1.87-.55,2.74-1.45,2.45.45v.03Z"/>
    <path class="st12" d="M886.07,911.56l1.08.59c-15.83,15.8-33.92,30.64-55.06,44.48.29-1.91-.59-1-2.45-.45-52.27,15.36-96.68,25-155.16,32.06,7.77-11.31,18.1-22.32,20.51-34.53,67.87-8.58,132.36-21.73,191.08-42.14h0Z"/>
    <path class="st12" d="M136.85,912.14c1.21.81,1.9,1.94,2.92,2.38,3.98,1.72,16.61,5.14,21.89,6.7,50.45,14.97,109.08,26.16,165.2,33.05,2.16,11.55,11.6,22.15,19.43,32.77-50.87-6.27-99.13-14.7-145.19-28.1l-.55,1.18c-24.17-14.69-47.09-30.4-63.69-47.99h-.01Z"/>
    <path class="st12" d="M962.72,783.97c-3.46,7.08-4.84,15.31-8.44,22.62-.26.52-.66.77-1.68.82l2.56.55c-4.01,9.19-7.22,18.59-12.95,27.51.08-.18-.08-.4,0-.59,3.3-7.63,8.48-16.94,10.52-24.44.15-.54.94-1.69-.25-1.89-53.52,22.93-118.82,35.06-184.07,44.47,3.73-9.64,8.51-19.35,8.63-29.26,58.55-6.22,116.93-15.38,167.24-33.12,6.13-2.16,11.71-5.08,18.44-6.68h0Z"/>
    <path class="st11" d="M562.2,1023.93v1.17c-31.66.51-64.58.31-96.08-.59v-1.17c32.04.81,63.96,1.14,96.08.59Z"/>
    <path class="st15" d="M942.2,835.47c-6.64,15.43-15.98,29.25-26.99,43.89h-1.08c.83-1.12,1.35-2.39,2.16-3.51,8.45-11.7,15.95-23.63,22.67-35.7.98-1.76,1.52-3.66,3.24-5.27-.08.18.08.4,0,.59h0Z"/>
    <path class="st15" d="M78.55,840.16c2.94-.44,2.5,1.72,3.46,3.13.5.74,1.77,1.31,1.94,1.56.32.48-.06,1.55.46,2.36,6.91,10.65,15.57,20.9,22.21,31.59h-1.08c-8.5-10.66-23.21-27.58-26.99-38.63h0Z"/>
    <path class="st11" d="M449.92,1023.34v.59c-24.54-1.02-46.45-3.01-70.17-5.85v-.59c22.68,2.7,47.2,4.91,70.17,5.85Z"/>
    <path class="st15" d="M825.51,651.65"/>
    <path class="st15" d="M826.59,652.82"/>
    <path class="st15" d="M969.19,779.29c-5.75,4.33-11.2,22.19-14.03,28.68l-2.56-.55c1.02-.05,1.42-.3,1.68-.82,3.6-7.31,4.98-15.54,8.44-22.62.95-1.94,2-4.33,6.48-4.68h0Z"/>
    <path class="st11" d="M704.7,1009.88c-28.87,6.58-59.09,11.57-90.68,12.88.76-1.44,2.95-1.01,4.83-1.18,29.35-2.68,57-5.63,84.77-11.69h1.08,0Z"/>
    <path class="st12" d="M607.54,1022.75c-4.71,1.58-10.61.93-15.7,1.15-1.38.06-2.83.61-3.19.61h-16.19c-2.11,0-6.87.53-10.26.59v-1.17c15.09-.26,30.3-.58,45.34-1.17h0Z"/>
    <path class="st11" d="M66.67,813.24c.39.03.84-.06,1.08,0v.59c-1.32.79,1.15,2.25,1.63,3.5,1.47,3.81,2.31,7.87,3.77,11.71-3.29-5.1-6.3-10.46-8.64-15.8.71.03,1.46-.05,2.16,0h0Z"/>
    <path class="st11" d="M359.24,1015.15v.59c-23.71-3.57-48.71-8.35-69.09-15.8,21.78,6.02,45.47,11.68,69.09,15.22h0Z"/>
    <path class="st11" d="M915.22,879.37c-8.62,11.47-17.14,21.87-28.07,32.77l-1.08-.59c10.24-10.41,19.94-21.19,28.07-32.19h1.08Z"/>
    <path class="st12" d="M379.75,1017.49v.59c-6.97-.83-13.14-1.23-20.51-2.34v-.59c6.19.93,14.05,1.57,20.51,2.34Z"/>
    <path class="st12" d="M78.55,838.4v.59c-4.03-2.72-4.17-6.72-5.4-9.95,1.96,3.03,5.41,6.02,5.4,9.36Z"/>
    <path class="st15" d="M466.11,1023.34v1.17c-5.38-.15-10.82-.36-16.19-.59v-.59c5.3.22,10.86-.13,16.19,0h0Z"/>
    <path class="st11" d="M107.7,879.37c4.19,6.15,9.33,12.21,14.55,18.15,1.53,1.74,3.36,3.61,4.88,5.26-8.64-7.61-14.98-15.7-21.59-24h1.08c.64.06.76.36,1.08.59h0Z"/>
    <path class="st12" d="M726.29,1004.03l-9.29,3.45c-3.95.84-8.43,1.52-12.3,2.4h-1.08c7.39-2.11,15.15-3.89,22.67-5.85h0Z"/>
    <path class="st12" d="M133.61,909.8c-2.8-2.37-4.37-4.74-6.48-7.02,1.78,1.57,4.02,3.17,5.81,4.75.45.39,2.47,2.1.66,2.27h.01Z"/>
    <path class="st12" d="M230.77,977.11c-1.14-.56-2.14-1.2-3.24-1.76,1.95.03,3.16.69,4.3,1.47l-1.06.29h0Z"/>
    <path class="st12" d="M224.29,973.59c2.05-.19,2.53.05,2.16,1.17-.77-.39-1.43-.79-2.16-1.17Z"/>
    <path class="st12" d="M213.49,967.74c-.71-.4-1.46-.77-2.16-1.17,1.37-.9,2.28.36,2.16,1.17Z"/>
    <path class="st12" d="M799.7,975.35c-.74.38-1.41.8-2.16,1.17-1.64-.71.49-1.14,2.16-1.17Z"/>
    <path class="st12" d="M818.05,965.4c-.69.4-1.46.77-2.16,1.17.06-.91.86-2.06,2.16-1.17Z"/>
    <path class="st12" d="M204.86,962.47c-.91-.54-2.07-1.05-3.24-1.76l3.24,1.76Z"/>
    <path class="st12" d="M217.81,970.08c-.36-.2-.72-.39-1.08-.59l1.08.59Z"/>
    <path class="st12" d="M805.1,972.42c1.41-.74,2.93-1.58,4.32-2.34l-4.32,2.34Z"/>
    <path class="st15" d="M486.18,659.23c119.24-1.12,286.77,7.9,395.91,35.14,44.95,11.22,108.91,38.62,38.28,61.07-89.28,28.37-237.17,34.58-339.68,34.36-233.27-.49-301.28,1.98-430.7-26.22-55.7-12.13-104.21-34.91-34.07-60.49,93.36-34.05,259.48-42.82,370.26-43.86h0Z"/>
    <path class="st12" d="M730.61,827.87c-1.45,10.47-7.6,20.49-12.07,30.62l-1.61.88c-19.7,1.97-39.47,3.85-59.34,5.29-118.74,8.6-241.26,7.06-358.66-5.85l-8.78-31.53c143.75,12.97,296.52,12.16,440.46.59h0Z"/>
    <path class="st12" d="M183.03,814.82c19.1,2.94,39.12,5.54,58.53,7.77l8.65,29.55c.13.48-.93.33-1.63.31-12.69-.42-43.89-6.3-57.51-8.63-45.78-7.83-81.63-16.24-122.24-30-.32-.11-.59-.46-1.08-.59-.23-.06-.69.03-1.08,0-3.53-8.75-6.83-17.51-9.72-26.34"/>
    <path class="st12" d="M806.18,907.46c-87.01,19.23-178.55,29.81-273.13,31.02l2.16-40.97c100.04-1.23,204.96-9.9,299.04-28.68l-28.07,38.63h0Z"/>
    <path class="st12" d="M486.63,897.51c.23,3.21-.3,6.47-.04,9.68.06.77,1.12,1.52,1.12,1.73v22.82c0,.19,1,.98,1.12,1.73.26,1.65-.23,3.35-.04,5-90.73-1.28-176.42-10.03-261.26-26.92l-23.75-38.63c90.68,15.33,188.02,23.37,282.85,24.58h0Z"/>
    <path class="st12" d="M156.28,864.15c5.01,12.37,11.79,24.57,20.51,36.29-21.4-5.3-48.95-12.52-67.65-20.12-.66-.27-.97-.62-1.44-.95-.32-.22-.44-.53-1.08-.59-6.64-10.69-15.29-20.94-22.21-31.59-.53-.81-.14-1.88-.46-2.36,23.42,7.04,47.4,13.94,72.33,19.31h0Z"/>
    <path class="st16" d="M535.21,897.51l-2.16,40.97c-14.46.18-29.81.2-44.26,0-.19-1.65.29-3.35.04-5-.12-.75-1.12-1.54-1.12-1.73v-22.82c0-.21-1.06-.97-1.12-1.73-.26-3.21.27-6.47.04-9.68,15.9.2,32.67.2,48.58,0h0Z"/>
    <path class="st12" d="M938.97,840.16c-6.72,12.07-14.22,24-22.67,35.7-17.7,7.45-37.41,13.17-57.22,18.73l20.51-35.7c6.09-1.59,12.89-3.91,19.08-5.75,13.7-4.08,26.52-8.99,40.3-12.98h0Z"/>
    <path class="st16" d="M203.78,872.93l23.75,38.63c-17.47-3.48-33.8-6.93-50.74-11.12-8.72-11.72-15.5-23.92-20.51-36.29,15.44,3.33,31.64,6.1,47.5,8.78h0Z"/>
    <path class="st16" d="M879.59,858.88l-20.51,35.7c-18.37,5.16-33.88,8.67-52.9,12.88l28.07-38.63c14.9-2.97,31.22-6.25,45.34-9.95Z"/>
    <path class="st15" d="M68.83,813.82h-1.08v-.59c.49.12.76.48,1.08.59Z"/>
    <path class="st15" d="M78.55,838.99v-.59.59Z"/>
    <path class="st12" d="M646.4,958.96l-20.51,33.94c-78.38,6.19-151.62,6.21-229.95-.59l-21.59-32.77c90.13,8.27,182.1,7.98,272.05-.59h0Z"/>
    <path class="st16" d="M694.98,953.7c-2.41,12.21-12.74,23.22-20.51,34.53-16.21,1.95-32.15,3.38-48.58,4.68l20.51-33.94c16.36-1.56,32.41-3.22,48.58-5.27h0Z"/>
    <path class="st16" d="M374.35,959.55l21.59,32.77c-16.84-1.46-33.06-3.22-49.66-5.27-7.83-10.62-17.27-21.23-19.43-32.77,15.53,1.91,31.82,3.83,47.5,5.27Z"/>
  </g>
  <g>
    <path class="st1" d="M416.12,411.74c14.38,1.16,27.61,8.93,32.49,24.94,4.82-2.27,8.4-2.38,10.7-.31,28.78-6.2,56.3-7.4,85.38-2.48,9.47,1.61,18.88,4.39,28.17,6.93,10.24-23.3,27.76-32.59,50.32-27.63,3.43,1.92,6.06,3.84,5.53,8.87-2.8,4.22-4.17,6.93.75,8.32.91,4.59,2.26,9.57,6.65,6.41,3.58.95,8.12,1.47,11.19-.44,4.2-2.19,9.47,10.04,5.08,12.31,4.2,1.35,3.91,19.41,0,21.72l2.14,2.34c-2.19,4.41-4.04,8.88-5.56,13.4,12.5,12.86,21.67,27.89,27.54,45.09,2.69-2.64,9.38-3.35,11.44.74h1.27c11.31,1.32,20.88,4.39,28.45,14.67,3.43,4.67,6.87,9.64,4.57,15.74,5.62,2.53.98,8.48-3.89,5.53-2.43,1.68-3.09,4.24-2.01,7.68-3.25,3.4-3.8,6.51.75,8.33.81,4.54,2.5,8.08,6.42,10.32,3.49,6.5-4.52,16.75-9,21.52-6.18,6.56-11.88,9.06-20.22,10.35-1.27.07-2.54-.05-3.81,0-3.83,2.76-8.36,3.65-13.58,2.67-7.29,16.96-16.71,31.95-28.24,45l5.72,12.42-2.01,2.93c4.22,1.39,3.89,19.48,0,21.72,4.62,3.91-3.86,18.84-8.9,18.1-3.07,2.98-4.47,2.23-7.07-1.31-3.44,1.65-6.47,1.05-6.9-3.7-9.92,1.25-12.64,4.63-13.81,16.37,3.91,3.46,4.29,5.94,1.11,7.46-13.27.76-28.15-4.9-36.81-16.7-2.79-3.81-4.25-9.26-6.38-12.27-6.17-3.31-11.78-4.15-16.82-2.52-1.21,3.32-2.8,5.61-4.77,6.86-10.27,2.12-20.06,3.81-30.49,4.34l-2.6-1.39c-1.42-10.58-13.31-9.86-15.04.2l-2.68,1.18c-13.77-.46-27.02-1.77-40.65-4.34-3.08,1.95-6.84,1.68-11.3-.83-5.91,13.69-15.8,22.74-29.36,24.01-5.38.34-5.92,1.05-11.43,0l-.96-1.7c-.25-4.49-.81-10.13-1.68-16.91l-3.02.59c-3.89-4.75-6.69-5.42-8.42-1.99-5.48-.16-8.86-.25-7.07,7.35-1.52,4.33-4.15,4.25-6.8,1.1-7.71-14.33-13.28-20.43-12.42-39.39.26-5.75,5.86-18.28,5.78-19.3-.05-.68-6.88-7.25-8.6-9.4l-1.32-3.02c5.2-12.07.56-21.06-11.24-15.44l-2.69-1.81c-2.12-3.57-8.25-19.45-9.1-20.05-1.63-1.16-14.99.23-19.19-.59-15.2-2.93-23.81-16.9-28.88-31.51-1-5.37,3.08-5.08,6.75-2.51,3.03-1.24,6.74-.94,9.92-.49l.7-3.69c3.76-2.78,5.94-4.67,2.44-8.61,1.02-6.85.59-9.51-5.33-8.89-1.98-4.32-3.4-6.35-6.09-1.62-3.63,2.03-8.78.26-8.39-4.6,3.9-15.89,18.36-29.29,32.72-31.49,3.66-.56,13.73.8,14.36.38.86-.57,8.15-16.41,10.09-19.6l2.59-1.54c10.64,7.37,21.62-3.24,11-13.95l.39-3.34c1.6-2.06,8.46-10.06,8.71-11.15.57-2.59-4.49-16.33-4.77-21.64-.88-16.56,5.87-24.19,12.59-36.72,2.08-2.85,3.7-1.73,4.32,1.89-.59.97,2.44,6.63,3.12,7.4,3.49,3.92,15.05,5.97,15.23-1.69,2.23-.95,3.78-2.94,4.65-5.97-3.15-3.09-4.21-14.79,1.89-14.67,2.11-.07,4.25-.05,6.36,0v-.03Z"/>
    <path class="st5" d="M690.51,626.12c-7.25,9.41-12.04,21.18-19.09,31.09-2.13,3-12.14,12.82-12.46,14.74-.29,1.69,5.05,12.01,5.84,16.07,3.93,20.01-2.97,43.65-20.02,52.53-9.26.44-10.07-11.44-1.27-11.59,2.75-4.02,8.9-12.97,8.9-18.1v-21.72c0-3.38-5.59-12.23-6.17-14.83-.9-4.04,8.05-11.29,10.63-14.84,7.33-10.04,13.32-20.93,18.39-32.63,2.4-1.68,11.59-.56,15.26-.71h-.01Z"/>
    <path class="st5" d="M656.21,429.13c12.75,16.18,11.83,38.95,2.73,57,11.46,13.63,22.27,28.42,29.03,45.84-4.47.03-8.22.39-12.59,1.36-3.49-10.58-9.43-20.62-15.39-29.57-2.68-4.02-12-13.56-13.38-16.72-1.48-3.4,5.78-13.03,5.78-16.62v-21.72c0-2.06-3.15-10.5-5.08-12.31-.75-7.64,2.89-12.3,8.9-7.25h0Z"/>
    <path class="st8" d="M623.18,413.2c4.71,1.04,4.66,3.8,5.73-2.91l5.69,2.91,1.91-8.68c1.71,6.4,4.9,2.75,5.78,3.49,2.68,2.22-2.11,7.6,8.82,3.76l-1.28,5.77,3.81.72-3.79,4.36c2.16,2.41,4.25,3.88,6.33,6.52-5.43-.3-7.9.76-3.81,5.77-1.72.16-4.4-.82-5.08,1.46-.4,1.33.29,4.09,0,5.79l-6.34-2.89-.02,5.77c-2.04.03-2.7-5.76-4.44-5.76-.9,0-3.12,5.45-5.71,4.32v-5.79l-3.8,1.44,1.26-7.23-7.61-.03c.01-1.76,3.81-4.32,3.79-5.05-.06-1.61-4.22-1.33-3.78-3.6l6.34-1.47-3.81-8.68h.01Z"/>
    <path class="st14" d="M292.9,563.83c9.97,5.56,5.16,2.52,10.13-4.34,1.23,5.73,1.69,4.29,5.1,1.44l.02,7.23,8.88-2.87c-2.03,4.62-5.01,7.37,1.27,7.94l-3.8,5.05,6.32,3.64c-3.33,3.76-6.84-.01-3.79,6.51h-5.08l1.27,8.69-6.33-4.34-1.91,4.34c-3.31-8.14-3.39-1.43-8.26,1.46v-6.51l-3.83,2.17c-3.28-9.45-4.52-5.35-6.36-7.26-2.39-2.51,3.79-3.94,3.79-5.05,0-1.62-4.75-1.24-3.8-4.33.45-1.44,6.64,1.5,2.54-9.42,5.69.84,3.08-1.36,3.81-4.36v.03Z"/>
    <path class="st4" d="M616.84,747.78c.35-4.56-3.15-4.52-6.36-4.36l3.81-5.75-3.81-2.91c6.84-.25,5.33-3.53,2.54-8.69l5.07-.03-1.26-5.79c8.54,9.56,7.34-2.98,9.52-2.87,2.01.11.26,7.74,5.71,1.42l.02,7.23,8.88-2.87-1.92,4.33,4.46,1.44c-1.03,1.51-4.12,5.08-3.81,6.48s4.6,2.72,5.08,5.11c-3.95,2.06-6.22-.61-3.81,5.79h-5.08l1.27,8.7-6.33-4.36-2.53,4.34c-1.64-8.25-3.63-.89-7.64,1.46l-.02-7.25-5.06,2.9c-.67-1.95,1.2-3.54,1.26-4.34h0Z"/>
    <path class="st4" d="M380.55,424.77c.04-.07-1.26-.93-.75-1.47,3.2-3.53,8.1,1.36.75-10.09l6.34,1.43-1.26-5.79,6.33,4.34,3.2-8.68c.98-.46.92,7.5,5.69,1.44l.02,7.23c2.6.29,4.79-2.32,7.2-2.52.96-.08,1.56,1.08,1.68,1.08l-2.55,5.79,3.81.72-3.78,4.36,6.32,4.34c-1.55,3.7-8.91-.45-2.53,7.95l-6.34-1.43,1.26,8.68c-2.43.9-3.8-3.43-5.69-2.9-1.67.46-1.11,4.75-3.18,4.36-1.66-8.08-4.06-2.7-7.64,0l-.02-7.25-5.06,2.9,1.26-7.23h-6.34c-.85-4.92,7.35-3.46,1.26-7.25v-.03Z"/>
    <path class="st7" d="M380.55,734.74c8.21-.18,3.13-3.92,1.27-8.68,4.35.27,5.82,1.12,5.1-4.37l6.33,2.91,1.3-7.25c1.98-.07,2.08,3.83,2.68,4.28,1.3.98,4.2-4.85,4.95,4.41l7.6-2.89c-3.46,7.27,1.45,7.49,1.27,7.95-.37,1.01-2.93,2.26-2.55,4.32.49,2.63,6.16,2.37,6.36,5.09-1.67.71-4.25.79-5.67,1.47-1.52.74,2.13,3.9-.67,4.34-1.17-.22-2.59.1-3.81,0l1.26,8.69c-4.52-2.47-6.19-5.9-6.97,1.44-1.78-2.17-1.68-5.87-5.07-4.32-1.97.9-.82,5.61-4.45,4.32v-7.23l-3.81,1.44,1.26-5.77-6.34-.03c-.6-3.02,2.53-3.73,2.58-6.5.01-1.05-1.87-.6-2.16-1.18-.61-1.21-.34-2.29-.42-2.45h-.01Z"/>
    <path class="st13" d="M722.27,562.38c-.52-12.58,6.34-4.6,8.4,3.08,2.39-1.54,4.25-1.61,5.57-.19.59.69,4.39-2.04,1.25,5.05l3.84.76c-7.44,9.42-2.21,4.97,2.53,11.56l-6.34,1.48,2.54,4.32-6.36.03c1.23,2.83,1.56,5.53,1.27,8.68-3.4.41-8.41-1.35-11.43-2.9-2.02,1.18-3.1,3.39-5.07,4.34l-.02-7.25-3.79,1.44,1.26-7.23-7.61-.03c8.69-5.38-1.06-7.48,0-8.66l6.34-1.48-3.8-8.68c7.19,4.68,4.24-2.81,5.72-2.91l5.69,2.91c.22-1.32-.3-3.3,0-4.34h.01Z"/>
    <path class="st9" d="M736.24,565.28c-9.92,9.29-8.32-5.24-12.07-7.23-.56,1.04-1.62,3.36-1.89,4.34-4.29-17.62-18.5-26.3-33.03-30.41,20.64.11,33.53,3.96,44.69,25.1,1.03,1.97,2.04,7.9,2.32,8.23v-.03Z"/>
    <path class="st9" d="M734.97,597.15c-.71,7.75-10.31,19.11-16.1,22.92-9.26,6.09-14.49,5.49-24.55,6.05,13.43-5.52,24.9-15.83,29.22-31.87,5.02-2.96,7.66-1.02,11.43,2.9Z"/>
    <path class="st3" d="M459.32,436.36c-2.92.63-9.94,4.56-12.52,2.68-.34-.25-2.09-6.41-3.44-8.39-7.08-10.36-16.15-15.89-27.23-18.92,19.63.45,32.41,4.37,43.19,24.62h0Z"/>
    <path class="st5" d="M460.58,723.15l-10.83,12.99c-10.72,10.19-16.96,9.36-29.82,10.17,12.47-4.64,22.18-13.2,27.89-26.87,1.41-.97,10.54,3.27,12.77,3.69h-.01Z"/>
    <path class="st2" d="M350.06,513.14c4.56-7.49,8.96-12.37,13.97-18.84,15.33,12.88.82,30.59-13.97,18.84Z"/>
    <path class="st2" d="M365.31,666.68c-5.07-6.28-11.09-13.25-15.24-20.28,15.91-8.62,23.43,4.17,15.24,20.28Z"/>
    <path class="st0" d="M521.56,727.5c-6.55.33-13.74.22-20.32,0,.92-15.77,20.3-15.93,20.32,0Z"/>
    <path class="st0" d="M552.04,723.15c-.07-10.46,7.64-13.71,15.4-9.53.46.25,5.96,4.85,6.19,5.19-7.33.48-14.42,2.86-21.59,4.34h0Z"/>
    <path class="st0" d="M396.74,510.49c14.18-3.23,17.57,18.33,6.75,22.27-16.17,5.88-18.59-19.57-6.75-22.27Z"/>
    <path class="st0" d="M386.56,580.05c14.89-3.7,17.47,19.69,5.77,22.61-14.89,3.7-17.47-19.69-5.77-22.61Z"/>
    <path class="st0" d="M602.57,624.92c15.38-2.29,15.85,29.54-3.59,22.27-7.76-2.9-7.6-20.61,3.59-22.27Z"/>
    <path class="st0" d="M555.52,582.91c12.29-2.91,18.01,18.21,6.75,22.27-16.88,6.09-18.64-19.45-6.75-22.27Z"/>
    <path class="st10" d="M695.19,558.5c8.31,8.68-1.16,25.99-13,18.44-12.19-7.78,1.26-30.71,13-18.44Z"/>
    <path class="st0" d="M606.31,672.78c17.59-4.73,17.84,20.16,5.78,22.63-12.95,2.66-16.27-19.8-5.78-22.63Z"/>
    <path class="st0" d="M500.32,637.3c-10.8-12.34,9.11-29.36,16.22-14.87,6.62,13.48-8.24,24-16.22,14.87Z"/>
    <path class="st0" d="M410.12,479.41c-10.8-12.34,9.11-29.36,16.22-14.87,6.62,13.48-8.24,24-16.22,14.87Z"/>
    <path class="st0" d="M494.51,507.62c13.08-2.22,15.83,18.89,6.8,22.25-17.98,6.71-19.31-20.14-6.8-22.25Z"/>
    <path class="st0" d="M461.5,564.23c11.14,12.71-9.2,29.1-16.21,14.87-6.28-12.73,7.91-24.35,16.21-14.87Z"/>
    <path class="st0" d="M472.91,666.98c19.3-6.51,18.14,24.01,3.88,22.61-11.08-1.1-12.98-19.53-3.88-22.61Z"/>
    <path class="st0" d="M423.37,684.35c20.04-6.81,18.02,27.44,1.62,22.29-8.88-2.79-10.11-19.41-1.62-22.29Z"/>
    <path class="st10" d="M558.02,661.17c15.41-5.33,19.2,19.45,5.79,22.62-13.41,3.17-15.91-19.13-5.79-22.62Z"/>
    <path class="st0" d="M605.02,532.27c15.41-5.33,19.2,19.45,5.79,22.62-13.41,3.17-15.91-19.13-5.79-22.62Z"/>
    <path class="st0" d="M507.24,561.18c12.27-2.91,18.02,18.21,6.75,22.27-15.81,5.71-19.21-19.3-6.75-22.27Z"/>
    <path class="st0" d="M606.33,442.41c12.27-2.91,18.02,18.21,6.75,22.27-15.81,5.71-19.21-19.3-6.75-22.27Z"/>
    <path class="st0" d="M455.12,507.62c13.53-2.3,15.75,18.92,6.8,22.25-17.71,6.62-19.04-20.18-6.8-22.25Z"/>
    <path class="st0" d="M559.29,507.62c13.01-2.23,17.13,18.36,6.82,22.27-17.97,6.8-17.96-20.35-6.82-22.27Z"/>
    <path class="st0" d="M340.84,546.71c17.26-4.09,15.17,30.83-3.15,21.83-8.46-4.15-5.45-19.79,3.15-21.83Z"/>
    <path class="st10" d="M384.03,617.73c12.34-1.35,15.66,19.2,5.79,22.57-16.52,5.62-19.56-21.06-5.79-22.57Z"/>
    <path class="st0" d="M437.39,617.73c12.7-1.4,14.19,20.43,3.49,22.84-16.41,3.7-17.28-21.3-3.49-22.84Z"/>
    <path class="st10" d="M544.05,452.61c16.02-5.46,20,19.95,5.77,22.62-11.51,2.15-16.09-19.11-5.77-22.62h0Z"/>
    <path class="st0" d="M652.03,588.76c12.93-4.4,19.38,13.17,11.03,19.79-14.52,11.49-23.26-15.63-11.03-19.79Z"/>
    <path class="st10" d="M475.44,455.5c21.18-7.19,16.12,32.48-1.81,20.28-6.82-4.64-5.12-17.92,1.81-20.28Z"/>
    <path class="st10" d="M622.83,488.83c19.85-5.13,15.84,29.39-.59,21.76-7.99-3.7-7.5-19.68.59-21.76Z"/>
  </g>
</svg>