<?xml version="1.0" encoding="UTF-8"?>
<svg id="Ebene_1" xmlns="http://www.w3.org/2000/svg" version="1.1" viewBox="0 0 1024 1024">
  <!-- Generator: Adobe Illustrator 29.5.1, SVG Export Plug-In . SVG Version: 2.1.0 Build 141)  -->
  <defs>
    <style>
      .st0 {
        fill: #c60024;
      }

      .st1 {
        fill: #fe0c38;
      }

      .st2 {
        fill: #edbe00;
      }

      .st3 {
        fill: #ed8600;
      }

      .st4 {
        fill: #fed322;
      }

      .st5 {
        fill: #654128;
      }

      .st6 {
        fill: #a96100;
      }

      .st7 {
        fill: #a4001e;
      }

      .st8 {
        fill: #fe9711;
      }

      .st9 {
        fill: #c0ca33;
      }

      .st10 {
        fill: #827717;
      }

      .st11 {
        fill: #4e8f1e;
      }

      .st12 {
        fill: #ffe082;
      }

      .st13 {
        fill: #422d1e;
      }

      .st14 {
        fill: #47821c;
      }

      .st15 {
        fill: #382617;
      }

      .st16 {
        fill: #5eab24;
      }

      .st17 {
        fill: #6dc72a;
      }

      .st18 {
        fill: #2c1d10;
      }

      .st19 {
        fill: #553621;
      }

      .st20 {
        fill: #7ed53e;
      }
    </style>
  </defs>
  <g>
    <path class="st13" d="M90.26,571.18c63.94,5.94,85.73,42.71,106.88,69.65.15,2.61,1.62,6.23,7.73,5.75,189.22-23.88,392.03-23.1,577.39-4.58,73.45,13.99,43.32-.61,77.74-33.36,22.69-29.78,96.5-52.87,141.43-22.12,54.05,29.65,14.01,153.74-23.76,186.57-86.92,75.54-687.28,87.2-916.56,9.96-38.29-12.9-44.2-38.88-37.83-65.88-12.03-47.31-61.89-139.12,66.97-145.99h.01ZM961.47,604.54c-31.32-21.62-79.28,40.33-82.99,53.77,29.01,4.49,70.04,18.93,90.52,25.43,5.53-23.69,22.3-58.64-7.53-79.19h0ZM103.22,605.71c-65.82-24.82-48.31,55.03-42.1,74.32,83.16-31.26,125.33-14.07,42.1-74.32ZM488.4,652.11c-92.95-5.55-568.55,29.68-346.62,98.6,93.91,44.7,1027.12,45.81,733.01-65.53-109.17-27.23-267.16-34.2-386.39-33.07h0Z"/>
    <path class="st5" d="M934.91,825.7c-1.72,1.61-2.26,3.51-3.24,5.27-13.78,3.99-26.6,8.89-40.3,12.98-6.19,1.84-12.99,4.16-19.08,5.75-14.12,3.7-30.44,6.98-45.34,9.95-94.08,18.77-199,27.44-299.04,28.68-15.91.2-32.68.2-48.58,0-94.82-1.21-192.16-9.25-282.85-24.58-15.87-2.68-32.07-5.45-47.5-8.78-24.93-5.37-48.91-12.27-72.33-19.31-.17-.25-1.44-.82-1.94-1.56-.96-1.41-.52-3.57-3.46-3.13-.12-.36.08-.79,0-1.17v-.59c.01-3.34-3.44-6.33-5.4-9.36-1.46-3.84-2.3-7.9-3.77-11.71-.48-1.26-2.96-2.71-1.63-3.5h1.08c40.62,13.76,76.47,22.17,122.24,30,13.62,2.33,44.81,8.22,57.51,8.63.7.02,1.77.17,1.63-.31l-8.65-29.55c16.01,1.84,32.43,3.23,48.58,4.68l8.78,31.53c117.4,12.91,239.92,14.44,358.66,5.85,19.87-1.44,39.64-3.32,59.34-5.29l1.61-.88c4.47-10.13,10.62-20.15,12.07-30.62,15.54-1.25,30.93-2.45,46.42-4.1-.12,9.91-4.9,19.62-8.63,29.26,65.25-9.42,130.55-21.54,184.07-44.47,1.2.2.4,1.35.25,1.89-2.04,7.5-7.22,16.81-10.52,24.44h.02Z"/>
    <path class="st5" d="M906.85,870.18c-8.13,10.99-17.83,21.78-28.07,32.19-58.72,20.41-123.22,33.56-191.08,42.14-16.17,2.04-32.22,3.71-48.58,5.27-89.95,8.57-181.92,8.85-272.05.59-15.68-1.44-31.97-3.36-47.5-5.27-56.12-6.9-114.75-18.08-165.2-33.05-5.28-1.57-17.91-4.98-21.89-6.7-1.01-.44-1.71-1.57-2.92-2.38-1.4-.94-1.93-1.24-3.24-2.34,1.81-.18-.22-1.88-.66-2.27-1.79-1.57-4.03-3.18-5.81-4.75-1.52-1.64-3.35-3.52-4.88-5.26-5.22-5.95-10.37-12-14.55-18.15.48.33.79.68,1.44.95,18.7,7.6,46.25,14.82,67.65,20.12,16.94,4.19,33.27,7.64,50.74,11.12,84.83,16.89,170.53,25.64,261.26,26.92,14.45.2,29.8.18,44.26,0,94.58-1.21,186.12-11.79,273.13-31.02,19.02-4.2,34.53-7.72,52.9-12.88,19.81-5.56,39.52-11.28,57.22-18.73-.81,1.12-1.33,2.39-2.16,3.51h-.01Z"/>
    <path class="st5" d="M824.8,947.43c-4.54,2.97-9.2,5.94-14.03,8.78-1.3-.89-2.1.26-2.16,1.17-2.15,1.24-4.31,2.32-6.48,3.51-1.39.76-2.91,1.6-4.32,2.34-1.83.97-3.48,1.95-5.4,2.93-1.67.03-3.8.46-2.16,1.17-22.31,11.14-43.23,20.18-71.25,27.51-7.52,1.97-15.28,3.74-22.67,5.85-27.77,6.06-55.41,9.01-84.77,11.69-1.89.17-4.07-.26-4.83,1.18-2.14.09-4.34-.08-6.48,0-15.04.59-30.26.91-45.34,1.17-32.12.56-64.04.23-96.08-.59-5.34-.13-10.89.22-16.19,0-22.97-.94-47.49-3.15-70.17-5.85-6.46-.77-14.32-1.41-20.51-2.34-23.62-3.54-47.32-9.2-69.09-15.22s-41.05-13.83-59.38-22.82l1.06-.29c-1.14-.78-2.35-1.43-4.3-1.47-.37-.19-.71-.4-1.08-.59.37-1.12-.11-1.36-2.16-1.17-2.26-1.17-4.29-2.32-6.48-3.51l-1.08-.59c-1.08-.59-2.15-1.15-3.24-1.76.12-.81-.79-2.07-2.16-1.17-2.62-1.49-4.53-2.94-6.48-4.1l-3.24-1.76c-.34-.2-.74-.38-1.08-.59l.55-1.18c46.06,13.4,94.32,21.83,145.19,28.1,16.6,2.05,32.82,3.81,49.66,5.27,78.33,6.8,151.57,6.77,229.95.59,16.43-1.3,32.37-2.73,48.58-4.68,58.49-7.05,102.9-16.7,155.16-32.06,1.87-.55,2.74-1.45,2.45.45v.03Z"/>
    <path class="st15" d="M878.78,902.37l1.08.59c-15.83,15.8-33.92,30.64-55.06,44.48.29-1.91-.59-1-2.45-.45-52.27,15.36-96.68,25-155.16,32.06,7.77-11.31,18.1-22.32,20.51-34.53,67.87-8.58,132.36-21.73,191.08-42.14h0Z"/>
    <path class="st15" d="M129.56,902.95c1.21.81,1.9,1.94,2.92,2.38,3.98,1.72,16.61,5.14,21.89,6.7,50.45,14.97,109.08,26.16,165.2,33.05,2.16,11.55,11.6,22.15,19.43,32.77-50.87-6.27-99.13-14.7-145.19-28.1l-.55,1.18c-24.17-14.69-47.09-30.4-63.69-47.99h-.01Z"/>
    <path class="st15" d="M955.43,774.78c-3.46,7.08-4.84,15.31-8.44,22.62-.26.52-.66.77-1.68.82l2.56.55c-4.01,9.19-7.22,18.59-12.95,27.51.08-.18-.08-.4,0-.59,3.3-7.63,8.48-16.94,10.52-24.44.15-.54.94-1.69-.25-1.89-53.52,22.93-118.82,35.06-184.07,44.47,3.73-9.64,8.51-19.35,8.63-29.26,58.55-6.22,116.93-15.38,167.24-33.12,6.13-2.16,11.71-5.08,18.44-6.68h0Z"/>
    <path class="st13" d="M554.91,1014.74v1.17c-31.66.51-64.58.31-96.08-.59v-1.17c32.04.81,63.96,1.14,96.08.59Z"/>
    <path class="st18" d="M934.91,826.28c-6.64,15.43-15.98,29.25-26.99,43.89h-1.08c.83-1.12,1.35-2.39,2.16-3.51,8.45-11.7,15.95-23.63,22.67-35.7.98-1.76,1.52-3.66,3.24-5.27-.08.18.08.4,0,.59h0Z"/>
    <path class="st18" d="M71.26,830.97c2.94-.44,2.5,1.72,3.46,3.13.5.74,1.77,1.31,1.94,1.56.32.48-.06,1.55.46,2.36,6.91,10.65,15.57,20.9,22.21,31.59h-1.08c-8.5-10.66-23.21-27.58-26.99-38.63h0Z"/>
    <path class="st13" d="M442.63,1014.15v.59c-24.54-1.02-46.45-3.01-70.17-5.85v-.59c22.68,2.7,47.2,4.91,70.17,5.85Z"/>
    <path class="st18" d="M818.22,642.46"/>
    <path class="st18" d="M819.3,643.63"/>
    <path class="st18" d="M961.9,770.1c-5.75,4.33-11.2,22.19-14.03,28.68l-2.56-.55c1.02-.05,1.42-.3,1.68-.82,3.6-7.31,4.98-15.54,8.44-22.62.95-1.94,2-4.33,6.48-4.68h0Z"/>
    <path class="st13" d="M697.41,1000.69c-28.87,6.58-59.09,11.57-90.68,12.88.76-1.44,2.95-1.01,4.83-1.18,29.35-2.68,57-5.63,84.77-11.69h1.08,0Z"/>
    <path class="st15" d="M600.25,1013.56c-4.71,1.58-10.61.93-15.7,1.15-1.38.06-2.83.61-3.19.61h-16.19c-2.11,0-6.87.53-10.26.59v-1.17c15.09-.26,30.3-.58,45.34-1.17h0Z"/>
    <path class="st13" d="M59.38,804.05c.39.03.84-.06,1.08,0v.59c-1.32.79,1.15,2.25,1.63,3.5,1.47,3.81,2.31,7.87,3.77,11.71-3.29-5.1-6.3-10.46-8.64-15.8.71.03,1.46-.05,2.16,0h0Z"/>
    <path class="st13" d="M351.95,1005.96v.59c-23.71-3.57-48.71-8.35-69.09-15.8,21.78,6.02,45.47,11.68,69.09,15.22h0Z"/>
    <path class="st13" d="M907.93,870.18c-8.62,11.47-17.14,21.87-28.07,32.77l-1.08-.59c10.24-10.41,19.94-21.19,28.07-32.19h1.08Z"/>
    <path class="st15" d="M372.46,1008.3v.59c-6.97-.83-13.14-1.23-20.51-2.34v-.59c6.19.93,14.05,1.57,20.51,2.34Z"/>
    <path class="st15" d="M71.26,829.21v.59c-4.03-2.72-4.17-6.72-5.4-9.95,1.96,3.03,5.41,6.02,5.4,9.36Z"/>
    <path class="st18" d="M458.82,1014.15v1.17c-5.38-.15-10.82-.36-16.19-.59v-.59c5.3.22,10.86-.13,16.19,0h0Z"/>
    <path class="st13" d="M100.41,870.18c4.19,6.15,9.33,12.21,14.55,18.15,1.53,1.74,3.36,3.61,4.88,5.26-8.64-7.61-14.98-15.7-21.59-24h1.08c.64.06.76.36,1.08.59h0Z"/>
    <path class="st15" d="M719,994.84l-9.29,3.45c-3.95.84-8.43,1.52-12.3,2.4h-1.08c7.39-2.11,15.15-3.89,22.67-5.85h0Z"/>
    <path class="st15" d="M126.32,900.61c-2.8-2.37-4.37-4.74-6.48-7.02,1.78,1.57,4.02,3.17,5.81,4.75.45.39,2.47,2.1.66,2.27h.01Z"/>
    <path class="st15" d="M223.48,967.92c-1.14-.56-2.14-1.2-3.24-1.76,1.95.03,3.16.69,4.3,1.47l-1.06.29h0Z"/>
    <path class="st15" d="M217,964.4c2.05-.19,2.53.05,2.16,1.17-.77-.39-1.43-.79-2.16-1.17Z"/>
    <path class="st15" d="M206.2,958.55c-.71-.4-1.46-.77-2.16-1.17,1.37-.9,2.28.36,2.16,1.17Z"/>
    <path class="st15" d="M792.41,966.16c-.74.38-1.41.8-2.16,1.17-1.64-.71.49-1.14,2.16-1.17Z"/>
    <path class="st15" d="M810.76,956.21c-.69.4-1.46.77-2.16,1.17.06-.91.86-2.06,2.16-1.17Z"/>
    <path class="st15" d="M197.57,953.28c-.91-.54-2.07-1.05-3.24-1.76l3.24,1.76Z"/>
    <path class="st15" d="M210.52,960.89c-.36-.2-.72-.39-1.08-.59l1.08.59Z"/>
    <path class="st15" d="M797.81,963.23c1.41-.74,2.93-1.58,4.32-2.34l-4.32,2.34Z"/>
    <path class="st18" d="M478.89,650.04c119.24-1.12,286.77,7.9,395.91,35.14,44.95,11.22,108.91,38.62,38.28,61.07-89.28,28.37-237.17,34.58-339.68,34.36-233.27-.49-301.28,1.98-430.7-26.22-55.7-12.13-104.21-34.91-34.07-60.49,93.36-34.05,259.48-42.82,370.26-43.86h0Z"/>
    <path class="st15" d="M723.32,818.68c-1.45,10.47-7.6,20.49-12.07,30.62l-1.61.88c-19.7,1.97-39.47,3.85-59.34,5.29-118.74,8.6-241.26,7.06-358.66-5.85l-8.78-31.53c143.75,12.97,296.52,12.16,440.46.59h0Z"/>
    <path class="st15" d="M175.74,805.63c19.1,2.94,39.12,5.54,58.53,7.77l8.65,29.55c.13.48-.93.33-1.63.31-12.69-.42-43.89-6.3-57.51-8.63-45.78-7.83-81.63-16.24-122.24-30-.32-.11-.59-.46-1.08-.59-.23-.06-.69.03-1.08,0-3.53-8.75-6.83-17.51-9.72-26.34"/>
    <path class="st15" d="M798.89,898.27c-87.01,19.23-178.55,29.81-273.13,31.02l2.16-40.97c100.04-1.23,204.96-9.9,299.04-28.68l-28.07,38.63h0Z"/>
    <path class="st15" d="M479.34,888.32c.23,3.21-.3,6.47-.04,9.68.06.77,1.12,1.52,1.12,1.73v22.82c0,.19,1,.98,1.12,1.73.26,1.65-.23,3.35-.04,5-90.73-1.28-176.42-10.03-261.26-26.92l-23.75-38.63c90.68,15.33,188.02,23.37,282.85,24.58h0Z"/>
    <path class="st15" d="M148.99,854.96c5.01,12.37,11.79,24.57,20.51,36.29-21.4-5.3-48.95-12.52-67.65-20.12-.66-.27-.97-.62-1.44-.95-.32-.22-.44-.53-1.08-.59-6.64-10.69-15.29-20.94-22.21-31.59-.53-.81-.14-1.88-.46-2.36,23.42,7.04,47.4,13.94,72.33,19.31h0Z"/>
    <path class="st19" d="M527.92,888.32l-2.16,40.97c-14.46.18-29.81.2-44.26,0-.19-1.65.29-3.35.04-5-.12-.75-1.12-1.54-1.12-1.73v-22.82c0-.21-1.06-.97-1.12-1.73-.26-3.21.27-6.47.04-9.68,15.9.2,32.67.2,48.58,0h0Z"/>
    <path class="st15" d="M931.68,830.97c-6.72,12.07-14.22,24-22.67,35.7-17.7,7.45-37.41,13.17-57.22,18.73l20.51-35.7c6.09-1.59,12.89-3.91,19.08-5.75,13.7-4.08,26.52-8.99,40.3-12.98h0Z"/>
    <path class="st19" d="M196.49,863.74l23.75,38.63c-17.47-3.48-33.8-6.93-50.74-11.12-8.72-11.72-15.5-23.92-20.51-36.29,15.44,3.33,31.64,6.1,47.5,8.78h0Z"/>
    <path class="st19" d="M872.3,849.69l-20.51,35.7c-18.37,5.16-33.88,8.67-52.9,12.88l28.07-38.63c14.9-2.97,31.22-6.25,45.34-9.95Z"/>
    <path class="st18" d="M61.54,804.63h-1.08v-.59c.49.12.76.48,1.08.59Z"/>
    <path class="st18" d="M71.26,829.8v-.59.59Z"/>
    <path class="st15" d="M639.11,949.77l-20.51,33.94c-78.38,6.19-151.62,6.21-229.95-.59l-21.59-32.77c90.13,8.27,182.1,7.98,272.05-.59h0Z"/>
    <path class="st19" d="M687.69,944.51c-2.41,12.21-12.74,23.22-20.51,34.53-16.21,1.95-32.15,3.38-48.58,4.68l20.51-33.94c16.36-1.56,32.41-3.22,48.58-5.27h0Z"/>
    <path class="st19" d="M367.06,950.36l21.59,32.77c-16.84-1.46-33.06-3.22-49.66-5.27-7.83-10.62-17.27-21.23-19.43-32.77,15.53,1.91,31.82,3.83,47.5,5.27Z"/>
  </g>
  <g>
    <path class="st3" d="M498.79,388.42c92.68,4.47,157.4,95.78,133.75,185.15-15.45,58.42-69.02,104.3-129.75,109.32-7.95.66-16.71-.48-24.75,0l-.8-.8,3.4-2.02c111.72-15.3,162.63-157.2,86.68-240.56-23.22-25.48-56.3-46.87-91.4-48.68l-2.68-1.61c-.89-1.54-.39-2.04.8-.8,1.85-2.79,9.91-2.5,11.98,0,3.4-2.48,9.51-2.6,12.78,0h0Z"/>
    <path class="st8" d="M473.24,389.22c42.94-.54,92.17,36.86,112.72,72.88,51.02,89.44-5.66,208.75-108.72,219.99-16.32,1.78-49.59-11.75-63.81-20.42-97.14-59.22-93.38-202.39,6.32-256.5.04-.46.09-.91.24-1.33,1.05-3.07,32.02-13.44,37.17-14.13l6.51.3c.61-2.72,8.5-3.36,9.58-.8h0Z"/>
    <path class="st17" d="M398.99,328.57c-2.33-6.64-8.35-19.08,2.98-21.36,2.42-.49,10.48.31,13.38.62,35.04,3.77,60.66,23.41,72.27,56.65.6,1.19,1.16,2.46,1.16,3.82.05,6.27-.41,14.61-2.75,20.12-3.81.01-8.3-.35-11.98,0l-2.29-2.2c-9.35-31.27-37.46-53.84-70.09-55.92l-2.67-1.74h-.01Z"/>
    <path class="st20" d="M399,328.56c35.8,1.25,65.79,25.42,75.05,59.85-.36.04-.72.43-.8.8-2.81.04-6.84.35-9.58.8-8.12.94-35.49-12.81-37.88-18.93-.22-.58-.35-1.19-.44-1.82-6.79-2.74-14.21-12.41-17.84-18.97l.27-2.58c-3.98-6.54-6.26-11.97-8.78-19.15h0Z"/>
    <path class="st16" d="M364.66,385.22c.26-.63.54-1.23.91-1.78,3.05-4.48,22.79-11.27,29.01-12.96,9.37-2.54,21.8-4.59,30.76-1.22,10.88,9.9,24.38,16.35,38.33,20.75-12.32,2-32.9,9.19-43.91,15.16-20.47-.56-38.76-8.07-55.09-19.95h-.01Z"/>
    <path class="st6" d="M487.64,364.48c5.55-41.52,31.62-71.07,70.65-84.61,4.71-1.63,16.33-5.48,20.81-5.6,6.98-.18,9.25,8.16,3.5,11.55-3.81,2.25-15.68,4.12-21.12,6.03-16.97,5.96-32.81,16.09-43.82,30.42-14.51,18.89-19.74,42.55-18.85,66.15-4.21-.2-8.56-.01-12.78,0,.33-7.96.55-16.04,1.6-23.94h.01Z"/>
    <path class="st11" d="M407.77,347.71c4.49,7.36,11.21,15.76,17.57,21.56h-15.56c-16.31,1.74-31.21,7.57-45.12,15.95-2.52-1.83-10.41-7.4-11.37-9.78-3.62-8.99,4.81-12.65,11.36-16.17,13.06-7.02,28.18-11.55,43.13-11.55h-.01Z"/>
  </g>
  <g>
    <path class="st3" d="M195.33,461.86c3.27-2.6,9.38-2.48,12.78,0,2.07-2.5,10.13-2.79,11.98,0,1.19-1.24,1.69-.74.8.8l-2.68,1.61c-35.1,1.81-68.18,23.2-91.4,48.68-75.95,83.36-25.04,225.26,86.68,240.56l3.4,2.02-.8.8c-8.04-.48-16.8.66-24.75,0-60.73-5.02-114.3-50.9-129.75-109.32-23.65-89.37,41.07-180.68,133.75-185.15h0Z"/>
    <path class="st8" d="M220.88,462.65c1.08-2.56,8.97-1.92,9.58.8l6.51-.3c5.15.69,36.12,11.06,37.17,14.13.15.42.2.87.24,1.33,99.7,54.11,103.46,197.28,6.32,256.5-14.22,8.67-47.49,22.2-63.81,20.42-103.06-11.24-159.74-130.55-108.72-219.99,20.55-36.02,69.78-73.42,112.72-72.88h0Z"/>
    <path class="st17" d="M295.13,402l-2.67,1.74c-32.63,2.08-60.74,24.65-70.09,55.92l-2.29,2.2c-3.68-.35-8.17.01-11.98,0-2.34-5.51-2.8-13.85-2.75-20.12,0-1.36.56-2.63,1.16-3.82,11.61-33.24,37.23-52.88,72.27-56.65,2.9-.31,10.96-1.11,13.38-.62,11.33,2.28,5.31,14.72,2.98,21.36h-.01Z"/>
    <path class="st20" d="M295.13,402c-2.52,7.18-4.8,12.61-8.78,19.15l.27,2.58c-3.63,6.56-11.05,16.23-17.84,18.97-.09.63-.22,1.24-.44,1.82-2.39,6.12-29.76,19.87-37.88,18.93-2.74-.45-6.77-.76-9.58-.8-.08-.37-.44-.76-.8-.8,9.26-34.43,39.25-58.6,75.05-59.85h0Z"/>
    <path class="st16" d="M329.46,458.66c-16.33,11.88-34.62,19.39-55.09,19.95-11.01-5.97-31.59-13.16-43.91-15.16,13.95-4.4,27.45-10.85,38.33-20.75,8.96-3.37,21.39-1.32,30.76,1.22,6.22,1.69,25.96,8.48,29.01,12.96.37.55.65,1.15.91,1.78h-.01Z"/>
    <path class="st6" d="M206.5,437.92c1.05,7.9,1.27,15.98,1.6,23.94-4.22-.01-8.57-.2-12.78,0,.89-23.6-4.34-47.26-18.85-66.15-11.01-14.33-26.85-24.46-43.82-30.42-5.44-1.91-17.31-3.78-21.12-6.03-5.75-3.39-3.48-11.73,3.5-11.55,4.48.12,16.1,3.97,20.81,5.6,39.03,13.54,65.1,43.09,70.65,84.61h.01Z"/>
    <path class="st11" d="M286.35,421.16c14.95,0,30.07,4.53,43.13,11.55,6.55,3.52,14.98,7.18,11.36,16.17-.96,2.38-8.85,7.95-11.37,9.78-13.91-8.38-28.81-14.21-45.12-15.95h-15.56c6.36-5.8,13.08-14.2,17.57-21.56h-.01Z"/>
  </g>
  <g>
    <path class="st16" d="M492.58,741.42c-10.84,17.07-17.62,28.85-39.87,31.17h-13.51c-8.61-1.08-16.81-3.83-24.6-8.26-9.05-3.37-17.17.85-25.08,5.25-5.2,1.95-9.75,2.6-15.29,3-3.75-.27-7.89.37-11.58,0-10.87-1.09-23.88-7.56-30.85-16.27-15.71-27.09-34.52-53.54-49.41-81.02-21.31-39.31-20.4-86.04,9.52-120.23l1.08.85c-13.41,33.09-12.65,62.71,4.49,95.57,12.48,23.9,27.5,48.76,42.27,71.31,8.79,13.41,16.58,22.59,32.49,26.13,15.71,3.49,28.64-1.38,42.1-8.24,4.7-1.79,9.84-1.84,14.69-.45l21.02,7.97c14.41,4.97,28.8-.07,41.1-7.54l1.39.75v.02h.04Z"/>
    <path class="st17" d="M402.54,541.15c1.21-.77,2.86-.65,4.96.38,2.24-.95,4.01-1.07,5.32-.38,16.13-7.22,23.38-13.66,42.74-14.61,75.28-3.71,112.95,80.37,79.57,145.04-11.82,22.91-28.64,47.92-42.55,69.85l-11.24,5.98c-19.07,7.64-29.67,3.62-47.06-3.9-18.31-7.92-22.69,2.35-38.17,6.21-20.48,5.1-40.6-1.43-52.76-19.22-14.27-20.88-29.29-47.2-42.06-69.38-15.97-27.74-23.72-52.24-16.26-84.96l6.89-21.09c23.46-26.81,62.31-36.09,95.18-22.21,5.39,2.28,10.14,5.9,15.44,8.28h0Z"/>
    <path class="st16" d="M486.79,460.24c-3.17,1.65-6.9,2.45-11.16,2.39-2.98,1.04-5.69,1.35-8.14.92l-1.37.22c-2.11-2.02-4.94-1.8-8.49.66,0,0-15.36,9.19-46.07,27.57l-1.95.07c-1.83.13-2.17-.96-.64-1.99,7.97-23.12,23.01-40.73,46.94-46.1,6.94-1.55,22.18-2.98,28.83-1.2,3.38.91,6.23,4.22,6.33,7.94.1,3.5-2.71,6.65-4.28,9.51h0Z"/>
    <path class="st6" d="M408.97,490.08c.21.64.46,1.36.64,1.99,1.97-.23,3.77,7.98,3.7,9.62l-1.13.99c2.16,12.61,1.35,25.75.64,38.46-5.11,2.28-5.25,2.26-10.29,0,5.71-36.3-6.01-73.27-38.16-91.63-3.42-1.95-14.04-5.82-15.84-7.54-3.75-3.59-.56-10.09,5.64-8.47,24.06,6.29,47.07,32.94,54.78,56.58h.02Z"/>
    <path class="st17" d="M486.79,460.24c-14.21,25.97-42.06,52.13-73.32,42.44.55-.82,1.12-1.63,1.76-2.37s1.28-1.45,2.03-1.99c15.05-10.94,31.6-20.82,47.65-29.24,1.58-1.15,2.41-2.46,1.67-4.38l.92-1.15c5.85-2.68,12.95-2.73,19.29-3.32h0Z"/>
    <path class="st11" d="M467.49,463.55c3.02,6.42-5.44,8.18-9.43,10.49-15.24,8.85-30.36,18.18-44.58,28.63-.34-.11-.89.07-1.29,0-.48-2.75-1.76-7.88-2.57-10.61,10.25-5.54,19.76-12.65,29.8-18.69,4.31-2.59,20.6-12.89,24.49-12.48,1.36.14,3.01,1.41,3.6,2.64h0l-.02.02Z"/>
  </g>
  <g>
    <g>
      <path class="st2" d="M875.21,371.66c-17.3-71.1,118.67,74.13,75.68,190.74-5.59,16.19-57.3,107.79-102.18,136.94-26.09,22.68-132.67,57.59-162.87,51.95,134.89-17.22,213.37-281.07,189.37-379.64h0Z"/>
      <path class="st4" d="M858.42,515.69c8.86-19.58,12.14-38.09,14.4-66.67.81-10.25,5.03-100.39,14.74-90.57,122.37,123.81-33.91,368.99-198.36,393.48-8.2-19.96,34.33-55.59,45.5-69.61,38.35-40.4,93.48-99.79,123.72-166.64h0Z"/>
      <path class="st6" d="M680.06,765.49c-11.49,2.72-20.05-5.4-17.39-16.87,1.99-8.58,26.14-17.24,33.77-21.82-4.99,9.59-5.49,16.85,6.3,19.77,3.31.83,10.29,3.75,13.48,4.81-9.41,3.28-28.05,12.18-36.16,14.11Z"/>
    </g>
    <path class="st12" d="M890.56,367.77"/>
    <path class="st9" d="M918.79,387.76c-9.39-30.09-35.97-24.08-35.97-83.95-15.03,0-25.05,14.97-25.05,14.97,0,0,15.03,22.45,15.03,44.9,10.02,0,18.09-1.17,18.99,35.55"/>
    <path class="st9" d="M876.78,402.13s-8.84-18.84-5.7-40.6c2.94-20.34,23.27-3.22,23.27-3.22l-1.39,40.92"/>
    <path class="st10" d="M873,317.34l10.36-13.33c-15.55,0-25.91,13.33-25.91,13.33h15.55s0,0,0,0Z"/>
  </g>
  <g>
    <path class="st7" d="M645.13,617.5l.03-.02c3.17-2.82,11.42-2.23,14.37.8.56-.34,1.13-.65,1.74-.85,4.61-1.55,20.45,4.61,25.46,7.08s19.54,11.23,21.11,15.82c.2.61.31,1.25.38,1.9l-.12,3.39c-13.49,24.35-11.84,54.21,2.33,77.88l.19,3.33c3.28,2.53,5.4,5.61,7.54,9.09l-.36,2.08c-8.17,13.82-21.83,25.4-36.74,31.51-4.99,2.04-15.63,5.43-20.75,6-5.5.61-11.95-.45-17.57,0l-9.6-1.97c-1.91-.45-3.72-1.48-5.57-2.02l1.4-2.52c66.49-26.23,65.48-118.59-.08-145.01l-2.12-2.5c5.48-1.69,12.7-3.58,18.36-3.99h0Z"/>
    <path class="st1" d="M772.08,604.73h0c2.22-2.79,10.81-2.07,12.78.8,13.97,1.58,23.55,4.88,35.13,12.77,7.89,9.77,11.43,24.44,12.15,37.1,3,52.84-48.18,94.57-99.38,82.13-7.82-1.9-16.8-4.54-22.15-10.7-16.34-25.27-18.43-58.18-2.4-84.59-.22-.94-.45-2.02-.03-2.94,3.81-8.28,18.05-19.46,26.2-24.29,8.15-4.83,25.82-12.32,35.14-11.7,1,.07,1.84.79,2.56,1.42h0Z"/>
    <path class="st0" d="M627.56,771.53h0c-73.82-21.76-74.08-127.46-.8-150.04,57.92,20.65,72.98,96.9,24.33,136.44-7.26,5.9-15.36,9.3-23.53,13.59h0Z"/>
    <path class="st17" d="M855.12,446.71l-.02-.03c.17-.05,1.88.48,3.48-.03,5.01-1.58,20.73-7.39,24.83-7.12s6.96,5.11,5.04,8.96c-1.92,3.85-15.53,7.96-20.07,10.26-56.76,28.72-87.03,82.93-83.53,146.75-4.46-.51-8.04-1.05-12.78-.8-.44-.66-.84-1.35-1.14-2.07-2.11-5.13.13-22.92,1.01-29.52,4.86-36.35,20.64-70.91,47.09-96.55-62.79,30-122.19,78.4-157.04,140.08l-2.49,1.64c-4.84-.58-9.44-1.16-14.37-.8,22.71-41.78,52.97-77.95,90.77-106.79,29.93-22.84,64.11-41.7,99.25-55.22.19-1.39-1.82-.75-2.78-.79-1.99-.08-4,.02-5.99,0-.33-1.95.71-2.19,2.37-2.37l12.8-.02c.36-2.31,11.3-6.87,12.64-6.39.36.13.65.44.93.81h0Z"/>
    <path class="st0" d="M710.6,726.83c63.02,36.94,138.92-22.8,115.8-93l-6.41-15.54c46,31.35,47.32,98.21,1.37,130.26-31.57,22.03-77.32,17.52-103.57-10.55-2.04-2.17-5.39-8.39-7.19-11.17h0Z"/>
    <path class="st16" d="M659.5,382.08h0c.82-.29,1.67-.55,2.49-.68s1.63-.24,2.4-.12c21.02,3.23,45.55,12.22,65.35,20.26,37.37,15.16,74.75,31.94,110.85,49.15l.96,1.61c-.96.27-1.77,1.28-3.65,1.53-3.72.49-8.12-.91-11.52.86-43.05-.34-84.64-6.55-121.61-29.68-15.18-9.49-36.45-27.31-45.27-42.94h0Z"/>
    <path class="st16" d="M661.9,370.1h0c1.14-.68,1.51-1.03,2.97-1.4,4.54-1.15,13.95-1.6,18.95-1.82,66.13-2.91,132.56,22.91,170.49,78.24-3.37-.64-6.65-1.6-9.83-2.89-52.83-27.02-106.9-49.13-162.21-66.35-7.25-1.12-14.04-3.05-20.38-5.78h.01Z"/>
    <path class="st14" d="M661.88,370.1h0c26.29,3.9,52.14,13.74,76.85,23.34,39.36,15.29,77.44,33.65,115.57,51.67.34.5.85.83.8,1.6-3.73,1.19-8.47,4.14-13.57,5.59-1.55.18-2.69-.58-4.01-1.17-36.16-16.15-71.25-33.93-108.37-48.11-22.45-8.58-45.84-17.26-69.66-20.95-2.6-4.62-2.58-9,2.4-11.97h-.01Z"/>
  </g>
</svg>