<?xml version="1.0" encoding="UTF-8"?>
<svg id="Ebene_1" xmlns="http://www.w3.org/2000/svg" version="1.1" viewBox="0 0 1024 1024">
  <!-- Generator: Adobe Illustrator 29.5.1, SVG Export Plug-In . SVG Version: 2.1.0 Build 141)  -->
  <defs>
    <style>
      .st0 {
        fill: #3b7d57;
      }

      .st1 {
        fill: #af7d4a;
      }

      .st2 {
        fill: #cae1ad;
      }

      .st3 {
        fill: #90b657;
      }

      .st4 {
        fill: #69853d;
      }

      .st5 {
        fill: #cae0ac;
      }

      .st6 {
        fill: #654128;
      }

      .st7 {
        fill: #74bd8c;
      }

      .st8 {
        fill: #6a853e;
      }

      .st9 {
        fill: #90b658;
      }

      .st10 {
        fill: #91b658;
      }

      .st11 {
        fill: #6a3f13;
      }

      .st12 {
        fill: #422d1e;
      }

      .st13 {
        fill: #382617;
      }

      .st14 {
        fill: #74be8c;
      }

      .st15 {
        fill: #c9e0ac;
      }

      .st16 {
        fill: #2c1d10;
      }

      .st17 {
        fill: #553621;
      }
    </style>
  </defs>
  <g>
    <path class="st12" d="M97.55,580.37c63.94,5.94,85.73,42.71,106.88,69.65.15,2.61,1.62,6.23,7.73,5.75,189.22-23.88,392.03-23.1,577.39-4.58,73.45,13.99,43.32-.61,77.74-33.36,22.69-29.78,96.5-52.87,141.43-22.12,54.05,29.65,14.01,153.74-23.76,186.57-86.92,75.54-687.28,87.2-916.56,9.96-38.29-12.9-44.2-38.88-37.83-65.88-12.03-47.31-61.89-139.12,66.97-145.99h.01ZM968.76,613.73c-31.32-21.62-79.28,40.33-82.99,53.77,29.01,4.49,70.04,18.93,90.52,25.43,5.53-23.69,22.3-58.64-7.53-79.19h0ZM110.51,614.9c-65.82-24.82-48.31,55.03-42.1,74.32,83.16-31.26,125.33-14.07,42.1-74.32ZM495.69,661.3c-92.95-5.55-568.55,29.68-346.62,98.6,93.91,44.7,1027.12,45.81,733.01-65.53-109.17-27.23-267.16-34.2-386.39-33.07h0Z"/>
    <path class="st6" d="M942.2,834.89c-1.72,1.61-2.26,3.51-3.24,5.27-13.78,3.99-26.6,8.89-40.3,12.98-6.19,1.84-12.99,4.16-19.08,5.75-14.12,3.7-30.44,6.98-45.34,9.95-94.08,18.77-199,27.44-299.04,28.68-15.91.2-32.68.2-48.58,0-94.82-1.21-192.16-9.25-282.85-24.58-15.87-2.68-32.07-5.45-47.5-8.78-24.93-5.37-48.91-12.27-72.33-19.31-.17-.25-1.44-.82-1.94-1.56-.96-1.41-.52-3.57-3.46-3.13-.12-.36.08-.79,0-1.17v-.59c.01-3.34-3.44-6.33-5.4-9.36-1.46-3.84-2.3-7.9-3.77-11.71-.48-1.26-2.96-2.71-1.63-3.5h1.08c40.62,13.76,76.47,22.17,122.24,30,13.62,2.33,44.81,8.22,57.51,8.63.7.02,1.77.17,1.63-.31l-8.65-29.55c16.01,1.84,32.43,3.23,48.58,4.68l8.78,31.53c117.4,12.91,239.92,14.44,358.66,5.85,19.87-1.44,39.64-3.32,59.34-5.29l1.61-.88c4.47-10.13,10.62-20.15,12.07-30.62,15.54-1.25,30.93-2.45,46.42-4.1-.12,9.91-4.9,19.62-8.63,29.26,65.25-9.42,130.55-21.54,184.07-44.47,1.2.2.4,1.35.25,1.89-2.04,7.5-7.22,16.81-10.52,24.44h.02Z"/>
    <path class="st6" d="M914.14,879.37c-8.13,10.99-17.83,21.78-28.07,32.19-58.72,20.41-123.22,33.56-191.08,42.14-16.17,2.04-32.22,3.71-48.58,5.27-89.95,8.57-181.92,8.85-272.05.59-15.68-1.44-31.97-3.36-47.5-5.27-56.12-6.9-114.75-18.08-165.2-33.05-5.28-1.57-17.91-4.98-21.89-6.7-1.01-.44-1.71-1.57-2.92-2.38-1.4-.94-1.93-1.24-3.24-2.34,1.81-.18-.22-1.88-.66-2.27-1.79-1.57-4.03-3.18-5.81-4.75-1.52-1.64-3.35-3.52-4.88-5.26-5.22-5.95-10.37-12-14.55-18.15.48.33.79.68,1.44.95,18.7,7.6,46.25,14.82,67.65,20.12,16.94,4.19,33.27,7.64,50.74,11.12,84.83,16.89,170.53,25.64,261.26,26.92,14.45.2,29.8.18,44.26,0,94.58-1.21,186.12-11.79,273.13-31.02,19.02-4.2,34.53-7.72,52.9-12.88,19.81-5.56,39.52-11.28,57.22-18.73-.81,1.12-1.33,2.39-2.16,3.51h-.01Z"/>
    <path class="st6" d="M832.09,956.62c-4.54,2.97-9.2,5.94-14.03,8.78-1.3-.89-2.1.26-2.16,1.17-2.15,1.24-4.31,2.32-6.48,3.51-1.39.76-2.91,1.6-4.32,2.34-1.83.97-3.48,1.95-5.4,2.93-1.67.03-3.8.46-2.16,1.17-22.31,11.14-43.23,20.18-71.25,27.51-7.52,1.97-15.28,3.74-22.67,5.85-27.77,6.06-55.41,9.01-84.77,11.69-1.89.17-4.07-.26-4.83,1.18-2.14.09-4.34-.08-6.48,0-15.04.59-30.26.91-45.34,1.17-32.12.56-64.04.23-96.08-.59-5.34-.13-10.89.22-16.19,0-22.97-.94-47.49-3.15-70.17-5.85-6.46-.77-14.32-1.41-20.51-2.34-23.62-3.54-47.32-9.2-69.09-15.22s-41.05-13.83-59.38-22.82l1.06-.29c-1.14-.78-2.35-1.43-4.3-1.47-.37-.19-.71-.4-1.08-.59.37-1.12-.11-1.36-2.16-1.17-2.26-1.17-4.29-2.32-6.48-3.51l-1.08-.59c-1.08-.59-2.15-1.15-3.24-1.76.12-.81-.79-2.07-2.16-1.17-2.62-1.49-4.53-2.94-6.48-4.1l-3.24-1.76c-.34-.2-.74-.38-1.08-.59l.55-1.18c46.06,13.4,94.32,21.83,145.19,28.1,16.6,2.05,32.82,3.81,49.66,5.27,78.33,6.8,151.57,6.77,229.95.59,16.43-1.3,32.37-2.73,48.58-4.68,58.49-7.05,102.9-16.7,155.16-32.06,1.87-.55,2.74-1.45,2.45.45v.03Z"/>
    <path class="st13" d="M886.07,911.56l1.08.59c-15.83,15.8-33.92,30.64-55.06,44.48.29-1.91-.59-1-2.45-.45-52.27,15.36-96.68,25-155.16,32.06,7.77-11.31,18.1-22.32,20.51-34.53,67.87-8.58,132.36-21.73,191.08-42.14h0Z"/>
    <path class="st13" d="M136.85,912.14c1.21.81,1.9,1.94,2.92,2.38,3.98,1.72,16.61,5.14,21.89,6.7,50.45,14.97,109.08,26.16,165.2,33.05,2.16,11.55,11.6,22.15,19.43,32.77-50.87-6.27-99.13-14.7-145.19-28.1l-.55,1.18c-24.17-14.69-47.09-30.4-63.69-47.99h-.01Z"/>
    <path class="st13" d="M962.72,783.97c-3.46,7.08-4.84,15.31-8.44,22.62-.26.52-.66.77-1.68.82l2.56.55c-4.01,9.19-7.22,18.59-12.95,27.51.08-.18-.08-.4,0-.59,3.3-7.63,8.48-16.94,10.52-24.44.15-.54.94-1.69-.25-1.89-53.52,22.93-118.82,35.06-184.07,44.47,3.73-9.64,8.51-19.35,8.63-29.26,58.55-6.22,116.93-15.38,167.24-33.12,6.13-2.16,11.71-5.08,18.44-6.68h0Z"/>
    <path class="st12" d="M562.2,1023.93v1.17c-31.66.51-64.58.31-96.08-.59v-1.17c32.04.81,63.96,1.14,96.08.59Z"/>
    <path class="st16" d="M942.2,835.47c-6.64,15.43-15.98,29.25-26.99,43.89h-1.08c.83-1.12,1.35-2.39,2.16-3.51,8.45-11.7,15.95-23.63,22.67-35.7.98-1.76,1.52-3.66,3.24-5.27-.08.18.08.4,0,.59h0Z"/>
    <path class="st16" d="M78.55,840.16c2.94-.44,2.5,1.72,3.46,3.13.5.74,1.77,1.31,1.94,1.56.32.48-.06,1.55.46,2.36,6.91,10.65,15.57,20.9,22.21,31.59h-1.08c-8.5-10.66-23.21-27.58-26.99-38.63h0Z"/>
    <path class="st12" d="M449.92,1023.34v.59c-24.54-1.02-46.45-3.01-70.17-5.85v-.59c22.68,2.7,47.2,4.91,70.17,5.85Z"/>
    <path class="st16" d="M825.51,651.65"/>
    <path class="st16" d="M826.59,652.82"/>
    <path class="st16" d="M969.19,779.29c-5.75,4.33-11.2,22.19-14.03,28.68l-2.56-.55c1.02-.05,1.42-.3,1.68-.82,3.6-7.31,4.98-15.54,8.44-22.62.95-1.94,2-4.33,6.48-4.68h0Z"/>
    <path class="st12" d="M704.7,1009.88c-28.87,6.58-59.09,11.57-90.68,12.88.76-1.44,2.95-1.01,4.83-1.18,29.35-2.68,57-5.63,84.77-11.69h1.08,0Z"/>
    <path class="st13" d="M607.54,1022.75c-4.71,1.58-10.61.93-15.7,1.15-1.38.06-2.83.61-3.19.61h-16.19c-2.11,0-6.87.53-10.26.59v-1.17c15.09-.26,30.3-.58,45.34-1.17h0Z"/>
    <path class="st12" d="M66.67,813.24c.39.03.84-.06,1.08,0v.59c-1.32.79,1.15,2.25,1.63,3.5,1.47,3.81,2.31,7.87,3.77,11.71-3.29-5.1-6.3-10.46-8.64-15.8.71.03,1.46-.05,2.16,0h0Z"/>
    <path class="st12" d="M359.24,1015.15v.59c-23.71-3.57-48.71-8.35-69.09-15.8,21.78,6.02,45.47,11.68,69.09,15.22h0Z"/>
    <path class="st12" d="M915.22,879.37c-8.62,11.47-17.14,21.87-28.07,32.77l-1.08-.59c10.24-10.41,19.94-21.19,28.07-32.19h1.08Z"/>
    <path class="st13" d="M379.75,1017.49v.59c-6.97-.83-13.14-1.23-20.51-2.34v-.59c6.19.93,14.05,1.57,20.51,2.34Z"/>
    <path class="st13" d="M78.55,838.4v.59c-4.03-2.72-4.17-6.72-5.4-9.95,1.96,3.03,5.41,6.02,5.4,9.36Z"/>
    <path class="st16" d="M466.11,1023.34v1.17c-5.38-.15-10.82-.36-16.19-.59v-.59c5.3.22,10.86-.13,16.19,0h0Z"/>
    <path class="st12" d="M107.7,879.37c4.19,6.15,9.33,12.21,14.55,18.15,1.53,1.74,3.36,3.61,4.88,5.26-8.64-7.61-14.98-15.7-21.59-24h1.08c.64.06.76.36,1.08.59h0Z"/>
    <path class="st13" d="M726.29,1004.03l-9.29,3.45c-3.95.84-8.43,1.52-12.3,2.4h-1.08c7.39-2.11,15.15-3.89,22.67-5.85h0Z"/>
    <path class="st13" d="M133.61,909.8c-2.8-2.37-4.37-4.74-6.48-7.02,1.78,1.57,4.02,3.17,5.81,4.75.45.39,2.47,2.1.66,2.27h.01Z"/>
    <path class="st13" d="M230.77,977.11c-1.14-.56-2.14-1.2-3.24-1.76,1.95.03,3.16.69,4.3,1.47l-1.06.29h0Z"/>
    <path class="st13" d="M224.29,973.59c2.05-.19,2.53.05,2.16,1.17-.77-.39-1.43-.79-2.16-1.17Z"/>
    <path class="st13" d="M213.49,967.74c-.71-.4-1.46-.77-2.16-1.17,1.37-.9,2.28.36,2.16,1.17Z"/>
    <path class="st13" d="M799.7,975.35c-.74.38-1.41.8-2.16,1.17-1.64-.71.49-1.14,2.16-1.17Z"/>
    <path class="st13" d="M818.05,965.4c-.69.4-1.46.77-2.16,1.17.06-.91.86-2.06,2.16-1.17Z"/>
    <path class="st13" d="M204.86,962.47c-.91-.54-2.07-1.05-3.24-1.76l3.24,1.76Z"/>
    <path class="st13" d="M217.81,970.08c-.36-.2-.72-.39-1.08-.59l1.08.59Z"/>
    <path class="st13" d="M805.1,972.42c1.41-.74,2.93-1.58,4.32-2.34l-4.32,2.34Z"/>
    <path class="st16" d="M486.18,659.23c119.24-1.12,286.77,7.9,395.91,35.14,44.95,11.22,108.91,38.62,38.28,61.07-89.28,28.37-237.17,34.58-339.68,34.36-233.27-.49-301.28,1.98-430.7-26.22-55.7-12.13-104.21-34.91-34.07-60.49,93.36-34.05,259.48-42.82,370.26-43.86h0Z"/>
    <path class="st13" d="M730.61,827.87c-1.45,10.47-7.6,20.49-12.07,30.62l-1.61.88c-19.7,1.97-39.47,3.85-59.34,5.29-118.74,8.6-241.26,7.06-358.66-5.85l-8.78-31.53c143.75,12.97,296.52,12.16,440.46.59h0Z"/>
    <path class="st13" d="M183.03,814.82c19.1,2.94,39.12,5.54,58.53,7.77l8.65,29.55c.13.48-.93.33-1.63.31-12.69-.42-43.89-6.3-57.51-8.63-45.78-7.83-81.63-16.24-122.24-30-.32-.11-.59-.46-1.08-.59-.23-.06-.69.03-1.08,0-3.53-8.75-6.83-17.51-9.72-26.34"/>
    <path class="st13" d="M806.18,907.46c-87.01,19.23-178.55,29.81-273.13,31.02l2.16-40.97c100.04-1.23,204.96-9.9,299.04-28.68l-28.07,38.63h0Z"/>
    <path class="st13" d="M486.63,897.51c.23,3.21-.3,6.47-.04,9.68.06.77,1.12,1.52,1.12,1.73v22.82c0,.19,1,.98,1.12,1.73.26,1.65-.23,3.35-.04,5-90.73-1.28-176.42-10.03-261.26-26.92l-23.75-38.63c90.68,15.33,188.02,23.37,282.85,24.58h0Z"/>
    <path class="st13" d="M156.28,864.15c5.01,12.37,11.79,24.57,20.51,36.29-21.4-5.3-48.95-12.52-67.65-20.12-.66-.27-.97-.62-1.44-.95-.32-.22-.44-.53-1.08-.59-6.64-10.69-15.29-20.94-22.21-31.59-.53-.81-.14-1.88-.46-2.36,23.42,7.04,47.4,13.94,72.33,19.31h0Z"/>
    <path class="st17" d="M535.21,897.51l-2.16,40.97c-14.46.18-29.81.2-44.26,0-.19-1.65.29-3.35.04-5-.12-.75-1.12-1.54-1.12-1.73v-22.82c0-.21-1.06-.97-1.12-1.73-.26-3.21.27-6.47.04-9.68,15.9.2,32.67.2,48.58,0h0Z"/>
    <path class="st13" d="M938.97,840.16c-6.72,12.07-14.22,24-22.67,35.7-17.7,7.45-37.41,13.17-57.22,18.73l20.51-35.7c6.09-1.59,12.89-3.91,19.08-5.75,13.7-4.08,26.52-8.99,40.3-12.98h0Z"/>
    <path class="st17" d="M203.78,872.93l23.75,38.63c-17.47-3.48-33.8-6.93-50.74-11.12-8.72-11.72-15.5-23.92-20.51-36.29,15.44,3.33,31.64,6.1,47.5,8.78h0Z"/>
    <path class="st17" d="M879.59,858.88l-20.51,35.7c-18.37,5.16-33.88,8.67-52.9,12.88l28.07-38.63c14.9-2.97,31.22-6.25,45.34-9.95Z"/>
    <path class="st16" d="M68.83,813.82h-1.08v-.59c.49.12.76.48,1.08.59Z"/>
    <path class="st16" d="M78.55,838.99v-.59.59Z"/>
    <path class="st13" d="M646.4,958.96l-20.51,33.94c-78.38,6.19-151.62,6.21-229.95-.59l-21.59-32.77c90.13,8.27,182.1,7.98,272.05-.59h0Z"/>
    <path class="st17" d="M694.98,953.7c-2.41,12.21-12.74,23.22-20.51,34.53-16.21,1.95-32.15,3.38-48.58,4.68l20.51-33.94c16.36-1.56,32.41-3.22,48.58-5.27h0Z"/>
    <path class="st17" d="M374.35,959.55l21.59,32.77c-16.84-1.46-33.06-3.22-49.66-5.27-7.83-10.62-17.27-21.23-19.43-32.77,15.53,1.91,31.82,3.83,47.5,5.27Z"/>
  </g>
  <g>
    <path class="st0" d="M503.68,492.14c-16.75-5.01-29.37-12.06-48.04-13.03-18.58-.97-33.37,4.33-50.46,9.77,1.2-6.77-1.01-20.83-5.67-26.37-1.33-1.6-5.81.21-7.68-1.73,1.2,9.4.72,18.06-2.93,26.99-1.53,1.03-25.37-10.5-26.38-12.07-.82-1.3,2.47-15.34,2.08-19.8-.48-5.42-3.38-10.45-4.64-15.69l-3.4,13.57c-2.69,3.79-3.89,13.68-9.97,10.28-1.4-.78-16.27-14.91-16.58-15.99-.65-2.25,4.55-14.37,4.56-19.23,0-2.3-4.72-22.97-7.03-20.01.59,7.96-1.78,18.7-7.6,24.84-2.09,2.21-4.6-3.76-5.59-5.49-4.49-7.86-16.07-45.62-16.79-54.64-3.8-47.04,70.59-38.3,101.83-33.94l-3.44,4.89-13.94,11.32c12.32,1.27,20.3-1.49,29.54-8.66,1.45-1.13,1.99-3.7,3.67-4.22,3.62-1.12,29.31,9.56,29.33,11.25-5.04,6.18-10.5,12.39-18.51,15.14,10.65,5.4,21.47-2.15,30.53-6.87,4.35.79,21.86,23.01,22.6,27.68,1.18,7.35-21.09,9.88-26.48,9.47,9.75,8.69,23.53,11.06,35.9,5.96l20.88,50.86c3.27,11.95,3.25,24.83,0,36.79-.52,3.71-5.98,2.53-5.8-1.08v-.03Z"/>
    <path class="st0" d="M528.02,468.34l19.75-47.59c12.92,4.76,25.74,3.04,35.88-5.97-5.2.4-24.9-2.57-26.55-7.73-1.54-4.85,18.21-27.23,23.66-30.65,7.77,8.03,19.4,11.73,30.7,8.63l-10.44-5.93c-3.15-3.36-8.54-6.18-8.01-11.29,6.81-1.64,20.42-10.73,27.1-9.85,2.51.32,10.53,9.03,16.06,11.07,6.01,2.21,11.82,2.15,18.19,1.95l-12.76-10.25-4.61-5.96c32.09-4.3,105.19-13.73,101.96,34.05-.65,9.72-4.96,16.73-7.53,25.42-3.57,12.1-4.59,26.37-14.46,35.71l-6.65-12.74-2.63-14.3c-4.14,8.89-5.92,18.86-4.55,28.58.35,2.47,4.4,10.62,4,11.47-.51,1.05-15.9,15.35-17.36,16.26-1.11.69-2,1.32-3.45,1.1-1.69-.25-6.74-12.58-7.34-14.94-.74-2.95.82-8.45-2.57-10.02-4.42,11.34-6.91,22.59-1.44,34.12l-.85,1c-2.97,2.34-25.15,13.82-26.68,12.5-.46-4.65-3.06-8.86-3.48-13.54-.42-4.66,1.05-8.95.59-13.5-1.88,1.92-6.35.14-7.68,1.73-4.91,5.84-6.21,19.17-5.67,26.38-17.57-6.1-32.36-10.95-51.61-9.77-18.02,1.1-27.8,7.53-43.42,11.95-.04,3.11-1.24,3.49-3.48,1.08-1.72,3.41-4.38,2.49-4.64-1.08-.98-1.41-2-2.96-2.12-4.68-.38-5.62-.99-27.55.6-30.85.39-.83.94-1.58,1.52-2.34l-.04-.03Z"/>
    <path class="st3" d="M458.48,519.2l1.76,1.44c1.28,14.09,12.76,31.94,28.04,35.13,2.51-4.62,4.49-2.97,7.93-.05,10.97,17.87,39.91,16.27,50.58-1.13,4.94-5.06,6.85-2.57,9.25,2.56,6.96-5.04,11.26-14.11,11.39-22.63l2.29-2.32c3.76.1,7.13,2.34,10.11,6.68,2.51,4.4,5.33,6.5,8.44,6.29.89,1.12,1.52,2.15,2.31,3.24.69,1.1.69,1.83,0,2.17-5,5.8-9.85,12.22-14.53,19.26l-13.38,10.86c-.17.43,1.58,8.95,2.06,8.97,10.1.17,25.49-22.54,23.44-32.29l2.39-2.47c4.31,2.75,7.64,6.98,9.97,12.72.89,4.43,2.59,7.05,5.1,7.84.26,1,.98,1.91,1.16,3.24-2.46,1.8-16.51,19.06-15.98,20.26.17.39,7.24,3.18,8.28,3.04,3.38-.48,6.19-16.16,5.45-19.48l2.25-1.65c2.59,4.06-.1,23.29,4.26,24.74,1.57.52,3.53-.06,5.02.16,8.06,2.28,20.37,7.44,22.01,15.14-.17.78-.39,1.53-.74,2.23-3.82,7.51-36.58,15.35-46.49,15.05,16.63,12.26,40.42,5.71,47.05-12.98l2.5-1.06c2.36-1.32,4.7.17,7.04,4.48l6.66,10.38,2.51.29c.46.75.76,1.45,1.16,2.17,1.31,2.97.93,4.05-1.16,3.24l-1.71-.4c-18.23,12.2-39.98,20.45-62.9,19.04,19.22,14.11,52,4.7,61.47-16.08l3.14-1.48c.55-.16,1.08-.25,1.58-.14,1.15.23,8.05,18.97,8.2,20.71l-1.67,2.15-1.07,3.74c-18.8,16.78-50.42,26.44-74.22,14.61l-21.83-2.35c-16.63,10.16-39.37,9.24-58.57,6.16-8.87-1.43-20.56-4.92-16.16-15.25-13.47,3.79-28.39,6.03-41.46,1.26-27.33,9.6-56.56.45-76.41-19,2.12-8.77,5.5-16.72,9.28-24.89,1.63,1.71,2.03.99,1.16-2.17,4.05-8.15,6.58-13.35,12.75-20.56,3.7,3.24,4.09,2.89,1.16-1.08,3.16-3.48,6.58-7.45,10.53-10.19,3.11-2.15,12.87-5.42,13.27-6,.44-.61,1.18-10.21,1.69-13.03.84-.51,1.67-.62,2.53-.23,1.16,8.81,5.49,13.74,12.99,14.82,4.14,5.14,7.5,5.55,10.03,1.25-8.54-6.28-17.12-12.96-22.92-21.7l-.33-3.87c2.93-9.58,7.17-20.3,13.9-28.14,1.32.1,1.59-.73,1.16-2.17,2.85-7.46,10.58-14.77,16.23-20.56h.03Z"/>
    <path class="st3" d="M375.04,660.94l3.07,1.35c10.83,23.9,43.01,35.18,66.16,19.08,7.67-7.12,10.31-3.87,7.62,4.35,13.61,5.65,27.91,2.86,41.16-2.65,13.64,20.93,48.3,26.02,67.31,9.01,6.25-10.41,12.57-10.71,11.82,2.41,1.53,1.88,20.09,2.83,21.1,1.58-3.51-7.33,2.73-8.71,7.5-3.31,21.39,12.37,52,6.57,63.18-15.38l3.11-1.3c2.6,3.43,3.85,7.9,3.74,13.42-.38,3.98.31,7.09,2.06,9.3-.18,3.58-.14,4.24-1.16,7.58-1.67.65-2.7.6-3.33-.91-17.08,10.17-47.79,23.83-65.25,8.93-9.52,2.31-19.51,2.87-29.93,1.7-7.33,15.09,17.43,9.56,26.44,7.38,4.49-3.34,7.64-3.98,9.49-1.96-6.7,19.54-29.51,27.67-45.18,10.82-.34,3.18-2.43,7.33-2.42,10.36,0,2.74,3.95,0,1.25,4.79-20.41,5.36-41.87,9.32-62.33.71l-3.72-3.96c-2.94-9.16-4.63-17.53-5.81-27.05l-7.47,9.77c-18.72,16.3-40.03.48-45.82-18.43l2.53-1.05c9.75,9.24,21.96,12.91,35.82,9.94,2.22-.48,14.89-4.48,15.47-5.04.27-.27-3.61-5.83-4.23-5.89-14.87,3.31-31.83,3.58-46.02-1.82-1.28,1.13-2.47,2.41-3.58,3.85-.43-.23-1.74.22-2.31,0-21.22.77-42.03-.01-59.83-13.82l-2.76,1.92c-1.83-5.31-1.58-13.28-1.15-18.92.43-5.75,2.29-11.23,3.46-16.78h0Z"/>
    <path class="st4" d="M375.04,657.69c2.16-1.7,2.64-.09,4.06,1.04,16.44,13.07,33.09,21.18,55.61,19.49,5.11-.38,12.2-3.19,16.21-3.24,3.62-.04,8.85,1.88,12.79,2.15,12.07.83,21.77-1.95,33-5.39-5,12.15-2.67,12.82,9.03,15.91,12.92,3.41,32.56,3.59,45.73,1.12,4.89-.92,15.01-5.97,17.61-6.06,1.87-.06,18.76,1.64,20.9,2.02,2.82.51,5.1,3.56,10.58,4.19,27.95,3.22,44.28-4.06,64.19-20.43-.51-3.61,1.86-4.71,4.64-2.17.17.61-.17,1.53,0,2.17.22,3.62-.55,6.15-2.31,7.58-10.27,24.45-43.59,32.02-67.09,18.82-2.03-1.14-4.04-4.91-5.92-3.13l2.31,5.94c-4.52,1.84-23.71,1.3-26.13-2.12-1.25-1.78.46-9.88-2.27-9.76-.59.03-4.82,6.71-6.34,8.14-17.53,16.61-57.79,13-69.06-9.23-10.36,5.94-22.6,7.64-34.41,5.13-10.37-2.21-9.67-2.62-6.68-11.63-24.6,23.98-64.78,12.16-76.47-17.31.21-.97-.22-2.31,0-3.24h.01Z"/>
    <path class="st9" d="M509.48,493.23l2.33,1.13c-2.17,9.68-.24,17.25,5.79,22.68,1.27-1.32,3.31-2.31,6.11-2.95.91-3.44,2.35-6.06,4.31-7.88,1.36.77,3.04,1.26,4.64,1.08,5.16,1.51,8.65,3.67,10.43,6.49l.76,2.31-11.16,13.98c10.8,11.76,11.6-3.93,11.68-12.32l2.19-1.8c5.46-.7,19.83,6.93,18.54,12.98,2.34,2.79-2.06,8.23-4.3,10.82-5.49,3.52-8.43,7.06-8.81,10.64.04,1.53-3.63,3.97-5.7,5.14-7.56,4.28-42.16,4.39-50.47.25-4.7-1.64-5.98-4.23-3.84-7.76l-19.69-13.31c-4.18-3.58-12.49-11.81-12.66-16.6,3.7-3.66,15.06-15.17,19.7-16.23,2.16,4.13,2.53,4.13,1.16,0,6.08-6.11,15.5-6.68,23.18-9.73,1.92.57,3.53,1.49,5.8,1.08h0Z"/>
    <path class="st4" d="M442.26,539.75c21.75,38.85,74.67,54.32,117.04,35.7-6.55,23-45.06,26.9-63.65,14.53-4.83-3.22-13.43-16.57-11.67-2.63-23.53-.83-46.28-23.22-42.87-45.45.18-1.22.97-1.65,1.16-2.17h-.01Z"/>
    <path class="st4" d="M459.63,518.11l13.89,14.63c3.02,3.8,20.64,11.89,20.8,15.05.07,1.31-1.71,4.07-1.07,4.92s18.87,4.18,21.44,4.33c5.92.36,30-2.08,34.22-4.84,1.89-1.25-.24-3.15.5-4.84.65-1.51,7.89-7.07,9.85-9.27,2.61-2.92,4.39-7.45,5.83-9.16-1.06-3.24,1.8-4,3.48-1.08,3.08.43,4.68,2.91,1.16,4.32.41,9.24-2.55,16.6-8.79,23.71-8.13,9.27-4.77,1.54-10.9-3.15-9.3,22.45-46.36,24.18-56.82,2.17-3.96-.7-1.38,3.71-6.09,3.08-13.22-1.76-31.37-25.67-28.65-38.79.37-.38.78-.71,1.16-1.08h0Z"/>
    <path class="st4" d="M385.48,630.63c16,11.68,45.08,21.08,65.38,18.3,3.71-.51,5.91-2.78,9.32-3.21,5.55-.7,12.48.44,18.45-.08,8.17-.71,18.58-3.46,25.65-7.44.55,9.93-14.78,17.96-23.71,20.06-4.52,1.06-19.09,2.92-22.55.61-1.95-1.3.47-6.93-1.25-8.77-22.01,20.31-63.31,10.19-72.43-17.31.35-.78.8-1.44,1.16-2.17h0Z"/>
    <path class="st4" d="M609.14,721.53c-2.18.01-6.13,3.15-8.95,4.09-7.45,2.45-14.71,3.13-22.62,2.13-12.52-1.57-6.28-4.61-6.68-13.8,8.79.32,17.17.61,25.95-.1,2.06-.17,6.06-1.91,7.15-1.74.86.13,2.9,5.33,11.54,6.16,18.88,1.8,38.63-5.55,53.32-16.22l2.87,4.33c-.78,2.56-2.57,5.74-3.48,8.66-9.09,17.31-35.28,22.22-52.16,11.9-2.01-1.95-3.68-5.44-6.95-5.41h0Z"/>
    <path class="st1" d="M528.02,440.22c.84,8.68-.08,19.18,0,28.14.1,12.29.68,25.7,0,37.87-.38,6.7-1.48,12.56-10.43,10.82-3.82-2.15-4.96-4.14-3.48-5.96l-1.54-.34c-.93-23.04-1.19-46.29-.77-69.78l2.31-1.3c-2.51-5.7,13.01-5.55,13.9.55h0Z"/>
    <path class="st4" d="M435.31,708.54c-2.59,3.28-7.5,7.22-11.59,8.66-15.81,10.42-44.3.62-50.99-16.23-.17-1.35,0-2.92,0-4.32-.01-1.96-.51-4.87.57-6.49,9.55,8.32,25.2,15.09,38.27,16.21,6.4.55,15.03-.97,20.87.03,2.35.4,2.65,2.06,2.86,2.15h.01Z"/>
    <path class="st4" d="M496.73,744.24c21.74,9.99,40.35,7.86,62.54,1.6,2.25-.64,4.01-1.6,3.5,1.66-2.05,3.65-4.87,7.09-8.11,9.73-10.94,15.17-42.79,12.48-53.31-2.17-1.95-4.01-3.17-6.28-4.64-10.82h.01Z"/>
    <path class="st4" d="M399.38,609c9.92,6.11,22.3,11.74,34.32,12.85,6.87.64,14.4-1.04,20.73,1.19l.56-4.31c4.9,3.66,39.93-2.18,40.57-4.89l-2.33-4.84c23.39,7.64,46.64,7.54,67.81-5.4,3.01-.67.65,2.57.21,3.45-9.55,18.99-34.48,25.09-54.74,18.22-8.09-2.74-6.11-4.44-10.95-9.77-4.25,10.64-16.51,17.99-28.53,18.27-1.18.03-9.3-.73-9.66-1.03-.56-.48-.68-8.32-1.79-9.67-17.56,19.62-51.67,12.48-57.37-12.99.34-.39.81-.7,1.16-1.08h0Z"/>
    <path class="st9" d="M554.67,757.23c-12.1,28.54-38.1,27.91-52.65.96-.64-1.19-.38-2.54-.67-3.13,4.46,1.52,7.47,4.81,11.94,6.7,12.76,5.4,30.64,4.26,41.36-4.54h.01Z"/>
    <path class="st9" d="M616.09,726.93c5.98-.22,11.58,3.15,17.95,3.32,14.08.38,24.94-6.13,34.19-15.22-2.86,9.3-2.13,17.14-12.36,23.63-15.57,9.88-29.37-1.62-39.8-11.72h.01Z"/>
    <path class="st10" d="M423.72,717.19c-20.73,25.63-47.39,13.42-50.99-16.23,4.01,1.91,5.58,5.96,8.7,8.64,10.4,8.93,29.12,12.21,42.29,7.58h0Z"/>
    <path class="st11" d="M509.48,456.44c.09-5.4-.78-12.8.07-17.79,1.65-9.69,17.19-11.63,18.47,1.56-2.05-3.06-13.9-2.93-13.9-.55v71.42c0,.61,3.24,4.49,3.48,5.96-11.6-2.26-7.94-14.76-8.11-23.8-.24-12.21-.21-24.58,0-36.79Z"/>
    <path class="st4" d="M427.19,570.04c7.5,10.88,16.72,18.45,27.82,25.95-2.84-.53-7.7,6.49-8.69,6.49-.5,0-5.3-5.23-7.15-6.29-2.89-1.65-7.24-1.93-8.24-2.58-2.04-1.32-4.23-11.49-6.06-13.82.68-3.78,1.19-6.06,2.31-9.73h.01Z"/>
    <path class="st4" d="M480.5,501.88c2.16.48,6.87,7.1,9.26,9.21,1.62,1.44,9.98,6.67,10.3,7.19.64,1.05-.89,3.83-.93,5.66-.03,1.32,1.29,2.93,1.14,4.31-.04.31-3.75,1.57-2.97,5.01-12.73-5.87-19.68-18.21-17.95-31.39.27-.06.89-.06,1.16,0h-.01Z"/>
    <path class="st8" d="M606.81,578.7c.09.7-.05,1.45,0,2.17.41,6.11-.65,18.77-6.32,22.83-3.17,2.28-10.83-4.74-15.69-3.36,7.6-5.75,11.56-13.65,17.04-20.27,1.8-2.18,2.31-1.43,4.98-1.36Z"/>
    <path class="st15" d="M656.66,639.29c-.98,1.95-1.89,3.22-4.02,1.05-4.04-4.11-5.96-13.24-12.2-16.2-1.72-.71-2.5-1.8-2.31-3.24-6.95-6.99-12.05-11.64-22.01-15.14,19.81,2.82,31.47,18.62,40.57,33.55h-.01Z"/>
    <path class="st15" d="M536.13,506.21l28.18,15.34c2.94,1.35,3.21,2.86,4.26,5.22,1.02.34,1.01.7,0,1.08-.97.18-2.94.44-3.48,1.08-4.4-5.78-11.71-10.01-18.54-12.98-.98-1.31-2.14-2.02-3.48-2.17l-11.59-4.33,1.16-2.15c.63-.06,2.48-.8,3.48-1.08h0Z"/>
    <path class="st5" d="M588.27,545.16l-3.45,4.32c-3.36-6.49-9.59-12.29-15.09-17.3-.12-2.6-.68-2.69-1.16-4.32-.1-.35.13-.79,0-1.08,8.73,2.1,14.62,12,19.7,18.39h0Z"/>
    <path class="st2" d="M605.66,575.45c-3.62,6.46-5.32-3.7-7.09-6.9-2.55-4.58-5.79-8.88-7.97-13.65-2.25-1.36-2.25-2.96,0-4.32v-2.17c6.89,9.34,12.05,15.4,15.06,27.05Z"/>
    <path class="st15" d="M669.4,666.35c-1.74.23-3.34,1.1-4.64,2.17l-8.11-22.72c-1.01-.36-1.01-.73,0-1.08.34-.83,1.74-1.67,1.16-3.24,5.02,8.76,8.69,14.77,11.59,24.89h0Z"/>
    <path class="st15" d="M672.87,698.8l-3.49,1.62c.72-8.1-2.53-16.36-2.31-24.35.08-2.62.12-5.62,2.31-7.58,2.89,11.25,4.08,18.34,3.48,30.29h.01Z"/>
    <path class="st7" d="M500.19,481.33c-39.67-43.11-89.98-79.54-148.08-98.15l-23.43-4.62c6.28-.29,12.61.4,18.77,1.39,48.18,7.68,109.38,48.61,139.95,83.56,4.59,5.24,10.2,11.59,12.76,17.83h.01Z"/>
    <path class="st14" d="M704.16,393.69l-17.36,3.79c-59.22,18.27-110.38,55.3-150.66,98.99,3.04-6.23,8.17-12.51,12.76-17.82,30.3-34.9,90.27-74.53,137.84-83.38,5.72-1.06,11.54-1.93,17.42-1.57h0Z"/>
    <path class="st4" d="M656.66,645.78c-8.09,20.48-31.11,29.06-53.37,25.49-5.84-.93-13.6-7.11-14.42-7.07-.95.05-1.2,2.93-2.55,3.24-5.45,1.3-23.61-2-26.42-7.59-9.84,19.96-39.2,25.16-54.48,7.58-.68-.79-7.08-8.27-2.5-7.42,5.75,1.06,11.76,3.48,17.72,4.04,13.52,1.28,25.65-1.79,38.69-4.2l-6.36-10.82c6.02,1.95,12.33,3.54,18.68,4.19,2.72.29,13.85-.35,14.35.13.61.6-1.5,6.38,1.89,7.42,2.46.75,16.06.39,19.41.04,8.83-.92,24.38-5.93,32.36-9.82,3.83-1.87,10.36-7.23,13.2-8.24,1.96-.7,4.51-1.05,3.82,1.95-.13.31.13.77,0,1.08v.03Z"/>
    <path class="st4" d="M638.11,620.9c.41.42,2.81-1.48,2.31,3.24-1.25,12.06-17.36,22.24-29.61,22.74-11.93.48-18.94-7.1-23.31-7.41-1.45-.1-2.97,1.96-5.54,2.05-10.64.4-24.71-8.47-27.29-18.45,10.6,2.62,21.36,5.11,32.44,4.33l-1.16,8.64c18.85.13,36.8-5,52.16-15.14h0Z"/>
    <path class="st4" d="M590.6,550.58v4.32c-.1,17.86-9.55,31.83-27.8,37.87,0-3.62-2.38-9.32-2.27-12.55.05-1.45,11.2-9.05,13.81-11.82,2.34-2.48,4.79-6.02,6.75-8.84,2.68-3.84,2.97-10.17,9.5-8.98h.01Z"/>
    <path class="st4" d="M437.62,708.54c-.25-.82-1.11-2.74-.95-3.06.1-.22,3.54-3.17,3.79-3.21.82-.12,5.68,2.15,7.56,2.52,13.63,2.63,29.78,2.84,42.91-1.66-2.51,10.01,12.79,13.67,20.88,15.68,12.02,3.01,23.9,3.87,36.2,1.35,8.18-1.67,15.17-6.37,22.9-8.92-12.46,32.38-62.4,31.08-79.52,2.79-13.33,6.94-28.01,9.2-42.23,2.66-4.85-2.23-7.6-6.02-11.55-8.15Z"/>
    <path class="st4" d="M543.08,513.78c3.84-3.09,3.25-.52,3.48,2.17.5,5.88.34,12.12-2.85,17.36-5.7,9.38-7.32-1.86-15.69-2.23,5.55-3.87,10.61-13.72,15.06-17.3h0Z"/>
  </g>
</svg>