<?xml version="1.0" encoding="UTF-8"?>
<svg id="Ebene_1" xmlns="http://www.w3.org/2000/svg" version="1.1" viewBox="0 0 1024 1024">
  <!-- Generator: Adobe Illustrator 29.5.1, SVG Export Plug-In . SVG Version: 2.1.0 Build 141)  -->
  <defs>
    <style>
      .st0 {
        fill: #f6bcbc;
      }

      .st1 {
        fill: #f6bbba;
      }

      .st2 {
        fill: #e41e22;
      }

      .st3 {
        fill: #e41d22;
      }

      .st4 {
        fill: #f6bbbb;
      }

      .st5 {
        fill: #591440;
      }

      .st6 {
        fill: #fce3dc;
      }

      .st7 {
        fill: #fce2db;
      }

      .st8 {
        fill: #e31e21;
      }

      .st9 {
        fill: #654128;
      }

      .st10 {
        fill: #d87cb0;
      }

      .st11 {
        fill: #8c1a5e;
      }

      .st12 {
        fill: #bba782;
      }

      .st13 {
        fill: #baa782;
      }

      .st14 {
        fill: #f1db4c;
      }

      .st15 {
        fill: #227346;
      }

      .st16 {
        fill: #422d1e;
      }

      .st17 {
        fill: #382617;
      }

      .st18 {
        fill: #65b5d5;
      }

      .st19 {
        fill: #fce3db;
      }

      .st20 {
        fill: #e49657;
      }

      .st21 {
        fill: #eb635a;
      }

      .st22 {
        fill: #2c1d10;
      }

      .st23 {
        fill: #2fab66;
      }

      .st24 {
        fill: #553621;
      }

      .st25 {
        fill: #aa886f;
      }
    </style>
  </defs>
  <g>
    <path class="st16" d="M86.52,577.47c63.94,5.94,85.73,42.71,106.88,69.65.15,2.61,1.62,6.23,7.73,5.75,189.22-23.88,392.03-23.1,577.39-4.58,73.45,13.99,43.32-.61,77.74-33.36,22.69-29.78,96.5-52.87,141.43-22.12,54.05,29.65,14.01,153.74-23.76,186.57-86.92,75.54-687.28,87.2-916.56,9.96-38.29-12.9-44.2-38.88-37.83-65.88-12.03-47.31-61.89-139.12,66.97-145.99ZM957.73,610.83c-31.32-21.62-79.28,40.33-82.99,53.77,29.01,4.49,70.04,18.93,90.52,25.43,5.53-23.69,22.3-58.64-7.53-79.19ZM99.48,612c-65.82-24.82-48.31,55.03-42.1,74.32,83.16-31.26,125.33-14.07,42.1-74.32ZM484.66,658.4c-92.95-5.55-568.55,29.68-346.62,98.6,93.91,44.7,1027.12,45.81,733.01-65.53-109.17-27.23-267.16-34.2-386.39-33.07Z"/>
    <path class="st9" d="M931.17,831.99c-1.72,1.61-2.26,3.51-3.24,5.27-13.78,3.99-26.6,8.89-40.3,12.98-6.19,1.84-12.99,4.16-19.08,5.75-14.12,3.7-30.44,6.98-45.34,9.95-94.08,18.77-199,27.44-299.04,28.68-15.91.2-32.68.2-48.58,0-94.82-1.21-192.16-9.25-282.85-24.58-15.87-2.68-32.07-5.45-47.5-8.78-24.93-5.37-48.91-12.27-72.33-19.31-.17-.25-1.44-.82-1.94-1.56-.96-1.41-.52-3.57-3.46-3.13-.12-.36.08-.79,0-1.17v-.59c.01-3.34-3.44-6.33-5.4-9.36-1.46-3.84-2.3-7.9-3.77-11.71-.48-1.26-2.96-2.71-1.63-3.5h1.08c40.62,13.76,76.47,22.17,122.24,30,13.62,2.33,44.81,8.22,57.51,8.63.7.02,1.77.17,1.63-.31l-8.65-29.55c16.01,1.84,32.43,3.23,48.58,4.68l8.78,31.53c117.4,12.91,239.92,14.44,358.66,5.85,19.87-1.44,39.64-3.32,59.34-5.29l1.61-.88c4.47-10.13,10.62-20.15,12.07-30.62,15.54-1.25,30.93-2.45,46.42-4.1-.12,9.91-4.9,19.62-8.63,29.26,65.25-9.42,130.55-21.54,184.07-44.47,1.2.2.4,1.35.25,1.89-2.04,7.5-7.22,16.81-10.52,24.44Z"/>
    <path class="st9" d="M903.11,876.47c-8.13,10.99-17.83,21.78-28.07,32.19-58.72,20.41-123.22,33.56-191.08,42.14-16.17,2.04-32.22,3.71-48.58,5.27-89.95,8.57-181.92,8.85-272.05.59-15.68-1.44-31.97-3.36-47.5-5.27-56.12-6.9-114.75-18.08-165.2-33.05-5.28-1.57-17.91-4.98-21.89-6.7-1.01-.44-1.71-1.57-2.92-2.38-1.4-.94-1.93-1.24-3.24-2.34,1.81-.18-.22-1.88-.66-2.27-1.79-1.57-4.03-3.18-5.81-4.75-1.52-1.64-3.35-3.52-4.88-5.26-5.22-5.95-10.37-12-14.55-18.15.48.33.79.68,1.44.95,18.7,7.6,46.25,14.82,67.65,20.12,16.94,4.19,33.27,7.64,50.74,11.12,84.83,16.89,170.53,25.64,261.26,26.92,14.45.2,29.8.18,44.26,0,94.58-1.21,186.12-11.79,273.13-31.02,19.02-4.2,34.53-7.72,52.9-12.88,19.81-5.56,39.52-11.28,57.22-18.73-.81,1.12-1.33,2.39-2.16,3.51Z"/>
    <path class="st9" d="M821.06,953.72c-4.54,2.97-9.2,5.94-14.03,8.78-1.3-.89-2.1.26-2.16,1.17-2.15,1.24-4.31,2.32-6.48,3.51-1.39.76-2.91,1.6-4.32,2.34-1.83.97-3.48,1.95-5.4,2.93-1.67.03-3.8.46-2.16,1.17-22.31,11.14-43.23,20.18-71.25,27.51-7.52,1.97-15.28,3.74-22.67,5.85-27.77,6.06-55.41,9.01-84.77,11.69-1.89.17-4.07-.26-4.83,1.18-2.14.09-4.34-.08-6.48,0-15.04.59-30.26.91-45.34,1.17-32.12.56-64.04.23-96.08-.59-5.34-.13-10.89.22-16.19,0-22.97-.94-47.49-3.15-70.17-5.85-6.46-.77-14.32-1.41-20.51-2.34-23.62-3.54-47.32-9.2-69.09-15.22s-41.05-13.83-59.38-22.82l1.06-.29c-1.14-.78-2.35-1.43-4.3-1.47-.37-.19-.71-.4-1.08-.59.37-1.12-.11-1.36-2.16-1.17-2.26-1.17-4.29-2.32-6.48-3.51l-1.08-.59c-1.08-.59-2.15-1.15-3.24-1.76.12-.81-.79-2.07-2.16-1.17-2.62-1.49-4.53-2.94-6.48-4.1l-3.24-1.76c-.34-.2-.74-.38-1.08-.59l.55-1.18c46.06,13.4,94.32,21.83,145.19,28.1,16.6,2.05,32.82,3.81,49.66,5.27,78.33,6.8,151.57,6.77,229.95.59,16.43-1.3,32.37-2.73,48.58-4.68,58.49-7.05,102.9-16.7,155.16-32.06,1.87-.55,2.74-1.45,2.45.45Z"/>
    <path class="st17" d="M875.04,908.66l1.08.59c-15.83,15.8-33.92,30.64-55.06,44.48.29-1.91-.59-1-2.45-.45-52.27,15.36-96.68,25-155.16,32.06,7.77-11.31,18.1-22.32,20.51-34.53,67.87-8.58,132.36-21.73,191.08-42.14Z"/>
    <path class="st17" d="M125.82,909.24c1.21.81,1.9,1.94,2.92,2.38,3.98,1.72,16.61,5.14,21.89,6.7,50.45,14.97,109.08,26.16,165.2,33.05,2.16,11.55,11.6,22.15,19.43,32.77-50.87-6.27-99.13-14.7-145.19-28.1l-.55,1.18c-24.17-14.69-47.09-30.4-63.69-47.99Z"/>
    <path class="st17" d="M951.69,781.07c-3.46,7.08-4.84,15.31-8.44,22.62-.26.52-.66.77-1.68.82l2.56.55c-4.01,9.19-7.22,18.59-12.95,27.51.08-.18-.08-.4,0-.59,3.3-7.63,8.48-16.94,10.52-24.44.15-.54.94-1.69-.25-1.89-53.52,22.93-118.82,35.06-184.07,44.47,3.73-9.64,8.51-19.35,8.63-29.26,58.55-6.22,116.93-15.38,167.24-33.12,6.13-2.16,11.71-5.08,18.44-6.68Z"/>
    <path class="st16" d="M551.17,1021.03v1.17c-31.66.51-64.58.31-96.08-.59v-1.17c32.04.81,63.96,1.14,96.08.59Z"/>
    <path class="st22" d="M931.17,832.57c-6.64,15.43-15.98,29.25-26.99,43.89h-1.08c.83-1.12,1.35-2.39,2.16-3.51,8.45-11.7,15.95-23.63,22.67-35.7.98-1.76,1.52-3.66,3.24-5.27-.08.18.08.4,0,.59Z"/>
    <path class="st22" d="M67.52,837.26c2.94-.44,2.5,1.72,3.46,3.13.5.74,1.77,1.31,1.94,1.56.32.48-.06,1.55.46,2.36,6.91,10.65,15.57,20.9,22.21,31.59h-1.08c-8.5-10.66-23.21-27.58-26.99-38.63Z"/>
    <path class="st16" d="M438.89,1020.44v.59c-24.54-1.02-46.45-3.01-70.17-5.85v-.59c22.68,2.7,47.2,4.91,70.17,5.85Z"/>
    <path class="st22" d="M814.48,648.75"/>
    <path class="st22" d="M815.56,649.92"/>
    <path class="st22" d="M958.16,776.39c-5.75,4.33-11.2,22.19-14.03,28.68l-2.56-.55c1.02-.05,1.42-.3,1.68-.82,3.6-7.31,4.98-15.54,8.44-22.62.95-1.94,2-4.33,6.48-4.68Z"/>
    <path class="st16" d="M693.67,1006.98c-28.87,6.58-59.09,11.57-90.68,12.88.76-1.44,2.95-1.01,4.83-1.18,29.35-2.68,57-5.63,84.77-11.69h1.08Z"/>
    <path class="st17" d="M596.51,1019.85c-4.71,1.58-10.61.93-15.7,1.15-1.38.06-2.83.61-3.19.61h-16.19c-2.11,0-6.87.53-10.26.59v-1.17c15.09-.26,30.3-.58,45.34-1.17Z"/>
    <path class="st16" d="M55.64,810.34c.39.03.84-.06,1.08,0v.59c-1.32.79,1.15,2.25,1.63,3.5,1.47,3.81,2.31,7.87,3.77,11.71-3.29-5.1-6.3-10.46-8.64-15.8.71.03,1.46-.05,2.16,0Z"/>
    <path class="st16" d="M348.21,1012.25v.59c-23.71-3.57-48.71-8.35-69.09-15.8,21.78,6.02,45.47,11.68,69.09,15.22Z"/>
    <path class="st16" d="M904.19,876.47c-8.62,11.47-17.14,21.87-28.07,32.77l-1.08-.59c10.24-10.41,19.94-21.19,28.07-32.19h1.08Z"/>
    <path class="st17" d="M368.72,1014.59v.59c-6.97-.83-13.14-1.23-20.51-2.34v-.59c6.19.93,14.05,1.57,20.51,2.34Z"/>
    <path class="st17" d="M67.52,835.5v.59c-4.03-2.72-4.17-6.72-5.4-9.95,1.96,3.03,5.41,6.02,5.4,9.36Z"/>
    <path class="st22" d="M455.08,1020.44v1.17c-5.38-.15-10.82-.36-16.19-.59v-.59c5.3.22,10.86-.13,16.19,0Z"/>
    <path class="st16" d="M96.67,876.47c4.19,6.15,9.33,12.21,14.55,18.15,1.53,1.74,3.36,3.61,4.88,5.26-8.64-7.61-14.98-15.7-21.59-24h1.08c.64.06.76.36,1.08.59Z"/>
    <path class="st17" d="M715.26,1001.13l-9.29,3.45c-3.95.84-8.43,1.52-12.3,2.4h-1.08c7.39-2.11,15.15-3.89,22.67-5.85Z"/>
    <path class="st17" d="M122.58,906.9c-2.8-2.37-4.37-4.74-6.48-7.02,1.78,1.57,4.02,3.17,5.81,4.75.45.39,2.47,2.1.66,2.27Z"/>
    <path class="st17" d="M219.74,974.21c-1.14-.56-2.14-1.2-3.24-1.76,1.95.03,3.16.69,4.3,1.47l-1.06.29Z"/>
    <path class="st17" d="M213.26,970.69c2.05-.19,2.53.05,2.16,1.17-.77-.39-1.43-.79-2.16-1.17Z"/>
    <path class="st17" d="M202.46,964.84c-.71-.4-1.46-.77-2.16-1.17,1.37-.9,2.28.36,2.16,1.17Z"/>
    <path class="st17" d="M788.67,972.45c-.74.38-1.41.8-2.16,1.17-1.64-.71.49-1.14,2.16-1.17Z"/>
    <path class="st17" d="M807.02,962.5c-.69.4-1.46.77-2.16,1.17.06-.91.86-2.06,2.16-1.17Z"/>
    <path class="st17" d="M193.83,959.57c-.91-.54-2.07-1.05-3.24-1.76l3.24,1.76Z"/>
    <path class="st17" d="M206.78,967.18c-.36-.2-.72-.39-1.08-.59l1.08.59Z"/>
    <path class="st17" d="M794.07,969.52c1.41-.74,2.93-1.58,4.32-2.34l-4.32,2.34Z"/>
    <path class="st22" d="M475.15,656.33c119.24-1.12,286.77,7.9,395.91,35.14,44.95,11.22,108.91,38.62,38.28,61.07-89.28,28.37-237.17,34.58-339.68,34.36-233.27-.49-301.28,1.98-430.7-26.22-55.7-12.13-104.21-34.91-34.07-60.49,93.36-34.05,259.48-42.82,370.26-43.86Z"/>
    <path class="st17" d="M719.58,824.97c-1.45,10.47-7.6,20.49-12.07,30.62l-1.61.88c-19.7,1.97-39.47,3.85-59.34,5.29-118.74,8.6-241.26,7.06-358.66-5.85l-8.78-31.53c143.75,12.97,296.52,12.16,440.46.59Z"/>
    <path class="st17" d="M172,811.92c19.1,2.94,39.12,5.54,58.53,7.77l8.65,29.55c.13.48-.93.33-1.63.31-12.69-.42-43.89-6.3-57.51-8.63-45.78-7.83-81.63-16.24-122.24-30-.32-.11-.59-.46-1.08-.59-.23-.06-.69.03-1.08,0-3.53-8.75-6.83-17.51-9.72-26.34"/>
    <path class="st17" d="M795.15,904.56c-87.01,19.23-178.55,29.81-273.13,31.02l2.16-40.97c100.04-1.23,204.96-9.9,299.04-28.68l-28.07,38.63Z"/>
    <path class="st17" d="M475.6,894.61c.23,3.21-.3,6.47-.04,9.68.06.77,1.12,1.52,1.12,1.73v22.82c0,.19,1,.98,1.12,1.73.26,1.65-.23,3.35-.04,5-90.73-1.28-176.42-10.03-261.26-26.92l-23.75-38.63c90.68,15.33,188.02,23.37,282.85,24.58Z"/>
    <path class="st17" d="M145.25,861.25c5.01,12.37,11.79,24.57,20.51,36.29-21.4-5.3-48.95-12.52-67.65-20.12-.66-.27-.97-.62-1.44-.95-.32-.22-.44-.53-1.08-.59-6.64-10.69-15.29-20.94-22.21-31.59-.53-.81-.14-1.88-.46-2.36,23.42,7.04,47.4,13.94,72.33,19.31Z"/>
    <path class="st24" d="M524.18,894.61l-2.16,40.97c-14.46.18-29.81.2-44.26,0-.19-1.65.29-3.35.04-5-.12-.75-1.12-1.54-1.12-1.73v-22.82c0-.21-1.06-.97-1.12-1.73-.26-3.21.27-6.47.04-9.68,15.9.2,32.67.2,48.58,0Z"/>
    <path class="st17" d="M927.94,837.26c-6.72,12.07-14.22,24-22.67,35.7-17.7,7.45-37.41,13.17-57.22,18.73l20.51-35.7c6.09-1.59,12.89-3.91,19.08-5.75,13.7-4.08,26.52-8.99,40.3-12.98Z"/>
    <path class="st24" d="M192.75,870.03l23.75,38.63c-17.47-3.48-33.8-6.93-50.74-11.12-8.72-11.72-15.5-23.92-20.51-36.29,15.44,3.33,31.64,6.1,47.5,8.78Z"/>
    <path class="st24" d="M868.56,855.98l-20.51,35.7c-18.37,5.16-33.88,8.67-52.9,12.88l28.07-38.63c14.9-2.97,31.22-6.25,45.34-9.95Z"/>
    <path class="st22" d="M57.8,810.92h-1.08v-.59c.49.12.76.48,1.08.59Z"/>
    <path class="st22" d="M67.52,836.09v-.59.59Z"/>
    <path class="st17" d="M635.37,956.06l-20.51,33.94c-78.38,6.19-151.62,6.21-229.95-.59l-21.59-32.77c90.13,8.27,182.1,7.98,272.05-.59Z"/>
    <path class="st24" d="M683.95,950.8c-2.41,12.21-12.74,23.22-20.51,34.53-16.21,1.95-32.15,3.38-48.58,4.68l20.51-33.94c16.36-1.56,32.41-3.22,48.58-5.27Z"/>
    <path class="st24" d="M363.32,956.65l21.59,32.77c-16.84-1.46-33.06-3.22-49.66-5.27-7.83-10.62-17.27-21.23-19.43-32.77,15.53,1.91,31.82,3.83,47.5,5.27Z"/>
  </g>
  <g>
    <path class="st10" d="M404.58,516.96c51.43-1.29,102.88-1.29,154.31,0l1.01,1.55c-1.53,10.86,4.78,20.08,14.75,24.08,1.51-.9,3.5-.96,5.96-.17,2.41-.36,4.36-.09,5.86.83.57.19.57.41,0,.66l1.31.63v156.3l-1.31.82c-.45,1.83-5.08,2.22-5.91.66-11.91,4.22-15.21,10.25-16.61,22.11-.08.68-.55,1.18-1.12,1.55l-1.03-2.67c-55.25.07-110.52.04-165.76.04,0,1.92-2.19,1.84-2.63,0l-1.36-1.2c-.52-7.43-4.96-14.31-11.77-17.47l-.65-1.71,1.34-5.56c-1.84-51.25,2.35-104.1,0-155.17-.09-1.94-.63-3.65-.69-5.56l1.1-1.38c9.32-.82,17.56-7.99,19.11-17.32l1.46-1.02c0-1.92,2.19-1.84,2.63,0Z"/>
    <path class="st15" d="M626.53,502.5v162.34c-.47,1.89-2.43,1.69-3.28,0-17.86,1.65-26.01,23.8-14.28,37.06l-.17,1.06-5.25,5.26c-.18.56-.4.56-.66,0l-1.98.02c-3.7-3.01-8.28-4.75-13.02-5.18l-1.41-1.41v-157.74c7.77-2.77,13.92-7.49,16.61-15.52,3.05-9.09.6-14.01-4.03-21.54-.33-.54-.36-1.11-.1-1.72l-.41-1.45c1.05-1.67,6.39-7.18,8.29-6.44l1.85-.2c4.73,3.47,10.7,4.5,16.45,4.24l1.4,1.23Z"/>
    <path class="st23" d="M599.61,477.52l1.23,1.4c-.21,6,1.6,12.13,5.9,16.44l.09,1.87-7.88,7.89-.99.28c-3.03-2.44-6.35-4.57-10.17-5.54-3.23,1.36-9.25,1.34-12.48,0-7.22,3.05-13.08,8.1-14.93,16.11l-1.49.97h-154.31l-1.23-1.46c.18-5.72-2.11-10.87-5.27-15.46l.6-1.48,5.91-5.26,1.27-.42,5.3,3.71c1.23-.89,2.95-.77,5.16.33,2.33-.15,3.89.4,4.69,1.64,11.21-.75,20.56-8.25,21.6-19.76l1.38-1.28h155.63Z"/>
    <path class="st21" d="M629.81,459.12c22.17,7.69,19.49,38.94-3.28,43.38-6.89.56-14.32-.64-19.7-5.26-5.64-4.84-7.84-12.5-7.22-19.72,1.32-15.59,16.22-21.94,30.21-18.4Z"/>
    <path class="st21" d="M586.47,701.64c6.17.25,11.9,2.41,16.42,6.57,10.89,14.64,4.7,34.96-14.45,38.12-4.14.23-6.62-.04-10.51-1.31-19.87-8.93-18.29-36.43,2.63-42.72,2.29-.47,3.3-.76,5.91-.66Z"/>
    <path class="st21" d="M388.82,493.95c6.21,2.71,10.74,6.69,13.08,13.13.99,2.74,2.71,8.15.05,9.87-1.1,10.94-10.93,19.42-21.67,19.72-3.64.1-4.61-.21-7.88-1.31-20.26-9.66-17.68-36.93,3.94-42.72,5.69-.92,7.03-.46,12.48,1.31Z"/>
    <path class="st21" d="M626.53,664.84c1.86.02,2.89.33,4.6.66,23.13,6.3,22.14,38.44-1.31,43.38-6.09.85-7.42.83-13.13-1.31-20.51-9.35-15.89-40.18,6.57-42.72.92-.15,2.27-.01,3.28,0Z"/>
    <path class="st21" d="M379.63,702.96c8.38,3.26,13.67,11.54,13.79,20.37,2.45,2.22.61,7.46-.65,10.3-3.15,7.1-10.21,11.54-17.73,12.71-4.14.24-6.62-.04-10.51-1.31-19.99-9.12-18.41-36.3,2.63-42.72,4.48-.81,7.98-1.09,12.48.66Z"/>
    <path class="st21" d="M425.59,454.52c7.03,1.88,13.01,6.49,15.6,13.42,1.02,2.73,2.59,7.65.16,9.58,2.39,1.95-.08,7.44-1.47,9.92-4.02,7.19-11.02,10.3-18.89,11.11-4.54,0-5.75-.35-9.85-1.97-20.19-10.39-14.76-36.48,3.28-42.06,4.47-.88,6.64-.79,11.16,0Z"/>
    <path class="st8" d="M623.25,664.84c-17.56,2.79-24.41,25.58-12.17,38.15l5.61,4.58c-3.3-1.24-5.27-2.11-7.88-4.6-13.82-13.21-4.83-37.82,14.45-38.12Z"/>
    <path class="st4" d="M626.53,502.5c21.28-6.43,23.59-33.98,3.28-43.38,24.74,6.26,20.38,41.45-3.28,43.38Z"/>
    <path class="st0" d="M629.81,708.87c21.75-6.44,22.69-35.77,1.31-43.38,24.63,4.67,24.43,39.8-1.31,43.38Z"/>
    <path class="st2" d="M367.15,702.3l-7.17,4.33c-10.94,8.94-11.11,25.89-.06,34.78l4.6,3.61c-22.1-7.27-19.88-38.62,2.63-42.72Z"/>
    <path class="st2" d="M414.43,454.52l.41.73c-14.08,4.32-19.73,21.5-11.47,33.67l7.77,7.67c-2.07-.82-4.87-1.88-6.57-3.29-13.96-11.63-7.83-35.3,9.85-38.78Z"/>
    <path class="st2" d="M376.34,492.64l-7.44,4.06c-10.35,7.66-12.17,22.58-3.74,32.44l7.24,6.23c-22.02-7.45-19.45-38.92,3.94-42.72Z"/>
    <path class="st3" d="M580.56,702.3l-7.17,4.33c-10.94,8.94-11.11,25.89-.06,34.78l4.6,3.61c-8.77-2.88-14.57-9.71-15.1-19.06-.7-12.24,5.69-21.18,17.73-23.66Z"/>
    <path class="st4" d="M588.44,746.33c12.49-3.1,20.13-13.56,18.33-26.56-.46-3.33-2.63-5.88-3.83-8.69-.46-1.08-.95-1.76-.05-2.87.12.11.55-.11.66,0,13.15,13.39,4.25,37.02-15.1,38.12Z"/>
    <path class="st1" d="M396.04,723.33c.7,12.49-8.73,22.3-21.01,23,11.3-3.03,18.55-11.03,18.39-23h2.63Z"/>
    <path class="st13" d="M398.67,498.55c.35.29,3.91,6.88,4.29,7.86,1.29,3.36,1.9,6.93,1.62,10.54h-2.63c.96-9.58-4.86-18.65-13.13-23,4.96,1.62,4.67,1.86,8.54,4.86.43.33,1.26-.3,1.31-.26Z"/>
    <path class="st4" d="M443.98,477.52c-.03,1.92-2.19,1.84-2.63,0,.55-11.06-5.64-19.16-15.76-23,11.69,2.04,18.7,11.07,18.39,23Z"/>
    <path d="M394.07,580.71c41.45-.11,83-.4,124.66-.87l.77,1.32v121.97s-1.32,1.79-1.32,1.79h-124.11s0-124.22,0-124.22Z"/>
    <path class="st20" d="M518.18,704.93v-124.22s-124.11,0-124.11,0v-.66l2.75-1.31,120.53.13c8.77-8.04,17.46-16.08,26.09-24.13l1.66-.32v124.53c-.5,2.51-9.26,9.3-11.51,11.5-2.6,2.54-13.15,14.11-15.41,14.48Z"/>
    <path class="st14" d="M545.1,554.42c-9.32,8.3-17.3,18.04-27.27,25.62h-123.76c8.61-8.92,17.24-18.25,26.61-26.26l122.82-.04,1.61.69Z"/>
    <path class="st21" d="M587.79,499.87c23.06,6.33,20.97,38.77-1.31,43.38-4.02,1.05-7.94.44-11.82-.66-21.69-8.81-18.18-36.38.66-42.72,3.9-.78,8.29-.73,12.48,0Z"/>
    <path class="st25" d="M598.95,505.12c13.27,12.68,5.46,35.97-12.48,38.78v-.66c3.72-.97,9.43-5.15,11.8-8.23,9.52-12.39,3.69-29.82-10.49-35.15,3.93.68,8.26,2.49,11.16,5.26Z"/>
    <path class="st2" d="M575.31,499.87l.41.73c-16.24,5.86-20.22,27.42-6.33,38.38l5.26,3.61c-11.62-3.3-17.96-13.76-15.76-25.63,1.59-8.57,7.83-15.37,16.42-17.09Z"/>
    <path class="st12" d="M443.98,477.52c-.34,12.87-10.51,21.03-22.98,21.03,2.75-1.01,5.62-1.23,8.33-2.51,6.98-3.29,11.65-10.87,12.03-18.52h2.63Z"/>
    <path class="st19" d="M635.07,476.21c-1.42-6.69-10.05-11.41-16.42-12.16,5.45-4.79,16.36.53,17.57,7.38.28,1.57.69,4.11-1.15,4.78Z"/>
    <path class="st6" d="M598.94,720.04c-1.3-.87-1.52-2.86-2.62-4.26-2.24-2.86-7.07-6.02-10.48-7.25-.73-.26-5.55-.04-3.96-1.61.43-.42,4.38-1.28,5.39-1.19,6.71.59,14.28,7.16,11.67,14.32Z"/>
    <path class="st6" d="M394.07,510.38l-3.94-5.58c-3.99-3.2-8.58-6.16-13.78-6.57,7.9-5.4,19.71,2.61,17.72,12.15Z"/>
    <path class="st6" d="M637.7,683.24c-.55-5.84-6.24-8.83-10.94-11.08l-5.48-2.06c7.25-4.05,19.18,2.84,17.7,11.46-.13.78-.39,1.56-1.28,1.67Z"/>
    <path class="st6" d="M385.53,720.04c-1.3-.87-1.52-2.86-2.62-4.26-2.24-2.86-7.07-6.02-10.48-7.25-.73-.26-5.55-.04-3.96-1.61.43-.42,4.38-1.28,5.39-1.19,6.71.59,14.28,7.16,11.67,14.32Z"/>
    <path class="st7" d="M433.47,472.26c-1.3-.87-1.52-2.86-2.62-4.26-3.56-4.53-9.08-6.97-14.44-8.54,7.49-5,20.15,3.75,17.06,12.81Z"/>
    <rect class="st18" x="407.21" y="593.85" width="97.84" height="97.93"/>
    <path class="st6" d="M595,516.95c-4.14-6.16-9.53-10.82-17.06-12.16,6.98-5.31,19.84,3.56,17.06,12.16Z"/>
    <path class="st11" d="M424.28,675.35l-.66-65.07h65.01c.01,5.9-.02,11.84,0,17.75l-1.13,2.46c-19.77,14.54-39.56,29.09-59.36,43.65l-3.86,1.21Z"/>
    <path class="st5" d="M488.63,628.03c.05,15.76-.04,31.56,0,47.33h-64.36s64.35-47.33,64.35-47.33Z"/>
  </g>
</svg>