<?xml version="1.0" encoding="UTF-8"?>
<svg id="Ebene_1" xmlns="http://www.w3.org/2000/svg" version="1.1" viewBox="0 0 1024 1024">
  <!-- Generator: Adobe Illustrator 29.5.1, SVG Export Plug-In . SVG Version: 2.1.0 Build 141)  -->
  <defs>
    <style>
      .st0 {
        fill: #ed8600;
      }

      .st1 {
        fill: #654128;
      }

      .st2 {
        fill: #a96100;
      }

      .st3 {
        fill: #fe9711;
      }

      .st4 {
        fill: #4e8f1e;
      }

      .st5 {
        fill: #422d1e;
      }

      .st6 {
        fill: #382617;
      }

      .st7 {
        fill: #5eab24;
      }

      .st8 {
        fill: #6dc72a;
      }

      .st9 {
        fill: #2c1d10;
      }

      .st10 {
        fill: #553621;
      }

      .st11 {
        fill: #7ed53e;
      }
    </style>
  </defs>
  <g>
    <path class="st5" d="M90.26,571.18c63.94,5.94,85.73,42.71,106.88,69.65.15,2.61,1.62,6.23,7.73,5.75,189.22-23.88,392.03-23.1,577.39-4.58,73.45,13.99,43.32-.61,77.74-33.36,22.69-29.78,96.5-52.87,141.43-22.12,54.05,29.65,14.01,153.74-23.76,186.57-86.92,75.54-687.28,87.2-916.56,9.96-38.29-12.9-44.2-38.88-37.83-65.88-12.03-47.31-61.89-139.12,66.97-145.99h.01ZM961.47,604.54c-31.32-21.62-79.28,40.33-82.99,53.77,29.01,4.49,70.04,18.93,90.52,25.43,5.53-23.69,22.3-58.64-7.53-79.19h0ZM103.22,605.71c-65.82-24.82-48.31,55.03-42.1,74.32,83.16-31.26,125.33-14.07,42.1-74.32ZM488.4,652.11c-92.95-5.55-568.55,29.68-346.62,98.6,93.91,44.7,1027.12,45.81,733.01-65.53-109.17-27.23-267.16-34.2-386.39-33.07h0Z"/>
    <path class="st1" d="M934.91,825.7c-1.72,1.61-2.26,3.51-3.24,5.27-13.78,3.99-26.6,8.89-40.3,12.98-6.19,1.84-12.99,4.16-19.08,5.75-14.12,3.7-30.44,6.98-45.34,9.95-94.08,18.77-199,27.44-299.04,28.68-15.91.2-32.68.2-48.58,0-94.82-1.21-192.16-9.25-282.85-24.58-15.87-2.68-32.07-5.45-47.5-8.78-24.93-5.37-48.91-12.27-72.33-19.31-.17-.25-1.44-.82-1.94-1.56-.96-1.41-.52-3.57-3.46-3.13-.12-.36.08-.79,0-1.17v-.59c.01-3.34-3.44-6.33-5.4-9.36-1.46-3.84-2.3-7.9-3.77-11.71-.48-1.26-2.96-2.71-1.63-3.5h1.08c40.62,13.76,76.47,22.17,122.24,30,13.62,2.33,44.81,8.22,57.51,8.63.7.02,1.77.17,1.63-.31l-8.65-29.55c16.01,1.84,32.43,3.23,48.58,4.68l8.78,31.53c117.4,12.91,239.92,14.44,358.66,5.85,19.87-1.44,39.64-3.32,59.34-5.29l1.61-.88c4.47-10.13,10.62-20.15,12.07-30.62,15.54-1.25,30.93-2.45,46.42-4.1-.12,9.91-4.9,19.62-8.63,29.26,65.25-9.42,130.55-21.54,184.07-44.47,1.2.2.4,1.35.25,1.89-2.04,7.5-7.22,16.81-10.52,24.44h.02Z"/>
    <path class="st1" d="M906.85,870.18c-8.13,10.99-17.83,21.78-28.07,32.19-58.72,20.41-123.22,33.56-191.08,42.14-16.17,2.04-32.22,3.71-48.58,5.27-89.95,8.57-181.92,8.85-272.05.59-15.68-1.44-31.97-3.36-47.5-5.27-56.12-6.9-114.75-18.08-165.2-33.05-5.28-1.57-17.91-4.98-21.89-6.7-1.01-.44-1.71-1.57-2.92-2.38-1.4-.94-1.93-1.24-3.24-2.34,1.81-.18-.22-1.88-.66-2.27-1.79-1.57-4.03-3.18-5.81-4.75-1.52-1.64-3.35-3.52-4.88-5.26-5.22-5.95-10.37-12-14.55-18.15.48.33.79.68,1.44.95,18.7,7.6,46.25,14.82,67.65,20.12,16.94,4.19,33.27,7.64,50.74,11.12,84.83,16.89,170.53,25.64,261.26,26.92,14.45.2,29.8.18,44.26,0,94.58-1.21,186.12-11.79,273.13-31.02,19.02-4.2,34.53-7.72,52.9-12.88,19.81-5.56,39.52-11.28,57.22-18.73-.81,1.12-1.33,2.39-2.16,3.51h-.01Z"/>
    <path class="st1" d="M824.8,947.43c-4.54,2.97-9.2,5.94-14.03,8.78-1.3-.89-2.1.26-2.16,1.17-2.15,1.24-4.31,2.32-6.48,3.51-1.39.76-2.91,1.6-4.32,2.34-1.83.97-3.48,1.95-5.4,2.93-1.67.03-3.8.46-2.16,1.17-22.31,11.14-43.23,20.18-71.25,27.51-7.52,1.97-15.28,3.74-22.67,5.85-27.77,6.06-55.41,9.01-84.77,11.69-1.89.17-4.07-.26-4.83,1.18-2.14.09-4.34-.08-6.48,0-15.04.59-30.26.91-45.34,1.17-32.12.56-64.04.23-96.08-.59-5.34-.13-10.89.22-16.19,0-22.97-.94-47.49-3.15-70.17-5.85-6.46-.77-14.32-1.41-20.51-2.34-23.62-3.54-47.32-9.2-69.09-15.22s-41.05-13.83-59.38-22.82l1.06-.29c-1.14-.78-2.35-1.43-4.3-1.47-.37-.19-.71-.4-1.08-.59.37-1.12-.11-1.36-2.16-1.17-2.26-1.17-4.29-2.32-6.48-3.51l-1.08-.59c-1.08-.59-2.15-1.15-3.24-1.76.12-.81-.79-2.07-2.16-1.17-2.62-1.49-4.53-2.94-6.48-4.1l-3.24-1.76c-.34-.2-.74-.38-1.08-.59l.55-1.18c46.06,13.4,94.32,21.83,145.19,28.1,16.6,2.05,32.82,3.81,49.66,5.27,78.33,6.8,151.57,6.77,229.95.59,16.43-1.3,32.37-2.73,48.58-4.68,58.49-7.05,102.9-16.7,155.16-32.06,1.87-.55,2.74-1.45,2.45.45v.03Z"/>
    <path class="st6" d="M878.78,902.37l1.08.59c-15.83,15.8-33.92,30.64-55.06,44.48.29-1.91-.59-1-2.45-.45-52.27,15.36-96.68,25-155.16,32.06,7.77-11.31,18.1-22.32,20.51-34.53,67.87-8.58,132.36-21.73,191.08-42.14h0Z"/>
    <path class="st6" d="M129.56,902.95c1.21.81,1.9,1.94,2.92,2.38,3.98,1.72,16.61,5.14,21.89,6.7,50.45,14.97,109.08,26.16,165.2,33.05,2.16,11.55,11.6,22.15,19.43,32.77-50.87-6.27-99.13-14.7-145.19-28.1l-.55,1.18c-24.17-14.69-47.09-30.4-63.69-47.99h-.01Z"/>
    <path class="st6" d="M955.43,774.78c-3.46,7.08-4.84,15.31-8.44,22.62-.26.52-.66.77-1.68.82l2.56.55c-4.01,9.19-7.22,18.59-12.95,27.51.08-.18-.08-.4,0-.59,3.3-7.63,8.48-16.94,10.52-24.44.15-.54.94-1.69-.25-1.89-53.52,22.93-118.82,35.06-184.07,44.47,3.73-9.64,8.51-19.35,8.63-29.26,58.55-6.22,116.93-15.38,167.24-33.12,6.13-2.16,11.71-5.08,18.44-6.68h0Z"/>
    <path class="st5" d="M554.91,1014.74v1.17c-31.66.51-64.58.31-96.08-.59v-1.17c32.04.81,63.96,1.14,96.08.59Z"/>
    <path class="st9" d="M934.91,826.28c-6.64,15.43-15.98,29.25-26.99,43.89h-1.08c.83-1.12,1.35-2.39,2.16-3.51,8.45-11.7,15.95-23.63,22.67-35.7.98-1.76,1.52-3.66,3.24-5.27-.08.18.08.4,0,.59h0Z"/>
    <path class="st9" d="M71.26,830.97c2.94-.44,2.5,1.72,3.46,3.13.5.74,1.77,1.31,1.94,1.56.32.48-.06,1.55.46,2.36,6.91,10.65,15.57,20.9,22.21,31.59h-1.08c-8.5-10.66-23.21-27.58-26.99-38.63h0Z"/>
    <path class="st5" d="M442.63,1014.15v.59c-24.54-1.02-46.45-3.01-70.17-5.85v-.59c22.68,2.7,47.2,4.91,70.17,5.85Z"/>
    <path class="st9" d="M818.22,642.46"/>
    <path class="st9" d="M819.3,643.63"/>
    <path class="st9" d="M961.9,770.1c-5.75,4.33-11.2,22.19-14.03,28.68l-2.56-.55c1.02-.05,1.42-.3,1.68-.82,3.6-7.31,4.98-15.54,8.44-22.62.95-1.94,2-4.33,6.48-4.68h0Z"/>
    <path class="st5" d="M697.41,1000.69c-28.87,6.58-59.09,11.57-90.68,12.88.76-1.44,2.95-1.01,4.83-1.18,29.35-2.68,57-5.63,84.77-11.69h1.08,0Z"/>
    <path class="st6" d="M600.25,1013.56c-4.71,1.58-10.61.93-15.7,1.15-1.38.06-2.83.61-3.19.61h-16.19c-2.11,0-6.87.53-10.26.59v-1.17c15.09-.26,30.3-.58,45.34-1.17h0Z"/>
    <path class="st5" d="M59.38,804.05c.39.03.84-.06,1.08,0v.59c-1.32.79,1.15,2.25,1.63,3.5,1.47,3.81,2.31,7.87,3.77,11.71-3.29-5.1-6.3-10.46-8.64-15.8.71.03,1.46-.05,2.16,0h0Z"/>
    <path class="st5" d="M351.95,1005.96v.59c-23.71-3.57-48.71-8.35-69.09-15.8,21.78,6.02,45.47,11.68,69.09,15.22h0Z"/>
    <path class="st5" d="M907.93,870.18c-8.62,11.47-17.14,21.87-28.07,32.77l-1.08-.59c10.24-10.41,19.94-21.19,28.07-32.19h1.08Z"/>
    <path class="st6" d="M372.46,1008.3v.59c-6.97-.83-13.14-1.23-20.51-2.34v-.59c6.19.93,14.05,1.57,20.51,2.34Z"/>
    <path class="st6" d="M71.26,829.21v.59c-4.03-2.72-4.17-6.72-5.4-9.95,1.96,3.03,5.41,6.02,5.4,9.36Z"/>
    <path class="st9" d="M458.82,1014.15v1.17c-5.38-.15-10.82-.36-16.19-.59v-.59c5.3.22,10.86-.13,16.19,0h0Z"/>
    <path class="st5" d="M100.41,870.18c4.19,6.15,9.33,12.21,14.55,18.15,1.53,1.74,3.36,3.61,4.88,5.26-8.64-7.61-14.98-15.7-21.59-24h1.08c.64.06.76.36,1.08.59h0Z"/>
    <path class="st6" d="M719,994.84l-9.29,3.45c-3.95.84-8.43,1.52-12.3,2.4h-1.08c7.39-2.11,15.15-3.89,22.67-5.85h0Z"/>
    <path class="st6" d="M126.32,900.61c-2.8-2.37-4.37-4.74-6.48-7.02,1.78,1.57,4.02,3.17,5.81,4.75.45.39,2.47,2.1.66,2.27h.01Z"/>
    <path class="st6" d="M223.48,967.92c-1.14-.56-2.14-1.2-3.24-1.76,1.95.03,3.16.69,4.3,1.47l-1.06.29h0Z"/>
    <path class="st6" d="M217,964.4c2.05-.19,2.53.05,2.16,1.17-.77-.39-1.43-.79-2.16-1.17Z"/>
    <path class="st6" d="M206.2,958.55c-.71-.4-1.46-.77-2.16-1.17,1.37-.9,2.28.36,2.16,1.17Z"/>
    <path class="st6" d="M792.41,966.16c-.74.38-1.41.8-2.16,1.17-1.64-.71.49-1.14,2.16-1.17Z"/>
    <path class="st6" d="M810.76,956.21c-.69.4-1.46.77-2.16,1.17.06-.91.86-2.06,2.16-1.17Z"/>
    <path class="st6" d="M197.57,953.28c-.91-.54-2.07-1.05-3.24-1.76l3.24,1.76Z"/>
    <path class="st6" d="M210.52,960.89c-.36-.2-.72-.39-1.08-.59l1.08.59Z"/>
    <path class="st6" d="M797.81,963.23c1.41-.74,2.93-1.58,4.32-2.34l-4.32,2.34Z"/>
    <path class="st9" d="M478.89,650.04c119.24-1.12,286.77,7.9,395.91,35.14,44.95,11.22,108.91,38.62,38.28,61.07-89.28,28.37-237.17,34.58-339.68,34.36-233.27-.49-301.28,1.98-430.7-26.22-55.7-12.13-104.21-34.91-34.07-60.49,93.36-34.05,259.48-42.82,370.26-43.86h0Z"/>
    <path class="st6" d="M723.32,818.68c-1.45,10.47-7.6,20.49-12.07,30.62l-1.61.88c-19.7,1.97-39.47,3.85-59.34,5.29-118.74,8.6-241.26,7.06-358.66-5.85l-8.78-31.53c143.75,12.97,296.52,12.16,440.46.59h0Z"/>
    <path class="st6" d="M175.74,805.63c19.1,2.94,39.12,5.54,58.53,7.77l8.65,29.55c.13.48-.93.33-1.63.31-12.69-.42-43.89-6.3-57.51-8.63-45.78-7.83-81.63-16.24-122.24-30-.32-.11-.59-.46-1.08-.59-.23-.06-.69.03-1.08,0-3.53-8.75-6.83-17.51-9.72-26.34"/>
    <path class="st6" d="M798.89,898.27c-87.01,19.23-178.55,29.81-273.13,31.02l2.16-40.97c100.04-1.23,204.96-9.9,299.04-28.68l-28.07,38.63h0Z"/>
    <path class="st6" d="M479.34,888.32c.23,3.21-.3,6.47-.04,9.68.06.77,1.12,1.52,1.12,1.73v22.82c0,.19,1,.98,1.12,1.73.26,1.65-.23,3.35-.04,5-90.73-1.28-176.42-10.03-261.26-26.92l-23.75-38.63c90.68,15.33,188.02,23.37,282.85,24.58h0Z"/>
    <path class="st6" d="M148.99,854.96c5.01,12.37,11.79,24.57,20.51,36.29-21.4-5.3-48.95-12.52-67.65-20.12-.66-.27-.97-.62-1.44-.95-.32-.22-.44-.53-1.08-.59-6.64-10.69-15.29-20.94-22.21-31.59-.53-.81-.14-1.88-.46-2.36,23.42,7.04,47.4,13.94,72.33,19.31h0Z"/>
    <path class="st10" d="M527.92,888.32l-2.16,40.97c-14.46.18-29.81.2-44.26,0-.19-1.65.29-3.35.04-5-.12-.75-1.12-1.54-1.12-1.73v-22.82c0-.21-1.06-.97-1.12-1.73-.26-3.21.27-6.47.04-9.68,15.9.2,32.67.2,48.58,0h0Z"/>
    <path class="st6" d="M931.68,830.97c-6.72,12.07-14.22,24-22.67,35.7-17.7,7.45-37.41,13.17-57.22,18.73l20.51-35.7c6.09-1.59,12.89-3.91,19.08-5.75,13.7-4.08,26.52-8.99,40.3-12.98h0Z"/>
    <path class="st10" d="M196.49,863.74l23.75,38.63c-17.47-3.48-33.8-6.93-50.74-11.12-8.72-11.72-15.5-23.92-20.51-36.29,15.44,3.33,31.64,6.1,47.5,8.78h0Z"/>
    <path class="st10" d="M872.3,849.69l-20.51,35.7c-18.37,5.16-33.88,8.67-52.9,12.88l28.07-38.63c14.9-2.97,31.22-6.25,45.34-9.95Z"/>
    <path class="st9" d="M61.54,804.63h-1.08v-.59c.49.12.76.48,1.08.59Z"/>
    <path class="st9" d="M71.26,829.8v-.59.59Z"/>
    <path class="st6" d="M639.11,949.77l-20.51,33.94c-78.38,6.19-151.62,6.21-229.95-.59l-21.59-32.77c90.13,8.27,182.1,7.98,272.05-.59h0Z"/>
    <path class="st10" d="M687.69,944.51c-2.41,12.21-12.74,23.22-20.51,34.53-16.21,1.95-32.15,3.38-48.58,4.68l20.51-33.94c16.36-1.56,32.41-3.22,48.58-5.27h0Z"/>
    <path class="st10" d="M367.06,950.36l21.59,32.77c-16.84-1.46-33.06-3.22-49.66-5.27-7.83-10.62-17.27-21.23-19.43-32.77,15.53,1.91,31.82,3.83,47.5,5.27Z"/>
  </g>
  <g>
    <path class="st0" d="M654.84,459.21c3.27-2.6,9.38-2.48,12.78,0,2.07-2.5,10.13-2.79,11.98,0,1.19-1.24,1.69-.74.8.8l-2.68,1.61c-35.1,1.81-68.18,23.2-91.4,48.68-75.95,83.36-25.04,225.26,86.68,240.56l3.4,2.02-.8.8c-8.04-.48-16.8.66-24.75,0-60.73-5.02-114.3-50.9-129.75-109.32-23.65-89.37,41.07-180.68,133.75-185.15h0Z"/>
    <path class="st3" d="M680.39,460c1.08-2.56,8.97-1.92,9.58.8l6.51-.3c5.15.69,36.12,11.06,37.17,14.13.15.42.2.87.24,1.33,99.7,54.11,103.46,197.28,6.32,256.5-14.22,8.67-47.49,22.2-63.81,20.42-103.06-11.24-159.74-130.55-108.72-219.99,20.55-36.02,69.78-73.42,112.72-72.88h0Z"/>
    <path class="st8" d="M754.64,399.35l-2.67,1.74c-32.63,2.08-60.74,24.65-70.09,55.92l-2.29,2.2c-3.68-.35-8.17.01-11.98,0-2.34-5.51-2.8-13.85-2.75-20.12,0-1.36.56-2.63,1.16-3.82,11.61-33.24,37.23-52.88,72.27-56.65,2.9-.31,10.96-1.11,13.38-.62,11.33,2.28,5.31,14.72,2.98,21.36h-.01Z"/>
    <path class="st11" d="M754.64,399.35c-2.52,7.18-4.8,12.61-8.78,19.15l.27,2.58c-3.63,6.56-11.05,16.23-17.84,18.97-.09.63-.22,1.24-.44,1.82-2.39,6.12-29.76,19.87-37.88,18.93-2.74-.45-6.77-.76-9.58-.8-.08-.37-.44-.76-.8-.8,9.26-34.43,39.25-58.6,75.05-59.85h0Z"/>
    <path class="st7" d="M788.97,456.01c-16.33,11.88-34.62,19.39-55.09,19.95-11.01-5.97-31.59-13.16-43.91-15.16,13.95-4.4,27.45-10.85,38.33-20.75,8.96-3.37,21.39-1.32,30.76,1.22,6.22,1.69,25.96,8.48,29.01,12.96.37.55.65,1.15.91,1.78h-.01Z"/>
    <path class="st2" d="M666.01,435.27c1.05,7.9,1.27,15.98,1.6,23.94-4.22-.01-8.57-.2-12.78,0,.89-23.6-4.34-47.26-18.85-66.15-11.01-14.33-26.85-24.46-43.82-30.42-5.44-1.91-17.31-3.78-21.12-6.03-5.75-3.39-3.48-11.73,3.5-11.55,4.48.12,16.1,3.97,20.81,5.6,39.03,13.54,65.1,43.09,70.65,84.61h.01Z"/>
    <path class="st4" d="M745.86,418.51c14.95,0,30.07,4.53,43.13,11.55,6.55,3.52,14.98,7.18,11.36,16.17-.96,2.38-8.85,7.95-11.37,9.78-13.91-8.38-28.81-14.21-45.12-15.95h-15.56c6.36-5.8,13.08-14.2,17.57-21.56h-.01Z"/>
  </g>
  <g>
    <path class="st0" d="M350.07,459.21c3.27-2.6,9.38-2.48,12.78,0,2.07-2.5,10.13-2.79,11.98,0,1.19-1.24,1.69-.74.8.8l-2.68,1.61c-35.1,1.81-68.18,23.2-91.4,48.68-75.95,83.36-25.04,225.26,86.68,240.56l3.4,2.02-.8.8c-8.04-.48-16.8.66-24.75,0-60.73-5.02-114.3-50.9-129.75-109.32-23.65-89.37,41.07-180.68,133.75-185.15h0Z"/>
    <path class="st3" d="M375.62,460c1.08-2.56,8.97-1.92,9.58.8l6.51-.3c5.15.69,36.12,11.06,37.17,14.13.15.42.2.87.24,1.33,99.7,54.11,103.46,197.28,6.32,256.5-14.22,8.67-47.49,22.2-63.81,20.42-103.06-11.24-159.74-130.55-108.72-219.99,20.55-36.02,69.78-73.42,112.72-72.88h0Z"/>
    <path class="st8" d="M449.87,399.35l-2.67,1.74c-32.63,2.08-60.74,24.65-70.09,55.92l-2.29,2.2c-3.68-.35-8.17.01-11.98,0-2.34-5.51-2.8-13.85-2.75-20.12,0-1.36.56-2.63,1.16-3.82,11.61-33.24,37.23-52.88,72.27-56.65,2.9-.31,10.96-1.11,13.38-.62,11.33,2.28,5.31,14.72,2.98,21.36h-.01Z"/>
    <path class="st11" d="M449.87,399.35c-2.52,7.18-4.8,12.61-8.78,19.15l.27,2.58c-3.63,6.56-11.05,16.23-17.84,18.97-.09.63-.22,1.24-.44,1.82-2.39,6.12-29.76,19.87-37.88,18.93-2.74-.45-6.77-.76-9.58-.8-.08-.37-.44-.76-.8-.8,9.26-34.43,39.25-58.6,75.05-59.85h0Z"/>
    <path class="st7" d="M484.2,456.01c-16.33,11.88-34.62,19.39-55.09,19.95-11.01-5.97-31.59-13.16-43.91-15.16,13.95-4.4,27.45-10.85,38.33-20.75,8.96-3.37,21.39-1.32,30.76,1.22,6.22,1.69,25.96,8.48,29.01,12.96.37.55.65,1.15.91,1.78h-.01Z"/>
    <path class="st2" d="M361.24,435.27c1.05,7.9,1.27,15.98,1.6,23.94-4.22-.01-8.57-.2-12.78,0,.89-23.6-4.34-47.26-18.85-66.15-11.01-14.33-26.85-24.46-43.82-30.42-5.44-1.91-17.31-3.78-21.12-6.03-5.75-3.39-3.48-11.73,3.5-11.55,4.48.12,16.1,3.97,20.81,5.6,39.03,13.54,65.1,43.09,70.65,84.61h.01Z"/>
    <path class="st4" d="M441.09,418.51c14.95,0,30.07,4.53,43.13,11.55,6.55,3.52,14.98,7.18,11.36,16.17-.96,2.38-8.85,7.95-11.37,9.78-13.91-8.38-28.81-14.21-45.12-15.95h-15.56c6.36-5.8,13.08-14.2,17.57-21.56h-.01Z"/>
  </g>
</svg>