<?xml version="1.0" encoding="UTF-8"?>
<svg id="Ebene_1" xmlns="http://www.w3.org/2000/svg" version="1.1" viewBox="0 0 1024 1024">
  <!-- Generator: Adobe Illustrator 29.5.1, SVG Export Plug-In . SVG Version: 2.1.0 Build 141)  -->
  <defs>
    <style>
      .st0 {
        fill: #ec9fc5;
      }

      .st1 {
        fill: #654128;
      }

      .st2 {
        fill: #873862;
      }

      .st3 {
        fill: #f5c9df;
      }

      .st4 {
        fill: #ce88a9;
      }

      .st5 {
        fill: #e371a8;
      }

      .st6 {
        fill: #f5cfe3;
      }

      .st7 {
        fill: #422d1e;
      }

      .st8 {
        fill: #382617;
      }

      .st9 {
        fill: #883862;
      }

      .st10 {
        fill: #2c1d10;
      }

      .st11 {
        fill: #553621;
      }

      .st12 {
        fill: #e371a9;
      }
    </style>
  </defs>
  <g>
    <path class="st7" d="M97.55,580.37c63.94,5.94,85.73,42.71,106.88,69.65.15,2.61,1.62,6.23,7.73,5.75,189.22-23.88,392.03-23.1,577.39-4.58,73.45,13.99,43.32-.61,77.74-33.36,22.69-29.78,96.5-52.87,141.43-22.12,54.05,29.65,14.01,153.74-23.76,186.57-86.92,75.54-687.28,87.2-916.56,9.96-38.29-12.9-44.2-38.88-37.83-65.88-12.03-47.31-61.89-139.12,66.97-145.99h.01ZM968.76,613.73c-31.32-21.62-79.28,40.33-82.99,53.77,29.01,4.49,70.04,18.93,90.52,25.43,5.53-23.69,22.3-58.64-7.53-79.19h0ZM110.51,614.9c-65.82-24.82-48.31,55.03-42.1,74.32,83.16-31.26,125.33-14.07,42.1-74.32ZM495.69,661.3c-92.95-5.55-568.55,29.68-346.62,98.6,93.91,44.7,1027.12,45.81,733.01-65.53-109.17-27.23-267.16-34.2-386.39-33.07h0Z"/>
    <path class="st1" d="M942.2,834.89c-1.72,1.61-2.26,3.51-3.24,5.27-13.78,3.99-26.6,8.89-40.3,12.98-6.19,1.84-12.99,4.16-19.08,5.75-14.12,3.7-30.44,6.98-45.34,9.95-94.08,18.77-199,27.44-299.04,28.68-15.91.2-32.68.2-48.58,0-94.82-1.21-192.16-9.25-282.85-24.58-15.87-2.68-32.07-5.45-47.5-8.78-24.93-5.37-48.91-12.27-72.33-19.31-.17-.25-1.44-.82-1.94-1.56-.96-1.41-.52-3.57-3.46-3.13-.12-.36.08-.79,0-1.17v-.59c.01-3.34-3.44-6.33-5.4-9.36-1.46-3.84-2.3-7.9-3.77-11.71-.48-1.26-2.96-2.71-1.63-3.5h1.08c40.62,13.76,76.47,22.17,122.24,30,13.62,2.33,44.81,8.22,57.51,8.63.7.02,1.77.17,1.63-.31l-8.65-29.55c16.01,1.84,32.43,3.23,48.58,4.68l8.78,31.53c117.4,12.91,239.92,14.44,358.66,5.85,19.87-1.44,39.64-3.32,59.34-5.29l1.61-.88c4.47-10.13,10.62-20.15,12.07-30.62,15.54-1.25,30.93-2.45,46.42-4.1-.12,9.91-4.9,19.62-8.63,29.26,65.25-9.42,130.55-21.54,184.07-44.47,1.2.2.4,1.35.25,1.89-2.04,7.5-7.22,16.81-10.52,24.44h.02Z"/>
    <path class="st1" d="M914.14,879.37c-8.13,10.99-17.83,21.78-28.07,32.19-58.72,20.41-123.22,33.56-191.08,42.14-16.17,2.04-32.22,3.71-48.58,5.27-89.95,8.57-181.92,8.85-272.05.59-15.68-1.44-31.97-3.36-47.5-5.27-56.12-6.9-114.75-18.08-165.2-33.05-5.28-1.57-17.91-4.98-21.89-6.7-1.01-.44-1.71-1.57-2.92-2.38-1.4-.94-1.93-1.24-3.24-2.34,1.81-.18-.22-1.88-.66-2.27-1.79-1.57-4.03-3.18-5.81-4.75-1.52-1.64-3.35-3.52-4.88-5.26-5.22-5.95-10.37-12-14.55-18.15.48.33.79.68,1.44.95,18.7,7.6,46.25,14.82,67.65,20.12,16.94,4.19,33.27,7.64,50.74,11.12,84.83,16.89,170.53,25.64,261.26,26.92,14.45.2,29.8.18,44.26,0,94.58-1.21,186.12-11.79,273.13-31.02,19.02-4.2,34.53-7.72,52.9-12.88,19.81-5.56,39.52-11.28,57.22-18.73-.81,1.12-1.33,2.39-2.16,3.51h-.01Z"/>
    <path class="st1" d="M832.09,956.62c-4.54,2.97-9.2,5.94-14.03,8.78-1.3-.89-2.1.26-2.16,1.17-2.15,1.24-4.31,2.32-6.48,3.51-1.39.76-2.91,1.6-4.32,2.34-1.83.97-3.48,1.95-5.4,2.93-1.67.03-3.8.46-2.16,1.17-22.31,11.14-43.23,20.18-71.25,27.51-7.52,1.97-15.28,3.74-22.67,5.85-27.77,6.06-55.41,9.01-84.77,11.69-1.89.17-4.07-.26-4.83,1.18-2.14.09-4.34-.08-6.48,0-15.04.59-30.26.91-45.34,1.17-32.12.56-64.04.23-96.08-.59-5.34-.13-10.89.22-16.19,0-22.97-.94-47.49-3.15-70.17-5.85-6.46-.77-14.32-1.41-20.51-2.34-23.62-3.54-47.32-9.2-69.09-15.22s-41.05-13.83-59.38-22.82l1.06-.29c-1.14-.78-2.35-1.43-4.3-1.47-.37-.19-.71-.4-1.08-.59.37-1.12-.11-1.36-2.16-1.17-2.26-1.17-4.29-2.32-6.48-3.51l-1.08-.59c-1.08-.59-2.15-1.15-3.24-1.76.12-.81-.79-2.07-2.16-1.17-2.62-1.49-4.53-2.94-6.48-4.1l-3.24-1.76c-.34-.2-.74-.38-1.08-.59l.55-1.18c46.06,13.4,94.32,21.83,145.19,28.1,16.6,2.05,32.82,3.81,49.66,5.27,78.33,6.8,151.57,6.77,229.95.59,16.43-1.3,32.37-2.73,48.58-4.68,58.49-7.05,102.9-16.7,155.16-32.06,1.87-.55,2.74-1.45,2.45.45v.03Z"/>
    <path class="st8" d="M886.07,911.56l1.08.59c-15.83,15.8-33.92,30.64-55.06,44.48.29-1.91-.59-1-2.45-.45-52.27,15.36-96.68,25-155.16,32.06,7.77-11.31,18.1-22.32,20.51-34.53,67.87-8.58,132.36-21.73,191.08-42.14h0Z"/>
    <path class="st8" d="M136.85,912.14c1.21.81,1.9,1.94,2.92,2.38,3.98,1.72,16.61,5.14,21.89,6.7,50.45,14.97,109.08,26.16,165.2,33.05,2.16,11.55,11.6,22.15,19.43,32.77-50.87-6.27-99.13-14.7-145.19-28.1l-.55,1.18c-24.17-14.69-47.09-30.4-63.69-47.99h-.01Z"/>
    <path class="st8" d="M962.72,783.97c-3.46,7.08-4.84,15.31-8.44,22.62-.26.52-.66.77-1.68.82l2.56.55c-4.01,9.19-7.22,18.59-12.95,27.51.08-.18-.08-.4,0-.59,3.3-7.63,8.48-16.94,10.52-24.44.15-.54.94-1.69-.25-1.89-53.52,22.93-118.82,35.06-184.07,44.47,3.73-9.64,8.51-19.35,8.63-29.26,58.55-6.22,116.93-15.38,167.24-33.12,6.13-2.16,11.71-5.08,18.44-6.68h0Z"/>
    <path class="st7" d="M562.2,1023.93v1.17c-31.66.51-64.58.31-96.08-.59v-1.17c32.04.81,63.96,1.14,96.08.59Z"/>
    <path class="st10" d="M942.2,835.47c-6.64,15.43-15.98,29.25-26.99,43.89h-1.08c.83-1.12,1.35-2.39,2.16-3.51,8.45-11.7,15.95-23.63,22.67-35.7.98-1.76,1.52-3.66,3.24-5.27-.08.18.08.4,0,.59h0Z"/>
    <path class="st10" d="M78.55,840.16c2.94-.44,2.5,1.72,3.46,3.13.5.74,1.77,1.31,1.94,1.56.32.48-.06,1.55.46,2.36,6.91,10.65,15.57,20.9,22.21,31.59h-1.08c-8.5-10.66-23.21-27.58-26.99-38.63h0Z"/>
    <path class="st7" d="M449.92,1023.34v.59c-24.54-1.02-46.45-3.01-70.17-5.85v-.59c22.68,2.7,47.2,4.91,70.17,5.85Z"/>
    <path class="st10" d="M825.51,651.65"/>
    <path class="st10" d="M826.59,652.82"/>
    <path class="st10" d="M969.19,779.29c-5.75,4.33-11.2,22.19-14.03,28.68l-2.56-.55c1.02-.05,1.42-.3,1.68-.82,3.6-7.31,4.98-15.54,8.44-22.62.95-1.94,2-4.33,6.48-4.68h0Z"/>
    <path class="st7" d="M704.7,1009.88c-28.87,6.58-59.09,11.57-90.68,12.88.76-1.44,2.95-1.01,4.83-1.18,29.35-2.68,57-5.63,84.77-11.69h1.08,0Z"/>
    <path class="st8" d="M607.54,1022.75c-4.71,1.58-10.61.93-15.7,1.15-1.38.06-2.83.61-3.19.61h-16.19c-2.11,0-6.87.53-10.26.59v-1.17c15.09-.26,30.3-.58,45.34-1.17h0Z"/>
    <path class="st7" d="M66.67,813.24c.39.03.84-.06,1.08,0v.59c-1.32.79,1.15,2.25,1.63,3.5,1.47,3.81,2.31,7.87,3.77,11.71-3.29-5.1-6.3-10.46-8.64-15.8.71.03,1.46-.05,2.16,0h0Z"/>
    <path class="st7" d="M359.24,1015.15v.59c-23.71-3.57-48.71-8.35-69.09-15.8,21.78,6.02,45.47,11.68,69.09,15.22h0Z"/>
    <path class="st7" d="M915.22,879.37c-8.62,11.47-17.14,21.87-28.07,32.77l-1.08-.59c10.24-10.41,19.94-21.19,28.07-32.19h1.08Z"/>
    <path class="st8" d="M379.75,1017.49v.59c-6.97-.83-13.14-1.23-20.51-2.34v-.59c6.19.93,14.05,1.57,20.51,2.34Z"/>
    <path class="st8" d="M78.55,838.4v.59c-4.03-2.72-4.17-6.72-5.4-9.95,1.96,3.03,5.41,6.02,5.4,9.36Z"/>
    <path class="st10" d="M466.11,1023.34v1.17c-5.38-.15-10.82-.36-16.19-.59v-.59c5.3.22,10.86-.13,16.19,0h0Z"/>
    <path class="st7" d="M107.7,879.37c4.19,6.15,9.33,12.21,14.55,18.15,1.53,1.74,3.36,3.61,4.88,5.26-8.64-7.61-14.98-15.7-21.59-24h1.08c.64.06.76.36,1.08.59h0Z"/>
    <path class="st8" d="M726.29,1004.03l-9.29,3.45c-3.95.84-8.43,1.52-12.3,2.4h-1.08c7.39-2.11,15.15-3.89,22.67-5.85h0Z"/>
    <path class="st8" d="M133.61,909.8c-2.8-2.37-4.37-4.74-6.48-7.02,1.78,1.57,4.02,3.17,5.81,4.75.45.39,2.47,2.1.66,2.27h.01Z"/>
    <path class="st8" d="M230.77,977.11c-1.14-.56-2.14-1.2-3.24-1.76,1.95.03,3.16.69,4.3,1.47l-1.06.29h0Z"/>
    <path class="st8" d="M224.29,973.59c2.05-.19,2.53.05,2.16,1.17-.77-.39-1.43-.79-2.16-1.17Z"/>
    <path class="st8" d="M213.49,967.74c-.71-.4-1.46-.77-2.16-1.17,1.37-.9,2.28.36,2.16,1.17Z"/>
    <path class="st8" d="M799.7,975.35c-.74.38-1.41.8-2.16,1.17-1.64-.71.49-1.14,2.16-1.17Z"/>
    <path class="st8" d="M818.05,965.4c-.69.4-1.46.77-2.16,1.17.06-.91.86-2.06,2.16-1.17Z"/>
    <path class="st8" d="M204.86,962.47c-.91-.54-2.07-1.05-3.24-1.76l3.24,1.76Z"/>
    <path class="st8" d="M217.81,970.08c-.36-.2-.72-.39-1.08-.59l1.08.59Z"/>
    <path class="st8" d="M805.1,972.42c1.41-.74,2.93-1.58,4.32-2.34l-4.32,2.34Z"/>
    <path class="st10" d="M486.18,659.23c119.24-1.12,286.77,7.9,395.91,35.14,44.95,11.22,108.91,38.62,38.28,61.07-89.28,28.37-237.17,34.58-339.68,34.36-233.27-.49-301.28,1.98-430.7-26.22-55.7-12.13-104.21-34.91-34.07-60.49,93.36-34.05,259.48-42.82,370.26-43.86h0Z"/>
    <path class="st8" d="M730.61,827.87c-1.45,10.47-7.6,20.49-12.07,30.62l-1.61.88c-19.7,1.97-39.47,3.85-59.34,5.29-118.74,8.6-241.26,7.06-358.66-5.85l-8.78-31.53c143.75,12.97,296.52,12.16,440.46.59h0Z"/>
    <path class="st8" d="M183.03,814.82c19.1,2.94,39.12,5.54,58.53,7.77l8.65,29.55c.13.48-.93.33-1.63.31-12.69-.42-43.89-6.3-57.51-8.63-45.78-7.83-81.63-16.24-122.24-30-.32-.11-.59-.46-1.08-.59-.23-.06-.69.03-1.08,0-3.53-8.75-6.83-17.51-9.72-26.34"/>
    <path class="st8" d="M806.18,907.46c-87.01,19.23-178.55,29.81-273.13,31.02l2.16-40.97c100.04-1.23,204.96-9.9,299.04-28.68l-28.07,38.63h0Z"/>
    <path class="st8" d="M486.63,897.51c.23,3.21-.3,6.47-.04,9.68.06.77,1.12,1.52,1.12,1.73v22.82c0,.19,1,.98,1.12,1.73.26,1.65-.23,3.35-.04,5-90.73-1.28-176.42-10.03-261.26-26.92l-23.75-38.63c90.68,15.33,188.02,23.37,282.85,24.58h0Z"/>
    <path class="st8" d="M156.28,864.15c5.01,12.37,11.79,24.57,20.51,36.29-21.4-5.3-48.95-12.52-67.65-20.12-.66-.27-.97-.62-1.44-.95-.32-.22-.44-.53-1.08-.59-6.64-10.69-15.29-20.94-22.21-31.59-.53-.81-.14-1.88-.46-2.36,23.42,7.04,47.4,13.94,72.33,19.31h0Z"/>
    <path class="st11" d="M535.21,897.51l-2.16,40.97c-14.46.18-29.81.2-44.26,0-.19-1.65.29-3.35.04-5-.12-.75-1.12-1.54-1.12-1.73v-22.82c0-.21-1.06-.97-1.12-1.73-.26-3.21.27-6.47.04-9.68,15.9.2,32.67.2,48.58,0h0Z"/>
    <path class="st8" d="M938.97,840.16c-6.72,12.07-14.22,24-22.67,35.7-17.7,7.45-37.41,13.17-57.22,18.73l20.51-35.7c6.09-1.59,12.89-3.91,19.08-5.75,13.7-4.08,26.52-8.99,40.3-12.98h0Z"/>
    <path class="st11" d="M203.78,872.93l23.75,38.63c-17.47-3.48-33.8-6.93-50.74-11.12-8.72-11.72-15.5-23.92-20.51-36.29,15.44,3.33,31.64,6.1,47.5,8.78h0Z"/>
    <path class="st11" d="M879.59,858.88l-20.51,35.7c-18.37,5.16-33.88,8.67-52.9,12.88l28.07-38.63c14.9-2.97,31.22-6.25,45.34-9.95Z"/>
    <path class="st10" d="M68.83,813.82h-1.08v-.59c.49.12.76.48,1.08.59Z"/>
    <path class="st10" d="M78.55,838.99v-.59.59Z"/>
    <path class="st8" d="M646.4,958.96l-20.51,33.94c-78.38,6.19-151.62,6.21-229.95-.59l-21.59-32.77c90.13,8.27,182.1,7.98,272.05-.59h0Z"/>
    <path class="st11" d="M694.98,953.7c-2.41,12.21-12.74,23.22-20.51,34.53-16.21,1.95-32.15,3.38-48.58,4.68l20.51-33.94c16.36-1.56,32.41-3.22,48.58-5.27h0Z"/>
    <path class="st11" d="M374.35,959.55l21.59,32.77c-16.84-1.46-33.06-3.22-49.66-5.27-7.83-10.62-17.27-21.23-19.43-32.77,15.53,1.91,31.82,3.83,47.5,5.27Z"/>
  </g>
  <g>
    <path class="st2" d="M376.95,653.81c3.76-.64,7.33.47,10.71,3.33,7.5,1.28,10.02,3.97,7.6,8.09-5.26,3.99-10.67,9.23.21,8.85,5.95-.82,9.59.42,10.93,3.75-2.54,5.07-4.53,10.34-5.98,15.79,4.6-.98,9.15-2.2,13.67-3.66l1.71,1.69c2.81.44,2.2,9.57,1.9,12.68.56,2.81-.08,4.57-1.9,5.27,5.4-3.08,10.39-6.86,14.98-11.33,5.06.55,6.8,4.93,6.82,9.88,2,3.88.12,9.7-3.79,11.65l1.15,2.24c-2.54,5.92-5.47,11.72-9.1,17.03l-2.46.13c-4.44,5.83-14.06,14.3-20.01,18.82-2.36,1.79-19.37,13.49-20.74,12.23-2.21-15.19-.72-31.91,3.79-46.57-14.68,4.6-30.04,7.24-45.5,6.78,4.3-11.95,11.03-22.57,18-32.98-11-2.14-22.7-3.52-32.92-8.54-3.01-1.48,1.51-5.48,3.03-7.03,9.33-9.49,23.42-19.15,35.56-24.23,1.34-3.92,9.05-6.27,12.33-3.88h-.01Z"/>
    <path class="st3" d="M755.14,496.62c-3.42,2.64-6.61,5.18-10.41,7.28,3.61,3.39,6.16,7.78,8.51,12.12-10.09,2.3-19.57.34-29.38-1.92.46,3.27,1.67,6.94,1.87,10.2,4.54,70.99-77.46,161.96-134.89,193.74-45.26,25.04-102.27,33.66-149.79,9.67-4.88,6.35-9.16,13.03-15.3,18.27l-2.37-6.77c3.83-5.02,8.07-13.49,10.43-19.41l2.99-1.22c96.99,41.4,190.31-25.37,245.19-104.63,20.71-29.91,38.95-65.58,34.71-103.03l.65-3.75c8.18-1.65,16.18-3.74,23.99-6.29l3.37.6c.96-3.61,7.26-6.81,10.43-4.85h0Z"/>
    <path class="st5" d="M678.38,463.63c1.98-1.93,3.16-.5,1.9,1.93,3.93,1.95,2.5,7.05-2.27,6.03-57.98-16.5-122.24-5.53-176.91,18.22-57.16,24.83-110.16,77.47-111.87,143.47-1.31,2.48-6.46,4.18-8.47,2.1-.99-4.78-.72-10.47,0-15.53,3.2-58.13,49.36-108.24,97.75-133.31,50.73-26.29,146.67-47.71,199.89-22.93h-.01Z"/>
    <path class="st4" d="M701.12,442.27c1.68,1.86,2.67,4.57,2.99,8.16,6.52-3.9,13.41-7.29,20.88-8.73,3.07-.71,4.52.24,3.64,3.23-1.44,6.34-2.85,12.38-4.23,18.1,3.88-.67,18.93-2.88,20.65.95,1.61,3.61-9.24,17.06-12.25,20.04,6.93.44,16.98,4.25,22.89,8l1.35,2.63c-.69.55-1.24,1.44-1.9,1.93-3.62,1.4-6.83,3.32-10.43,4.85l-3.58.29c-5.25-4.67-11.05-8.29-17.42-10.84-.39-3.73-2.85-4.57-7.38-2.54-7.02,6.14-13.42-.05-13.11-7.5,1.48-1.12,12.58-10.05,11.86-11.03-.17-.22-4.3,2.1-4.97,2.57-5.3,5.25-14.31,12.85-16.06.77,2.02-1.46,6.48-12.68,5.16-13.18-1.17-.43-7.29,9.49-7.41,11.63-3.05,2.26-8.27-1.49-4.89-4.14-2.73-5.05,2.8-13.55,5.91-18.22,1.85-4.04,4.31-6.38,7.36-7.01h.95v.03Z"/>
    <path class="st9" d="M701.12,442.27c1.03-4.52,29.09-21.72,31.27-19.4-.87,11.15-2.04,21.89-5.69,32.49,1.6,1.33,4.97-1.44,6.17-1.44h25.12c-1.69,8.31-8.54,15.79-14.2,21.83l23.68,9.23c1.51,2.05-8.85,8.44-10.43,9.69-6.96-2.65-13.29-6.69-20.61-8.51-2.16-.54-6.87.54-7.84-1.69,6.86-4.68,11.64-12.34,15.17-19.88-8.06-2.07-15.65.13-23.69.95,2.45-2.34,8.87-20.94,7.58-22.3-9.35,1.18-17.68,5.82-25.58,10.67.66-3.7-1.74-8.17-.96-11.65h.01Z"/>
    <path class="st3" d="M700.17,442.27c-5.79,7.74-11.31,15.37-13.27,25.23-1.13,2.93-6.25.98-6.64-1.93-.61-.31-1.3-1.67-1.9-1.93,1.69-4.78,1.07-10.74,2.13-15.76.91-4.27,8.71-21.97,12.08-23.54,1.54-.72,3.4,4.42,3.96,5.67,1.67,3.71,3.58,8.18,3.63,12.3v-.03Z"/>
    <path class="st3" d="M380.74,635.38c2.93,3.29,3.5,12.4,1.9,16.5-.1,2.14-1.99,2.8-5.69,1.93-4.37,1.06-8.16,2.14-12.33,3.88l-6.63-7.27c1.55-3.01,18.98-6.73,18.93-7.78-1.26-1.61-4.19-1.78-3.78-4.35,11.01-1.39,4.4-11.11,7.58-18.46-.27,4.88-.18,10.61,0,15.53h.01Z"/>
    <path class="st0" d="M686.91,467.51c.22.14.55,3.66,3.78,2.91.99-6.29,5.83-10.85,10.43-14.56.36,4.78-.31,9.31-2.3,13.65-1.24,2.71-4.31,3.53-2.49,6.27,3.79,5.71,8.47-2.35,13.04-5.18,1.37-.85,9.02-4.78,9.76-4.07-2.8,7.22-9.37,11.58-15.14,16,1.24,1.19,4.84,7.1,6.13,7.11.35,0,3.92-2.67,6.13-3.27,3.45-.93,7.82-1.32,11.42-1.41.18,1.54-5.34,2.71-2.85,4.37,1.82,1.23,5.4,1.99,7.88,3.58,4.22,2.71,7.45,6.65,12.04,8.54-3.62,1.54-6.91,3.08-10.78,4.01-5.12,1.23-10.23,1.58-15.35,2.72-.13,7.59,1.04,15.1.42,22.74-4.95,60.24-70.15,135.48-117.67,167.73-41.33,28.05-93.99,42.94-143.08,29.58-8.36-2.27-16.12-6.51-24.43-8.46,1.5-3.76,2.82-7.7,3.79-11.65-.86-4.07-.66-8.31.61-12.73-2.06,4-3.94,5.2-5.66,3.61-.59.48-1.13.82-1.48.68-2.23-.89-2.79-10.86-2.86-13.36-3.94,3.31-7.93,5.01-11.94,5.08-1.11-4.88-.18-10.16,2.79-15.86l-8.04,2.27c-10.52,1.02-5.69-6.06-.76-11.31l-12.52-1.65c-5.48-2.13-1.74-7.27,3.15-9.22-5.31-1.24-10.78-2.13-16.25-2.03l-2.02-1.78c-1.63-5.44-1.69-10.9-1.9-16.5,1.11-1.14,6.26-1.71,6.53-2.04.53-.63.81-13.49,1.31-16.6,9.96-61.32,61.74-107.82,115.39-130.28,53.26-22.3,120.92-33.85,176.73-16.03l-.46-4.86c1.48.75,6.09,1.59,6.64,1.93h.01Z"/>
    <path class="st4" d="M382.64,651.88c8.16-.91,14.87,1.76,22.74,1.95.52,2.31-.38,1.57-1.24,2.16-2.73,1.91-6.67,3.11-8.24,6.56,6.3,1.35,12.46,2.5,18.95,1.96-.74,1.61-10.08,10.25-8.53,11.63,6,.56,11.39-2.54,17.05-3.87-3.29,5.62-5.91,11.83-6.63,18.43,4.91-2.16,9.27-5.1,13.25-8.73.07,4.1.14,12.33,1.91,15.89.53,1.08.87.65,1.87.59l6.64-9.69c.22,6.52-1.29,13.11-2.84,19.4l-5.21-8.73c-3.55,2.57-10.83,10.21-14.66,11.21-1.04.27-1.93-.71-1.93-1.03v-17.95c-6.12.78-11.65,4.56-18,3.87,1.59-6.82,4.32-13.25,7.58-19.4-6.8.22-13.38.12-19.9-1.96-.31-.43,5.25-7.78,6.12-8.78.92-1.07,4.8-2.27,3.36-3.8-.3-.31-6.48-1.87-8.23-2.74-3.29-1.63-6.03-4.35-9.78-5.03,1.51-.37,4.02-1.75,5.69-1.93h0Z"/>
    <path class="st6" d="M617.7,627.62c5.38-5.7,12.29-9.72,18.02-15.03,24.79-22.91,48.44-64.11,58.06-96.79.42-1.44,2.85-15.46,4.48-14.33,19.8,41.87-9.97,102.56-49.57,120.5-2.75,1.24-14.98,5.63-17.25,5.63h-13.75.01Z"/>
    <path class="st5" d="M612.76,469.63c21.6-2.99,22.55,32.66-1.15,28.86-14.22-2.29-14.27-26.72,1.15-28.86Z"/>
    <path class="st12" d="M567.22,478.41c20.69-3.91,23.85,26.94,4.41,28.83-17.08,1.67-21.28-25.65-4.41-28.83Z"/>
    <path class="st5" d="M422.78,579.74c-13.95-14.29,9.27-35.41,21.51-19.58,11.05,14.3-8.87,32.52-21.51,19.58Z"/>
    <path class="st5" d="M515.08,492.96c24.73-5.24,22.51,35.28-.9,27.63-13.98-4.57-11.36-25.03.9-27.63Z"/>
    <path class="st5" d="M412.73,596.78c19.89-3.22,22.87,26.83,4.4,28.82-18.72,2.03-21.17-26.12-4.4-28.82Z"/>
    <path class="st5" d="M655.39,473.55c21.15-3.41,22.33,30.82.72,28.89-15.71-1.4-16.1-26.4-.72-28.89Z"/>
    <path class="st5" d="M468.62,522.04c12.76-2.94,22.69,7.23,17.52,19.88-5.9,14.4-28.25,9.23-26.73-7.95.44-4.97,4.31-10.8,9.2-11.93Z"/>
    <path class="st5" d="M538.78,526.92c16.49-3.45,19.51,19.32,6.01,22.64-15.43,3.8-19.73-19.78-6.01-22.64Z"/>
    <path class="st5" d="M469.59,567.67c17.27-3.61,18.98,20.57,5.23,22.86-14.98,2.48-18.59-20.06-5.23-22.86Z"/>
    <path class="st5" d="M500.84,544.37c18.93-4.47,19.58,25.36,1.95,22.89-13.08-1.83-12.33-20.44-1.95-22.89Z"/>
    <path class="st5" d="M453.47,604.56c18.3-3.39,18.89,22.29,3.42,23-13.45.63-16.19-20.64-3.42-23Z"/>
    <path class="st5" d="M579.52,522.05c9.27-2.17,16.86,3.61,15.05,13.41-2.94,15.84-28.24,9.16-21.64-7.56.79-2,4.5-5.37,6.59-5.87h0Z"/>
  </g>
</svg>