<?xml version="1.0" encoding="UTF-8"?>
<svg id="Ebene_1" xmlns="http://www.w3.org/2000/svg" version="1.1" viewBox="0 0 1024 1024">
  <!-- Generator: Adobe Illustrator 29.5.1, SVG Export Plug-In . SVG Version: 2.1.0 Build 141)  -->
  <defs>
    <style>
      .st0 {
        fill: #a7292b;
      }

      .st1 {
        fill: #f6bcbc;
      }

      .st2 {
        fill: #cea325;
      }

      .st3 {
        fill: #f6bbba;
      }

      .st4 {
        fill: #e41e22;
      }

      .st5 {
        fill: #e41d22;
      }

      .st6 {
        fill: #b9dbbe;
      }

      .st7 {
        fill: #43888b;
      }

      .st8 {
        fill: #f6bbbb;
      }

      .st9 {
        fill: #805aa2;
      }

      .st10 {
        fill: #cda325;
      }

      .st11 {
        fill: #c7b3d7;
      }

      .st12 {
        fill: #591440;
      }

      .st13 {
        fill: #eb565a;
      }

      .st14 {
        fill: #d9c8e3;
      }

      .st15 {
        fill: #fce3dc;
      }

      .st16 {
        fill: #fce2db;
      }

      .st17 {
        fill: #e31e21;
      }

      .st18 {
        fill: #654128;
      }

      .st19 {
        fill: #c6393a;
      }

      .st20 {
        fill: #d87cb0;
      }

      .st21 {
        fill: #8c1a5e;
      }

      .st22 {
        fill: #cda225;
      }

      .st23 {
        fill: #cca125;
      }

      .st24 {
        fill: #65c2cb;
      }

      .st25 {
        fill: #1c5e3c;
      }

      .st26 {
        fill: #e25038;
      }

      .st27 {
        fill: #6fbc85;
      }

      .st28 {
        fill: #e84949;
      }

      .st29 {
        fill: #8059a1;
      }

      .st30 {
        fill: #b7dfe3;
      }

      .st31 {
        fill: #bba782;
      }

      .st32 {
        fill: #a6282a;
      }

      .st33 {
        fill: #a8292b;
      }

      .st34 {
        fill: #805aa1;
      }

      .st35 {
        fill: #baa782;
      }

      .st36 {
        fill: #d9c7e2;
      }

      .st37 {
        fill: #d9c8e2;
      }

      .st38 {
        fill: #f1db4c;
      }

      .st39 {
        fill: #227346;
      }

      .st40 {
        fill: #fdd316;
      }

      .st41 {
        fill: #422d1e;
      }

      .st42 {
        fill: #382617;
      }

      .st43 {
        fill: #65b5d5;
      }

      .st44 {
        fill: #c7b4d7;
      }

      .st45 {
        fill: #9c78b3;
      }

      .st46 {
        fill: #fce3db;
      }

      .st47 {
        fill: #e49657;
      }

      .st48 {
        fill: #eb635a;
      }

      .st49 {
        fill: #2c1d10;
      }

      .st50 {
        fill: #2fab66;
      }

      .st51 {
        fill: #553621;
      }

      .st52 {
        fill: #aa886f;
      }

      .st53 {
        fill: #a5282a;
      }
    </style>
  </defs>
  <g>
    <path class="st41" d="M86.52,577.47c63.94,5.94,85.73,42.71,106.88,69.65.15,2.61,1.62,6.23,7.73,5.75,189.22-23.88,392.03-23.1,577.39-4.58,73.45,13.99,43.32-.61,77.74-33.36,22.69-29.78,96.5-52.87,141.43-22.12,54.05,29.65,14.01,153.74-23.76,186.57-86.92,75.54-687.28,87.2-916.56,9.96-38.29-12.9-44.2-38.88-37.83-65.88-12.03-47.31-61.89-139.12,66.97-145.99ZM957.73,610.83c-31.32-21.62-79.28,40.33-82.99,53.77,29.01,4.49,70.04,18.93,90.52,25.43,5.53-23.69,22.3-58.64-7.53-79.19ZM99.48,612c-65.82-24.82-48.31,55.03-42.1,74.32,83.16-31.26,125.33-14.07,42.1-74.32ZM484.66,658.4c-92.95-5.55-568.55,29.68-346.62,98.6,93.91,44.7,1027.12,45.81,733.01-65.53-109.17-27.23-267.16-34.2-386.39-33.07Z"/>
    <path class="st18" d="M931.17,831.99c-1.72,1.61-2.26,3.51-3.24,5.27-13.78,3.99-26.6,8.89-40.3,12.98-6.19,1.84-12.99,4.16-19.08,5.75-14.12,3.7-30.44,6.98-45.34,9.95-94.08,18.77-199,27.44-299.04,28.68-15.91.2-32.68.2-48.58,0-94.82-1.21-192.16-9.25-282.85-24.58-15.87-2.68-32.07-5.45-47.5-8.78-24.93-5.37-48.91-12.27-72.33-19.31-.17-.25-1.44-.82-1.94-1.56-.96-1.41-.52-3.57-3.46-3.13-.12-.36.08-.79,0-1.17v-.59c.01-3.34-3.44-6.33-5.4-9.36-1.46-3.84-2.3-7.9-3.77-11.71-.48-1.26-2.96-2.71-1.63-3.5h1.08c40.62,13.76,76.47,22.17,122.24,30,13.62,2.33,44.81,8.22,57.51,8.63.7.02,1.77.17,1.63-.31l-8.65-29.55c16.01,1.84,32.43,3.23,48.58,4.68l8.78,31.53c117.4,12.91,239.92,14.44,358.66,5.85,19.87-1.44,39.64-3.32,59.34-5.29l1.61-.88c4.47-10.13,10.62-20.15,12.07-30.62,15.54-1.25,30.93-2.45,46.42-4.1-.12,9.91-4.9,19.62-8.63,29.26,65.25-9.42,130.55-21.54,184.07-44.47,1.2.2.4,1.35.25,1.89-2.04,7.5-7.22,16.81-10.52,24.44Z"/>
    <path class="st18" d="M903.11,876.47c-8.13,10.99-17.83,21.78-28.07,32.19-58.72,20.41-123.22,33.56-191.08,42.14-16.17,2.04-32.22,3.71-48.58,5.27-89.95,8.57-181.92,8.85-272.05.59-15.68-1.44-31.97-3.36-47.5-5.27-56.12-6.9-114.75-18.08-165.2-33.05-5.28-1.57-17.91-4.98-21.89-6.7-1.01-.44-1.71-1.57-2.92-2.38-1.4-.94-1.93-1.24-3.24-2.34,1.81-.18-.22-1.88-.66-2.27-1.79-1.57-4.03-3.18-5.81-4.75-1.52-1.64-3.35-3.52-4.88-5.26-5.22-5.95-10.37-12-14.55-18.15.48.33.79.68,1.44.95,18.7,7.6,46.25,14.82,67.65,20.12,16.94,4.19,33.27,7.64,50.74,11.12,84.83,16.89,170.53,25.64,261.26,26.92,14.45.2,29.8.18,44.26,0,94.58-1.21,186.12-11.79,273.13-31.02,19.02-4.2,34.53-7.72,52.9-12.88,19.81-5.56,39.52-11.28,57.22-18.73-.81,1.12-1.33,2.39-2.16,3.51Z"/>
    <path class="st18" d="M821.06,953.72c-4.54,2.97-9.2,5.94-14.03,8.78-1.3-.89-2.1.26-2.16,1.17-2.15,1.24-4.31,2.32-6.48,3.51-1.39.76-2.91,1.6-4.32,2.34-1.83.97-3.48,1.95-5.4,2.93-1.67.03-3.8.46-2.16,1.17-22.31,11.14-43.23,20.18-71.25,27.51-7.52,1.97-15.28,3.74-22.67,5.85-27.77,6.06-55.41,9.01-84.77,11.69-1.89.17-4.07-.26-4.83,1.18-2.14.09-4.34-.08-6.48,0-15.04.59-30.26.91-45.34,1.17-32.12.56-64.04.23-96.08-.59-5.34-.13-10.89.22-16.19,0-22.97-.94-47.49-3.15-70.17-5.85-6.46-.77-14.32-1.41-20.51-2.34-23.62-3.54-47.32-9.2-69.09-15.22s-41.05-13.83-59.38-22.82l1.06-.29c-1.14-.78-2.35-1.43-4.3-1.47-.37-.19-.71-.4-1.08-.59.37-1.12-.11-1.36-2.16-1.17-2.26-1.17-4.29-2.32-6.48-3.51l-1.08-.59c-1.08-.59-2.15-1.15-3.24-1.76.12-.81-.79-2.07-2.16-1.17-2.62-1.49-4.53-2.94-6.48-4.1l-3.24-1.76c-.34-.2-.74-.38-1.08-.59l.55-1.18c46.06,13.4,94.32,21.83,145.19,28.1,16.6,2.05,32.82,3.81,49.66,5.27,78.33,6.8,151.57,6.77,229.95.59,16.43-1.3,32.37-2.73,48.58-4.68,58.49-7.05,102.9-16.7,155.16-32.06,1.87-.55,2.74-1.45,2.45.45Z"/>
    <path class="st42" d="M875.04,908.66l1.08.59c-15.83,15.8-33.92,30.64-55.06,44.48.29-1.91-.59-1-2.45-.45-52.27,15.36-96.68,25-155.16,32.06,7.77-11.31,18.1-22.32,20.51-34.53,67.87-8.58,132.36-21.73,191.08-42.14Z"/>
    <path class="st42" d="M125.82,909.24c1.21.81,1.9,1.94,2.92,2.38,3.98,1.72,16.61,5.14,21.89,6.7,50.45,14.97,109.08,26.16,165.2,33.05,2.16,11.55,11.6,22.15,19.43,32.77-50.87-6.27-99.13-14.7-145.19-28.1l-.55,1.18c-24.17-14.69-47.09-30.4-63.69-47.99Z"/>
    <path class="st42" d="M951.69,781.07c-3.46,7.08-4.84,15.31-8.44,22.62-.26.52-.66.77-1.68.82l2.56.55c-4.01,9.19-7.22,18.59-12.95,27.51.08-.18-.08-.4,0-.59,3.3-7.63,8.48-16.94,10.52-24.44.15-.54.94-1.69-.25-1.89-53.52,22.93-118.82,35.06-184.07,44.47,3.73-9.64,8.51-19.35,8.63-29.26,58.55-6.22,116.93-15.38,167.24-33.12,6.13-2.16,11.71-5.08,18.44-6.68Z"/>
    <path class="st41" d="M551.17,1021.03v1.17c-31.66.51-64.58.31-96.08-.59v-1.17c32.04.81,63.96,1.14,96.08.59Z"/>
    <path class="st49" d="M931.17,832.57c-6.64,15.43-15.98,29.25-26.99,43.89h-1.08c.83-1.12,1.35-2.39,2.16-3.51,8.45-11.7,15.95-23.63,22.67-35.7.98-1.76,1.52-3.66,3.24-5.27-.08.18.08.4,0,.59Z"/>
    <path class="st49" d="M67.52,837.26c2.94-.44,2.5,1.72,3.46,3.13.5.74,1.77,1.31,1.94,1.56.32.48-.06,1.55.46,2.36,6.91,10.65,15.57,20.9,22.21,31.59h-1.08c-8.5-10.66-23.21-27.58-26.99-38.63Z"/>
    <path class="st41" d="M438.89,1020.44v.59c-24.54-1.02-46.45-3.01-70.17-5.85v-.59c22.68,2.7,47.2,4.91,70.17,5.85Z"/>
    <path class="st49" d="M814.48,648.75"/>
    <path class="st49" d="M815.56,649.92"/>
    <path class="st49" d="M958.16,776.39c-5.75,4.33-11.2,22.19-14.03,28.68l-2.56-.55c1.02-.05,1.42-.3,1.68-.82,3.6-7.31,4.98-15.54,8.44-22.62.95-1.94,2-4.33,6.48-4.68Z"/>
    <path class="st41" d="M693.67,1006.98c-28.87,6.58-59.09,11.57-90.68,12.88.76-1.44,2.95-1.01,4.83-1.18,29.35-2.68,57-5.63,84.77-11.69h1.08Z"/>
    <path class="st42" d="M596.51,1019.85c-4.71,1.58-10.61.93-15.7,1.15-1.38.06-2.83.61-3.19.61h-16.19c-2.11,0-6.87.53-10.26.59v-1.17c15.09-.26,30.3-.58,45.34-1.17Z"/>
    <path class="st41" d="M55.64,810.34c.39.03.84-.06,1.08,0v.59c-1.32.79,1.15,2.25,1.63,3.5,1.47,3.81,2.31,7.87,3.77,11.71-3.29-5.1-6.3-10.46-8.64-15.8.71.03,1.46-.05,2.16,0Z"/>
    <path class="st41" d="M348.21,1012.25v.59c-23.71-3.57-48.71-8.35-69.09-15.8,21.78,6.02,45.47,11.68,69.09,15.22Z"/>
    <path class="st41" d="M904.19,876.47c-8.62,11.47-17.14,21.87-28.07,32.77l-1.08-.59c10.24-10.41,19.94-21.19,28.07-32.19h1.08Z"/>
    <path class="st42" d="M368.72,1014.59v.59c-6.97-.83-13.14-1.23-20.51-2.34v-.59c6.19.93,14.05,1.57,20.51,2.34Z"/>
    <path class="st42" d="M67.52,835.5v.59c-4.03-2.72-4.17-6.72-5.4-9.95,1.96,3.03,5.41,6.02,5.4,9.36Z"/>
    <path class="st49" d="M455.08,1020.44v1.17c-5.38-.15-10.82-.36-16.19-.59v-.59c5.3.22,10.86-.13,16.19,0Z"/>
    <path class="st41" d="M96.67,876.47c4.19,6.15,9.33,12.21,14.55,18.15,1.53,1.74,3.36,3.61,4.88,5.26-8.64-7.61-14.98-15.7-21.59-24h1.08c.64.06.76.36,1.08.59Z"/>
    <path class="st42" d="M715.26,1001.13l-9.29,3.45c-3.95.84-8.43,1.52-12.3,2.4h-1.08c7.39-2.11,15.15-3.89,22.67-5.85Z"/>
    <path class="st42" d="M122.58,906.9c-2.8-2.37-4.37-4.74-6.48-7.02,1.78,1.57,4.02,3.17,5.81,4.75.45.39,2.47,2.1.66,2.27Z"/>
    <path class="st42" d="M219.74,974.21c-1.14-.56-2.14-1.2-3.24-1.76,1.95.03,3.16.69,4.3,1.47l-1.06.29Z"/>
    <path class="st42" d="M213.26,970.69c2.05-.19,2.53.05,2.16,1.17-.77-.39-1.43-.79-2.16-1.17Z"/>
    <path class="st42" d="M202.46,964.84c-.71-.4-1.46-.77-2.16-1.17,1.37-.9,2.28.36,2.16,1.17Z"/>
    <path class="st42" d="M788.67,972.45c-.74.38-1.41.8-2.16,1.17-1.64-.71.49-1.14,2.16-1.17Z"/>
    <path class="st42" d="M807.02,962.5c-.69.4-1.46.77-2.16,1.17.06-.91.86-2.06,2.16-1.17Z"/>
    <path class="st42" d="M193.83,959.57c-.91-.54-2.07-1.05-3.24-1.76l3.24,1.76Z"/>
    <path class="st42" d="M206.78,967.18c-.36-.2-.72-.39-1.08-.59l1.08.59Z"/>
    <path class="st42" d="M794.07,969.52c1.41-.74,2.93-1.58,4.32-2.34l-4.32,2.34Z"/>
    <path class="st49" d="M475.15,656.33c119.24-1.12,286.77,7.9,395.91,35.14,44.95,11.22,108.91,38.62,38.28,61.07-89.28,28.37-237.17,34.58-339.68,34.36-233.27-.49-301.28,1.98-430.7-26.22-55.7-12.13-104.21-34.91-34.07-60.49,93.36-34.05,259.48-42.82,370.26-43.86Z"/>
    <path class="st42" d="M719.58,824.97c-1.45,10.47-7.6,20.49-12.07,30.62l-1.61.88c-19.7,1.97-39.47,3.85-59.34,5.29-118.74,8.6-241.26,7.06-358.66-5.85l-8.78-31.53c143.75,12.97,296.52,12.16,440.46.59Z"/>
    <path class="st42" d="M172,811.92c19.1,2.94,39.12,5.54,58.53,7.77l8.65,29.55c.13.48-.93.33-1.63.31-12.69-.42-43.89-6.3-57.51-8.63-45.78-7.83-81.63-16.24-122.24-30-.32-.11-.59-.46-1.08-.59-.23-.06-.69.03-1.08,0-3.53-8.75-6.83-17.51-9.72-26.34"/>
    <path class="st42" d="M795.15,904.56c-87.01,19.23-178.55,29.81-273.13,31.02l2.16-40.97c100.04-1.23,204.96-9.9,299.04-28.68l-28.07,38.63Z"/>
    <path class="st42" d="M475.6,894.61c.23,3.21-.3,6.47-.04,9.68.06.77,1.12,1.52,1.12,1.73v22.82c0,.19,1,.98,1.12,1.73.26,1.65-.23,3.35-.04,5-90.73-1.28-176.42-10.03-261.26-26.92l-23.75-38.63c90.68,15.33,188.02,23.37,282.85,24.58Z"/>
    <path class="st42" d="M145.25,861.25c5.01,12.37,11.79,24.57,20.51,36.29-21.4-5.3-48.95-12.52-67.65-20.12-.66-.27-.97-.62-1.44-.95-.32-.22-.44-.53-1.08-.59-6.64-10.69-15.29-20.94-22.21-31.59-.53-.81-.14-1.88-.46-2.36,23.42,7.04,47.4,13.94,72.33,19.31Z"/>
    <path class="st51" d="M524.18,894.61l-2.16,40.97c-14.46.18-29.81.2-44.26,0-.19-1.65.29-3.35.04-5-.12-.75-1.12-1.54-1.12-1.73v-22.82c0-.21-1.06-.97-1.12-1.73-.26-3.21.27-6.47.04-9.68,15.9.2,32.67.2,48.58,0Z"/>
    <path class="st42" d="M927.94,837.26c-6.72,12.07-14.22,24-22.67,35.7-17.7,7.45-37.41,13.17-57.22,18.73l20.51-35.7c6.09-1.59,12.89-3.91,19.08-5.75,13.7-4.08,26.52-8.99,40.3-12.98Z"/>
    <path class="st51" d="M192.75,870.03l23.75,38.63c-17.47-3.48-33.8-6.93-50.74-11.12-8.72-11.72-15.5-23.92-20.51-36.29,15.44,3.33,31.64,6.1,47.5,8.78Z"/>
    <path class="st51" d="M868.56,855.98l-20.51,35.7c-18.37,5.16-33.88,8.67-52.9,12.88l28.07-38.63c14.9-2.97,31.22-6.25,45.34-9.95Z"/>
    <path class="st49" d="M57.8,810.92h-1.08v-.59c.49.12.76.48,1.08.59Z"/>
    <path class="st49" d="M67.52,836.09v-.59.59Z"/>
    <path class="st42" d="M635.37,956.06l-20.51,33.94c-78.38,6.19-151.62,6.21-229.95-.59l-21.59-32.77c90.13,8.27,182.1,7.98,272.05-.59Z"/>
    <path class="st51" d="M683.95,950.8c-2.41,12.21-12.74,23.22-20.51,34.53-16.21,1.95-32.15,3.38-48.58,4.68l20.51-33.94c16.36-1.56,32.41-3.22,48.58-5.27Z"/>
    <path class="st51" d="M363.32,956.65l21.59,32.77c-16.84-1.46-33.06-3.22-49.66-5.27-7.83-10.62-17.27-21.23-19.43-32.77,15.53,1.91,31.82,3.83,47.5,5.27Z"/>
  </g>
  <g>
    <path class="st28" d="M775.7,590.61c.24-2.35,2.06-2.15,3.46-.22,7.77,40.08,41.48,73.94,85.25,80.95l3.22,2.25,12.19,24.46c-.52,1.65-1.34,1.66-1.88,0-16.44,3.18-21.31,19.15-5.63,27.08,1.52-1.28,3.85-1.29,6.99-.06,2.79-.62,4.84-.31,6.14.93.61,4.85-1.57,6.89-5.74,9.07-23.06,12.03-98.23,12.85-126.09,11.93-21.81-.72-50.96-2.64-71.72-8.33-8.21-2.25-18.14-4.36-15.95-14.41,2.04-1.36,9.99-.4,11.26,1.75,19.51-5.81,18.79-23.12-.94-27.95-.5,2.42-4.18,2.38-4.69,0,2.77-8.72,7.89-16.4,12.19-24.46l2.75-2.2c42.03-7.22,80.17-37.74,86.9-78.07l2.28-2.71Z"/>
    <path class="st24" d="M754.13,509.38c1.07.04,2.23.16,3.07.83,8.36,6.64,21.16,34.87,18.5,45.46l2.01,1.15c.84,10.83.88,21.81,0,32.63l-2.01,1.15c-5.26,43.32-47.11,76.67-91.92,82.97-4.02.56-11.28,2.08-15.01,1.75l-.05-2.26c7.79-8.11,10.54-21.41,11.92-32.18,6.73-52.26,9.15-108.53-6.02-159.12-2.45-3.72-3.77-7.32-3.98-10.82,29.76-1.9,65.33,17.36,83.48,38.43Z"/>
    <path class="st27" d="M882.63,470.95l.16,2.69c-15.32,27.41-15.58,65.05-15.76,96.06-.19,33.22.32,71.78,14.92,101.9l-.26,2.87c-5.29-.02-8.87-.18-14.07-.87-45.91-6.16-79.71-38.76-89.94-80.07-.39-1.58.91-3.43-1.99-2.91,1.03-8.51.98-26.45,0-34.94.47-8.44,11.7-40.24,18.69-43.16.61-.25,1.27-.4,1.94-.51,17.23-21.68,56.69-43.52,86.3-41.05Z"/>
    <path class="st7" d="M670.64,470.95c8.54,11.34,11.13,27.9,13,41.61,5.46,40.14,5.79,93.5-2.02,133.25-1.9,9.7-4.35,23.27-12.86,29.51-4.1-.37-6.15-4.12-7.68-7.26-11.5-23.53-12.94-83.61-12.05-110.26.71-21.22,2.88-59.25,11.52-78.36,2.66-5.89,2.98-8.05,10.1-8.5Z"/>
    <path class="st25" d="M881.69,674.45c-8.63-11.84-11.18-29.14-13.02-43.34-4.69-36.26-4.72-80.56,0-116.82,1.84-14.12,4.26-32.24,13.95-43.35,9.46.79,11.81,14.45,13.61,21.83,7.37,30.2,8.21,69.86,7.07,100.93-.56,15.41-4.62,68.36-14.64,78.95-3.61,3.81-3.93,1.81-6.98,1.8Z"/>
    <path class="st28" d="M773.82,463.09c5.84-3.38,11.89-6.49,18.15-9.32l4.37-.29v58.52c-8.94,11.24-14.99,26.4-18.59,39.9-.39,1.45.04,3.23-2.05,3.77-1.82-15.72-11.01-34.02-21.57-46.29v-59.39l2.03-.76c5.67,4.28,11.56,8.24,17.68,11.89v1.97Z"/>
    <path class="st53" d="M773.82,463.09c-4.96-2.28-14.73-9.63-19.7-13.1-3.78-2.64-7.53-5.46-11.16-8.29l34.61-39.75,1.57,4.97c-.75,16.25-1.24,32.28-1.47,48.1.25,4.35-1.03,7.04-3.84,8.06Z"/>
    <path class="st19" d="M796.34,453.48c-6.83,3.72-14.29,6.93-21.16,10.47-.94,0-1.1-.75-1.35-.86,3.37-6.9,1.55-15.62,1.84-23.18.08-2.07.93-3.97,1.02-6.04.46-10.61.16-21.31.9-31.92l29.92,44.25c.36,1.1-.66,1.41-1.44,1.92-2.4,1.58-6.92,3.83-9.72,5.36Z"/>
    <path class="st19" d="M879.82,698.04c2.34.29,7.8,2.13,9.85,3.49,9.87,6.54,7.5,21.24-4.23,24.46-5.77,1.59-7.73.76-13.13-.87-13.92-6.8-9.61-24.99,5.63-27.08.61.03,1.28-.07,1.88,0Z"/>
    <path class="st19" d="M671.58,698.04c1.41-.13,3.24-.06,4.69,0,16.72,2.33,16.8,24.37.94,27.95-4.93.24-6.85.2-11.26-1.75-14.46-6.38-9.88-24.75,5.63-26.2Z"/>
    <path class="st19" d="M767.26,738.21c-12.19-6.34-12.33-20.01,0-26.2,29.9-7.46,29.9,33.67,0,26.2Z"/>
    <path class="st0" d="M677.21,725.99c7.2-5.08,10.62-7.86,9.4-17.05-.85-6.37-5.29-7.91-10.34-10.9,23.19,1.01,22.17,26.94.94,27.95Z"/>
    <path class="st32" d="M877.94,698.04c-2.61,2.69-7.03,3.3-9.39,6.54-5.25,7.21-2.25,14.83,3.77,20.54-1.27-.38-2.4-.08-4.08-.98-13.52-7.24-7.38-27.04,9.71-26.1Z"/>
    <path class="st33" d="M767.26,712.01l-5.09,5.31c-2.43,4.81-3.3,8.77-.91,13.81l6,7.08c-14.73-3.68-14.73-22.53,0-26.2Z"/>
    <path class="st30" d="M770.06,576.63c-1.77-.27-1.53-1.84-1.98-2.95-14.07-35.1-26.75-56.86-61.5-78.11l-18.11-9.76c16.85-2.14,35.24,5.17,48.69,14.48,25.04,17.33,40.4,47.26,32.9,76.35Z"/>
    <path class="st6" d="M870.43,483.18c.52,2.32-.63,1.5-1.85,2.17-35.27,19.34-55.87,33.82-72.69,70.35l-7.05,18.31c-11.05-44.93,31.7-92.97,81.59-90.82Z"/>
  </g>
  <g>
    <path class="st20" d="M154.92,535.01c45.8-1.23,91.62-1.23,137.42,0l.9,1.48c-1.36,10.33,4.26,19.09,13.13,22.9,1.35-.86,3.12-.91,5.31-.17,2.15-.35,3.88-.08,5.22.79.51.18.5.39,0,.63l1.17.6v148.64l-1.17.78c-.4,1.74-4.52,2.11-5.26.63-10.61,4.02-13.55,9.75-14.79,21.02-.07.65-.49,1.12-1,1.48l-.92-2.54c-49.2.07-98.42.04-147.62.04,0,1.83-1.95,1.75-2.34,0l-1.21-1.14c-.47-7.07-4.42-13.61-10.48-16.62l-.58-1.62,1.2-5.29c-1.64-48.74,2.09-99,0-147.57-.08-1.84-.56-3.47-.61-5.29l.98-1.31c8.3-.78,15.64-7.6,17.02-16.47l1.3-.97c0-1.83,1.95-1.75,2.34,0Z"/>
    <path class="st39" d="M352.58,521.26v154.39c-.42,1.8-2.16,1.61-2.92,0-15.9,1.57-23.16,22.64-12.72,35.25l-.15,1.01-4.68,5c-.16.54-.36.53-.58,0l-1.76.02c-3.3-2.87-7.37-4.52-11.6-4.93l-1.26-1.34v-150.01c6.92-2.63,12.4-7.12,14.8-14.76,2.71-8.64.53-13.33-3.59-20.48-.3-.51-.32-1.05-.09-1.64l-.36-1.38c.93-1.59,5.69-6.83,7.38-6.12l1.65-.19c4.21,3.3,9.53,4.28,14.65,4.03l1.25,1.17Z"/>
    <path class="st50" d="M328.6,497.51l1.1,1.34c-.19,5.71,1.43,11.53,5.25,15.64l.08,1.78-7.02,7.5-.88.26c-2.7-2.32-5.65-4.34-9.06-5.27-2.88,1.3-8.24,1.27-11.11,0-6.43,2.9-11.65,7.7-13.3,15.32l-1.32.93h-137.42l-1.1-1.39c.16-5.44-1.88-10.34-4.7-14.7l.53-1.41,5.26-5,1.13-.4,4.72,3.53c1.1-.84,2.63-.74,4.59.32,2.07-.14,3.47.38,4.18,1.56,9.98-.72,18.31-7.85,19.23-18.79l1.23-1.21h138.59Z"/>
    <path class="st48" d="M355.5,480.01c19.74,7.31,17.36,37.04-2.92,41.25-6.13.53-12.76-.61-17.54-5-5.02-4.6-6.98-11.89-6.43-18.75,1.18-14.83,14.44-20.87,26.9-17.5Z"/>
    <path class="st48" d="M316.91,710.65c5.49.23,10.6,2.3,14.62,6.25,9.7,13.92,4.18,33.25-12.87,36.25-3.68.22-5.9-.03-9.36-1.25-17.69-8.49-16.29-34.64,2.34-40.63,2.04-.45,2.94-.72,5.26-.63Z"/>
    <path class="st48" d="M140.89,513.13c5.53,2.58,9.56,6.36,11.65,12.49.89,2.6,2.41,7.75.05,9.39-.98,10.41-9.74,18.47-19.3,18.75-3.24.1-4.11-.2-7.02-1.25-18.04-9.19-15.74-35.12,3.51-40.63,5.06-.88,6.26-.44,11.11,1.25Z"/>
    <path class="st48" d="M352.58,675.65c1.65.02,2.58.32,4.09.63,20.6,5.99,19.72,36.56-1.17,41.25-5.42.8-6.61.79-11.7-1.25-18.26-8.89-14.15-38.21,5.85-40.63.82-.14,2.02,0,2.92,0Z"/>
    <path class="st48" d="M132.7,711.9c7.46,3.1,12.17,10.98,12.28,19.38,2.18,2.11.54,7.09-.58,9.79-2.81,6.75-9.1,10.97-15.79,12.09-3.68.22-5.9-.03-9.36-1.25-17.8-8.67-16.4-34.52,2.34-40.63,3.99-.77,7.11-1.04,11.11.63Z"/>
    <path class="st48" d="M173.64,475.63c6.26,1.79,11.59,6.17,13.89,12.76.91,2.6,2.31,7.27.14,9.11,2.13,1.85-.07,7.08-1.31,9.44-3.58,6.84-9.82,9.8-16.82,10.56-4.05,0-5.12-.33-8.77-1.88-17.98-9.88-13.15-34.69,2.92-40,3.98-.84,5.91-.75,9.94,0Z"/>
    <path class="st17" d="M349.65,675.65c-15.64,2.66-21.74,24.33-10.84,36.28l4.99,4.35c-2.94-1.18-4.69-2-7.02-4.38-12.3-12.56-4.3-35.97,12.87-36.25Z"/>
    <path class="st8" d="M352.58,521.26c18.95-6.12,21.01-32.31,2.92-41.25,22.04,5.95,18.15,39.42-2.92,41.25Z"/>
    <path class="st1" d="M355.5,717.53c19.37-6.12,20.21-34.02,1.17-41.25,21.93,4.44,21.76,37.85-1.17,41.25Z"/>
    <path class="st4" d="M121.59,711.28l-6.38,4.12c-9.74,8.5-9.89,24.62-.06,33.08l4.1,3.43c-19.68-6.91-17.7-36.73,2.34-40.63Z"/>
    <path class="st4" d="M163.7,475.63l.37.7c-12.54,4.11-17.57,20.44-10.21,32.02l6.92,7.29c-1.84-.78-4.34-1.78-5.85-3.13-12.43-11.06-6.98-33.57,8.77-36.88Z"/>
    <path class="st4" d="M129.78,511.88l-6.62,3.86c-9.22,7.28-10.83,21.48-3.33,30.85l6.45,5.92c-19.61-7.09-17.32-37.01,3.51-40.63Z"/>
    <path class="st5" d="M311.64,711.28l-6.38,4.12c-9.74,8.5-9.89,24.62-.06,33.08l4.1,3.43c-7.81-2.74-12.97-9.24-13.45-18.13-.62-11.64,5.07-20.14,15.79-22.5Z"/>
    <path class="st8" d="M318.66,753.16c11.12-2.95,17.93-12.9,16.32-25.26-.41-3.17-2.34-5.59-3.41-8.27-.41-1.03-.84-1.68-.05-2.73.11.1.49-.1.58,0,11.71,12.73,3.78,35.21-13.45,36.25Z"/>
    <path class="st3" d="M147.32,731.28c.62,11.88-7.77,21.21-18.71,21.88,10.06-2.88,16.52-10.49,16.37-21.88h2.34Z"/>
    <path class="st35" d="M149.66,517.51c.31.27,3.48,6.54,3.82,7.48,1.15,3.2,1.69,6.59,1.44,10.02h-2.34c.86-9.11-4.32-17.74-11.7-21.88,4.42,1.54,4.16,1.77,7.6,4.62.38.32,1.12-.28,1.17-.24Z"/>
    <path class="st8" d="M190.01,497.51c-.03,1.83-1.95,1.75-2.34,0,.49-10.52-5.02-18.23-14.03-21.88,10.41,1.94,16.66,10.52,16.37,21.88Z"/>
    <path d="M145.57,595.64c36.91-.11,73.92-.38,111.01-.82l.68,1.26v116s-1.17,1.7-1.17,1.7h-110.53s0-118.14,0-118.14Z"/>
    <path class="st47" d="M256.09,713.78v-118.14s-110.52,0-110.52,0v-.63l2.45-1.25,107.34.13c7.81-7.64,15.55-15.29,23.23-22.95l1.48-.3v118.43c-.44,2.39-8.25,8.84-10.25,10.94-2.32,2.42-11.71,13.42-13.73,13.77Z"/>
    <path class="st38" d="M280.07,570.64c-8.3,7.89-15.41,17.15-24.28,24.36h-110.22c7.67-8.49,15.35-17.36,23.7-24.97l109.37-.04,1.43.65Z"/>
    <path class="st48" d="M318.08,518.76c20.53,6.02,18.68,36.87-1.17,41.25-3.58,1-7.07.42-10.53-.63-19.32-8.38-16.19-34.6.58-40.63,3.47-.74,7.38-.69,11.11,0Z"/>
    <path class="st52" d="M328.02,523.76c11.82,12.06,4.86,34.21-11.11,36.88v-.63c3.31-.93,8.4-4.89,10.51-7.83,8.48-11.78,3.29-28.36-9.34-33.42,3.5.65,7.36,2.37,9.94,5Z"/>
    <path class="st4" d="M306.97,518.76l.37.7c-14.47,5.57-18,26.07-5.64,36.5l4.68,3.43c-10.34-3.13-15.99-13.08-14.03-24.38,1.41-8.15,6.97-14.61,14.62-16.25Z"/>
    <path class="st31" d="M190.01,497.51c-.3,12.24-9.36,20-20.47,20,2.45-.96,5-1.17,7.42-2.39,6.21-3.13,10.37-10.34,10.71-17.62h2.34Z"/>
    <path class="st46" d="M360.19,496.26c-1.27-6.36-8.95-10.85-14.62-11.56,4.85-4.55,14.57.5,15.65,7.02.25,1.49.62,3.91-1.03,4.54Z"/>
    <path class="st15" d="M328.01,728.15c-1.16-.83-1.35-2.72-2.33-4.06-2-2.72-6.3-5.73-9.33-6.9-.65-.25-4.94-.04-3.53-1.53.38-.4,3.9-1.22,4.8-1.13,5.97.56,12.71,6.81,10.39,13.62Z"/>
    <path class="st15" d="M145.56,528.76l-3.51-5.31c-3.56-3.04-7.64-5.85-12.27-6.25,7.03-5.13,17.56,2.49,15.78,11.56Z"/>
    <path class="st15" d="M362.53,693.15c-.49-5.55-5.56-8.4-9.74-10.53l-4.88-1.96c6.46-3.85,17.08,2.7,15.76,10.9-.12.74-.35,1.48-1.14,1.59Z"/>
    <path class="st15" d="M137.96,728.15c-1.16-.83-1.35-2.72-2.33-4.06-2-2.72-6.3-5.73-9.33-6.9-.65-.25-4.94-.04-3.53-1.53.38-.4,3.9-1.22,4.8-1.13,5.97.56,12.71,6.81,10.39,13.62Z"/>
    <path class="st16" d="M180.65,492.5c-1.16-.83-1.35-2.72-2.34-4.06-3.17-4.31-8.09-6.62-12.86-8.13,6.67-4.76,17.94,3.57,15.19,12.18Z"/>
    <rect class="st43" x="157.26" y="608.14" width="87.13" height="93.13"/>
    <path class="st15" d="M324.5,535.01c-3.68-5.86-8.49-10.29-15.2-11.56,6.22-5.05,17.67,3.39,15.2,11.56Z"/>
    <path class="st21" d="M172.47,685.65l-.58-61.88h57.89c.01,5.62-.02,11.26,0,16.88l-1,2.34c-17.61,13.83-35.23,27.67-52.87,41.52l-3.44,1.15Z"/>
    <path class="st12" d="M229.78,640.65c.04,14.99-.03,30.02,0,45.01h-57.31s57.31-45.01,57.31-45.01Z"/>
  </g>
  <g>
    <path class="st13" d="M407.6,421.98l-.12-1.84c3.92-2.48,7.22-6.13,9.19-10.5l1.74-.07c6.45,4.52,13.35,7.57,20.74,9.13,3.58.76,31.07,3.56,32.11,2.4s-1.27-6.04-2.05-7.55c-6.06-11.67-17.86-20.14-25.79-30.57-2.37-3.12-5.75-7.67-6.74-11.35l.26-1.12c4.47-.88,8.44-3.23,11.98-5.92l1.75.7c5.58,9.85,14.16,17.05,21.05,25.83,4.65-14.17,12.34-27.87,10.52-44.01,4.74-.54,9.45-1.32,13.42-3.92l1.83.83c2.86,8.94,1.25,18.24-.21,26.8,8.34-9.19,21.25-9.58,30.79-16.62-.16-2,1.32-1.63,4.41,1.13,1.39-.64,3.18-.18,5.38,1.37,3.09.47,5.08,1.56,5.98,3.29l1.1.28c-5.73,14.5-22.94,13.12-32.68,22.27-5.86,5.5-6.78,14.46-9.79,21.73.41.62.37,1.3,1.3,1.14,3.51-.6,7.47-3.04,11.87-3.73,8.62-1.35,18.66.83,27.25-1.06l1.91.85c2.14,5.65,6.46,10.19,11.27,13.57l-2.1.68c-18.11,2.52-37.68.21-53.32,10.27l13.01.83c11.43,4.44,22.13,13.36,34.42,11.34l.93.66c-.2,4.93.33,9.88,1.59,14.86l-.87,1.83c-8.05.18-20.75.19-28.25-4.24-5.26-3.11-10.44-10.02-16.97-7.37,3.87,10.26.56,20.27,1.52,30.47,1.72,18.28,7.27,22.79,1.43,41.82-4.65,15.15-12.65,30.62-10.64,47.78l-1.04,1.53c-4.94-.35-9.88-.19-14.72.26l-1.39-1.52c-1.22-15.15,2.7-31.94,7.26-45.73,3.11-9.41,7.77-13.73,6.02-24.73-1.24-7.78-4.27-16.09-4.99-24.05-.81-9.03,1.96-18.28-2-27.38-25.75-9.33-55.59,2.47-78.35-20.39Z"/>
    <path class="st45" d="M397.18,376.68c3.56.93,7.11,2.14,10.25,4.38,18.07,15.77,9.37,44.61-13.53,40.91-3.81-.96-5.01-1.26-8.67-3.39-21.12-14.89-12.12-45.42,11.95-41.89Z"/>
    <path class="st45" d="M545.52,313.72c3.32.94,7.87,2.9,10.73,5.09,16.13,16.44,8.58,40.63-12.42,41.19-3.5-.55-8.44-2.08-11.35-4.66-3.7-1.72-5.79-5.03-7.8-8.68-9.64-17.44,2.51-36.46,20.85-32.94Z"/>
    <path class="st45" d="M566.7,372.29c3.64.88,8.24,2.32,11.35,4.66,16.23,16.4,9.99,40.23-11.32,41.47-3.12-.38-6.48-1.13-9.3-2.97-23.27-12.34-15.86-46.15,9.27-43.17Z"/>
    <path class="st45" d="M483.92,300.84c2.52.68,6.41,2,8.67,3.39,18.41,15.31,12.11,44-10.85,42.18-3.1.09-7.18-1.62-9.78-3.68-22.09-13.99-12.1-46.07,11.95-41.89Z"/>
    <path class="st45" d="M572.59,425.77c2.85.13,8.41,2.23,10.88,3.96,17.47,15.48,10.43,41.53-10.85,42.18-3.91-.54-7.3-1.91-10.88-3.96-20.66-13.62-12.89-46.12,10.85-42.18Z"/>
    <path class="st45" d="M433.32,324.65c2.64.65,7.46,2.2,9.78,3.68,18.66,15.91,11.25,44.13-11.95,41.89-3.65-.91-5.14-.67-8.67-3.39-21.73-13.49-13.33-45.62,10.85-42.18Z"/>
    <path class="st13" d="M495.9,722.56c-.02-.4,0-.78.11-1.11.25-.7,13.26-.78,14.55-.6l1.4,1.16c.68-.17.83.07.48.71.27,10.33-5.55,16.73-8.67,25.51-.77,2.17-.47,5.57-1.47,7.21-3.81,6.24-12.55,5.35-15.71-2.27-3.02-7.27,9.02-22.64,9.32-30.6Z"/>
    <path class="st40" d="M477.7,700.96l.21-1.84c14.72-5.66,32.3-6.76,48.42-.58l1.59,2.45c.44,4.31,1.22,8.2,1.15,12.56l-1.89.59c-14.21-6.68-32.8-5.96-45.63.59l-2.23-.51c-1.17-4.02-1.07-9.12-1.63-13.26Z"/>
    <path class="st40" d="M467.91,617.29l.56-2.36c7.47-5.34,39.76-7.54,47.81-.94l1.37,2.62c.39,3.22.6,6.43.98,9.59l-2.58.6c-14.74-5.71-30.5-4.88-44.35-.23l-2.67-.83c-.32-2.79-.81-5.63-1.14-8.47Z"/>
    <path class="st40" d="M466.13,605.15c2.14-7.38,16.03-8.23,23.09-8.34,8.6-.14,17.65.22,25.92,4.37l.89,2.18c.35,2.81.79,5.64,1.14,8.47l-2.31.92c-15.12-4.52-31.53-5.28-45.01,1.39l-2.58-.51c-.32-2.81-.81-5.67-1.14-8.47Z"/>
    <path class="st23" d="M479.33,714.22c6.91-5.27,17.45-6.19,26.23-6.18,7.34,0,17.08.87,23.51,5.51,0,.31.9,1.13.56,2.16-1.75,5.24-12.62,5.52-17.21,7l-.48-.71c.04-7.75-14.38-8.21-14.88-.83l-1.65.67c-5.82-.25-14.06-.65-16.09-7.63Z"/>
    <path class="st40" d="M476.4,689.53l.45-2.06c7.05-6.85,40.67-7.86,48.09-1.2l1.2,2.59c.32,2.8.83,5.62,1.14,8.47l-1.56.57c-14.31-6.68-32.62-4.88-46.28.16l-2.38-.77c-.34-2.54-.34-5.23-.66-7.76Z"/>
    <path class="st40" d="M479.66,564.25c4.61-.56,12.51-.81,17.16-.27,3.46.4,11.91,2.3,14.51,4.81,2.29,2.21,1.09,5.61,1.44,8.04l-2.13.69c-14.65-5.4-32-4.92-45.4.65l-2.22-.67c-.26-3.18-2.01-6.54.86-8.87,3.02-2.46,11.65-3.87,15.77-4.38Z"/>
    <path class="st40" d="M473.31,665.96l.86-2.42c9.35-4.72,20.26-6.09,31.09-5,5.6.56,14.94,1.57,18.42,6.33.3,2.55.37,5.21.66,7.76l-1.92.76c-14.6-5.48-31.42-4.37-45.1.53l-2.73-.62c-.28-2.27-1-4.97-1.29-7.34Z"/>
    <path class="st40" d="M464.98,592.59l.95-2.74c5.34-6.23,40.5-6.7,47.53-.55l1.26,2.62c.28,2.21.54,4.43.81,6.63l-2.4.9c-15.1-4.4-31.25-4.68-44.86,1.47l-2.64-.58c-.3-2.6-.38-5.2-.66-7.76Z"/>
    <path class="st40" d="M470.85,641.98l.94-2.39c8.03-5.12,38.99-6.97,47.65-.22l1.63,2.65c.31,2.55.36,5.22.66,7.76l-1.9.63c-14.47-6.36-32.02-4.65-45.75,0l-2.58-.67c-.31-2.6-.36-5.2-.66-7.76Z"/>
    <path class="st40" d="M469.54,630.55c.12-1.33.35-1.92,1.16-2.72,5.61-5.5,40.11-6.28,47,.18l1.43,3c.26,2.18.97,4.66,1.29,7.34l-1.78.54c-14.15-6.98-32.97-5.45-46.2.06l-2.24-.64c-.3-2.59-.36-5.2-.66-7.76Z"/>
    <path class="st40" d="M475.09,678.1l.51-2.27c12.31-6.12,27.32-6.89,41.42-4.12,2.48.49,7.1,2.01,7.96,4.6.3,2.59.37,5.2.66,7.76l-2.5.68c-14.93-5.43-30.79-4.27-44.6.76l-2.64-.77c-.27-2.21-.54-4.43-.81-6.63Z"/>
    <path class="st40" d="M472,654.54c1.73-4.83,10.23-6.23,15.25-7.03,5.57-.89,11.34-.94,17.09-.32s14.66,1.6,18.03,6.25c.3,2.55.37,5.22.66,7.76l-1.77.66c-14.47-6.6-32.09-4.74-45.84-.02l-2.61-.68c-.27-2.2-.55-4.43-.81-6.63Z"/>
    <path class="st40" d="M463.52,582.29l.9-2.76c5.12-6.25,40.21-7,47.32-.86l1.52,2.95c.24,1.71.7,3.43.97,5.5l-2.38.75c-14.98-5.29-31.04-4.75-44.81.65l-2.55-.74c-.16-1.58-.78-3.71-.97-5.5Z"/>
    <path class="st10" d="M464.48,587.8c14.18-6.54,34.29-7.16,49.74-.67.22,1.73.3,3.28.49,4.8-7.02-4.98-17.87-5.58-25.81-5.36-8.13.22-17.62,1.01-23.93,6.03-.18-1.62-.33-3.19-.49-4.8Z"/>
    <path class="st2" d="M477.06,697.29c11.22-5.54,28.44-6.51,41.31-3.72,2.98.64,6.7,1.22,8.91,3.76.11,1.04.5,2.3.64,3.67-12.21-5.97-25.58-5.3-37.99-3.92l-12.23,3.89c-.17-1.22-.48-2.45-.64-3.67Z"/>
    <path class="st22" d="M475.9,684.73c14.53-6.06,34.09-7.47,49.74-.67.18,1.55.33,3.35.49,4.8-6.77-4.86-17.54-5.54-25.24-5.37-8.19.18-18.14,1.05-24.5,6.04-.21-1.63-.3-3.23-.49-4.8Z"/>
    <path class="st22" d="M463.02,577.5c6.27-4.01,15.11-4.87,22.67-5.19,8.5-.35,19.07.24,27.07,4.52.27,1.84.31,3.52.49,4.8-6.14-5.15-16.3-5.48-23.51-5.51-8.86-.04-19.41.55-26.23,6.18-.17-1.63-.36-3.16-.49-4.8Z"/>
    <path class="st22" d="M472.82,661.17c7.71-3.77,17.27-5,26.08-5.05,7.22-.04,17.9.49,24.14,5.09.12,1.06.49,2.33.64,3.67-15.68-6.8-36.64-6.96-50.37,1.09-.19-1.59-.3-3.19-.49-4.8Z"/>
    <path class="st22" d="M465.64,600.35c14.09-7.53,33.81-7.19,49.9-1.8.2,1.63.3,3.23.49,4.8-8.52-4.96-21.32-5.45-30.47-4.66-6.61.57-14.83,1.68-19.42,6.46-.19-1.6-.31-3.2-.49-4.8Z"/>
    <path class="st22" d="M471.51,649.74c7.25-3.64,16.09-4.72,24.35-4.9s18.79.08,25.87,4.94c.14,1.22.5,2.45.64,3.67-15.64-6.65-36.73-7.09-50.37,1.09-.19-1.61-.3-3.21-.49-4.8Z"/>
    <path class="st22" d="M474.6,673.3c7.92-3.88,17.09-5,26.08-5.05,7.37-.04,16.82.55,23.66,4.39.12,1.06.49,2.32.64,3.67-2.49-.48-4.92-2.22-7.33-2.8-12.81-3.1-32.09-1.99-42.57,4.6-.2-1.64-.3-3.2-.49-4.8Z"/>
    <path class="st22" d="M469.05,625.75c14.69-5.64,33.94-6.7,49.59.46.19,1.57.32,3.36.49,4.8-5.37-4.84-13.55-5.43-20.05-5.8-9.62-.55-21.87-.04-29.54,5.34-.18-1.56-.32-3.35-.49-4.8Z"/>
    <path class="st22" d="M470.2,638.31c7.2-4.66,17.88-5.52,26.71-5.48,6.98.03,17.65.47,23.51,5.51.15,1.22.5,2.45.64,3.67-7.23-4.74-17.21-5.48-25.24-5.37-8.54.11-17.66,1.28-24.98,5.33-.12-1.06-.49-2.33-.64-3.67Z"/>
    <path class="st22" d="M467.27,613.62c13.84-8.18,33.9-7.22,49.9-1.8.2,1.63.3,3.22.49,4.8-7.3-4.96-18.33-5.23-26.44-4.94-7.97.29-16.77,1.18-23.3,5.61-.12-1.06-.49-2.33-.64-3.67Z"/>
    <path class="st34" d="M443.1,328.32c12.39,7.9,17.2,27.38,7.55,36.97-2.98,2.96-9.61,6.23-13.98,6.34-1.97.05-3.8-.99-5.52-1.41,15.9-.24,27.05-17.13,17.88-33.07-1.88-3.27-5.03-5.52-5.93-8.82Z"/>
    <path class="st37" d="M542.89,400.63c-6.23-17.03,7.09-32.4,23.81-28.34-2,1.09-4.64.36-6.69.92-18.74,5.16-20.4,30.59-2.58,42.24-1.07.47-2.45.14-3.46.28,2.33-1.31.54-1.01-.59-1.97-4.77-4.04-8.24-6.97-10.49-13.14Z"/>
    <path class="st14" d="M397.18,376.68c-22.74,0-30.42,25.17-11.95,41.89-24.36-14.23-14-48.7,11.95-41.89Z"/>
    <path class="st14" d="M545.52,313.72c-22.17-.89-31.44,25.31-13.05,41.61-1.66-1.59-4.19-1.01-4.41-1.13-.13-.07-.28-1.84-1.03-2.76-16.07-19.9-4.2-44.16,18.49-37.72Z"/>
    <path class="st9" d="M583.47,429.73c20.72,14.49,12.6,45.38-10.85,42.18l6.3-2.28c12.11-4.66,16.96-20.89,9.05-33.25-1.51-2.35-4.63-3.87-4.5-6.65Z"/>
    <path class="st36" d="M549.73,455.52c-1.98-3.79-2.87-13.7-1.65-17.35,2.73-8.16,15.55-16.7,24.51-12.4-22.5-1.06-28.64,27.09-10.85,42.18-5.54-3.17-8.91-6.48-12.02-12.42Z"/>
    <path class="st34" d="M492.59,304.23c14.38,8.83,17.61,30.61,4.89,39.79-3.91,2.82-10.26,3.87-15.26,3.09l-.48-.71c14.31-.42,23.89-14.51,18.88-29.31l-8.04-12.86Z"/>
    <path class="st34" d="M407.43,381.06c9.26,6.6,13.93,17.99,10.98,28.51-1.22,4.34-6.91,10.67-10.81,12.41-4.12,1.84-9.27,1.1-13.7,0,16.63.9,27.27-16.69,18.9-32.81-1.64-3.15-4.49-5.06-5.37-8.1Z"/>
    <path class="st14" d="M433.32,324.65c-2.27,1.01-4.91.45-7.28,1.09-17.68,4.73-19.49,28.82-3.56,41.09-1.37.25-2.43-.6-3.51-1.43-20.75-15.95-9.83-46.69,14.36-40.74Z"/>
    <path class="st14" d="M483.92,300.84c-22.52-.89-31.57,26.33-11.95,41.89-10.22-3.87-16.34-18.32-13.48-28.27,3.36-11.73,13.7-16.77,25.43-13.62Z"/>
    <path class="st29" d="M578.06,376.95c19.47,14.63,11.76,44.28-11.32,41.47l6.92-2.6c10.42-4.51,15.65-18.05,9.62-29.65-1.59-3.06-4.87-5.82-5.22-9.22Z"/>
    <path class="st29" d="M556.25,318.81c19.02,14.56,10.79,42.9-11.32,41.47-.33-.02-.73-.23-1.1-.28l11.14-4.4c7.72-6.05,11.25-18.17,6.02-28.28-1.46-2.82-4.54-5.38-4.74-8.51Z"/>
    <path class="st26" d="M511.95,722c-1.87,1.69-12.99.4-16.06.55l-.48-.71c.29-7.26,6.56-8.48,12.63-6.85,3.5.94,6.88,4.31,3.9,7Z"/>
    <path class="st44" d="M395.77,378.67c.97,1.1-.99,1.76-1.72,2.16-2.59,1.41-4.81,1.86-7.38,3.97-5.54,4.56-7.41,12.51-8.11,19.8-5.55-13.81,4.2-25.26,17.2-25.93Z"/>
    <path class="st11" d="M544.12,315.71c1.02,1.24-.93,1.46-1.68,1.85-7.22,3.82-12.09,6.65-14.63,15.27l-1.06,9.94c-6.75-13.92,3.88-26.86,17.36-27.06Z"/>
    <path class="st44" d="M554.15,382.79c-3.38,3.33-5.95,13.42-4.8,18.63-7.65-12.62,3.23-26.7,15.6-26.78,4.57,1.08.27.7-.13.97-3.06,2.06-8.28,4.83-10.68,7.19Z"/>
    <path class="st44" d="M482.51,302.83l-9.72,6.54c-5.85,5.17-7.45,12.46-7.64,20.52-6.46-14.13,3.78-26.79,17.36-27.06Z"/>
    <path class="st11" d="M560.67,435.85c-3.93,3.88-5.55,13.49-5.74,19.25-6.15-13.39,3.38-27.09,16.49-26.98,3.28,1.05-1.12,1.25-1.33,1.39-2.72,1.83-7.29,4.24-9.42,6.34Z"/>
    <path class="st11" d="M420.77,335.15c-3.6,3.55-5.36,12.81-5.59,18.12-6.39-13.8,4.91-27.05,18.07-26.01.28,1.51-2.08.88-2.43,1.12-2.89,1.94-7.79,4.54-10.05,6.76Z"/>
  </g>
</svg>