<?xml version="1.0" encoding="UTF-8"?>
<svg id="Ebene_1" xmlns="http://www.w3.org/2000/svg" version="1.1" viewBox="0 0 1024 1024">
  <!-- Generator: Adobe Illustrator 29.5.1, SVG Export Plug-In . SVG Version: 2.1.0 Build 141)  -->
  <defs>
    <style>
      .st0 {
        fill: #f8bf8d;
      }

      .st1 {
        fill: #237862;
      }

      .st2 {
        fill: #f4a119;
      }

      .st3 {
        fill: #9384ba;
      }

      .st4 {
        fill: #edaf32;
      }

      .st5 {
        fill: #fcd093;
      }

      .st6 {
        fill: #52b09e;
      }

      .st7 {
        fill: #eec76d;
      }

      .st8 {
        fill: #8dc9b7;
      }

      .st9 {
        fill: #aa9bca;
      }

      .st10 {
        fill: #654128;
      }

      .st11 {
        fill: #604594;
      }

      .st12 {
        fill: #bcc890;
      }

      .st13 {
        fill: #f3c777;
      }

      .st14 {
        fill: #6f62a4;
      }

      .st15 {
        fill: #f3d79b;
      }

      .st16 {
        fill: #54b69d;
      }

      .st17 {
        fill: #9eb9c3;
      }

      .st18 {
        fill: #604393;
      }

      .st19 {
        fill: #2da68f;
      }

      .st20 {
        fill: #1f765f;
      }

      .st21 {
        fill: #ab9dcb;
      }

      .st22 {
        fill: #422d1e;
      }

      .st23 {
        fill: #382617;
      }

      .st24 {
        fill: #ee7b17;
      }

      .st25 {
        fill: #28a98c;
      }

      .st26 {
        fill: #dcd6ec;
      }

      .st27 {
        fill: #fefefe;
      }

      .st28 {
        fill: #67579d;
      }

      .st29 {
        fill: #29a98d;
      }

      .st30 {
        fill: #746b9d;
      }

      .st31 {
        fill: #afd5ca;
      }

      .st32 {
        fill: #b8e0d6;
      }

      .st33 {
        fill: #f5a017;
      }

      .st34 {
        fill: #2c1d10;
      }

      .st35 {
        fill: #553621;
      }
    </style>
  </defs>
  <g>
    <path class="st22" d="M86.52,577.47c63.94,5.94,85.73,42.71,106.88,69.65.15,2.61,1.62,6.23,7.73,5.75,189.22-23.88,392.03-23.1,577.39-4.58,73.45,13.99,43.32-.61,77.74-33.36,22.69-29.78,96.5-52.87,141.43-22.12,54.05,29.65,14.01,153.74-23.76,186.57-86.92,75.54-687.28,87.2-916.56,9.96-38.29-12.9-44.2-38.88-37.83-65.88-12.03-47.31-61.89-139.12,66.97-145.99ZM957.73,610.83c-31.32-21.62-79.28,40.33-82.99,53.77,29.01,4.49,70.04,18.93,90.52,25.43,5.53-23.69,22.3-58.64-7.53-79.19ZM99.48,612c-65.82-24.82-48.31,55.03-42.1,74.32,83.16-31.26,125.33-14.07,42.1-74.32ZM484.66,658.4c-92.95-5.55-568.55,29.68-346.62,98.6,93.91,44.7,1027.12,45.81,733.01-65.53-109.17-27.23-267.16-34.2-386.39-33.07Z"/>
    <path class="st10" d="M931.17,831.99c-1.72,1.61-2.26,3.51-3.24,5.27-13.78,3.99-26.6,8.89-40.3,12.98-6.19,1.84-12.99,4.16-19.08,5.75-14.12,3.7-30.44,6.98-45.34,9.95-94.08,18.77-199,27.44-299.04,28.68-15.91.2-32.68.2-48.58,0-94.82-1.21-192.16-9.25-282.85-24.58-15.87-2.68-32.07-5.45-47.5-8.78-24.93-5.37-48.91-12.27-72.33-19.31-.17-.25-1.44-.82-1.94-1.56-.96-1.41-.52-3.57-3.46-3.13-.12-.36.08-.79,0-1.17v-.59c.01-3.34-3.44-6.33-5.4-9.36-1.46-3.84-2.3-7.9-3.77-11.71-.48-1.26-2.96-2.71-1.63-3.5h1.08c40.62,13.76,76.47,22.17,122.24,30,13.62,2.33,44.81,8.22,57.51,8.63.7.02,1.77.17,1.63-.31l-8.65-29.55c16.01,1.84,32.43,3.23,48.58,4.68l8.78,31.53c117.4,12.91,239.92,14.44,358.66,5.85,19.87-1.44,39.64-3.32,59.34-5.29l1.61-.88c4.47-10.13,10.62-20.15,12.07-30.62,15.54-1.25,30.93-2.45,46.42-4.1-.12,9.91-4.9,19.62-8.63,29.26,65.25-9.42,130.55-21.54,184.07-44.47,1.2.2.4,1.35.25,1.89-2.04,7.5-7.22,16.81-10.52,24.44Z"/>
    <path class="st10" d="M903.11,876.47c-8.13,10.99-17.83,21.78-28.07,32.19-58.72,20.41-123.22,33.56-191.08,42.14-16.17,2.04-32.22,3.71-48.58,5.27-89.95,8.57-181.92,8.85-272.05.59-15.68-1.44-31.97-3.36-47.5-5.27-56.12-6.9-114.75-18.08-165.2-33.05-5.28-1.57-17.91-4.98-21.89-6.7-1.01-.44-1.71-1.57-2.92-2.38-1.4-.94-1.93-1.24-3.24-2.34,1.81-.18-.22-1.88-.66-2.27-1.79-1.57-4.03-3.18-5.81-4.75-1.52-1.64-3.35-3.52-4.88-5.26-5.22-5.95-10.37-12-14.55-18.15.48.33.79.68,1.44.95,18.7,7.6,46.25,14.82,67.65,20.12,16.94,4.19,33.27,7.64,50.74,11.12,84.83,16.89,170.53,25.64,261.26,26.92,14.45.2,29.8.18,44.26,0,94.58-1.21,186.12-11.79,273.13-31.02,19.02-4.2,34.53-7.72,52.9-12.88,19.81-5.56,39.52-11.28,57.22-18.73-.81,1.12-1.33,2.39-2.16,3.51Z"/>
    <path class="st10" d="M821.06,953.72c-4.54,2.97-9.2,5.94-14.03,8.78-1.3-.89-2.1.26-2.16,1.17-2.15,1.24-4.31,2.32-6.48,3.51-1.39.76-2.91,1.6-4.32,2.34-1.83.97-3.48,1.95-5.4,2.93-1.67.03-3.8.46-2.16,1.17-22.31,11.14-43.23,20.18-71.25,27.51-7.52,1.97-15.28,3.74-22.67,5.85-27.77,6.06-55.41,9.01-84.77,11.69-1.89.17-4.07-.26-4.83,1.18-2.14.09-4.34-.08-6.48,0-15.04.59-30.26.91-45.34,1.17-32.12.56-64.04.23-96.08-.59-5.34-.13-10.89.22-16.19,0-22.97-.94-47.49-3.15-70.17-5.85-6.46-.77-14.32-1.41-20.51-2.34-23.62-3.54-47.32-9.2-69.09-15.22s-41.05-13.83-59.38-22.82l1.06-.29c-1.14-.78-2.35-1.43-4.3-1.47-.37-.19-.71-.4-1.08-.59.37-1.12-.11-1.36-2.16-1.17-2.26-1.17-4.29-2.32-6.48-3.51l-1.08-.59c-1.08-.59-2.15-1.15-3.24-1.76.12-.81-.79-2.07-2.16-1.17-2.62-1.49-4.53-2.94-6.48-4.1l-3.24-1.76c-.34-.2-.74-.38-1.08-.59l.55-1.18c46.06,13.4,94.32,21.83,145.19,28.1,16.6,2.05,32.82,3.81,49.66,5.27,78.33,6.8,151.57,6.77,229.95.59,16.43-1.3,32.37-2.73,48.58-4.68,58.49-7.05,102.9-16.7,155.16-32.06,1.87-.55,2.74-1.45,2.45.45Z"/>
    <path class="st23" d="M875.04,908.66l1.08.59c-15.83,15.8-33.92,30.64-55.06,44.48.29-1.91-.59-1-2.45-.45-52.27,15.36-96.68,25-155.16,32.06,7.77-11.31,18.1-22.32,20.51-34.53,67.87-8.58,132.36-21.73,191.08-42.14Z"/>
    <path class="st23" d="M125.82,909.24c1.21.81,1.9,1.94,2.92,2.38,3.98,1.72,16.61,5.14,21.89,6.7,50.45,14.97,109.08,26.16,165.2,33.05,2.16,11.55,11.6,22.15,19.43,32.77-50.87-6.27-99.13-14.7-145.19-28.1l-.55,1.18c-24.17-14.69-47.09-30.4-63.69-47.99Z"/>
    <path class="st23" d="M951.69,781.07c-3.46,7.08-4.84,15.31-8.44,22.62-.26.52-.66.77-1.68.82l2.56.55c-4.01,9.19-7.22,18.59-12.95,27.51.08-.18-.08-.4,0-.59,3.3-7.63,8.48-16.94,10.52-24.44.15-.54.94-1.69-.25-1.89-53.52,22.93-118.82,35.06-184.07,44.47,3.73-9.64,8.51-19.35,8.63-29.26,58.55-6.22,116.93-15.38,167.24-33.12,6.13-2.16,11.71-5.08,18.44-6.68Z"/>
    <path class="st22" d="M551.17,1021.03v1.17c-31.66.51-64.58.31-96.08-.59v-1.17c32.04.81,63.96,1.14,96.08.59Z"/>
    <path class="st34" d="M931.17,832.57c-6.64,15.43-15.98,29.25-26.99,43.89h-1.08c.83-1.12,1.35-2.39,2.16-3.51,8.45-11.7,15.95-23.63,22.67-35.7.98-1.76,1.52-3.66,3.24-5.27-.08.18.08.4,0,.59Z"/>
    <path class="st34" d="M67.52,837.26c2.94-.44,2.5,1.72,3.46,3.13.5.74,1.77,1.31,1.94,1.56.32.48-.06,1.55.46,2.36,6.91,10.65,15.57,20.9,22.21,31.59h-1.08c-8.5-10.66-23.21-27.58-26.99-38.63Z"/>
    <path class="st22" d="M438.89,1020.44v.59c-24.54-1.02-46.45-3.01-70.17-5.85v-.59c22.68,2.7,47.2,4.91,70.17,5.85Z"/>
    <path class="st34" d="M814.48,648.75"/>
    <path class="st34" d="M815.56,649.92"/>
    <path class="st34" d="M958.16,776.39c-5.75,4.33-11.2,22.19-14.03,28.68l-2.56-.55c1.02-.05,1.42-.3,1.68-.82,3.6-7.31,4.98-15.54,8.44-22.62.95-1.94,2-4.33,6.48-4.68Z"/>
    <path class="st22" d="M693.67,1006.98c-28.87,6.58-59.09,11.57-90.68,12.88.76-1.44,2.95-1.01,4.83-1.18,29.35-2.68,57-5.63,84.77-11.69h1.08Z"/>
    <path class="st23" d="M596.51,1019.85c-4.71,1.58-10.61.93-15.7,1.15-1.38.06-2.83.61-3.19.61h-16.19c-2.11,0-6.87.53-10.26.59v-1.17c15.09-.26,30.3-.58,45.34-1.17Z"/>
    <path class="st22" d="M55.64,810.34c.39.03.84-.06,1.08,0v.59c-1.32.79,1.15,2.25,1.63,3.5,1.47,3.81,2.31,7.87,3.77,11.71-3.29-5.1-6.3-10.46-8.64-15.8.71.03,1.46-.05,2.16,0Z"/>
    <path class="st22" d="M348.21,1012.25v.59c-23.71-3.57-48.71-8.35-69.09-15.8,21.78,6.02,45.47,11.68,69.09,15.22Z"/>
    <path class="st22" d="M904.19,876.47c-8.62,11.47-17.14,21.87-28.07,32.77l-1.08-.59c10.24-10.41,19.94-21.19,28.07-32.19h1.08Z"/>
    <path class="st23" d="M368.72,1014.59v.59c-6.97-.83-13.14-1.23-20.51-2.34v-.59c6.19.93,14.05,1.57,20.51,2.34Z"/>
    <path class="st23" d="M67.52,835.5v.59c-4.03-2.72-4.17-6.72-5.4-9.95,1.96,3.03,5.41,6.02,5.4,9.36Z"/>
    <path class="st34" d="M455.08,1020.44v1.17c-5.38-.15-10.82-.36-16.19-.59v-.59c5.3.22,10.86-.13,16.19,0Z"/>
    <path class="st22" d="M96.67,876.47c4.19,6.15,9.33,12.21,14.55,18.15,1.53,1.74,3.36,3.61,4.88,5.26-8.64-7.61-14.98-15.7-21.59-24h1.08c.64.06.76.36,1.08.59Z"/>
    <path class="st23" d="M715.26,1001.13l-9.29,3.45c-3.95.84-8.43,1.52-12.3,2.4h-1.08c7.39-2.11,15.15-3.89,22.67-5.85Z"/>
    <path class="st23" d="M122.58,906.9c-2.8-2.37-4.37-4.74-6.48-7.02,1.78,1.57,4.02,3.17,5.81,4.75.45.39,2.47,2.1.66,2.27Z"/>
    <path class="st23" d="M219.74,974.21c-1.14-.56-2.14-1.2-3.24-1.76,1.95.03,3.16.69,4.3,1.47l-1.06.29Z"/>
    <path class="st23" d="M213.26,970.69c2.05-.19,2.53.05,2.16,1.17-.77-.39-1.43-.79-2.16-1.17Z"/>
    <path class="st23" d="M202.46,964.84c-.71-.4-1.46-.77-2.16-1.17,1.37-.9,2.28.36,2.16,1.17Z"/>
    <path class="st23" d="M788.67,972.45c-.74.38-1.41.8-2.16,1.17-1.64-.71.49-1.14,2.16-1.17Z"/>
    <path class="st23" d="M807.02,962.5c-.69.4-1.46.77-2.16,1.17.06-.91.86-2.06,2.16-1.17Z"/>
    <path class="st23" d="M193.83,959.57c-.91-.54-2.07-1.05-3.24-1.76l3.24,1.76Z"/>
    <path class="st23" d="M206.78,967.18c-.36-.2-.72-.39-1.08-.59l1.08.59Z"/>
    <path class="st23" d="M794.07,969.52c1.41-.74,2.93-1.58,4.32-2.34l-4.32,2.34Z"/>
    <path class="st34" d="M475.15,656.33c119.24-1.12,286.77,7.9,395.91,35.14,44.95,11.22,108.91,38.62,38.28,61.07-89.28,28.37-237.17,34.58-339.68,34.36-233.27-.49-301.28,1.98-430.7-26.22-55.7-12.13-104.21-34.91-34.07-60.49,93.36-34.05,259.48-42.82,370.26-43.86Z"/>
    <path class="st23" d="M719.58,824.97c-1.45,10.47-7.6,20.49-12.07,30.62l-1.61.88c-19.7,1.97-39.47,3.85-59.34,5.29-118.74,8.6-241.26,7.06-358.66-5.85l-8.78-31.53c143.75,12.97,296.52,12.16,440.46.59Z"/>
    <path class="st23" d="M172,811.92c19.1,2.94,39.12,5.54,58.53,7.77l8.65,29.55c.13.48-.93.33-1.63.31-12.69-.42-43.89-6.3-57.51-8.63-45.78-7.83-81.63-16.24-122.24-30-.32-.11-.59-.46-1.08-.59-.23-.06-.69.03-1.08,0-3.53-8.75-6.83-17.51-9.72-26.34"/>
    <path class="st23" d="M795.15,904.56c-87.01,19.23-178.55,29.81-273.13,31.02l2.16-40.97c100.04-1.23,204.96-9.9,299.04-28.68l-28.07,38.63Z"/>
    <path class="st23" d="M475.6,894.61c.23,3.21-.3,6.47-.04,9.68.06.77,1.12,1.52,1.12,1.73v22.82c0,.19,1,.98,1.12,1.73.26,1.65-.23,3.35-.04,5-90.73-1.28-176.42-10.03-261.26-26.92l-23.75-38.63c90.68,15.33,188.02,23.37,282.85,24.58Z"/>
    <path class="st23" d="M145.25,861.25c5.01,12.37,11.79,24.57,20.51,36.29-21.4-5.3-48.95-12.52-67.65-20.12-.66-.27-.97-.62-1.44-.95-.32-.22-.44-.53-1.08-.59-6.64-10.69-15.29-20.94-22.21-31.59-.53-.81-.14-1.88-.46-2.36,23.42,7.04,47.4,13.94,72.33,19.31Z"/>
    <path class="st35" d="M524.18,894.61l-2.16,40.97c-14.46.18-29.81.2-44.26,0-.19-1.65.29-3.35.04-5-.12-.75-1.12-1.54-1.12-1.73v-22.82c0-.21-1.06-.97-1.12-1.73-.26-3.21.27-6.47.04-9.68,15.9.2,32.67.2,48.58,0Z"/>
    <path class="st23" d="M927.94,837.26c-6.72,12.07-14.22,24-22.67,35.7-17.7,7.45-37.41,13.17-57.22,18.73l20.51-35.7c6.09-1.59,12.89-3.91,19.08-5.75,13.7-4.08,26.52-8.99,40.3-12.98Z"/>
    <path class="st35" d="M192.75,870.03l23.75,38.63c-17.47-3.48-33.8-6.93-50.74-11.12-8.72-11.72-15.5-23.92-20.51-36.29,15.44,3.33,31.64,6.1,47.5,8.78Z"/>
    <path class="st35" d="M868.56,855.98l-20.51,35.7c-18.37,5.16-33.88,8.67-52.9,12.88l28.07-38.63c14.9-2.97,31.22-6.25,45.34-9.95Z"/>
    <path class="st34" d="M57.8,810.92h-1.08v-.59c.49.12.76.48,1.08.59Z"/>
    <path class="st34" d="M67.52,836.09v-.59.59Z"/>
    <path class="st23" d="M635.37,956.06l-20.51,33.94c-78.38,6.19-151.62,6.21-229.95-.59l-21.59-32.77c90.13,8.27,182.1,7.98,272.05-.59Z"/>
    <path class="st35" d="M683.95,950.8c-2.41,12.21-12.74,23.22-20.51,34.53-16.21,1.95-32.15,3.38-48.58,4.68l20.51-33.94c16.36-1.56,32.41-3.22,48.58-5.27Z"/>
    <path class="st35" d="M363.32,956.65l21.59,32.77c-16.84-1.46-33.06-3.22-49.66-5.27-7.83-10.62-17.27-21.23-19.43-32.77,15.53,1.91,31.82,3.83,47.5,5.27Z"/>
  </g>
  <g>
    <path class="st18" d="M543.97,384.25c.53.55.53.83,0,.85,3.11,1.39,3.46,2.52,1.06,3.41,1.12.4,1.74,1.21,1.88,2.41,49.68,8.6,54.31,50.16,41.71,83.4-7.94,20.95-16.96,42.03-28.76,61.73-1.8,5.5-4.73,12.22-9.54,16.2l-.85-1.27,6.15-12.38-.96-2.38c12.42-24.09,25.83-50.62,29.93-76.67,5.36-34.15-18.8-61.91-64.04-56.75.42,4.48.28,8.96-.42,13.42l-2.65.42-2.05-.38c.2,26.38-.17,52.66-1.13,78.84,1.57,8.57,1.67,17.88,0,26.44-1.21,25.04-1.25,50.38-1.03,75.69-.24,3.7-3.63,5.9-6.4,2.23l-7.31-194.93c-28.25-9.79-64.02,11.61-62.58,37.01l-2.15,2.39c2.19,2.81,3.25,6.28,3.19,10.41,6.52,25.11,15.72,50.71,27.07,75.41l36.14,79.25c-3.9,7.13-12.57-8.97-11.3-13.26-8.72-13.23-15.08-27.63-21.19-41.79-14.86-28.79-30.4-59.16-39.56-89.62-7.47-24.84-8.55-49.24,21.25-64.46-2.76,1.85-5.14,2.33-7.12,1.42-1.2-2.62,1.19-4.9,7.15-6.84l13.44-5.13c1.7-2.26,3.67-3.96,5.89-5.09,9.73-11.36,46.42-10.44,60.96-5.99,5.21,1.59,9.19,4.76,13.22,5.99Z"/>
    <path class="st16" d="M469.79,384.25c-1.4,1.63-1.69,4.26-3.21,5.52-4.13,3.42-19.48,5.82-23.29,11.53l.33,1.97c-6.98,5.17-12.62,11.72-15.96,18.87l-2.38.48c-4.74,11.15-3.4,22.76-.39,34.07,2.7,10.14,6.51,20.15,10.99,29.9,1.63-.11,2.38,1.8,1.06,2.56l4.24,9.38c9.2,18.25,18.09,36.88,26.49,55.44,7.62,15.66,15.03,29.59,22.25,41.79,2.74,4.97,6.19,9.76,8.48,14.92l.84-1.51c-18.95-41.18-39.69-82.78-54.36-125.13-4.36-12.6-9.97-27.06-10.07-40.08,5.71-2.69,7.12,2.94,6.65,6.76,7.05,22.35,14.07,44.66,21.06,66.94,11.27,17.37,20.07,35.83,26.39,55.37l14.19,28.97c1.78,4.06,2.49,7.77,2.71,9.97-3.24,2.72-10.47,2.68-13.78,0-1.1-.8-2.17-1.62-3.13-2.52-2.62-2.46-12.94-16.89-13.21-18.57-.11-.69-.06-1.32.44-1.94l-3.49-2.8c-23.45-32.34-43.99-66.87-62.8-100.65-22.05-39.6-25.61-71.92,30.26-93.57,9.54-3.19,19.32-6.57,29.67-7.68Z"/>
    <path class="st33" d="M535.49,626.46c4.67-2.14,10.38-2.67,17.14-1.6,6.84-.34,12.43.76,16.77,3.3l3.2-1.25c6.75.27,27.09,6.65,31.79,10.43.84.68.95,1.78,1.05,2.76l3.04-.18c7,5.09,12.07,11.95,14.97,18.94-1.04,4.48,4.18,14.43,5.17,20.14,1.83,10.57.87,22.41-1.2,32.95-1.43,7.25-7.36,29.57-11.17,35.36-5.17,7.84-20.03,5-21.21-2.96-.75-5.01,8.48-25.97,10.09-33.29.98-4.44,2.29-10.67,2.5-15.07.09-1.89.68-4.72-2.19-5.57l-1.69-1.48c1.28-8.43-1.57-18.24-7.27-25.35l.48-2.17c-6.98-8.29-13.8-10.41-25.43-13.65-3.2.74-6.73.48-10.6-.78-4.36,0-7.54-.88-9.53-2.63-6.5,2.39-18.22,2.92-24.37,0-4.68,2.62-8.37-4.15-8.64-7.69-.55-7.47,8.99-14.99,17.11-10.22Z"/>
    <path class="st33" d="M472.97,646.08l-2.49,1.93c-9.62.79-19.27,2.04-28.04,5.44l-3.38-.54c-6.38,2.72-9.97,5.29-14.84,9.38l.42,2.12c-5.09,3.88-8.32,8.56-9.64,14.09l-2.44.85c-4.75,15.79-.25,28.55,8.63,42.95,2.77,4.5,14.58,17.39,14.76,20.6.47,8.43-13.63,11.56-21.26,5.1-22.78-19.29-34.88-62.46-19.08-86.56l-.54-2.4c4.15-4.53,8.41-8.92,12.86-13.26l2.51.31c-.35-2.18,1.4-3.91,5.26-5.19l19.67-8.96,2.62.51c1.22-3.81,4.98-4.98,11.28-3.52,9.96-1.73,19.86-2.37,29.71-1.91,17.97,2.73,13.22,26.34-6.01,19.07Z"/>
    <path class="st7" d="M468.73,593.2c6.32,3.73,12.43,11.64,12.72,17.91-.5.57-.84,1.04-.65,1.15,8.34,5.09,19.44,7,29.63,5.18,3.75-.67,14.03-3.18,12.34-6.34-1.4-1.92,2.58-6.97,5.3-7.68,4.61.47,8.34,8.46,9.41,12.14.96,3.29,2.62,9.64-2,10.89-3.21.16-5.59-.18-8.77,1.05-8.44,3.27-8.33,14.05.29,16.86.47.5,1.14,1.23.83,1.63-1.41,1.85-13.26,15.4-14.24,15.99-1.13.68-2.19.98-3.55,1.14,1.48,1.2.82,1.7-1.06.85l-2,1.13c-12.81-4.13-23.62-9.82-34.14-16.95l.11-2.08c7.85-.66,14.54,1.25,14.93-8.09.65-15.61-28.39-7.78-38.89-7.35-6.46.27-4.3-2.75-11.01,1.79-2.79-3.11-.43-13.95,4.24-15.35-.46-.23-.87-.48-1.11-.82-.86-1.19,9.5-15.87,13.82-14.54,3.47-3.03,9.08-6.83,13.78-8.53Z"/>
    <path class="st24" d="M623.45,658.87c-2.56.45-2.2-1.04-2.99-2.24-4.32-6.58-7.6-11.78-15.03-16.52l-1.58-2.19c7.42-26.13-7.23-37.53-37.71-24.17l-2.04-.93c-.69.37-1.8.86-2.21.54-2.06-1.62-15.63-14.33-15.43-15.31l1.75-1.43c43.94-21.64,92.45-8.88,83.45,37.74-1.61,8.34-6.37,16.62-8.21,24.52Z"/>
    <path class="st32" d="M440.12,391.93c-6.08,3.88-13.14,6.58-19.09,10.65-44.17,30.26-18.69,65.16.89,99.95,16.16,28.72,35.5,58.7,54.23,86.42,1.23,2.45-5.25,5.29-7.42,3.41-25.37-37.88-66.06-94.07-78.94-134.76-10.36-32.73,15.34-53.97,50.33-65.67Z"/>
    <path class="st13" d="M571.52,647.79c-3.15-.52-1.85,1.27-2.4,2.71-9.96,26.13-36.66,44.12-71.78,40.78-6.82-1.78-7.15-2.48-5.58-8.03.81-2.87,11.79-17.5,14.43-19.01.8-.46,1.88-.37,2.81-.25.26-.31.78-.54,1.06-.85l2.33-1.35c14.86.16,26.95-7.11,35.48-16.37l3.52-1.04c8.51.37,12.27,1.23,20.13,3.41Z"/>
    <path class="st24" d="M454.95,601.73c-3.59,3.14-10.81,11.52-12.72,15.35l-2.73,1.16c-23.84-5.61-40.73,6.25-28.27,25.34l-.79,2.5c-1.45,1.08-13.86,13.86-14.84,15.35-15.86-18.4-25.53-46.28,4.22-59.29,17.09-7.47,37.33-4.8,55.12-.41Z"/>
    <path class="st4" d="M472.97,646.08l17.69,10.92,18.34,6.99c-4.07,4.81-17.84,18.64-15.74,24.13.56,1.47,2.98,2.02,4.09,3.16-20.25-1.93-37.49-9.51-48.77-23.43-4-4.94-6.04-9.91-9.51-14.95,11.19-4.77,21.53-5.78,33.91-6.82Z"/>
    <path class="st20" d="M536.55,590.64c.2,5.02-3.1,10.2-8.48,12.79-1.59,2.3-5.14,4.48-5.3,7.68-.25,1.72-1.3,1.64-2.12,0,.57-4.12,4.47-9.38,7.42-12.79,12.46-21.8,24.76-43.68,36.92-65.64l3.35-3.44c12.09-20.5,22.9-41.43,33.06-62.59,19.63-40.91-6.56-65.73-55.13-79.4l-2.3-2.14c-.04-.12-.7-.18-.93-.44l.93-.42c16.08,4.89,25.99,5.19,41.66,13.8,50.86,27.95,30.66,60.73,10.45,97.65-17.39,31.76-38.88,64.43-59.53,94.94Z"/>
    <path class="st24" d="M605.43,690.43c-1.91,4.63-18.35,22.38-23.58,24.09-9.71,3.18-20.53-3.44-18.58-11.51.87-3.59,12.22-12.18,15.91-16.22,7.15-7.85,12.46-16.65,17.78-25.35,1.03,1.22,2.17,1.57,3.38,3.68,3.65,6.38,7.85,18.64,5.1,25.32Z"/>
    <path class="st15" d="M548.21,596.61c.11.07.2,1.49,1.03,2.12l14.87,14.08c2.15.43,7.88,13.51,7.41,14.21s-1.22,1-2.11,1.14c-10.53-1.46-23.26-2.23-33.91-1.71,2.9-8.81-2.17-15.69-7.42-23.03,2.88-4.18,5.62-8.57,8.48-12.79,2.33,2.19,5.71,3.68,8.6,5.48.98.61,2.8.33,3.06.49Z"/>
    <path class="st24" d="M412.56,679.34c2.65-8.8,3.89-10.54,11.66-17.06,4.35,5.03,9.8,9.46,15.34,13.67,6.32,4.8,15.57,7,8.89,16.5-8.76,12.45-29.49-7.37-35.89-13.11Z"/>
    <path class="st12" d="M492.04,611.97c-2.25,2.46-8.93,1.91-10.6-.85-3.91-6.07-8.7-11.91-12.72-17.91-.15-.22.15-.63,0-.85l7.42-3.41c.17.26,1.61.86,2.33,1.92,4.69,6.93,9.23,14.03,13.57,21.1Z"/>
    <path class="st16" d="M555.63,538.62c-3.69,7.97-7.79,15.82-12.58,23.41-7.61,12.05-16.2,25.13-26.63,35.43-1.74-8.83-1.59-18.44,0-27.29-1.95-40.53-1.41-81.08,1.06-121.11-2.83-10.63-2.87-21.77,0-32.41,2.61-2.08.04-14.56,1.07-15.34,40.99-4.79,66.43,13.86,68.92,46.44,1.69,22.13-19.67,70.18-31.84,90.87Z"/>
    <path class="st16" d="M434.82,443.95c-.14-18.55,8.94-31.54,30.01-39.38,3.4-1.27,14.15-4.63,17.41-4.76,5.34-.22,13.36,3.17,19.35,2.35l7.42,197.87c1.93-.32,1.97-1.68,2.15-2.95,1.95-14.01.42-32.44.98-46.97.08-2.02,1.08-3.88,1.15-5.9.25-7.4-1.17-15.52,1.02-22.64,1.57,8.4,1.72,17.2,0,25.59,1.01,16.48,1.34,32.96,1.05,49.46-.09-1.99.67-1.04,1.07.86.81.16,1.81.36,2.12.93,1.12,2.07-1.11,7.88-2.12,10.16.93.24.91.53,0,.85-2.44.84-3.53-.36-3.26-3.6-1.04,3.47-3.13,5.53-6.28,6.16-.2.76-.56.73-1.06,0-3.35.51-1.74-1.35-2.23-2.86-3.62-11.16-11.3-23.67-16.3-34.69-5.54-12.22-12.19-33.94-19.07-44.35-3.65-5.53-6.74-7.72-8.78-15.11-2.29-8.29-4.12-16-7.07-24.16-4.92-13.62-10.05-25.66-13-39.85-.62-2.97,1.94-5.42-4.55-7Z"/>
    <path class="st25" d="M568.34,529.24c-.95-.75-.96-1.45-.53-2.33,11.45-23.03,20.99-42.48,28.18-66.77.25-.85.95-1.4,2.02-1.69,4.18-11.76,1.88-23.65-3.18-34.97-1.43-.81-2.49-2.23-3.18-4.26-1.07-.01-2.17-.22-2.67-.95-10.33-15.12-19.53-23.67-41.85-27.63l-2.12-2.13c-.01-.24-.85-2.76-1.06-3.41,25.85,6.64,53.29,19.29,63.33,40.72,6.8,14.5,2.87,25.09-2.91,39.04-9.08,21.94-23.39,43.66-36.05,64.38Z"/>
    <path class="st9" d="M443.3,401.31c2.55-1.53,19.49-8.85,21.99-9.25,2.77-.43,3.88.33,5.55,2-31.2,8.3-47.62,25.63-44.37,52.77,3.4,28.39,28.91,79.24,42.26,107.14-.3.74-.65.73-1.06,0-9.02-18.36-19.07-36.59-26.49-55.44l-4.24-9.38c-.32-.94-.79-1.77-1.06-2.56-3.16-6.96-6.11-14.02-8.4-21.21-4.46-14.05-8.2-28.6-2.2-42.75,2.06-6.48,11.25-17.25,18.02-21.32Z"/>
    <path class="st9" d="M591.66,419.22c9.17,19.69,6.11,41.61-1.93,61.27-7.41,18.13-16.25,36.24-25.95,53.86l-2.85,2.57c-1.13,1.21-1.48.92-1.06-.85,9.51-18.73,19.88-40.5,26.78-59.9,10.77-30.33,11.73-67.67-30.74-81.47-2.24-.73-11.58-2.37-11.94-2.77-.41-.46,1.12-2.51,1.07-3.4,15.7,2.63,31.31,9.01,40.08,20.19,2.55,3.25,4.28,7.1,6.55,10.51Z"/>
    <path class="st29" d="M550.33,552.27c.37.64.61,1.24.4,1.72-5.76,12.78-13.4,25.83-21.6,37.52l-9.82,15.7c-.49,1.01-1.49,1.43-2.9,1.35v-11.09c12.79-19.61,27.44-38.83,39.21-58.85-1.66,4.32-3.31,9.5-5.3,13.65Z"/>
    <path class="st21" d="M514.3,495.12l-1.08-92.47c.14-.84,4.09-.61,4.25-.5.65.5-.01,12.42,0,14.5.09,10.79.01,21.62,0,32.41l-2.11,45.08-1.07.98Z"/>
    <path class="st31" d="M516.42,570.18l-1.11.36c-.27-7.77-.6-15.56-1.01-23.38-.02-8.51-.12-17.07,0-25.59.12-8.8-.24-17.65,0-26.44.2-7.39,2.07-15.71,1.02-23.49l2.16-22.57c-.02,15.77-.94,31.67-1.1,47.3-.26,24.6.29,49.22.04,73.81Z"/>
    <path class="st26" d="M536.56,393.63c-.62-10.76-18.83-11.29-28.62-14.07,8.91-6.29,35.93,1.36,30.8,11.96-.43.9-.74,1.99-2.18,2.11Z"/>
    <path class="st3" d="M560.93,536.91l-.89,4.69c-9.56,18.51-20.22,36.56-31.96,54.16v-.85c-1.01-.75-.66-1.89,1.06-3.41,7.61-11.62,15.28-26.91,21.19-39.23,3.47-5.15,6.79-10.8,9.54-16.2l1.06.85Z"/>
    <path class="st17" d="M489.92,595.76l-1.33.66c-7.53-13.97-13.97-28.3-20.93-42.45h1.06c6.62,13.84,13.73,28.25,21.19,41.79Z"/>
    <path class="st2" d="M481.45,611.11c3.54.29,6.81.7,10.6.85,4.85.19,9.43.07,13.78,0,.35,0,.71,0,1.06,0,2.37-2.03,5.6-2.68,7.42,0,2.2-2.17,3.62-2.17,4.24,0,.74-1.03,1.45-1.31,2.12-.85.7-.04,1.42.03,2.12,0,1.47-.06,4.22-.35,5.29.42-13.12,11.07-37.77,11.05-50.86,0,.55-.76,3.19-.51,4.23-.42Z"/>
    <path class="st28" d="M435.88,486.59c-4.39-7.35-7.89-16.54-10.3-24.55-3.97-13.19-7.15-26.33-.3-39.42-6.91,21.71,3.45,43.27,10.6,63.96Z"/>
    <path class="st14" d="M441.18,498.53c-3-2.45-3.17-6.26-4.24-9.38,3.07,2.27,3.08,6.45,4.24,9.38Z"/>
    <path class="st27" d="M605.43,640.11c-9.97-6.36-23.61-10.21-36.03-11.94.75-3.11-7.1-13.81-5.3-15.35,1.46-1.25,14.98-5.27,17.75-5.75,28.05-4.82,28.14,16.98,23.57,33.04Z"/>
    <path class="st15" d="M551.39,644.37c-9.18,10.84-23.88,20.57-41.33,18.76,2.25-2.58,15.5-18.49,16.96-18.76,8.08.25,16.31-.35,24.37,0Z"/>
    <path class="st5" d="M605.43,645.22c-4.78-1.48-9.05-3.92-13.79-5.52-10.78-3.66-22.22-5.98-33.67-7.87l-18.23-1.95c21.95-4.04,50.5,1.62,65.7,15.33Z"/>
    <path class="st27" d="M442.24,617.08c-2.18,4.38-3.1,10.66-4.24,15.35-6.87,4.65-20.38,8.29-27.55,13.65-15.21-22.8,3.27-35.86,31.79-29Z"/>
    <path class="st5" d="M465.54,632.45l-12.98,2.75c-17.53,5.51-34.93,12.11-48.46,22.82,3.22-7.63,13.74-13.6,22.22-17.5,10.93-5.02,26.75-9.99,39.22-8.08Z"/>
    <path class="st0" d="M623.44,606.85c-10.03-8.17-22.42-15.75-37.62-15.41-5.26.12-10.25,2.46-15.35,2.19,18.62-11.83,44.76-3.26,52.97,13.22Z"/>
    <path class="st0" d="M445.41,604.28c-20.76-4.32-42.16-1.89-57.21,11.09,6.75-16.33,36.9-20.26,54.01-13.2,1.22.5,2.94.79,3.2,2.11Z"/>
    <path class="st11" d="M594.84,423.48c5.1,11.3,7.36,23.23,3.18,34.97-1.87,18.47-20.26,52.78-29.67,70.79-12.21,23.37-26.51,46.29-40.27,69.08-1.24-.42-.57-1.64,0-2.56,11.83-19.16,22.65-39.03,32.85-58.85,7.72-15.01,15.68-30.25,22.27-45.61,10.43-24.3,18.29-46.26,8.46-72.08.91,1.37,2.27,2.84,3.18,4.26Z"/>
    <path class="st30" d="M528.07,595.76c-.14.8.2,1.84,0,2.56-1.17,4.14-5.43,8.78-7.42,12.79-.22.01-1.13.81-2.12.85-.39-.49-.72-.98-.83-1.51-.35-1.69,8.1-13.57,10.37-15.55v.85Z"/>
    <path class="st8" d="M516.42,570.18c.3,9.06,0,18.23,0,27.29l-2.14-.5c0-16.6.05-33.22.02-49.82,2.19,6.54.76,14.13,1.02,20.96.04,1.1,1.1,1.95,1.1,2.06Z"/>
    <path class="st1" d="M528.07,594.91c-2.84,5.73-7.03,11.18-9.54,17.06-1.4.06-2.83-.07-4.24,0-1.9-1.96-.72-3.1,2.12-2.56v-.85c4.26-4.89,7.24-10.45,10.76-15.68.54-.81,1.83-1.18,1.96-1.37-.44,1.1-.53,2.35-1.06,3.41Z"/>
    <path class="st19" d="M506.88,611.97c1.78-1.46,5.58-9.61,6.37-10.23,2.86-2.25,2.01,4.7,2.07,5.61.07,1.16,1.09,1.95,1.09,2.07,0,.53-1.75,1.85-2.12,2.56-2.45.12-4.96-.05-7.42,0Z"/>
    <path class="st6" d="M598.02,458.45c1.19-11.68-.5-23.54-3.18-34.97,7.49,11.75,10.57,22.24,3.18,34.97Z"/>
  </g>
</svg>