<?xml version="1.0" encoding="UTF-8"?>
<svg id="Layer_1" xmlns="http://www.w3.org/2000/svg" version="1.1" viewBox="0 0 24 24">
  <!-- Generator: Adobe Illustrator 29.6.1, SVG Export Plug-In . SVG Version: 2.1.1 Build 9)  -->
  <defs>
    <style>
      .st0 {
        fill: #e19360;
      }

      .st1 {
        fill: #4f3923;
      }

      .st2 {
        fill: #bf7e52;
      }

      .st3 {
        fill: #ecd77e;
      }

      .st4 {
        fill: #cb8457;
      }

      .st5 {
        fill: #3fa4c3;
      }

      .st6 {
        fill: #fefefe;
      }
    </style>
  </defs>
  <path class="st0" d="M6.05,10.45c-.06.16-.02.03-.02.03,0,0,.04.04.04.05.5.84.85,1.43,1.62,2.07,2.84,2.39,7.42,1.93,9.63-1.09.17-.23.58-.8.65-1.02,0-.01,0-.03-.02-.05.02-.03.04-.06.07-.09s.05-.05.08-.06c.81-.34,1.66-.68,2.5-.95,1.77-.57,3.18-.04,3.4,1.91v.61c0,.74-.46,1.33-1.1,1.65l-5.54,2.28c-.02.25-.03.58-.01.75l-.13.12c-2.97.59-3.88,4.55-1.53,6.42l.06.16s.01.09,0,.1c-.93.39-1.89.61-2.9.65h-1.41c-1.12.04-2.14-.19-3.06-.7l-.04-.09.06-.16c2.31-1.89,1.24-5.82-1.66-6.37l-.12-.12c.07-.11.08-.67.03-.74l-5.55-2.29C.45,13.21.02,12.57,0,11.86c.01-.18-.02-.39,0-.56,0-1.57,1.43-2.48,2.91-2.1.96.25,2.1.69,3.01,1.1l.13.15Z"/>
  <path class="st2" d="M18.42,23.99h-.94c-.35-.03-.65-.08-.98-.21-.26-.11-.67-.28-.76-.54-2.62-1.95-1.6-6.19,1.59-6.7,4.65-.74,6.17,5.87,1.74,7.3l-.67.15Z"/>
  <path class="st4" d="M6.61,16.54c3.15.48,4.3,4.72,1.73,6.65.03.06.02.08,0,.12-.24.33-1.62.71-2.01.68-.24-.02-.51.02-.75,0-1.39-.14-2.72-1.23-3.14-2.55-.87-2.71,1.36-5.33,4.17-4.9Z"/>
  <path class="st2" d="M17.63,0c1.07.18,2,.85,2.41,1.88.68,1.71-.35,3.72-2.18,4.03-.05.1-.1.11-.17.02-.11-.15-.43-1.03-.51-1.27l.02-.15c.13-.09.29-.15.5-.17,2.41-1.17-.3-4.2-1.71-1.92-.03.19-.09.34-.19.46h-.16c-.35-.28-.72-.51-1.11-.7l-.08-.14c-.09-.32.24-.76.46-1.01.52-.62,1.19-.98,1.98-1h.75Z"/>
  <path class="st2" d="M7.13,0c.77,0,1.47.4,1.96.99.22.26.56.7.47,1.03l-.09.14c-.39.19-.76.42-1.1.68h-.17c-.1-.09-.16-.24-.19-.43-1.42-2.29-4.15.76-1.71,1.92.2.02.37.08.49.17.02.05.04.1.02.15-.03.13-.46,1.23-.51,1.28-.08.08-.12.09-.17-.02-2.93-.55-3.23-4.63-.48-5.71l.72-.2h.75Z"/>
  <path class="st2" d="M6.05,10.45c.24.09.64.17.84.28.1-.05.19,0,.27.13.96,1.44,2.54,2.25,4.23,2.59.17-.08.37-.1.61-.06.24-.04.44-.02.61.06,1.68-.34,3.28-1.15,4.23-2.59.08-.13.17-.18.27-.13.21-.11.61-.19.84-.28.14-.02.1.04.06.13-2.39,4.87-9.63,4.86-12.02,0-.04-.09-.09-.14.06-.13Z"/>
  <path class="st0" d="M14.44,2.01c.47.21.97.52,1.36.84h.16c.49.44.92.93,1.26,1.48l-.02.16c.26.45.36.95.56,1.37.03.05.09.03.09.03,0,0-.05.09-.04.16.05.37.16.75.19,1.13.07,1.16-.27,2.38-.85,3.37-.02.03-.12.16-.04.17-.17.1-.38.49-.54.66-1.07,1.18-2.35,1.91-3.96,2.06l.11-.13c3.25-.95,2.72-6.5-.73-6.48s-3.92,5.51-.7,6.48l.11.13c-1.62-.16-2.88-.87-3.96-2.06-.16-.17-.36-.56-.54-.66l-.46-.97c-.59-1.46-.42-2.22-.25-3.7,0-.06-.05-.15-.04-.16,0,0,.07.02.11-.06.2-.41.29-.9.55-1.35,0-.03-.01-.07-.01-.1,0-.24,1.08-1.49,1.32-1.53.03,0,.07,0,.1,0,.39-.33.89-.64,1.36-.84,1.56-.69,3.31-.69,4.87,0Z"/>
  <path class="st0" d="M17.71,18.01c2.74-.33,3.54,3.64.93,4.39-3.12.9-4.04-4.02-.93-4.39Z"/>
  <path class="st0" d="M5.71,18.01c2.78-.36,3.52,3.72.89,4.41-3.11.82-3.98-4.01-.89-4.41Z"/>
  <path class="st1" d="M17.2,4.5c-.33-.58-.89-1.21-1.41-1.64.07-1.54,2.24-1.87,2.82-.45.43,1.04-.3,2.1-1.41,2.09Z"/>
  <path class="st1" d="M8.21,2.86c-.54.45-1.06,1.03-1.41,1.64-1.14.02-1.89-1.12-1.39-2.17.64-1.35,2.73-.97,2.8.53Z"/>
  <path class="st3" d="M12.61,13.45c-.46.04-.76.05-1.22,0-2.27-.64-3.05-3.47-1.78-5.37,1.16-1.73,3.51-1.79,4.73-.08,1.35,1.9.59,4.8-1.73,5.45Z"/>
  <path class="st6" d="M8.81,4.51c2.08-.24,2.27,2.86.31,2.98s-2.18-2.76-.31-2.98Z"/>
  <path class="st6" d="M14.8,4.51c2.08-.24,2.27,2.86.31,2.98s-2.18-2.76-.31-2.98Z"/>
  <path class="st1" d="M11.85,7.51c1.05-.17,1.22,1.33.31,1.48-1.04.17-1.21-1.33-.31-1.48Z"/>
  <path class="st5" d="M8.85,5.26c1.05-.17,1.21,1.33.31,1.48-1.05.17-1.21-1.33-.31-1.48Z"/>
  <path class="st5" d="M14.85,5.26c1.05-.17,1.21,1.33.31,1.48-1.05.17-1.21-1.33-.31-1.48Z"/>
</svg>