<?xml version="1.0" encoding="UTF-8"?>
<svg id="Layer_1" xmlns="http://www.w3.org/2000/svg" version="1.1" viewBox="0 0 283.46 425.2">
  <!-- Generator: Adobe Illustrator 29.5.1, SVG Export Plug-In . SVG Version: 2.1.0 Build 141)  -->
  <defs>
    <style>
      .st0 {
        fill: #eeecea;
      }

      .st1 {
        fill: #3c2a20;
      }

      .st2 {
        fill: #694439;
      }

      .st3 {
        fill: #cdaa72;
      }

      .st4 {
        fill: #a46137;
      }

      .st5 {
        fill: #88523c;
      }

      .st6 {
        fill: #d4e199;
      }

      .st7 {
        fill: #634a3f;
      }

      .st8 {
        fill: #8b533c;
      }

      .st9 {
        fill: #cdaa71;
      }

      .st10 {
        fill: #fbe0d8;
      }

      .st11 {
        fill: #fff;
      }

      .st12 {
        fill: #4dad47;
      }

      .st13 {
        fill: #89523b;
      }

      .st14 {
        fill: #84bc41;
      }

      .st15 {
        fill: #060505;
      }

      .st16 {
        fill: #cdac71;
      }

      .st17 {
        fill: #cdac72;
      }

      .st18 {
        fill: #e32226;
      }

      .st19 {
        fill: #f9a66d;
      }

      .st20 {
        fill: #60382b;
      }

      .st21 {
        fill: #61392b;
      }

      .st22 {
        fill: #fbded7;
      }

      .st23 {
        fill: #89513c;
      }

      .st24 {
        fill: #0b0808;
      }

      .st25 {
        fill: #fbfcfc;
      }

      .st26 {
        fill: #050404;
      }

      .st27 {
        fill: #0f0b0b;
      }

      .st28 {
        fill: #0d0909;
      }

      .st29 {
        fill: #b9794d;
      }

      .st30 {
        fill: #ea645a;
      }

      .st31 {
        fill: #8a533c;
      }

      .st32 {
        fill: #f9f8f8;
      }

      .st33 {
        fill: #090707;
      }

      .st34 {
        fill: #322117;
      }

      .st35 {
        fill: #100a0b;
      }

      .st36 {
        fill: #e21f26;
      }

      .st37 {
        fill: #fbe1da;
      }

      .st38 {
        fill: #844d39;
      }

      .st39 {
        fill: #fbdfd8;
      }

      .st40 {
        fill: #df854f;
      }
    </style>
  </defs>
  <path class="st29" d="M94.75,139.67c.14-.67-.34-.58-.72-.78-1.43-.78-2.98-1.4-4.38-2.23-7.6-4.48-14.36-11.8-7.25-20.48-10.99-15.83-12.28-36.78-3.23-53.9-4.61-2.49-9.1-6.09-10.63-11.41-3.65-12.67,6.73-24.36,18.96-25.18,8.95-.6,15.3,2.34,18.56,11.13,21.2-11.17,48.09-11.09,69.3,0,.72-1.36,1.14-2.81,1.93-4.14,5.38-9.11,19.34-8.56,27.21-3.3,12.69,8.47,12.01,27.04-2.54,32.75,9.29,16.84,8.08,38.17-2.95,53.83-.08.48,1.38,2.2,1.72,2.87,3.82,7.37-1.99,13.46-7.8,17.08l-6.25,3.5-.22.59-4.96,1.63c-.35.34-.95.52-1.78.56-7.85,2.8-16.47,4.02-24.86,4.97-.94-.13-.85-.64-.1-1.08.09-.24.18-.24.27,0l.27-.28.54-.92c15.87-8.08,7.97-35.49-3.08-44.12-1.32-.68-2.38-1.51-3.18-2.49.23-.13.47-.24.72-.32,1.94-.59,8.71,1.25,11.06,1.91,4.71,1.34,9.19,3.17,13.4,5.39,4.4,1.84,4.57-3.49.46-4.36l-5-2.29-.18-.62.52-.75c10.26-3.63,11.52-18.96,1.45-23.73-12.36-5.85-23.65,9.25-15.07,19.73v.86l-1.66.21c-9.91-2.05-20.02-1.2-29.95.02l-.84-.23v-.84c5.9-6.98,2.07-19.57-7.21-20.79-15.9-2.08-20.69,18.97-6.38,24.74l.5.77.06.36c-2.39,1.13-4.8,2.3-7.25,3.5-2.12,1.55-.61,4.9,1.92,3.64,7.37-3.77,15.82-6.6,24.14-7.24l.77.29c-.73.98-1.73,1.83-3,2.53-10.89,9.27-18.29,36.76-1.67,44.39l.58.89c-.25.8-1.93.67-2.72.57-7.53-.93-17.8-2.49-24.78-5.34-.55-.23-1.01-.64-1.42-1.07-.65.68-2.54-.33-3.27-.83h-.01Z"/>
  <path class="st29" d="M183.42,147.45c.14-.1.29-.19.45-.25,2-.72,9.25,6.45,10.1,8.51,3.95,9.63,7.67,19.49,11.32,29.25,3.49,9.33,6.94,18.66,9.58,28.29.12.45.16.93.2,1.41.03.48.03.97,0,1.46,2.33,8.95,4.7,21.38,5.18,30.72.15,2.92-.44,6.91.28,9.59-.38,9.11-2.67,18.42-7.97,25.93-9.63,13.63-27.96,18.24-43.05,20.22-18.66,2.16-38.29,3.87-57.02,1.11-.24.11-.48.2-.73.26-2.04.49-10.56-1.96-13.13-2.74-19.79-6.01-35.14-19.74-37.43-41.44.41-1.3,0-1.55,0-2.63,0-13.45,1.66-25.1,4.92-37.95l.03-1.58c5.55-22.91,14.43-46.03,23.32-67.09.1-1.1,4.82-3.33,5.28-3.19.24.07.44.19.57.42-.05.96-.12,1.93-.41,2.85-4.39,14.32-8.37,27.57-10.7,42.48-3.32,21.22-5.1,50.1,4.67,69.58,16.11,32.11,65.81,39.78,91.61,15.82,34.33-31.88,15.71-91.39,2.89-129.45-.09-.52-.07-1.04.07-1.56h0l-.02-.02Z"/>
  <path class="st29" d="M229.53,403.73c-.03-.31-.3-.03-.82.83-5.66,4.45-20.85-1.16-25.09-6.54-5.56-7.04-5.25-21.93-7.18-31.04-3.42-16.13-9.91-38.42-18.2-52.48l.92-.94c21.19-8.26,41.8-26.35,42.98-50.89l.57-1.27c12.79,31.36,16.68,66.12,17.47,99.92.14,5.91-.6,13.14.06,18.84.79,6.73,8.59,11.53,8.68,17.87.03,2.67-2.07,4.8-4.6,5.08-.8.09-1.69-.26-2.05-.17s-.75.77-1.19,1.02c-3.89,2.27-7.57.85-11.55-.23h0Z"/>
  <path class="st29" d="M104.03,315.9c-7.88,14.09-15.36,39.52-18.15,55.59-2.72,15.66.2,28.25-18.2,33.44-3.8,1.07-10.46,2.37-13.58-.63-.26-.92-.45-1.1-.55-.56-3.48,1-7.33,2.38-10.83.61-.56-.28-1.64-1.33-1.92-1.39-.98-.22-1.86.48-3.7-.38-4.13-1.93-2.77-6.65-1.06-9.85,3.3-6.19,6.7-7.02,7.15-15.23.4-7.34-.21-15.13-.02-22.54.78-30.99,5.38-63.05,16.65-91.86l.75,1.36c3.94,23.02,21.26,42.17,42.36,50.47l1.08.98h.02Z"/>
  <path class="st29" d="M279.73,256.69l-.52-.16c-.73,2.2-2.25,3.79-4.44,4.46-1.96.6-5.69,1.14-2.95-1.39,1.76-2.51,1.66-4.78,1.1-7.63l.41,3.06c.09.55-.05.88-.41.97.63.06.01,1.54-.23,2.07-1,2.21-2.41,3.68-4.96,3.35-.69-.22-2.14-1.07-2.71-1.54-.62-.51-.72-1.46-1.65-1.51-.41-.33-.8,1.16-.27.83-2.83,5.86-7.12-.03-8.69-3.51-1.55-3.42-2.15-6.92-4.08-10.29-4.55-7.94-14.82-14.52-22.15-19.83-3.74-12.22-7.91-24.88-12.75-37-2.89-7.24-6-14.4-9.42-21.34-4.36-8.86-9.14-16.27-14.5-24.45-.45-.69-.73-1.47-.98-2.26,18.39,6.43,37.52,18.47,51.44,32.24,17.08,16.9,36.62,47.62,38.87,72.14.38,4.16.68,7.97-1.09,11.81h0l-.02-.02Z"/>
  <path class="st29" d="M94.21,140.78c-.07.68-.25,1.32-.54,1.93-17.16,24.76-28.19,54.32-36.56,82.85-7.66,5.5-18.35,12.3-22.79,20.84-2.16,4.17-3.45,12.71-7.86,14.78-2.4,1.13-3.23.04-4.28-1.99-.2-.09-.68-3.66-.59-3.5.17.3.24,2,.05,2.39-1.08,1.34-2.4,2.83-4.09,3.34-1.92.23-3-.23-4.14-1.82-.56-.78-1.72-2.69-1.04-3.33-.82-.58-.37-3.15,0-4.17-.93,2.59-.44,6.56,2.11,8.65.59,1.32-2.65.63-3.45.43-2.29-.57-4.33-2.36-5.03-4.67l-.45.46c-4.31-9.06,2.02-28.96,6.04-37.9,10.31-22.92,26.51-44.21,46.53-59.05,11.09-8.22,23.38-14.12,36.1-19.23h0Z"/>
  <path class="st4" d="M186.7,139.39c1.16,0,2.71.72,3.82,1.11,8.39,11.2,14.86,23.4,20.51,36.23,6.74,15.3,12.7,31.43,17.12,47.61.09.32.47,1.04.02,1.22-4.35-3.15-8.91-6.06-13.1-9.45-5.31-20.35-14.26-40.34-21.59-60.15-2.47-3.52-5.87-7.25-10.06-8.51-.25.07-.35-.02-.27-.28-.72-.06-2.13-4.75-2.05-5.02.08-.23.19-.42.41-.54.03-.02-.14-.39.34-.64.63-.33,4.23-1.58,4.85-1.58h0Z"/>
  <path class="st4" d="M220.53,256.41c.02.09-.03.2,0,.28l.27.28c.6,1.48,1.3,2.95,1.91,4.45-.17,25.43-22.59,45.12-44.47,53.09-2.51-4.27-5.38-8.32-8.73-11.95-.23-.87.87-.49,1.7-.63,26.95-4.6,46.51-13.46,48.78-44.55.04-.53-.31-1.12.54-.96h0Z"/>
  <path class="st4" d="M112.49,303.66c-2.93,3.98-6.03,7.89-8.46,12.23-13.17-4.58-25.5-14.49-33.51-26.04-5.5-7.93-9.39-17.08-10.69-26.77.39-.99,1.08-2.45,1.36-3.34.5.29.46.77.54,1.26,4.67,27.24,25.7,38.97,50.75,42.66h0Z"/>
  <path class="st4" d="M98.03,140.5l.41.48c-.72,2.12-1.44,4.25-2.17,6.37l-.7.37c-.05.25-.14.24-.27,0-1.17.25-4.32,1.58-5.04,2.51-.98,1.27-2.78,6.48-3.55,8.34-8,19.29-15.47,40.35-20.61,60.59-2.94,2.22-6.02,4.25-9,6.39-.37-1.06.37-2.78.68-3.89,5.04-17.69,11.97-36.05,19.82-52.64,4.88-10.31,10.76-18.67,16.6-28.25.18-.29.38-.95.55-1.11.53-.51,2.5.57,3.27.83h0Z"/>
  <path class="st23" d="M5.54,256.97c-.19-1.51-.31-2.73.08-4.23l1.29-2.99c-2.16,6.27.34,11.85,7.37,11.39-3.04-2.68-3.3-6.29-1.91-10,.67,0,0,.82,0,.97v4.17c0,.38.86,2.31,1.14,2.73,1.04,1.61,2.3,1.99,4.05,2.41-4.56,1.36-9.85.08-12-4.45h-.02Z"/>
  <path class="st5" d="M279.73,256.69c-.99,2.14-1.83,3.33-4.1,4.3-2,.85-5.88,1.06-7.91.42,2.09-.54,3.58-1.22,4.5-3.33.11-.26.68-1.98.68-2.09v-4.03l.83,2.93c-.07,2.56-.92,4.51-2.74,6.24,7.11.39,9.23-5.05,7.37-11.39l1.3,3.26.07,3.69h0Z"/>
  <path class="st31" d="M21.63,258.08c-.97-2.97-.61-6.47.96-9.18.1-.18.22-1.02.68-.55.16.17-1.71,3.7-1.36,4.59l.27,6.25c-.23-.44-.34-.49-.55-1.11h0Z"/>
  <path class="st8" d="M229.53,403.73c-.31.47-.41.51-.82.83,2.19-4.46-.73-7.04-3.55-10l3.14,2.5c1.49,2.13,2.87,4.19,1.23,6.67h0Z"/>
  <path class="st13" d="M263.36,258.36c-.09.28-.13.54-.27.83-.57.35-.64.5-.45-.31.9-3.73.9-6.58-.37-10.25,2.16,2.83,2.17,6.48,1.09,9.73Z"/>
  <path class="st8" d="M53.55,403.73c-1.76-3.05.63-6.14,2.86-8.06.31-.26.44-.67.96-.55-1.84,2.12-3.78,3.69-3.56,6.82.06.84.64,1.7.28,2.35-.21-.2-.35-.22-.55-.56h.01Z"/>
  <path class="st29" d="M220.8,256.97l-.27-.28c.02.07.22.16.27.28Z"/>
  <path class="st19" d="M149.59,98.25c7.4,3.15,11.76,11.81,13.99,19.24,3.34,11.12,2.95,22.5-8.26,28.29l-.27.28c-.07.04-.2-.04-.27,0-.11.2-.22.4-.36.57-1.07,1.29-6.96,2.52-8.89,2.78-5.67.78-11.72-.16-17.13-1.87-.52-.16-1.54-.6-1.45-1.21-13.39-6.09-12.5-20.82-7.77-32.79,2.33-5.89,5.95-12.28,11.86-15.02l.52-.83c5.57-2.11,11.87-2.2,17.5-.26l.54.81h0Z"/>
  <path class="st40" d="M126.95,146.34c.81.13,1.45.7,2.24.91,9.13,2.46,16.77,2.93,25.59-1.19-.42.7-.4.57.34.49,6.3-.68,12.6-1.64,18.76-3.12,2.16-.52,4.77-1.67,6.75-2.03.39-.07.84.24.88.22l1.64,5.56-.46.38c-4.59-1.09-9.33-.85-14.2.72-15.42,4.9-31.23,6.9-47.29,3.46-7.6-1.89-15.27-3.12-23.01-3.69-1.08.24-1.94.13-2.61-.32l2.46-7.23c8.8,3.05,16.84,4.62,26.06,5.83.77.1,2.46-.06,2.86,0h0Z"/>
  <path class="st38" d="M156.96,94.08l.8.05c3.33,3.5,7.53,4.02,11.99,3.27l.31.57c.54.06,2.68,1.12,3.37,1.43.86.39,4.2,1.97,4.66,2.48,1.52,1.66.38,4.47-1.9,4.44-.91-.01-5.14-2.39-6.41-2.92-6.37-2.65-13.28-4.68-20.18-5.15-5.34-2.27-13.29-2.16-18.55.28-7.49.73-14.91,3.06-21.82,5.99-1.19.5-3.06,1.86-4.23,1.82-2.36-.09-3.23-3.31-1.22-4.87.66-.51,6.91-3.38,7.62-3.49-.01-.27.09-.47.32-.58,4.51.8,8.62.12,12.04-3.34l.74.03c10.74-1.84,21.76-2.41,32.47,0h0Z"/>
  <path class="st19" d="M188.27,34.39c8.84-1.02,17.86,6.24,15.48,15.77-.41,1.64-3.18,6.38-4.92,6.4-.59,0-2.68-3.21-3.26-3.9-4.45-5.22-9.51-9.34-15.12-13.2,1.6-2.95,4.56-4.69,7.83-5.07h-.01Z"/>
  <path class="st19" d="M100.72,39.84c-.11.19-3.03,1.89-3.6,2.32-5.58,4.18-10.43,8.93-14.51,14.65-9.76-6.67-5.23-20,5.54-22.13,3.2-.63,7.11-.53,9.86,1.46.61.44,3.17,2.9,2.71,3.69h0Z"/>
  <path class="st11" d="M124.49,94.08c-1.95,2.12-5.18,3.93-8.04,4.18-1.52.13-4.03-.45-5.06-.29-15.27-5.17-11.33-27.61,5.33-26.14,10.28.91,14.75,14.63,7.77,22.25Z"/>
  <path class="st11" d="M170.05,97.97c-1.27-.13-3.41.43-5.06.29-3.07-.27-6.01-1.93-8.04-4.18-9.15-10.14.72-25.82,13.58-21.76,12.33,3.89,11.69,21.99-.49,25.65h0Z"/>
  <path class="st21" d="M166.99,61.91c1.97-.23,3.45.02,5.21.93.99.51,5.3,3.75,2.84,4.5-1.38.42-1.36-.67-2.11-1.35-1.58-1.43-3.55-2.14-5.67-1.86-1.22.16-4.61,2.21-4.6.06,0-1.37,3.22-2.15,4.33-2.28h0Z"/>
  <path class="st20" d="M111.87,61.91c1.47-.2,6.43.37,6.86,2.07.59,2.34-3.76.26-4.54.16-1.54-.2-2.7,0-4.07.71-1.03.53-3.44,3.58-4.33,2.29-.97-1.4,2.67-4.02,3.78-4.52.64-.28,1.62-.61,2.31-.71h0Z"/>
  <path class="st40" d="M155.05,146.06l.27-.28s-.12.2-.27.28Z"/>
  <path class="st19" d="M183.15,147.17c.1.07.18.2.27.28,12.45,38.12,30.54,91.42,2.05,126.48-24.24,29.83-78.98,23.56-96.77-10.38-8.59-16.38-8.33-38.4-6.77-56.47,1.75-20.31,6.67-40.23,13.37-59.35.09-.02.18.02.27,0,6.73-1.24,20.43,2.69,27.77,3.81,10.72,1.64,19.4,2.05,30.13,0,7.65-1.46,18.86-5.85,26.27-5.2.68.06,2.94.49,3.41.83h0Z"/>
  <path class="st1" d="M141.41,125.49c-.41.78-.95.79-1.36,0-4.2-.23-8.44-2.35-9.15-6.94-.52-3.36-.24-4.87,3.14-5.72,2.91-.74,9.93-.68,12.89-.05,3.92.83,4.31,2.56,3.41,6.37-1,4.23-4.91,6.12-8.92,6.34h-.01Z"/>
  <path class="st2" d="M141.41,125.49c.11,6.23-1.55,14.03,6.05,16.21,4.53,1.3,10.36-1.81,9.44-7.11-.12-.67-1.39-2.66-.34-2.98,1.77-.53,1.9,4.62,1.75,5.68-.31,2.09-2.69,4.54-4.52,5.4-4.86,2.3-10.81-.13-13.06-4.97-2.26,4.39-7.05,6.8-11.87,5.42-3.01-.86-5.91-3.97-6.01-7.24-.03-.92.59-4,1.55-4.25,1.74-.47.22,2.2.12,2.9-.32,2.31.3,4.15,2.03,5.67,3.16,2.78,8.13,2.22,11.05-.68,3.66-3.63,2.13-9.38,2.45-14.05.44.02.92.02,1.36,0h0Z"/>
  <path class="st7" d="M112.97,75.25c15.34-2.24,15.2,21.68.27,19.59-10.75-1.5-10.58-18.08-.27-19.59Z"/>
  <path class="st7" d="M164.53,75.25c11.44-1.69,16.09,12.83,6.86,18.39-6.07,3.66-13.9-.5-14.63-7.56-.5-4.81,2.88-10.11,7.77-10.83h0Z"/>
  <path class="st34" d="M112.96,76.91c9.59-1.65,13.6,10.38,6.17,15.18-6.65,4.29-14.87-3.14-11.69-10.52.82-1.9,3.48-4.31,5.52-4.66Z"/>
  <path class="st34" d="M164.81,76.92c12.85-1.9,12.71,17.45.75,16.32-9.29-.88-9.3-15.06-.75-16.32h0Z"/>
  <path class="st32" d="M111.59,79.39c2.21-.34,2.52,3.81-.28,2.96-1.5-.45-1.19-2.73.28-2.96Z"/>
  <path class="st0" d="M108.46,85.39c-1.06-1.09.72-2.38,1.45-1.34.6.85-.57,2.25-1.45,1.34Z"/>
  <path class="st25" d="M163.41,79.41c1.56-.14,2.18,2.72.49,3-2.53.42-2.35-2.83-.49-3Z"/>
  <path class="st32" d="M161.56,85.43c-.6.98-2.64-.57-1.35-1.51.99-.73,1.83.73,1.35,1.51Z"/>
  <g>
    <path class="st14" d="M233.26,301.83c-5.52,21.15-31.19,35.52-60.36,34.65-22.84-.2-45.65-.14-68.46.18-34.25-.08-58.74-24.57-55.57-48.6.31-2.33.7-4.45,1.24-6.74,3.58-10.63,12.45-19.98,24.95-26.19,11.86-5.89,21.52-6.27,35.85-6.58,24.02-.04,48.04-.26,72.07-.61,31.78,2.51,54.13,25.79,51.57,48.51-.03,1.32-.95,3.87-1.26,5.42h0l-.03-.02Z"/>
    <path class="st6" d="M48.84,288.05c-.9,18.88,12.81,38.25,37.27,45.44,14.23,4.19,36.34,2.1,52.04,2.06,16.29-.04,41.01,1.62,56.09-1.86,19.95-4.61,33.56-17.41,39.02-31.84-5.44,26.25-28.94,38.9-64.28,39.12-20.36.12-41.16.3-61.5-.02-13.79-.22-20.34-.22-32.19-6.09-21.86-10.81-28.89-28.27-26.42-46.79h0l-.03-.02Z"/>
    <path class="st12" d="M234.55,296.41c.57-22.67-20-45.68-52.55-47.91-27.68,1.27-57.5-.42-84.95,1.27-21.83,1.34-41.37,16.62-46.42,31.72l-.52-.22c4.46-17.87,20.77-33.05,45.93-36.55l84.49-1.6c29.31,1.27,50.78,19.29,54.18,40.01.75,4.55.15,8.72-.15,13.26h0v.02Z"/>
    <path class="st30" d="M123.28,263.98c-1.57,9.15-19.74,9.74-22.04.59-.08-.63-.08-1.38-.03-2.02,1.88-9.23,20.31-9.19,22.04.1.03.43.05.91,0,1.34h0l.03-.02Z"/>
    <path class="st30" d="M174.7,264.08c-2.55,9.27-21.34,8.42-22.06-1.11v-.67c1.68-8.93,18.63-9.9,22.01-1.25.18,1.17.23,1.72.05,3.04h0v-.02Z"/>
    <path class="st30" d="M101.73,291.83c-.21,9.55-19,10.91-22.01,1.94-.31-1.62-.36-2.19-.08-3.7,3.89-8.1,19.79-7.61,22.06,1.11.03.22,0,.45,0,.67h0l.03-.02Z"/>
    <path class="st30" d="M204.62,292.38c-2.91,9.09-21.34,8.08-22.06-1.44v-.67c1.96-8.78,17.86-9.51,22.01-1.6.36,1.52.28,2.08.08,3.7h0l-.03.02Z"/>
    <path class="st30" d="M124.31,320.55c-1.19,9.41-19.46,10-22.04.91-.08-.73-.1-1.64-.05-2.35,2.19-9.05,20.57-8.8,22.06.42,0,.34.03.67,0,1.01h0l.03.02Z"/>
    <path class="st30" d="M175.73,320.65c-2.32,9.31-20.95,8.82-22.06-.77,0-.34-.05-.67,0-1.01,1.86-8.8,18.4-9.41,22.01-1.25.23,1.25.15,1.7.05,3.04h0v-.02Z"/>
    <path class="st30" d="M153.18,292.28c-1.75,9.13-19.98,9.33-22.04.24-.05-.55-.05-1.13-.03-1.68,1.73-9.29,20-9.51,22.04-.24.03.55.05,1.15.03,1.68h0Z"/>
    <path class="st9" d="M182.53,290.94c2.4,8.72,17.32,9.49,22.06,1.44-.46,3.14-1.6,5.49-5.83,6.98-8.79,3.06-16.11-1.88-16.24-8.42h0Z"/>
    <path class="st16" d="M153.69,319.88c2.78,8.76,17.99,9.09,22.06.77-.85,11.31-21.65,10.81-22.06-.77Z"/>
    <path class="st18" d="M153.15,290.58c-3.89-8.34-18.43-8.16-22.04.24.49-11.31,21.14-11.52,22.04-.24Z"/>
    <path class="st16" d="M79.72,293.76c5.03,7.95,19.92,6.84,22.01-1.94.34,11.41-18.56,12.25-21.75,3.95-.31-.79-.13-1.36-.26-2.02h0Z"/>
    <path class="st3" d="M131.14,292.52c3.79,8.14,18.53,7.99,22.04-.24-.75,11.21-20.88,11.42-22.04.24Z"/>
    <path class="st18" d="M124.28,319.52c-3.17-8.32-18.09-8.56-22.06-.42.75-10.67,21.19-11.25,22.06.42h0Z"/>
    <path class="st36" d="M204.55,288.66l-.57.26c-3.32-6.25-15.23-6.88-19.85-1.03-.64.81-.67,1.74-1.6,2.35.7-10.65,19.72-11.58,22.01-1.6h0v.02Z"/>
    <path class="st18" d="M175.68,317.62l-.52.22c-2.5-5.63-12.78-6.96-18.38-2.89-1.6,1.17-1.91,2.63-3.12,3.91.8-10.75,20.05-11.42,22.01-1.25h0Z"/>
    <path class="st17" d="M102.27,321.46c4.33,8.08,19.07,7.67,22.04-.91-.41,11.6-20.85,11.86-22.04.91Z"/>
    <path class="st18" d="M174.65,261.05l-2.37-2.49c-6.62-5.22-16.91-2.81-19.67,3.74.64-11.23,20.41-11.52,22.01-1.25h.03Z"/>
    <path class="st17" d="M101.24,264.57c4.05,8.28,18.71,7.67,22.04-.59-.62,11.35-20.8,11.58-22.04.59Z"/>
    <path class="st18" d="M123.25,262.63c-3.48-8.38-18.4-8.4-22.04-.1.64-11.11,21.21-11.23,22.04.1h0Z"/>
    <path class="st17" d="M152.64,262.99c2.73,8.74,17.6,9.39,22.06,1.11-1.29,10.69-19.67,10.02-21.91,1.34-.21-.81-.13-1.62-.15-2.45h0Z"/>
    <path class="st36" d="M101.73,291.16c-.93-.59-1.01-1.52-1.68-2.31-4.85-5.77-16.73-4.9-19.82,1.46l-.57-.24c1.93-9.94,20.88-9.61,22.06,1.11h0v-.02Z"/>
    <path class="st33" d="M114,264.04c-1.01,1.23-5.18.32-3.4-1.92,1.21-1.54,4.82.2,3.4,1.92Z"/>
    <path class="st37" d="M166.04,268.21l3.38-2.08,2.94-4.39c1.75,3.2-1.42,7.02-6.29,6.46h-.03Z"/>
    <path class="st28" d="M161.89,261.59c.98-1.17,5.15-.36,3.87,1.58-1.37,2.08-5.13-.08-3.87-1.58Z"/>
    <path class="st10" d="M92.63,297.32c.41-.67,1.86-.69,2.71-1.23,1.73-1.07,3.17-3.62,3.38-5.24,2.6,2.96-1.24,7.59-6.08,6.46h0Z"/>
    <path class="st24" d="M88.53,292.58c-1.86-2.27,4.64-3.38,4.05-.49-.28,1.46-3.35,1.34-4.05.49Z"/>
    <path class="st10" d="M195.96,296.16l3.81-2.43,1.39-1.66,1.11-2.37c1.93,3-1.6,7.57-6.29,6.46h-.03Z"/>
    <path class="st27" d="M195.76,291.39c-.64.87-3.71,1.05-4.05-.4-.7-2.87,5.83-1.92,4.05.4Z"/>
    <path class="st22" d="M115.65,325.69l3.35-2.41c1.37-1.27,1.62-2.02,2.06-3.54s1.42.24,1.37,1.28c-.18,2.47-3.2,5.04-6.78,4.66h0Z"/>
    <path class="st15" d="M111.5,320.98c-1.42-1.6,1.96-3.64,3.35-2.02,1.68,1.94-2.4,3.08-3.35,2.02Z"/>
    <path class="st10" d="M167.07,324.44c3.4-.57,5.26-3.48,6.08-5.79,2.84,2.33-2.65,8.18-6.08,5.79Z"/>
    <path class="st35" d="M166.91,318.97c.77,1.94-3.32,2.27-3.97.93-1.06-2.19,3.2-2.89,3.97-.93Z"/>
    <path class="st39" d="M144.08,296.75c.03-.57,1.29-.4,1.98-.73.64-.32,1.13-.75,1.62-1.17l3.14-4.25c1.83,3.02-2.22,7.35-6.75,6.13h0v.02Z"/>
    <path class="st26" d="M143.87,290.6c1.06,2.49-4.05,2.79-3.61.32.26-1.5,3.02-1.66,3.61-.32Z"/>
  </g>
</svg>