<?xml version="1.0" encoding="UTF-8"?>
<svg id="Layer_1" xmlns="http://www.w3.org/2000/svg" version="1.1" viewBox="0 0 283.46 425.2">
  <!-- Generator: Adobe Illustrator 29.5.1, SVG Export Plug-In . SVG Version: 2.1.0 Build 141)  -->
  <defs>
    <style>
      .st0 {
        fill: #eeecea;
      }

      .st1 {
        fill: #3c2a20;
      }

      .st2 {
        fill: #694439;
      }

      .st3 {
        fill: #a46137;
      }

      .st4 {
        fill: #88523c;
      }

      .st5 {
        fill: #fbf19f;
      }

      .st6 {
        fill: #634a3f;
      }

      .st7 {
        fill: #8b533c;
      }

      .st8 {
        fill: #fff;
      }

      .st9 {
        fill: #e4087e;
      }

      .st10 {
        fill: #b07f3b;
      }

      .st11 {
        fill: #89523b;
      }

      .st12 {
        fill: #8488b1;
      }

      .st13 {
        fill: #7d96c4;
      }

      .st14 {
        fill: #f9a66d;
      }

      .st15 {
        fill: #129f49;
        stroke: #176533;
        stroke-miterlimit: 10;
        stroke-width: .5px;
      }

      .st16 {
        fill: #60382b;
      }

      .st17 {
        fill: #61392b;
      }

      .st18 {
        fill: #5d7fb8;
      }

      .st19 {
        fill: #203f7b;
      }

      .st20 {
        fill: #ed3393;
        isolation: isolate;
        opacity: .2;
      }

      .st21 {
        fill: none;
        stroke: #09141a;
        stroke-linecap: round;
        stroke-linejoin: round;
        stroke-width: 1.5px;
      }

      .st22 {
        fill: #89513c;
      }

      .st23 {
        fill: #fbfcfc;
      }

      .st24 {
        fill: #af803b;
      }

      .st25 {
        fill: #abb7d9;
      }

      .st26 {
        fill: #4267a4;
      }

      .st27 {
        fill: #8386b1;
      }

      .st28 {
        fill: #b9794d;
      }

      .st29 {
        fill: #f9e710;
      }

      .st30 {
        fill: #8a533c;
      }

      .st31 {
        fill: #f9f8f8;
      }

      .st32 {
        fill: #322117;
      }

      .st33 {
        fill: #f6a92c;
      }

      .st34 {
        fill: #844d39;
      }

      .st35 {
        fill: #fbf19e;
      }

      .st36 {
        fill: #df854f;
      }
    </style>
  </defs>
  <g>
    <path class="st28" d="M95.67,138.92c.14-.66-.34-.57-.71-.77-1.41-.77-2.94-1.38-4.32-2.2-7.49-4.42-14.16-11.64-7.15-20.2-10.84-15.61-12.11-36.27-3.19-53.15-4.55-2.46-8.97-6.01-10.48-11.25-3.6-12.49,6.64-24.02,18.7-24.83,8.83-.59,15.09,2.31,18.3,10.98,20.91-11.02,47.42-10.94,68.34,0,.71-1.34,1.12-2.77,1.9-4.08,5.31-8.98,19.07-8.44,26.83-3.25,12.51,8.35,11.84,26.67-2.5,32.3,9.16,16.61,7.97,37.64-2.91,53.08-.08.47,1.36,2.17,1.7,2.83,3.77,7.27-1.96,13.27-7.69,16.84l-6.16,3.45-.22.58-4.89,1.61c-.35.34-.94.51-1.76.55-7.74,2.76-16.24,3.96-24.52,4.9-.93-.13-.84-.63-.1-1.07.09-.24.18-.24.27,0l.27-.28.53-.91c15.65-7.97,7.86-35-3.04-43.51-1.3-.67-2.35-1.49-3.14-2.46.23-.13.46-.24.71-.32,1.91-.58,8.59,1.23,10.91,1.88,4.64,1.32,9.06,3.13,13.21,5.32,4.34,1.81,4.51-3.44.45-4.3l-4.93-2.26-.18-.61.51-.74c10.12-3.58,11.36-18.7,1.43-23.4-12.19-5.77-23.32,9.12-14.86,19.46v.85l-1.64.21c-9.77-2.02-19.74-1.18-29.53.02l-.83-.23v-.83c5.82-6.88,2.04-19.3-7.11-20.5-15.68-2.05-20.4,18.71-6.29,24.4l.49.76.06.36c-2.36,1.11-4.73,2.27-7.15,3.45-2.09,1.53-.6,4.83,1.89,3.59,7.27-3.72,15.6-6.51,23.81-7.14l.76.29c-.72.97-1.71,1.8-2.96,2.49-10.74,9.14-18.04,36.25-1.65,43.77l.57.88c-.25.79-1.9.66-2.68.56-7.43-.92-17.55-2.46-24.44-5.27-.54-.23-1-.63-1.4-1.06-.64.67-2.5-.33-3.22-.82h0Z"/>
    <path class="st28" d="M183.42,147.45c.14-.1.29-.19.45-.25,2-.72,9.25,6.45,10.1,8.51,3.95,9.63,7.67,19.49,11.32,29.25,3.49,9.33,6.94,18.66,9.58,28.29.12.45.16.93.2,1.41.03.48.03.97,0,1.46,2.33,8.95,4.7,21.38,5.18,30.72.15,2.92-.44,6.91.28,9.59-.38,9.11-2.67,18.42-7.97,25.93-9.63,13.63-27.96,18.24-43.05,20.22-18.66,2.16-38.29,3.87-57.02,1.11-.24.11-.48.2-.73.26-2.04.49-10.56-1.96-13.13-2.74-19.79-6.01-35.14-19.74-37.43-41.44.41-1.3,0-1.55,0-2.63,0-13.45,1.66-25.1,4.92-37.95l.03-1.58c5.55-22.91,14.43-46.03,23.32-67.09.1-1.1,4.82-3.33,5.28-3.19.24.07.44.19.57.42-.05.96-.12,1.93-.41,2.85-4.39,14.32-8.37,27.57-10.7,42.48-3.32,21.22-5.1,50.1,4.67,69.58,16.11,32.11,65.81,39.78,91.61,15.82,34.33-31.88,15.71-91.39,2.89-129.45-.09-.52-.07-1.04.07-1.56h0l-.02-.02Z"/>
    <path class="st28" d="M229.53,403.73c-.03-.31-.3-.03-.82.83-5.66,4.45-20.85-1.16-25.09-6.54-5.56-7.04-5.25-21.93-7.18-31.04-3.42-16.13-9.91-38.42-18.2-52.48l.92-.94c21.19-8.26,41.8-26.35,42.98-50.89l.57-1.27c12.79,31.36,16.68,66.12,17.47,99.92.14,5.91-.6,13.14.06,18.84.79,6.73,8.59,11.53,8.68,17.87.03,2.67-2.07,4.8-4.6,5.08-.8.09-1.69-.26-2.05-.17s-.75.77-1.19,1.02c-3.89,2.27-7.57.85-11.55-.23h0Z"/>
    <path class="st28" d="M104.03,315.9c-7.88,14.09-15.36,39.52-18.15,55.59-2.72,15.66.2,28.25-18.2,33.44-3.8,1.07-10.46,2.37-13.58-.63-.26-.92-.45-1.1-.55-.56-3.48,1-7.33,2.38-10.83.61-.56-.28-1.64-1.33-1.92-1.39-.98-.22-1.86.48-3.7-.38-4.13-1.93-2.77-6.65-1.06-9.85,3.3-6.19,6.7-7.02,7.15-15.23.4-7.34-.21-15.13-.02-22.54.78-30.99,5.38-63.05,16.65-91.86l.75,1.36c3.94,23.02,21.26,42.17,42.36,50.47l1.08.98h.02Z"/>
    <path class="st28" d="M279.73,256.69l-.52-.16c-.73,2.2-2.25,3.79-4.44,4.46-1.96.6-5.69,1.14-2.95-1.39,1.76-2.51,1.66-4.78,1.1-7.63l.41,3.06c.09.55-.05.88-.41.97.63.06.01,1.54-.23,2.07-1,2.21-2.41,3.68-4.96,3.35-.69-.22-2.14-1.07-2.71-1.54-.62-.51-.72-1.46-1.65-1.51-.41-.33-.8,1.16-.27.83-2.83,5.86-7.12-.03-8.69-3.51-1.55-3.42-2.15-6.92-4.08-10.29-4.55-7.94-14.82-14.52-22.15-19.83-3.74-12.22-7.91-24.88-12.75-37-2.89-7.24-6-14.4-9.42-21.34-4.36-8.86-9.14-16.27-14.5-24.45-.45-.69-.73-1.47-.98-2.26,18.39,6.43,37.52,18.47,51.44,32.24,17.08,16.9,36.62,47.62,38.87,72.14.38,4.16.68,7.97-1.09,11.81h0l-.02-.02Z"/>
    <path class="st28" d="M94.21,140.78c-.07.68-.25,1.32-.54,1.93-17.16,24.76-28.19,54.32-36.56,82.85-7.66,5.5-18.35,12.3-22.79,20.84-2.16,4.17-3.45,12.71-7.86,14.78-2.4,1.13-3.23.04-4.28-1.99-.2-.09-.68-3.66-.59-3.5.17.3.24,2,.05,2.39-1.08,1.34-2.4,2.83-4.09,3.34-1.92.23-3-.23-4.14-1.82-.56-.78-1.72-2.69-1.04-3.33-.82-.58-.37-3.15,0-4.17-.93,2.59-.44,6.56,2.11,8.65.59,1.32-2.65.63-3.45.43-2.29-.57-4.33-2.36-5.03-4.67l-.45.46c-4.31-9.06,2.02-28.96,6.04-37.9,10.31-22.92,26.51-44.21,46.53-59.05,11.09-8.22,23.38-14.12,36.1-19.23h0Z"/>
    <path class="st3" d="M186.7,139.39c1.16,0,2.71.72,3.82,1.11,8.39,11.2,14.86,23.4,20.51,36.23,6.74,15.3,12.7,31.43,17.12,47.61.09.32.47,1.04.02,1.22-4.35-3.15-8.91-6.06-13.1-9.45-5.31-20.35-14.26-40.34-21.59-60.15-2.47-3.52-5.87-7.25-10.06-8.51-.25.07-.35-.02-.27-.28-.72-.06-2.13-4.75-2.05-5.02.08-.23.19-.42.41-.54.03-.02-.14-.39.34-.64.63-.33,4.23-1.58,4.85-1.58h0Z"/>
    <path class="st3" d="M221,256.41c.02.09-.03.2,0,.28l.27.28c.6,1.48,1.3,2.95,1.91,4.45-.17,25.43-22.59,45.12-44.47,53.09-2.51-4.27-5.38-8.32-8.73-11.95-.23-.87.87-.49,1.7-.63,26.95-4.6,46.51-13.46,48.78-44.55.04-.53-.31-1.12.54-.96h0Z"/>
    <path class="st3" d="M112.49,303.2c-2.93,3.98-6.03,7.89-8.46,12.23-13.17-4.58-25.5-14.49-33.51-26.04-5.5-7.93-9.39-17.08-10.69-26.77.39-.99,1.08-2.45,1.36-3.34.5.29.46.77.54,1.26,4.67,27.24,25.7,38.97,50.75,42.66h0Z"/>
    <path class="st3" d="M98.03,140.5l.41.48c-.72,2.12-1.44,4.25-2.17,6.37l-.7.37c-.05.25-.14.24-.27,0-1.17.25-4.32,1.58-5.04,2.51-.98,1.27-2.78,6.48-3.55,8.34-8,19.29-15.47,40.35-20.61,60.59-2.94,2.22-6.02,4.25-9,6.39-.37-1.06.37-2.78.68-3.89,5.04-17.69,11.97-36.05,19.82-52.64,4.88-10.31,10.76-18.67,16.6-28.25.18-.29.38-.95.55-1.11.53-.51,2.5.57,3.27.83h0Z"/>
    <path class="st22" d="M5.17,257.2c-.19-1.51-.31-2.73.08-4.23l1.29-2.99c-2.16,6.27.34,11.85,7.37,11.39-3.04-2.68-3.3-6.29-1.91-10,.67,0,0,.82,0,.97v4.17c0,.38.86,2.31,1.14,2.73,1.04,1.61,2.3,1.99,4.05,2.41-4.56,1.36-9.85.08-12-4.45h-.02Z"/>
    <path class="st4" d="M279.83,256.69c-.99,2.14-1.83,3.33-4.1,4.3-2,.85-5.88,1.06-7.91.42,2.09-.54,3.58-1.22,4.5-3.33.11-.26.68-1.98.68-2.09v-4.03l.83,2.93c-.07,2.56-.92,4.51-2.74,6.24,7.11.39,9.23-5.05,7.37-11.39l1.3,3.26.07,3.69h0Z"/>
    <path class="st30" d="M21.63,258.08c-.97-2.97-.61-6.47.96-9.18.1-.18.22-1.02.68-.55.16.17-1.71,3.7-1.36,4.59l.27,6.25c-.23-.44-.34-.49-.55-1.11h0Z"/>
    <path class="st7" d="M229.53,403.73c-.31.47-.41.51-.82.83,2.19-4.46-.73-7.04-3.55-10l3.14,2.5c1.49,2.13,2.87,4.19,1.23,6.67h0Z"/>
    <path class="st11" d="M263.36,258.36c-.09.28-.13.54-.27.83-.57.35-.64.5-.45-.31.9-3.73.9-6.58-.37-10.25,2.16,2.83,2.17,6.48,1.09,9.73Z"/>
    <path class="st7" d="M53.55,404.2c-1.76-3.05.63-6.14,2.86-8.06.31-.26.44-.67.96-.55-1.84,2.12-3.78,3.69-3.56,6.82.06.84.64,1.7.28,2.35-.21-.2-.35-.22-.55-.56h.01Z"/>
    <path class="st28" d="M220.8,256.97l-.27-.28c.02.07.22.16.27.28Z"/>
    <path class="st14" d="M149.59,98.25c7.4,3.15,11.76,11.81,13.99,19.24,3.34,11.12,2.95,22.5-8.26,28.29l-.27.28c-.07.04-.2-.04-.27,0-.11.2-.22.4-.36.57-1.07,1.29-6.96,2.52-8.89,2.78-5.67.78-11.72-.16-17.13-1.87-.52-.16-1.54-.6-1.45-1.21-13.39-6.09-12.5-20.82-7.77-32.79,2.33-5.89,5.95-12.28,11.86-15.02l.52-.83c5.57-2.11,11.87-2.2,17.5-.26l.54.81h0Z"/>
    <path class="st36" d="M126.95,146.34c.81.13,1.45.7,2.24.91,9.13,2.46,16.77,2.93,25.59-1.19-.42.7-.4.57.34.49,6.3-.68,12.6-1.64,18.76-3.12,2.16-.52,4.77-1.67,6.75-2.03.39-.07.84.24.88.22l1.64,5.56-.46.38c-4.59-1.09-9.33-.85-14.2.72-15.42,4.9-31.23,6.9-47.29,3.46-7.6-1.89-15.27-3.12-23.01-3.69-1.08.24-1.94.13-2.61-.32l2.46-7.23c8.8,3.05,16.84,4.62,26.06,5.83.77.1,2.46-.06,2.86,0h0Z"/>
    <path class="st34" d="M156.96,94.08l.8.05c3.33,3.5,7.53,4.02,11.99,3.27l.31.57c.54.06,2.68,1.12,3.37,1.43.86.39,4.2,1.97,4.66,2.48,1.52,1.66.38,4.47-1.9,4.44-.91-.01-5.14-2.39-6.41-2.92-6.37-2.65-13.28-4.68-20.18-5.15-5.34-2.27-13.29-2.16-18.55.28-7.49.73-14.91,3.06-21.82,5.99-1.19.5-3.06,1.86-4.23,1.82-2.36-.09-3.23-3.31-1.22-4.87.66-.51,6.91-3.38,7.62-3.49-.01-.27.09-.47.32-.58,4.51.8,8.62.12,12.04-3.34l.74.03c10.74-1.84,21.76-2.41,32.47,0h0Z"/>
    <path class="st14" d="M188.27,34.2c8.84-1.02,17.86,6.24,15.48,15.77-.41,1.64-3.18,6.38-4.92,6.4-.59,0-2.68-3.21-3.26-3.9-4.45-5.22-9.51-9.34-15.12-13.2,1.6-2.95,4.56-4.69,7.83-5.07h-.01Z"/>
    <path class="st14" d="M101,39.84c-.11.19-3.03,1.89-3.6,2.32-5.58,4.18-10.43,8.93-14.51,14.65-9.76-6.67-5.23-20,5.54-22.13,3.2-.63,7.11-.53,9.86,1.46.61.44,3.17,2.9,2.71,3.69h0Z"/>
    <path class="st8" d="M124.49,94.08c-1.95,2.12-5.18,3.93-8.04,4.18-1.52.13-4.03-.45-5.06-.29-15.27-5.17-11.33-27.61,5.33-26.14,10.28.91,14.75,14.63,7.77,22.25Z"/>
    <path class="st8" d="M170.05,98.2c-1.27-.13-3.41.43-5.06.29-3.07-.27-6.01-1.93-8.04-4.18-9.15-10.14.72-25.82,13.58-21.76,12.33,3.89,11.69,21.99-.49,25.65h0Z"/>
    <path class="st17" d="M166.99,61.91c1.97-.23,3.45.02,5.21.93.99.51,5.3,3.75,2.84,4.5-1.38.42-1.36-.67-2.11-1.35-1.58-1.43-3.55-2.14-5.67-1.86-1.22.16-4.61,2.21-4.6.06,0-1.37,3.22-2.15,4.33-2.28h0Z"/>
    <path class="st16" d="M111.87,62.2c1.47-.2,6.43.37,6.86,2.07.59,2.34-3.76.26-4.54.16-1.54-.2-2.7,0-4.07.71-1.03.53-3.44,3.58-4.33,2.29-.97-1.4,2.67-4.02,3.78-4.52.64-.28,1.62-.61,2.31-.71h0Z"/>
    <path class="st36" d="M155.05,146.06l.27-.28s-.12.2-.27.28Z"/>
    <path class="st14" d="M183.15,147.17c.1.07.18.2.27.28,12.45,38.12,30.54,91.42,2.05,126.48-24.24,29.83-78.98,23.56-96.77-10.38-8.59-16.38-8.33-38.4-6.77-56.47,1.75-20.31,6.67-40.23,13.37-59.35.09-.02.18.02.27,0,6.73-1.24,20.43,2.69,27.77,3.81,10.72,1.64,19.4,2.05,30.13,0,7.65-1.46,18.86-5.85,26.27-5.2.68.06,2.94.49,3.41.83h0Z"/>
    <path class="st1" d="M141.41,125.2c-.41.78-.95.79-1.36,0-4.2-.23-8.44-2.35-9.15-6.94-.52-3.36-.24-4.87,3.14-5.72,2.91-.74,9.93-.68,12.89-.05,3.92.83,4.31,2.56,3.41,6.37-1,4.23-4.91,6.12-8.92,6.34h-.01Z"/>
    <path class="st2" d="M141.41,125.49c.11,6.23-1.55,14.03,6.05,16.21,4.53,1.3,10.36-1.81,9.44-7.11-.12-.67-1.39-2.66-.34-2.98,1.77-.53,1.9,4.62,1.75,5.68-.31,2.09-2.69,4.54-4.52,5.4-4.86,2.3-10.81-.13-13.06-4.97-2.26,4.39-7.05,6.8-11.87,5.42-3.01-.86-5.91-3.97-6.01-7.24-.03-.92.59-4,1.55-4.25,1.74-.47.22,2.2.12,2.9-.32,2.31.3,4.15,2.03,5.67,3.16,2.78,8.13,2.22,11.05-.68,3.66-3.63,2.13-9.38,2.45-14.05.44.02.92.02,1.36,0h0Z"/>
    <path class="st6" d="M112.97,75.25c15.34-2.24,15.2,21.68.27,19.59-10.75-1.5-10.58-18.08-.27-19.59Z"/>
    <path class="st6" d="M164.53,75.25c11.44-1.69,16.09,12.83,6.86,18.39-6.07,3.66-13.9-.5-14.63-7.56-.5-4.81,2.88-10.11,7.77-10.83h0Z"/>
    <path class="st32" d="M112.96,76.91c9.59-1.65,13.6,10.38,6.17,15.18-6.65,4.29-14.87-3.14-11.69-10.52.82-1.9,3.48-4.31,5.52-4.66Z"/>
    <path class="st32" d="M164.81,76.92c12.85-1.9,12.71,17.45.75,16.32-9.29-.88-9.3-15.06-.75-16.32h0Z"/>
    <path class="st31" d="M111.59,79.39c2.21-.34,2.52,3.81-.28,2.96-1.5-.45-1.19-2.73.28-2.96Z"/>
    <path class="st0" d="M108.46,85.39c-1.06-1.09.72-2.38,1.45-1.34.6.85-.57,2.25-1.45,1.34Z"/>
    <path class="st23" d="M163.41,79.41c1.56-.14,2.18,2.72.49,3-2.53.42-2.35-2.83-.49-3Z"/>
    <path class="st31" d="M161.56,85.43c-.6.98-2.64-.57-1.35-1.51.99-.73,1.83.73,1.35,1.51Z"/>
  </g>
  <g>
    <path class="st18" d="M58.64,134.71c.38,2.36,1.88.19,3.73.89.19.83-.38.97-1.14,1.13,13,20.15,19.82,45.18,16.09,68.5-2.21,13.73-8.22,28.67-21.52,37.03-2.96,1.86-7.23,4.38-10.71,4.04-5.76-1.12-6.62-8.22-3.45-12.19,19.96-16.83,12.95-46.2,7.04-67.07-3.07-5.77-4.31-11.66-3.72-17.65,1.05-2.49,2.02-4.99,2.9-7.5.13-.96.71-1.9,1.73-2.83,1.43-.56,2.62-1.35,3.59-2.39,2.35-.06,4-.73,4.92-1.99l.53.04h0Z"/>
    <path class="st26" d="M62.39,135.6c.28-.2.14-.9.31-1.23,1.05.36,1.98.49,3.11.31l.27.72c2.04.29,3.75.7,5.61,1.35,10.3,5.72,15.45,17.96,19.2,28.34,10.57,29.21,7.34,73.74-33.51,82.41-3.78.52-7.89.46-11.48-.36-.72-.27-.97-.56-.78-.83,25.03-7.3,32.67-34.01,32.4-54.72-.27-19.35-6.51-38.61-17.31-55.2.11-.2,1.77-.49,2.18-.77h.02Z"/>
    <path class="st19" d="M58.67,134.81c-.24.29.03.96-.05,1.06-.25.33-5.11,2.4-5.43.89h-.91s-9.46-14.81-9.46-14.81l-.97,3.18,8.3,13.5c-.05.29-.24.46-.56.54.91,1.07-.89,1.89-1.73,2.83-1.91-4.16-6.05-9.42-8.64-13.47-.41-.64-.55-1.37-.94-2-12.7,2.78-11.17-14.48.85-10.32l2.24,1.76c-1.36-1.47-4.56-8.42-5.76-9.09-.74-.42-3.64.83-6.12-1.52-7.68-7.28,8.22-14.83,10.81-5.55.75,2.68-1.91,5.27-1.71,5.84l15.76,24.97-1.24-5.72c-2.52-7.43-4.03-15.17-6.73-22.51-5.11.29-8.19-6.05-4.69-9.3,5.94-5.51,14.66.89,10.32,6.64-.53.72-2.29,1.8-2.26,2.36l8.88,30.71h.03Z"/>
    <path class="st19" d="M57.41,247.49c.09-.79,1.18-.67,1.74-.82,35.27-8.96,40.49-46.54,33.47-73.55-2.57-9.88-10.26-29.98-20.06-35.37-.35-.19-1.58-.44-.83-1.02,10.24,3.51,16.53,17.96,19.89,26.86,10.63,28.21,8.55,78.17-34.2,83.9h0Z"/>
    <path class="st13" d="M45.84,247.16c-3.15-.72-5.43-1.87-6.71-4.84-2.87-6.63,3.58-9.49,7.12-13.98,11.31-14.34,6.98-42.95,2.13-58.65-3.18-10.32-9.33-17.85-.55-27.79,1.11,2.42-.8,3.71-1.63,5.97-2.71,7.47,1.52,13.55,3.73,20.54,5.27,16.66,10.54,47.66-3.47,62.17-2.26,2.35-4.7,3.36-5.58,6.74-1,3.91.61,6.94,4.2,9,.36.2.58.52.78.83h-.03Z"/>
    <path class="st19" d="M62.4,134.37l-3.58-21.18c-.49-1.13-3.15-1.02-4.55-2.25-3.07-2.71-2.63-7.21,1.3-9.2,5.57-2.82,11.76,2.26,8.88,7.46-.75,1.36-1.94,1.79-2.63,3.03l3.95,23.17c-1.13-.14-2.98.66-3.37-1.02h0Z"/>
    <path class="st25" d="M56.1,235.57c13.8-20.75,14.49-43.51,9.66-66.39-1.3-6.13-3.83-12.82-4.49-18.94-.09-.87-.42-2.29.27-2.99,1.07,4.67,3.65,8.99,5.36,13.5,5.58,14.68,8.59,30.6,5.19,46.11-2.29,10.46-7.54,20.97-16.01,28.71h.02Z"/>
    <path class="st27" d="M33.28,103.88c-2.78,3.79-7.06-2.46-2.54-3.29,2.05-.37,3.87,1.49,2.54,3.29Z"/>
    <path class="st27" d="M44.62,100.41c-3.17.93-4.64-3.71-1.14-4.35,2.89-.53,4.09,3.49,1.14,4.35Z"/>
    <path class="st12" d="M32,124.35c-2.35-.5-2.42-4.16.72-4.42,3.36-.29,2.93,5.21-.72,4.42Z"/>
    <path class="st12" d="M57.75,108.71c-3.83,1.87-5.54-3.66-.93-4.04,1.58-.13,3.28,2.88.93,4.04Z"/>
  </g>
  <g>
    <path class="st29" d="M240.46,256.15c.36-1.5,3.73-2.81,5.18-2.19,9.5-3.17,25.6-2.52,32.99,4.69,2.7,2.62,3.66,7.47,1.23,10.5.21,1.81-2.91,3.6-4.54,4.51-9.46,5.25-26.05,5.6-35.4,0-1.61-.96-4.57-2.89-4.24-4.7-3.59-5.32-.17-9.75,4.77-12.8h.01Z"/>
    <path class="st29" d="M186.09,317.2c8.47-6.28,16.09,4.89,18.27,11.59,1.03-.13,1.98,3.94,1.94,4.7l-.57.6c1.21,7.48-.4,22.42-9.42,25.3-1.68.53-5.24.26-6.69-.61-1.9.33-4.05-2.46-5.13-3.94-3.77-5.1-5.94-12.3-5.51-18.48-.83-4.78.12-10.3,2.47-14.65.89-1.64,2.63-4.6,4.63-4.51h.01Z"/>
    <path class="st29" d="M253.8,311.2c1.69.53,3.2,3.24,2.8,4.87,2.76,5.76,3.75,14.66-4.78,16.34-1.22,1.5-4.72.81-6.61.38-8.27-1.9-15.68-8.33-20.52-14.7-1.97-2.59-3.66-5.92-4.43-9.02-.44-1.81-1.12-5.03.47-6.22,1.45-6.24,7.95-7.09,13.55-5.71,7.62,1.88,15.14,8.01,19.55,14.05h-.03Z"/>
    <path class="st9" d="M170.25,332.2c1.08-.66,3.91.13,4.23,1.34,5.06-1.12,3.51,7.78-.97,5.3-.51,1-3.08.1-3.28-.9-8.63-2.49-16.96-6.29-25.69-8.48-2.29-.57-7.07-2.31-8.15.48-1.73,4.46.57,13.38.76,18.35.1,2.44.24,8.95-3.8,8.39-3.45-.48-1.95-3.28-1.87-5.11.3-6.79-3.63-20.88,1.14-26.09,3.38-3.7,9.32-2.22,13.59-1.11,7.83,2.05,16.31,5.24,24.05,7.82h-.01Z"/>
    <path class="st33" d="M235.69,268.95c7.48,11.08,35.95,10.58,44.18.21,5.49,7.96-5.92,14.54-13.25,15.42-1,.01-1.63-2.03-.93-2.66-.3-.59-.15-.85.18-1.36.42-3.17-10.77-2.28-6.05,2.44,1.03-.13,1.94,2.24.93,2.66-8.19.73-24.45-2.07-26.34-11.06-.42-1.99.06-3.92,1.29-5.63h-.01Z"/>
    <path class="st33" d="M186,316.91c-11.04,8.2-7.95,34.69,3.55,41.57-5.57,4.08-11.17.03-14.45-4.6s-4.57-10.67-4.95-16.06c.76.22,2.7.85,3.28.9l.9.22c3.69,4.34,5.36-7.36.91-5.49l-.85-.04c-1.29-.53-2.87-.9-4.23-1.34.75-7.43,5.86-19.47,15.82-15.18h0Z"/>
    <path class="st33" d="M220.7,303.2c-2.92,12.56,17.71,32.18,31.1,29.54-1.23,5.54-6.65,6.91-11.9,5.94-6.97-1.28-13.04-5.62-17.69-10.5.3-1.06,3.03-1.8,3.77-.87l.94-.52c4.63.1-2.42-9.24-4.11-4.55l-.8.42c-.61,1.02-2.74,1.58-3.77.87-4.16-6.22-7.94-17.62,2.45-20.33h.01Z"/>
    <path class="st9" d="M265.7,282.2c.26.47.83,2.11.93,2.66.39,2.12.46,6.52.32,8.73-.55,8.41-4.16,16.92-10.35,23.05-.79-1.67-1.7-3.38-2.8-4.87,5.9-7.1,8.99-16.94,6.96-25.83-.3-1.36-.61-1.66-.93-2.66-1.7-1.36-.29-3.79,1.66-4.2s4.86,1.25,4.23,3.11h-.01Z"/>
    <path class="st9" d="M218.25,323.46c1.23-.3,2.49-.69,3.77-.87.98-1.38,3.82-1.19,5.04-.09,1.44,1.29,1.36,4.76-1.07,4.76-1.39.14-2.52.61-3.77.87-5.86,1.17-11.22,2.84-16.49,5.67-.21-1.33-.94-3.97-1.39-5.32,4.5-2.16,9.01-3.83,13.9-5.02Z"/>
    <path class="st9" d="M245.64,254.2c-1.77.59-3.59,1.2-5.18,2.19-2.36-4.16-3.19-9.34-.65-13.59,1.07-1.79,2.6-4.12,5.1-3.1,3.63,1.49.62,4.17-.37,5.99-1.39,2.55-.39,6.16,1.12,8.51h-.01Z"/>
    <path class="st35" d="M266.77,256.71c-7.48.77-14.99,1.56-22.22,3.61l-6.23,2.23c5.63-5.86,14.62-7.78,22.71-7.09.72.07,5.72.82,5.75,1.25h0Z"/>
    <path class="st5" d="M201.18,351.24c.14-6.69.44-13.61-.8-20.23-.44-2.37-1.26-4.61-1.63-6.97,6.59,7.22,6.71,18.94,2.44,27.2Z"/>
    <path class="st5" d="M256.06,327.4c-2.45-5.83-5.21-11.55-8.62-16.95l-5.13-6.76c7.73,3.77,12.9,12.29,13.87,20.29.06.47.42,3.41-.12,3.43Z"/>
    <path class="st24" d="M173.51,338.73c2.16.21,4.05-1.32,3.37-3.41-.5-1.54-1.14-1.37-2.4-1.89,1.27-1.49,2.2-1.26,3.42.12,2.48,2.85-1.16,10.71-4.39,5.19Z"/>
    <path class="st10" d="M266,281.91c-2.63-4.63-6.96-2.24-5.87,1.08-3.57-1.76-1.58-4.24,1.55-4.89,2.48-.52,7.16,1.04,4.32,3.82h0Z"/>
    <path class="st10" d="M225.98,327.2c1-.72,1.55-1.81,1.29-2.97-.6-2.68-3.19-1.98-5.26-1.68,1.83-7,10.22,3.32,5.97,4.77-.58.2-1.54-.17-2.01-.12h.01Z"/>
  </g>
  <g>
    <path class="st21" d="M160.89,71.84"/>
    <path class="st21" d="M158.05,71.4s.69.92,2.19.72"/>
    <path class="st21" d="M160.33,69.67s.61,1.64,3.03,1.39"/>
    <path class="st21" d="M171.03,67.37s-1.58,3.23-5.24,3.44c-2.27-.14-2.87-2.39-2.87-2.39"/>
    <path class="st21" d="M175.09,68.07s-1.89,3.59-5.98,3.09"/>
    <path class="st21" d="M177.61,69.83s-1.69,2.74-5,2.68"/>
    <path class="st21" d="M180.36,71.71s-1.49,3.02-4.82,2.79"/>
    <path class="st21" d="M183.07,74.77s-2.27,2.81-5.69,1.5"/>
    <path class="st21" d="M166.81,70.85c-.86-1.06-.4-3.09-.4-3.09"/>
    <path class="st21" d="M158.05,74.1s2.83-3.25,8.34-3.3c7.01-.07,11.74,6.61,11.74,6.61"/>
  </g>
  <g>
    <path class="st21" d="M120.01,72.51"/>
    <path class="st21" d="M122.84,72.08s-.69.92-2.19.72"/>
    <path class="st21" d="M120.57,70.35s-.61,1.64-3.03,1.39"/>
    <path class="st21" d="M109.86,68.05s1.58,3.23,5.24,3.44c2.27-.14,2.87-2.39,2.87-2.39"/>
    <path class="st21" d="M105.81,68.75s1.89,3.59,5.98,3.09"/>
    <path class="st21" d="M103.29,70.5s1.69,2.74,5,2.68"/>
    <path class="st21" d="M100.53,72.39s1.49,3.02,4.82,2.79"/>
    <path class="st21" d="M97.82,75.45s2.27,2.81,5.69,1.5"/>
    <path class="st21" d="M114.09,71.52c.86-1.06.4-3.09.4-3.09"/>
    <path class="st21" d="M122.84,74.77s-2.83-3.25-8.34-3.3c-7.01-.07-11.74,6.61-11.74,6.61"/>
  </g>
  <ellipse class="st20" cx="104.28" cy="107.87" rx="10.07" ry="7.58"/>
  <ellipse class="st20" cx="178.78" cy="106.33" rx="10.07" ry="7.58"/>
  <g>
    <g>
      <path class="st15" d="M94.78,34.28c-.69-1-1.33-2.02-1.74-3.12l.13-.25c-.11-.66.98-.52,1.12.06l.39.29c.38,1.54,1.43,3.07,3,3.93l.1-3.59c.06-.18.18-.32.35-.42l.24-.41c4.73-.72,8.11-3.48,9.26-7.61.22-.8.42-4.84-.35-5.46-.94-.74-6.95-.45-7.95.14-.36.01-.5-.13-.36-.42-.39.08-.67-.73-.76-1.04-.98-3.4-.67-6.62,1.4-9.39,3.86-5.16,12.76-6.12,18.6-1.4,2.59,2.22,4.36,4.35,5.06,7.42.34.13.48.41.42.81,2.55.27,4.82,1.35,6.82,2.86.39.34.8.7,1.18,1.05,8.81,9.95-2.62,22.09-15.05,16.42-2.94,5.6-10.85,7.27-17.38,3.9-1.95-1.16-3-2.16-4.44-3.82v.03Z"/>
      <path class="st15" d="M131.64,17.76c5,4.81,5.78,11.51.99,15.88-1.37,1.26-3.16,1.98-4.99,2.65,3.11,1.38,7.55,2.71,8.71,5.99.56,1.6-.04,3.42-1.12,4.6-3.3,3.59-15.54,10.79-21.23,6.64-3.89-2.83-3-6.97-1.97-10.41.42-1.4,1.51-2.57.41-4.14-4.05,1.92-9.07,1.59-13.23-.88-.18-.36.28-.01.39.03,6.79,2.92,13.56,1.35,16.87-4.17,2.37.86,4.57,1.46,7.03,1.36,8.51-.38,13.36-7.98,9.63-15.14-.43-.84-1.04-1.6-1.51-2.41h.01Z"/>
      <path class="st15" d="M118.18,5.61c-2.93-1.88-6.18-2.97-9.61-2.75-7.74.52-12.11,6.55-10.14,13.3.08.29.53,1.11.52,1.26.31.15.31.36-.03.63.42.46.21.81-.28,1.05-4.48,1.95-6.55,6.76-5.29,11.34l-.18.45c.39,1.16,1.04,2.26,1.61,3.37-5.01-5.75-3.04-13.53,3.6-16.42-5.56-8.38,1.43-18.03,12.06-16.18,3.15.55,5.41,1.89,7.76,3.91v.03Z"/>
      <path class="st15" d="M123.23,13.04c2.84.41,5.15,1.88,7.24,3.68-2.17-1.32-4.59-2.39-7.13-2.64,0-.35-.03-.69-.11-1.04Z"/>
      <path class="st15" d="M93.17,30.91c-1.34-4.01.03-8.45,3.37-10.97.46-.35,2.1-1.05,2.28-1.35.11-.17-.28-.42-.25-.59.03-.14.36-.35.38-.58.22.27.39.1.62.06,1.27-.25,2.32-.55,3.68-.56.73,0,3.67.25,4.19.58.63.38.78,3.48.73,4.17-.25,4.1-3.3,7.59-7.56,8.91-.83.25-1.72.27-2.49.6-.27-1.35-.21-2.72.15-4.13l.63-2.74c-3.15.48-4.71,3.61-4.34,6.34l-.27.29c-.38-.15-.81-.32-1.12-.06h0Z"/>
      <path class="st15" d="M94.29,30.98c-.52-2.54.76-5.58,3.35-6.62.38-.15,1.51-.59,1.55,0,.04.55-.52,2.16-.63,2.85-.21,1.3-.35,2.67-.46,4s0,2.69-.1,3.91c-.06.72-.66.28-1.13-.06-1.46-1.08-2.28-2.5-2.6-4.07h.03Z"/>
      <path class="st15" d="M110.53,5.39c-2.77,1.49-5.2,3.35-7.56,5.29-.18.15-.48.21-.66.36-.48.41-.77,1.18-1.51,1.4-2.69-4.91,4.64-10.34,9.73-7.06Z"/>
    </g>
    <g>
      <path class="st15" d="M138.2,20.09c.29-1.14.63-2.27,1.18-3.31l.28-.1c.43-.53,1.12.22.77.73l.04.45c-.94,1.35-1.37,3.1-.91,4.67l2.88-2.54c.18-.08.38-.11.59-.1l.49-.14c3.99,2.37,8.58,2.43,12.65.15.8-.45,4.09-3.24,4.02-4.17-.1-1.11-4.66-4.56-5.85-4.74-.27-.21-.27-.39.07-.52-.35-.18.08-.94.27-1.22,1.95-3.04,4.71-5.21,8.36-5.94,6.83-1.38,14.02,3.35,14.54,10.33.13,3.19-.25,5.8-2.16,8.45.14.31.03.59-.34.84,1.64,1.74,2.44,3.91,2.69,6.23.03.49.03,1,.01,1.47-1.41,12.56-19.17,14.37-23.74,2.69-6.51,2.26-13.53-1.36-15.61-7.77-.5-2.02-.48-3.4-.22-5.47h0Z"/>
      <path class="st15" d="M177.78,30.64c-.15,6.52-4.82,11.84-11.71,12.1-1.97.07-3.84-.51-5.69-1.12,1.16,2.89,3.33,6.57,1.6,9.64-.84,1.5-2.72,2.46-4.41,2.64-5.21.59-19.67-1.68-20.54-8.15-.59-4.42,3.29-6.86,6.72-8.73,1.4-.76,3.11-.93,3.54-2.75-4.43-1.08-7.8-4.39-8.88-8.71.15-.38.22.15.27.27,2.63,6.24,8.74,9.23,15.46,7.28,1.04,2.06,2.16,3.84,4.02,5.26,6.44,4.93,15.91,2.37,18.82-5.07.34-.87.5-1.78.8-2.67h0Z"/>
      <path class="st15" d="M177.57,13.65c-.64-3.14-2.14-5.92-4.8-7.84-5.99-4.35-13.88-2.65-17.74,3.44-.17.27-.49,1.12-.62,1.23.11.29-.07.45-.52.43-.06.59-.49.72-1.02.59-4.76-1.32-10.03.88-12.7,4.97l-.49.21c-.63,1.08-1.01,2.26-1.47,3.41.88-7.21,8.39-11.63,15.45-9.67,2.53-9.46,15.14-12.17,21.37-4.34,1.85,2.32,2.42,4.67,2.53,7.56h.01Z"/>
      <path class="st15" d="M175.41,22.1c1.74,2.03,2.24,4.5,2.35,7.07-.55-2.27-1.46-4.53-3.09-6.26.27-.27.52-.52.74-.81h0Z"/>
      <path class="st15" d="M139.67,16.68c2.17-3.72,6.62-6.09,11.03-5.88.62.03,2.34.52,2.7.42.21-.06.13-.48.28-.58.13-.08.53-.03.73-.18-.04.32.2.31.41.42,1.12.59,2.1,1.02,3.11,1.84.53.43,2.45,2.41,2.58,2.97.15.66-2.16,2.99-2.73,3.47-3.39,2.81-8.33,3.47-12.44,1.82-.8-.32-1.46-.86-2.28-1.08.87-1.14,1.97-2.09,3.33-2.89l2.59-1.6c-2.66-1.57-6.23-.27-8.11,1.94l-.42.06c-.15-.34-.34-.73-.77-.73h-.01Z"/>
      <path class="st15" d="M140.44,17.41c1.62-2.15,4.92-3.56,7.6-2.75.39.11,1.54.51,1.13.95-.39.42-2.06,1.25-2.67,1.67-1.18.81-2.34,1.71-3.46,2.61s-2.1,1.95-3.14,2.76c-.6.48-.7-.2-.77-.73-.21-1.67.31-3.2,1.3-4.52h0Z"/>
      <path class="st15" d="M172.22,8.83c-3.16-.62-6.37-.74-9.61-.79-.25,0-.5-.14-.76-.14-.67,0-1.48.38-2.18.1,1.89-5.19,11.45-4.64,12.55.84h0Z"/>
    </g>
    <g>
      <path class="st15" d="M113.59,27.85c-.34-1.09-.64-2.2-.7-3.33l.2-.2c.08-.63,1.08-.25,1.04.32l.27.36c-.11,1.54.43,3.21,1.64,4.38l1.15-3.34c.11-.15.27-.25.45-.32l.35-.32c4.65.42,8.61-1.38,10.92-4.98.45-.7,1.82-4.43,1.29-5.19-.66-.91-6.37-2.03-7.48-1.71-.34-.07-.43-.24-.21-.48-.39-.01-.41-.84-.41-1.15.08-3.41,1.33-6.36,4.09-8.48,5.15-3.94,13.75-2.78,17.83,2.99,1.76,2.68,2.79,5.08,2.53,8.12.28.2.32.49.15.86,2.3.83,4.12,2.37,5.53,4.27.27.41.55.84.78,1.26,5.31,11.35-8.99,20.07-18.96,11.9-4.41,4.57-12.31,4.29-17.42-.36-1.48-1.53-2.17-2.72-3.02-4.6h-.01Z"/>
      <path class="st15" d="M152.99,20.92c3.25,5.67,2,12.11-3.77,15.1-1.65.86-3.56,1.12-5.45,1.33,2.51,2.01,6.26,4.29,6.37,7.62.06,1.63-1.05,3.2-2.41,4.06-4.16,2.61-17.76,6.5-21.85,1.3-2.8-3.55-.74-7.23,1.23-10.2.8-1.22,2.18-2.05,1.61-3.79-4.36.86-8.98-.62-12.13-3.89-.07-.38.27.04.36.11,5.5,4.31,12.28,4.39,17.03,0,1.96,1.35,3.84,2.43,6.18,2.89,8.08,1.61,14.87-4.39,13.51-11.94-.15-.88-.49-1.74-.7-2.61h0Z"/>
      <path class="st15" d="M143.99,6.43c-2.18-2.44-4.9-4.21-8.19-4.8-7.39-1.3-13.28,3.34-13.43,10.12,0,.29.17,1.16.11,1.3.25.21.18.41-.22.59.25.53-.06.8-.57.91-4.78.79-8.14,4.81-8.32,9.39l-.31.38c.01,1.18.31,2.36.52,3.52-2.98-6.55,1.16-13.37,8.23-14.54-2.73-9.13,6.68-16.56,16.08-12.36,2.79,1.25,4.5,3.03,6.11,5.46v.03Z"/>
      <path class="st15" d="M146.52,14.54c2.55,1.05,4.26,2.96,5.69,5.12-1.64-1.74-3.6-3.3-5.9-4.11.1-.34.18-.65.21-1h0Z"/>
      <path class="st15" d="M113.07,24.33c-.07-4.07,2.52-7.9,6.41-9.5.55-.22,2.27-.51,2.53-.73.15-.13-.14-.46-.07-.6.07-.13.45-.24.52-.45.14.29.34.18.56.2,1.26.06,2.34.03,3.61.32.69.15,3.36,1.08,3.75,1.5.48.51-.29,3.44-.55,4.07-1.46,3.77-5.35,6.34-9.72,6.59-.85.04-1.69-.14-2.52,0,.15-1.32.62-2.6,1.36-3.83l1.4-2.41c-3.09-.28-5.48,2.29-5.95,4.94l-.34.22c-.31-.22-.66-.49-1.04-.32h.03Z"/>
      <path class="st15" d="M114.1,24.65c.27-2.5,2.37-5.05,5.1-5.43.39-.06,1.58-.2,1.46.36-.11.52-1.12,1.89-1.43,2.51-.59,1.18-1.12,2.41-1.61,3.63s-.8,2.51-1.26,3.65c-.27.66-.7.11-1.04-.32-1.05-1.35-1.4-2.86-1.23-4.41h.01Z"/>
      <path class="st15" d="M136.9,4.45c-3.04.74-5.85,1.94-8.64,3.2-.22.1-.5.08-.73.18-.57.27-1.08.93-1.82.97-1.06-5.22,7.41-8.62,11.2-4.35h-.01Z"/>
    </g>
    <g>
      <path class="st15" d="M79.63,40.44c-.69-1-1.33-2.02-1.74-3.12l.13-.25c-.11-.66.98-.52,1.12.06l.39.29c.38,1.54,1.43,3.07,3,3.93l.1-3.59c.06-.18.18-.32.35-.42l.24-.41c4.73-.72,8.11-3.48,9.26-7.61.22-.8.42-4.84-.35-5.46-.94-.74-6.95-.45-7.95.14-.36.01-.5-.13-.36-.42-.39.08-.67-.73-.76-1.04-.98-3.4-.67-6.62,1.4-9.39,3.86-5.16,12.76-6.12,18.6-1.4,2.59,2.22,4.36,4.35,5.06,7.42.34.13.48.41.42.81,2.55.27,4.82,1.35,6.82,2.86.39.34.8.7,1.18,1.05,8.81,9.95-2.62,22.09-15.05,16.42-2.94,5.6-10.85,7.27-17.38,3.9-1.95-1.16-3-2.16-4.44-3.82v.03Z"/>
      <path class="st15" d="M116.48,23.92c5,4.81,5.78,11.51.99,15.88-1.37,1.26-3.16,1.98-4.99,2.65,3.11,1.38,7.55,2.71,8.71,5.99.56,1.6-.04,3.42-1.12,4.6-3.3,3.59-15.54,10.79-21.23,6.64-3.89-2.83-3-6.97-1.97-10.41.42-1.4,1.51-2.57.41-4.14-4.05,1.92-9.07,1.59-13.23-.88-.18-.36.28-.01.39.03,6.79,2.92,13.56,1.35,16.87-4.17,2.37.86,4.57,1.46,7.03,1.36,8.51-.38,13.36-7.98,9.63-15.14-.43-.84-1.04-1.6-1.51-2.41h.01Z"/>
      <path class="st15" d="M103.03,11.77c-2.93-1.88-6.18-2.97-9.61-2.75-7.74.52-12.11,6.55-10.14,13.3.08.29.53,1.11.52,1.26.31.15.31.36-.03.63.42.46.21.81-.28,1.05-4.48,1.95-6.55,6.76-5.29,11.34l-.18.45c.39,1.16,1.04,2.26,1.61,3.37-5.01-5.75-3.04-13.53,3.6-16.42-5.56-8.38,1.43-18.03,12.06-16.18,3.15.55,5.41,1.89,7.76,3.91v.03Z"/>
      <path class="st15" d="M108.08,19.2c2.84.41,5.15,1.88,7.24,3.68-2.17-1.32-4.59-2.39-7.13-2.64,0-.35-.03-.69-.11-1.04Z"/>
      <path class="st15" d="M78,37.07c-1.34-4.01.03-8.45,3.37-10.97.46-.35,2.1-1.05,2.28-1.35.11-.17-.28-.42-.25-.59.03-.14.36-.35.38-.58.22.27.39.1.62.06,1.27-.25,2.32-.55,3.68-.56.73,0,3.67.25,4.19.58.63.38.78,3.48.73,4.17-.25,4.1-3.3,7.59-7.56,8.91-.83.25-1.72.27-2.49.6-.27-1.35-.21-2.72.15-4.13l.63-2.74c-3.15.48-4.71,3.61-4.34,6.34l-.27.29c-.38-.15-.81-.32-1.12-.06h0Z"/>
      <path class="st15" d="M79.14,37.13c-.52-2.54.76-5.58,3.35-6.62.38-.15,1.51-.59,1.55,0,.04.55-.52,2.16-.63,2.85-.21,1.3-.35,2.67-.46,4s0,2.69-.1,3.91c-.06.72-.66.28-1.13-.06-1.46-1.08-2.28-2.5-2.6-4.07h.03Z"/>
      <path class="st15" d="M95.38,11.53c-2.77,1.49-5.2,3.35-7.56,5.29-.18.15-.48.21-.66.36-.48.41-.77,1.18-1.51,1.4-2.69-4.91,4.64-10.34,9.73-7.06Z"/>
    </g>
    <g>
      <path class="st15" d="M156.45,23.54c.29-1.14.63-2.27,1.18-3.31l.28-.1c.43-.53,1.12.22.77.73l.04.45c-.94,1.35-1.37,3.1-.91,4.67l2.88-2.54c.18-.08.38-.11.59-.1l.49-.14c3.99,2.37,8.58,2.43,12.65.15.8-.45,4.09-3.24,4.02-4.17-.1-1.11-4.66-4.56-5.85-4.74-.27-.21-.27-.39.07-.52-.35-.18.08-.94.27-1.22,1.95-3.04,4.71-5.21,8.36-5.94,6.83-1.38,14.02,3.35,14.54,10.33.13,3.19-.25,5.8-2.16,8.45.14.31.03.59-.34.84,1.64,1.74,2.44,3.91,2.69,6.23.03.49.03,1,.01,1.47-1.41,12.56-19.17,14.37-23.74,2.69-6.51,2.26-13.53-1.36-15.61-7.77-.5-2.02-.48-3.4-.22-5.47h0Z"/>
      <path class="st15" d="M196.02,34.1c-.15,6.52-4.82,11.84-11.71,12.1-1.97.07-3.84-.51-5.69-1.12,1.16,2.89,3.33,6.57,1.6,9.64-.84,1.5-2.72,2.46-4.41,2.64-5.21.59-19.67-1.68-20.54-8.15-.59-4.42,3.29-6.86,6.72-8.73,1.4-.76,3.11-.93,3.54-2.75-4.43-1.08-7.8-4.39-8.88-8.71.15-.38.22.15.27.27,2.63,6.24,8.74,9.23,15.46,7.28,1.04,2.06,2.16,3.84,4.02,5.26,6.44,4.93,15.91,2.37,18.82-5.07.34-.87.5-1.78.8-2.67h0Z"/>
      <path class="st15" d="M195.8,17.09c-.64-3.14-2.14-5.92-4.8-7.84-5.99-4.35-13.88-2.65-17.74,3.44-.17.27-.49,1.12-.62,1.23.11.29-.07.45-.52.43-.06.59-.49.72-1.02.59-4.76-1.32-10.03.88-12.7,4.97l-.49.21c-.63,1.08-1.01,2.26-1.47,3.41.88-7.21,8.39-11.63,15.45-9.67,2.53-9.46,15.14-12.17,21.37-4.34,1.85,2.32,2.42,4.67,2.53,7.56h.01Z"/>
      <path class="st15" d="M193.64,25.54c1.74,2.03,2.24,4.5,2.35,7.07-.55-2.27-1.46-4.53-3.09-6.26.27-.27.52-.52.74-.81h0Z"/>
      <path class="st15" d="M157.91,20.12c2.17-3.72,6.62-6.09,11.03-5.88.62.03,2.34.52,2.7.42.21-.06.13-.48.28-.58.13-.08.53-.03.73-.18-.04.32.2.31.41.42,1.12.59,2.1,1.02,3.11,1.84.53.43,2.45,2.41,2.58,2.97.15.66-2.16,2.99-2.73,3.47-3.39,2.81-8.33,3.47-12.44,1.82-.8-.32-1.46-.86-2.28-1.08.87-1.14,1.97-2.09,3.33-2.89l2.59-1.6c-2.66-1.57-6.23-.27-8.11,1.94l-.42.06c-.15-.34-.34-.73-.77-.73h-.01Z"/>
      <path class="st15" d="M158.68,20.85c1.62-2.15,4.92-3.56,7.6-2.75.39.11,1.54.51,1.13.95-.39.42-2.06,1.25-2.67,1.67-1.18.81-2.34,1.71-3.46,2.61s-2.1,1.95-3.14,2.76c-.6.48-.7-.2-.77-.73-.21-1.67.31-3.2,1.3-4.52h0Z"/>
      <path class="st15" d="M190.45,12.26c-3.16-.62-6.37-.74-9.61-.79-.25,0-.5-.14-.76-.14-.67,0-1.48.38-2.18.1,1.89-5.19,11.45-4.64,12.55.84h0Z"/>
    </g>
  </g>
</svg>