<?xml version="1.0" encoding="UTF-8"?>
<svg id="Layer_1" xmlns="http://www.w3.org/2000/svg" version="1.1" viewBox="0 0 4185 5644">
  <!-- Generator: Adobe Illustrator 29.5.1, SVG Export Plug-In . SVG Version: 2.1.0 Build 141)  -->
  <defs>
    <style>
      .st0 {
        fill: #8a523b;
      }

      .st1 {
        fill: #d3e198;
      }

      .st2 {
        fill: #524283;
      }

      .st3 {
        fill: #cdab71;
      }

      .st4 {
        fill: #88513a;
      }

      .st5 {
        fill: #282d63;
      }

      .st6 {
        fill: #62493e;
      }

      .st7 {
        fill: #e41c20;
      }

      .st8 {
        fill: #b8794d;
      }

      .st9 {
        fill: #cdaa71;
      }

      .st10 {
        fill: #4cad32;
      }

      .st11 {
        fill: #88513b;
      }

      .st12 {
        fill: #fff;
      }

      .st13 {
        fill: #89523b;
      }

      .st14 {
        fill: #fbe0d9;
      }

      .st15 {
        fill: #684338;
      }

      .st16 {
        fill: #060302;
      }

      .st17 {
        fill: #60382a;
      }

      .st18 {
        fill: #fbfbfb;
      }

      .st19 {
        fill: #834c38;
      }

      .st20 {
        fill: #de844f;
      }

      .st21 {
        fill: #030101;
      }

      .st22 {
        fill: #fbded7;
      }

      .st23 {
        fill: #0a0404;
      }

      .st24 {
        fill: #e31c20;
      }

      .st25 {
        fill: #3b2920;
      }

      .st26 {
        fill: #cdaa70;
      }

      .st27 {
        fill: #e41d20;
      }

      .st28 {
        fill: #0c0505;
      }

      .st29 {
        fill: #88503b;
      }

      .st30 {
        fill: #e31d20;
      }

      .st31 {
        fill: #040202;
      }

      .st32 {
        fill: #272c63;
      }

      .st33 {
        fill: #080303;
      }

      .st34 {
        fill: #312017;
      }

      .st35 {
        fill: #0d0505;
      }

      .st36 {
        fill: #f9f8f8;
      }

      .st37 {
        fill: #aea5c7;
      }

      .st38 {
        fill: #cdab70;
      }

      .st39 {
        fill: #84bc2d;
      }

      .st40 {
        fill: #eb635a;
      }

      .st41 {
        fill: #f9a66c;
      }

      .st42 {
        fill: #eeeceb;
      }

      .st43 {
        fill: #a46038;
      }

      .st44 {
        fill: #60372a;
      }

      .st45 {
        fill: #fbdfd8;
      }

      .st46 {
        fill: #fce1da;
      }
    </style>
  </defs>
  <path class="st8" d="M1395,1728c2.12-9.68-4.91-8.29-10.52-11.27-20.99-11.16-43.59-20.16-64.11-32.05-111.31-64.46-210.38-169.82-106.25-294.65-161.06-227.81-179.85-529.25-47.26-775.64-67.58-35.85-133.28-87.62-155.77-164.21-53.54-182.31,98.54-350.57,277.8-362.38,131.17-8.64,224.18,33.63,271.96,160.1,310.52-160.7,704.53-159.6,1015.33,0,10.57-19.5,16.75-40.42,28.27-59.59,78.75-131.11,283.29-123.19,398.63-47.56,185.9,121.9,175.9,389.05-37.22,471.3,136.16,242.3,118.34,549.22-43.16,774.63-1.22,6.89,20.22,31.72,25.24,41.23,55.97,106.08-29.19,193.71-114.33,245.73l-91.6,50.34-3.24,8.54-72.7,23.46c-5.18,4.87-13.89,7.55-26.14,8.05-115.01,40.29-241.3,57.9-364.19,71.46-13.78-1.91-12.4-9.14-1.4-15.5,1.34-3.46,2.67-3.46,4,0l4-4,7.84-13.22c232.45-116.31,116.76-510.73-45.19-634.94-19.35-9.83-34.88-21.78-46.59-35.84,3.44-1.81,6.93-3.46,10.58-4.55,28.48-8.55,127.62,17.94,162.09,27.55,68.97,19.23,134.57,45.68,196.3,77.57,64.48,26.55,67-50.25,6.73-62.73l-73.26-32.93-2.65-8.9,7.55-10.85c150.29-52.26,168.71-272.88,21.19-341.45-181.07-84.17-346.54,133.08-220.81,283.97l.21,12.33-24.52,3.09c-145.21-29.56-293.32-17.3-438.78.28l-12.36-3.37v-12.05c86.48-100.47,30.31-281.61-105.67-299.13-232.88-30-303.14,273.01-93.47,356.09l7.28,11.08.87,5.24c-34.97,16.27-70.37,33.06-106.2,50.36-31.06,22.34-8.93,70.56,28.2,52.44,107.96-54.2,231.73-95.04,353.69-104.25l11.23,4.21c-10.71,14.13-25.37,26.29-43.98,36.46-159.6,133.4-268.02,528.96-24.43,638.73l8.45,12.81c-3.72,11.49-28.24,9.6-39.82,8.2-110.31-13.32-260.77-35.77-363.01-76.85-8.13-3.27-14.74-9.24-20.87-15.35-9.48,9.82-37.17-4.7-47.97-12Z"/>
  <path class="st8" d="M2694.07,1840c2.1-1.43,4.24-2.72,6.56-3.54,29.28-10.41,135.59,92.82,147.94,122.44,57.81,138.65,112.35,280.43,165.86,420.87,51.16,134.26,101.61,268.55,140.33,407.04,1.81,6.47,2.35,13.32,2.86,20.25.5,6.95.4,13.94.13,20.95,34.19,128.8,68.92,307.62,75.91,442.04,2.18,42.03-6.38,99.44,4.04,137.96-5.58,131.05-39.12,265.09-116.81,373.08-141.12,196.16-409.56,262.46-630.66,290.92-273.4,31.07-560.98,55.65-835.4,16-3.51,1.55-7.05,2.95-10.72,3.81-29.88,7-154.72-28.18-192.35-39.41-289.97-86.51-514.76-284.1-548.39-596.4,5.99-18.64-.17-22.33-.19-37.84-.21-193.55,24.38-361.24,72.14-546.16l.41-22.7c81.3-329.73,211.48-662.45,341.61-965.5,1.47-15.78,70.66-47.9,77.35-45.89,3.55,1.07,6.42,2.69,8.33,6.1-.78,13.82-1.81,27.81-5.96,41.08-64.33,206-122.61,396.74-156.81,611.25-48.69,305.33-74.77,721.01,68.36,1001.34,235.96,462.12,964.16,572.5,1342.2,227.62,502.91-458.8,230.11-1315.15,42.33-1862.85-1.32-7.54-.98-15.02.96-22.45Z"/>
  <path class="st8" d="M3369.58,5528c-.41-4.49-4.41-.49-11.99,12-82.96,64.04-305.46-16.76-367.65-94.09-81.44-101.26-76.98-315.63-105.26-446.67-50.1-232.18-145.22-552.84-266.57-755.24l13.5-13.47c310.45-118.87,612.42-379.24,629.64-732.3l8.39-18.24c187.37,451.24,244.34,951.52,255.98,1437.84,2.04,85.11-8.84,189.15.95,271.05,11.58,96.89,125.89,165.93,127.1,257.13.51,38.4-30.3,69.01-67.39,73.06-11.72,1.28-24.7-3.8-30.07-2.48s-11.03,11.08-17.41,14.75c-57.03,32.72-110.97,12.23-169.23-3.35Z"/>
  <path class="st8" d="M1530.9,4264c-115.45,202.76-225.02,568.65-265.9,799.91-39.84,225.33,2.94,406.6-266.66,481.15-55.73,15.41-153.28,34.1-198.91-9.06-3.85-13.23-6.52-15.9-7.99-8-51.01,14.33-107.38,34.24-158.6,8.72-8.17-4.07-24.06-19.17-28.08-20.07-14.39-3.23-27.28,6.87-54.26-5.53-60.47-27.79-40.63-95.67-15.56-141.8,48.38-89.02,98.19-101.05,104.78-219.15,5.9-105.65-3.08-217.67-.33-324.33,11.49-445.94,78.82-907.26,243.99-1321.84l11.02,19.57c57.76,331.24,311.47,606.89,620.65,726.31l15.86,14.12Z"/>
  <path class="st8" d="M4105.06,3412l-7.62-2.37c-10.74,31.63-32.9,54.51-65.12,64.22-28.71,8.65-83.29,16.38-43.26-20,25.74-36.05,24.35-68.83,16.07-109.85l6.02,44.05c1.31,7.97-.69,12.62-6.02,13.95,9.19.9.21,22.11-3.35,29.83-14.69,31.85-35.36,52.89-72.6,48.17-10.06-3.11-31.34-15.42-39.74-22.23-9.02-7.33-10.52-20.98-24.21-21.77-5.95-4.71-11.71,16.64-4,12-41.39,84.34-104.24-.45-127.34-50.57-22.7-49.26-31.57-99.59-59.84-148.12-66.59-114.3-217.19-208.99-324.45-285.31-54.74-175.91-115.92-358.06-186.77-532.48-42.32-104.19-87.93-207.19-138.01-307.15-63.86-127.46-133.91-234.11-212.46-351.86-6.62-9.92-10.72-21.22-14.37-32.52,269.35,92.59,549.7,265.78,753.57,463.89,250.22,243.16,536.49,685.31,569.45,1038.14,5.59,59.82,9.98,114.76-15.95,169.97Z"/>
  <path class="st8" d="M1387.01,1744c-1.04,9.72-3.66,18.97-7.92,27.74-251.43,356.3-413.07,781.67-535.69,1192.26-112.26,79.19-268.88,176.97-333.84,299.92-31.69,59.98-50.52,182.97-115.14,212.76-35.12,16.19-47.3.55-62.65-28.68-2.96-1.32-9.92-52.62-8.66-50.39,2.45,4.35,3.5,28.85.67,34.39-15.87,19.22-35.21,40.75-59.96,48-28.12,3.34-44-3.26-60.66-26.13-8.23-11.29-25.17-38.64-15.29-47.87-11.95-8.3-5.35-45.29,0-60-13.61,37.31-6.5,94.41,30.85,124.42,8.67,18.97-38.78,9.1-50.59,6.22-33.52-8.19-63.46-33.99-73.66-67.26l-6.53,6.62c-63.18-130.32,29.56-416.79,88.5-545.44,151.07-329.77,388.32-636.16,681.69-849.82,162.45-118.31,342.56-203.21,528.88-276.74Z"/>
  <path class="st43" d="M2742.03,1724c16.97-.08,39.7,10.41,55.96,16,122.97,161.19,217.7,336.7,300.49,521.3,98.74,220.15,186.11,452.32,250.77,685.11,1.3,4.66,6.82,14.97.35,17.59-63.79-45.39-130.51-87.14-191.86-136-77.76-292.9-208.89-580.52-316.26-865.52-36.16-50.67-86.06-104.37-147.41-122.48-3.72,1.04-5.06-.29-4-4-10.51-.93-31.24-68.36-29.98-72.17,1.11-3.36,2.85-6.02,6-7.83.46-.24-2.05-5.62,4.91-9.21,9.22-4.74,61.97-22.75,71.03-22.79Z"/>
  <path class="st43" d="M3237.68,3408c.35,1.29-.4,2.87,0,4l4,4c8.79,21.36,19.03,42.45,27.98,64-2.47,365.93-330.97,649.35-651.53,764-36.82-61.41-78.81-119.78-127.91-172-3.39-12.58,12.74-7.06,24.89-9.09,394.81-66.24,681.36-193.68,714.63-641.03.57-7.64-4.48-16.09,7.94-13.87Z"/>
  <path class="st43" d="M1654.81,4088c-42.91,57.28-88.36,113.56-123.91,176-192.88-65.89-373.53-208.58-490.91-374.74-80.65-114.17-137.62-245.76-156.63-385.26,5.7-14.31,15.89-35.25,19.99-48,7.38,4.14,6.68,11.1,7.9,18.1,68.4,391.97,376.47,560.86,743.56,613.9Z"/>
  <path class="st43" d="M1442.97,1740l6.05,6.96c-10.57,30.56-21.15,61.14-31.73,91.73l-10.3,5.31c-.73,3.63-2.09,3.48-4,0-17.08,3.63-63.23,22.74-73.79,36.16-14.37,18.27-40.72,93.27-51.99,119.97-117.17,277.61-226.69,580.61-301.91,871.87-43,31.94-88.17,61.14-131.91,92-5.47-15.32,5.37-40.03,10-55.99,73.83-254.63,175.41-518.79,290.35-757.44,71.47-148.39,157.63-268.7,243.26-406.57,2.59-4.17,5.5-13.61,7.99-16,7.73-7.4,36.63,8.15,47.97,12Z"/>
  <path class="st29" d="M87.94,3416c-2.77-21.71-4.57-39.22,1.11-60.89l18.84-43.09c-31.61,90.16,4.93,170.56,107.96,163.94-44.59-38.53-48.31-90.54-27.93-143.93,9.82.02-.05,11.75-.05,13.97v60c0,5.48,12.6,33.17,16.66,39.33,15.23,23.11,33.7,28.68,59.29,34.67-66.75,19.55-144.31,1.09-175.87-64Z"/>
  <path class="st11" d="M4105.06,3412c-14.46,30.78-26.75,47.94-60.01,61.95-29.23,12.3-86.18,15.25-115.86,6.05,30.69-7.77,52.39-17.59,65.97-47.98,1.68-3.76,9.98-28.44,9.98-30.02v-58l12.11,42.23c-.98,36.91-13.55,64.91-40.08,89.73,104.11,5.55,135.19-72.72,107.96-163.94l18.99,46.94.96,53.04Z"/>
  <path class="st13" d="M323.77,3432c-14.24-42.77-8.88-93.13,14.04-132.1,1.5-2.55,3.23-14.75,9.94-7.86,2.41,2.48-25,53.19-19.92,66.03l3.93,89.93c-3.33-6.35-5.02-7.08-7.99-16Z"/>
  <path class="st0" d="M3369.58,5528c-4.54,6.71-6,7.37-11.99,12,32.09-64.18-10.73-101.3-51.96-143.96l46.01,35.92c21.88,30.63,42.12,60.31,17.95,96.04Z"/>
  <path class="st4" d="M3865.23,3436c-1.39,4.09-1.89,7.71-4,12-8.42,5.03-9.39,7.14-6.52-4.5,13.23-53.7,13.24-94.67-5.43-147.5,31.65,40.71,31.82,93.26,15.95,140Z"/>
  <path class="st0" d="M791.43,5528c-25.85-43.88,9.18-88.38,41.96-116.01,4.49-3.78,6.51-9.7,14-7.95-26.98,30.54-55.32,53.1-52.11,98.13.87,12.15,9.37,24.42,4.15,33.83-3.05-2.89-5.13-3.13-7.99-8Z"/>
  <path class="st8" d="M3241.68,3416l-4-4c.34.95,3.28,2.26,4,4Z"/>
  <path class="st41" d="M2198.42,1132c108.4,45.34,172.23,169.95,204.92,276.93,48.9,160.04,43.15,323.84-120.98,407.07l-4,4c-1.08.52-2.9-.51-4,0-1.55,2.93-3.23,5.76-5.31,8.25-15.61,18.56-101.93,36.26-130.23,40.07-83.05,11.19-171.75-2.24-250.96-26.97-7.55-2.36-22.51-8.66-21.2-17.35-196.21-87.6-183.15-299.58-113.79-471.87,34.12-84.77,87.15-176.69,173.75-216.13l7.55-11.91c81.54-30.38,173.94-31.63,256.35-3.76l7.91,11.67Z"/>
  <path class="st20" d="M1866.66,1824c11.83,1.86,21.25,10.08,32.84,13.14,133.77,35.34,245.71,42.23,374.87-17.14-6.12,10.1-5.84,8.14,4.95,6.99,92.28-9.79,184.63-23.58,274.91-44.94,31.71-7.5,69.81-23.98,98.92-29.2,5.66-1.01,12.35,3.45,12.94,3.14l23.98,80-6.78,5.53c-67.29-15.62-136.64-12.19-208.07,10.3-225.86,70.57-457.47,99.3-692.83,49.82-111.36-27.19-223.75-44.87-337.16-53.04-15.75,3.47-28.49,1.93-38.24-4.61l35.97-104c128.96,43.84,246.68,66.55,381.77,83.96,11.32,1.46,36.05-.89,41.93.04Z"/>
  <path class="st19" d="M2306.35,1072l11.75.68c48.82,50.35,110.28,57.84,175.6,47.05l4.51,8.27c7.9.81,39.22,16.06,49.4,20.56,12.58,5.57,61.5,28.36,68.3,35.65,22.34,23.92,5.58,64.33-27.85,63.93-13.3-.16-75.27-34.38-93.97-42.02-93.39-38.14-194.57-67.29-295.66-74.13-78.2-32.7-194.66-31.13-271.81,4-109.73,10.54-218.39,43.99-319.64,86.13-17.38,7.24-44.88,26.82-62,26.15-34.52-1.35-47.31-47.6-17.85-70.06,9.68-7.38,101.26-48.64,111.69-50.23-.19-3.89,1.31-6.73,4.73-8.38,66.08,11.51,126.35,1.75,176.33-48l10.81.38c157.37-26.44,318.73-34.62,475.66,0Z"/>
  <path class="st41" d="M2765.13,213.1c129.5-14.61,261.63,89.86,226.76,226.92-6.02,23.65-46.52,91.77-72.05,92.03-8.6.09-39.25-46.21-47.83-56.12-65.14-75.14-139.37-134.43-221.52-189.92,23.46-42.51,66.8-67.52,114.65-72.92Z"/>
  <path class="st41" d="M1482.41,291.41c-1.58,2.69-44.34,27.2-52.69,33.33-81.8,60.09-152.82,128.57-212.56,210.86-142.96-95.93-76.59-287.81,81.11-318.41,46.82-9.08,104.23-7.58,144.46,21.06,8.89,6.33,46.42,41.68,39.7,53.16Z"/>
  <path class="st12" d="M1830.69,1072c-28.52,30.56-75.85,56.49-117.77,60.15-22.27,1.94-59.01-6.44-74.09-4.15-223.65-74.43-165.94-397.39,78.09-376.14,150.68,13.12,216.09,210.53,113.77,320.14Z"/>
  <path class="st12" d="M2498.21,1128c-18.57-1.9-50.01,6.25-74.09,4.14-45.01-3.94-87.99-27.74-117.77-60.14-134.02-145.85,10.6-371.52,198.98-313.12,180.68,56.01,171.33,316.39-7.11,369.12Z"/>
  <path class="st17" d="M2453.35,609.12c28.93-3.32,50.54.27,76.38,13.33,14.52,7.34,77.71,53.9,41.59,64.82-20.17,6.1-19.87-9.6-30.95-19.47-23.18-20.64-52.04-30.85-83.11-26.76-17.83,2.34-67.61,31.74-67.36.92.16-19.66,47.16-30.98,63.46-32.85Z"/>
  <path class="st44" d="M1645.85,609.04c21.53-2.91,94.21,5.37,100.44,29.77,8.61,33.71-55.12,3.72-66.51,2.24-22.5-2.93-39.52.09-59.67,10.21-15.14,7.6-50.41,51.47-63.48,33-14.22-20.09,39.15-57.92,55.45-65.03,9.4-4.1,23.76-8.83,33.77-10.19Z"/>
  <path class="st20" d="M2278.37,1820l4-4c-.71.36-1.76,2.93-4,4Z"/>
  <path class="st41" d="M2690.07,1836c1.48,1.02,2.61,2.81,4,4,182.41,548.59,447.48,1315.51,30.05,1820.07-355.12,429.23-1157.08,339.02-1417.74-149.38-125.82-235.75-122.04-552.56-99.22-812.67,25.64-292.33,97.78-578.88,195.84-854.02,1.27-.27,2.71.23,4,0,98.53-17.84,299.33,38.68,406.87,54.84,157.01,23.58,284.17,29.51,441.35,0,112.14-21.05,276.34-84.25,384.83-74.77,9.96.87,43,7.12,50.03,11.94Z"/>
  <path class="st25" d="M2078.51,1524c-5.99,11.21-13.89,11.35-19.99,0-61.46-3.3-123.61-33.78-134.11-99.8-7.69-48.36-3.48-70.04,46.04-82.33,42.62-10.58,145.51-9.72,188.81-.68,57.45,11.99,63.16,36.87,49.95,91.61-14.69,60.87-71.95,88.06-130.71,91.2Z"/>
  <path class="st15" d="M2078.51,1524c1.57,89.65-22.73,201.88,88.65,233.29,66.39,18.72,151.75-25.99,138.23-102.35-1.71-9.64-20.37-38.33-4.91-42.9,25.89-7.66,27.9,66.47,25.6,81.7-4.54,30.03-39.44,65.33-66.2,77.76-71.22,33.08-158.38-1.81-191.34-71.48-33.17,63.22-103.33,97.91-173.9,77.99-44.03-12.43-86.56-57.12-88.03-104.23-.41-13.29,8.68-57.51,22.7-61.23,25.56-6.78,3.2,31.62,1.74,41.79-4.76,33.23,4.38,59.66,29.71,81.56,46.33,40.07,119.09,31.93,161.92-9.79,53.62-52.22,31.21-134.98,35.85-202.12,6.5.35,13.49.35,19.99,0Z"/>
  <path class="st6" d="M1661.85,801.04c224.67-32.3,222.71,311.96,3.99,281.93-157.51-21.63-154.94-260.22-3.99-281.93Z"/>
  <path class="st6" d="M2417.31,801.04c167.63-24.29,235.72,184.59,100.55,264.63-88.9,52.64-203.69-7.25-214.38-108.77-7.29-69.23,42.23-145.48,113.82-155.86Z"/>
  <path class="st34" d="M1661.76,824.95c140.45-23.75,199.19,149.42,90.34,218.4-97.42,61.74-217.92-45.22-171.24-151.36,12.05-27.41,50.93-61.97,80.9-67.04Z"/>
  <path class="st34" d="M2421.31,825.04c188.19-27.36,186.25,251.16,10.98,234.9-136.08-12.62-136.29-216.68-10.98-234.9Z"/>
  <path class="st36" d="M1641.73,860.64c32.43-4.95,36.94,54.76-4.04,42.54-21.95-6.54-17.42-39.27,4.04-42.54Z"/>
  <path class="st42" d="M1595.86,946.96c-15.47-15.63,10.58-34.18,21.28-19.25,8.74,12.2-8.31,32.36-21.28,19.25Z"/>
  <path class="st18" d="M2400.91,860.84c22.91-2.05,31.98,39.08,7.16,43.16-37,6.09-34.38-40.73-7.16-43.16Z"/>
  <path class="st36" d="M2373.81,947.5c-8.79,14.04-38.67-8.14-19.79-21.79,14.46-10.46,26.85,10.51,19.79,21.79Z"/>
  <g>
    <path class="st32" d="M2946.78,423.8c162.4-13.23,225.1,215.19,81.09,291.12,5.46,22.82,11.77,42.9,11.47,66.65-.08,7.25-5.31,31.39-3.75,34.82.92,2.07,27.23,20.97,33.53,27.79,64.42,70.95,56.82,187.74-24.55,235.23,14.23,28.35,17.41,59.65,20.52,90.63,99.37,15.19,155.45,132.88,109.1,224.54-20.6,40.79-63.89,73.8-108.33,77.41,28.07,119.71-71.98,220.75-186.67,182.74-9.4-3.07-28.44-16.6-36-12.91-4.21,2.07-30.56,41.15-35.57,48.79-29.27,43.56-77.03,146.32-125.75,161.54-27.92,8.8-56.34-8.47-75.67-29.16-134.09-143.5,129.36-171.24,203.14-221.16-12.06-13.46-18.54-31.2-24.56-48.28-4.79-10.39,4.6-15.64,2.14-3.73,46.85,76.76,162.46,82.1,195.29-6.43,37.28-100.62-70.19-193.85-158.82-136.62l-4.54-6.4c22.17-23.33,52.04-39.64,82.6-46.81.6-2.56,1.61-6.55,3.53-6.6,18.78-1.09,60.23,8.56,78.04,16.16l2.13,7.56,7.15-3.04c19.32,11.6,36.55,27.13,50.55,45.13,142.3-65.62,31.57-276.92-100.83-193.01-18.68-4.2-4.81-19.92,5.83-26.7,34.55-17.29,42.89-30.06,36.69-71.98-11.02-75.09-71.75-113.89-140.46-97.05l-6.84-4.05c-14.05-22.37-17.7-46.42-18.53-72.29l3.4-.32c7.36,20.8,17.92,38.59,31.54,53.62,47.92-11.18,98.52-16.81,141.62,17.41,90.87-82.14,12.04-228.18-104.16-194.68-22.14-11.64,14.53-24.44,27.49-26.33,36.36-3.07,55.67-7.36,54.35-49.87-2-66.67-37.51-114.66-103.21-119.64-15.92-22.88,37.91-14.76,50.05-12.28,21.94,4.46,39.02,13.34,57.04,26.7,100.02-37.36,80.98-188.65-24.51-211.15l-5.77-7.4.21.06Z"/>
    <path class="st2" d="M2755.64,713.66c1.14-3.47,2.02-7.2,3.4-10.52,8.42-2.27,12.51,5.78,12.42,24.32,61.72,106.49,160.96-53.2,42.16-68.01-26.69,6.84-32.21,3.76-8.24-15.53,6.33-5.13,13.59-8.85,20.71-12.43-.17-1.05-.62-2.03-.76-2.98,1.21-6.99,8.03-10.94,20.32-11.67-18.11-30.65-29.16-61.68-20.91-97.44,1.71-5.04,3.3-9.39,5.54-14.24,8.06,3.52,12.42,13.37,13.24,29.38,58.56,94.91,153.29-44.65,46.93-72.41-19.38,2.88-45.4,4.4-15.69-15.16,12.44-9.22,30.12-18.35,45.33-19.4,10.06-3.02,16.02-5.42,26.54-3.62,89.23,15.27,133.91,119.44,76.79,193.58-7.54,9.82-35.16,33.78-46.48,31.53-5.51-1.11-20.03-13.61-27.4-17.09-23.54-11.06-55.46-16.36-80.61-11.45,4.48,4.66,14.3,1.82,21.22,3.55,58.28,14.54,95.81,72.65,87.82,134.32-2.15,16.88-5.65,35.31-22.55,39.2-23.6,5.28-47.96,3.85-69.33,20.84l36.01-5.17c110.4-3.64,162.75,144.38,73.6,210.95-29.05-18.64-64.78-30.08-98.72-25.11-33.94,4.97-45.2,25.17-64.39-16.49-5.48-11.96-6.13-25.06-13.86-34.47-.14-3.58.51-6.71.59-9.79,7.51-1.27,13.08,5.74,16.89,20.99,20.51,29.81,67.53,23.46,82.89-7.21,30.09-59.99-54.11-107.34-87.53-53.95l-7.24.43c-11.74.6-5.05-13.28-1.17-21.18l12.92-23.58c-57.76-16.65-93.35-80.41-80.36-139.96l-.05-.21Z"/>
    <path class="st2" d="M2771.95,1146.09c5.71-3.76,10.88.94,15.49,14,88.73,78.63,134.6-104.74,17.51-80-23.15,12.73-28.96,12.68-15.32-13.72,4.32-8.45,10.4-16.04,17.19-22.38,5.53-6.35,23.1-20.82,30.44-23.91,42.78-17.65,104.32,1.32,132.14,42.3,18.33,26.98,31.21,82.52,15.62,112.27-5.91,11.27-43.75,22.17-48.66,41.51,144.14-93.93,261.25,138.86,104.61,203.99-13.23-18.42-36.23-39.48-55.82-49.48l-.65-7.83c53.18-54.07-35.21-131.36-77.11-67.25-.9,12.72-12.9,20.62-13.44,5.31-2.56-1.32-4.59-3.21-5.85-5.84-2.67-5.89,8.64-34.98,12.19-42.25-60.16,5.66-129.91-35.86-128.39-106.94l.05.21Z"/>
    <path class="st2" d="M2786.99,1550.13l6.08-3.09c26.05,34.86,87.54,16.25,88.39-27.25,1.16-61.89-71.74-81.01-97.32-27.22-3.33,1.73-5.94.97-8.02-2.22-1.91-2.91,10.15-43.04,13.28-50.09,8.21-14.38,18.13-27.77,29.49-39.67,7.84,2.27,14.77-6.53,23.44-9.3,161.16-52.81,219.37,202.64,51.82,224.09-41.77,5.34-90.37-24.62-107.1-65.38l-.06.13Z"/>
    <path class="st37" d="M2789.4,1440.26l-11.3,51.01c26.91-59.17,105.15-43.39,109.24,24.28,2.61,43.39-49.04,70.21-84.6,48.09-5.19-3.27-9.41-9.53-15.68-13.63-.23-.16-.53-3.59-3.58-2.26l1.55,6.07c-14.33-40.82-17.41-75.1,4.46-113.58l-.09.02Z"/>
    <path class="st37" d="M2806.85,1044.11c-8.75,10.02-17,28.79-23.01,41.19,25.04-20.44,65.29-22.65,85.65,6.98,44.95,65.19-42.18,130.59-88.03,69.79-3.95-5.23-3.91-13.36-9.51-15.97-.13,2.88-1.07,3.01-2.9.74-.75-35.75,7.16-82.27,37.69-102.81l.12.08Z"/>
    <path class="st37" d="M2830.34,505.04c17.28-39.39,33.63-60.89,73.87-76.36,4.59-1.72,11.8-5.65,16.02-1.26-22.36,6.72-39.81,18.64-59.12,31.26l27.45-3.09c73.3,7.08,75.53,114.67-1.55,117-15.73.52-40.5-14.61-46.97-30.05-4.98-11.88-4.78-25.84-9.77-37.39l.06-.13Z"/>
    <path class="st37" d="M2759.13,703.12c12.68-30.54,33.64-64.62,67.02-71.75l-35.39,28.36c46.69-23.91,98.07,20.35,80.8,72.23-16.6,49.95-87.4,48.48-104.98-.49-3.71-10.34.1-21.51-7.43-28.23l-.03-.1Z"/>
    <path class="st37" d="M2820.16,905.79c-6.54-5.89-4.06-9.04,4.16-7.53,33.23-63.2,131.55-16.62,100.92,54.47-16.17,37.68-74.35,43.93-95.23,7.75-4.38-7.65-4.45-17.38-10.85-22.32.06-6.92-.26-27.44.9-32.34l.09-.02Z"/>
    <path class="st37" d="M2891.18,1301.84c.25-2.8,1.25-3.06,2.9-.74.39,0,4.38,4.25,6.27,1.46.44-.55-.37-6.37,2.06-10.06,48.88-74.23,149.19,19.74,82.77,78.41-13.93-7.17-70.83-20.1-83.71-17.12l-10.22-51.96-.09.02Z"/>
    <path class="st32" d="M2755.64,713.66l3.05,36.04c6.67,47.17,38.02,89.11,83.45,99.16,5.84,5.41-23.45,37.57-17.79,49.49-1.06,1.91-4.09,7.07-4.16,7.53-64.44-45.73-90.41-116.12-64.55-192.23Z"/>
    <path class="st32" d="M2769.05,1146.84l2.9-.74c9.1,69.12,77.71,115.65,140.42,95.74-8.81,18.48-19.04,37.43-18.37,59.28-.99-.08-2.01.84-2.9.74-71.7-11.43-120.65-81.63-122.11-154.9l.06-.13Z"/>
    <path class="st5" d="M2824.8,519.28l3.16,36.12c4.06,25.26,14.32,44.55,28.8,64.84l-31.5,8.07c-1.35-10.94-7.01-23.19-8.85-34.55-4.31-28.16-.5-48.75,8.29-74.46l.09-.02Z"/>
  </g>
  <g>
    <path class="st39" d="M2588.71,3193.94c-31.39,154.02-177.3,258.59-343.16,252.31-129.83-1.4-259.48-.99-389.11,1.25-194.69-.61-333.92-178.85-315.91-353.87,1.75-17.05,3.9-32.36,7.1-49.11,20.32-77.43,70.75-145.48,141.86-190.69,67.39-42.88,122.35-45.61,203.79-47.94,136.61-.32,273.13-1.81,409.56-4.4,180.71,18.29,307.73,187.8,293.1,353.15-.17,9.69-5.49,28.22-7.24,39.36v-.07Z"/>
    <path class="st1" d="M1540.46,3093.63c-5.16,137.47,72.88,278.43,211.78,330.85,80.91,30.5,206.6,15.19,295.79,14.9,92.55-.34,233.09,11.76,318.86-13.57,113.42-33.46,190.73-126.72,221.82-231.8-30.86,191.06-164.56,283.24-365.41,284.8-115.72.93-233.96,2.23-349.58-.16-78.43-1.61-115.53-1.61-182.99-44.32-124.2-78.69-164.26-205.77-150.19-340.63l-.08-.06Z"/>
    <path class="st10" d="M2595.95,3154.58c3.16-164.99-113.66-332.51-298.7-348.78-157.37,9.19-326.83-3.08-482.85,9.21-124.16,9.76-235.18,121.05-263.83,230.97l-2.93-1.52c25.3-130.15,118.12-240.66,261.03-266.15l480.22-11.65c166.58,9.26,288.55,140.43,307.98,291.33,4.3,33.15.9,63.42-.92,96.53v.07Z"/>
    <path class="st40" d="M1963.5,2918.43c-8.92,66.68-112.2,71.01-125.24,4.25-.37-4.61-.45-10.07-.21-14.69,10.67-67.22,115.47-66.9,125.31.69.2,3.18.25,6.63.14,9.81v-.07Z"/>
    <path class="st40" d="M2255.87,2919.15c-14.57,67.54-121.36,61.33-125.41-8.03-.02-1.62-.12-3.31-.07-4.87,9.48-65.06,105.99-72.03,125.17-9.13,1.04,8.5,1.25,12.53.31,22.09v-.06Z"/>
    <path class="st40" d="M1841.09,3121.2c-1.23,69.49-108.03,79.4-125.1,14.06-1.77-11.74-2.06-15.96-.38-26.97,22.11-58.94,112.5-55.35,125.41,8.03.18,1.62.05,3.25.07,4.87h0Z"/>
    <path class="st40" d="M2425.87,3125.16c-16.5,66.14-121.32,58.79-125.45-10.5-.02-1.62-.12-3.31-.07-4.87,11.18-63.92,101.52-69.23,125.13-11.6,1.99,11.15,1.67,15.12.38,26.97h0Z"/>
    <path class="st40" d="M1969.36,3330.27c-6.67,68.47-110.64,72.87-125.2,6.66-.46-5.26-.55-11.89-.24-17.15,12.45-65.88,116.97-63.99,125.34,3.09.11,2.4.15,4.94.1,7.34v.07Z"/>
    <path class="st40" d="M2261.73,3330.98c-13.19,67.78-119.18,64.22-125.38-5.56-.03-2.4-.22-4.94-.1-7.34,10.49-63.97,104.66-68.5,125.17-9.13,1.35,9.01.86,12.4.31,22.09v-.06Z"/>
    <path class="st40" d="M2133.5,3124.44c-9.92,66.43-113.47,67.91-125.27,1.78-.29-3.96-.35-8.25-.17-12.28,9.75-67.6,113.68-69.21,125.27-1.78.21,3.96.35,8.31.17,12.28Z"/>
    <path class="st26" d="M2300.42,3114.66c13.6,63.5,98.51,69.11,125.45,10.5-2.58,22.91-9.14,40.04-33.16,50.78-50.01,22.35-91.53-13.71-92.28-61.27h0Z"/>
    <path class="st38" d="M2136.36,3325.42c15.82,63.79,102.22,66.14,125.38,5.56-4.87,82.35-123.11,78.7-125.38-5.56Z"/>
    <path class="st30" d="M2133.32,3112.16c-22.13-60.78-104.8-59.47-125.27,1.78,2.81-82.25,120.13-83.92,125.27-1.78Z"/>
    <path class="st38" d="M1715.99,3135.26c28.59,57.89,113.31,49.86,125.1-14.06,1.87,83.03-105.52,89.24-123.66,28.8-1.69-5.7-.68-9.87-1.43-14.73Z"/>
    <path class="st9" d="M2008.23,3126.23c21.57,59.36,105.4,58.16,125.27-1.78-4.27,81.56-118.68,83.19-125.27,1.78Z"/>
    <path class="st27" d="M1969.26,3322.86c-18-60.58-102.78-62.29-125.34-3.09,4.32-77.73,120.46-81.85,125.34,3.09h0Z"/>
    <path class="st24" d="M2425.48,3098.19l-3.19,1.87c-18.85-45.42-86.54-50.11-112.86-7.43-3.59,5.84-3.8,12.66-9.09,17.16,4.02-77.59,112.01-84.33,125.13-11.6h0Z"/>
    <path class="st30" d="M2261.42,3308.95l-2.88,1.6c-14.28-41.07-72.63-50.7-104.48-21-9.13,8.51-10.89,19.2-17.8,28.52,4.47-78.31,113.94-83.19,125.17-9.13Z"/>
    <path class="st3" d="M1844.16,3336.93c24.55,58.92,108.42,55.84,125.2-6.66-2.39,84.46-118.56,86.31-125.2,6.66Z"/>
    <path class="st7" d="M2255.56,2897.12l-13.42-18.14c-37.64-37.94-96.14-20.47-111.75,27.26,3.66-81.68,116.07-83.87,125.17-9.13Z"/>
    <path class="st3" d="M1838.26,2922.69c23.04,60.24,106.43,55.81,125.24-4.25-3.57,82.59-118.28,84.35-125.24,4.25Z"/>
    <path class="st7" d="M1963.36,2908.62c-19.76-61.01-104.6-61.23-125.31-.69,3.59-80.9,120.62-81.72,125.31.69h0Z"/>
    <path class="st3" d="M2130.46,2911.18c15.51,63.54,100.03,68.38,125.41,8.03-7.38,77.84-111.79,72.95-124.55,9.77-1.23-5.96-.7-11.82-.87-17.8h0Z"/>
    <path class="st24" d="M1841.02,3116.32c-5.34-4.34-5.74-11.1-9.57-16.89-27.6-41.98-95.13-35.63-112.6,10.64l-3.24-1.77c10.98-72.43,118.72-70,125.41,8.03h0Z"/>
    <path class="st16" d="M1910.8,2918.79c-5.69,8.92-29.42,2.3-19.32-14.02,6.88-11.21,27.33,1.43,19.32,14.02Z"/>
    <path class="st46" d="M2206.66,2949.29l19.14-15.16,16.68-31.89c9.97,23.32-7.99,51.13-35.82,47.04Z"/>
    <path class="st23" d="M2182.95,2901.01c5.54-8.53,29.34-2.63,21.97,11.58-7.82,15.12-29.15-.56-21.97-11.58Z"/>
    <path class="st14" d="M1789.41,3161.12c2.3-4.84,10.48-5.09,15.32-8.93,9.76-7.81,17.98-26.32,19.19-38.1,14.84,21.56-7.09,55.21-34.52,47.03h0Z"/>
    <path class="st33" d="M1766.05,3126.68c-10.49-16.55,26.35-24.55,22.97-3.58-1.68,10.62-19.06,9.83-22.97,3.58Z"/>
    <path class="st14" d="M2376.69,3152.76l21.7-17.66,7.86-12.14,6.26-17.25c10.94,21.88-9.08,55.05-35.82,47.04h0Z"/>
    <path class="st28" d="M2375.59,3118.01c-3.73,6.36-21.08,7.64-23.07-2.92-3.97-20.87,33.08-13.99,23.07,2.92Z"/>
    <path class="st22" d="M1920.25,3367.69l19.1-17.62c7.82-9.21,9.2-14.69,11.72-25.71,2.52-11.02,8.13,1.77,7.78,9.31-.97,18.02-18.14,36.65-38.53,34.02h-.08Z"/>
    <path class="st31" d="M1896.66,3333.38c-8.12-11.71,11.1-26.48,18.99-14.63,9.46,14.1-13.68,22.42-18.99,14.63Z"/>
    <path class="st14" d="M2212.48,3358.66c19.37-4.18,29.93-25.38,34.59-42.22,16.08,16.93-15.14,59.62-34.59,42.22Z"/>
    <path class="st35" d="M2211.53,3318.76c4.41,14.04-18.96,16.52-22.62,6.76-5.97-16.03,18.14-20.99,22.62-6.76Z"/>
    <path class="st45" d="M2081.71,3156.96c.17-4.16,7.3-2.83,11.32-5.36,3.64-2.26,6.5-5.42,9.29-8.45l17.84-30.87c10.41,21.95-12.62,53.6-38.45,44.61v.06Z"/>
    <path class="st21" d="M2080.62,3112.2c6.07,18.18-22.96,20.34-20.47,2.37,1.53-10.88,17.19-12.07,20.47-2.37Z"/>
  </g>
</svg>