<?xml version="1.0" encoding="UTF-8"?>
<svg id="Layer_1" xmlns="http://www.w3.org/2000/svg" version="1.1" viewBox="0 0 1024 1024">
  <!-- Generator: Adobe Illustrator 29.6.0, SVG Export Plug-In . SVG Version: 2.1.1 Build 207)  -->
  <defs>
    <style>
      .st0 {
        fill: #292e7d;
      }

      .st1 {
        fill: #323895;
      }

      .st2 {
        fill: #231f20;
      }
    </style>
  </defs>
  <path class="st2" d="M228.17,912.3c-10.38-3.72-7.64-22.04-7.46-31.46.04-1.99.9-3.81.96-5.6,3.84-132.65,10.74-265.22,15.82-397.59.46-12.02.63-24.12.88-36.14-1.61-.42-1.85.68-2.78,1.4-12.87,9.98-29.15,30.3-42.36,37.82-13.59,7.74-20.23-.55-29.08-9.66-33.37-34.34-68.71-70.89-100.63-106.46-2.56-2.85-9.18-9.88-10.51-12.82-6.93-15.26,10.05-26.18,18.88-35.95,49.31-54.52,99.74-107.99,149.35-162.23,25.1-14.76,54.89-22.16,82.04-33.34,13.96-5.74,55.42-27.74,67.27-27.47,8.49.19,37.37,14.92,48.2,18.59,72.31,24.5,142.03,22.49,211.66-9.23,6.98-3.18,13.31-9.44,21.09-8.53,17.96,2.11,44.82,16.36,62.45,23.16,23.39,9.02,47.93,17.16,70.97,26.71,23.42,9.71,32.67,25.97,49.38,43.85,41.38,44.28,83.98,87.93,124.32,133.15,9.05,10.15,20.31,18.66,10.65,33.3-38.07,39.25-73.33,81.68-111.75,120.53-7.41,7.49-14.02,12.41-24.9,7.33l-46.99-40.17c.81,9.83.51,19.73.88,29.58,5.17,137.76,11.2,275.4,15.77,413.58.33,9.86,4.77,24.64-8.31,28.57-183.28,4.87-388.38,4.82-565.8-.94Z"/>
  <path class="st1" d="M464.78,904.79c-.96-1.55-3.52-.94-5.09-.95-68.9-.73-138.15.75-206.86-2.79-3.54-.18-15.6,1.02-17.22-1.57-2.52-4.04-.04-17.26.11-22.31,3.77-122.64,8.53-245.08,12.91-367.71.91-25.36,3.77-52.65,3.82-77.8.01-7.37-5.85-12-12.82-9.14-17.06,13.07-32.21,30.11-48.96,43.34-2.34,1.85-4.86,4.66-8.12,3.62l-117.34-126.75c.28-1.54,12.84-15.05,15.1-17.53,49.31-54.18,100.34-106.82,149.37-161.27,24.82-13.01,52.47-20.8,78.61-31.19,8.06-3.2,15.97-7.01,23.86-10.63.89-.35,1.7-.14,2.54.2,2.42.97,3.56,14.52,4.42,18.16,28.19,119.15,175.63,153.56,272.87,97.69,34.77-19.98,66.34-60.17,74.24-100.32.81-4.12.19-15.88,4.4-16.08,13.21,4.88,26.08,10.63,39.23,15.66,16.8,6.43,36.35,12.02,52.42,19.21s33.19,30.64,45.65,43.87c43.89,46.61,87.69,93.43,130.79,140.72l.49,2.21-115.93,125.87c-1.88.53-4.33-2.2-6.02-3.44-17.99-13.3-34.77-29.74-52.48-43.52-9.03-2.24-13.34,2.37-12.99,11.24,5.85,150.23,14.09,299.91,18.63,450.09.09,2.83.44,13.92-.49,15.52-.76,1.3-3.2,1.72-4.63,1.88-14.32,1.65-32.6.39-47.36.88-46.38,1.54-92.56,1.32-139.11,1.9-1.57.02-4.12-.6-5.09.95-42.97.7-85.96.7-128.93,0Z"/>
  <path class="st0" d="M362.69,112.4c8.75,47.97,39.3,84.88,83.59,103.52,80.3,33.81,207.56-4.84,212.39-105.48,7.85,3.55,16,2.55,15.83,13.6-.28,19.13-13.65,46.21-24.17,61.92-69.15,103.29-271.17,82.49-298.24-47.38-2.55-12.25-6.22-25.4,10.6-26.19Z"/>
  <path class="st0" d="M641.96,114.21c1.06,1.19-3.52,19.24-4.59,22.07-3.82,10.1-8.22,10.96-17.33,15.3-61.82,29.45-145.02,28.81-208.09,3.4-3.71-1.49-17.82-7.6-19.91-9.88-4.93-5.37-7.08-22.34-9.8-29.48,3.44-.19,7.24,2.93,10.52,4.37,31.21,13.68,65.53,22.72,99.52,25.98,50.76,4.88,104.24-9.95,149.68-31.77Z"/>
  <path class="st0" d="M403.19,166.73c17.58,6.14,35.22,12.28,53.63,15.64,44.89,8.19,92.56,6.09,136.3-6.96,9.51-2.84,18.78-6.7,28.05-10.09-14.72,20.56-38.95,36.29-63.08,43.13-22.07,6.26-58.15,6.74-80.89,3.01-28.88-4.73-56.46-21.18-74.01-44.73Z"/>
</svg>