<?xml version="1.0" encoding="UTF-8"?>
<svg id="Layer_1" xmlns="http://www.w3.org/2000/svg" version="1.1" viewBox="0 0 1024 1536">
  <!-- Generator: Adobe Illustrator 29.6.1, SVG Export Plug-In . SVG Version: 2.1.1 Build 9)  -->
  <defs>
    <style>
      .st0 {
        stroke: #120f0d;
      }

      .st0, .st1 {
        fill: #120f0d;
      }

      .st0, .st2, .st3, .st4, .st5, .st6, .st7, .st8, .st9, .st10 {
        stroke-miterlimit: 10;
      }

      .st2 {
        display: none;
      }

      .st2, .st3, .st4, .st5, .st6, .st7, .st8, .st9, .st10 {
        stroke: #231f20;
      }

      .st2, .st3, .st4, .st5, .st6, .st7, .st8, .st10 {
        stroke-width: 3px;
      }

      .st2, .st6 {
        fill: #030303;
      }

      .st11 {
        fill: #173412;
      }

      .st12 {
        fill: #060504;
      }

      .st13 {
        fill: #46727a;
      }

      .st14 {
        fill: #eeeeec;
      }

      .st3 {
        fill: #fafbfb;
      }

      .st4 {
        fill: #010101;
      }

      .st15, .st9 {
        fill: #927010;
      }

      .st16 {
        fill: #f9f9f9;
      }

      .st17 {
        fill: #b38365;
      }

      .st5 {
        fill: #a97757;
      }

      .st18 {
        fill: #493e36;
      }

      .st19 {
        fill: #3a3939;
      }

      .st20 {
        fill: #3b3a39;
      }

      .st7 {
        fill: #010100;
      }

      .st8 {
        fill: #020202;
      }

      .st9 {
        stroke-width: 4px;
      }

      .st21 {
        fill: #66cbe6;
      }

      .st22 {
        fill: #713a0d;
      }

      .st23 {
        fill: #3a3938;
      }

      .st24 {
        fill: #020101;
      }

      .st10 {
        fill: #fafafb;
      }

      .st25 {
        fill: #020203;
      }
    </style>
  </defs>
  <path class="st9" d="M718.65,319.64c17.48-90.35-13.36-263.45-103.34-295.09,0,0-30.4-8.83-40.81-10.33-23.72-3.42-72.07-2.8-95.87,0-8.96,1.05-35.12,8.37-35.12,8.37-23.98,8.63-47.45,20.7-66.46,38.34-2.96,2.75-9.96,11.92-11.95,13.19-2.36,1.51-15.56,3.73-20.3,5.52-66.99,25.39-69.42,188.74-55.96,250.8"/>
  <path class="st25" d="M676.24,786.14l-3.34-11.74c-.16,10.25-.83,20.65-1.92,30.86-1.24,11.62-5.56,28.68-5.6,39.32-.05,12.24,5.45,29.27,6.44,42.17.22,2.82.5,7.01.19,9.71-.37,3.3-10.34,4.95-10.61,5.96-.28,23.81.57,47.68.1,71.49-.05,2.32-.98,4.46-1.03,6.78-2.69,124.29-11.98,248.3-21.11,372.34-1.12,3.97-9.53,5.75-10.13,6.73-.39.64-.42,13.3-.21,15.09.58,4.76,3.02,2.79,6.29,4.31,13.26,6.17,18.59,20.67,27.57,31.43,14.61,17.5,35.07,29.22,38.58,54.4,2.3,16.52,1.97,30.1-11.41,41.17-7.73,6.4-16.22,10.44-25.73,12.24-9.12,1.73-26.36,2.53-37.15,0-17.17-4.03-29.92-10.23-42.85-21.11-6.82-5.74-13.44-11.75-19.88-17.93-14.28-13.68-28.62-27.63-21.99-49.21l.53-20.86c1-12.12,2.51-28.53,13.01-35.51l-.38-11.2c-10.64-1.34-16.31-6.36-17.01-15.07l-2.96-45.26c-3.19-105.98-9.85-211.78-17.04-317.43l.93-5.56c-.92,3.26-12.81,3-14.29,0,.22,7.85.34,15.72-.24,23.57-8.68,117.14-16.86,234.26-22.66,351.61-3.04,4.83-8.06,7.75-15.05,8.78-.17,3.39-.29,6.78-.35,10.17,9.86,7.57,11.61,22.01,12.56,34.05l.97,22.1c3.28,15.37,1.68,23.89-8.76,35.98-12.42,14.4-40.9,41.66-57.77,49.06-5.44,2.39-9.42,2.82-16.33,3.83-9.27,1.36-27.25,1.33-36.2,0-15.3-2.28-33.27-10.65-38.55-27.47-3-9.55-1.45-29.39,2.49-38.55,7.33-17.06,25.75-29.88,37.5-43.75,9.45-11.14,15.7-27.22,31-31l-.19-17.4c-.78-2.39-10.13-2.99-11.78-6.5-.52-1.1-1.19-10.73-1.41-13.25-2.6-29.62-3-60.38-4.78-90.16-4.65-77.58-10.31-155.55-12.41-233.27-1.02-37.86-.28-75.88-.91-113.75-.8-4.39-9.73-3.53-9.61-8.79l6.38-48.88-7.26-59.47-34.34,146.54c-.05,9.97,5.64,18.39,8.65,27.44,6.01,18.11,6.91,37.15,9.79,55.66,1.13,7.3,10.24,30.59-3.35,29.03-9.46-1.09-17.96-10.93-20.76-19.9l-6.63-29.97c-3.32,13.94-2.17,30.43,1.42,44.16,2.5,9.55,7.43,18.89,9.52,28.43,1.2,5.44,3.47,15.93-4.04,17.48-3.82.78-5.97-1.83-8.37-1.73-1.96.09-3.35,2.89-6.62,2.92-6.48.06-11.58-6.14-15.76-10.3-4.64-4.61-7.46-4.31-11.89-9.34-34.35-38.97-13.46-100.38-7.21-145.76,9.95-72.22,15.75-143.14,30.64-214.57.42-8.04-15.13-8.29-14.33-16.5,21.04-48.77,35.09-113.62,78.71-146.41,3.16-2.38,11.62-6.46,13.38-8.29,4.46-4.63,6.23-14.84,14.53-21.81,9.81-8.23,38.28-16.88,48.96-10.21,3.83,2.39.41,7.25,7.77,4.88,9.63-3.11,9.98-18.39,8.07-27.12-21.78-6.23-42.95-16.14-60.49-30.88-22.23-18.68-36.17-46.51-44.33-74.48-20.86,11.46-52.47-2.38-56.35-45-1.97-21.64,26.77,32.64,41.39,14.15,1.44-1.82,22.99-17.31,23.25-16.93,33.68,50.46,42.24,105.87,115.8,130.31h-.01c206.71,68.68,177.34-166.81,241.47-175.21,42.53-5.57,13.77,97.71-25.01,96.68-4.91-.13-8.32-3.2-12.85-4-11.98,52.21-51.5,89.35-100.07,105.53.14,15.17,1.35,27.29,17.18,29.85-1.2-5.7,6.66-9.39,10.97-9.84,16.23-1.69,33.63,5.03,44.77,17.66,3.81,4.32,7.46,13.64,10.04,16.13,3.06,2.95,11.07,6.77,15.11,9.94,23.86,18.67,33.67,46.88,45.83,74.24,10.84,24.4,21.54,46.52,30.36,71.79.61,5.62-12.56,10-13.81,12.12-.78,1.32-.55,2.92-.48,4.38.66,13.91,6.88,35.48,9.26,50.32"/>
  <path class="st11" d="M544.98,1358.09c-.37-2.03-.98-4.11-1.15-6.18-6.93-84.51-7.26-170.01-12.37-254.71-2.07-34.27-7.43-70.31-8.57-104.23-.07-2.19-.49-8.93.92-9.94,1.17-.84,12.17-.83,15.3-1.86,2.76-.9,3.9-3.88,1.33-4.42-1.34-.28-9.64,1.82-12.25,1.95-10.43.52-23.86.59-34.26,0-2.63-.15-15.87-2.71-16.56-2.01-.51.51-.02,2.65.97,3.41,3.01,2.33,18.2,1.82,22.76,2.48l-10.44,123.45c-3.83,84.41-9.56,168.72-14.41,253.1-22.81,9.96-47.86,9.73-71.81,4.41-3.27-.73-18.16-4.12-19.01-6.86l-6.78-100.18c-3.79-93.55-11.19-186.81-12.39-280.27-.25-19.56-1.28-42.85,0-62.04.14-2.17.75-4.19,1.03-6.32,23.98,5.83,48,11.03,72.58,13.73,71.41,7.82,147.78,5.77,216.88-14.75-.36,24.08.5,48.24.05,72.33-.04,2.33-.98,4.48-1.03,6.8-2.58,123.64-11.68,247.23-21.08,370.6-1.49,3.8-11.23,6.21-14.95,7.13-24.5,6.1-51.48,4.19-74.77-5.64v.02h.01Z"/>
  <path class="st21" d="M443.19,510.49c-.46,20.16,18.37,33.06,34.63,39.37,30.7,11.91,83.57,7.91,100.65-25.58,1.43-2.81,3.68-12.01,4.19-12.4,1.62-1.25,11.52,1.75,12.84,3.57,1.85,2.56,6.37,20.08,7.63,24.55,32.2,113.8,44.34,236.89,64.09,353.64,1.29,8.01-13.64,10.21-19.75,11.97-67.42,19.36-159.3,19.7-228.34,8.97-8.86-1.38-57.46-10.65-60.92-16.54-1.7-2.9,3.56-36.49,4.44-42.63,8.92-62.63,19.2-125.51,30.52-187.72,7.53-41.37,15.21-84.43,26.76-124.73,1.64-5.73,6.52-25.11,8.94-28.84,1.16-1.79,13.63-4.35,14.31-3.62h0Z"/>
  <path class="st17" d="M345.68,208.71c-4.52,34.78-1.65,70.13-3.98,105.05-1.76.36-2.36-.85-3.05-2.24-1.84-3.74-3.11-10.77-5.05-15.43-6.46-15.51-16.83-29.1-34.32-17.93-30.72,19.63-4.58,97.93,32.46,98.62,3.28.06,10.04-1.74,11.43-5.03.74-1.75-2.23-9.74,1.85-8.81,1.44.33,7.51,24.97,9.01,29.04,30.59,82.74,119.74,106.26,197.48,90.48,54.28-11.02,93.2-40.2,112.96-94.42,1.34-3.67,6.55-23.86,7.54-24.64,4.21-3.33,1.87,6.28,1.87,6.97-.04,5.11,9.49,6.61,13.57,6.09,38.04-4.77,62.55-93.72,25.36-100.52-30.58-5.59-30.03,19.15-36.48,36.85-.97,1.2-.98,1.13-1.91-.01-1.36-1.65-2.15-10.43-2.36-13.29-1.31-17.93-.8-36.18-1.87-54.13-.28-4.71-2.24-37.28-3.77-38.39-46.35-5.74-90.31-22.28-128.69-49.6-1.54.98.31,2.17.95,2.95,1.98,2.44,4.63,4.45,6.63,6.9l25.17,23.07c-1.07,2.32-19.87,5.16-23.26,5.41-36.38,2.69-71.8-9.73-96.81-37.36-1.42.77.22,2.36.68,3.23,1.94,3.64,14.52,22.01,14.03,23.76-1.37,2.21-3.93,1.59-6.04,1.42-25.08-2.13-47.67-20.08-63.24-39.23-6.16,27.19-25.28,50.55-50.14,61.17l-.02.02h0Z"/>
  <path class="st17" d="M313.03,1082.8c-7.57,4.94-20.31-20.8-22.53-26.08-6.29-14.97-6.93-25.73-9.64-41.16-.53-3.01-3.65-3.18-3.79-1.97,1.16,24.64,9.05,50.46,24.68,69.32-9.93,3.31-16.54-6.21-21.28-13.84-9.17-14.75-13.14-30.66-14.87-48.05l-2.77-.07c-1.24,17.15,5.64,30.39,11.95,45.16.7,1.65.86,3.11-1.05,1.09-33.7-39.54-15.76-89.9-9.12-135.38,10.23-69.97,15.37-140.52,28.89-210.06.46-2.35,2.16-14.23,3.94-14.42,16.91,8.35,35,13.65,53.25,17.49,1.34,15.72-.71,31.85,1.14,47.53l-37.82,165.49c.77,11.62,7.25,21.6,10.55,32.42,3.96,13,4.64,25.94,6.73,39.25.87,5.51,6.14,27.45,5.61,30.59-1.32,7.7-14.95-3.64-17.53-7.41-7.89-11.52-5.99-25.17-10.5-36.33-2.58-6.39-4.8-4.17-6.45,1.18-3.63,11.73-2.56,28.04-.04,39.97,2.43,11.53,12.38,30.48,11.74,40.96-.09,1.48-.55,2.97-1.09,4.32h0Z"/>
  <path class="st22" d="M430.85,505.58c.19,3.6-2.58.48-4.98,4.19s-6.06,17.37-7.62,22.59c-15.5,51.85-23.4,106.73-33.62,159.91l-23.07,142.79c-2.22-15.82-4.74-31.67-5.74-47.66-4.41-70.3-.81-171.02,14.74-239.55,7.94-34.97,25.06-47.15,60.29-42.28h0Z"/>
  <path class="st22" d="M662.45,833.09l-21.17-133.94c-10.58-55.31-18.77-113.11-35.52-166.79-2.58-8.27-4.94-20.05-11.64-25.31,22.68-7.73,46.33,2.02,55.07,25.55,14.49,39.01,18.23,118.14,19.95,161.29,1.85,46.32-.2,93.32-6.7,139.21h.01Z"/>
  <path class="st21" d="M673.85,720c-1.96-60.67-4.91-121.73-18.02-180.98,31.31,15.62,46.34,50.81,59.96,81.95,10.02,22.92,18.94,46.53,27.15,70.22-.05,4.37-20.97,14.5-25.45,16.47-5.55,2.45-40.88,15.15-43.64,12.33h0Z"/>
  <path class="st21" d="M351.12,719.01c-19.29-2.13-42.45-9.35-59.15-19.87-2.29-1.45-9.02-5.46-9.15-8.12-.09-1.91,8.24-23.45,9.68-27.34,5.12-13.83,10.85-28.2,16.68-41.73,13.31-30.92,27.97-66.52,59.01-81.95-11.48,58.76-16.88,118.98-17.07,179.01Z"/>
  <path class="st17" d="M568.49,484.92c.35,6.55.45,14.35,3.95,20.01,3.16,5.1,7.27,4.14,4.8,12.18-8.45,27.56-47.55,36.54-71.86,34.68-18.76-1.44-55.65-14.36-58.16-37.14-.77-7.01,2.42-6.57,4.71-11.34,2.5-5.19,2.91-11.71,2.65-17.42,38,7.15,76.2,8.95,113.91-.98h0Z"/>
  <path class="st17" d="M560.9,1369.64c.23-.8,1.37-1.36,2.28-1.43,4.14-.28,13.96,2.57,19.09,2.89,13.82.86,29.06-.52,42.22-4.91l.96,16.73c-11.3-.46-23.72,4.49-30.22,14.42-1.88,2.87-5.48,14.41-7.42,14.99-8.47-1.46-19.75-7.17-24.09-15.11-.49-.9-2.81-6.54-2.81-6.92,0-4.39-.86-17.65,0-20.65h-.01Z"/>
  <path class="st17" d="M461.23,1368.16v21.15c0,.62-3.26,8.55-3.95,9.68-4.55,7.45-15.29,14.03-23.98,12.51-3.5-17.48-18.25-29.63-35.67-28.58v-16.72c20.67,5.39,42.69,7.14,63.6,1.97h0Z"/>
  <path class="st20" d="M373.42,1416.35c-2.39-.72-1.6-4.86,1.14-5.7s15.97-.44,19.49.05c4.09.57,21.46,6.61,20.51,11.9-1.12,6.23-11.11-1.54-14.11-2.8-1.52-.64-9.09-3.46-9.95-3.46-3.78,0-14.43.79-17.09,0h0Z"/>
  <path class="st23" d="M642.05,1427.17h15.19c1.23,0,2.38,4.13.52,5.46-1.59,1.14-6.66.15-9.05.46-4.78.61-12.01,2.55-16.32,4.73-2.86,1.44-10.59,9.62-12.55,3.46-2.16-6.79,17.43-13.09,22.21-14.1h0Z"/>
  <path class="st20" d="M633.51,1416.35c-2.04.27-8.71,2.54-10.9,3.46-2.79,1.17-11.67,8.73-13.23,3.8-2.3-7.25,18.27-12.68,23.2-13.15,3.22-.3,11.3-.55,14.2.01,4.32.84,3.76,5.87,1.93,5.87-4.64,0-10.82-.57-15.19,0h-.01Z"/>
  <path class="st19" d="M381.97,1427.17c4.77.67,22.11,7.83,20.97,13.83-1.22,6.43-8.34-1.21-10.96-2.56-2.28-1.18-6.38-3.06-8.76-3.71-4.52-1.25-14.46-.99-16.9-2.16-3.44-1.66-.63-5.4.46-5.4,4.58,0,10.92-.6,15.19,0h0Z"/>
  <path class="st15" d="M589.18,208.84c15.49-1.07,34.97,5.25,46.72,15.92,3.59,3.26,13.45,14.05,10.01,19.24-1.01,1.3-2.28,1.01-3.62.76-4.9-.92-15.27-7.05-21.81-8.94-14.35-4.14-26.36-3.84-41.1-3.72-4.28.04-13.07,2.85-15.2-3.83-4.2-13.18,15.84-18.8,25.01-19.43h-.01Z"/>
  <path class="st15" d="M423.07,208.82c9.17-.4,37.96,4.94,30.43,19.75-3.47,6.83-10.36,3.61-15.49,3.53-14.81-.24-27.76.48-42.06,4.7-3.51,1.04-18.64,7.95-19.69,7.86-3.59-.28-2.04-6.47-1.16-8.82,5.67-15.1,33.32-26.38,47.97-27.02h0Z"/>
  <path class="st24" d="M447,399.35c8.73,4.67,15.81,10.86,25.37,14.52,28.43,10.9,66.41,8.98,90.87-10.62,1.75-1.41,5.7-7.59,7.03-3.27,1.22,3.96-1.78,5.92-4.32,8.05-27.7,23.18-78.94,21.88-108.81,3.91-4.21-2.53-13.04-6.97-10.14-12.59Z"/>
  <path class="st24" d="M499.89,333.69c3.14-.55,9.35-.05,5.52,2.76-1.83,1.34-4.58.96-6.74,1.87-30.15,12.65-19.46,44.26,13.39,42.39,3-.17,14-3.6,14.66-.52.55,2.57-5.65,3.82-7.36,4.16-13.07,2.6-33.85.39-40.48-13.61-7.43-15.7,5.48-34.32,21.01-37.04h0Z"/>
  <path class="st24" d="M322.63,354.1c-10.59-2.5-10.87-19.43-4.72-27.02,2.63-3.25,8.16-5.08,8.46-5.51,1.85-2.7-9.74-20.54-16.35-19.42-1.84.31-7.42,5.73-8.26,4.74-2.91-3.42,6.82-12.04,15.52-6.73,9.11,5.56,18.37,27.44,18.2,38.23-1.03,1.34-1.88,1.43-2.86-.03-1.3-1.94-2.39-13.48-4.74-13.66-8.98,3.39-12.78,12.01-9.22,21.24.6,1.55,4.82,7.35,3.98,8.16h-.01Z"/>
  <path class="st24" d="M691.89,321.64c14.59-.71,16.61,28.16,7.01,32.35-5.3,2.31.37-6.43.63-7.22,3.34-10.39,1.53-19.03-9.51-22.17-.84.65-3.91,18.1-6.66,14.74-1.08-12.18,12.28-44.02,26.61-40.92,3.94.85,10.26,8.42,6.13,8.45-.41,0-4.76-4.35-6.87-4.75-6.98-1.31-16.91,12.75-17.34,19.52h0Z"/>
  <path class="st7" d="M782.25,971.88"/>
  <path class="st10" d="M876.53,718.99l-4.82,282.2-337.7-3.28,2.36-454.67,341.05-3.25-.9,178.99"/>
  <path class="st5" d="M870.13,749.64c9.58-1.16,22.54.84,31.23,5.21,10.97,5.52,16.78,20.12,8.72,30.54-7.88-7.35-21.95-12.42-32.67-13.12-6.62-.43-10.62,2.27-16.32-2.08-11.73-8.95-2.59-19.14,9.03-20.55h.01Z"/>
  <path class="st5" d="M861,779.12c8.76-9.42,41.08-.36,48.06,9.1,4.08,5.52,4.43,18.51-1.37,22.79-3.74,2.76-3.44-.38-5.39-2.08-4.76-4.13-16.14-9.67-22.32-10.51-6.1-.83-9.73.95-15.6-2.81-5.51-3.53-8.25-11.25-3.37-16.49h-.01Z"/>
  <path class="st5" d="M879.13,838.8v-12.45c1.8,1.55,5.23,1.59,2.32-1.08-2.22-2.03-7.55-5.78-11.11-8.32-4.5-3.21-10.98-9.78-5.81-15.46,6.89-7.55,35.52,1.74,38.08,11.7,3.72,14.49-12.01,22.8-23.49,25.61h0Z"/>
  <path class="st5" d="M876.95,726.45c13.73-1.48,36.24,6.07,33.98,23.47-.17,1.31-1.51,5.97-2.88,5.98-.44,0-5.72-3.79-7.65-4.6-6.95-2.91-17.54-4.92-25.01-5.06-2.51-.05-4.87,1.14-7.51.79-3.22-.42-7.47-6.14-7.76-9.46-.64-7.23,11.25-10.52,16.84-11.12h0Z"/>
  <g>
    <path class="st4" d="M641.07,834.39c10.48-1.75-2.42,13.77-4.85,16.36-5.75,6.13-37.41,33.09-43.44,34.29-4.48.89-5.86-1.86-4.63-6.52.72-2.73,32.17-28.84,36.94-32.59,3.33-2.62,12.8-10.99,15.97-11.52h0v-.02h.01Z"/>
    <path class="st4" d="M734.48,664.22c-4.91,3.84-6.4-6.17-6.7-9.45-1.49-16.32-2.81-48.08-1.17-63.85.87-8.46,6.18-9.79,8.35-1.68,3.07,11.37,3.04,52.7,1.9,65.55-.13,1.55-1.9,9.05-2.39,9.43h.01Z"/>
    <path class="st4" d="M620.61,633.91c1.59-.48,2.29-.07,3.66.48,4.63,1.86,27.85,30.28,32.47,36.36,2.52,3.32,12.13,14.29,6.25,17.32-2.11,1.09-11.66-8.27-13.67-10.25-7.25-7.15-22.96-24.85-28.41-33.22-1.99-3.06-5.6-9.05-.32-10.67h.02v-.02h0Z"/>
    <path class="st8" d="M568.39,747.66c15.89,1.79,32.6.3,48.42,2.4,13.52,1.79,10.14,11-2.14,11.43-10.04.33-39.42-1.51-48.62-4.21-7.52-2.22-4.83-9.67,2.34-9.6h0v-.02Z"/>
    <path class="st3" d="M706.66,857.34c-36.16-23.08-45.6-36.28-56.31-68.81-7.17-51.61,35.64-95.11,81.37-100.37"/>
    <path class="st4" d="M690.83,792.05c4.03-1.4,6.1,8.38,8.02,11.41,14.49,22.88,53.25,23.06,69.33,2.7,1.94-2.46,5.53-14.81,9.07-9.05,3.24,5.26-4.54,14.6-7.97,17.95-20.02,19.5-58.6,20.11-74.97-5.23-1.79-2.77-8.57-16.01-3.48-17.78h0Z"/>
    <path class="st2" d="M757,745.04c12.33-4.04,12.88,26.55-.8,19.53-6.5-3.32-5.31-17.52.8-19.53Z"/>
    <path class="st6" d="M709.32,745.13c4.11,5.35-.53,21.77-7.7,19.59s-5.63-19.18-.32-20.97c1.9-.65,6.77-.26,8.02,1.37h0v.02h0Z"/>
  </g>
  <g>
    <path class="st16" d="M629.44,333.62c-2.29,3.04-5.46,5.58-9.5,7.66-12.64,5.33-24.99,7.36-38.02,1.41-17.91-8.19-27.36-28.39-23.36-49.23,15.95-32.09,61.38-35.15,78-10.36,9.18,17.35,7.95,38.51-7.14,50.52h.02,0Z"/>
    <path class="st0" d="M626.98,336.38c-1.21,1.26,3.46-1.01,4.25-2.7,17.07-15.62,10.91-40.35,6.58-46.96-22.95-35.03-76.06-14.01-80.17,12.22,0-3.59.94-8.77,4.12-13.22,17.2-20.18,27.03-21.95,36.54-22.96,45.12,1.73,56.2,49.15,31.15,70.88l-2.46,2.74h0Z"/>
    <path class="st18" d="M619.94,341.28c2.19-3.02,7.1-5.18,9.5-7.66l.87.96h0"/>
    <path class="st13" d="M620.81,326.92c-2.81,2.48-7.02,5.2-10.37,6.7-13.03,3.06-25.51,2.08-34.25-10.51-10.49-15.13-7.54-38.77,7.73-48.57,31.84-20.45,62.24,24.5,36.88,52.38Z"/>
    <path class="st1" d="M620.81,326.92l6.48-12.43c7.58-17.33-4.71-40.72-21.7-42.94-43.71-5.69-45.25,58.09-10.27,62.05h15.12c-36.69,16.35-57.84-41.74-24.78-61.38,32.65-19.41,61.63,31.26,35.15,54.69h0v.02Z"/>
    <path class="st12" d="M606.97,287.7c-1.29,6.91-.58,8.94,6.04,7.66,2.58-.53,1.71,1.48,1.73,3.29.19,13.86-8.85,23.24-21.07,17.61-13.91-6.42-9.87-26.53,4.41-29.29,4.04-.77,5.81.39,8.87.73h.02Z"/>
    <path class="st14" d="M613.03,295.36c-4.39,6.72-12.53-2.2-6.04-7.66.27,0,1.44-1.05,2.81-.79,3.62.71,5.46,5.05,3.23,8.43h0v.02Z"/>
  </g>
  <g>
    <path class="st16" d="M388.58,331.42c-15.08-12-16.32-33.16-7.14-50.52,16.62-24.8,62.05-21.74,78,10.36,4,20.84-5.45,41.04-23.36,49.23-13.03,5.95-25.38,3.92-38.02-1.41-4.04-2.08-7.22-4.62-9.5-7.66h.02Z"/>
    <path class="st0" d="M388.56,331.42c-25.05-21.72-13.97-69.13,31.15-70.88,9.5,1.03,19.32,2.8,36.54,22.96,3.17,4.47,4.12,9.65,4.12,13.22-4.12-26.23-57.22-47.26-80.17-12.22-4.33,6.59-10.49,31.32,6.58,46.96.79,1.69,5.46,3.96,4.25,2.7l-2.46-2.74h0Z"/>
    <path class="st18" d="M387.69,332.38h0l.87-.96c2.41,2.48,7.31,4.64,9.5,7.66"/>
    <path class="st13" d="M434.08,272.34c15.28,9.8,18.22,33.44,7.73,48.57-8.74,12.58-21.22,13.56-34.25,10.51-3.35-1.5-7.56-4.21-10.37-6.7-25.36-27.88,5.04-72.83,36.88-52.38Z"/>
    <path class="st1" d="M397.19,324.7c-26.47-23.43,2.5-74.09,35.15-54.69,33.05,19.64,11.91,77.73-24.78,61.38h15.12c34.98-3.96,33.44-67.74-10.27-62.05-16.99,2.23-29.28,25.61-21.7,42.94l6.48,12.43h0v-.02Z"/>
    <path class="st12" d="M411.05,285.5c3.06-.34,4.83-1.5,8.87-.73,14.28,2.76,18.32,22.87,4.41,29.29-12.22,5.63-21.26-3.74-21.07-17.61.02-1.82-.85-3.83,1.73-3.29,6.62,1.28,7.33-.75,6.04-7.66h.02Z"/>
    <path class="st14" d="M404.97,293.14c-2.23-3.38-.38-7.72,3.23-8.43,1.37-.26,2.54.81,2.81.79,6.48,5.46-1.65,14.38-6.04,7.66h0v-.02Z"/>
  </g>
</svg>