<?xml version="1.0" encoding="UTF-8"?>
<svg id="Layer_1" xmlns="http://www.w3.org/2000/svg" version="1.1" viewBox="0 0 1024 1536">
  <!-- Generator: Adobe Illustrator 29.6.1, SVG Export Plug-In . SVG Version: 2.1.1 Build 9)  -->
  <defs>
    <style>
      .st0 {
        fill: #052440;
      }

      .st1 {
        stroke: #120f0d;
      }

      .st1, .st2 {
        fill: #120f0d;
      }

      .st1, .st3 {
        stroke-miterlimit: 10;
      }

      .st4 {
        fill: #252423;
      }

      .st5 {
        fill: #020202;
      }

      .st6 {
        fill: #faf5ea;
      }

      .st7, .st3 {
        fill: #502e05;
      }

      .st8 {
        fill: #060504;
      }

      .st9 {
        fill: #eeeeec;
      }

      .st10 {
        fill: #bd2025;
      }

      .st11 {
        fill: #080403;
      }

      .st12 {
        fill: #070606;
      }

      .st13 {
        fill: #f9f9f9;
      }

      .st14 {
        fill: #b38365;
      }

      .st15 {
        fill: #faf6ec;
      }

      .st16 {
        fill: #7d532f;
      }

      .st17 {
        fill: #493e36;
      }

      .st18 {
        fill: #3a3939;
      }

      .st19 {
        fill: #3b3a39;
      }

      .st20 {
        fill: #db302e;
      }

      .st3 {
        stroke: #231f20;
        stroke-width: 4px;
      }

      .st21 {
        fill: #080202;
      }

      .st22 {
        fill: #713a0d;
      }

      .st23 {
        fill: #3a3938;
      }

      .st24 {
        fill: #020101;
      }

      .st25 {
        fill: #080707;
      }

      .st26 {
        fill: #fbf7eb;
      }

      .st27 {
        fill: #f9f5eb;
      }

      .st28 {
        fill: #020203;
      }

      .st29 {
        fill: #080504;
      }
    </style>
  </defs>
  <path class="st3" d="M718.65,319.64c17.48-90.35-13.36-263.45-103.34-295.09,0,0-30.4-8.83-40.81-10.33-23.72-3.42-72.07-2.8-95.87,0-8.96,1.05-35.12,8.37-35.12,8.37-23.98,8.63-47.45,20.7-66.46,38.34-2.96,2.75-9.96,11.92-11.95,13.19-2.36,1.51-15.56,3.73-20.3,5.52-66.99,25.39-69.42,188.74-55.96,250.8"/>
  <path class="st28" d="M349.24,684.82c.42-8.04-71.44,13.15-70.64,4.94,21.04-48.77,35.09-113.62,78.71-146.41,3.16-2.38,11.62-6.46,13.38-8.29,4.46-4.63,6.23-14.84,14.53-21.81,9.81-8.23,38.28-16.88,48.96-10.21,3.83,2.39.41,7.25,7.77,4.88,9.63-3.11,9.98-18.39,8.07-27.12-21.78-6.23-42.95-16.14-60.49-30.88-22.23-18.68-36.17-46.51-44.33-74.48-20.86,11.46-52.47-2.38-56.35-45-1.97-21.64,26.77,32.64,41.39,14.15,1.44-1.82,22.99-17.31,23.25-16.93,33.68,50.46,42.24,105.87,115.8,130.31h-.01c206.71,68.68,177.34-166.81,241.47-175.21,42.53-5.57,13.77,97.71-25.01,96.68-4.91-.13-8.32-3.2-12.85-4-11.98,52.21-51.5,89.35-100.07,105.53.14,15.17,1.35,27.29,17.18,29.85-1.2-5.7,6.66-9.39,10.97-9.84,16.23-1.69,33.63,5.03,44.77,17.66,3.81,4.32,7.46,13.64,10.04,16.13,3.06,2.95,11.07,6.77,15.11,9.94,23.86,18.67,33.67,46.88,45.83,74.24,10.84,24.4,21.54,46.52,30.36,71.79.61,5.62-12.56,10-13.81,12.12-.78,1.32-.55,2.92-.48,4.38.66,13.91,6.88,35.48,9.26,50.32,9.04,56.25,13.51,110.85,21.35,167.17,5.89,42.28,27.14,106.39-5.72,142.34-5.18,5.67-8.18,4.42-11.98,7.28-3.4,2.55-4.69,7.63-10.86,10.39-8.61,3.84-10.18-1.6-12.73-1.34-3.33.34-6.69,4.5-11.14-.64-6.78-7.82,4.62-33.14,7.11-42.67,3.61-13.8,4.3-26.99,2.38-41.16-1.38-.26-1.23,1.85-1.44,2.91-2.6,13.31-5.17,32.87-18.05,40.25-24.39,13.97-12.83-22.82-11.12-33.99,2.83-18.55,4.57-34.85,10.59-52.88,3.27-9.8,7.54-13.74,6.67-25.45-1.52-20.57-12.84-52.43-17.61-74.01-5.12-23.1-7.76-46.6-13.26-69.62l-3.34-11.74c-.16,10.25-.83,20.65-1.92,30.86-1.24,11.62-5.56,28.68-5.6,39.32-.05,12.24,5.45,29.27,6.44,42.17.22,2.82.5,7.01.19,9.71-.37,3.3-10.34,4.95-10.61,5.96-.28,23.81.57,47.68.1,71.49-.05,2.32-.98,4.46-1.03,6.78-2.69,124.29-11.98,248.3-21.11,372.34-1.12,3.97-9.53,5.75-10.13,6.73-.39.64-.42,13.3-.21,15.09.58,4.76,3.02,2.79,6.29,4.31,13.26,6.17,18.59,20.67,27.57,31.43,14.61,17.5,35.07,29.22,38.58,54.4,2.3,16.52,1.97,30.1-11.41,41.17-7.73,6.4-16.22,10.44-25.73,12.24-9.12,1.73-26.36,2.53-37.15,0-17.17-4.03-29.92-10.23-42.85-21.11-6.82-5.74-13.44-11.75-19.88-17.93-14.28-13.68-28.62-27.63-21.99-49.21l.53-20.86c1-12.12,2.51-28.53,13.01-35.51l-.38-11.2c-10.64-1.34-16.31-6.36-17.01-15.07l-2.96-45.26c-3.19-105.98-9.85-211.78-17.04-317.43l.93-5.56c-.92,3.26-12.81,3-14.29,0,.22,7.85.34,15.72-.24,23.57-8.68,117.14-16.86,234.26-22.66,351.61-3.04,4.83-8.06,7.75-15.05,8.78-.17,3.39-.29,6.78-.35,10.17,9.86,7.57,11.61,22.01,12.56,34.05l.97,22.1c3.28,15.37,1.68,23.89-8.76,35.98-12.42,14.4-40.9,41.66-57.77,49.06-5.44,2.39-9.42,2.82-16.33,3.83-9.27,1.36-27.25,1.33-36.2,0-15.3-2.28-33.27-10.65-38.55-27.47-3-9.55-1.45-29.39,2.49-38.55,7.33-17.06,25.75-29.88,37.5-43.75,9.45-11.14,15.7-27.22,31-31l-.19-17.4c-.78-2.39-10.13-2.99-11.78-6.5-.52-1.1-1.19-10.73-1.41-13.25-2.6-29.62-3-60.38-4.78-90.16-4.65-77.58-10.31-155.55-12.41-233.27-1.02-37.86-.28-75.88-.91-113.75-.8-4.39-9.73-3.53-9.61-8.79l6.38-48.88-8.27-122.84"/>
  <path class="st0" d="M544.98,1358.09c-.37-2.03-.98-4.11-1.15-6.18-6.93-84.51-7.26-170.01-12.37-254.71-2.07-34.27-7.43-70.31-8.57-104.23-.07-2.19-.49-8.93.92-9.94,1.17-.84,12.17-.83,15.3-1.86,2.76-.9,3.9-3.88,1.33-4.42-1.34-.28-9.64,1.82-12.25,1.95-10.43.52-23.86.59-34.26,0-2.63-.15-15.87-2.71-16.56-2.01-.51.51-.02,2.65.97,3.41,3.01,2.33,18.2,1.82,22.76,2.48l-10.44,123.45c-3.83,84.41-9.56,168.72-14.41,253.1-22.81,9.96-47.86,9.73-71.81,4.41-3.27-.73-18.16-4.12-19.01-6.86l-6.78-100.18c-3.79-93.55-11.19-186.81-12.39-280.27-.25-19.56-1.28-42.85,0-62.04.14-2.17.75-4.19,1.03-6.32,23.98,5.83,48,11.03,72.58,13.73,71.41,7.82,147.78,5.77,216.88-14.75-.36,24.08.5,48.24.05,72.33-.04,2.33-.98,4.48-1.03,6.8-2.58,123.64-11.68,247.23-21.08,370.6-1.49,3.8-11.23,6.21-14.95,7.13-24.5,6.1-51.48,4.19-74.77-5.64v.02h.01Z"/>
  <path class="st10" d="M443.19,510.49c-.46,20.16,18.37,33.06,34.63,39.37,30.7,11.91,83.57,7.91,100.65-25.58,1.43-2.81,3.68-12.01,4.19-12.4,1.62-1.25,11.52,1.75,12.84,3.57,1.85,2.56,6.37,20.08,7.63,24.55,32.2,113.8,44.34,236.89,64.09,353.64,1.29,8.01-13.64,10.21-19.75,11.97-67.42,19.36-159.3,19.7-228.34,8.97-8.86-1.38-57.46-10.65-60.92-16.54-1.7-2.9,3.56-36.49,4.44-42.63,8.92-62.63,19.2-125.51,30.52-187.72,7.53-41.37,15.21-84.43,26.76-124.73,1.64-5.73,6.52-25.11,8.94-28.84,1.16-1.79,13.63-4.35,14.31-3.62h0Z"/>
  <path class="st14" d="M345.68,208.71c-4.52,34.78-1.65,70.13-3.98,105.05-1.76.36-2.36-.85-3.05-2.24-1.84-3.74-3.11-10.77-5.05-15.43-6.46-15.51-16.83-29.1-34.32-17.93-30.72,19.63-4.58,97.93,32.46,98.62,3.28.06,10.04-1.74,11.43-5.03.74-1.75-2.23-9.74,1.85-8.81,1.44.33,7.51,24.97,9.01,29.04,30.59,82.74,119.74,106.26,197.48,90.48,54.28-11.02,93.2-40.2,112.96-94.42,1.34-3.67,6.55-23.86,7.54-24.64,4.21-3.33,1.87,6.28,1.87,6.97-.04,5.11,9.49,6.61,13.57,6.09,38.04-4.77,62.55-93.72,25.36-100.52-30.58-5.59-30.03,19.15-36.48,36.85-.97,1.2-.98,1.13-1.91-.01-1.36-1.65-2.15-10.43-2.36-13.29-1.31-17.93-.8-36.18-1.87-54.13-.28-4.71-2.24-37.28-3.77-38.39-46.35-5.74-90.31-22.28-128.69-49.6-1.54.98.31,2.17.95,2.95,1.98,2.44,4.63,4.45,6.63,6.9l25.17,23.07c-1.07,2.32-19.87,5.16-23.26,5.41-36.38,2.69-71.8-9.73-96.81-37.36-1.42.77.22,2.36.68,3.23,1.94,3.64,14.52,22.01,14.03,23.76-1.37,2.21-3.93,1.59-6.04,1.42-25.08-2.13-47.67-20.08-63.24-39.23-6.16,27.19-25.28,50.55-50.14,61.17l-.02.02h0Z"/>
  <path class="st14" d="M729.78,708.27c7.78,40.9,14.45,82.15,19.88,123.5,4.19,31.93,6.28,64.27,10.71,96.11,5.7,40.92,24.33,99.44-4.39,135.39-1.39,1.74-4.07,4.77-6.19,5.39,5.7-13.22,11.89-28.54,12.39-43.22.05-1.33.83-5.02-1.46-4.46-3.55,5.27-3.04,13.33-4.57,19.86-2.8,12.03-11.18,32.8-21.08,40.12-3.47,2.57-7.01,4.37-10.91,1.48,15.33-18.68,22.88-45.1,23.72-69.35-1.07.14-2.11-.56-2.93.58-.77,1.08-3.58,21.92-4.74,26.39-2.83,10.91-8.79,27.15-15.67,35.9-2.01,2.56-9.33,10.49-12.32,6.04-4.13-6.14,7.79-33.13,9.76-41.15,2.49-10.16,3.93-21.68,3.1-32.16-.33-4.13-3.11-22.6-8.06-12.32-6.02,12.5-2.3,36.94-19.44,44.77-8.71,3.98-9.17.56-8.43-7.76,1.8-20.4,7.7-51.61,14.1-70.96,7.58-22.92,9.56-19.87,4.12-45.53-10.55-49.83-23.73-99.3-33.28-149.44l-.3-40.95,55.98-18.22h.01Z"/>
  <path class="st22" d="M430.85,505.58c.19,3.6-2.58.48-4.98,4.19s-6.06,17.37-7.62,22.59c-15.5,51.85-23.4,106.73-33.62,159.91l-23.07,142.79c-2.22-15.82-4.74-31.67-5.74-47.66-4.41-70.3-.81-171.02,14.74-239.55,7.94-34.97,25.06-47.15,60.29-42.28h0Z"/>
  <path class="st22" d="M662.45,833.09l-21.17-133.94c-10.58-55.31-18.77-113.11-35.52-166.79-2.58-8.27-4.94-20.05-11.64-25.31,22.68-7.73,46.33,2.02,55.07,25.55,14.49,39.01,18.23,118.14,19.95,161.29,1.85,46.32-.2,93.32-6.7,139.21h.01Z"/>
  <path class="st10" d="M673.85,720c-1.96-60.67-4.91-121.73-18.02-180.98,31.31,15.62,46.34,50.81,59.96,81.95,10.02,22.92,18.94,46.53,27.15,70.22-.05,4.37-20.97,14.5-25.45,16.47-5.55,2.45-40.88,15.15-43.64,12.33h0Z"/>
  <path class="st14" d="M568.49,484.92c.35,6.55.45,14.35,3.95,20.01,3.16,5.1,7.27,4.14,4.8,12.18-8.45,27.56-47.55,36.54-71.86,34.68-18.76-1.44-55.65-14.36-58.16-37.14-.77-7.01,2.42-6.57,4.71-11.34,2.5-5.19,2.91-11.71,2.65-17.42,38,7.15,76.2,8.95,113.91-.98h0Z"/>
  <path class="st14" d="M560.9,1369.64c.23-.8,1.37-1.36,2.28-1.43,4.14-.28,13.96,2.57,19.09,2.89,13.82.86,29.06-.52,42.22-4.91l.96,16.73c-11.3-.46-23.72,4.49-30.22,14.42-1.88,2.87-5.48,14.41-7.42,14.99-8.47-1.46-19.75-7.17-24.09-15.11-.49-.9-2.81-6.54-2.81-6.92,0-4.39-.86-17.65,0-20.65h-.01Z"/>
  <path class="st14" d="M461.23,1368.16v21.15c0,.62-3.26,8.55-3.95,9.68-4.55,7.45-15.29,14.03-23.98,12.51-3.5-17.48-18.25-29.63-35.67-28.58v-16.72c20.67,5.39,42.69,7.14,63.6,1.97h0Z"/>
  <path class="st19" d="M373.42,1416.35c-2.39-.72-1.6-4.86,1.14-5.7s15.97-.44,19.49.05c4.09.57,21.46,6.61,20.51,11.9-1.12,6.23-11.11-1.54-14.11-2.8-1.52-.64-9.09-3.46-9.95-3.46-3.78,0-14.43.79-17.09,0h0Z"/>
  <path class="st23" d="M642.05,1427.17h15.19c1.23,0,2.38,4.13.52,5.46-1.59,1.14-6.66.15-9.05.46-4.78.61-12.01,2.55-16.32,4.73-2.86,1.44-10.59,9.62-12.55,3.46-2.16-6.79,17.43-13.09,22.21-14.1h0Z"/>
  <path class="st19" d="M633.51,1416.35c-2.04.27-8.71,2.54-10.9,3.46-2.79,1.17-11.67,8.73-13.23,3.8-2.3-7.25,18.27-12.68,23.2-13.15,3.22-.3,11.3-.55,14.2.01,4.32.84,3.76,5.87,1.93,5.87-4.64,0-10.82-.57-15.19,0h-.01Z"/>
  <path class="st18" d="M381.97,1427.17c4.77.67,22.11,7.83,20.97,13.83-1.22,6.43-8.34-1.21-10.96-2.56-2.28-1.18-6.38-3.06-8.76-3.71-4.52-1.25-14.46-.99-16.9-2.16-3.44-1.66-.63-5.4.46-5.4,4.58,0,10.92-.6,15.19,0h0Z"/>
  <path class="st7" d="M589.18,208.84c15.49-1.07,34.97,5.25,46.72,15.92,3.59,3.26,13.45,14.05,10.01,19.24-1.01,1.3-2.28,1.01-3.62.76-4.9-.92-15.27-7.05-21.81-8.94-14.35-4.14-26.36-3.84-41.1-3.72-4.28.04-13.07,2.85-15.2-3.83-4.2-13.18,15.84-18.8,25.01-19.43h-.01Z"/>
  <path class="st7" d="M423.07,208.82c9.17-.4,37.96,4.94,30.43,19.75-3.47,6.83-10.36,3.61-15.49,3.53-14.81-.24-27.76.48-42.06,4.7-3.51,1.04-18.64,7.95-19.69,7.86-3.59-.28-2.04-6.47-1.16-8.82,5.67-15.1,33.32-26.38,47.97-27.02h0Z"/>
  <path class="st24" d="M447,399.35c8.73,4.67,15.81,10.86,25.37,14.52,28.43,10.9,66.41,8.98,90.87-10.62,1.75-1.41,5.7-7.59,7.03-3.27,1.22,3.96-1.78,5.92-4.32,8.05-27.7,23.18-78.94,21.88-108.81,3.91-4.21-2.53-13.04-6.97-10.14-12.59Z"/>
  <path class="st24" d="M499.89,333.69c3.14-.55,9.35-.05,5.52,2.76-1.83,1.34-4.58.96-6.74,1.87-30.15,12.65-19.46,44.26,13.39,42.39,3-.17,14-3.6,14.66-.52.55,2.57-5.65,3.82-7.36,4.16-13.07,2.6-33.85.39-40.48-13.61-7.43-15.7,5.48-34.32,21.01-37.04h0Z"/>
  <path class="st24" d="M322.63,354.1c-10.59-2.5-10.87-19.43-4.72-27.02,2.63-3.25,8.16-5.08,8.46-5.51,1.85-2.7-9.74-20.54-16.35-19.42-1.84.31-7.42,5.73-8.26,4.74-2.91-3.42,6.82-12.04,15.52-6.73,9.11,5.56,18.37,27.44,18.2,38.23-1.03,1.34-1.88,1.43-2.86-.03-1.3-1.94-2.39-13.48-4.74-13.66-8.98,3.39-12.78,12.01-9.22,21.24.6,1.55,4.82,7.35,3.98,8.16h-.01Z"/>
  <path class="st24" d="M691.89,321.64c14.59-.71,16.61,28.16,7.01,32.35-5.3,2.31.37-6.43.63-7.22,3.34-10.39,1.53-19.03-9.51-22.17-.84.65-3.91,18.1-6.66,14.74-1.08-12.18,12.28-44.02,26.61-40.92,3.94.85,10.26,8.42,6.13,8.45-.41,0-4.76-4.35-6.87-4.75-6.98-1.31-16.91,12.75-17.34,19.52h0Z"/>
  <path class="st5" d="M351.75,683.04c-9.62,6.81-32.18,22.95-43.04,21.85-3.85-.39-3.78-4.18-5.42-3.75-31.05,18.63-78.15,51.61-111.73,22.09-21.49-18.89-29.49-59.92-34.82-87.84-7.75-40.55-10.99-81.95-14.16-123.18-9.47-11.98-22.85-29.71-22.85-46.38v-14.97c-5.87.06-10.93,4.03-17.02,4.73-16.54,1.89-31.34-11.77-33.34-28.83-5.43-1.69-25.83.12-29.02-3.17-2.22-2.29-1.57-17.72-1.04-21.41,3.42-23.61,22-40.41,43.59-44.77,3.29-.66,7.66.69,10.27-1.72,1.42-1.31,6.28-14.23,8.1-17.53,12.15-22.02,32.09-34.81,56.38-36.1,5.81-.31,11.28,1.11,16.46,1.05,8.57-.1,17.09-1.7,25.7-1.05,22.36,1.69,39.79,14.81,49.06,36.1,1.59,3.64,5.08,17.23,6.17,18.6.94,1.18,11.48,2.73,16.22,7.51,10.81,10.88,13.04,35.36,12.25,50.41-.16,3.06-1.05,6.14-1.35,9.2-7.7,3.23-16.17,1.32-24.21,1.97-2.37,20.32-18.61,32.17-37.6,29.84.61,18.76-6.46,35.37-18.17,49,4.93,44.58,18.25,87.53,36.48,127.77.68.54,13.45-8.04,14.56-9.24,2.41-2.59,4.33-7.32,7.36-10.58,17.81-19.19,76.43-63.46,99.93-71.25"/>
  <path class="st10" d="M350.87,679.51c-1.31,3.24-38.37,21.55-40.44,21.52-4.56-.05-45.19-70.75-52.42-78.72,11.29-11.85,23.5-22.9,36.02-33.28,17.02-14.11,53.97-39.5,74.07-47.78"/>
  <path class="st14" d="M170.04,425.75c-.1,8.86,1.62,17.67,2.82,26.43-9.63,4.75-15.91,14.69-17.46,25.73,1.63.34,2.28-.84,3.14-1.98,2.51-3.34,3.6-8.02,6.89-12.04,3.39-4.13,7.7-6.88,11.97-9.82-1.21-10.89-6.67-27.65-4.45-38.26,1.79-8.51,11.81-8.79,15.55-1.37,5.07,10.08,4.64,29.95,8.06,41.25,1.66-.36,1.7-1.9,1.85-3.34.58-5.46-.34-11.52-.94-16.93l7.72,10.67c1.94,2.01,9.49,6.61,10.1,7.69.96,1.68.59,10.41.35,12.92-1.4,14.67-9.05,27.79-17.8,38.71,6.76,52.49,23.72,102.82,47.2,149.28.7.52,2.67-.82,2.71-1.44.08-1.57-7.67-14.77-7.24-16.29,2.26-1.92,13.69-10.81,15.48-9.87l45.65,69.75c.5,1.91-.33,1.05-1.08,1.52-46.42,29.14-101.56,61.58-127.14-12.97-14.57-42.46-19.75-92.6-24.43-137.45-.79-7.59-1.91-38.39-4.54-42.54-1.11-1.74-4.98-3.93-6.91-6.23-10.8-12.84-17.61-37.56-13.98-54.39.56-2.58,4.48-6.57,5.73-10.37.74-2.26,1.12-8.35,1.42-8.66.13-.13,3.39-.11,3.57.06.68.65,1.34,14.19,2.15,16.57l3.4,9.44-1.82-26.08h13.72c.58,7.71,1.24,20.57,7.77,25.12,1.19-.6.09-2.69-.18-3.67-1.93-6.99-4.34-13.96-3.93-21.45h14.65Z"/>
  <path class="st20" d="M278.9,420.92h-20.13c-2.89-27.37-31.06-41.09-52.17-23.69-6.69,5.52-12.35,13.23-10.96,22.72l-2.92-6.08c-3.22-7.17-9.71-10.17-16.95-7.65-8.58,2.98-5.84,15.14-8.17,15.71l-35.99-.03c-1.96-42.65-59.54-42.5-63.05-.42l-24.76-.55v-14.97c0-1.93,2.78-11.1,3.64-13.54,7.81-22.34,28.22-30.85,49.46-31.82,6.8-24.12,23.92-44.5,47.05-51.75,21.05,1.22,45.14-1.39,65.89.99,14.25,1.63,29.26,16.24,35.08,29.61,1.76,4.03,5.15,19.39,6.06,20.64.55.77,8.6,2.86,10.83,4.02,19.18,9.97,15.89,37.85,17.08,56.82h.01Z"/>
  <path class="st4" d="M223.8,393.09c8.3-1.06,20.54,5.26,25.09,12.67,19.9,32.45-22.18,62.36-43.15,33.98-9.73-13.17-8.81-29.85,4.26-39.89,2.92-2.25,10.36-6.31,13.81-6.75h0Z"/>
  <path class="st4" d="M93.86,394.09c9.29-2.06,22.6,3.1,28.09,11.43,16.27,24.67-9.56,57.8-35.44,41.28-11.17-7.13-14.13-16.69-12.45-30.15,1.05-8.46,12.08-20.85,19.79-22.56h.01Z"/>
  <path class="st11" d="M236.82,361.03h-53.51c-.92,0-3.97-1.69-5.82-1.1-2.2-1.37-.51-34.72-1.02-39.93.91-3.47,2.8-4.12,5.87-4.43,28.08-2.86,55.31,12.89,54.49,45.46h0Z"/>
  <path class="st29" d="M170.04,360.06c-1.68.45-3.23.87-4.99,1.01-12.38,1.03-44.48,1.49-55.84-1.04-2.49-.56-1.56-2.65-.95-4.83,3.97-14.21,24.87-37.29,39.32-38.65,3.92-.37,15.76-.64,19.22.06,1,.2,3.23,1.67,3.23,2.39v41.05h.01Z"/>
  <path class="st21" d="M162.26,368.76c1.77.58,1.72,7.35,1.36,7.72-.88.9-16.02,1.45-17.27-.09-.62-.76.21-5.99-.1-7.63,4.12.83,12.55-1.13,16.01,0h0Z"/>
  <path class="st25" d="M222.86,408.51c1.59-.29,8.31.94,10.06,1.56,13.96,4.94,5.84,34.25-11.56,25.73-7.05-3.46-9.63-11.87-6.72-19.45.75-1.94,6.26-7.47,8.22-7.83h0Z"/>
  <path class="st12" d="M96.6,408.54c2.13-.67,9.35.89,11.49,1.97,10.82,5.48,6.99,28-9.78,25.78-8.59-1.14-12.87-12.32-8.95-19.91.83-1.6,5.87-7.4,7.25-7.84h-.01Z"/>
  <path class="st6" d="M180.1,321.91c.93-3.25,13.18-2.66,15.99-2.4,13.54,1.27,24.71,8.37,31.73,20.59,1.36,2.36,6.43,13.54,6.26,15.51-.05.54-2.16,1.55-2.3,1.55h-50.31c-.1,0-1.37-1.35-1.37-1.45v-33.81h0Z"/>
  <path class="st26" d="M112.41,357.16c4.28-16.39,22.38-36.54,39.03-37.31,1.58-.07,11.71.47,12.5.76s2.44,2.67,2.44,3.22v31.88c0,.1-1.28,1.45-1.37,1.45h-52.6Z"/>
  <path class="st15" d="M222.83,413.39c16.28-5.11,17.51,21.51,2.79,18.95-9.64-1.68-9.97-16.7-2.79-18.95Z"/>
  <path class="st27" d="M94.34,430.33c-.91-.91-3.06-7.37-2.96-8.88.82-11.52,22.17-12.46,18.05,4.54-1.5,6.18-10.96,8.46-15.09,4.34Z"/>
  <g>
    <path class="st13" d="M626.9,324.11c-2.23,2.79-5.33,5.12-9.28,7.02-12.34,4.88-24.39,6.75-37.1,1.29-17.48-7.51-26.7-26.03-22.79-45.14,15.57-29.42,59.9-32.23,76.12-9.49,8.96,15.91,7.75,35.31-6.97,46.31h.02,0Z"/>
    <path class="st1" d="M624.5,326.64c-1.18,1.16,3.38-.92,4.15-2.47,16.65-14.32,10.65-37,6.42-43.06-22.4-32.11-74.22-12.85-78.24,11.2,0-3.3.92-8.04,4.02-12.12,16.79-18.5,26.38-20.13,35.66-21.05,44.03,1.59,54.85,45.06,30.4,64.99l-2.4,2.51h0Z"/>
    <path class="st17" d="M617.63,331.13c2.14-2.77,6.93-4.75,9.28-7.02l.84.88h0"/>
    <path class="st16" d="M618.47,317.97c-2.74,2.28-6.85,4.77-10.12,6.14-12.71,2.81-24.9,1.9-33.42-9.63-10.23-13.87-7.36-35.54,7.55-44.53,31.07-18.75,60.74,22.46,35.99,48.02Z"/>
    <path class="st2" d="M618.47,317.97l6.33-11.4c7.4-15.89-4.6-37.33-21.18-39.37-42.66-5.22-44.16,53.26-10.03,56.89h14.76c-35.81,14.99-56.44-38.27-24.18-56.28,31.86-17.79,60.14,28.66,34.3,50.14h0v.02Z"/>
    <path class="st8" d="M604.97,282.01c-1.26,6.34-.56,8.2,5.9,7.02,2.52-.49,1.67,1.35,1.69,3.02.19,12.71-8.64,21.3-20.56,16.14-13.58-5.88-9.63-24.32,4.3-26.85,3.94-.71,5.67.35,8.66.67h.02Z"/>
    <path class="st9" d="M610.89,289.03c-4.28,6.16-12.22-2.02-5.9-7.02.26,0,1.41-.96,2.74-.73,3.53.65,5.33,4.63,3.15,7.73h0v.02Z"/>
  </g>
  <g>
    <path class="st13" d="M391.85,322.08c-14.72-11-15.92-30.4-6.97-46.31,16.22-22.73,60.55-19.93,76.12,9.49,3.91,19.11-5.31,37.62-22.79,45.14-12.71,5.45-24.77,3.59-37.1-1.29-3.94-1.9-7.04-4.24-9.28-7.02h.02Z"/>
    <path class="st1" d="M391.83,322.08c-24.45-19.91-13.63-63.38,30.4-64.99,9.28.94,18.85,2.57,35.66,21.05,3.1,4.1,4.02,8.85,4.02,12.12-4.02-24.05-55.84-43.33-78.24-11.2-4.22,6.04-10.23,28.72,6.42,43.06.77,1.55,5.33,3.63,4.15,2.47l-2.4-2.51h0Z"/>
    <path class="st17" d="M390.98,322.97h0l.84-.88c2.35,2.28,7.13,4.26,9.28,7.02"/>
    <path class="st16" d="M436.25,267.93c14.91,8.98,17.78,30.66,7.55,44.53-8.52,11.53-20.71,12.44-33.42,9.63-3.27-1.37-7.38-3.86-10.12-6.14-24.75-25.56,4.92-66.77,35.99-48.02Z"/>
    <path class="st2" d="M400.26,315.93c-25.84-21.48,2.44-67.93,34.3-50.14,32.26,18.01,11.62,71.26-24.18,56.28h14.76c34.14-3.63,32.63-62.1-10.03-56.89-16.58,2.04-28.58,23.48-21.18,39.37l6.33,11.4h0v-.02Z"/>
    <path class="st8" d="M413.78,279.99c2.99-.31,4.71-1.37,8.66-.67,13.93,2.53,17.87,20.97,4.3,26.85-11.92,5.16-20.75-3.43-20.56-16.14.02-1.67-.83-3.51,1.69-3.02,6.46,1.18,7.15-.69,5.9-7.02h.02Z"/>
    <path class="st9" d="M407.84,286.99c-2.18-3.1-.38-7.08,3.15-7.73,1.33-.24,2.48.75,2.74.73,6.33,5-1.61,13.18-5.9,7.02h0v-.02Z"/>
  </g>
</svg>