<?xml version="1.0" encoding="UTF-8"?>
<svg id="Layer_1" xmlns="http://www.w3.org/2000/svg" version="1.1" viewBox="0 0 1024 1536">
  <!-- Generator: Adobe Illustrator 29.6.1, SVG Export Plug-In . SVG Version: 2.1.1 Build 9)  -->
  <defs>
    <style>
      .st0 {
        fill: #61cce9;
      }

      .st1 {
        fill: #753c06;
      }

      .st2 {
        stroke: #120f0d;
      }

      .st2, .st3 {
        fill: #120f0d;
      }

      .st2, .st4 {
        stroke-miterlimit: 10;
      }

      .st5 {
        fill: #173412;
      }

      .st6 {
        fill: #060504;
      }

      .st7 {
        fill: #46727a;
      }

      .st8 {
        fill: #eeeeec;
      }

      .st9, .st4 {
        fill: #927010;
      }

      .st10 {
        fill: #61cde9;
      }

      .st11 {
        fill: #f9f9f9;
      }

      .st12 {
        fill: #b38365;
      }

      .st13 {
        fill: #fefefd;
      }

      .st14 {
        fill: #493e36;
      }

      .st15 {
        fill: #3a3939;
      }

      .st16 {
        fill: #3b3a39;
      }

      .st17 {
        fill: #fcfcfd;
      }

      .st4 {
        stroke: #231f20;
        stroke-width: 4px;
      }

      .st18 {
        fill: #f9f8f8;
      }

      .st19 {
        fill: #3a3938;
      }

      .st20 {
        fill: #020101;
      }

      .st21 {
        fill: #b07f5e;
      }

      .st22 {
        fill: #fefefe;
      }

      .st23 {
        fill: #fdfdfd;
      }

      .st24 {
        fill: #020203;
      }
    </style>
  </defs>
  <path class="st4" d="M718.65,319.64c17.48-90.35-13.36-263.45-103.34-295.09,0,0-30.4-8.83-40.81-10.33-23.72-3.42-72.07-2.8-95.87,0-8.96,1.05-35.12,8.37-35.12,8.37-23.98,8.63-47.45,20.7-66.46,38.34-2.96,2.75-9.96,11.92-11.95,13.19-2.36,1.51-15.56,3.73-20.3,5.52-66.99,25.39-69.42,188.74-55.96,250.8"/>
  <path class="st24" d="M676.24,786.14l-3.34-11.74c-.16,10.25-.83,20.65-1.92,30.86-1.24,11.62-5.56,28.68-5.6,39.32-.05,12.24,5.45,29.27,6.44,42.17.22,2.82.5,7.01.19,9.71-.37,3.3-10.34,4.95-10.61,5.96-.28,23.81.57,47.68.1,71.49-.05,2.32-.98,4.46-1.03,6.78-2.69,124.29-11.98,248.3-21.11,372.34-1.12,3.97-9.53,5.75-10.13,6.73-.39.64-.42,13.3-.21,15.09.58,4.76,3.02,2.79,6.29,4.31,13.26,6.17,18.59,20.67,27.57,31.43,14.61,17.5,35.07,29.22,38.58,54.4,2.3,16.52,1.97,30.1-11.41,41.17-7.73,6.4-16.22,10.44-25.73,12.24-9.12,1.73-26.36,2.53-37.15,0-17.17-4.03-29.92-10.23-42.85-21.11-6.82-5.74-13.44-11.75-19.88-17.93-14.28-13.68-28.62-27.63-21.99-49.21l.53-20.86c1-12.12,2.51-28.53,13.01-35.51l-.38-11.2c-10.64-1.34-16.31-6.36-17.01-15.07l-2.96-45.26c-3.19-105.98-9.85-211.78-17.04-317.43l.93-5.56c-.92,3.26-12.81,3-14.29,0,.22,7.85.34,15.72-.24,23.57-8.68,117.14-16.86,234.26-22.66,351.61-3.04,4.83-8.06,7.75-15.05,8.78-.17,3.39-.29,6.78-.35,10.17,9.86,7.57,11.61,22.01,12.56,34.05l.97,22.1c3.28,15.37,1.68,23.89-8.76,35.98-12.42,14.4-40.9,41.66-57.77,49.06-5.44,2.39-9.42,2.82-16.33,3.83-9.27,1.36-27.25,1.33-36.2,0-15.3-2.28-33.27-10.65-38.55-27.47-3-9.55-1.45-29.39,2.49-38.55,7.33-17.06,25.75-29.88,37.5-43.75,9.45-11.14,15.7-27.22,31-31l-.19-17.4c-.78-2.39-10.13-2.99-11.78-6.5-.52-1.1-1.19-10.73-1.41-13.25-2.6-29.62-3-60.38-4.78-90.16-4.65-77.58-10.31-155.55-12.41-233.27-1.02-37.86-.28-75.88-.91-113.75-.8-4.39-9.73-3.53-9.61-8.79l6.38-48.88-7.26-59.47"/>
  <path class="st24" d="M292.93,706.26c.42-8.04-15.13-8.29-14.33-16.5,21.04-48.77,35.09-113.62,78.71-146.41,3.16-2.38,11.62-6.46,13.38-8.29,4.46-4.63,6.23-14.84,14.53-21.81,9.81-8.23,38.28-16.88,48.96-10.21,3.83,2.39.41,7.25,7.77,4.88,9.63-3.11,9.98-18.39,8.07-27.12-21.78-6.23-42.95-16.14-60.49-30.88-22.23-18.68-36.17-46.51-44.33-74.48-20.86,11.46-52.47-2.38-56.35-45-1.97-21.64,26.77,32.64,41.39,14.15,1.44-1.82,22.99-17.31,23.25-16.93,33.68,50.46,42.24,105.87,115.8,130.31h-.01c206.71,68.68,177.34-166.81,241.47-175.21,42.53-5.57,13.77,97.71-25.01,96.68-4.91-.13-8.32-3.2-12.85-4-11.98,52.21-51.5,89.35-100.07,105.53.14,15.17,1.35,27.29,17.18,29.85-1.2-5.7,6.66-9.39,10.97-9.84,16.23-1.69,33.63,5.03,44.77,17.66,3.81,4.32,7.46,13.64,10.04,16.13,3.06,2.95,11.07,6.77,15.11,9.94,23.86,18.67,33.67,46.88,45.83,74.24,10.84,24.4,21.54,46.52,30.36,71.79.61,5.62-12.56,10-13.81,12.12-.78,1.32-.55,2.92-.48,4.38"/>
  <path class="st5" d="M544.98,1358.09c-.37-2.03-.98-4.11-1.15-6.18-6.93-84.51-7.26-170.01-12.37-254.71-2.07-34.27-7.43-70.31-8.57-104.23-.07-2.19-.49-8.93.92-9.94,1.17-.84,12.17-.83,15.3-1.86,2.76-.9,3.9-3.88,1.33-4.42-1.34-.28-9.64,1.82-12.25,1.95-10.43.52-23.86.59-34.26,0-2.63-.15-15.87-2.71-16.56-2.01-.51.51-.02,2.65.97,3.41,3.01,2.33,18.2,1.82,22.76,2.48l-10.44,123.45c-3.83,84.41-9.56,168.72-14.41,253.1-22.81,9.96-47.86,9.73-71.81,4.41-3.27-.73-18.16-4.12-19.01-6.86l-6.78-100.18c-3.79-93.55-11.19-186.81-12.39-280.27-.25-19.56-1.28-42.85,0-62.04.14-2.17.75-4.19,1.03-6.32,23.98,5.83,48,11.03,72.58,13.73,71.41,7.82,147.78,5.77,216.88-14.75-.36,24.08.5,48.24.05,72.33-.04,2.33-.98,4.48-1.03,6.8-2.58,123.64-11.68,247.23-21.08,370.6-1.49,3.8-11.23,6.21-14.95,7.13-24.5,6.1-51.48,4.19-74.77-5.64v.02h.01Z"/>
  <path class="st12" d="M345.68,208.71c-4.52,34.78-1.65,70.13-3.98,105.05-1.76.36-2.36-.85-3.05-2.24-1.84-3.74-3.11-10.77-5.05-15.43-6.46-15.51-16.83-29.1-34.32-17.93-30.72,19.63-4.58,97.93,32.46,98.62,3.28.06,10.04-1.74,11.43-5.03.74-1.75-2.23-9.74,1.85-8.81,1.44.33,7.51,24.97,9.01,29.04,30.59,82.74,119.74,106.26,197.48,90.48,54.28-11.02,93.2-40.2,112.96-94.42,1.34-3.67,6.55-23.86,7.54-24.64,4.21-3.33,1.87,6.28,1.87,6.97-.04,5.11,9.49,6.61,13.57,6.09,38.04-4.77,62.55-93.72,25.36-100.52-30.58-5.59-30.03,19.15-36.48,36.85-.97,1.2-.98,1.13-1.91-.01-1.36-1.65-2.15-10.43-2.36-13.29-1.31-17.93-.8-36.18-1.87-54.13-.28-4.71-2.24-37.28-3.77-38.39-46.35-5.74-90.31-22.28-128.69-49.6-1.54.98.31,2.17.95,2.95,1.98,2.44,4.63,4.45,6.63,6.9l25.17,23.07c-1.07,2.32-19.87,5.16-23.26,5.41-36.38,2.69-71.8-9.73-96.81-37.36-1.42.77.22,2.36.68,3.23,1.94,3.64,14.52,22.01,14.03,23.76-1.37,2.21-3.93,1.59-6.04,1.42-25.08-2.13-47.67-20.08-63.24-39.23-6.16,27.19-25.28,50.55-50.14,61.17l-.02.02h0Z"/>
  <path class="st12" d="M673.79,726.5l.14,19.67c.67-1.88,1.18-3.8,1.31-5.85.15-2.38,1.62-3.87,3.39-4.49,1.61-.99,3.94-1.18,5.31-.13,4.15,3.2,6.33,7.81,8.07,12.69l37.75-40.12h0l-55.98,18.22Z"/>
  <path class="st12" d="M560.9,1369.64c.23-.8,1.37-1.36,2.28-1.43,4.14-.28,13.96,2.57,19.09,2.89,13.82.86,29.06-.52,42.22-4.91l.96,16.73c-11.3-.46-23.72,4.49-30.22,14.42-1.88,2.87-5.48,14.41-7.42,14.99-8.47-1.46-19.75-7.17-24.09-15.11-.49-.9-2.81-6.54-2.81-6.92,0-4.39-.86-17.65,0-20.65h-.01Z"/>
  <path class="st12" d="M461.23,1368.16v21.15c0,.62-3.26,8.55-3.95,9.68-4.55,7.45-15.29,14.03-23.98,12.51-3.5-17.48-18.25-29.63-35.67-28.58v-16.72c20.67,5.39,42.69,7.14,63.6,1.97h0Z"/>
  <path class="st16" d="M373.42,1416.35c-2.39-.72-1.6-4.86,1.14-5.7s15.97-.44,19.49.05c4.09.57,21.46,6.61,20.51,11.9-1.12,6.23-11.11-1.54-14.11-2.8-1.52-.64-9.09-3.46-9.95-3.46-3.78,0-14.43.79-17.09,0h0Z"/>
  <path class="st19" d="M642.05,1427.17h15.19c1.23,0,2.38,4.13.52,5.46-1.59,1.14-6.66.15-9.05.46-4.78.61-12.01,2.55-16.32,4.73-2.86,1.44-10.59,9.62-12.55,3.46-2.16-6.79,17.43-13.09,22.21-14.1h0Z"/>
  <path class="st16" d="M633.51,1416.35c-2.04.27-8.71,2.54-10.9,3.46-2.79,1.17-11.67,8.73-13.23,3.8-2.3-7.25,18.27-12.68,23.2-13.15,3.22-.3,11.3-.55,14.2.01,4.32.84,3.76,5.87,1.93,5.87-4.64,0-10.82-.57-15.19,0h-.01Z"/>
  <path class="st15" d="M381.97,1427.17c4.77.67,22.11,7.83,20.97,13.83-1.22,6.43-8.34-1.21-10.96-2.56-2.28-1.18-6.38-3.06-8.76-3.71-4.52-1.25-14.46-.99-16.9-2.16-3.44-1.66-.63-5.4.46-5.4,4.58,0,10.92-.6,15.19,0h0Z"/>
  <path class="st9" d="M589.18,208.84c15.49-1.07,34.97,5.25,46.72,15.92,3.59,3.26,13.45,14.05,10.01,19.24-1.01,1.3-2.28,1.01-3.62.76-4.9-.92-15.27-7.05-21.81-8.94-14.35-4.14-26.36-3.84-41.1-3.72-4.28.04-13.07,2.85-15.2-3.83-4.2-13.18,15.84-18.8,25.01-19.43h-.01Z"/>
  <path class="st9" d="M423.07,208.82c9.17-.4,37.96,4.94,30.43,19.75-3.47,6.83-10.36,3.61-15.49,3.53-14.81-.24-27.76.48-42.06,4.7-3.51,1.04-18.64,7.95-19.69,7.86-3.59-.28-2.04-6.47-1.16-8.82,5.67-15.1,33.32-26.38,47.97-27.02h0Z"/>
  <path class="st20" d="M447,399.35c8.73,4.67,15.81,10.86,25.37,14.52,28.43,10.9,66.41,8.98,90.87-10.62,1.75-1.41,5.7-7.59,7.03-3.27,1.22,3.96-1.78,5.92-4.32,8.05-27.7,23.18-78.94,21.88-108.81,3.91-4.21-2.53-13.04-6.97-10.14-12.59Z"/>
  <path class="st20" d="M499.89,333.69c3.14-.55,9.35-.05,5.52,2.76-1.83,1.34-4.58.96-6.74,1.87-30.15,12.65-19.46,44.26,13.39,42.39,3-.17,14-3.6,14.66-.52.55,2.57-5.65,3.82-7.36,4.16-13.07,2.6-33.85.39-40.48-13.61-7.43-15.7,5.48-34.32,21.01-37.04h0Z"/>
  <path class="st20" d="M322.63,354.1c-10.59-2.5-10.87-19.43-4.72-27.02,2.63-3.25,8.16-5.08,8.46-5.51,1.85-2.7-9.74-20.54-16.35-19.42-1.84.31-7.42,5.73-8.26,4.74-2.91-3.42,6.82-12.04,15.52-6.73,9.11,5.56,18.37,27.44,18.2,38.23-1.03,1.34-1.88,1.43-2.86-.03-1.3-1.94-2.39-13.48-4.74-13.66-8.98,3.39-12.78,12.01-9.22,21.24.6,1.55,4.82,7.35,3.98,8.16h-.01Z"/>
  <path class="st20" d="M691.89,321.64c14.59-.71,16.61,28.16,7.01,32.35-5.3,2.31.37-6.43.63-7.22,3.34-10.39,1.53-19.03-9.51-22.17-.84.65-3.91,18.1-6.66,14.74-1.08-12.18,12.28-44.02,26.61-40.92,3.94.85,10.26,8.42,6.13,8.45-.41,0-4.76-4.35-6.87-4.75-6.98-1.31-16.91,12.75-17.34,19.52h0Z"/>
  <g>
    <path class="st11" d="M628.73,334.6c-2.29,3.04-5.46,5.58-9.5,7.66-12.64,5.33-24.99,7.36-38.02,1.41-17.91-8.19-27.36-28.39-23.36-49.23,15.95-32.09,61.38-35.15,78-10.36,9.18,17.35,7.95,38.51-7.14,50.52h.02,0Z"/>
    <path class="st2" d="M626.26,337.36c-1.21,1.26,3.46-1.01,4.25-2.7,17.07-15.62,10.91-40.35,6.58-46.96-22.95-35.03-76.06-14.01-80.17,12.22,0-3.59.94-8.77,4.12-13.22,17.2-20.18,27.03-21.95,36.54-22.96,45.12,1.73,56.2,49.15,31.15,70.88l-2.46,2.74h0Z"/>
    <path class="st14" d="M619.22,342.26c2.19-3.02,7.1-5.18,9.5-7.66l.87.96h0"/>
    <path class="st7" d="M620.09,327.9c-2.81,2.48-7.02,5.2-10.37,6.7-13.03,3.06-25.51,2.08-34.25-10.51-10.49-15.13-7.54-38.77,7.73-48.57,31.84-20.45,62.24,24.5,36.88,52.38Z"/>
    <path class="st3" d="M620.09,327.9l6.48-12.43c7.58-17.33-4.71-40.72-21.7-42.94-43.71-5.69-45.25,58.09-10.27,62.05h15.12c-36.69,16.35-57.84-41.74-24.78-61.38,32.65-19.41,61.63,31.26,35.15,54.69h0v.02Z"/>
    <path class="st6" d="M606.25,288.68c-1.29,6.91-.58,8.94,6.04,7.66,2.58-.53,1.71,1.48,1.73,3.29.19,13.86-8.85,23.24-21.07,17.61-13.91-6.42-9.87-26.53,4.41-29.29,4.04-.77,5.81.39,8.87.73h.02Z"/>
    <path class="st8" d="M612.31,296.34c-4.39,6.72-12.53-2.2-6.04-7.66.27,0,1.44-1.05,2.81-.79,3.62.71,5.46,5.05,3.23,8.43h0v.02Z"/>
  </g>
  <g>
    <path class="st11" d="M387.86,332.39c-15.08-12-16.32-33.16-7.14-50.52,16.62-24.8,62.05-21.74,78,10.36,4,20.84-5.45,41.04-23.36,49.23-13.03,5.95-25.38,3.92-38.02-1.41-4.04-2.08-7.22-4.62-9.5-7.66h.02Z"/>
    <path class="st2" d="M387.84,332.39c-25.05-21.72-13.97-69.13,31.15-70.88,9.5,1.03,19.32,2.8,36.54,22.96,3.17,4.47,4.12,9.65,4.12,13.22-4.12-26.23-57.22-47.26-80.17-12.22-4.33,6.59-10.49,31.32,6.58,46.96.79,1.69,5.46,3.96,4.25,2.7l-2.46-2.74h0Z"/>
    <path class="st14" d="M386.97,333.36h0l.87-.96c2.41,2.48,7.31,4.64,9.5,7.66"/>
    <path class="st7" d="M433.36,273.32c15.28,9.8,18.22,33.44,7.73,48.57-8.74,12.58-21.22,13.56-34.25,10.51-3.35-1.5-7.56-4.21-10.37-6.7-25.36-27.88,5.04-72.83,36.88-52.38Z"/>
    <path class="st3" d="M396.48,325.68c-26.47-23.43,2.5-74.09,35.15-54.69,33.05,19.64,11.91,77.73-24.78,61.38h15.12c34.98-3.96,33.44-67.74-10.27-62.05-16.99,2.23-29.28,25.61-21.7,42.94l6.48,12.43h0v-.02Z"/>
    <path class="st6" d="M410.33,286.48c3.06-.34,4.83-1.5,8.87-.73,14.28,2.76,18.32,22.87,4.41,29.29-12.22,5.63-21.26-3.74-21.07-17.61.02-1.82-.85-3.83,1.73-3.29,6.62,1.28,7.33-.75,6.04-7.66h.02Z"/>
    <path class="st8" d="M404.25,294.12c-2.23-3.38-.38-7.72,3.23-8.43,1.37-.26,2.54.81,2.81.79,6.48,5.46-1.65,14.38-6.04,7.66h0v-.02Z"/>
  </g>
  <rect x="443.21" y="580.79" width="213.73" height="296.68"/>
  <g>
    <path d="M428.85,510.39c-2.87,2.46-6.43-.71-9.6-1.48-13.06-3.18-37.68,1.31-47.53,11.55-2.94,3.06-4.86,6.75-7.03,10.03-3.18,4.8-18.32,11.8-24.28,17.04-23.19,20.4-39.78,53.13-55.31,78.82-7.12,11.78-17.66,25.57-23.56,37.96-.22.45-1,.5-1.06.88-.83,5.05,9.25,9.96,9.49,13.17.02.22-.92.16-1.07.67-7.03,23.29-18.28,45.89-25.05,69.73-2.39,8.4-8.45,31.42-6.24,39.47.82,2.96.37,1.76.54,4.74.15,2.54,4.69,12.54,6.44,15.25,10.46,16.18,46.97,28.97,65.06,34.92,10.74,3.54,22.97,7.29,34.35,9.54,1.4.28,1.33,1.38,3.13.18,3.43,4.55,5.32,5.84,4.51,12.18-.14,1.07-1.04.75-1.15,1.22-1.93,8.4-1.17,19.15-2.22,28.15-.15,1.3-1.12,2.1-1.13,2.86,0,.22,1.28,4.05,1.4,4.26,1.58,2.75,229.22,48.96,300.74,3.77l-220.44-394.91ZM335.19,778.64c-1.31-.22-2.46-1.28-3.12-2.57-1.17-.51-2.14-1.52-2.58-3.14-.02-.07-.03-.13-.05-.2-.7-.4-1.39-.88-1.95-1.26-2.45-1.67-4.31-3.99-4.58-7.03-.35-3.95,2.01-6.94,4.24-9.93,3.19-4.26,5.09-9.55,6.97-14.5,1.8-4.74,8.26-4.07,9.7-.57.16.31.3.65.39,1.02,2.03,8.29,1.96,17.31,2.64,25.82.62,7.82-3.22,13.8-11.66,12.36Z"/>
    <path d="M647.24,909.29c-12.05,4.29-24.34,8.05-36.84,10.78-51.02,11.16-108.92,11.32-160.8,6.09-30.46-3.07-61.36-8.71-90.17-19.21"/>
    <path d="M785.65,783.91c-1.58-4.57-1.55-7.36-1.8-12.13-9.9-31.81-23.19-63.03-35.74-94.32-.26-1.66,12.88-11.03,12.69-12.74-4.57-8.47-16.09-25.27-22.54-34.33-19.56-30.17-40.87-69.39-70.4-91.37-5.46-4.07-9.02-4.11-12.84-10.32-5.14-11.25-17.2-20.29-29.01-23.74-4.65-1.26-19.85-3.95-23.92-2.97-1.38,2.52-5.12.97-7.93,2.15-4.68,1.4-6.79,4.09-12.49,2.84-6.27-1.48-10.53-8.02-9.35-14.02,0-.38-1.09-.04-1.24-1.17l76.42,416.15c9.33-4.46,11.23-4.99,9.98-12.93-2.41-10-3.1-20.56-4.3-30.74,2.94-3.54,7.73-5.45,10.63-9.3,27.1-3.18,53.69-9.55,79.35-19.22,25.52-8.18,46.6-21.77,42.49-51.84ZM697.43,774.63c-1.69,3.99-5.24,7.15-9.74,7.25-8.69.2-16.62-9.23-18.33-17.09-2.01-9.19,5.33-15.77,5.88-24.47.15-2.38,1.62-3.87,3.39-4.49,1.61-.99,3.94-1.18,5.31-.13,7.47,5.76,8.57,16.11,12.2,24.35,2.06,4.67,3.36,9.67,1.29,14.57Z"/>
    <path class="st21" d="M747.05,680.55c7.69,19.75,16.01,39.33,22.97,59.38,10.8,31.15,25,68.55-11.97,87.22-23.36,11.8-59.18,20.58-84.99,23.36-6.38.69-5.55,2.5-9.67,5.79-18.3,14.66-36.63,13.07-56.23,1.86-4.71-2.69-16.7-10.73-17.64-16.24-.78-4.63,2.55-9.86,7.54-9.52,1.17.08,10.5,6.67,12.74,7.93,4.77,2.68,20.21,10.3,24.99,8.75.66-.21,1.22-.66,1.67-1.19.02-1.28-10.93-4.05-12.9-4.79-8.87-3.32-32.22-15.54-33.54-26.11-.48-3.88,3.52-11.56,7.3-9.85,2.12.96,6.43,5.05,8.92,6.6,9.83,6.13,25.15,12.99,36.77,12.91,1.09,0,3.66-.57,3.69-2.03.01-.68-11.39-2.07-12.95-2.44-11.75-2.78-35.11-13.14-40.66-24.63-2.51-5.2-1.27-9.48,4.27-11.35,8.66-2.93,14.86,2.94,22.12,6.39s25.28,11.44,32.54,10.73c1.33-.13,3.25-1.18,1.71-2.33-2.04-1.52-14.12-3.87-17.68-5.03-8.77-2.85-26.59-10.19-31.9-17.9-2.42-3.53-1.7-6.39.84-9.62,3.25-4.13,6.85-4.61,11.77-3.91,8.39,1.19,21.8,7.7,30.62,10.48,5.78,1.82,11.71,3.13,17.44,5.08-.05-3.72-9.11-4.81-9.56-6.19,0-4.41.18-8.92.49-13.32.06-.87-.44-1.68.84-1.44,7.73,8.72,19.01,16.85,22.83,28.37,1.23,3.72,1.14,7.18,2.7,10.61,2.65-3.18.88-7.35.93-10.96l41.91-20.72,1.67-2.06c-7.84-.34-14.49,4.86-21.54,7.56l-26.66-55.29c17.96-6.17,35.47-14.58,51.56-24.79,5.73-3.64,11.13-8.23,17.05-11.3Z"/>
    <path class="st0" d="M583.44,510.99c3.69.13,11.79-3.51,14.87-1.43,9.09,6.14,18.63,48.19,21.56,59.3,10.62,40.24,12.38,70.24,19.21,111.34-1.18.26-4.65-6.31-5.15-7.06-5.76-8.76-7.92-12.24-15.52-19.82-62.8-62.59-167.27-63.92-228.72,10.8l-9.4,16.24c4.75-35.91,10.96-71.61,20.01-106.64,4-15.49,16.99-49.56,23.72-62.96,2.56-5.09,10.82-3.31,15.86.57.49.38,1.17.35,1.23.97,3.9,40.56,44.23,48.11,78.45,45.86,28.68-1.89,61.71-13.51,63.9-47.17Z"/>
    <path class="st21" d="M295.61,758.54c3.2,2.92,8.01,4.11,11.84,6.18,5.54,2.99,11.89,6.85,17.25,10.23,4.74,2.99,9.73,5.79,13.75,9.8.31.77-3.19,8.88-3.65,10.81-3.07,12.7,1.2,35.71,6.91,47.5.42.87,3.5,5.42,3.23,5.7-20.33-5.24-40.67-11.08-60.25-18.77-31.97-12.56-49.94-26.41-42.12-65.05,6.12-30.24,19.22-58.29,30.36-86.72,5.51,2.96,10.55,7.28,15.92,10.72,10.52,6.74,23.04,13.33,34.56,18.08,6.68,2.76,13.9,4.65,20.39,7.63l-26.63,51.8c-1.26.83-6.71-3.55-8.3-4.34-3.83-1.89-9.02-3.68-13.26-3.56Z"/>
    <path class="st10" d="M664.13,859.17c.05,8.67,5.63,23.7,6.02,32.27.16,3.6-1.48,4.91-4.76,7.16-7.9,5.42-29.59,12.63-39.52,14.87-67.41,15.2-152.31,12.61-220.25.66-13.81-2.43-32.02-6.25-44.71-11.82-7.96-3.49-11.18-3.51-10.7-12.11.53-9.37,3.02-19.82,3.31-29.23,2.8,1.01,8.15,2.85,10.98,3.81,7.76,2.63,18.66,4.1,26.67,2.26,3.95-.91,6.29-2.36,10.2-3.3,25.14,24.55,58.79,39.65,94.53,43.68,46.98,5.3,93.61-8.38,127.19-40.51,8.04,2.4,15.65,2.87,24.14,1.41s7.89-3.77,16.89-9.17Z"/>
    <path class="st1" d="M665.95,763.19c-.55.44-9.3-9.56-9.52-10.3-.76-2.61-.31-10.89-.69-14.43-1.65-15.25-7.03-27.11-9.5-40.88-5.23-29.09-8.53-58.49-14.49-87.57-5.44-26.54-12.46-65.39-24.48-88.95-2.01-3.95-5.82-12.63-7.53-16.63l10.03.2c44.62-1.93,56.74,56.42,60.16,90.65,4.02,40.29,6.29,87.68,3.97,128.04-.76,13.26-4.04,27.29-7.94,39.87Z"/>
    <path class="st0" d="M343.82,710.23c-15.91-4.46-31.46-11.88-45.75-20.27-11.82-6.94-24.08-15.29-33.45-25.4-.14-1.33,4.56-9.12,5.59-10.96,10.63-18.93,23.05-39.13,34.92-57.29,14.71-22.5,32.06-47.96,56.27-60.11-6.8,22.6-10.42,46.05-13.03,69.56-3.85,34.7-5.08,69.52-4.55,104.47Z"/>
    <path class="st0" d="M677.3,713.14c.08-4.36-.1-8.75-.03-13.12.63-36.08-.57-72.78-4.58-108.74-1.94-17.37-4.36-34.93-9.57-51.58.47-.52,8.31,5.19,9.26,5.91,21.34,16.37,37.67,43.63,52.22,66.3,11.23,17.5,22.2,35.27,32.57,53.31.18,2.05-13.45,12.59-15.85,14.38-13.98,10.43-30.72,20.23-46.63,27.23-2.1.93-16.65,7.06-17.39,6.3Z"/>
    <path class="st1" d="M362.53,734.68c-2.95-1.04-6.16-1.63-9.31-1.13-2.36.38-3.35,2.31-5.42,2.87-.85-12.5-.48-25.02-.54-37.56-.23-44.24,1.13-90.1,9.78-133.68,7.03-35.43,17.03-54.63,57.67-60.59,1.26-.19,10.16-1.77,10.16-1.77,9.32.22-5.63,8.09-6.08,8.74-14.25,20.76-23.71,59.54-29.31,84.58-7.37,32.93-10.97,66.56-17.46,99.66-2.58,13.14-7.5,25.58-9.48,38.88Z"/>
    <path class="st22" d="M474.12,638.16c1.89-.37,4.01.69,5.8,1.36,6.85,2.55,15.43,7.12,22.06,10.54,7.1,3.66,13.92,7.96,21.06,11.56l.6,2.93-3.73,45.69-47.75,27.23-45.31-26.02c-.67-.56-.73-1.24-.83-2.05-.5-3.98-.21-12.1,0-16.35.27-5.22,2.73-23.73,5.68-27.35,2.44-2.99,14.83-10.73,18.78-13.32,7.68-5.04,15.64-9.69,23.63-14.2Z"/>
    <path class="st22" d="M541.03,808.76c6.9,11.78,14.48,23.21,20.46,35.54-.12,1.35-13.47,17.85-15.47,20.18-2.83,3.3-11.77,13.87-14.74,15.72-2.85,1.77-17.49,1.39-21.59,1.17-8.53-.45-18.57-2.11-27.02-3.7-2.8-.53-16.45-3.21-17.75-4.49-4.58-8.84-9.78-17.42-13.83-26.55-1.14-2.57-5.96-13.65-5.76-15.62.11-1.12,2-2.7,2.84-3.52,8.37-8.18,19.61-18.66,28.66-25.88.72-.57,1.92-1.66,2.79-1.7,11.18,1.72,22.37,3.54,33.57,5.09,9.25,1.29,18.78,1.69,27.83,3.74Z"/>
    <path class="st22" d="M609.68,731.63l-44.65,15.61h-1.18c-13.42-12.18-26.97-24.4-40.13-36.84-.73-3.52.71-6.94,1.01-10.37,1.14-12.87,1.67-25.78,1.98-38.71.72-1.23,23.31-8.48,26.51-9.46,5.37-1.63,17.19-5.85,22.24-5.04,2.48.4,8.54,5.65,10.8,7.54,9.63,8.07,18.86,17.54,26.14,27.89.7,16.4,1.44,33.38-2.71,49.38Z"/>
    <path class="st22" d="M470.73,740.05c2.78,19.26,4.97,38.67,6.67,58.06l-35.25,29.55c-7.33-2.13-14.89-4.88-21.61-8.27,1.25-5.27-2.01-10.36-6.39-12.86,8.46-10.35,3.86-23.23-10.2-20.06.44-2.1,2.22-3.36,2.87-5.49,3.47-11.42-9.07-14.92-17.62-12.55.53-5.76-3.49-18.08-1.06-22.92.4-.8,3.56-4.3,4.45-5.33,8.57-9.88,20.95-19.21,32.06-25.85l46.1,25.71Z"/>
    <path class="st21" d="M363.1,777.73c-3.83,1.2-9.52,2.75-12.49,5.52-.45.42-1.75,1.45-.83,2.06,6.7-2.58,13.74-4.07,20.56-6.26,6.22-1.99,13.29-5.44,19.4-6.87,9.7-2.27,19.28,1.71,10.81,12.26-5.56,6.92-16.88,12.93-24.98,16.28-3.9,1.61-19.68,5.79-21.27,7.28-.57.54-1.03.84-.84,1.75,1.65,1.85,14.56-2.68,17.15-3.64,11.23-4.13,20.53-11.65,30.67-15.67,11.14-4.42,19.19,1.25,11.41,12.29-4.51,6.39-19.92,15.75-27.08,19.35-3.31,1.66-21.8,8.2-22.5,9.22-.36.53.29,1.42.94,1.63,5.06,1.67,23.76-7.91,28.92-10.86,4.06-2.31,16.78-11.96,20.29-11.72,4.37.29,5.37,7.41,4.47,10.94-2.97,11.63-26.71,23.76-37.17,27.04-1.12.35-14.56,3.39-6.42,3.94,6.22.43,18.69-5.12,24.3-8.3,5.44-3.08,10.17-7.45,15.7-10.36,5.78,8.59.75,13.33-5.65,18.92-37.3,32.6-68.05-1.43-71.39-41.99-1.42-17.17,2.89-18.73,9.66-31.84,6.05-11.71-2.6-23.94,1.35-34.7,1.75-4.76,9.83-9.52,13.77-4.88-.51,12.92-1.54,25.87,1.22,38.6Z"/>
    <path class="st22" d="M634.76,766.69c-9.09-3.96-23.72-10.21-31.77-1.47-3.21,3.48-4.32,7.99-2.54,12.52.35.88,3.01,4.24,2.55,4.66-14.62-1.45-18.42,11.57-9.12,21.83-6.11,4.57-8.32,11.05-4.6,18.16.8,1.52,6.11,6.81,5.22,7.74-5.61-.13-8.43,6.04-8.51,11.06-.68.69-17.03.88-19.02.62-.79-.11-1.45-.17-2-.85l-21.95-34.86c8.43-17.94,16.81-35.91,22.7-54.96l44.64-15.6c.64-.21,1.3-.37,1.98-.27,3.84.55,23.7,29.86,22.43,31.45Z"/>
    <path class="st17" d="M553.66,899.38c-33.38,9.57-71.7,8-103.6-6.3-2.31-1.04-6.88-3.06-8.84-4.31-.71-.45-1.2-.55-.98-1.6,8.77-1.23,16.11-6.53,24.17-9.71,19.98,4.08,40.16,7.56,60.64,7.4,1.18,0,2.41-.69,3.36-.6,1.37.13,21.28,12.13,23.95,13.85.5.32,1.26.56,1.31,1.27Z"/>
    <path class="st22" d="M483.33,612.45c.58.66-3.27,7.16-3.89,8.52-1.99,4.39-3.68,8.94-5.78,13.28-15.29,8.39-30.44,17.18-44.36,27.83-1.89.83-12.38-1.58-15.45-1.89-4.18-.42-9.05-.18-13.32-.59-.26-1.01.41-1.16.84-1.75,2.71-3.63,8.4-8.58,11.93-11.62,20.45-17.67,43.84-28.28,70.02-33.77Z"/>
    <path class="st13" d="M636.46,688.69c-4.38-2.22-8.74-4.49-13.22-6.51-1.86-.84-6.27-1.84-7.51-2.77s-4.22-5.52-5.63-7.02c-11-11.76-23.06-21.13-35-31.6l-7.82-18.45c8.9,3.88,17.44,8.72,25.36,14.42,14.42,10.39,32.06,28.65,40.52,44.55.52.97,3.73,6.92,3.3,7.37Z"/>
    <path class="st23" d="M366.51,776.58c-3.27-15.79-1.38-31.95.84-47.72,1.99,1.83,3.34,4.41,5.1,6.41,2.03,2.31,10.58,9.93,11.34,11.64.82,1.84.07,5.59.3,7.84.29,2.83,2.6,13.07,1.43,14.88-.61.94-16.68,5.66-19.02,6.96Z"/>
    <path class="st18" d="M652.91,758.54l-1.14,13.97c-1.17-.65-8.75-2.5-9.05-2.94-1.37-1.98,8.85-12.45,10.19-11.03Z"/>
  </g>
  <path class="st12" d="M568.49,484.92c.35,6.55.45,14.35,3.95,20.01,3.16,5.1,7.27,4.14,4.8,12.18-8.45,27.56-47.55,36.54-71.86,34.68-18.76-1.44-55.65-14.36-58.16-37.14-.77-7.01,2.42-6.57,4.71-11.34,2.5-5.19,2.91-11.71,2.65-17.42,38,7.15,76.2,8.95,113.91-.98h0Z"/>
</svg>