<?xml version="1.0" encoding="UTF-8"?>
<svg id="Layer_1" xmlns="http://www.w3.org/2000/svg" version="1.1" viewBox="0 0 1024 1536">
  <!-- Generator: Adobe Illustrator 29.6.1, SVG Export Plug-In . SVG Version: 2.1.1 Build 9)  -->
  <defs>
    <style>
      .st0 {
        stroke: #120f0d;
        stroke-miterlimit: 10;
      }

      .st0, .st1 {
        fill: #120f0d;
      }

      .st2 {
        fill: #0260aa;
      }

      .st3, .st4, .st5, .st6, .st7, .st8, .st9 {
        display: none;
      }

      .st3, .st10 {
        fill: #46727a;
      }

      .st4, .st11 {
        fill: #020101;
      }

      .st12 {
        fill: #060504;
      }

      .st13 {
        fill: #eeeeec;
      }

      .st14 {
        fill: #66bc46;
      }

      .st15 {
        fill: #f9f9f9;
      }

      .st16 {
        fill: #b38365;
      }

      .st5 {
        fill: #010000;
      }

      .st17 {
        fill: #040303;
      }

      .st18 {
        fill: #493e36;
      }

      .st19 {
        fill: #3a3939;
      }

      .st20 {
        fill: #3b3a39;
      }

      .st6 {
        fill: #fefefe;
      }

      .st21 {
        fill: #713a0d;
      }

      .st22 {
        fill: #3a3938;
      }

      .st8 {
        fill: #faf9f9;
      }

      .st9 {
        fill: #f8f7f7;
      }

      .st23 {
        fill: #020203;
      }

      .st24 {
        fill: #040403;
      }
    </style>
  </defs>
  <path class="st23" d="M531.48,13.79c8.96,1.05,35.12,8.37,35.12,8.37,23.98,8.63,47.45,20.7,66.46,38.34,2.96,2.75,9.96,11.92,11.95,13.19,2.36,1.51,15.56,3.73,20.3,5.52,66.99,25.39,72.81,110.56,59.36,172.61-.8,3.7-6.46,22.68-6.26,23.98.06.39,4.57,2.62,6.26,4.52,25.03,27.9-2.19,102.44-40.83,101.41-4.9-.13-8.29-3.21-12.8-4.02-11.93,52.39-51.32,89.65-99.72,105.89.14,15.22,1.35,22.37,17.12,24.93-1.2-5.72,6.63-7.41,10.94-7.86,16.17-1.69,33.51,3.04,44.61,15.72,3.8,4.33,7.43,13.69,10.01,16.19,3.05,2.96,11.03,6.8,15.06,9.97,23.77,18.74,36.54,47.03,48.66,74.49,10.8,24.48,20.47,49.69,29.25,75.04.61,5.64-12.52,10.04-13.77,12.16-.78,1.33-.55,2.93-.48,4.4.66,13.96,6.85,35.6,9.23,50.49,9,56.44,13.46,113.23,21.28,169.74,5.87,42.42,25.05,103.74-7.69,139.81-5.16,5.69-8.16,4.44-11.94,7.3-3.38,2.56-4.68,7.66-10.82,10.42-8.58,3.85-10.14-1.61-12.69-1.34-3.32.34-6.66,4.51-11.1-.64-6.75-7.84,5.6-33.25,8.08-42.81,3.6-13.85,4.29-27.08,2.37-41.3-1.37-.26-1.23,1.86-1.43,2.92-2.59,13.35-5.15,32.98-17.99,40.39-24.31,14.02-12.78-22.9-11.08-34.11,2.82-18.61,4.55-31.96,10.55-50.05,3.26-9.84,7.51-13.79,6.65-25.54-1.52-20.64-12.79-52.61-17.55-74.26-5.1-23.18-8.73-46.76-14.21-69.86l-3.33-11.78c-.16,10.28-.83,20.72-1.92,30.97-1.24,11.65-5.54,28.78-5.58,39.46-.05,12.28,5.43,29.37,6.42,42.31.22,2.83.5,7.04.19,9.74-.37,3.31-10.31,4.97-10.57,5.98-.28,23.89.57,47.84.1,71.73-.05,2.33-.98,4.48-1.03,6.8-2.68,124.71-11.94,249.14-21.04,373.59-1.12,3.98-9.5,5.77-10.09,6.75-.39.64-.42,13.34-.21,15.14.58,4.77,3.01,2.8,6.27,4.33,13.22,6.19,18.53,20.74,27.47,31.53,14.56,17.56,34.95,29.32,38.44,54.59,2.29,16.57,1.96,30.2-11.37,41.31-7.7,6.42-16.16,10.48-25.64,12.28s-26.27,2.54-37.02,0c-17.11-4.04-29.82-10.26-42.7-21.18-6.8-5.76-13.39-11.79-19.81-17.99-14.23-13.73-28.52-27.73-21.91-49.37l.53-20.93c1-12.16,2.51-28.63,12.97-35.63l-.37-11.24c-10.6-1.34-16.25-6.38-16.95-15.12l-2.95-45.41c-3.18-106.33-9.81-212.5-16.99-318.5l.92-5.58c-.91,3.27-12.77,3.01-14.24,0,.22,7.88.34,15.78-.24,23.64-8.65,117.53-16.8,235.06-22.58,352.8-3.03,4.84-8.03,7.78-15,8.81-.17,3.4-.29,6.8-.35,10.2,9.82,7.59,11.57,22.08,12.52,34.17l.96,22.17c3.27,15.42,1.67,23.97-8.73,36.1-12.38,14.45-40.76,41.8-57.57,49.23-5.42,2.39-9.39,2.83-16.28,3.84-9.24,1.36-27.15,1.34-36.07,0-15.25-2.28-33.15-10.69-38.42-27.57-2.99-9.58-1.44-29.48,2.48-38.68,7.3-17.12,25.66-29.98,37.37-43.89,9.41-11.18,15.64-27.31,30.9-31.1l-.19-17.46c-.78-2.39-10.1-3-11.74-6.52-.51-1.1-1.19-10.77-1.41-13.29-2.59-29.72-2.99-60.58-4.77-90.47-4.63-77.84-10.28-156.08-12.37-234.06-1.02-37.98-.28-76.13-.91-114.14-.8-4.4-9.7-3.54-9.58-8.82l6.36-49.04-7.23-59.67-34.22,147.03c-.05,10,5.62,18.45,8.62,27.53,5.99,18.17,6.89,34.27,9.75,52.84,1.13,7.32,10.21,30.7-3.34,29.12-9.43-1.1-17.9-10.97-20.69-19.96l-6.61-27.06c-3.31,13.99-2.16,27.52,1.42,41.3,2.49,9.59,7.4,18.96,9.49,28.53,1.19,5.46,3.46,15.99-4.03,17.53-3.81.79-5.95-1.84-8.34-1.73-1.95.09-3.34,2.9-6.6,2.93-6.46.06-11.54-6.16-15.71-10.33-4.62-4.63-7.43-4.32-11.85-9.37-34.23-39.11-14.41-97.71-8.18-143.24,9.92-72.46,15.69-145.63,30.54-217.3.42-8.07-15.08-8.32-14.28-16.56,20.97-48.94,35.97-117.01,79.44-149.91,3.15-2.39,11.58-6.48,13.33-8.31,4.45-4.65,6.21-14.89,14.48-21.88,9.77-8.26,38.14-14.93,48.79-8.24,3.81,2.4.41,5.27,7.75,2.88,9.6-3.12,9.94-13.43,8.04-22.2-21.7-6.25-42.8-16.19-60.28-30.98-22.15-18.74-36.04-46.67-44.17-74.73-20.79,11.5-41.62-8.05-51.41-25.89-10.47-19.08-17.24-51.43-2.66-69.98,1.43-1.82,6.62-5.62,6.69-6.07.23-1.58-5.45-21.78-6.25-25.9-17.48-90.35,13.98-194.09,103.95-225.74,0,0,30.4-8.83,40.81-10.33,23.72-3.42,72.07-2.8,95.87,0v-.02Z"/>
  <path class="st2" d="M544.98,1358.09c-.37-2.03-.98-4.11-1.15-6.18-6.93-84.51-7.26-170.01-12.37-254.71-2.07-34.27-7.43-70.31-8.57-104.23-.07-2.19-.49-8.93.92-9.94,1.17-.84,12.17-.83,15.3-1.86,2.76-.9,3.9-3.88,1.33-4.42-1.34-.28-9.64,1.82-12.25,1.95-10.43.52-23.86.59-34.26,0-2.63-.15-15.87-2.71-16.56-2.01-.51.51-.02,2.65.97,3.41,3.01,2.33,18.2,1.82,22.76,2.48l-10.44,123.45c-3.83,84.41-9.56,168.72-14.41,253.1-22.81,9.96-47.86,9.73-71.81,4.41-3.27-.73-18.16-4.12-19.01-6.86l-6.78-100.18c-3.79-93.55-11.19-186.81-12.39-280.27-.25-19.56-1.28-42.85,0-62.04.14-2.17.75-4.19,1.03-6.32,23.98,5.83,48,11.03,72.58,13.73,71.41,7.82,147.78,5.77,216.88-14.75-.36,24.08.5,48.24.05,72.33-.04,2.33-.98,4.48-1.03,6.8-2.58,123.64-11.68,247.23-21.08,370.6-1.49,3.8-11.23,6.21-14.95,7.13-24.5,6.1-51.48,4.19-74.77-5.64v.02Z"/>
  <path class="st14" d="M443.19,510.49c-.46,20.16,18.37,33.06,34.63,39.37,30.7,11.91,83.57,7.91,100.65-25.58,1.43-2.81,3.68-12.01,4.19-12.4,1.62-1.25,11.52,1.75,12.84,3.57,1.85,2.56,6.37,20.08,7.63,24.55,32.2,113.8,44.34,236.89,64.09,353.64,1.29,8.01-13.64,10.21-19.75,11.97-67.42,19.36-159.3,19.7-228.34,8.97-8.86-1.38-57.46-10.65-60.92-16.54-1.7-2.9,3.56-36.49,4.44-42.63,8.92-62.63,19.2-125.51,30.52-187.72,7.53-41.37,15.21-84.43,26.76-124.73,1.64-5.73,6.52-25.11,8.94-28.84,1.16-1.79,13.63-4.35,14.31-3.62h0Z"/>
  <path class="st16" d="M671.77,209.71c4.52,34.78,1.65,70.13,3.98,105.05,1.76.36,2.36-.85,3.05-2.24,1.84-3.74,3.11-10.77,5.05-15.43,6.46-15.51,16.83-29.1,34.32-17.93,30.72,19.63,4.58,97.93-32.46,98.62-3.28.06-10.04-1.74-11.43-5.03-.74-1.75,2.23-9.74-1.85-8.81-1.44.33-7.51,24.97-9.01,29.04-30.59,82.74-119.74,106.26-197.48,90.48-54.28-11.02-93.2-40.2-112.96-94.42-1.34-3.67-6.55-23.86-7.54-24.64-4.21-3.33-1.87,6.28-1.87,6.97.04,5.11-9.49,6.61-13.57,6.09-38.04-4.77-61.22-88.54-25.36-100.52,23.83-7.96,30.03,19.15,36.48,36.85.97,1.2.98,1.13,1.91-.01,1.36-1.65,2.15-10.43,2.36-13.29,1.31-17.93.8-36.18,1.87-54.13.28-4.71,2.24-37.28,3.77-38.39,46.35-5.74,90.31-22.28,128.69-49.6,1.54.98-.31,2.17-.95,2.95-1.98,2.44-4.63,4.45-6.63,6.9l-25.17,23.07c1.07,2.32,19.87,5.16,23.26,5.41,36.38,2.69,71.8-9.73,96.81-37.36,1.42.77-.22,2.36-.68,3.23-1.94,3.64-14.52,22.01-14.03,23.76,1.37,2.21,3.93,1.59,6.04,1.42,25.08-2.13,47.67-20.08,63.24-39.23,6.16,27.19,25.28,50.55,50.14,61.17l.02.02Z"/>
  <path class="st16" d="M729.78,708.27c7.78,40.9,14.45,82.15,19.88,123.5,4.19,31.93,6.28,64.27,10.71,96.11,5.7,40.92,24.33,99.44-4.39,135.39-1.39,1.74-4.07,4.77-6.19,5.39,5.7-13.22,11.89-28.54,12.39-43.22.05-1.33.83-5.02-1.46-4.46-3.55,5.27-3.04,13.33-4.57,19.86-2.8,12.03-11.18,32.8-21.08,40.12-3.47,2.57-7.01,4.37-10.91,1.48,15.33-18.68,22.88-45.1,23.72-69.35-1.07.14-2.11-.56-2.93.58-.77,1.08-3.58,21.92-4.74,26.39-2.83,10.91-8.79,27.15-15.67,35.9-2.01,2.56-9.33,10.49-12.32,6.04-4.13-6.14,7.79-33.13,9.76-41.15,2.49-10.16,3.93-21.68,3.1-32.16-.33-4.13-3.11-22.6-8.06-12.32-6.02,12.5-2.3,36.94-19.44,44.77-8.71,3.98-9.17.56-8.43-7.76,1.8-20.4,7.7-51.61,14.1-70.96,7.58-22.92,9.56-19.87,4.12-45.53-10.55-49.83-23.73-99.3-33.28-149.44l-.3-40.95,55.98-18.22h.01Z"/>
  <path class="st16" d="M313.03,1082.8c-7.57,4.94-20.31-20.8-22.53-26.08-6.29-14.97-6.93-25.73-9.64-41.16-.53-3.01-3.65-3.18-3.79-1.97,1.16,24.64,9.05,50.46,24.68,69.32-9.93,3.31-16.54-6.21-21.28-13.84-9.17-14.75-13.14-30.66-14.87-48.05l-2.77-.07c-1.24,17.15,5.64,30.39,11.95,45.16.7,1.65.86,3.11-1.05,1.09-33.7-39.54-15.76-89.9-9.12-135.38,10.23-69.97,15.37-140.52,28.89-210.06.46-2.35,2.16-14.23,3.94-14.42,16.91,8.35,35,13.65,53.25,17.49,1.34,15.72-.71,31.85,1.14,47.53l-37.82,165.49c.77,11.62,7.25,21.6,10.55,32.42,3.96,13,4.64,25.94,6.73,39.25.87,5.51,6.14,27.45,5.61,30.59-1.32,7.7-14.95-3.64-17.53-7.41-7.89-11.52-5.99-25.17-10.5-36.33-2.58-6.39-4.8-4.17-6.45,1.18-3.63,11.73-2.56,28.04-.04,39.97,2.43,11.53,12.38,30.48,11.74,40.96-.09,1.48-.55,2.97-1.09,4.32h0Z"/>
  <path class="st21" d="M430.85,505.58c.19,3.6-2.58.48-4.98,4.19s-6.06,17.37-7.62,22.59c-15.5,51.85-23.4,106.73-33.62,159.91l-23.07,142.79c-2.22-15.82-4.74-31.67-5.74-47.66-4.41-70.3-.81-171.02,14.74-239.55,7.94-34.97,25.06-47.15,60.29-42.28h0Z"/>
  <path class="st21" d="M662.45,833.09l-21.17-133.94c-10.58-55.31-18.77-113.11-35.52-166.79-2.58-8.27-4.94-20.05-11.64-25.31,22.68-7.73,46.33,2.02,55.07,25.55,14.49,39.01,18.23,118.14,19.95,161.29,1.85,46.32-.2,93.32-6.7,139.21h.01Z"/>
  <path class="st14" d="M673.85,720c-1.96-60.67-4.91-121.73-18.02-180.98,31.31,15.62,46.34,50.81,59.96,81.95,10.02,22.92,18.94,46.53,27.15,70.22-.05,4.37-20.97,14.5-25.45,16.47-5.55,2.45-40.88,15.15-43.64,12.33h0Z"/>
  <path class="st14" d="M351.12,719.01c-19.29-2.13-42.45-9.35-59.15-19.87-2.29-1.45-9.02-5.46-9.15-8.12-.09-1.91,8.24-23.45,9.68-27.34,5.12-13.83,10.85-28.2,16.68-41.73,13.31-30.92,27.97-66.52,59.01-81.95-11.48,58.76-16.88,118.98-17.07,179.01Z"/>
  <path class="st16" d="M568.49,484.92c.35,6.55.45,14.35,3.95,20.01,3.16,5.1,7.27,4.14,4.8,12.18-8.45,27.56-47.55,36.54-71.86,34.68-18.76-1.44-55.65-14.36-58.16-37.14-.77-7.01,2.42-6.57,4.71-11.34,2.5-5.19,2.91-11.71,2.65-17.42,38,7.15,76.2,8.95,113.91-.98h0Z"/>
  <path class="st16" d="M560.9,1369.64c.23-.8,1.37-1.36,2.28-1.43,4.14-.28,13.96,2.57,19.09,2.89,13.82.86,29.06-.52,42.22-4.91l.96,16.73c-11.3-.46-23.72,4.49-30.22,14.42-1.88,2.87-5.48,14.41-7.42,14.99-8.47-1.46-19.75-7.17-24.09-15.11-.49-.9-2.81-6.54-2.81-6.92,0-4.39-.86-17.65,0-20.65h-.01Z"/>
  <path class="st16" d="M461.23,1368.16v21.15c0,.62-3.26,8.55-3.95,9.68-4.55,7.45-15.29,14.03-23.98,12.51-3.5-17.48-18.25-29.63-35.67-28.58v-16.72c20.67,5.39,42.69,7.14,63.6,1.97h0Z"/>
  <path class="st20" d="M373.42,1416.35c-2.39-.72-1.6-4.86,1.14-5.7s15.97-.44,19.49.05c4.09.57,21.46,6.61,20.51,11.9-1.12,6.23-11.11-1.54-14.11-2.8-1.52-.64-9.09-3.46-9.95-3.46-3.78,0-14.43.79-17.09,0h0Z"/>
  <path class="st22" d="M642.05,1427.17h15.19c1.23,0,2.38,4.13.52,5.46-1.59,1.14-6.66.15-9.05.46-4.78.61-12.01,2.55-16.32,4.73-2.86,1.44-10.59,9.62-12.55,3.46-2.16-6.79,17.43-13.09,22.21-14.1h0Z"/>
  <path class="st20" d="M633.51,1416.35c-2.04.27-8.71,2.54-10.9,3.46-2.79,1.17-11.67,8.73-13.23,3.8-2.3-7.25,18.27-12.68,23.2-13.15,3.22-.3,11.3-.55,14.2.01,4.32.84,3.76,5.87,1.93,5.87-4.64,0-10.82-.57-15.19,0h-.01Z"/>
  <path class="st19" d="M381.97,1427.17c4.77.67,22.11,7.83,20.97,13.83-1.22,6.43-8.34-1.21-10.96-2.56-2.28-1.18-6.38-3.06-8.76-3.71-4.52-1.25-14.46-.99-16.9-2.16-3.44-1.66-.63-5.4.46-5.4,4.58,0,10.92-.6,15.19,0h0Z"/>
  <path class="st24" d="M589.18,208.84c15.49-1.07,34.97,5.25,46.72,15.92,3.59,3.26,13.45,14.05,10.01,19.24-1.01,1.3-2.28,1.01-3.62.76-4.9-.92-15.27-7.05-21.81-8.94-14.35-4.14-26.36-3.84-41.1-3.72-4.28.04-13.07,2.85-15.2-3.83-4.2-13.18,15.84-18.8,25.01-19.43h-.01Z"/>
  <path class="st17" d="M423.07,208.82c9.17-.4,37.96,4.94,30.43,19.75-3.47,6.83-10.36,3.61-15.49,3.53-14.81-.24-27.76.48-42.06,4.7-3.51,1.04-18.64,7.95-19.69,7.86-3.59-.28-2.04-6.47-1.16-8.82,5.67-15.1,33.32-26.38,47.97-27.02h0Z"/>
  <path class="st4" d="M592.97,253.09c67.04-6.49,63.47,103.97-4.78,90.93-49.95-9.55-47.09-85.9,4.78-90.93Z"/>
  <path class="st4" d="M420.25,253.04c65.83-2.56,64.63,100.09-4.82,90.98-50.06-6.57-45.83-89.01,4.82-90.98h0Z"/>
  <path class="st11" d="M447,399.35c8.73,4.67,15.81,10.86,25.37,14.52,28.43,10.9,66.41,8.98,90.87-10.62,1.75-1.41,5.7-7.59,7.03-3.27,1.22,3.96-1.78,5.92-4.32,8.05-27.7,23.18-78.94,21.88-108.81,3.91-4.21-2.53-13.04-6.97-10.14-12.59Z"/>
  <path class="st11" d="M499.89,333.69c3.14-.55,9.35-.05,5.52,2.76-1.83,1.34-4.58.96-6.74,1.87-30.15,12.65-19.46,44.26,13.39,42.39,3-.17,14-3.6,14.66-.52.55,2.57-5.65,3.82-7.36,4.16-13.07,2.6-33.85.39-40.48-13.61-7.43-15.7,5.48-34.32,21.01-37.04h0Z"/>
  <path class="st11" d="M322.63,354.1c-10.59-2.5-10.87-19.43-4.72-27.02,2.63-3.25,8.16-5.08,8.46-5.51,1.85-2.7-9.74-20.54-16.35-19.42-1.84.31-7.42,5.73-8.26,4.74-2.91-3.42,6.82-12.04,15.52-6.73,9.11,5.56,18.37,27.44,18.2,38.23-1.03,1.34-1.88,1.43-2.86-.03-1.3-1.94-2.39-13.48-4.74-13.66-8.98,3.39-12.78,12.01-9.22,21.24.6,1.55,4.82,7.35,3.98,8.16h-.01Z"/>
  <path class="st11" d="M691.89,321.64c14.59-.71,16.61,28.16,7.01,32.35-5.3,2.31.37-6.43.63-7.22,3.34-10.39,1.53-19.03-9.51-22.17-.84.65-3.91,18.1-6.66,14.74-1.08-12.18,12.28-44.02,26.61-40.92,3.94.85,10.26,8.42,6.13,8.45-.41,0-4.76-4.35-6.87-4.75-6.98-1.31-16.91,12.75-17.34,19.52h0Z"/>
  <path class="st6" d="M594.9,257c50.31-2.31,59.31,77.89,7.28,83.33-57.92,6.06-61.26-80.85-7.28-83.33Z"/>
  <path class="st6" d="M394.16,328.19c-15.43-16.6-14.05-45.75,3.02-60.61,31.8-27.7,78.29,6.07,65.03,46.73-9.2,28.19-48.75,34.64-68.05,13.88h0Z"/>
  <path class="st3" d="M589.12,275.65c35.66-6.3,39.45,46.43,9.99,51.66-32.4,5.76-39.63-46.42-9.99-51.66Z"/>
  <path class="st10" d="M420.16,275.65c39.46-6.93,39.05,57.16,1.92,51.64-27.01-4.02-27.42-47.15-1.92-51.64h0Z"/>
  <path class="st7" d="M601.71,291.16c-3.73,3.61-3.92,5.94-.58,6.97,1.44-1.16,2.9-1.85,4.38-2.05,3.11,11.72-5.6,21.85-16.48,15.6-12.52-7.18-4.05-29.33,12.69-20.52h-.01Z"/>
  <path class="st9" d="M601.71,291.16c.77.41,2.06.6,2.6,1.22.87,1.02.87,2.47,1.2,3.7-4.81,10.76-14.72-3.35-3.8-4.92Z"/>
  <path class="st5" d="M433.7,291.16l-.64,2.07c-7.7,1.02.28,9.36,1.47,1.48l2.02-.59c1.56,2.32,1.24,7.14.72,10.09-1.91,10.84-16.74,12.49-21.8,2.4-6.11-12.2,7.99-22.53,18.22-15.44h.01Z"/>
  <path class="st8" d="M433.7,291.16c.17.12,2.73,2.78,2.85,2.95-1.88,14.43-16.87-1.46-2.85-2.95Z"/>
  <g>
    <g>
      <path class="st15" d="M630.5,332.91c-2.3,2.92-5.49,5.37-9.54,7.36-12.69,5.12-25.09,7.07-38.17,1.36-17.98-7.88-27.47-27.29-23.45-47.32,16.01-30.84,61.61-33.79,78.3-9.95,9.21,16.68,7.98,37.01-7.17,48.55h.02,0Z"/>
      <path class="st0" d="M628.02,335.57c-1.22,1.21,3.48-.97,4.27-2.59,17.13-15.01,10.95-38.78,6.61-45.14-23.04-33.66-76.35-13.47-80.48,11.74,0-3.45.95-8.43,4.13-12.71,17.27-19.39,27.14-21.1,36.68-22.06,45.29,1.67,56.42,47.23,31.27,68.13l-2.47,2.63h0Z"/>
      <path class="st18" d="M620.95,340.28c2.2-2.9,7.13-4.98,9.54-7.36l.87.93h0"/>
      <path class="st10" d="M621.82,326.48c-2.82,2.39-7.05,5-10.41,6.44-13.08,2.94-25.61,1.99-34.38-10.1-10.53-14.54-7.57-37.26,7.76-46.68,31.97-19.66,62.48,23.55,37.03,50.34Z"/>
      <path class="st1" d="M621.82,326.48l6.51-11.95c7.61-16.66-4.73-39.13-21.79-41.27-43.88-5.47-45.43,55.83-10.31,59.63h15.18c-36.83,15.71-58.06-40.12-24.88-59,32.78-18.65,61.86,30.04,35.29,52.56h0v.02Z"/>
      <path class="st12" d="M607.94,288.79c-1.29,6.64-.58,8.6,6.06,7.36,2.59-.51,1.72,1.42,1.74,3.17.19,13.33-8.88,22.33-21.15,16.92-13.96-6.17-9.91-25.5,4.42-28.15,4.06-.74,5.83.37,8.9.7h.02Z"/>
      <path class="st13" d="M614.02,296.15c-4.4,6.46-12.57-2.12-6.06-7.36.27,0,1.45-1.01,2.82-.76,3.63.68,5.49,4.85,3.24,8.1h0v.02Z"/>
    </g>
    <g>
      <path class="st15" d="M388.7,330.8c-15.14-11.54-16.38-31.87-7.17-48.55,16.69-23.83,62.29-20.89,78.3,9.95,4.02,20.03-5.47,39.44-23.45,47.32-13.08,5.72-25.48,3.76-38.17-1.36-4.06-1.99-7.24-4.44-9.54-7.36h.02Z"/>
      <path class="st0" d="M388.68,330.8c-25.15-20.87-14.02-66.44,31.27-68.13,9.54.99,19.39,2.69,36.68,22.06,3.19,4.3,4.13,9.27,4.13,12.71-4.13-25.21-57.44-45.42-80.48-11.74-4.35,6.33-10.53,30.1,6.61,45.14.79,1.62,5.49,3.8,4.27,2.59l-2.47-2.63h0Z"/>
      <path class="st18" d="M387.81,331.72h0l.87-.93c2.41,2.39,7.34,4.46,9.54,7.36"/>
      <path class="st10" d="M434.38,274.02c15.34,9.42,18.29,32.14,7.76,46.68-8.77,12.09-21.3,13.04-34.38,10.1-3.36-1.44-7.59-4.05-10.41-6.44-25.46-26.79,5.06-70,37.03-50.34Z"/>
      <path class="st1" d="M397.35,324.34c-26.58-22.52,2.51-71.21,35.29-52.56,33.18,18.88,11.96,74.71-24.88,59h15.18c35.11-3.8,33.57-65.1-10.31-59.63-17.05,2.14-29.4,24.61-21.79,41.27l6.51,11.95h0v-.02Z"/>
      <path class="st12" d="M411.26,286.67c3.07-.33,4.85-1.44,8.9-.7,14.33,2.65,18.39,21.98,4.42,28.15-12.26,5.41-21.34-3.6-21.15-16.92.02-1.75-.85-3.68,1.74-3.17,6.64,1.23,7.36-.72,6.06-7.36h.02Z"/>
      <path class="st13" d="M405.15,294.01c-2.24-3.25-.39-7.42,3.24-8.1,1.37-.25,2.55.78,2.82.76,6.51,5.24-1.66,13.82-6.06,7.36h0v-.02Z"/>
    </g>
  </g>
</svg>