<?xml version="1.0" encoding="UTF-8"?>
<svg id="Layer_1" xmlns="http://www.w3.org/2000/svg" version="1.1" viewBox="0 0 1024 1536">
  <!-- Generator: Adobe Illustrator 29.6.1, SVG Export Plug-In . SVG Version: 2.1.1 Build 9)  -->
  <defs>
    <style>
      .st0 {
        stroke: #120f0d;
      }

      .st0, .st1 {
        fill: #120f0d;
      }

      .st0, .st2 {
        stroke-miterlimit: 10;
      }

      .st3 {
        fill: #0260aa;
      }

      .st4 {
        fill: #252423;
      }

      .st5 {
        fill: #020202;
      }

      .st6 {
        fill: #faf5ea;
      }

      .st7 {
        fill: #060504;
      }

      .st8 {
        fill: #46727a;
      }

      .st9 {
        fill: #eeeeec;
      }

      .st10 {
        fill: #080403;
      }

      .st11 {
        fill: #66bc46;
      }

      .st12 {
        fill: #070606;
      }

      .st13 {
        fill: #f9f9f9;
      }

      .st14 {
        fill: #b38365;
      }

      .st15 {
        fill: #faf6ec;
      }

      .st16 {
        fill: #231f20;
      }

      .st17 {
        fill: #493e36;
      }

      .st18 {
        fill: #3a3939;
      }

      .st19 {
        fill: #3b3a39;
      }

      .st2 {
        stroke: #231f20;
        stroke-width: 4px;
      }

      .st20 {
        fill: #fee823;
      }

      .st21 {
        fill: #080202;
      }

      .st22 {
        fill: #713a0d;
      }

      .st23 {
        fill: #3a3938;
      }

      .st24 {
        fill: #020101;
      }

      .st25 {
        fill: #080707;
      }

      .st26 {
        fill: #fbf7eb;
      }

      .st27 {
        fill: #f9f5eb;
      }

      .st28 {
        fill: #020203;
      }

      .st29 {
        fill: #080504;
      }
    </style>
  </defs>
  <path class="st2" d="M691.55,330.44c13.46-62.06,11.03-225.41-55.96-250.8-4.74-1.79-17.94-4.01-20.3-5.52-1.99-1.27-8.99-10.44-11.95-13.19-19.01-17.64-42.48-29.71-66.46-38.34,0,0-26.16-7.32-35.12-8.37-23.8-2.8-72.15,4.58-95.87,8-34.7-1.02-94.89,29.98-115.89,49.98-51.54,49.08-36.74,157.09-19.26,247.44"/>
  <path class="st28" d="M629.52,722.8l-8.27,122.84,6.38,48.88c.12,5.26-8.81,4.4-9.61,8.79-.63,37.87.11,75.89-.91,113.75-2.1,77.72-7.76,155.69-12.41,233.27-1.78,29.78-2.18,60.54-4.78,90.16-.22,2.52-.89,12.15-1.41,13.25-1.65,3.51-11,4.11-11.78,6.5l-.19,17.4c15.3,3.78,21.55,19.86,31,31,11.75,13.87,30.17,26.69,37.5,43.75,3.94,9.16,5.49,29,2.49,38.55-5.28,16.82-23.25,25.19-38.55,27.47-8.95,1.33-26.93,1.36-36.2,0-6.91-1.01-10.89-1.44-16.33-3.83-16.87-7.4-45.35-34.66-57.77-49.06-10.44-12.09-12.04-20.61-8.76-35.98l.97-22.1c.95-12.04,2.7-26.48,12.56-34.05-.06-3.39-.18-6.78-.35-10.17-6.99-1.03-12.01-3.95-15.05-8.78-5.8-117.35-13.98-234.47-22.66-351.61-.58-7.85-.46-15.72-.24-23.57-1.48,3-13.37,3.26-14.29,0l.93,5.56c-7.19,105.65-13.85,211.45-17.04,317.43l-2.96,45.26c-.7,8.71-6.37,13.73-17.01,15.07l-.38,11.2c10.5,6.98,12.01,23.39,13.01,35.51l.53,20.86c6.63,21.58-7.71,35.53-21.99,49.21-6.44,6.18-13.06,12.19-19.88,17.93-12.93,10.88-25.68,17.08-42.85,21.11-10.79,2.53-28.03,1.73-37.15,0-9.51-1.8-18-5.84-25.73-12.24-13.38-11.07-13.71-24.65-11.41-41.17,3.51-25.18,23.97-36.9,38.58-54.4,8.98-10.76,14.31-25.26,27.57-31.43,3.27-1.52,5.71.45,6.29-4.31.21-1.79.18-14.45-.21-15.09-.6-.98-9.01-2.76-10.13-6.73-9.13-124.04-18.42-248.05-21.11-372.34-.05-2.32-.98-4.46-1.03-6.78-.47-23.81.38-47.68.1-71.49-.27-1.01-10.24-2.66-10.61-5.96-.31-2.7-.03-6.89.19-9.71.99-12.9,6.49-29.93,6.44-42.17-.04-10.64-4.36-27.7-5.6-39.32-1.09-10.21-1.76-20.61-1.92-30.86l-3.34,11.74c-5.5,23.02-8.14,46.52-13.26,69.62-4.77,21.58-16.09,53.44-17.61,74.01-.87,11.71,3.4,15.65,6.67,25.45,6.02,18.03,7.76,34.33,10.59,52.88,1.71,11.17,13.27,47.96-11.12,33.99-12.88-7.38-15.45-26.94-18.05-40.25-.21-1.06-.06-3.17-1.44-2.91-1.92,14.17-1.23,27.36,2.38,41.16,2.49,9.53,13.89,34.85,7.11,42.67-4.45,5.14-7.81.98-11.14.64-2.55-.26-4.12,5.18-12.73,1.34-6.17-2.76-7.46-7.84-10.86-10.39-3.8-2.86-6.8-1.61-11.98-7.28-32.86-35.95-11.61-100.06-5.72-142.34,7.84-56.32,12.31-110.92,21.35-167.17,2.38-14.84,8.6-36.41,9.26-50.32.07-1.46.3-3.06-.48-4.38-1.25-2.12-14.42-6.5-13.81-12.12,8.82-25.27,19.52-47.39,30.36-71.79,12.16-27.36,21.97-55.57,45.83-74.24,4.04-3.17,12.05-6.99,15.11-9.94,2.58-2.49,6.23-11.81,10.04-16.13,11.14-12.63,28.54-19.35,44.77-17.66,4.31.45,12.17,4.14,10.97,9.84,15.83-2.56,17.04-14.68,17.18-29.85-48.57-16.18-88.09-53.32-100.07-105.53-4.53.8-7.94,3.87-12.85,4-38.78,1.03-67.54-102.25-25.01-96.68,64.13,8.4,34.76,243.89,241.47,175.21h-.01c73.56-24.44,82.12-79.85,115.8-130.31.26-.38,21.81,15.11,23.25,16.93,14.62,18.49,43.36-35.79,41.39-14.15-3.88,42.62-35.49,56.46-56.35,45-8.16,27.97-22.1,55.8-44.33,74.48-17.54,14.74-38.71,24.65-60.49,30.88-1.91,8.73-1.56,24.01,8.07,27.12,7.36,2.37,3.94-2.49,7.77-4.88,10.68-6.67,39.15,1.98,48.96,10.21,8.3,6.97,10.07,17.18,14.53,21.81,1.76,1.83,10.22,5.91,13.38,8.29,43.62,32.79,57.67,97.64,78.71,146.41.8,8.21-71.06-12.98-70.64-4.94"/>
  <path class="st3" d="M435.42,1358.09v-.02c-23.29,9.83-50.27,11.74-74.77,5.64-3.72-.92-13.46-3.33-14.95-7.13-9.4-123.37-18.5-246.96-21.08-370.6-.05-2.32-.99-4.47-1.03-6.8-.45-24.09.41-48.25.05-72.33,69.1,20.52,145.47,22.57,216.88,14.75,24.58-2.7,48.6-7.9,72.58-13.73.28,2.13.89,4.15,1.03,6.32,1.28,19.19.25,42.48,0,62.04-1.2,93.46-8.6,186.72-12.39,280.27l-6.78,100.18c-.85,2.74-15.74,6.13-19.01,6.86-23.95,5.32-49,5.55-71.81-4.41-4.85-84.38-10.58-168.69-14.41-253.1l-10.44-123.45c4.56-.66,19.75-.15,22.76-2.48.99-.76,1.48-2.9.97-3.41-.69-.7-13.93,1.86-16.56,2.01-10.4.59-23.83.52-34.26,0-2.61-.13-10.91-2.23-12.25-1.95-2.57.54-1.43,3.52,1.33,4.42,3.13,1.03,14.13,1.02,15.3,1.86,1.41,1.01.99,7.75.92,9.94-1.14,33.92-6.5,69.96-8.57,104.23-5.11,84.7-5.44,170.2-12.37,254.71-.17,2.07-.78,4.15-1.15,6.18h.01Z"/>
  <path class="st11" d="M537.21,510.5h0c.68-.73,13.15,1.83,14.31,3.62,2.42,3.73,7.3,23.11,8.94,28.84,11.55,40.3,19.23,83.36,26.76,124.73,11.32,62.21,21.6,125.09,30.52,187.72.88,6.14,6.14,39.73,4.44,42.63-3.46,5.89-52.06,15.16-60.92,16.54-69.04,10.73-160.92,10.39-228.34-8.97-6.11-1.76-21.04-3.96-19.75-11.97,19.75-116.75,31.89-239.84,64.09-353.64,1.26-4.47,5.78-21.99,7.63-24.55,1.32-1.82,11.22-4.82,12.84-3.57.51.39,2.76,9.59,4.19,12.4,17.08,33.49,69.95,37.49,100.65,25.58,16.26-6.31,35.09-19.21,34.63-39.37h0Z"/>
  <path class="st14" d="M634.71,208.71l-.02-.02c-24.86-10.62-43.98-33.98-50.14-61.17-15.57,19.15-38.16,37.1-63.24,39.23-2.11.17-4.67.79-6.04-1.42-.49-1.75,12.09-20.12,14.03-23.76.46-.87,2.1-2.46.68-3.23-25.01,27.63-60.43,40.05-96.81,37.36-3.39-.25-22.19-3.09-23.26-5.41l25.17-23.07c2-2.45,4.65-4.46,6.63-6.9.64-.78,2.49-1.97.95-2.95-38.38,27.32-82.34,43.86-128.69,49.6-1.53,1.11-3.49,33.68-3.77,38.39-1.07,17.95-.56,36.2-1.87,54.13-.21,2.86-1,11.64-2.36,13.29-.93,1.14-.94,1.21-1.91.01-6.45-17.7-5.9-42.44-36.48-36.85-37.19,6.8-12.68,95.75,25.36,100.52,4.08.52,13.61-.98,13.57-6.09,0-.69-2.34-10.3,1.87-6.97.99.78,6.2,20.97,7.54,24.64,19.76,54.22,58.68,83.4,112.96,94.42,77.74,15.78,166.89-7.74,197.48-90.48,1.5-4.07,7.57-28.71,9.01-29.04,4.08-.93,1.11,7.06,1.85,8.81,1.39,3.29,8.15,5.09,11.43,5.03,37.04-.69,63.18-78.99,32.46-98.62-17.49-11.17-27.86,2.42-34.32,17.93-1.94,4.66-3.21,11.69-5.05,15.43-.69,1.39-1.29,2.6-3.05,2.24-2.33-34.92.54-70.27-3.98-105.05h0Z"/>
  <path class="st14" d="M250.61,708.28h.01l55.98,18.22-.3,40.95c-9.55,50.14-22.73,99.61-33.28,149.44-5.44,25.66-3.46,22.61,4.12,45.53,6.4,19.35,12.3,50.56,14.1,70.96.74,8.32.28,11.74-8.43,7.76-17.14-7.83-13.42-32.27-19.44-44.77-4.95-10.28-7.73,8.19-8.06,12.32-.83,10.48.61,22,3.1,32.16,1.97,8.02,13.89,35.01,9.76,41.15-2.99,4.45-10.31-3.48-12.32-6.04-6.88-8.75-12.84-24.99-15.67-35.9-1.16-4.47-3.97-25.31-4.74-26.39-.82-1.14-1.86-.44-2.93-.58.84,24.25,8.39,50.67,23.72,69.35-3.9,2.89-7.44,1.09-10.91-1.48-9.9-7.32-18.28-28.09-21.08-40.12-1.53-6.53-1.02-14.59-4.57-19.86-2.29-.56-1.51,3.13-1.46,4.46.5,14.68,6.69,30,12.39,43.22-2.12-.62-4.8-3.65-6.19-5.39-28.72-35.95-10.09-94.47-4.39-135.39,4.43-31.84,6.52-64.18,10.71-96.11,5.43-41.35,12.1-82.6,19.88-123.5h0Z"/>
  <path class="st22" d="M549.54,505.57h0c35.23-4.87,52.35,7.31,60.29,42.28,15.55,68.53,19.15,169.25,14.74,239.55-1,15.99-3.52,31.84-5.74,47.66l-23.07-142.79c-10.22-53.18-18.12-108.06-33.62-159.91-1.56-5.22-5.22-18.88-7.62-22.59s-5.17-.59-4.98-4.19h0Z"/>
  <path class="st22" d="M317.94,833.1h.01c-6.5-45.89-8.55-92.89-6.7-139.21,1.72-43.15,5.46-122.28,19.95-161.29,8.74-23.53,32.39-33.28,55.07-25.55-6.7,5.26-9.06,17.04-11.64,25.31-16.75,53.68-24.94,111.48-35.52,166.79l-21.17,133.94h0Z"/>
  <path class="st11" d="M306.54,719.99h0c-2.76,2.82-38.09-9.88-43.64-12.33-4.48-1.97-25.4-12.1-25.45-16.47,8.21-23.69,17.13-47.3,27.15-70.22,13.62-31.14,28.65-66.33,59.96-81.95-13.11,59.25-16.06,120.31-18.02,180.98h0Z"/>
  <path class="st14" d="M411.9,484.91h0c37.71,9.93,75.91,8.13,113.91.98-.26,5.71.15,12.23,2.65,17.42,2.29,4.77,5.48,4.33,4.71,11.34-2.51,22.78-39.4,35.7-58.16,37.14-24.31,1.86-63.41-7.12-71.86-34.68-2.47-8.04,1.64-7.08,4.8-12.18,3.5-5.66,3.6-13.46,3.95-20.01h0Z"/>
  <path class="st14" d="M419.49,1369.65h-.01c.86,3,0,16.26,0,20.65,0,.38-2.32,6.02-2.81,6.92-4.34,7.94-15.62,13.65-24.09,15.11-1.94-.58-5.54-12.12-7.42-14.99-6.5-9.93-18.92-14.88-30.22-14.42l.96-16.73c13.16,4.39,28.4,5.77,42.22,4.91,5.13-.32,14.95-3.17,19.09-2.89.91.07,2.05.63,2.28,1.43h0Z"/>
  <path class="st14" d="M519.16,1368.17h0c20.91,5.17,42.93,3.42,63.6-1.97v16.72c-17.42-1.05-32.17,11.1-35.67,28.58-8.69,1.52-19.43-5.06-23.98-12.51-.69-1.13-3.95-9.06-3.95-9.68v-21.15s0,.01,0,.01Z"/>
  <path class="st19" d="M606.98,1416.34h0c-2.66.79-13.31,0-17.09,0-.86,0-8.43,2.82-9.95,3.46-3,1.26-12.99,9.03-14.11,2.8-.95-5.29,16.42-11.33,20.51-11.9,3.52-.49,16.75-.89,19.49-.05s3.53,4.98,1.14,5.7h0Z"/>
  <path class="st23" d="M338.34,1427.18h0c4.78,1.01,24.37,7.31,22.21,14.1-1.96,6.16-9.69-2.02-12.55-3.46-4.31-2.18-11.54-4.12-16.32-4.73-2.39-.31-7.46.68-9.05-.46-1.86-1.33-.71-5.46.52-5.46h15.19,0Z"/>
  <path class="st19" d="M346.88,1416.34h-.01c-4.37-.57-10.55,0-15.19,0-1.83,0-2.39-5.03,1.93-5.87,2.9-.56,10.98-.31,14.2-.01,4.93.47,25.5,5.9,23.2,13.15-1.56,4.93-10.44-2.63-13.23-3.8-2.19-.92-8.86-3.19-10.9-3.46h0Z"/>
  <path class="st18" d="M598.42,1427.17h0c4.27-.6,10.61,0,15.19,0,1.09,0,3.9,3.74.46,5.4-2.44,1.17-12.38.91-16.9,2.16-2.38.65-6.48,2.53-8.76,3.71-2.62,1.35-9.74,8.99-10.96,2.56-1.14-6,16.2-13.16,20.97-13.83h0Z"/>
  <path class="st16" d="M391.21,208.84h-.01c9.17.63,29.21,6.25,25.01,19.43-2.13,6.68-10.92,3.87-15.2,3.83-14.74-.12-26.75-.42-41.1,3.72-6.54,1.89-16.91,8.02-21.81,8.94-1.34.25-2.61.54-3.62-.76-3.44-5.19,6.42-15.98,10.01-19.24,11.75-10.67,31.23-16.99,46.72-15.92h0Z"/>
  <path class="st16" d="M557.32,208.82h0c14.65.64,42.3,11.92,47.97,27.02.88,2.35,2.43,8.54-1.16,8.82-1.05.09-16.18-6.82-19.69-7.86-14.3-4.22-27.25-4.94-42.06-4.7-5.13.08-12.02,3.3-15.49-3.53-7.53-14.81,21.26-20.15,30.43-19.75h0Z"/>
  <path class="st24" d="M523.25,411.94c-29.87,17.97-81.11,19.27-108.81-3.91-2.54-2.13-5.54-4.09-4.32-8.05,1.33-4.32,5.28,1.86,7.03,3.27,24.46,19.6,62.44,21.52,90.87,10.62,9.56-3.66,16.64-9.85,25.37-14.52,2.9,5.62-5.93,10.06-10.14,12.59Z"/>
  <path class="st24" d="M480.5,333.7h0c15.53,2.72,28.44,21.34,21.01,37.04-6.63,14-27.41,16.21-40.48,13.61-1.71-.34-7.91-1.59-7.36-4.16.66-3.08,11.66.35,14.66.52,32.85,1.87,43.54-29.74,13.39-42.39-2.16-.91-4.91-.53-6.74-1.87-3.83-2.81,2.38-3.31,5.52-2.76h0Z"/>
  <path class="st24" d="M657.76,354.1h-.01c-.84-.81,3.38-6.61,3.98-8.16,3.56-9.23-.24-17.85-9.22-21.24-2.35.18-3.44,11.72-4.74,13.66-.98,1.46-1.83,1.37-2.86.03-.17-10.79,9.09-32.67,18.2-38.23,8.7-5.31,18.43,3.31,15.52,6.73-.84.99-6.42-4.43-8.26-4.74-6.61-1.12-18.2,16.72-16.35,19.42.3.43,5.83,2.26,8.46,5.51,6.15,7.59,5.87,24.52-4.72,27.02h0Z"/>
  <path class="st24" d="M288.5,321.64h0c-.43-6.77-10.36-20.83-17.34-19.52-2.11.4-6.46,4.75-6.87,4.75-4.13-.03,2.19-7.6,6.13-8.45,14.33-3.1,27.69,28.74,26.61,40.92-2.75,3.36-5.82-14.09-6.66-14.74-11.04,3.14-12.85,11.78-9.51,22.17.26.79,5.93,9.53.63,7.22-9.6-4.19-7.58-33.06,7.01-32.35h0Z"/>
  <path class="st5" d="M619.88,541.39c23.5,7.79,82.12,52.06,99.93,71.25,3.03,3.26,4.95,7.99,7.36,10.58,1.11,1.2,13.88,9.78,14.56,9.24,18.23-40.24,31.55-83.19,36.48-127.77-11.71-13.63-18.78-30.24-18.17-49-18.99,2.33-35.23-9.52-37.6-29.84-8.04-.65-16.51,1.26-24.21-1.97-.3-3.06-1.19-6.14-1.35-9.2-.79-15.05,1.44-39.53,12.25-50.41,4.74-4.78,15.28-6.33,16.22-7.51,1.09-1.37,4.58-14.96,6.17-18.6,9.27-21.29,26.7-34.41,49.06-36.1,8.61-.65,17.13.95,25.7,1.05,5.18.06,10.65-1.36,16.46-1.05,24.29,1.29,44.23,14.08,56.38,36.1,1.82,3.3,6.68,16.22,8.1,17.53,2.61,2.41,6.98,1.06,10.27,1.72,21.59,4.36,40.17,21.16,43.59,44.77.53,3.69,1.18,19.12-1.04,21.41-3.19,3.29-23.59,1.48-29.02,3.17-2,17.06-16.8,30.72-33.34,28.83-6.09-.7-11.15-4.67-17.02-4.73v14.97c0,16.67-13.38,34.4-22.85,46.38-3.17,41.23-6.41,82.63-14.16,123.18-5.33,27.92-13.33,68.95-34.82,87.84-33.58,29.52-80.68-3.46-111.73-22.09-1.64-.43-1.57,3.36-5.42,3.75-10.86,1.1-33.42-15.04-43.04-21.85"/>
  <path class="st11" d="M612.29,541.25c20.1,8.28,57.05,33.67,74.07,47.78,12.52,10.38,24.73,21.43,36.02,33.28-7.23,7.97-47.86,78.67-52.42,78.72-2.07.03-39.13-18.28-40.44-21.52"/>
  <path class="st14" d="M810.36,425.74h14.64c.41,7.49-2,14.46-3.93,21.45-.27.98-1.37,3.07-.18,3.67,6.53-4.55,7.19-17.41,7.77-25.12h13.72s-1.82,26.08-1.82,26.08l3.4-9.44c.81-2.38,1.47-15.92,2.15-16.57.18-.17,3.44-.19,3.57-.06.3.31.68,6.4,1.42,8.66,1.25,3.8,5.17,7.79,5.73,10.37,3.63,16.83-3.18,41.55-13.98,54.39-1.93,2.3-5.8,4.49-6.91,6.23-2.63,4.15-3.75,34.95-4.54,42.54-4.68,44.85-9.86,94.99-24.43,137.45-25.58,74.55-80.72,42.11-127.14,12.97-.75-.47-1.58.39-1.08-1.52l45.65-69.75c1.79-.94,13.22,7.95,15.48,9.87.43,1.52-7.32,14.72-7.24,16.29.04.62,2.01,1.96,2.71,1.44,23.48-46.46,40.44-96.79,47.2-149.28-8.75-10.92-16.4-24.04-17.8-38.71-.24-2.51-.61-11.24.35-12.92.61-1.08,8.16-5.68,10.1-7.69l7.72-10.67c-.6,5.41-1.52,11.47-.94,16.93.15,1.44.19,2.98,1.85,3.34,3.42-11.3,2.99-31.17,8.06-41.25,3.74-7.42,13.76-7.14,15.55,1.37,2.22,10.61-3.24,27.37-4.45,38.26,4.27,2.94,8.58,5.69,11.97,9.82,3.29,4.02,4.38,8.7,6.89,12.04.86,1.14,1.51,2.32,3.14,1.98-1.55-11.04-7.83-20.98-17.46-25.73,1.2-8.76,2.92-17.57,2.82-26.43h0Z"/>
  <path class="st20" d="M701.5,420.93c1.19-18.97-2.1-46.85,17.08-56.82,2.23-1.16,10.28-3.25,10.83-4.02.91-1.25,4.3-16.61,6.06-20.64,5.82-13.37,20.83-27.98,35.08-29.61,20.75-2.38,44.84.23,65.89-.99,23.13,7.25,40.25,27.63,47.05,51.75,21.24.97,41.65,9.48,49.46,31.82.86,2.44,3.64,11.61,3.64,13.54v14.97s-24.76.55-24.76.55c-3.51-42.08-61.09-42.23-63.05.42l-35.99.03c-2.33-.57.41-12.73-8.17-15.71-7.24-2.52-13.73.48-16.95,7.65l-2.92,6.08c1.39-9.49-4.27-17.2-10.96-22.72-21.11-17.4-49.28-3.68-52.17,23.69h-20.13s.01.01.01.01Z"/>
  <path class="st4" d="M756.58,393.1c3.45.44,10.89,4.5,13.81,6.75,13.07,10.04,13.99,26.72,4.26,39.89-20.97,28.38-63.05-1.53-43.15-33.98,4.55-7.41,16.79-13.73,25.09-12.67h0Z"/>
  <path class="st4" d="M886.54,394.09c7.71,1.71,18.74,14.1,19.79,22.56,1.68,13.46-1.28,23.02-12.45,30.15-25.88,16.52-51.71-16.61-35.44-41.28,5.49-8.33,18.8-13.49,28.09-11.43h.01Z"/>
  <path class="st10" d="M743.56,361.03c-.82-32.57,26.41-48.32,54.49-45.46,3.07.31,4.96.96,5.87,4.43-.51,5.21,1.18,38.56-1.02,39.93-1.85-.59-4.9,1.1-5.82,1.1h-53.51s0,0,0,0Z"/>
  <path class="st29" d="M810.36,360.05v-41.05c0-.72,2.23-2.19,3.23-2.39,3.46-.7,15.3-.43,19.22-.06,14.45,1.36,35.35,24.44,39.32,38.65.61,2.18,1.54,4.27-.95,4.83-11.36,2.53-43.46,2.07-55.84,1.04-1.76-.14-3.31-.56-4.99-1.01h.01Z"/>
  <path class="st21" d="M818.13,368.76c3.46-1.13,11.89.83,16.01,0-.31,1.64.52,6.87-.1,7.63-1.25,1.54-16.39.99-17.27.09-.36-.37-.41-7.14,1.36-7.72h0Z"/>
  <path class="st25" d="M757.53,408.52c1.96.36,7.47,5.89,8.22,7.83,2.91,7.58.33,15.99-6.72,19.45-17.4,8.52-25.52-20.79-11.56-25.73,1.75-.62,8.47-1.85,10.06-1.56h0Z"/>
  <path class="st12" d="M883.78,408.54c1.38.44,6.42,6.24,7.25,7.84,3.92,7.59-.36,18.77-8.95,19.91-16.77,2.22-20.6-20.3-9.78-25.78,2.14-1.08,9.36-2.64,11.49-1.97h-.01Z"/>
  <path class="st6" d="M800.29,321.9v33.81c0,.1-1.27,1.45-1.37,1.45h-50.31c-.14,0-2.25-1.01-2.3-1.55-.17-1.97,4.9-13.15,6.26-15.51,7.02-12.22,18.19-19.32,31.73-20.59,2.81-.26,15.06-.85,15.99,2.4h0Z"/>
  <path class="st26" d="M867.98,357.16h-52.6c-.09,0-1.37-1.35-1.37-1.45v-31.88c0-.55,1.65-2.93,2.44-3.22s10.92-.83,12.5-.76c16.65.77,34.75,20.92,39.03,37.31h0Z"/>
  <path class="st15" d="M754.77,432.34c-14.72,2.56-13.49-24.06,2.79-18.95,7.18,2.25,6.85,17.27-2.79,18.95Z"/>
  <path class="st27" d="M870.96,425.99c-4.12-17,17.23-16.06,18.05-4.54.1,1.51-2.05,7.97-2.96,8.88-4.13,4.12-13.59,1.84-15.09-4.34Z"/>
  <g>
    <g>
      <path class="st13" d="M349.1,332.93h.02c-15.15-11.54-16.38-31.87-7.17-48.55,16.69-23.84,62.29-20.89,78.3,9.95,4.02,20.03-5.47,39.44-23.45,47.32-13.08,5.71-25.48,3.76-38.17-1.36-4.05-1.99-7.24-4.44-9.54-7.36h0Z"/>
      <path class="st0" d="M351.56,335.59h0l-2.47-2.63c-25.15-20.9-14.02-66.46,31.27-68.13,9.54.96,19.41,2.67,36.68,22.06,3.18,4.28,4.13,9.26,4.13,12.71-4.13-25.21-57.44-45.4-80.48-11.74-4.34,6.36-10.52,30.13,6.61,45.14.79,1.62,5.49,3.8,4.27,2.59h-.01Z"/>
      <path class="st17" d="M348.23,333.87h0l.87-.93c2.41,2.38,7.34,4.46,9.54,7.36"/>
      <path class="st8" d="M357.77,326.5c-25.45-26.79,5.06-70,37.03-50.34,15.33,9.42,18.29,32.14,7.76,46.68-8.77,12.09-21.3,13.04-34.38,10.1-3.36-1.44-7.59-4.05-10.41-6.44h0Z"/>
      <path class="st1" d="M357.77,326.49v-.02h0c-26.57-22.52,2.51-71.21,35.29-52.56,33.18,18.88,11.95,74.71-24.88,59h15.18c35.12-3.8,33.57-65.1-10.31-59.63-17.06,2.14-29.4,24.61-21.79,41.27l6.51,11.95h0Z"/>
      <path class="st7" d="M371.66,288.81h.02c3.07-.33,4.84-1.44,8.9-.7,14.33,2.65,18.38,21.98,4.42,28.15-12.27,5.41-21.34-3.59-21.15-16.92.02-1.75-.85-3.68,1.74-3.17,6.64,1.24,7.35-.72,6.06-7.36h.01Z"/>
      <path class="st9" d="M365.57,296.15h0c-2.25-3.25-.39-7.42,3.24-8.1,1.37-.25,2.55.76,2.82.76,6.51,5.24-1.66,13.82-6.06,7.36v-.02Z"/>
    </g>
    <g>
      <path class="st13" d="M590.9,330.82h.02c-2.3,2.92-5.48,5.37-9.54,7.36-12.69,5.12-25.09,7.08-38.17,1.36-17.98-7.88-27.47-27.29-23.45-47.32,16.01-30.84,61.61-33.78,78.3-9.95,9.21,16.68,7.97,37.01-7.17,48.55h.01Z"/>
      <path class="st0" d="M590.9,330.82h0l-2.47,2.63c-1.22,1.21,3.48-.97,4.27-2.59,17.14-15.04,10.96-38.81,6.61-45.14-23.04-33.68-76.35-13.47-80.48,11.74,0-3.44.94-8.41,4.13-12.71,17.29-19.37,27.14-21.07,36.68-22.06,45.29,1.69,56.42,47.26,31.27,68.13h0Z"/>
      <path class="st17" d="M581.37,338.17c2.2-2.9,7.13-4.97,9.54-7.36l.87.93h0"/>
      <path class="st8" d="M582.24,324.38c-2.82,2.39-7.05,5-10.41,6.44-13.08,2.94-25.61,1.99-34.38-10.1-10.53-14.54-7.58-37.26,7.76-46.68,31.97-19.66,62.49,23.55,37.03,50.34Z"/>
      <path class="st1" d="M582.24,324.37v.02h0l6.51-11.95c7.61-16.66-4.74-39.13-21.79-41.27-43.88-5.47-45.42,55.83-10.31,59.63h15.18c-36.84,15.71-58.06-40.12-24.88-59,32.78-18.65,61.87,30.04,35.29,52.56h0Z"/>
      <path class="st7" d="M568.34,286.69h.02c-1.3,6.64-.58,8.59,6.06,7.36,2.59-.51,1.72,1.42,1.74,3.17.19,13.32-8.89,22.33-21.15,16.92-13.97-6.17-9.91-25.5,4.42-28.15,4.05-.74,5.83.37,8.9.7h.01Z"/>
      <path class="st9" d="M574.44,294.05h0c-4.4,6.46-12.57-2.12-6.06-7.36.27.02,1.45-1.01,2.82-.76,3.63.68,5.48,4.85,3.24,8.1v.02Z"/>
    </g>
  </g>
</svg>