<?xml version="1.0" encoding="UTF-8"?>
<svg id="Layer_1" xmlns="http://www.w3.org/2000/svg" version="1.1" viewBox="0 0 1024 1536">
  <!-- Generator: Adobe Illustrator 29.6.1, SVG Export Plug-In . SVG Version: 2.1.1 Build 9)  -->
  <defs>
    <style>
      .st0 {
        fill: #052440;
      }

      .st1 {
        stroke: #120f0d;
      }

      .st1, .st2 {
        fill: #120f0d;
      }

      .st1, .st3 {
        stroke-miterlimit: 10;
      }

      .st4, .st3 {
        fill: #502e05;
      }

      .st5 {
        fill: #060504;
      }

      .st6 {
        fill: #eeeeec;
      }

      .st7 {
        fill: #bd2025;
      }

      .st8 {
        fill: #f9f9f9;
      }

      .st9 {
        fill: #b38365;
      }

      .st10 {
        fill: #7d532f;
      }

      .st11 {
        fill: #493e36;
      }

      .st12 {
        fill: #3a3939;
      }

      .st13 {
        fill: #3b3a39;
      }

      .st3 {
        stroke: #231f20;
        stroke-width: 4px;
      }

      .st14 {
        fill: #713a0d;
      }

      .st15 {
        fill: #3a3938;
      }

      .st16 {
        fill: #020101;
      }

      .st17 {
        fill: #020203;
      }
    </style>
  </defs>
  <path class="st3" d="M718.65,319.64c17.48-90.35-13.36-263.45-103.34-295.09,0,0-30.4-8.83-40.81-10.33-23.72-3.42-72.07-2.8-95.87,0-8.96,1.05-35.12,8.37-35.12,8.37-23.98,8.63-47.45,20.7-66.46,38.34-2.96,2.75-9.96,11.92-11.95,13.19-2.36,1.51-15.56,3.73-20.3,5.52-66.99,25.39-69.42,188.74-55.96,250.8"/>
  <path class="st17" d="M469.28,457.97c206.71,68.68,177.34-166.81,241.47-175.21,42.53-5.57,13.77,97.71-25.01,96.68-4.91-.13-8.32-3.2-12.85-4-11.98,52.21-51.5,89.35-100.07,105.53.14,15.17,1.35,27.29,17.18,29.85-1.2-5.7,6.66-9.39,10.97-9.84,16.23-1.69,33.63,5.03,44.77,17.66,3.81,4.32,7.46,13.64,10.04,16.13,3.06,2.95,11.07,6.77,15.11,9.94,23.86,18.67,33.67,46.88,45.83,74.24,10.84,24.4,21.54,46.52,30.36,71.79.61,5.62-12.56,10-13.81,12.12-.78,1.32-.55,2.92-.48,4.38.66,13.91,6.88,35.48,9.26,50.32,9.04,56.25,13.51,110.85,21.35,167.17,5.89,42.28,27.14,106.39-5.72,142.34-5.18,5.67-8.18,4.42-11.98,7.28-3.4,2.55-4.69,7.63-10.86,10.39-8.61,3.84-10.18-1.6-12.73-1.34-3.33.34-6.69,4.5-11.14-.64-6.78-7.82,4.62-33.14,7.11-42.67,3.61-13.8,4.3-26.99,2.38-41.16-1.38-.26-1.23,1.85-1.44,2.91-2.6,13.31-5.17,32.87-18.05,40.25-24.39,13.97-12.83-22.82-11.12-33.99,2.83-18.55,4.57-34.85,10.59-52.88,3.27-9.8,7.54-13.74,6.67-25.45-1.52-20.57-12.84-52.43-17.61-74.01-5.12-23.1-7.76-46.6-13.26-69.62l-3.34-11.74c-.16,10.25-.83,20.65-1.92,30.86-1.24,11.62-5.56,28.68-5.6,39.32-.05,12.24,5.45,29.27,6.44,42.17.22,2.82.5,7.01.19,9.71-.37,3.3-10.34,4.95-10.61,5.96-.28,23.81.57,47.68.1,71.49-.05,2.32-.98,4.46-1.03,6.78-2.69,124.29-11.98,248.3-21.11,372.34-1.12,3.97-9.53,5.75-10.13,6.73-.39.64-.42,13.3-.21,15.09.58,4.76,3.02,2.79,6.29,4.31,13.26,6.17,18.59,20.67,27.57,31.43,14.61,17.5,35.07,29.22,38.58,54.4,2.3,16.52,1.97,30.1-11.41,41.17-7.73,6.4-16.22,10.44-25.73,12.24-9.12,1.73-26.36,2.53-37.15,0-17.17-4.03-29.92-10.23-42.85-21.11-6.82-5.74-13.44-11.75-19.88-17.93-14.28-13.68-28.62-27.63-21.99-49.21l.53-20.86c1-12.12,2.51-28.53,13.01-35.51l-.38-11.2c-10.64-1.34-16.31-6.36-17.01-15.07l-2.96-45.26c-3.19-105.98-9.85-211.78-17.04-317.43l.93-5.56c-.92,3.26-12.81,3-14.29,0,.22,7.85.34,15.72-.24,23.57-8.68,117.14-16.86,234.26-22.66,351.61-3.04,4.83-8.06,7.75-15.05,8.78-.17,3.39-.29,6.78-.35,10.17,9.86,7.57,11.61,22.01,12.56,34.05l.97,22.1c3.28,15.37,1.68,23.89-8.76,35.98-12.42,14.4-40.9,41.66-57.77,49.06-5.44,2.39-9.42,2.82-16.33,3.83-9.27,1.36-27.25,1.33-36.2,0-15.3-2.28-33.27-10.65-38.55-27.47-3-9.55-1.45-29.39,2.49-38.55,7.33-17.06,25.75-29.88,37.5-43.75,9.45-11.14,15.7-27.22,31-31l-.19-17.4c-.78-2.39-10.13-2.99-11.78-6.5-.52-1.1-1.19-10.73-1.41-13.25-2.6-29.62-3-60.38-4.78-90.16-4.65-77.58-10.31-155.55-12.41-233.27-1.02-37.86-.28-75.88-.91-113.75-.8-4.39-9.73-3.53-9.61-8.79l6.38-48.88-7.26-59.47-34.34,146.54c-.05,9.97,5.64,18.39,8.65,27.44,6.01,18.11,6.91,37.15,9.79,55.66,1.13,7.3,10.24,30.59-3.35,29.03-9.46-1.09-17.96-10.93-20.76-19.9l-6.63-29.97c-3.32,13.94-2.17,30.43,1.42,44.16,2.5,9.55,7.43,18.89,9.52,28.43,1.2,5.44,3.47,15.93-4.04,17.48-3.82.78-5.97-1.83-8.37-1.73-1.96.09-3.35,2.89-6.62,2.92-6.48.06-11.58-6.14-15.76-10.3-4.64-4.61-7.46-4.31-11.89-9.34-34.35-38.97-13.46-100.38-7.21-145.76,9.95-72.22,15.75-143.14,30.64-214.57.42-8.04-15.13-8.29-14.33-16.5,21.04-48.77,35.09-113.62,78.71-146.41,3.16-2.38,11.62-6.46,13.38-8.29,4.46-4.63,6.23-14.84,14.53-21.81,9.81-8.23,38.28-16.88,48.96-10.21,3.83,2.39.41,7.25,7.77,4.88,9.63-3.11,9.98-18.39,8.07-27.12-21.78-6.23-42.95-16.14-60.49-30.88-22.23-18.68-36.17-46.51-44.33-74.48-20.86,11.46-52.47-2.38-56.35-45-1.97-21.64,26.77,32.64,41.39,14.15,1.44-1.82,22.99-17.31,23.25-16.93,33.68,50.46,42.24,105.87,115.8,130.31h-.01Z"/>
  <path class="st0" d="M544.98,1358.09c-.37-2.03-.98-4.11-1.15-6.18-6.93-84.51-7.26-170.01-12.37-254.71-2.07-34.27-7.43-70.31-8.57-104.23-.07-2.19-.49-8.93.92-9.94,1.17-.84,12.17-.83,15.3-1.86,2.76-.9,3.9-3.88,1.33-4.42-1.34-.28-9.64,1.82-12.25,1.95-10.43.52-23.86.59-34.26,0-2.63-.15-15.87-2.71-16.56-2.01-.51.51-.02,2.65.97,3.41,3.01,2.33,18.2,1.82,22.76,2.48l-10.44,123.45c-3.83,84.41-9.56,168.72-14.41,253.1-22.81,9.96-47.86,9.73-71.81,4.41-3.27-.73-18.16-4.12-19.01-6.86l-6.78-100.18c-3.79-93.55-11.19-186.81-12.39-280.27-.25-19.56-1.28-42.85,0-62.04.14-2.17.75-4.19,1.03-6.32,23.98,5.83,48,11.03,72.58,13.73,71.41,7.82,147.78,5.77,216.88-14.75-.36,24.08.5,48.24.05,72.33-.04,2.33-.98,4.48-1.03,6.8-2.58,123.64-11.68,247.23-21.08,370.6-1.49,3.8-11.23,6.21-14.95,7.13-24.5,6.1-51.48,4.19-74.77-5.64v.02Z"/>
  <path class="st7" d="M443.19,510.49c-.46,20.16,18.37,33.06,34.63,39.37,30.7,11.91,83.57,7.91,100.65-25.58,1.43-2.81,3.68-12.01,4.19-12.4,1.62-1.25,11.52,1.75,12.84,3.57,1.85,2.56,6.37,20.08,7.63,24.55,32.2,113.8,44.34,236.89,64.09,353.64,1.29,8.01-13.64,10.21-19.75,11.97-67.42,19.36-159.3,19.7-228.34,8.97-8.86-1.38-57.46-10.65-60.92-16.54-1.7-2.9,3.56-36.49,4.44-42.63,8.92-62.63,19.2-125.51,30.52-187.72,7.53-41.37,15.21-84.43,26.76-124.73,1.64-5.73,6.52-25.11,8.94-28.84,1.16-1.79,13.63-4.35,14.31-3.62h0Z"/>
  <path class="st9" d="M345.68,208.71c-4.52,34.78-1.65,70.13-3.98,105.05-1.76.36-2.36-.85-3.05-2.24-1.84-3.74-3.11-10.77-5.05-15.43-6.46-15.51-16.83-29.1-34.32-17.93-30.72,19.63-4.58,97.93,32.46,98.62,3.28.06,10.04-1.74,11.43-5.03.74-1.75-2.23-9.74,1.85-8.81,1.44.33,7.51,24.97,9.01,29.04,30.59,82.74,119.74,106.26,197.48,90.48,54.28-11.02,93.2-40.2,112.96-94.42,1.34-3.67,6.55-23.86,7.54-24.64,4.21-3.33,1.87,6.28,1.87,6.97-.04,5.11,9.49,6.61,13.57,6.09,38.04-4.77,62.55-93.72,25.36-100.52-30.58-5.59-30.03,19.15-36.48,36.85-.97,1.2-.98,1.13-1.91-.01-1.36-1.65-2.15-10.43-2.36-13.29-1.31-17.93-.8-36.18-1.87-54.13-.28-4.71-2.24-37.28-3.77-38.39-46.35-5.74-90.31-22.28-128.69-49.6-1.54.98.31,2.17.95,2.95,1.98,2.44,4.63,4.45,6.63,6.9l25.17,23.07c-1.07,2.32-19.87,5.16-23.26,5.41-36.38,2.69-71.8-9.73-96.81-37.36-1.42.77.22,2.36.68,3.23,1.94,3.64,14.52,22.01,14.03,23.76-1.37,2.21-3.93,1.59-6.04,1.42-25.08-2.13-47.67-20.08-63.24-39.23-6.16,27.19-25.28,50.55-50.14,61.17l-.02.02Z"/>
  <path class="st9" d="M729.78,708.27c7.78,40.9,14.45,82.15,19.88,123.5,4.19,31.93,6.28,64.27,10.71,96.11,5.7,40.92,24.33,99.44-4.39,135.39-1.39,1.74-4.07,4.77-6.19,5.39,5.7-13.22,11.89-28.54,12.39-43.22.05-1.33.83-5.02-1.46-4.46-3.55,5.27-3.04,13.33-4.57,19.86-2.8,12.03-11.18,32.8-21.08,40.12-3.47,2.57-7.01,4.37-10.91,1.48,15.33-18.68,22.88-45.1,23.72-69.35-1.07.14-2.11-.56-2.93.58-.77,1.08-3.58,21.92-4.74,26.39-2.83,10.91-8.79,27.15-15.67,35.9-2.01,2.56-9.33,10.49-12.32,6.04-4.13-6.14,7.79-33.13,9.76-41.15,2.49-10.16,3.93-21.68,3.1-32.16-.33-4.13-3.11-22.6-8.06-12.32-6.02,12.5-2.3,36.94-19.44,44.77-8.71,3.98-9.17.56-8.43-7.76,1.8-20.4,7.7-51.61,14.1-70.96,7.58-22.92,9.56-19.87,4.12-45.53-10.55-49.83-23.73-99.3-33.28-149.44l-.3-40.95,55.98-18.22h.01Z"/>
  <path class="st9" d="M313.03,1082.8c-7.57,4.94-20.31-20.8-22.53-26.08-6.29-14.97-6.93-25.73-9.64-41.16-.53-3.01-3.65-3.18-3.79-1.97,1.16,24.64,9.05,50.46,24.68,69.32-9.93,3.31-16.54-6.21-21.28-13.84-9.17-14.75-13.14-30.66-14.87-48.05l-2.77-.07c-1.24,17.15,5.64,30.39,11.95,45.16.7,1.65.86,3.11-1.05,1.09-33.7-39.54-15.76-89.9-9.12-135.38,10.23-69.97,15.37-140.52,28.89-210.06.46-2.35,2.16-14.23,3.94-14.42,16.91,8.35,35,13.65,53.25,17.49,1.34,15.72-.71,31.85,1.14,47.53l-37.82,165.49c.77,11.62,7.25,21.6,10.55,32.42,3.96,13,4.64,25.94,6.73,39.25.87,5.51,6.14,27.45,5.61,30.59-1.32,7.7-14.95-3.64-17.53-7.41-7.89-11.52-5.99-25.17-10.5-36.33-2.58-6.39-4.8-4.17-6.45,1.18-3.63,11.73-2.56,28.04-.04,39.97,2.43,11.53,12.38,30.48,11.74,40.96-.09,1.48-.55,2.97-1.09,4.32h0Z"/>
  <path class="st14" d="M430.85,505.58c.19,3.6-2.58.48-4.98,4.19s-6.06,17.37-7.62,22.59c-15.5,51.85-23.4,106.73-33.62,159.91l-23.07,142.79c-2.22-15.82-4.74-31.67-5.74-47.66-4.41-70.3-.81-171.02,14.74-239.55,7.94-34.97,25.06-47.15,60.29-42.28h0Z"/>
  <path class="st14" d="M662.45,833.09l-21.17-133.94c-10.58-55.31-18.77-113.11-35.52-166.79-2.58-8.27-4.94-20.05-11.64-25.31,22.68-7.73,46.33,2.02,55.07,25.55,14.49,39.01,18.23,118.14,19.95,161.29,1.85,46.32-.2,93.32-6.7,139.21h.01Z"/>
  <path class="st7" d="M673.85,720c-1.96-60.67-4.91-121.73-18.02-180.98,31.31,15.62,46.34,50.81,59.96,81.95,10.02,22.92,18.94,46.53,27.15,70.22-.05,4.37-20.97,14.5-25.45,16.47-5.55,2.45-40.88,15.15-43.64,12.33h0Z"/>
  <path class="st7" d="M351.12,719.01c-19.29-2.13-42.45-9.35-59.15-19.87-2.29-1.45-9.02-5.46-9.15-8.12-.09-1.91,8.24-23.45,9.68-27.34,5.12-13.83,10.85-28.2,16.68-41.73,13.31-30.92,27.97-66.52,59.01-81.95-11.48,58.76-16.88,118.98-17.07,179.01Z"/>
  <path class="st9" d="M568.49,484.92c.35,6.55.45,14.35,3.95,20.01,3.16,5.1,7.27,4.14,4.8,12.18-8.45,27.56-47.55,36.54-71.86,34.68-18.76-1.44-55.65-14.36-58.16-37.14-.77-7.01,2.42-6.57,4.71-11.34,2.5-5.19,2.91-11.71,2.65-17.42,38,7.15,76.2,8.95,113.91-.98h0Z"/>
  <path class="st9" d="M560.9,1369.64c.23-.8,1.37-1.36,2.28-1.43,4.14-.28,13.96,2.57,19.09,2.89,13.82.86,29.06-.52,42.22-4.91l.96,16.73c-11.3-.46-23.72,4.49-30.22,14.42-1.88,2.87-5.48,14.41-7.42,14.99-8.47-1.46-19.75-7.17-24.09-15.11-.49-.9-2.81-6.54-2.81-6.92,0-4.39-.86-17.65,0-20.65h-.01Z"/>
  <path class="st9" d="M461.23,1368.16v21.15c0,.62-3.26,8.55-3.95,9.68-4.55,7.45-15.29,14.03-23.98,12.51-3.5-17.48-18.25-29.63-35.67-28.58v-16.72c20.67,5.39,42.69,7.14,63.6,1.97h0Z"/>
  <path class="st13" d="M373.42,1416.35c-2.39-.72-1.6-4.86,1.14-5.7s15.97-.44,19.49.05c4.09.57,21.46,6.61,20.51,11.9-1.12,6.23-11.11-1.54-14.11-2.8-1.52-.64-9.09-3.46-9.95-3.46-3.78,0-14.43.79-17.09,0h0Z"/>
  <path class="st15" d="M642.05,1427.17h15.19c1.23,0,2.38,4.13.52,5.46-1.59,1.14-6.66.15-9.05.46-4.78.61-12.01,2.55-16.32,4.73-2.86,1.44-10.59,9.62-12.55,3.46-2.16-6.79,17.43-13.09,22.21-14.1h0Z"/>
  <path class="st13" d="M633.51,1416.35c-2.04.27-8.71,2.54-10.9,3.46-2.79,1.17-11.67,8.73-13.23,3.8-2.3-7.25,18.27-12.68,23.2-13.15,3.22-.3,11.3-.55,14.2.01,4.32.84,3.76,5.87,1.93,5.87-4.64,0-10.82-.57-15.19,0h-.01Z"/>
  <path class="st12" d="M381.97,1427.17c4.77.67,22.11,7.83,20.97,13.83-1.22,6.43-8.34-1.21-10.96-2.56-2.28-1.18-6.38-3.06-8.76-3.71-4.52-1.25-14.46-.99-16.9-2.16-3.44-1.66-.63-5.4.46-5.4,4.58,0,10.92-.6,15.19,0h0Z"/>
  <path class="st4" d="M589.18,208.84c15.49-1.07,34.97,5.25,46.72,15.92,3.59,3.26,13.45,14.05,10.01,19.24-1.01,1.3-2.28,1.01-3.62.76-4.9-.92-15.27-7.05-21.81-8.94-14.35-4.14-26.36-3.84-41.1-3.72-4.28.04-13.07,2.85-15.2-3.83-4.2-13.18,15.84-18.8,25.01-19.43h-.01Z"/>
  <path class="st4" d="M423.07,208.82c9.17-.4,37.96,4.94,30.43,19.75-3.47,6.83-10.36,3.61-15.49,3.53-14.81-.24-27.76.48-42.06,4.7-3.51,1.04-18.64,7.95-19.69,7.86-3.59-.28-2.04-6.47-1.16-8.82,5.67-15.1,33.32-26.38,47.97-27.02h0Z"/>
  <path class="st16" d="M447,399.35c8.73,4.67,15.81,10.86,25.37,14.52,28.43,10.9,66.41,8.98,90.87-10.62,1.75-1.41,5.7-7.59,7.03-3.27,1.22,3.96-1.78,5.92-4.32,8.05-27.7,23.18-78.94,21.88-108.81,3.91-4.21-2.53-13.04-6.97-10.14-12.59Z"/>
  <path class="st16" d="M499.89,333.69c3.14-.55,9.35-.05,5.52,2.76-1.83,1.34-4.58.96-6.74,1.87-30.15,12.65-19.46,44.26,13.39,42.39,3-.17,14-3.6,14.66-.52.55,2.57-5.65,3.82-7.36,4.16-13.07,2.6-33.85.39-40.48-13.61-7.43-15.7,5.48-34.32,21.01-37.04h0Z"/>
  <path class="st16" d="M322.63,354.1c-10.59-2.5-10.87-19.43-4.72-27.02,2.63-3.25,8.16-5.08,8.46-5.51,1.85-2.7-9.74-20.54-16.35-19.42-1.84.31-7.42,5.73-8.26,4.74-2.91-3.42,6.82-12.04,15.52-6.73,9.11,5.56,18.37,27.44,18.2,38.23-1.03,1.34-1.88,1.43-2.86-.03-1.3-1.94-2.39-13.48-4.74-13.66-8.98,3.39-12.78,12.01-9.22,21.24.6,1.55,4.82,7.35,3.98,8.16h-.01Z"/>
  <path class="st16" d="M691.89,321.64c14.59-.71,16.61,28.16,7.01,32.35-5.3,2.31.37-6.43.63-7.22,3.34-10.39,1.53-19.03-9.51-22.17-.84.65-3.91,18.1-6.66,14.74-1.08-12.18,12.28-44.02,26.61-40.92,3.94.85,10.26,8.42,6.13,8.45-.41,0-4.76-4.35-6.87-4.75-6.98-1.31-16.91,12.75-17.34,19.52h0Z"/>
  <g>
    <path class="st8" d="M622.74,325.8c-2.18,2.64-5.19,4.86-9.03,6.67-12.01,4.64-23.75,6.4-36.13,1.23-17.03-7.13-26-24.71-22.2-42.84,15.16-27.93,58.34-30.59,74.13-9.01,8.72,15.1,7.55,33.51-6.78,43.96h.02,0Z"/>
    <path class="st1" d="M620.4,328.2c-1.15,1.1,3.29-.88,4.04-2.35,16.22-13.59,10.37-35.11,6.25-40.87-21.82-30.48-72.29-12.19-76.2,10.63,0-3.13.9-7.63,3.91-11.51,16.35-17.56,25.69-19.1,34.73-19.98,42.88,1.51,53.42,42.77,29.61,61.68l-2.34,2.38h0Z"/>
    <path class="st11" d="M613.71,332.46c2.08-2.63,6.75-4.51,9.03-6.67l.82.84h0"/>
    <path class="st10" d="M614.53,319.97c-2.67,2.16-6.67,4.52-9.86,5.83-12.38,2.66-24.25,1.81-32.55-9.14-9.97-13.16-7.17-33.74,7.35-42.26,30.26-17.8,59.16,21.32,35.06,45.58Z"/>
    <path class="st2" d="M614.53,319.97l6.16-10.82c7.2-15.08-4.48-35.43-20.63-37.37-41.55-4.95-43.01,50.55-9.77,53.99h14.37c-34.87,14.22-54.97-36.32-23.55-53.42,31.03-16.89,58.57,27.2,33.41,47.59h0v.02Z"/>
    <path class="st5" d="M601.38,285.84c-1.23,6.01-.55,7.78,5.74,6.67,2.45-.47,1.63,1.28,1.65,2.87.18,12.06-8.41,20.22-20.02,15.32-13.22-5.59-9.38-23.09,4.19-25.49,3.84-.67,5.52.34,8.43.63h.02Z"/>
    <path class="st6" d="M607.14,292.51c-4.17,5.85-11.9-1.92-5.74-6.67.26,0,1.37-.91,2.67-.69,3.44.61,5.19,4.39,3.07,7.34h0v.02Z"/>
  </g>
  <g>
    <path class="st8" d="M393.81,323.88c-14.34-10.44-15.51-28.86-6.78-43.96,15.8-21.58,58.97-18.92,74.13,9.01,3.8,18.13-5.18,35.71-22.2,42.84-12.38,5.18-24.12,3.41-36.13-1.23-3.84-1.81-6.86-4.02-9.03-6.67h.02Z"/>
    <path class="st1" d="M393.79,323.88c-23.81-18.9-13.28-60.16,29.61-61.68,9.03.89,18.36,2.44,34.73,19.98,3.02,3.89,3.91,8.4,3.91,11.51-3.91-22.83-54.38-41.13-76.2-10.63-4.11,5.73-9.97,27.26,6.25,40.87.75,1.47,5.19,3.44,4.04,2.35l-2.34-2.38h0Z"/>
    <path class="st11" d="M392.97,324.72h0l.82-.84c2.29,2.16,6.95,4.04,9.03,6.67"/>
    <path class="st10" d="M437.06,272.47c14.52,8.53,17.32,29.1,7.35,42.26-8.3,10.95-20.17,11.8-32.55,9.14-3.18-1.3-7.19-3.67-9.86-5.83-24.1-24.26,4.79-63.38,35.06-45.58Z"/>
    <path class="st2" d="M402,318.03c-25.16-20.39,2.38-64.47,33.41-47.59,31.42,17.09,11.32,67.64-23.55,53.42h14.37c33.25-3.44,31.78-58.94-9.77-53.99-16.15,1.94-27.83,22.29-20.63,37.37l6.16,10.82h0v-.02Z"/>
    <path class="st5" d="M415.17,283.92c2.91-.3,4.59-1.3,8.43-.63,13.57,2.4,17.41,19.9,4.19,25.49-11.61,4.9-20.21-3.26-20.02-15.32.02-1.58-.8-3.33,1.65-2.87,6.29,1.12,6.97-.65,5.74-6.67h.02Z"/>
    <path class="st6" d="M409.39,290.57c-2.12-2.94-.37-6.72,3.07-7.34,1.3-.22,2.41.71,2.67.69,6.16,4.75-1.57,12.51-5.74,6.67h0v-.02Z"/>
  </g>
</svg>