<?xml version="1.0" encoding="UTF-8"?>
<svg id="Layer_1" xmlns="http://www.w3.org/2000/svg" version="1.1" viewBox="0 0 375 375">
  <!-- Generator: Adobe Illustrator 29.6.1, SVG Export Plug-In . SVG Version: 2.1.1 Build 9)  -->
  <defs>
    <style>
      .st0 {
        fill: #f4b539;
      }

      .st1 {
        fill: #6da6eb;
      }

      .st2 {
        fill: #448bd2;
      }

      .st3 {
        fill: #fe7800;
      }

      .st4 {
        fill: #d2222f;
      }

      .st5 {
        fill: #629fe9;
      }

      .st6 {
        fill: #ec333b;
      }

      .st7 {
        fill: #448cd2;
      }

      .st8 {
        fill: #f3b231;
      }

      .st9 {
        fill: #62a0e9;
      }

      .st10 {
        fill: #f3b12f;
      }

      .st11 {
        fill: #f5d22d;
      }
    </style>
  </defs>
  <path class="st11" d="M124.25,128.74c3.41,1.05,6.76,2.38,10.08,3.99,3.35.17,6.23.83,8.64,2l.57,1.04c-2.01,2.87-4.42,5.61-7.24,8.21l-.14,2.91c3.61,14.25-.81,20.38-11.86,29.03.53.95,19.67-5,18.36-9.54.97-5.5,2.75-10.5,5.32-15l20.63-3.11c1.1.24,1.7,1.02,2.01,2.08l-2.59,25.12c6.55-1.52,13.14-2.79,19.78-3.81,2.09.75,9.62,17.13,8.71,18.45-6.11,8.86-14.65,17.44-22.32,25.05-26.64,26.42-58.69,48.59-90.87,67.74-.78.46-1.68.72-2.6.98s-1.89.41-2.86.54c-.64.07-1.28.11-1.91.05-5.34-.53-19.38-13.96-23.63-18.55-2.76-2.98-21.19-26.37-19.07-27.71l1.95-.2,1.27-1.32c9.78,2.29,14.38-.15,21.83-6.16,6.06-5.81,12.33-11.3,18.81-16.47l.71-2.16c6.93-7.52,13.64-15.09,20.12-22.71-.38-3.67-45.87,5.62-49.68,8.28-1.76.32-2.45-.38-1.85-2.12-.74-2.39,2.62-7.85,5.24-7.49.07-.71.17-1.42.36-2.09.96-3.35,17.13-24.1,20.09-25.61.63-.32,1.31-.54,2-.74,7.19-7.92,16.83-16.81,24.69-24.34,6.28-6.02,12.93-11.84,19.47-17.58,1.2,1.44,2.14,3.37,2.84,5.8,2.17,1.87,3.22,3.68,3.15,5.42Z"/>
  <path class="st11" d="M309.13,71.86l.4,3.21c-7,19.98-4.9,41.73,3.53,60.95l-.19,3.21c-1.65,1.5-3.47,2.77-5.49,3.7-15.6,7.22-38.63,12.56-55.71,16.16-6.32,1.33-12.64,2.65-19.01,3.73-1.05.18-2.15.13-3.26.06s-2.24-.24-3.35-.45c.22-2.43,1.73-5.76.37-8.23-.9-1.63-11.59-6.23-11.58-7.12l26.61-17.57-10.16-17.23.99-1.66c14.4-2.45,28-8.34,37.19-20.05-1.96-1.08-.69-4.95,1.5-4.87-2.23.21-1.81-11.13-1.5-11.68s.9-.86,1.5-1.05c-2.05.46-3.81-5.08-2.25-6.36,13.76-.56,27.15,2.14,40.42,5.24Z"/>
  <path class="st10" d="M151.95,251.5c-1.49-.78-1.97-2.58-1.42-5.38-1.02-1.53-29.11,17.93-30.7,19.87l-3.81,1.23-1.29,3.07c-5.29,3.83-9.11,8.49-11.44,13.97.74,2.21.74,4.02,0,5.41-2.11.05-3.74,2.83-5.58,2.92-1.37.07-10.6-2.91-12.39-3.67-2.56.95-7.96-1.76-7.49-4.49,43.01-25.51,85.97-55.45,117.37-94.78.19-.96-6.92-16.42-7.8-16.69l-21.24,4.43,2.99-27.69-20.47,2.93c-2.13,1.32-4.04,15.83-6.5,18.39s-18.21,6.33-22.44,7.87c2.96-4.95,13.36-11.63,15.31-16.49,2.08-5.18-1.44-14.78-.19-18.91.68-2.25,6.91-6.1,8.08-8.76l.26-1.58c5.09-.86,8.47-3.32,10.12-7.38.68-5.03,1.85-10.7,6.84-12.75.24-.65.49-.65.75,0,2.56,1.92,8.96,9.52,11.21,12.37,8.69,10.99,12.22,22.71,18.07,35.07,4.24,8.94,12.81,20.12,12.56,30.7-.06,2.51-1.98,6.35-1.97,8.45,0,1.41,1.38,2.47,1.19,3.49-.36,2.01-24.76,25.94-28.32,29.31-6.96,6.61-14.26,13.03-21.72,19.08Z"/>
  <path class="st6" d="M372.01,107.04c-14.9,12.75-34.4,24.1-53.42,31.77-.73.29-1.55.38-2.39.45s-1.71.03-2.58-.04c-.25.65-.5.65-.75,0-9.96-21.18-12.44-45.24-3.74-67.37,15.07,3.52,28.31,8.2,42.18,15.08,3.78,1.88,19.92,10.36,21.34,13.09,1.86,3.56.76,4.25-.65,7.02Z"/>
  <path class="st10" d="M313.62,139.22l1.76.64c.51.58,6.63,10.44,6.57,11.09-.06.68-.37,1.25-.85,1.74-9.18,6.19-18.32,11.53-28.46,16.08l-69.23,22.83c-.17-9.65,1.76-19.48,2.63-29.18,29.69-4.86,58.85-12.21,86.83-23.2.22-.08.53.09.75,0Z"/>
  <path class="st6" d="M116.02,267.22c7.06-6.04,14.87-11.64,22.81-16.48,2.89-1.76,9.14-5.85,12.01-6.7,1.4-.42.99.23,1.1,1.09.25,1.94-.09,4.33,0,6.38.67,15.8,3.26,65.24-4.49,77.1-.67.33-1.45.67-2.2.48-9.64-2.4-26.9-31.82-30.16-40.99-2.01-5.65-1.6-15.57.92-20.87Z"/>
  <path class="st5" d="M268.71,66.62c.66.88,2.25,5.52,2.25,6.36v12.72c0,.25-1.23,4.08-1.5,4.87-15.02,17.48-38.44,2.1-52.38-9.35-3.51-2.14-5.76-4.77-6.75-7.87.98-2.69,5.93-16.75,6.94-17.76,2.21-2.2,14.04-5.22,17.4-5.43,11.81-.75,27.07,7.1,34.04,16.45Z"/>
  <path class="st6" d="M46.41,195.36c.69,1.48,2.38.28,3.37,0,16.03-4.37,33.95-9.91,50.52-7.49.46.62-4.09,5.85-4.85,6.74-5.76,6.71-12.18,13.11-18.35,19.45l-4.21,3.05c-13.84,18.09-35.85,12.35-54.15,4.52-3.81-1.63-11.3-5.37-10.51-9.82,6.72-4.24,15.97-8.52,23.2-11.23l.43-1.72,9.07-2c2.03-1.27,3.86-1.78,5.47-1.52Z"/>
  <path class="st3" d="M35.18,238.02c-1.62.46.18,2.11.58,2.79,10.68,18,23.73,33.27,42.08,43.62,2.16,1.22,5.37,3.59,7.49,4.49-3.25.95-11.83,8.93-14.46,8.8-2.23-.11-9.85-3.69-12.24-4.93-14.78-7.69-30.14-23.74-34.89-39.96-2.53-8.62.58-8.96,3.95-16.3.8-2.09,7.13-.71,7.49,1.5Z"/>
  <path class="st6" d="M74.1,159.43c-7.96,8.77-15.16,19.07-22.46,28.44-3.21,1.87-10.05-.67-13.41-2.51-7.71-4.2-17.42-15.37-21.89-22.96l.12-2.23c3.1-3.39,9.38-4.92,13.82-5.27,14.57-1.15,29.65,1.43,43.81,4.52Z"/>
  <path class="st2" d="M269.46,90.57c-4.33,12.56-26.08,20.09-38.17,21.71-3.37.45-5.77,1.58-9.52.17-3.03-1.14-11.25-9.25-11.44-12.58-.22-3.73,12.01-8.54,10.48-10.77l-13.14-8.23c-.22-.46,2.21-6.27,2.67-7.51,3.15,2.76,6.1,5.59,9.49,8.1,12.73,9.4,26.19,20.03,42.89,13.23,2.87-1.17,4.05-3.18,6.75-4.11Z"/>
  <path class="st5" d="M118.26,117.51c.27-4.37,4.02-7.77,7.13-10.46,2.81-2.43,21.46-14.96,23.9-15.01,2.26,2.83,1.63,7.91,3.36,10.72,1.04,1.7,9.53,5.85,9.75,6.94.17.83-1.59,2.15-1.48,3.31-.14-.11-.5.09-.75,0-2.74,2.09-5.3,4.72-7.66,7.89-7.36,5.03-19.58,9.54-28.27,7.83-3.72-3.24-6.32-5.79-5.99-11.23Z"/>
  <path class="st4" d="M77.1,214.07c-6.38,6.56-21.4,23.61-30.29,24.72-3.32.41-8.23-.25-11.62-.77-1.74-.26-5.8-1.07-7.49-1.5-6.99-1.76-24.38-8.3-26.63-15.7-1.48-4.87,3.98-6.99,7.17-9,3.11,3.84,5.2,5.8,9.74,7.84,11.76,5.3,30.88,11.31,43.04,5.65,6.3-2.93,9.66-9.76,16.07-11.25Z"/>
  <path class="st4" d="M147.46,328.59c-2.02,3.09-2.3,3.6-6.78,2.67-11.08-2.31-33.61-31.05-37.38-41.59-.66-1.84-1.7-3.44-1.49-5.55.54-5.53,10.09-13.38,14.21-16.91l-.67,16.01c1.03,8.75,15.66,31.25,21.99,37.89,2.84,2.98,6.5,5.52,10.11,7.48Z"/>
  <path class="st4" d="M51.65,187.87c-1.74,2.23-3.2,5.31-5.24,7.49-3.86,4.11-10.31,3.5-14.97,5.24-2.64-3.44-5.48-6.87-7.8-10.54-4.39-6.95-13.79-22.65-7.17-29.88,7.94,9.63,13.82,21.15,26.43,25.59,3.06,1.07,5.89,1.01,8.75,2.1Z"/>
  <path class="st4" d="M372.01,107.04c-3.15,6.17-20.18,21.31-26.19,26.58-7.83,6.88-16.07,13.25-24.71,19.08-1.98-4.74-6.19-8.44-7.49-13.47,19.77-7.86,38.89-18.6,55.92-31.28.42-.31,2.27-2.25,2.46-.91Z"/>
  <path class="st9" d="M177.4,64.37c.57.51-4.86,10.45-5.61,10.47l-12.35-10.47h17.96Z"/>
  <polygon class="st8" points="193.86 111.52 180.39 112.27 186 99.57 193.86 111.52"/>
  <path class="st1" d="M203.6,44.16c.8.76-4.18,9.1-5.98,9.73l.75-10.48,5.24.75Z"/>
  <path class="st0" d="M192.37,134.74l8.97,6.36c-5.8,7.94-5.66-2.03-8.97-6.36Z"/>
  <path class="st7" d="M160.18,113.02c-8.5,7.73-.57,15.83-12.96,20.35-1.08.4-3.28,1.22-4.26,1.35-7.31.97-13.32-1.3-18.71-5.99,8.49-1.36,19.79-3.59,26.9-8.66,2.3-1.64,6.32-7.3,8.65-7.59.29.06.31.51.38.53Z"/>
</svg>