<?xml version="1.0" encoding="UTF-8"?>
<svg id="Ebene_1" xmlns="http://www.w3.org/2000/svg" version="1.1" viewBox="0 0 1024 1024">
  <!-- Generator: Adobe Illustrator 29.5.1, SVG Export Plug-In . SVG Version: 2.1.0 Build 141)  -->
  <defs>
    <style>
      .st0 {
        fill: #b4bbbe;
      }

      .st1 {
        fill: #b4bcbe;
      }

      .st2 {
        fill: #4e5659;
      }

      .st3 {
        fill: #7b8184;
      }

      .st4 {
        fill: #7a8183;
      }

      .st5 {
        fill: #7a8083;
      }

      .st6 {
        fill: #b5bcbe;
      }

      .st7 {
        fill: #b4bbbd;
      }

      .st8 {
        fill: #e6e6e7;
      }

      .st9 {
        fill: #d0d7d9;
      }

      .st10 {
        fill: #b4bcbf;
      }
    </style>
  </defs>
  <path class="st9" d="M1022.7,486.94c-14.93,97.7-114.26,160.04-204.14,196.06-3.34,2.38-5.15,1.42-5.43-2.91-9.46-4.84-17.88-11.56-25.24-20.13l-75.23-78.02c-34.28-15.41-69.13-28.9-104.58-40.48-17.78-4.52-26.83-15.75-36.52-29.5-9.99-16.34-20.88-31.97-32.65-46.88-19.75-12.44-41.68-23.22-63.55-31.67l-1.21-2.41c.33-1.99,1.71-3.09,2.3-4.92l-1.16-.57c-2.35-2.5.63-5.18,3.44-3.29.92,1.92,4.7-2.74,5.16-3.28,26.93-30.23,69.96-72.6,88.74-105.37-.36-1.65.27-3.43,1.9-5.37-.06-2.27.46-4.14,1.53-5.61-1.34-3.22.52-3.53,3.57-3.37,86.12,9.33,184.12,30.85,244.06,94.34,50.54,53.52,40.16,106.51-8.94,158.01,94.62-73.98,49.8-178.76-42.26-232.48-66.79-38.98-132.3-49.03-208.05-58.72-1.16-.14-2.27-.56-3.39-1.02s-2.24-1.09-3.32-1.73c14.99-22.89,35.99-44.62,51.58-67.45,4.56-6.63,15.82-3.42,23.27-2.62,129.59,13.9,318.96,80.8,375.41,203.22,14.34,31.1,16.22,56.55,15.85,90.2-.02,1.85.73,4.87-1.17,6.02v-.04Z"/>
  <path class="st9" d="M777.63,702.04c-3.05,2.23-6.24,4.32-9.83,5.67-28.47,10.72-62.32,18.27-92.38,24.21-179.39,35.4-415.94,13.79-568.22-89.27-9.32-6.31-19.1-13-27.59-20.26-2.26-1.92-3.73-4.53-5.13-7.06.82-4.88,13.93-10.72,18.7-13.36,30.18-16.66,61.75-31.18,92.38-47l2.89-.05c8.3,7.27,18.05,12.94,27.63,18.37-6.36-5.42-12.26-11.24-18.12-17.15-.63-.65-.98-1.56-1.35-2.52s-.57-2-.74-3.03c16.38-8.82,59.61-40.47,74.98-41.74,25.56-2.11,53.02-.41,78.79-2.41,13.26-6.46,25.49-15.13,38.27-22.59,15.09-8.78,30.05-20.01,47.83-21.1,7.16-.45,25.27-.9,31.62.52,4.76,1.06,39.53,18.68,45.6,22.15,17.11,9.8,36.83,49.87,51.19,66.18,1.63,1.84,3.68,4.16,5.79,5.42,13.16,7.85,42.75,16.82,58.53,22.93,21.35,8.26,43.92,14.27,63.84,25.52,24.44,29.31,53.55,56.44,77.9,85.58,2.22,2.66,7.41,7.95,7.42,11h-.01Z"/>
  <path class="st9" d="M562.34,180.76l-1.55,6.77c-17.21,22.29-33.95,44.85-50.22,67.68l-3.21,1.27c-2.4,1.5-8.28,1.94-11.89,2.16-106.07,6.54-216.13,21.15-296.2,95.19-41.89,38.73-66.1,99.68-33.51,150.57l.32,4.49c-1.31,1.03-2.63,2.02-4.04,2.89s-2.81,1.68-4.31,2.22c-38.13,13.81-76.94,27.14-115.43,39.2-3.08.99-5.9,1.17-8.88-.24-9.26-4.39-24.55-47.38-27.67-56.14-31.13-117.39,69.25-206.72,169.08-253.35,93.89-43.85,194.77-61.11,298.78-64.86,27.11-.98,56.37-3.07,83.43.07,1.41.16,4.86.77,5.27,2.09h.02Z"/>
  <path class="st9" d="M538.29,300.38c.7,1.98,2.1,5.85,2.29,7.68l-1.83,6.66c-26.58,39.85-52.33,80.45-77.27,121.83-16.46,2.28-33.02,3.84-49.68,4.68l-66.31,41.81c-24.27,1.4-48.59,1.25-72.95-.44-13.56-.09-26.8.19-39.25,5.26-18.11,7.74-36.61,14.17-55.52,19.28l-2.53-1.54c-.79-.48-1.56-1.01-2.21-1.62-3.57-3.42-5.87-18.61-6.61-24.34-8.13-63.87,47.09-108.42,100.41-135.41,79.34-40.17,175.75-51.36,265.33-47.17,3.05.14,4.35.74,6.1,3.33h.01Z"/>
  <path class="st1" d="M507.37,256.48c1.9,1.49,1.4,2.56.15,4.12,2.87,5.13,7.29,9.27,12.45,12.35.18.16.38,2.82,1.53,4.55,5.65,8.49,12.83,11.72,16.79,22.88-2.04-.61-4.08-1.04-6.24-1.14-68.25-3.09-143.84,2.96-208.5,24.17-79.79,26.16-184.13,85.96-148.28,182.2-1.12,3.76-5.74,5.5-9.16,3.29-33.28-46.79-16-105.53,20.58-145.44,72.72-79.34,202.48-103.72,307.56-106.92,4.48-.13,8.42-2.36,13.12-.04h0Z"/>
  <path class="st8" d="M768.47,718.5c-20.67,27.51-67.92,44.45-101.67,53.47-107.44,28.7-288.72,26.44-391.53-17.05-27.85-11.79-57.68-29.51-74.81-53.96,3.63.36,7.27.85,10.7,2.09,44.82,16.31,85.01,30.29,132.29,39.79,92.23,18.55,190.75,21.85,283.98,8.35,46.16-6.68,85.95-17.9,130.17-31.18,3.52-1.05,7.21-1.34,10.88-1.5h-.01Z"/>
  <path class="st10" d="M557.76,257.58c79.38,6.24,168.18,25.49,233.51,70.88,90.18,62.65,113.09,168.43,11.89,233.98-1.58,1.02-2.84,2.7-4.91,2.41,21.36-21.13,44.11-45.97,53-74.86,19.53-63.5-42.65-115.67-94.6-142.61-51.12-26.51-116.99-39.71-174.62-45.59-1.83-.19-4.75-1.26-5.95.79l-2.73-.65c-5.82-10.5-12.18-20.84-19.12-31.01l-1.07-4.55c1.05-4.68,2.24-5.21,4.58-8.78l.02-.02Z"/>
  <path class="st0" d="M777.63,702.04c.02,3.76-4.24,10.86-6.37,14.24-.8,1.27-2.43,1.73-2.79,2.22-127.62,46.2-270.49,53.3-404.47,30.39-56.22-9.61-111.5-25.66-163.54-47.95-31.29-13.4-61.7-29.53-89.68-48.5-8.19-5.55-27.71-18.37-33.46-25-3.06-3.52-3.58-7.58-2.83-12.1,85.09,70.76,198.29,106.56,308.79,121.66,131.22,17.92,269.65,8.55,394.36-34.96h0Z"/>
  <path class="st3" d="M540.58,308.06c.61,5.52.15,15.41-2.05,20.53-21.62,30.16-38.71,63.16-59.79,93.6-.4.57-2.24,1.6-3.44,3.29-4.01,5.66-13.18,22.31-18.62,24.41-14.44,2.74-32.16.5-45.51,6.87-19.12,9.12-51.6,38.75-71.01,40.05l-3.06-.53h-53.16l1.26.53c-9.75,2.81-20.93-.21-30.98,1.59-61.05,20.75-121.38,43.97-182.58,64.28-4.84,1.61-25.42,9.08-28.64,8.77-2.93-.29-6.24-6.38-7.94-8.88-13.64-20.16-23.13-42.51-29.29-65.76,4.89,10.01,7.87,20.9,13.12,30.77,1.86,3.5,12.83,21.28,14.94,22.98,3.5,2.82,8.81.04,12.61-1.06,39.38-11.56,80.27-27.69,119.66-40.62,3.09-1.02,6.15-2.3,9.16-3.29,4.83-1.58,11.21-2.6,16.63-4.37,14.38-4.71,43.31-18.06,56.19-19.68,29.63-3.73,66.36,2.98,96.75-.57l66.31-41.81c16.32-2.4,33.12-1.28,49.25-4.38l56.81-92.61,23.38-34.11h-.02Z"/>
  <path class="st4" d="M813.13,680.09c3.82,2.57,1.52,11.1-1.05,14.82l-3.53,2.74c-1.02.23-2.21,1.55-3.74.93l-95.98-103.47c-40.71-18.58-83.79-32.87-125.32-50.01-19.1-18.1-30.19-48.18-46.93-66.97-11.72-13.14-42.92-21-57.29-32.89-4.23-3.5-6.01-9.08-5.13-14.29,4.48.53,9,2.66,13.01,4.54,10.15,4.8,46.99,22.17,53.31,27.93,9.85,9,24.09,35.68,33.53,47.98,3.92,5.1,12.72,17.2,17.73,20.32,8.26,5.16,30.91,12.43,41.33,16.36,27.15,10.23,55.68,17.9,81.02,32.1,33.36,32.37,63.59,69.69,99.06,99.87v.02Z"/>
  <path class="st7" d="M1022.7,486.94c-9.04,85.48-87.39,148.69-161.45,187.14-13.03,6.76-39.22,20.58-52.7,23.57,2.05-5.74,5.39-11.17,4.58-17.56.79.67.96,2.13,1.66,2.07,71.36-29.14,143.17-68.72,183.63-134.52,11.96-19.45,22.4-42.17,23.13-65.08l1.13,4.38h.01Z"/>
  <path class="st4" d="M519.97,272.94c-.1-.09-1.61.98-2.65.72-3.28-.81-12.14-10.5-12.02-13.17.05-.98,1.51-2.85,2.07-4.02,9.06-18.63,34.92-45.65,47.89-64.4,2.57-3.71,4.7-7.54,7.08-11.33,2.13,6.67-2.67,21.13-1.43,28.81l-40.94,63.38Z"/>
  <path class="st5" d="M576.08,302.57c1.55,4.36,1.65,4.65-.63,8.78-.66,1.2-2.67,1.94-2.81,2.19-4.02-5.66-17.13-17.15-18.94-23-1.27-4.1-1.53-19.72-.53-24.19,4.09,5.08,7.81,10.62,11.23,16.12,3.1,4.98,9.95,15.21,11.67,20.09Z"/>
  <path class="st6" d="M195.88,550.59c12.41,13.76,26.8,25.57,41.23,37.3l-34.03-19.5c-5.58-4.63-13.1-7.65-17.5-13.41,2.92-1.51,7-2.61,10.31-4.39Z"/>
  <path class="st2" d="M340.17,496.82c-17.2,1.15-37.44.12-54.97,0-2.08-.01-4.19.07-6.28,0-.98-.03-4.17.46-2.31-1.11,19.09.18,38.18-.21,57.27-.01,1.94.02,5.1-.7,6.29,1.12Z"/>
</svg>