<?xml version="1.0" encoding="UTF-8"?>
<svg id="Ebene_1" xmlns="http://www.w3.org/2000/svg" version="1.1" viewBox="0 0 998 1007">
  <!-- Generator: Adobe Illustrator 29.5.1, SVG Export Plug-In . SVG Version: 2.1.0 Build 141)  -->
  <defs>
    <style>
      .st0 {
        fill: #bfbfbf;
      }

      .st0, .st1, .st2 {
        stroke: #000;
        stroke-miterlimit: 10;
      }

      .st2 {
        fill: #593324;
      }
    </style>
  </defs>
  <path class="st1" d="M.23,301c-.21-14.52,5.1-26.71,13.07-38.56,17.57-23.24,29.04-43.46,37.13-71.67,12.01-59.95,30.18-117.39,89.54-144.73l45.72-17.7C235.26,2.25,286.02-1.75,341.36,1.02c36.37,1.82,72.25,9.53,104.2,27.22,16.08,13.11,33.45,17.77,53.95,19.73,60.63,13.45,119.44,80.06,147.59,133.24,40.6,76.69,12.61,137.59-36.94,201.75l-3.28,1.13c45.01-.32,90.4,2.15,135.42,5.23,42,2.88,82.97,8.24,119.95,26.39,38.25-46.55,41.16-112.21,10.39-164.88-15.16-29.54,4.29-53.53,37.03-43.77,51.99,15.51,91.08,80.29,87.35,133.92.89,4.2.88,8.8,0,13,2.73,51.2-25,100.6-62.05,133.69,23.1,51.41,25.64,109.65,26.89,165.83,2.56,26.86,11.58,48.06,23.68,71.82,11.09,22.17,12.36,46,12,70.36-.69,42.75-1.05,85.3-1.07,127.63-.49,44.52-54.82,56.01-90.77,57.93-41.67,2.22-104.01-4.39-104.06-58.65-.03-29.24,18.39-44.74,40.44-59.45,5.45-5.03,6.99-8.67,8.33-15.77,2.34-12.33,4.93-40.54-2.29-50.95-4.84-6.98-11.89-12.22-18.73-17.18-28.75-17.22-53.84-39.85-70.47-70.01-2.05.48-16.58,7.17-16.35,8.25,18.45,31.95,24.48,65.98,20.89,102.88-2.29,23.36-3.48,46.54-3.58,69.56-3.01,57.15-66.59,69.6-113.49,64.04-33.44-3.96-69.06-21.3-62.93-60.68,3.98-25.57,17.58-38.03,35.65-53.81,15.44-17.47,12.73-34.79.04-53.05-2.02-2.9-14.88-20.88-15.98-21.65s-25.41,2.69-26.14,3.91c-.6,1.01-.86,2.17-1.09,3.33-5.06,56.67-9.25,113.02-12.58,169.07-6.54,53.14-37.77,64.28-85.23,65.91h-40.99c-38.13-1.4-80.78-17.72-76.71-63.07,2.1-23.33,14.46-36.29,31.88-49.5,10.31-8.68,10.85-21.12,10.16-33.96-1.81-30.76-4.07-61.74-6.8-92.93-7.75-2.11-15.57-4.52-23.46-7.22-6.11,54.7-11.9,109.43-17.36,164.21-9.69,47.52-65.91,59.09-107.54,58.09-37.8-.91-82.4-11.11-87.29-55.58-3.45-31.39,15.35-53.12,41.57-66.04,7.09-4.66,9.24-11.46,10.84-19.5,2.91-14.62,3.9-30.26,4.59-45.2,2.17-47.42,3.9-96.3,5.17-144.43.13-4.92-.83-9.94-1.82-14.71-17.46-48.97-14.99-102.95-9.47-154.24-10.33,1.99-23.43-.09-34.2-2.12-32.42-6.11-64.32-19.46-79.24-50.08-29.08-2.87-46.93-25.07-56.1-51.12C19.82,367.35,1.14,349.22.23,322c.52-6.74-.71-14.4,0-21Z"/>
  <path class="st0" d="M998,354h-1c.14-4.27.16-8.73,0-13h1v13Z"/>
  <path class="st2" d="M291.16,25h41.99c28.79.64,76.03,14.4,101.66,27.82,6.98,3.65,14.32,10.41,20.79,13.21,12.61,5.45,31.77,5.67,46.03,9.96,55.41,16.65,124.51,97.09,136.96,153.01,15.02,67.48-49.38,170.28-119.48,181.01-1.6-.51-11.23-1.13-8,0-4.74.32-5.21.36-10,0-3.87-.6-7.87-.94-12-1-33.91-7.63-52.64-40.24-54.99-73,.83-11.14.94-23.85,0-35,1.58-31.03,9.11-61.85,12.86-92.64l4.14-38.36c1.19-8.35,1.19-16.02,0-23-.01-.19-.86-.8-.93-1.59-1-11.51-2.51-40.04-18.52-39.44-18.27.69-4.6,23.31-3.55,33.03-.69,11.47-.95,24.53,0,36-.63,11.76-2.73,24.68-5,36-1,4.06-1.34,8.06-1,12-3.62,24.63-9.56,50.39-11,75-.38,13.93-.63,26.2-.74,36.8l.74.2c3.93,54.34,34,90.26,87.98,99,7.33.66,14.66.65,22,0,14.36-2.29,28.76-6,41.66-12.83,5.35-2.84,12.6-9.37,17.33-11.17,9.32-.48,18.65-.82,27.99-1,4.75.01,10.88-.85,15,1,15,.99,29.67.99,43.99,0,3.14.02,7.7-.83,10,1,6.77.92,14.74.64,22,0,1.89.02,4.91-.68,6,1,3.57.84,10.14.65,15,0,2.08.08,3.59.98,4,1,3.5.93,7.42.71,11,0,.82.06,1.66-.08,2.48,0,.5.17.56.52.52.99,2.64,1.02,6.11.65,9,0,113.53,8.3,177.41,55.23,185.96,173-.58,4.7-1.09,13.78,0,15,.03.68.93,2.69,1,5-.59,6.72-.71,13.61-.4,20.36,0,.07-.17-1.05.4-1.36,1.6.84.97,3.39,1,5-.66,3.96-1.15,12.08,0,12,1.49,20.69,5.98,43.29,13.82,62.68,10.43,25.77,22.46,40.5,24.17,70.32v62c-.02,2.19.74,5.64-1,7-.74,6.78-.74,15.43,0,23-.01,3.78.84,9.02-1,12-.54,5.42-.7,11.99-.48,19.7l.48-.7c1.81,1.97.98,6.18,1,9-.84,5.29-.55,10.7,0,16-2.31,17.83-23.93,28.42-39.99,30l-13-.76-1-2.24-1-15c.77-6.4,7.09-14.32,7.04-19.52-.08-8.23-10.54-12.14-17-7.95-3.5,2.28-8.35,13.26-10.03,17.46-.47,9.81-.65,19.65-.53,29.51-2.24-.24-4.4-.07-6.47.49-1.88,0-4.92.66-6-1-5.07-.14-10.67-.55-16.79-1.22-.76-7.66-.49-15.26.79-22.78,1.73-5.16,4.15-9.78,6.72-14.75.93-1.81,2.86-.52,2.35-4.73-.84-6.9-8.76-12.36-15.64-9.6-11.86,4.76-17.91,35.45-16.43,47.07-9.13-2.33-14.93-7.77-16.99-17l-1-15c3.68-25.83,40.35-32.94,46.52-56.97.99-3.86,2.16-11.33,2.47-15.03.98-3.49.76-7.43,0-11,.44-9.48.41-16.57,0-26,.6-2.89,1.1-8.62,0-10-.67-.01-2.38-10.53-3.5-13-6.03-13.3-25.33-21.96-36.8-30.19-46-32.98-79.8-89.62-83.67-146.81.77-3.25.77-6.58,0-10-3.3-14.92-21.61-13.45-23.02-1.52-1.46,12.4,3.52,34.92,6.51,47.53,3.26,13.76,7.83,27.07,13.51,39.98-38.49,19.47-77.95,36.43-119.76,47.73-16.52,4.47-34.25,8.99-51.2,11.28l-1.2-.44-.8-11.56c.43-5.88,2.54-12.2,3-18,.92-6.18.92-12.52,0-19-4.21-10.83-17.58-9.79-21.29,2.2-3.18,10.25-4.77,32.55-5.7,43.8-1.04,3.03-.73,6.78,0,10-.04,1.1.3,2.52-1,3-.87,3.29-.59,7.4,0,11-.06.82.08,1.66,0,2.48-.17.5-.52.56-.99.52-.97,4-.69,8.78,0,13-.11,1.94-.99,3.71-1,4-.92,4.85-.73,10.08,0,15-.1,1.98-.98,3.67-1,4-.94,5.19-.73,10.74,0,16-.11,2.2-.97,4.32-1,5-.94,5.19-.72,10.74,0,16-.12,2.18-.97,4.34-1,5-.93,4.49-.72,9.42,0,14-.05.8.02,3.97-1,4-.97,3.63-.69,8.81,0,13-.11,2-.98,3.61-1,4-.94,3.5-.71,7.42,0,11-1.14,15.85-2.55,34.67-5.29,50.21-4.95,28.04-17.75,37.54-45.49,41.5-9.73,1.39-12.07,2.83-13.21-8.71.67-4.96.61-10.03,0-15,1.06-8.58,13.95-22.96,3.96-29.46-11.53-7.5-19.76,8.84-22.23,17.68-.54,1.93-2.03,12.77-2.72,12.78-.64,4.42-1.2,14.69,0,15,0,.14.94,1.14,1.04,2.42.2,2.51-.18,5.08-.04,7.59l-4.33-.2-.67-.8c-3.59-.91-8.77-.51-13,0-1.87-.18-8.23-1.26-9.44-2.07-2.01-1.35-1.14-2.5-1.56-3.93l-1-17c.11-.38,1.93-.9,2.02-1.7.17-1.57-.92-3.08-.42-6.11,1.38-8.39,15.15-23.06,2.67-28.96-12.84-6.06-23,16.86-24.81,26.72-1.51,8.21,1.01,17.15-1.45,25.05-.9-.49-1.89-.49-3,0-13.82-2.02-21.3-17.56-19.88-30.4,3.21-29.05,28.41-29.91,37.07-48.91,6.78-14.88,5.46-34.76,4.81-50.69l.57-4.24c.15-2.13.34-10.45-.57-7.76-2.18-35.22-6.59-72.74-11-108-.03-4.67-.09-9.31-.17-13.92l-.83.92c-.47.06-.81-.04-.99-.52-.08-.49.04-1,0-1.48.59-4.38.26-8.71-1-13-4.74-11.94-16.56-13.57-22.57-1.99l4.57,44.99c-1.9,1.82-42.28-13.51-47.66-15.82-66.53-28.55-107.95-77.59-115.3-151.18.54-3.9,1.24-11.37,0-11-.07-1.24-.9-3.46-1-6,.71-6.97.81-14.04,0-21,.02-2.19-.74-5.64,1-7,.9-2.88.6-8.13,0-12,.62-12.25,2.61-24.72,4.11-36.89,4.85.49,9.33-.66,13.89-1.11,3.74.83,9.71-.27,12-1,.06-1.05,17.76-4.18,20.51-4.98,9.9-2.89,37.09-9.68,29.99-24.04-6.32-12.77-33.79,2.81-43.49,5.53-9.67,2.71-23.98,4.9-34,5.49-11.15-.9-23.84-.88-34.99,0-21.54-1.39-49.81-8.91-66.46-23.03-1.26-1.07-8.33-7.92-8.45-8.61-.57-3.26,19.55-12.02,22.44-15.37,4.04,2.55,7.23,6.07,11.16,8.83,11.85,8.28,25.14,12.64,39.31,15.18,10.21.8,19.88.46,28.99-1,.11-1.28,20.34-6.19,24.35-8.14,9-4.37,29.13-20.61,33.85-29.14,6.24-11.28-1.26-22.25-14.26-18.26-4.02,1.23-11.44,13.78-15.42,17.58-29.16,27.9-81.94,22.54-99.69-15.34-4.33-9.24-5.68-17.62-5.31-27.75,1.22-2.73,13.04-3.45,16.51-4.42,22.16-6.18,47.99-28.95,33.5-53.55-7.67-13.03-34.36-19.66-48.52-20.97-3.57-1.1-8.12-.71-12,0-1-.01-2,0-3,0-3.58-.79-7.24-.79-11,0-12.01,2.62-25.2,7.51-31.43,19.07-1.14,2.13-3.04,9.88-3.57,9.93-.69,4.54-.36,9.21,1,14,6.33,16.19,18.51,26.77,34.52,32.98,1.57,6.06.73,13.38,1.72,19.28,1.79,10.72,10.82,18.49-.9,26.57-34.68,23.92-59.95-7.41-64.32-40.84.27-8.98.39-18.17,0-27,.97-3.47.77-3.07,1.44-7.05,6.03-36.19,37.56-47.34,48.31-75.69.85-2.24,3.5-14.2,4.24-14.26.95-3.7,1.93-8.74,1-13,.04-1.1-.31-2.52,1-3,.84-3.67.74-8.8,0-13,.02-1.89-.68-4.91,1-6,.85-2.8.58-9.5,0-14,.06-.82-.08-1.66,0-2.48.17-.5.52-.56.99-.52.94-4.32,1.27-8.65,1-13,13.13-82.08,86.64-140.89,168.96-143Z"/>
  <path class="st2" d="M235.67,955c-1.5-.14-8.24-1.33-9.08-1.92-5.76-4.09-3.26-21.38-1.14-27.3,2.87-8.05,15.95-21.8,5.7-29.26-6.95-5.06-13.65.82-17.95,6-10.39,12.51-11.51,28.79-12.03,44.48-20.25-7.7-19.26-34.23-7.99-49.5,7.87-10.66,21.05-13.28,30.51-21.48,18.64-16.15,15.01-63.37,16.43-86.56,3.3-36.39,4.99-72.92,6.05-109.46,18.63,22.34,41.13,41.82,66.95,55.52,10.94,5.8,22.77,9.78,33.53,15.46-.16,16.33-1.14,33.11-2.52,49.51-2.94,35.01-6.75,76.44-13.28,110.72-6.65,34.92-24.81,40.58-57.68,44.8-3-10-3.33-20.95-.53-31.03,1.61-5.78,5.51-8.75,4.46-15.42s-8.08-8.68-13.78-6.9c-13.5,4.23-15.49,40.57-13.16,52.33-4.71-.31-9.85.43-14.5,0Z"/>
  <path class="st2" d="M738.06,775c-.58,10.12-.58,20.12,0,30-.06.82.08,1.66,0,2.48-.17.52-.52.54-.99.52-.68,21.48-1.05,44.44,0,65-.66,11.43-3.22,29.9-10.48,39.02-8.1,10.18-24.28,13.36-36.03,16.96-.25.05-1.42-3.5-1.48-3.98.67-4.32.65-8.68,0-13,1.05-8.26,13.14-21.31,2.92-27.42-11.21-6.7-21.13,10-22.68,19.16-1.4,8.32,1.38,18.16-1.24,26.26-1.35-.54-2.65-.47-4,0-4.45-.43-14.86-.95-18.34-2.16-2.3-.8-2.79-7.95-2.72-10.35.27-9.14,5.42-20.4,9.15-28.71.82-1.82,3.62-.78.98-6.37-3.48-7.36-14.23-6.79-19.6-1.46-7.1,7.04-9.94,27.94-11.46,28.04-.04,3.99-.56,7.49-1.55,10.51l-1.45-.51c-9.23-3.1-10.67-14.72-9.98-23.49,2.08-26.24,31.87-34.49,40.99-56.99,12.41-30.6-3.11-60.28-23-83.02l90.29-29.4c7.6,13.7,18.98,32.99,20.67,48.9Z"/>
  <path class="st2" d="M973.01,330c-.83,10.52-.86,22.47,0,33-2.31,33.1-21.22,80.89-49.08,100.41-1.57,1.1-5.23,4.22-6.91,3.15-.75-.47-6.22-9.11-7.97-11.09-7.92-9.01-17.48-16.83-27.03-23.99,16.02-20.85,28.68-45.2,33.71-71.28,6.34-32.84,1.82-69.26-11.53-99.88-3.45-7.92-10.53-17.55-12.73-25.31-3.49-12.3,20.04-1.82,24.6.44,34.12,16.88,54.19,57.63,56.94,94.54Z"/>
  <path class="st2" d="M136.2,78.01c-11.14,19.37-24.31,37.17-30.49,58.99-7.47,26.36-5.71,52.84-9.63,79.37-4.07,27.57-11.57,28.48-27.38,47.61-20.85,25.23-27.17,47.27-29.48,79.53-.08,1.11.57,3.31-1.49,2.48-5.06-2.05-12.51-20.24-13.25-25.75-4.09-30.27,11.3-41.88,25.55-63.93,35.02-54.22,26.49-135.92,82.12-176.86,1.36-1,2.1-1.85,4.05-1.44Z"/>
  <path class="st1" d="M329.15,212c.78,6.12.78,12.12,0,18-.47-.05-.79.02-.98.51-4.39,29.78-40.78,33.42-44.02,1-.15-.5-.53-.55-.99-.51-.78-5.12-.78-10.46,0-16,7.55-34.05,36.99-38.25,45.99-3Z"/>
  <path class="st1" d="M158.85,177.38c3.09-.06,7.05,1.16,9.67,2.79,18.91,11.74,12.67,64.42-11.83,63.91-27.14-.56-24.81-66.15,2.16-66.7Z"/>
</svg>