<?xml version="1.0" encoding="UTF-8"?>
<svg id="Layer_1" xmlns="http://www.w3.org/2000/svg" version="1.1" viewBox="0 0 512 512">
  <!-- Generator: Adobe Illustrator 29.6.1, SVG Export Plug-In . SVG Version: 2.1.1 Build 9)  -->
  <defs>
    <style>
      .st0 {
        fill: #35404a;
      }

      .st1 {
        fill: #fece5d;
      }

      .st2 {
        fill: #00d2d7;
      }

      .st3 {
        fill: #e8e2d4;
      }

      .st4 {
        fill: #8b866d;
      }

      .st5 {
        fill: #87f7f3;
      }

      .st6 {
        fill: #596775;
      }

      .st7 {
        fill: #fe973b;
      }

      .st8 {
        fill: #86f7f3;
      }
    </style>
  </defs>
  <path class="st6" d="M9,299c1.58-3.34,12.15-2.93,15.25-1.62,4.16,1.75,5,2.34,6.82,6.54,1.36,3.13,1.92,16.19-1.07,18.08,3.3,9.42,3.02,21.5,0,31-7.07-.04-18,.99-24.44-.05-2.3-.37-3.74-1.75-5.56-2.95v-47c2.11-3.31,5.45-3.7,9-4Z"/>
  <path class="st1" d="M408,119l-.96,2.52c-10.98,4.8-16.78,16.9-16.19,28.54l-1.85,1.94c-5.58,2.77-11.4,2.73-17,0l2,.92v54.89l-2,1.19c5.6-2.73,11.42-2.77,17,0l2.12,2.06c1.16,17.38,15.84,26.35,32.05,28.07l41.03,5.72c4.9-.05,7.83,1.32,8.78,4.1l-.96,71.86-2.02,1.17-3.18-.96c-6.44-8.59-15.41-14.59-25.76-17.43l-2.07-2.61c-1.69-.48-3.11-.37-4.12,1.2-18.87-3.16-38.87,3.63-50.74,18.9l-3.14.9-2.9,2h-27.65l-1.45-2-2-.7v-168.56l2-1.24c-5.73-5.33-11.84-5.3-20.37-5.2-23.83.79-47.63.97-71.4.54-2.28,2.12-4.35,3.01-6.24,2.66l2,.7v170.56l-2,1.24-.69,2h-89.67l-2.65-2-2.96-.68c-6.86-8.78-16.69-14.8-27.34-17.83l-1.7-2.49c-1.32-.37-2.33.16-3.11,1.4-19.11-3.63-38.54,3.23-50.62,18.59l-3.27,1.01-2.55,2H31.18l-1.18-2c-.39-19.68,2.64-25.02-21-23v-64c-.05-.47-.06-.93.08-1.33.72-2.14,39.98-1.04,44.75-.67l1.17,2c-.78,0-1.99-.2-2-.69-.63-24.01-1.31-52.11,0-75.96-.62-3.41.04-5.53,2-6.36-7.64,1.96-15.36,1.97-23,0-7.64,1.96-15.36,1.97-23,0,1.24-25.65,12.71-42.95,39.52-45.98l332.02-.05c11.59,1.14,19.49,4.86,27.46,13.04Z"/>
  <path class="st7" d="M158,322h93v-172.5c0-.41,4.84-5.36,6.45-4.55,26.81,1.9,56.67-2.35,83.1,0,3.64.32,8.45,2.34,8.45,6.55v170.5h32l.56,2.81c-4.63,7.94-6.9,17.07-7.49,26.19l-2.07,1.99c-6.5.11-13.03-.13-19.54-.04-6.57.09-12.79.06-19.46.04l-2-.69v-108.09l2-1.22c-.21.78-.54,1.95-1.14,2-5.9.5-16.53.49-22.43,0l-1.43-2c.78,0,1.99.21,2,.69.65,35.61.65,72.47,0,108.09l-2,1.22c-5.32,0-10.68,0-16,0-.77-.09-1.8-.27-2-.89-.66-2.06-.3-25.01,0-28.66l2-1.44-2-.69v-77.09l2-1.21c-.21.78-.54,1.94-1.15,2-2.73.28-21.77.49-23.41,0l-1.44-2,2,.93v77.86l-2,1.21c.78.09,1.96.34,2,.89.56,7.93.55,19.74,0,27.67l-2,1.44c-6.23,0-12.33-.04-18.46-.04-26.51,0-53.04.09-79.54.04l-2.05-1.42c-.91-9.54-4.05-18.92-8.81-27.23l.86-2.35Z"/>
  <path class="st0" d="M502,299c4.57.37,8.12,1.28,8.94,6.56,1.95,12.49-.9,30.4-.46,43.42-1.42,1.54-2.78,3.58-5,4-3.92.75-24.58-.88-25.48.02.72,15.85-7.16,31.29-18.98,41.52-30.93,26.75-80.44,9.43-88.01-30.51,1.07-4.23,7.54-5.06,11.6-5.51,8.23-.92,17.7,1.29,22.4,8.51l2.16-.89c20.97,23.47,53.44-8.95,30-29.58l-.17-2.53c-5.94-4.15-8.16-12.62-8-19.68.12-5.48,1.11-15.82,8-13.32,13.29,3.2,23.19,9.81,31,21,4.81.65,6.81,6.84,8.17,11.11l1.83,10.89c-2.07-12.27-2.74-24.7-2-37.31l2-1.19c-3.37-3.25,1.8-6.32,5.11-7.75,2.99-1.29,15.44-2.24,16.89,1.25Z"/>
  <path class="st7" d="M420,209c16.62,1.09,50.32,6.02,66.2,10.3,8.55,2.3,14.48,8.27,15.8,17.2v62.5c-4.5-.36-16.66-.77-19.73,2.28-.24.24-2.27,3.98-2.27,4.22v38.5l-5.12-14.38c-1.44-2.65-3.16-5.16-4.88-7.62l.99-73.99c-17.93-3.23-37.5-4.38-55.19-8.31-15.79-3.5-26.35-14.05-26.8-30.7,4.51-2.68,25.84-3.6,29.3-1.43.62.39,1.17.9,1.7,1.43Z"/>
  <path class="st0" d="M126,301c12.28,2.83,24.79,10.41,32,21,5.07,7.45,9.92,22.05,10,31,.55,61.73-91.15,76.42-107,13-1.78-7.22,10.16-7.52,15.5-7.21,7.19.42,13.37,1.87,17.5,8.21l2.18-.91c21.11,23.05,53.02-7.92,30.86-29.55l-.04-2.54c-8.03-5.57-9.26-16.61-7.64-25.64.76-4.24,1.7-8.57,6.64-7.36Z"/>
  <path class="st2" d="M308,353v-110h25v110c-8.32-.02-16.68,0-25,0Z"/>
  <path class="st2" d="M389,152c10.09-2.95,20.89-2.86,31,0,.75,18.92-.56,38.06,0,57-9.91-.65-20.93.07-31,0-5.65-.04-11.35.03-17,0v-57c5.65-.03,11.35.04,17,0Z"/>
  <path class="st2" d="M32,152c7.65,0,15.35,0,23,0v83H9c0-10.32-.05-20.68,0-31l1.15-2,19.85-.18v-48.63s2-1.19,2-1.19Z"/>
  <path class="st6" d="M126,301c-2.58-.13-2.57,1.4-3.3,3.2-3.97,9.82-1.62,21.37,4.3,29.8l-2.41.8c-18.94-11.43-40.31,11.01-29.69,29.81l-.89,2.39c-7.76-5.22-13.95-6.92-23.49-5.99-2.86.28-9.34,1.08-9.51,4.99-1.1-4.41-2.05-8.39-2-13-2.16-2.1-2.47-5.31-.92-9.62,1.26-6.79,4.42-18.81,10.92-21.38,13.32-18.49,35.02-26.07,57-21Z"/>
  <path class="st4" d="M439,301c-2.76-.34-2.53-.3-3.51,1.96-4.8,11.12-2.16,21.04,3.51,31.04l-2.41.9c-19.31-10.61-39.37,10.82-28.71,29.69l-.89,2.41c-11.06-7.65-21.72-8.85-34-3-.79-4.17-1.06-6.7-1-11,.13-9.96,3.26-22.71,9-31,12.81-18.51,36.67-26.14,58-21Z"/>
  <path class="st5" d="M32,152v52.01s-23,0-23,0c.09-17.07-.81-35.08,0-52,7.65,0,15.35,0,23,0Z"/>
  <path class="st7" d="M69,322c-5.8,8.05-9.9,21.08-10,31-9.65-.04-19.35.05-29,0-.15-10.31.2-20.69,0-31h39Z"/>
  <path class="st2" d="M292,322v31c-8.65,0-17.35,0-26,0v-30c1.24-2.54,3.94-3.58,8.08-3.11,5.18-.37,14.16-.74,17.92,2.11Z"/>
  <path class="st7" d="M408,119c10.34,10.59,11.42,18.56,12,33-10.32.05-20.68-.07-31,0-1.44-13.75,5.59-28.3,19-33Z"/>
  <path class="st2" d="M197,152c10.32.05,20.68-.04,31,0v83h-75c-.04-10.32.05-20.68,0-31-.19-.84,0-1.52.67-2l41.33-.18v-48.63s2-1.19,2-1.19Z"/>
  <path class="st2" d="M115,152c5.75.06,15.45-.92,20.5,0,.83.15,2.5.8,2.5,1.5v81.5h-67c-.04-10.32.05-20.68,0-31l.67-2,40.37-.22.93-48.63,2.02-1.15Z"/>
  <path class="st8" d="M197,152v52.01s-44,0-44,0c-.09-17.32.07-34.69,0-52.01,14.65.07,29.35-.07,44.01,0Z"/>
  <path class="st8" d="M115,152l-.99,52.01h-43.01c-.09-17.32.07-34.69,0-52.01,14.65.12,29.36-.15,44.01,0Z"/>
  <path class="st5" d="M266,323v-80h26v79c-8.5.56-17.78-1.22-26,1Z"/>
  <rect class="st5" x="266" y="160" width="26" height="67"/>
  <rect class="st2" x="308" y="160" width="25" height="67"/>
  <path class="st3" d="M439,334c20.49,12.92,8.27,47.12-19.06,41.56-6.29-1.28-8.36-5.39-12.94-8.56-13.87-21.73,10.19-46.76,32-33Z"/>
  <path class="st3" d="M127,334c18.5,13.08,8.52,44.77-17.51,42-7.76-.83-9.98-5.29-15.49-9-14-21.72,12.03-47.83,33-33Z"/>
</svg>