<?xml version="1.0" encoding="UTF-8"?>
<svg id="Ebene_1" xmlns="http://www.w3.org/2000/svg" version="1.1" viewBox="0 0 384 384">
  <!-- Generator: Adobe Illustrator 29.5.1, SVG Export Plug-In . SVG Version: 2.1.0 Build 141)  -->
  <defs>
    <style>
      .st0 {
        fill: #5d6972;
      }

      .st1 {
        fill: #f7c360;
      }

      .st2 {
        fill: #7a828a;
      }

      .st3 {
        fill: #f9ae42;
      }

      .st4 {
        fill: #a6cfe0;
      }

      .st5 {
        fill: #7a838a;
      }

      .st6 {
        fill: #fefefe;
      }

      .st7 {
        fill: #80bacd;
      }
    </style>
  </defs>
  <path class="st1" d="M375.75,246.27l-1.98-1.1c-20.49-53.25-93.36-51.83-112.34,2-45.44,1.18-93.23.93-138.8.11-13.88-40.29-62.86-55.02-95.31-26.9-.9.68-3.23.39-3.57-.35-2.85-6.14-.54-26.75.73-34.22,3.91-23,14.11-45.59,28.02-63.05,24.75-22.63,56.4-36.46,90.34-38.21,16.35-.84,52.27-1.94,67.18,1.13,24.49,5.04,46.2,41.13,62.59,59.55,13.36,15.02,13.61,11.39,31.89,16.08,38.81,9.95,68.68,44.84,71.25,84.96Z"/>
  <path class="st3" d="M52.5,122.76c1.79.63-.26,2.01-.72,2.66-19.27,27.16-30.46,60.26-27.03,93.91,1.2.22,1.72-.14,2.65-.72,3.37-2.12,6.06-5.05,10.08-7.15,33.96-17.8,74.04-.77,86.01,34.86h137.01c13.01-39.5,61.11-55.27,94.61-29.21,8.66,6.74,17.2,18.71,20.64,29.18.67,2.03,3.08,17.14,2.25,17.97h-24s-1.55-1.71-1.55-1.71c-1.12-24.03-25.92-39.08-47.98-29.81l-2.22-.67-1.75,2.57c-10.23,5.66-16.46,16.22-16.96,27.83l-1.54,1.79H102l-1.55-1.71c-1.12-24.03-25.92-39.08-47.98-29.81l-2.22-.67-1.75,2.57c-10.23,5.66-16.46,16.22-16.96,27.83l-1.54,1.79H6c.56-19.74-1.43-39.73,1.72-59.29,5.15-31.97,21.06-60.48,44.78-82.18Z"/>
  <path class="st2" d="M102,264.23c.05,5.87-1.28,10.5-3.75,15.72-3.92,3.66-12.39,4.25-17.7,3.62s-14.31-2.25-16.05-7.37l1.07-1.44c27.62-6.09-3.85-37.82-10.13-10.12l-1.44,1.08c-5.17-1.76-6.73-10.79-7.38-16.01s0-13.8,3.63-17.67c24.43-11.3,51.52,5.4,51.75,32.19Z"/>
  <path class="st2" d="M354,264.23c.05,5.87-1.28,10.5-3.75,15.72-3.92,3.66-12.39,4.25-17.7,3.62s-14.31-2.25-16.05-7.37l1.07-1.44c27.62-6.09-3.85-37.82-10.13-10.12l-1.44,1.08c-5.17-1.76-6.73-10.79-7.38-16.01s0-13.8,3.63-17.67c24.43-11.3,51.52,5.4,51.75,32.19Z"/>
  <path class="st0" d="M50.25,232.05l-2.16,10.2c-.76,8.19,1.08,16.77,5.91,23.49l1.59.58c.86,4.08,4.24,7.44,8.32,8.31l.58,1.59c6.73,4.82,15.32,6.65,23.53,5.9l10.22-2.15c-16.21,34.19-68.25,22.63-68.25-15.72,0-14.07,7.51-26.29,20.25-32.19Z"/>
  <path class="st0" d="M302.25,232.05l-2.16,10.2c-.76,8.19,1.08,16.77,5.91,23.49l1.59.58c.86,4.08,4.24,7.44,8.32,8.31l.58,1.59c6.73,4.82,15.32,6.65,23.53,5.9l10.22-2.15c-16.21,34.19-68.25,22.63-68.25-15.72,0-14.07,7.51-26.29,20.25-32.19Z"/>
  <path class="st4" d="M150,144.47l-.7,1.49-58.19-.2c-6.43-1.08-14.04-9.67-9.36-15.52,11.57-7.99,23.62-14.13,37.34-17.75,9.45-2.49,28.35-7.83,30.73,6.33,1.09,6.48.35,18.62.18,25.64Z"/>
  <path class="st7" d="M192,108.54l1.49,1.53c-1.44,21.75,5.09,32.31,27.51,33.1l17.09-.33,2.66,1.62c4.01,7.47.28,14.97-7.3,17.79-15.46-1.05-34.28,2-49.35.19-4.3-.52-9.4-5.14-10.06-9.42-.78-5.02-.83-31.02.12-35.71,1.81-8.89,11.01-8.7,17.83-8.78Z"/>
  <path class="st7" d="M81.75,130.25c-1.06,6.67,3.07,12.52,9.56,14.04l58.69.18c-.21,8.49.61,14.1-8.8,17.79h-68.66c-7.24-2.51-10.34-8.18-8.64-15.76,1.19-5.3,13.32-13.13,17.84-16.25Z"/>
  <path class="st4" d="M240.75,144.47c-15.31-1.11-34.76,4.71-44.56-10.54-5.31-8.26-4.22-15.96-4.19-25.39,8.98-.1,15.84-.32,23.19,5.68,3.8,3.1,23.36,26.15,25.56,30.25Z"/>
  <path class="st5" d="M172.29,174.57c2.33-.52,13.84-.5,16,.18,5.36,1.68,5.01,10.63-1.21,11.6-2.53.4-13.16.4-15.37-.29-5.21-1.63-4.94-10.25.57-11.48Z"/>
  <path class="st4" d="M64.5,276.21c-5.16-.48-10.02-5.32-10.5-10.48-1.11-11.89,13.26-18.36,21.02-9.38,7.33,8.5.56,20.89-10.52,19.86Z"/>
  <path class="st4" d="M316.5,276.21c-5.17-.48-10.02-5.33-10.5-10.48-1.11-11.89,13.26-18.36,21.02-9.38,7.33,8.5.56,20.89-10.52,19.86Z"/>
  <path class="st6" d="M206.79,119.18c1.52-.35,3.24-.44,4.7.23.87.4,8.36,8.75,8.91,9.81,3.1,5.93-2.48,11.55-8.43,8.42-1.06-.56-7.96-8.82-8.61-10.11-1.64-3.25-.29-7.49,3.43-8.34Z"/>
</svg>