<?xml version="1.0" encoding="UTF-8"?>
<svg id="Layer_1" xmlns="http://www.w3.org/2000/svg" version="1.1" viewBox="0 0 384 384">
  <!-- Generator: Adobe Illustrator 29.6.1, SVG Export Plug-In . SVG Version: 2.1.1 Build 9)  -->
  <defs>
    <style>
      .st0 {
        fill: #c07d4f;
      }

      .st1 {
        fill: #fed955;
      }

      .st2 {
        fill: #abe133;
      }

      .st3 {
        fill: #c07c4f;
      }

      .st4 {
        fill: #e1def3;
      }

      .st5 {
        fill: #7d4a3b;
      }

      .st6 {
        fill: #00ca75;
      }

      .st7 {
        fill: #f8f8f8;
      }

      .st8 {
        fill: #9c5e4a;
      }

      .st9 {
        fill: #acde34;
      }

      .st10 {
        fill: #feb354;
      }
    </style>
  </defs>
  <path class="st6" d="M161.25,114.75c20.84.06,45.31-1.63,65.65-.03,9.57.75,16.04,5.36,22.08,12.42,13.98,16.33,25.46,37.65,39.37,54.38,21.89,7.35,45.38,11.23,67.31,18.19,11.37,3.61,18.72,8.07,24.72,18.78l3.62,10.26v18l-.76,1.53c-8.76-1.22-16.78-.37-24.06,2.57-11.68,18.3,12.16,17.88,24.05,16.88l.76,1.52v36c-3.31,32.01-32.84,32.96-58.21,31.45l-1.79-1.45-.49-2.55c18.28-42.48-23.76-85.86-67.12-68.65-26.99,10.71-39.13,42.19-27.91,68.62l-.48,2.58c-25.99,1.48-52.01,1.48-78,0-1.59-5.23-1.59-10.98,0-17.25-2.36-2.25-2.05-9.57,0-12l-1.5-12.43v-111.9l1.5-.92c.07-.59.26-1.47.67-1.5,6.77-.43,16.21-.42,22.98,0l1.09,1.5c-.59-.06-1.48-.27-1.5-.69-.47-11.71-.39-25.03,0-36.78-.54-3.11-.04-5.12,1.5-6.03-.07.59-.25,1.46-.67,1.5-4.52.42-18.92.72-22.98,0l-1.09-1.5c-1.47-7.48-1.48-15.02,0-22.5,3.73-1.47,7.52-1.48,11.25,0Z"/>
  <path class="st2" d="M138.75,114.75c3.73-1.48,7.52-1.48,11.25,0,0,7.49,0,15.01,0,22.5-.07.59-.25,1.46-.67,1.5-4.52.42-18.92.72-22.98,0l-1.09-1.5,1.5.69v41.92l-1.5.89c.07-.58.25-1.45.67-1.5,4.81-.53,18.3-.63,22.98,0l1.09,1.5v125.25l-1.72-1.73c-17.42-75.97-125.21-44.43-99.04,28.42l-.49,2.55-1.79,1.53c-21.91,2.48-46.12-7.41-46.96-32.28v-41.25l.76-1.53c8.76,1.22,16.78.37,24.06-2.57,11.68-18.3-12.16-17.88-24.05-16.88l-.76-1.52v-23.25c2.61-13,14.13-21.06,20.4-31.73,9.11-15.52,21.03-56,33.65-65.35,3.66-2.71,10.03-5.21,14.58-5.67,20.84-2.08,48.47.05,70.12,0Z"/>
  <path class="st1" d="M0,263.25v-22.5c9.78.43,29.79-3.71,29.32,11.63s-19.64,10.3-29.32,10.87Z"/>
  <path class="st10" d="M384,246.75v22.5c-9.78-.43-29.79,3.71-29.32-11.63.45-14.68,19.64-10.3,29.32-10.87Z"/>
  <path class="st10" d="M203.87,35.01c-11.74-18.6-37.43-21.63-53.87-7.26-2.08,28.97-2.03,58.03,0,87,3.74,0,7.51-.01,11.25,0v-27.75c31.55,11.97,60.87-23.06,42.62-51.99ZM187.9,71.18c-5.25,2.98-12.15,3.11-17.37-.01-12.29-7.34-10.13-26.85,3.57-30.87.74-.22,1.42-.27,2.04-.19,2.2-.51,4.56-.49,6.83.18,6.14,1.8,10.39,8.05,11.69,14.06,1.42,6.58-.67,13.38-6.76,16.84Z"/>
  <path class="st1" d="M150,27.75c-18.24-15.82-47.52-9.98-56.61,12.76-11.63,29.09,16.33,57.02,45.36,46.49v27.75c3.75-.01,7.51,0,11.25,0,.04-28.99-.03-58.01,0-87ZM135.1,61.64c-4.78,12.5-23.52,11.9-29.35.52-2.25-4.38-1.77-9.68.91-13.75,3.42-5.21,9.35-7.34,15.32-7.84,2.49-.21,4.01,1.18,4.56,2.98,1.31.29,2.6.81,3.79,1.55,5.69,3.54,7.07,10.55,4.77,16.54Z"/>
  <path class="st0" d="M150,306c.37,3.7-.06,8.16,0,12l-1.47,11.79c-.45,2.83-1.71,4.65-3.78,5.46-18.99,39.86-77.05,39.78-96,0-19.07-40.04,15.3-83.76,58.67-75.54,21.65,4.1,40.39,24.26,42.58,46.29Z"/>
  <path class="st8" d="M324,335.25c-18.94,39.81-77.03,39.83-96,0-13.69-28.74.62-63.9,30.92-73.7,45.14-14.61,85.4,31,65.08,73.7Z"/>
  <path class="st4" d="M259.5,180.75h-62.25v-43.5h28.88c.43,0,3.96,2.24,4.46,3.04l28.92,40.46Z"/>
  <path class="st4" d="M150,137.25h24.75v43.5h-24.75c-1.48-14.48-1.48-29.02,0-43.5Z"/>
  <path class="st9" d="M150,335.25h-5.25c2.62-5.5,3.99-11.32,5.25-17.25.09,5.74-.07,11.51,0,17.25Z"/>
  <path class="st7" d="M102.75,137.25v43.5h-54.75c5.04-13.64,11.98-26.86,17.83-40.29.23-1.03,3.86-3.21,4.29-3.21h32.62Z"/>
  <path class="st7" d="M150,137.25c-.01,14.49,0,29.01,0,43.5h-24.75v-43.5h24.75Z"/>
  <path class="st8" d="M92.83,281.46c41.98-4.87,46.67,58.27,6.53,61.28-40.18,3.01-45.15-56.79-6.53-61.28Z"/>
  <path class="st5" d="M272.08,281.46c38.32-4.45,47.52,50.55,12.75,60-43.69,11.88-54.79-55.12-12.75-60Z"/>
  <path class="st3" d="M94.29,300.92c14.88-3.05,18.98,19.27,4.92,22.16-14.88,3.05-18.98-19.27-4.92-22.16Z"/>
  <path class="st8" d="M273.54,300.92c14.83-3.09,19.01,19.26,4.91,22.15-14.72,3.02-19.04-19.21-4.91-22.15Z"/>
</svg>