<?xml version="1.0" encoding="UTF-8"?>
<svg id="Ebene_1" xmlns="http://www.w3.org/2000/svg" version="1.1" viewBox="0 0 409.6 409.6">
  <!-- Generator: Adobe Illustrator 29.5.1, SVG Export Plug-In . SVG Version: 2.1.0 Build 141)  -->
  <defs>
    <style>
      .st0 {
        fill: #c60024;
      }

      .st1 {
        fill: #fe0c38;
      }

      .st2 {
        fill: #a4001e;
      }

      .st3 {
        fill: #47821c;
      }

      .st4 {
        fill: #5eab24;
      }

      .st5 {
        fill: #6dc72a;
      }
    </style>
  </defs>
  <path class="st2" d="M290.63,251.39c5.66.41,12.88,2.3,18.36,3.99l-2.12,2.5c-65.56,26.42-66.57,118.78-.08,145.01l1.4,2.52c-1.85.54-3.66,1.57-5.57,2.02l-9.6,1.97c-5.62-.45-12.07.61-17.57,0-5.12-.57-15.76-3.96-20.75-6-14.91-6.11-28.57-17.69-36.74-31.51l-.36-2.08c2.14-3.48,4.26-6.56,7.54-9.09l.19-3.33c14.17-23.67,15.82-53.53,2.33-77.88l-.12-3.39c.07-.65.18-1.29.38-1.9,1.57-4.59,16.1-13.35,21.11-15.82s20.85-8.63,25.46-7.08c.61.2,1.18.51,1.74.85,2.95-3.03,11.2-3.62,14.37-.8Z"/>
  <path class="st1" d="M163.68,238.62c.72-.63,1.56-1.35,2.56-1.42,9.32-.62,26.99,6.87,35.14,11.7s22.39,16.01,26.2,24.29c.42.92.19,2-.03,2.94,16.03,26.41,13.94,59.32-2.4,84.59-5.35,6.16-14.33,8.8-22.15,10.7-51.2,12.44-102.38-29.29-99.38-82.13.72-12.66,4.26-27.33,12.15-37.1,11.58-7.89,21.16-11.19,35.13-12.77,1.97-2.87,10.56-3.59,12.78-.8Z"/>
  <path class="st0" d="M308.2,405.41c-8.17-4.29-16.27-7.69-23.53-13.59-48.65-39.54-33.59-115.79,24.33-136.44,73.28,22.58,73.02,128.28-.8,150.04Z"/>
  <path class="st5" d="M80.64,80.6c.28-.37.57-.68.93-.81,1.34-.48,12.28,4.08,12.64,6.39l12.8.02c1.66.18,2.7.42,2.37,2.37-1.99.02-4-.08-5.99,0-.96.04-2.97-.6-2.78.79,35.14,13.52,69.32,32.38,99.25,55.22,37.8,28.84,68.06,65.01,90.77,106.79-4.93-.36-9.53.22-14.37.8l-2.49-1.64c-34.85-61.68-94.25-110.08-157.04-140.08,26.45,25.64,42.23,60.2,47.09,96.55.88,6.6,3.12,24.39,1.01,29.52-.3.72-.7,1.41-1.14,2.07-4.74-.25-8.32.29-12.78.8,3.5-63.82-26.77-118.03-83.53-146.75-4.54-2.3-18.15-6.41-20.07-10.26s.94-8.69,5.04-8.96,19.82,5.54,24.83,7.12c1.6.51,3.31-.02,3.48.03Z"/>
  <path class="st0" d="M225.16,360.72c-1.8,2.78-5.15,9-7.19,11.17-26.25,28.07-72,32.58-103.57,10.55-45.95-32.05-44.63-98.91,1.37-130.26l-6.41,15.54c-23.12,70.2,52.78,129.94,115.8,93Z"/>
  <path class="st4" d="M276.26,15.96c-8.82,15.63-30.09,33.45-45.27,42.94-36.97,23.13-78.56,29.34-121.61,29.68-3.4-1.77-7.8-.37-11.52-.86-1.88-.25-2.69-1.26-3.65-1.53l.96-1.61c36.1-17.21,73.48-33.99,110.85-49.15,19.8-8.04,44.33-17.03,65.35-20.26.77-.12,1.58-.01,2.4.12s1.67.39,2.49.68Z"/>
  <path class="st4" d="M273.87,3.99c-6.34,2.73-13.13,4.66-20.38,5.78-55.31,17.22-109.38,39.33-162.21,66.35-3.18,1.29-6.46,2.25-9.83,2.89C119.38,23.68,185.81-2.14,251.94.77c5,.22,14.41.67,18.95,1.82,1.46.37,1.83.72,2.97,1.4Z"/>
  <path class="st3" d="M273.87,3.99c4.98,2.97,5,7.35,2.4,11.97-23.82,3.69-47.21,12.37-69.66,20.95-37.12,14.18-72.21,31.96-108.37,48.11-1.32.59-2.46,1.35-4.01,1.17-5.1-1.45-9.84-4.4-13.57-5.59-.05-.77.46-1.1.8-1.6,38.13-18.02,76.21-36.38,115.57-51.67,24.71-9.6,50.56-19.44,76.85-23.34Z"/>
</svg>