<?xml version="1.0" encoding="UTF-8"?>
<svg id="Layer_1" xmlns="http://www.w3.org/2000/svg" version="1.1" viewBox="0 0 384 384">
  <!-- Generator: Adobe Illustrator 29.6.1, SVG Export Plug-In . SVG Version: 2.1.1 Build 9)  -->
  <defs>
    <style>
      .st0 {
        fill: #ef4424;
      }

      .st1 {
        fill: #fdd400;
      }

      .st2 {
        fill: #fcce00;
      }

      .st3 {
        fill: #eee1dc;
      }

      .st4 {
        fill: #fe5426;
      }

      .st5 {
        fill: #ef4525;
      }

      .st6 {
        fill: #ccbeb9;
      }

      .st7 {
        fill: #e0d2cd;
      }

      .st8 {
        fill: #fe5326;
      }

      .st9 {
        fill: #564f57;
      }
    </style>
  </defs>
  <path class="st1" d="M241.5,367.5c7.93,1.06,28.09,6.07,16.5,16.5h-4.5c-15.72-6.31-29.96-5.65-45.75,0h-3.75c-2.73-1.81-4.64-4.75-3.2-8.05,2.61-5.98,22.48-10,28.7-9.19.02-8.24-.04-16.51,0-24.75l-.99-2.47c-.83-8.24-.74-16.74-.28-25.05.26-4.61,10.92-7.23,13.32-1.32.88,2.15.83,23.01.78,26.62,0,.27-.5.54-1.13.8l.31,26.92Z"/>
  <path class="st0" d="M89.25,0c16.98,5.3,21.51,26.95,6,36.75-1.2,1.93-8.48.06-9-2.25l-1.15-1.16c6.48-11.67,5.77-22.84-6.05-30.53l-.29-2.06c.46-.21,1.18-.06,1.5-.75h9Z"/>
  <path class="st3" d="M86.25,34.5c2.23.56,7.29,1.59,9,2.25,37.17,14.34,48.15,59.11,67.18,89.94,6.1,9.89,14.97,16.39,26.91,17.34,45.87.45,91.8-.69,137.65-.03l.77,2.2c-4.46,9.65-8.11,17.63-9.27,28.33-1.65,30.85-3.5,60.5-20.46,87.49-34.37,54.67-109.29,58.37-164.87,38.57-17.88-6.37-35.73-15.79-48.41-29.1-10.47-18.94-21.32-51.86-27.76-73.11-8.45-27.86-9.28-56.95.03-84.75,0-.16-2.46-.95-3.01-1.14-.36-1.13.32-1.91,2.03-2.33l7.9-19.78c2.47-5.82,3.39-9.46-2.98-12.98l-.2-1.65c-8.07-3.59-18.52-11.86-19.5-21-.04-.14-.02-2.65,0-3-2.73-2.63.03-8.59,1.86-11.55,8.03-13.01,29.55-10.54,42.29-7.45l.85,1.75Z"/>
  <path class="st7" d="M327,144c11.55.17,25.9-1.84,29.49,12.89,3.01,12.35-12.56,30.22-14.3,43.93-2.69,21.28-1.07,38.55-7.16,60.34-12.76,45.71-45.95,74.43-93.5,79.38l-.04,26.96-1.3-53.82c-2.79-4.03-8.45-3.15-10.54,1.1-.32,9.07-.11,18.16-.15,27.22-5.85-.2-11.77.28-17.62,0-9.52-.46-23.37-1.82-32.63-3.74-1.38,1.93-8.92-.32-10.91-1.34l-.34-1.66c-34.48-9.92-65.83-32.23-83.25-63.75l22.27,15.61c61.89,34.86,162.07,35.89,196.11-37.6,12.75-27.53,11.53-49.18,14.13-78.12.85-9.47,6.53-18.61,9.74-27.39Z"/>
  <path class="st4" d="M86.25,34.5c-17-4.25-43.74-6.6-45,17.25-19.32-.51-18.66-27.71.75-27-.7-10.76,9.05-18.44,19.54-16.17,1.64.35,4.12,2.19,5.47,1.98.32-.05,2.95-4.46,3.86-5.31,1.82-1.69,5.54-3.47,7.87-4.51,8.44,5.94,13.59,12.29,11.67,23.29l-4.17,10.46Z"/>
  <path class="st1" d="M179.25,338.25l-9.74,28.48c5.18,1.13,24.32,5.84,17.67,14.33-3.88,4.96-12.72-1.54-18.41-2.71-8.41-1.73-16.49-1.56-24.77.78-3.7,1.05-9.83,4.92-12.97,3.97s-4.37-5.19-3.14-8.09c2.42-5.69,23.43-9.89,29.5-9.12l10.6-30.65c2.94.85,8.55,2.44,11.25,3Z"/>
  <path class="st8" d="M58.5,75.75l1.74.73c2.63,9.5,3.45,24.43-6.54,29.93-2.26,1.25-6.23,3.25-7.95.84-.47-.65-1.26-.76-1.89-2.22-3.95-9.15-1.1-20.05,1.14-29.28,3.26-2.3,10.39-2.57,13.5,0Z"/>
  <path class="st2" d="M60.75,75.75c-.36,2.07-1.49,1.92-2.25,0-4.37-.27-9.07.07-13.5,0-10.82-.18-25.5,2.65-13.48-12.36,2.53-3.16,6.35-6.45,9.73-8.64.03.09,1.01.46,1.33,1.27,3.94,10.26,10.75,12.45,18.17,19.73Z"/>
  <path class="st5" d="M60.75,75.75c2.08.39,6.27,4.52,6.63,6.55.89,4.94-8.99,23.15-10.15,29.27l-3.24.93c-2.19-.74-4.76-1-6.74-2.65-1.4-1.16-1.05-1.96-1.51-2.6,16.61-1.55,16.32-18.92,12.75-31.5.73.05,1.6-.12,2.25,0Z"/>
  <path class="st7" d="M273,166.5c5.92,5.96,2.54,19.76-2.71,25.4-14.47,12.92-28.65,26.23-42.52,39.93-20.1,20.14-52.21,32.18-75.53,10.42-21.87-33.41.79-76.1,40.09-78.78,19.2-1.31,50.74-1.5,69.81,0,3.97.31,7.32,1.31,10.85,3.03Z"/>
  <path class="st6" d="M152.25,242.25c10.41,7.44,22.75,10.9,35.61,9.74,29.32-2.65,58.6-43.9,81.37-61.13,5.55-7.11,6.68-15.87,3.77-24.36,10.37,5.05,14.79,15.22,13.42,26.54-1.04,8.6-8.25,14.7-14.16,20.34-12.39,11.84-26.75,24.84-39.75,36-26.09,22.4-60.28,23.39-80.26-7.14Z"/>
  <path class="st9" d="M69.56,48.14c7.22-.63,8.54,10.56,2.04,11.84-9.79,1.94-10.09-11.15-2.04-11.84Z"/>
</svg>