<?xml version="1.0" encoding="UTF-8"?>
<svg id="Ebene_1" xmlns="http://www.w3.org/2000/svg" version="1.1" viewBox="0 0 998 1007">
  <!-- Generator: Adobe Illustrator 29.5.1, SVG Export Plug-In . SVG Version: 2.1.0 Build 141)  -->
  <defs>
    <style>
      .st0 {
        fill: #bfbfbf;
      }

      .st1 {
        fill: #630;
      }

      .st2 {
        fill: #fefefe;
      }

      .st3 {
        stroke: #585858;
        stroke-miterlimit: 10;
      }
    </style>
  </defs>
  <path d="M.23,301c-.21-14.52,5.1-26.71,13.07-38.56,17.57-23.24,29.04-43.46,37.13-71.67,12.01-59.95,30.18-117.39,89.54-144.73l45.72-17.7C235.26,2.25,286.02-1.75,341.36,1.02c36.37,1.82,72.25,9.53,104.2,27.22,16.08,13.11,33.45,17.77,53.95,19.73,60.63,13.45,119.44,80.06,147.59,133.24,40.6,76.69,12.61,137.59-36.94,201.75l-3.28,1.13c45.01-.32,90.4,2.15,135.42,5.23,42,2.88,82.97,8.24,119.95,26.39,38.25-46.55,41.16-112.21,10.39-164.88-15.16-29.54,4.29-53.53,37.03-43.77,51.99,15.51,91.08,80.29,87.35,133.92.89,4.2.88,8.8,0,13,2.73,51.2-25,100.6-62.05,133.69,23.1,51.41,25.64,109.65,26.89,165.83,2.56,26.86,11.58,48.06,23.68,71.82,11.09,22.17,12.36,46,12,70.36-.69,42.75-1.05,85.3-1.07,127.63-.49,44.52-54.82,56.01-90.77,57.93-41.67,2.22-104.01-4.39-104.06-58.65-.03-29.24,18.39-44.74,40.44-59.45,5.45-5.03,6.99-8.67,8.33-15.77,2.34-12.33,4.93-40.54-2.29-50.95-4.84-6.98-11.89-12.22-18.73-17.18-28.75-17.22-53.84-39.85-70.47-70.01-2.05.48-16.58,7.17-16.35,8.25,18.45,31.95,24.48,65.98,20.89,102.88-2.29,23.36-3.48,46.54-3.58,69.56-3.01,57.15-66.59,69.6-113.49,64.04-33.44-3.96-69.06-21.3-62.93-60.68,3.98-25.57,17.58-38.03,35.65-53.81,15.44-17.47,12.73-34.79.04-53.05-2.02-2.9-14.88-20.88-15.98-21.65s-25.41,2.69-26.14,3.91c-.6,1.01-.86,2.17-1.09,3.33-5.06,56.67-9.25,113.02-12.58,169.07-6.54,53.14-37.77,64.28-85.23,65.91h-40.99c-38.13-1.4-80.78-17.72-76.71-63.07,2.1-23.33,14.46-36.29,31.88-49.5,10.31-8.68,10.85-21.12,10.16-33.96-1.81-30.76-4.07-61.74-6.8-92.93-7.75-2.11-15.57-4.52-23.46-7.22-6.11,54.7-11.9,109.43-17.36,164.21-9.69,47.52-65.91,59.09-107.54,58.09-37.8-.91-82.4-11.11-87.29-55.58-3.45-31.39,15.35-53.12,41.57-66.04,7.09-4.66,9.24-11.46,10.84-19.5,2.91-14.62,3.9-30.26,4.59-45.2,2.17-47.42,3.9-96.3,5.17-144.43.13-4.92-.83-9.94-1.82-14.71-17.46-48.97-14.99-102.95-9.47-154.24-10.33,1.99-23.43-.09-34.2-2.12-32.42-6.11-64.32-19.46-79.24-50.08-29.08-2.87-46.93-25.07-56.1-51.12C19.82,367.35,1.14,349.22.23,322c.52-6.74-.71-14.4,0-21Z"/>
  <path class="st0" d="M998,354h-1c.14-4.27.16-8.73,0-13h1v13Z"/>
  <path class="st2" d="M972.01,832l-3.9,1.45-36.41-5.77c-18.03-2.59-36.38-2.54-54.04,2.1-.83-1.58-.76-3.14-.63-4.78.17-11.44.57-27.38-3.51-37.99-6.12-15.9-22.91-22.14-35.79-31.2-45.68-32.12-74.45-79.32-83.35-134.63-1.14-7.06-1.4-26.38-5.28-30.72-6.32-7.07-18.98-3.59-20.79,6.26-1.69,9.18,4.09,34.93,6.45,45.09,3.36,14.47,8.34,28.16,13.25,42.11-53.73,27.75-111.52,50.34-171.9,58.08.05-5.47.48-11.05,1.02-16.49,1.04-10.5,9.22-39.24-8.51-39.32-8.55-.04-10.86,7.74-12.2,14.6-9,46.03-8.46,106.65-11.29,154.2-1.49.81-3.07,1.24-4.75,1.26-25.33-4.37-50.62-8.69-76.4-8.83-11.91-.07-23.41,1.31-32.89,8.73l-2.93-.16c-.13-29.9-3.91-64.5-7-94.5-1.92-18.59-3.79-40.75-7.11-58.88-.96-5.24-2.27-12.17-8.04-13.95-8.71-2.7-16.27,2.57-15.85,11.8.24,5.38,5.36,39,4,40.53-55.04-15.27-109.85-41.99-139.13-93.32-29.04-50.89-24.82-110.38-18.83-166.67,17.61-1.27,35.38-3.78,52.2-9.29,9.24-3.02,33.49-10.69,23.8-24.23-7.55-10.55-31.99,3.42-41.79,6.23-35.91,10.29-102.53,9.74-133.1-14.3-4.29-3.37-7.95-8.26-12.06-11.92l22.49-14.24c10.89,9.71,21.81,16.74,36.06,20.66,32.25,8.88,63.63,1.83,88.41-20.41,7.85-7.05,25-23.16,10.49-32.52-12.96-8.36-21.33,11.72-29.97,19.03-29.69,25.11-79.34,19.03-96.36-17.67-2.59-5.58-7.86-21.74-5.47-27.15.92-2.08,13.96-3.69,17.33-4.7,39.49-11.9,55.29-55.1,7.75-69.77-11.91-3.67-29.84-6.49-42.24-5.73-49.56,3.06-57.5,48.51-16.82,72.8,2.5,1.49,8.78,3.02,9.81,5.19,1.36,2.85.16,9.62.62,13.38.81,6.59,6.93,20.91,5.45,25.66-1.57,5.06-18.1,11.98-23.33,12.7-46.67,6.4-51.82-60.91-41.52-92.53,9.71-29.8,39.93-42.3,47.78-72.21,5.26-20.05,3.37-41.06,5.5-61.5C136.91,27.25,311.81-6.06,429.8,50.82c11.43,5.51,21.36,14.72,33.11,17.88,11.66,3.13,24.37,3.56,36.19,6.8,55.15,15.11,115.32,86.98,134.72,139.25,19.56,52.7-9.41,113.69-44.22,153.26-55.96,63.61-150.8,58.84-155.53-39.47-2.91-60.56,20.93-122.52,17.09-183.09-.59-9.32-4.52-37.59-15.59-39.4-23.94-3.91-8.4,25.91-7.46,38.45,5.98,79.47-55.61,212.69,22.09,270.9,39.28,29.42,95.13,22.4,132.33-6.47,65.25,2.92,132.1-.34,196.86,9.2,74.64,10.99,129.9,48.42,147.12,124.85,11.38,50.49,1.51,105.21,18.74,154.26,7.27,20.7,21.71,41.02,25.47,62.53,4.13,23.65,1.72,48.59,1.27,72.23Z"/>
  <path class="st1" d="M545.1,855c-1.76,29.53-1.66,60.01-7.31,89.18-3.81,19.64-11.12,29.46-30.68,35.31-4.3,1.29-20.82,5.15-24.02,3.04-4.01-2.64-2.72-23.44-1.28-28.35,2.3-7.84,11.31-16.81,2.87-24.24-10.64-9.36-19.7,6.73-22.56,15.54-4.14,12.74-3.41,25.37-1.98,38.52-.96.98-24.42-.82-26.96-2.55-4.93-3.36-2.92-20.06-1.81-25.72,1.85-9.36,14.85-24.87,4.47-30.95-11.15-6.53-17.4,4.06-21.56,12.85-1.25,2.65-6.14,14.85-6.14,16.86v21.5c-26.97-4.85-27.75-33.94-12.97-52.48,7.03-8.81,20.93-14.32,26.52-24.47,6.22-11.29,6.5-30.32,6.45-43.05,6.61-5.86,15.65-9.28,24.46-10.04,29.83-2.55,63.15,4.39,92.52,9.04Z"/>
  <path class="st1" d="M239.17,824c1.95.33,5.02-.21,9.19-1.61,28.98-2.13,58.54,2.79,87.16,7.85.81.14,1.58.58,2.37,1.05s1.54,1.08,2.26,1.7c-2.65,25.71-4.46,52.84-9.29,78.21-6.65,34.89-24.77,40.58-57.68,44.8-3.2-10.42-3.49-21.34-.31-31.81,1.68-5.52,5.29-8.02,4.25-14.64-.96-6.13-7.42-8.45-13.01-7.14-14.34,3.37-16.18,40.7-13.93,52.58h-14.5c-.78,0-8.48-1.49-9.08-1.92-5.76-4.09-3.26-21.38-1.14-27.3,2.87-8.05,15.95-21.8,5.7-29.26-6.95-5.06-13.65.82-17.95,6-10.52,12.66-11.33,28.66-12.03,44.48-20.25-7.7-19.26-34.23-7.99-49.5,12.96-17.55,33.55-12.6,41.27-39.72,3-10.55,3.99-23.4,4.72-33.78Z"/>
  <path class="st1" d="M972.01,832c-.49,25.85-1.31,51.62-1.04,77.54.04,3.95,1.43,7.3,1.02,11.95-2.2,25.43-32.69,33.63-53.97,32.51-.14-5.65-1.53-10.6-.89-16.4.97-8.76,10.77-19.55,4.9-27.12-3.56-4.59-13.24-5.07-17.03-1.01-1.74,1.86-6.76,12.78-7.5,15.5-.28,1.05-1.48,6.97-1.48,7.52v23.5l-28.99-2v-21.5c0-3.98,8.4-13.15,9.03-18.98,1.14-10.61-7.76-16.06-16.74-10.73-10.4,6.18-15.47,33.75-15.29,45.21-18.17-4.53-20.4-24.75-13.49-39.99,9.95-21.94,39.42-24.12,44.38-52.61,1.63-9.38,1.97-21.46,2.11-30.39.14,2.28-1.1,3.49,2.09,2.6,30.51-8.59,62.31.04,92.89,4.4Z"/>
  <path class="st2" d="M917.04,466.99c-7.44-15.62-22.45-25.33-34.99-36.5,39.18-45.3,46.93-110.23,24.46-165.48-2.19-5.38-17.52-31.34-14.38-34.92,4.7-5.35,32.02,10.24,37.22,14.07,62.64,46.18,54.39,168.27-2.32,216.34-1.29,1.09-8.99,7.2-9.99,6.48Z"/>
  <path class="st2" d="M239.17,824c2-28.38,3.38-57.09,4.99-85.51,1.1-19.47.92-39.06,2.51-58.49,25.55,32.61,61.19,56.72,100.35,70.13-.52,12.09-.96,24.28-1.87,36.35-1.17,15.53-3.39,31.04-4.99,46.51-28.74-4.48-59.28-10.62-88.52-9.04-3.19.17-6.14,1.32-9.25,1.77-1.94.28-3.7,1.31-3.21-1.73Z"/>
  <path class="st1" d="M737.06,808c-.79,28.01,3.18,64.53-4.51,90.99-5.99,20.64-23.15,25.48-42.48,29.01-1.05-6.79-1.32-12.47.28-19.23,1.98-8.36,11.06-15.61,3.26-22.82-5.56-5.14-12.42-3.36-17.06,2.01-1.6,1.84-8.47,15.93-8.47,17.53v24.5l-23.11-2.58c-2.14-8.6-.82-17.68,2.09-25.94,2.15-6.12,11.84-19.71,1.76-23.72-7.82-3.12-14.19.47-18.57,6.91-6.54,9.61-8.25,24.01-9.17,35.34-13.02-4.68-13.35-21-9.93-32.45,4.96-16.59,22.1-24.9,32.45-37.54,9.95-12.15,13.34-31.73,10.49-47.01.38-.62.79-1.21,1.29-1.71,8.15-8.14,65.76,1.55,78.76,4.32l2.93,2.39Z"/>
  <path class="st2" d="M654.08,803c-3.28-17.53-15.65-33.53-25.97-47.51l89.34-29.57c9.12,16.94,19.22,34.83,20.65,54.54.67,9.27-.78,18.38-1.04,27.54-27.12-3.25-55.92-12.41-82.98-5Z"/>
  <path class="st2" d="M135.19,78.01c-7.11,15.2-17.83,28.58-24.46,44.03-14.11,32.88-10.06,64.53-15.66,98.33-4.5,27.17-17.67,31.04-32.27,50.72-16.21,21.85-23.2,47.94-25.08,74.91-13.59-15.07-16.54-33.25-10.53-52.53,5.26-16.87,18.19-28.4,26.83-43.16,33.16-56.64,21.31-123.53,77.68-170.31,1.13-.93,1.62-2.42,3.5-1.99Z"/>
  <path d="M304.94,187.21c17.4-1.4,25.3,20.24,25.3,34.29,0,17.34-15.26,42.16-34.79,30.71-21.02-12.32-14.79-63.05,9.49-65Z"/>
  <path class="st3" d="M154.92,177.24c23.21-4.26,27.74,27.84,24.02,44.01-1.9,8.26-9.97,21.75-19.22,22.77-31.68,3.51-27.35-62.64-4.79-66.79Z"/>
</svg>