<?xml version="1.0" encoding="UTF-8"?>
<svg id="Ebene_1" xmlns="http://www.w3.org/2000/svg" version="1.1" viewBox="0 0 384 384">
  <!-- Generator: Adobe Illustrator 29.5.1, SVG Export Plug-In . SVG Version: 2.1.0 Build 141)  -->
  <defs>
    <style>
      .st0 {
        fill: #bfbf80;
      }

      .st1 {
        fill: #b47a4e;
      }

      .st2 {
        fill: #e9e9d4;
      }

      .st3 {
        fill: #b1af5b;
      }

      .st4 {
        fill: #9e9a52;
      }

      .st5 {
        fill: #dfa968;
      }
    </style>
  </defs>
  <path class="st4" d="M384,112.28v11.98c-2.17,9.95-6.51,18.1-12.13,26.45-2.02,3-4.93,5.61-6.94,8.8-6.88,10.94-8.87,23.91-7.19,36.61-.55.62-6.5-2.95-7.5-3.74-2.74-4.49-1.6-11.06-.58-16.15,2.37-11.88,8.36-20.27,15.92-29.33,12.9-19.76,15.21-42.85-5.56-58.04.78,5.64,3.67,29.94-.51,33.17-2.66,2.06-6.69-.78-6.54-3.91.6-10.36.29-20.4-3.24-30.51l.5-3.02c-11.66-36.73-41.56-51.51-78.75-53.15-6.02-.97-12.59-.59-18.75,0-1.5.03-3.01-.03-4.5,0,3.6,2.32,8.38,9.37,11.72,11.13,2.04,1.07,2.96.58,4.78.84,1.37,1.11,1.42,1.88,0,2.99,4.39,2.77,13.23,14.49,11.12,19.67-4.47,10.97-17.93-13.53-18.62-18.17-3.38-4.32-10.22-12.33-15.22-14.43-2.53-1.06-9.14,1.59-11.98,2.62-40.73,14.84-63.81,58.3-68.8,99.38.91.96,8.24-7.24,9.39-8.21,3.18-2.67,6.07-4.04,9.35-6.01,2.38-.92,7.76,5.12,6.75,7.49-13.47,7.41-26.4,25.29-28.5,40.42-.77.29-1.54.29-2.32.05-1.05-.32-14.32-13.33-15.84-15.1l-.59-2.17c1.68-14.44,3.83-31.39,8.43-45.11,2.14-6.37,3.17-4.72,1.73-12.57-4.11-22.48-21.25-39.25-43.91-42.63-.38-.44-.9-1.14-.67-1.49,1.63-2.45,6.04-7.42,8.92-7.49,16.31,4.13,28.72,13.04,37.14,27.68,2.14,3.72,3.51,8.28,5.44,11.78,1.64,2.98,3.4-3.58,4.54-5.54C191.23,24.95,243.68,1.94,301.49,24.34c23.14,8.97,40.4,23,51.14,45.52,1.19,2.49,2.68,8.67,4.02,10.21,1.47,1.69,10.32,6.25,13.46,9.03,4.66,4.13,8.21,8.91,11.04,14.43l2.86,8.75Z"/>
  <path class="st4" d="M45.75,59.88c1.12,1.09,1.58,2.81,0,3.74l-3.09,2.24c-30.36,6.94-33.72,38.44-25.61,63.81,1.11,10.92-.28,25.44-8.05,33.5-3.24,1.03-5.37,2.41-9,.75v-.75c5.55-6.45,9.14-17.38,9.74-25.84,1.37-19.36-10.08-31.95-.87-54.02,7.26-17.41,20.45-20.02,36.89-23.44Z"/>
  <path class="st5" d="M225,260.49c-3.92,1.39-7.82.55-12,.74l-9.75,98.06c-2.51.63-5.06,1.21-7.66,1.22-35.9.13-71.82.3-107.73.47-2.61-.24-5.14-.8-7.61-1.69l-10.5-98.06c-4.16-.22-8.11.67-12-.74l.53-1.5h165.79l.93,1.5Z"/>
  <path class="st1" d="M58.5,219.32c25.25-.3,50.5-.3,75.75,0,7.24-1.48,14.51-1.49,21.75,0,22.5-1.09,45-1.09,67.5,0,3.67.37,5.57,1.78,6.02,5.6.67,5.78.81,25.16-.06,30.66-.44,2.75-2.01,4.04-4.46,4.91H57.75c-3.97-1.45-4.01-4.71-4.4-8.71-.51-5.23-.75-25.39,1.05-29.45.49-1.11,2.78-3,4.1-3.02Z"/>
  <path class="st3" d="M306.75,249.26c-11.71-4.31-8.03-14.57-10.87-24.71-6.03-21.51-23.87-22.49-30.2-38.72-5.25-13.46,3.78-24.95,5.07-38.37l1.91-.17c8.08,8.23,14.24,18.01,18.47,29.34.75.94.46-2.5.19-3.32-3-9.1-7.56-16.53-12.79-24.49-.77-7.52,12.3.78,15.09,2.72,23.13,16.11,19.24,42.11,10.62,65.39-2.04,10-.32,20.29,3.14,29.78l-.64,2.54Z"/>
  <path class="st3" d="M350.25,84.58c2.37,7.45,4.09,13.07,4.53,21.3.14,2.57-.69,12.6-.11,13.52.69,1.07,2.57,2.54,3.87,1.53,3.24-2.51.93-30.34-.79-35.6,23.5,15,23.97,39.52,9.6,61.61-3.11,4.78-7.3,8.81-10.21,13.76-5.8,9.85-7.63,20.28-6.9,31.67-9.97-7.96-1.62-19.19-1.47-29.61.25-18.14-9.17-21.67-13.89-35.53-6.94-20.38,7.55-26.47,15.36-42.65Z"/>
  <path class="st3" d="M45.75,63.63c.31.2.6.42.8.7.53.73-6.03,10.55-7.22,11.94l-1.83.09.74,1.67c-1.74,1.36-12.62,22.45-9.05,22.7,3.61-6.42,7.01-12.99,10.21-19.71l1.85-.17c-.09-2.91,1.41-5.72,4.48-8.44,2.37-3.72,5.13-5.9,8.27-6.53-.29,12.58,7.53,24.29,2.39,36.45-6.94,16.41-25.67,15.84-34.25,36.92-4.19,10.28-1.32,20.18-13.14,23.94,5.14-10.57,7.87-20.53,6.66-32.47-.59-5.86-3.23-11.85-3.69-18.03-1.89-25.44,7.57-43.88,33.78-49.06Z"/>
  <path class="st4" d="M180,121.26c28.68-17.23,60.84-11.77,85.51,10.09,1.89,1.67,9.09,10.18,9.74,10.49,1.6.78,7.33,1.3,9.91,2.08,26.01,7.89,34.44,26.84,29.49,52.96-1.7,8.98-6.31,17.03-6.45,26.52s3.53,18.45,6.79,27.34c-3.25.52-5.42-.45-8.25-1.49-3.85-9.76-5.99-20.41-4.31-30.88,1-6.2,4.17-12.28,5.46-18.5,4.74-22.77-.67-41.54-22.88-51.32-1.82-.8-7.25-3.63-4.73.33,4.14,6.52,11.17,16.97,12.63,24.73.42,2.22.62,5.88-2.68,4.17-1.13-.59-6.98-14.67-8.67-17.55-3.67-6.25-6.37-8.12-10.81-12.79-14.22-14.94-29.41-24.03-51-25.45-3.19-.74-6.56-.74-9.75,0-7.17.47-16.94,3.27-23.25,6.74l-6.75-7.49Z"/>
  <path class="st1" d="M80.25,359.3c40.67,1.31,82.46-1.75,123,0,1.35.06,4.11-.45,4.93.7s.66,9.03-.8,9.03H75.38c-1.98,0-2.7-12.82,4.88-9.73Z"/>
  <path class="st4" d="M158.25,169.17c-2.19,15.76-1.9,33.47-2.25,49.4.65.21.65.46,0,.75-7.24-.01-14.51-.01-21.75,0-.65-.21-.65-.46,0-.75,1.87-22.16,2.68-44.53,5.25-66.62,7.14,4.34,12.08,12.11,18.75,17.22Z"/>
  <path class="st3" d="M291.75,110.04c-7.94-2.04-6.41-8.99-9.62-15.48-6.32-12.79-19.1-12.27-24.27-22.19-4.45-8.53.09-15.51-.61-24.46,3.72,4.76,9.2,15.2,12.73,18.36,2.24,2,4.38,1.65,4.58-1.51.47-7.17-8.07-13.18-9.81-18.35,2.93-2.6,9.02.66,12.07,2.65,13.94,9.13,12.79,25.69,10.86,40.25-.66,6.87,1.81,12.85,4.9,18.8l-.82,1.92Z"/>
  <path class="st4" d="M114,42.67l-8.25,8.98c-19.54-2.91-37.31.73-51.75,14.22-4.49,4.2-9.41,9.83-12.75,14.97-2.05,1.22-4.89-2.56-3.75-4.49,1.28-2.14,8.2-11.97,8.25-12.73.04-.59-1.48-2.46,0-3.74,6.75-1.41,12.53-8.43,19-12.1,15.27-8.67,32.38-9.39,49.25-5.11Z"/>
  <path class="st4" d="M264.75,43.42c11.34,1.61,19.66,4.16,24.36,15.73,6.27,15.44-2.68,27.8,3.99,43.17,1.07,2.47,3.87,5.45,4.64,7.35.97,2.42-5.15.58-5.99.36-1.59-3.99-3.95-7.68-4.91-11.94-2.1-9.31,1.2-17.83.44-27.39-1.02-12.74-9.43-23.03-22.53-24.3-.38-1.12-.83-1.43,0-2.99Z"/>
  <path class="st2" d="M134.25,218.57v.75c-25.24.04-50.51-.03-75.75,0l75.75-.75Z"/>
  <path class="st0" d="M223.5,219.32c-19.9-2.03-46.77.04-67.5,0v-.75l67.5.75Z"/>
  <path class="st2" d="M271.5,31.44c-6.04-.27-12.68-.12-18.75,0,4.37-1.33,9.98-.81,14.64-.76,1.27.01,3.34-.48,4.11.76Z"/>
  <path class="st2" d="M219.75,122.01c-2.94-.19-6.81-.19-9.75,0,2.58-1.27,7.22-1.26,9.75,0Z"/>
  <path class="st4" d="M41.25,80.84c-2.3,3.54-9.56,19.95-10.85,20.98-2.6,2.08-3.43-2.39-3.1-4.52.97-6.19,7-15.62,10.2-20.95l3.75,4.49Z"/>
</svg>