<?xml version="1.0" encoding="UTF-8"?>
<svg id="Ebene_1" xmlns="http://www.w3.org/2000/svg" version="1.1" viewBox="0 0 133.44 133.44">
  <!-- Generator: Adobe Illustrator 29.5.1, SVG Export Plug-In . SVG Version: 2.1.0 Build 141)  -->
  <defs>
    <style>
      .st0 {
        fill: #f8bf8d;
      }

      .st1 {
        fill: #237862;
      }

      .st2 {
        fill: #f4a119;
      }

      .st3 {
        fill: #9384ba;
      }

      .st4 {
        fill: #edaf32;
      }

      .st5 {
        fill: #fcd093;
      }

      .st6 {
        fill: #52b09e;
      }

      .st7 {
        fill: #eec76d;
      }

      .st8 {
        fill: #8dc9b7;
      }

      .st9 {
        fill: #aa9bca;
      }

      .st10 {
        fill: #604594;
      }

      .st11 {
        fill: #bcc890;
      }

      .st12 {
        fill: #f3c777;
      }

      .st13 {
        fill: #6f62a4;
      }

      .st14 {
        fill: #f3d79b;
      }

      .st15 {
        fill: #54b69d;
      }

      .st16 {
        fill: #9eb9c3;
      }

      .st17 {
        fill: #604393;
      }

      .st18 {
        fill: #2da68f;
      }

      .st19 {
        fill: #1f765f;
      }

      .st20 {
        fill: #ab9dcb;
      }

      .st21 {
        fill: #ee7b17;
      }

      .st22 {
        fill: #28a98c;
      }

      .st23 {
        fill: #dcd6ec;
      }

      .st24 {
        fill: #fefefe;
      }

      .st25 {
        fill: #67579d;
      }

      .st26 {
        fill: #29a98d;
      }

      .st27 {
        fill: #746b9d;
      }

      .st28 {
        fill: #afd5ca;
      }

      .st29 {
        fill: #b8e0d6;
      }

      .st30 {
        fill: #f5a017;
      }
    </style>
  </defs>
  <path class="st17" d="M75.77,3.22c.16.19.16.3,0,.3.93.49,1.04.89.32,1.21.34.14.52.43.57.85,14.92,3.05,16.31,17.76,12.53,29.54-2.38,7.42-5.09,14.88-8.64,21.86-.54,1.95-1.42,4.33-2.86,5.74l-.26-.45,1.85-4.38-.29-.84c3.73-8.53,7.76-17.93,8.99-27.15,1.61-12.09-5.65-21.93-19.24-20.1.13,1.59.08,3.17-.13,4.75l-.8.15-.61-.13c.06,9.34-.05,18.65-.34,27.92.47,3.03.5,6.33,0,9.36-.36,8.87-.38,17.84-.31,26.81-.07,1.31-1.09,2.09-1.92.79l-2.2-69.03c-8.48-3.47-19.23,4.11-18.8,13.11l-.65.85c.66,1,.98,2.23.96,3.69,1.96,8.89,4.72,17.96,8.13,26.71l10.85,28.06c-1.17,2.53-3.77-3.18-3.39-4.7-2.62-4.69-4.53-9.79-6.37-14.8-4.46-10.19-9.13-20.95-11.88-31.74-2.24-8.8-2.57-17.44,6.38-22.83-.83.66-1.54.82-2.14.5-.36-.93.36-1.73,2.15-2.42l4.04-1.82c.51-.8,1.1-1.4,1.77-1.8,2.92-4.02,13.94-3.7,18.31-2.12,1.56.56,2.76,1.69,3.97,2.12Z"/>
  <path class="st15" d="M53.49,3.22c-.42.58-.51,1.51-.96,1.96-1.24,1.21-5.85,2.06-6.99,4.08l.1.7c-2.1,1.83-3.79,4.15-4.8,6.68l-.71.17c-1.42,3.95-1.02,8.06-.12,12.06.81,3.59,1.95,7.14,3.3,10.59.49-.04.72.64.32.91l1.27,3.32c2.76,6.46,5.44,13.06,7.96,19.63,2.29,5.55,4.52,10.48,6.68,14.8.82,1.76,1.86,3.46,2.55,5.28l.25-.53c-5.69-14.58-11.92-29.32-16.33-44.32-1.31-4.46-3-9.58-3.02-14.2,1.72-.95,2.14,1.04,2,2.39,2.12,7.91,4.23,15.82,6.33,23.71,3.38,6.15,6.03,12.69,7.93,19.61l4.26,10.26c.54,1.44.75,2.75.82,3.53-.97.96-3.15.95-4.14,0-.33-.28-.65-.57-.94-.89-.79-.87-3.89-5.98-3.97-6.58-.03-.24-.02-.47.13-.69l-1.05-.99c-7.04-11.45-13.21-23.68-18.86-35.64-6.62-14.03-7.69-25.47,9.09-33.14,2.87-1.13,5.8-2.33,8.91-2.72Z"/>
  <path class="st30" d="M73.22,89c1.4-.76,3.12-.95,5.15-.57,2.05-.12,3.73.27,5.04,1.17l.96-.44c2.03.09,8.14,2.36,9.55,3.69.25.24.29.63.31.98l.91-.06c2.1,1.8,3.63,4.23,4.5,6.71-.31,1.59,1.26,5.11,1.55,7.13.55,3.74.26,7.94-.36,11.67-.43,2.57-2.21,10.47-3.36,12.52-1.55,2.78-6.02,1.77-6.37-1.05-.22-1.78,2.55-9.2,3.03-11.79.29-1.57.69-3.78.75-5.34.03-.67.2-1.67-.66-1.97l-.51-.52c.38-2.99-.47-6.46-2.18-8.98l.14-.77c-2.1-2.94-4.14-3.69-7.64-4.83-.96.26-2.02.17-3.18-.28-1.31,0-2.27-.31-2.86-.93-1.95.85-5.47,1.03-7.32,0-1.4.93-2.52-1.47-2.59-2.72-.17-2.65,2.7-5.31,5.14-3.62Z"/>
  <path class="st30" d="M54.44,95.94l-.75.68c-2.89.28-5.79.72-8.42,1.92l-1.02-.19c-1.92.96-2.99,1.87-4.46,3.32l.13.75c-1.53,1.37-2.5,3.03-2.89,4.99l-.73.3c-1.43,5.59-.08,10.11,2.59,15.21.83,1.59,4.38,6.16,4.43,7.3.14,2.99-4.09,4.09-6.39,1.8-6.84-6.83-10.48-22.12-5.73-30.65l-.16-.85c1.25-1.6,2.52-3.16,3.86-4.69l.75.11c-.11-.77.42-1.39,1.58-1.84l5.91-3.17.79.18c.37-1.35,1.5-1.76,3.39-1.25,2.99-.61,5.97-.84,8.92-.68,5.4.97,3.97,9.33-1.81,6.76Z"/>
  <path class="st7" d="M53.17,77.22c1.9,1.32,3.73,4.12,3.82,6.34-.15.2-.25.37-.19.41,2.51,1.8,5.84,2.48,8.9,1.84,1.13-.24,4.21-1.13,3.71-2.24-.42-.68.78-2.47,1.59-2.72,1.39.17,2.5,3,2.83,4.3.29,1.17.79,3.41-.6,3.86-.96.06-1.68-.06-2.63.37-2.54,1.16-2.5,4.97.09,5.97.14.18.34.44.25.58-.42.65-3.98,5.45-4.28,5.66-.34.24-.66.35-1.07.4.45.42.25.6-.32.3l-.6.4c-3.85-1.46-7.1-3.48-10.26-6l.03-.74c2.36-.24,4.37.44,4.48-2.87.2-5.53-8.53-2.76-11.68-2.6-1.94.09-1.29-.97-3.31.64-.84-1.1-.13-4.94,1.27-5.44-.14-.08-.26-.17-.33-.29-.26-.42,2.85-5.62,4.15-5.15,1.04-1.07,2.73-2.42,4.14-3.02Z"/>
  <path class="st21" d="M99.64,100.47c-.77.16-.66-.37-.9-.79-1.3-2.33-2.28-4.17-4.51-5.85l-.47-.78c2.23-9.25-2.17-13.29-11.33-8.56l-.61-.33c-.21.13-.54.31-.66.19-.62-.57-4.7-5.08-4.64-5.42l.53-.51c13.2-7.66,27.77-3.14,25.07,13.36-.48,2.95-1.91,5.89-2.47,8.68Z"/>
  <path class="st29" d="M44.57,5.93c-1.83,1.38-3.95,2.33-5.73,3.77-13.27,10.71-5.61,23.08.27,35.4,4.85,10.17,10.66,20.79,16.29,30.6.37.87-1.58,1.87-2.23,1.21-7.62-13.42-19.84-33.31-23.71-47.72-3.11-11.59,4.61-19.11,15.12-23.26Z"/>
  <path class="st12" d="M84.05,96.55c-.95-.18-.56.45-.72.96-2.99,9.25-11.01,15.63-21.56,14.44-2.05-.63-2.15-.88-1.68-2.85.24-1.02,3.54-6.2,4.34-6.73.24-.16.56-.13.84-.09.08-.11.24-.19.32-.3l.7-.48c4.46.06,8.1-2.52,10.66-5.8l1.06-.37c2.56.13,3.69.43,6.05,1.21Z"/>
  <path class="st21" d="M49.03,80.24c-1.08,1.11-3.25,4.08-3.82,5.44l-.82.41c-7.16-1.99-12.23,2.21-8.49,8.97l-.24.89c-.44.38-4.16,4.91-4.46,5.44-4.76-6.52-7.67-16.39,1.27-21,5.13-2.65,11.21-1.7,16.56-.15Z"/>
  <path class="st4" d="M54.44,95.94l5.31,3.87,5.51,2.48c-1.22,1.71-5.36,6.6-4.73,8.55.17.52.9.72,1.23,1.12-6.08-.68-11.26-3.37-14.65-8.3-1.2-1.75-1.81-3.51-2.86-5.29,3.36-1.69,6.47-2.05,10.19-2.42Z"/>
  <path class="st19" d="M73.54,76.31c.06,1.78-.93,3.61-2.55,4.53-.48.81-1.55,1.59-1.59,2.72-.08.61-.39.58-.64,0,.17-1.46,1.34-3.32,2.23-4.53,3.74-7.72,7.44-15.47,11.09-23.25l1.01-1.22c3.63-7.26,6.88-14.67,9.93-22.16,5.9-14.49-1.97-23.28-16.56-28.12l-.69-.76s-.21-.06-.28-.15l.28-.15c4.83,1.73,7.81,1.84,12.51,4.89,15.28,9.9,9.21,21.51,3.14,34.58-5.22,11.25-11.68,22.82-17.88,33.62Z"/>
  <path class="st21" d="M94.23,111.65c-.57,1.64-5.51,7.92-7.08,8.53-2.92,1.13-6.17-1.22-5.58-4.08.26-1.27,3.67-4.31,4.78-5.75,2.15-2.78,3.74-5.9,5.34-8.98.31.43.65.56,1.01,1.3,1.1,2.26,2.36,6.6,1.53,8.97Z"/>
  <path class="st14" d="M77.04,78.42s.06.53.31.75l4.47,4.99c.65.15,2.37,4.79,2.23,5.03s-.37.35-.63.4c-3.16-.52-6.99-.79-10.19-.6.87-3.12-.65-5.56-2.23-8.16.87-1.48,1.69-3.04,2.55-4.53.7.78,1.72,1.3,2.58,1.94.3.22.84.12.92.17Z"/>
  <path class="st21" d="M36.3,107.72c.8-3.12,1.17-3.73,3.5-6.04,1.31,1.78,2.94,3.35,4.61,4.84,1.9,1.7,4.68,2.48,2.67,5.84-2.63,4.41-8.86-2.61-10.78-4.64Z"/>
  <path class="st11" d="M60.17,83.86c-.68.87-2.68.68-3.18-.3-1.18-2.15-2.61-4.22-3.82-6.34-.04-.08.04-.22,0-.3l2.23-1.21c.05.09.48.31.7.68,1.41,2.46,2.77,4.97,4.08,7.47Z"/>
  <path class="st15" d="M79.27,57.89c-1.11,2.82-2.34,5.6-3.78,8.29-2.28,4.27-4.87,8.9-8,12.55-.52-3.13-.48-6.53,0-9.67-.59-14.35-.42-28.72.32-42.89-.85-3.77-.86-7.71,0-11.48.78-.74.01-5.15.32-5.43,12.31-1.7,19.95,4.91,20.7,16.45.51,7.84-5.91,24.85-9.56,32.18Z"/>
  <path class="st15" d="M42.98,24.36c-.04-6.57,2.69-11.17,9.02-13.95,1.02-.45,4.25-1.64,5.23-1.69,1.61-.08,4.01,1.12,5.81.83l2.23,70.07c.58-.11.59-.59.65-1.05.59-4.96.13-11.49.29-16.64.02-.71.32-1.37.34-2.09.08-2.62-.35-5.5.31-8.02.47,2.98.52,6.09,0,9.06.3,5.84.4,11.67.32,17.51-.03-.7.2-.37.32.31.24.06.54.13.64.33.34.73-.33,2.79-.64,3.6.28.09.27.19,0,.3-.73.3-1.06-.13-.98-1.28-.31,1.23-.94,1.96-1.88,2.18-.06.27-.17.26-.32,0-1.01.18-.52-.48-.67-1.01-1.09-3.95-3.39-8.38-4.9-12.28-1.67-4.33-3.66-12.02-5.73-15.71-1.1-1.96-2.02-2.73-2.64-5.35-.69-2.93-1.24-5.67-2.12-8.56-1.48-4.82-3.02-9.09-3.91-14.11-.19-1.05.58-1.92-1.37-2.48Z"/>
  <path class="st22" d="M83.09,54.56c-.28-.27-.29-.51-.16-.82,3.44-8.16,6.3-15.05,8.46-23.65.08-.3.28-.5.61-.6,1.25-4.17.56-8.38-.95-12.38-.43-.29-.75-.79-.95-1.51-.32,0-.65-.08-.8-.34-3.1-5.36-5.87-8.38-12.57-9.78l-.64-.75c0-.08-.25-.98-.32-1.21,7.77,2.35,16.01,6.83,19.02,14.42,2.04,5.13.86,8.89-.87,13.83-2.73,7.77-7.03,15.46-10.83,22.8Z"/>
  <path class="st9" d="M45.53,9.26c.77-.54,5.85-3.14,6.61-3.27.83-.15,1.17.12,1.67.71-9.37,2.94-14.3,9.08-13.33,18.69s8.68,28.06,12.69,37.94c-.09.26-.2.26-.32,0-2.71-6.5-5.73-12.96-7.96-19.63l-1.27-3.32c-.1-.33-.24-.63-.32-.91-.95-2.47-1.84-4.97-2.52-7.51-1.34-4.98-2.46-10.13-.66-15.14.62-2.29,3.38-6.11,5.41-7.55Z"/>
  <path class="st9" d="M90.09,15.6c2.76,6.97,1.83,14.74-.58,21.7-2.23,6.42-4.88,12.83-7.8,19.07l-.86.91c-.34.43-.45.33-.32-.3,2.86-6.63,5.97-14.34,8.04-21.21,3.24-10.74,3.52-23.97-9.23-28.85-.67-.26-3.48-.84-3.59-.98-.12-.16.34-.89.32-1.2,4.72.93,9.4,3.19,12.04,7.15.77,1.15,1.29,2.52,1.97,3.72Z"/>
  <path class="st26" d="M77.68,62.72c.11.23.18.44.12.61-1.73,4.52-4.03,9.15-6.49,13.29l-2.95,5.56c-.15.36-.45.51-.87.48v-3.93c3.84-6.95,8.24-13.75,11.78-20.84-.5,1.53-.99,3.37-1.59,4.83Z"/>
  <path class="st20" d="M66.86,42.48l-.32-32.75c.04-.3,1.23-.22,1.28-.18.2.18,0,4.4,0,5.14.03,3.82,0,7.66,0,11.48l-.63,15.96-.32.35Z"/>
  <path class="st28" d="M67.49,69.06l-.33.13c-.08-2.75-.18-5.51-.3-8.28,0-3.01-.04-6.05,0-9.06s-.07-6.25,0-9.36c.06-2.62.62-5.56.31-8.32l.65-7.99c0,5.58-.28,11.22-.33,16.75-.08,8.71.09,17.43.01,26.14Z"/>
  <path class="st23" d="M73.54,6.54c-.19-3.81-5.66-4-8.6-4.98,2.68-2.23,10.79.48,9.25,4.24-.13.32-.22.71-.65.75Z"/>
  <path class="st3" d="M80.86,57.28l-.27,1.66c-2.87,6.55-6.07,12.95-9.6,19.18v-.3c-.3-.27-.2-.67.32-1.21,2.29-4.12,4.59-9.53,6.37-13.89,1.04-1.82,2.04-3.83,2.86-5.74l.32.3Z"/>
  <path class="st16" d="M59.53,78.12l-.4.23c-2.26-4.95-4.2-10.02-6.29-15.03h.32c1.99,4.9,4.13,10,6.37,14.8Z"/>
  <path class="st2" d="M56.99,83.56c1.06.1,2.04.25,3.18.3,1.46.07,2.83.02,4.14,0,.11,0,.21,0,.32,0,.71-.72,1.68-.95,2.23,0,.66-.77,1.09-.77,1.27,0,.22-.36.44-.47.64-.3.21-.01.43.01.64,0,.44-.02,1.27-.12,1.59.15-3.94,3.92-11.35,3.91-15.28,0,.16-.27.96-.18,1.27-.15Z"/>
  <path class="st25" d="M43.3,39.46c-1.32-2.6-2.37-5.86-3.09-8.69-1.19-4.67-2.15-9.33-.09-13.96-2.08,7.69,1.04,15.32,3.18,22.65Z"/>
  <path class="st13" d="M44.89,43.69c-.9-.87-.95-2.22-1.27-3.32.92.8.93,2.28,1.27,3.32Z"/>
  <path class="st24" d="M94.23,93.83c-2.99-2.25-7.09-3.62-10.82-4.23.22-1.1-2.13-4.89-1.59-5.44.44-.44,4.5-1.87,5.33-2.04,8.43-1.71,8.45,6.01,7.08,11.7Z"/>
  <path class="st14" d="M78,95.34c-2.76,3.84-7.17,7.28-12.41,6.64.67-.92,4.66-6.55,5.09-6.64,2.43.09,4.9-.12,7.32,0Z"/>
  <path class="st5" d="M94.23,95.64c-1.43-.53-2.72-1.39-4.14-1.96-3.24-1.29-6.67-2.12-10.12-2.79l-5.48-.69c6.59-1.43,15.17.57,19.73,5.43Z"/>
  <path class="st24" d="M45.21,85.67c-.65,1.55-.93,3.78-1.27,5.44-2.06,1.65-6.12,2.94-8.28,4.83-4.57-8.07.98-12.7,9.55-10.27Z"/>
  <path class="st5" d="M52.21,91.11l-3.9.98c-5.27,1.95-10.49,4.29-14.56,8.08.97-2.7,4.13-4.82,6.68-6.2,3.28-1.78,8.04-3.54,11.78-2.86Z"/>
  <path class="st0" d="M99.64,82.05c-3.01-2.89-6.74-5.58-11.3-5.46-1.58.04-3.08.87-4.61.78,5.59-4.19,13.44-1.15,15.91,4.68Z"/>
  <path class="st0" d="M46.16,81.14c-6.24-1.53-12.67-.67-17.19,3.93,2.03-5.78,11.09-7.18,16.23-4.68.37.18.88.28.96.75Z"/>
  <path class="st10" d="M91.05,17.11c1.53,4,2.21,8.23.95,12.38-.56,6.54-6.09,18.69-8.91,25.07-3.67,8.28-7.96,16.4-12.1,24.47-.37-.15-.17-.58,0-.91,3.55-6.79,6.8-13.82,9.87-20.84,2.32-5.32,4.71-10.71,6.69-16.15,3.13-8.61,5.5-16.38,2.54-25.53.27.49.68,1,.95,1.51Z"/>
  <path class="st27" d="M70.99,78.12c-.04.28.06.65,0,.91-.35,1.47-1.63,3.11-2.23,4.53-.07,0-.34.29-.64.3-.12-.17-.22-.35-.25-.53-.1-.6,2.43-4.81,3.11-5.51v.3Z"/>
  <path class="st8" d="M67.49,69.06c.09,3.21,0,6.45,0,9.67l-.64-.18c0-5.88.02-11.77,0-17.64.66,2.32.23,5,.31,7.42.01.39.33.69.33.73Z"/>
  <path class="st1" d="M70.99,77.82c-.85,2.03-2.11,3.96-2.86,6.04-.42.02-.85-.02-1.27,0-.57-.7-.22-1.1.64-.91v-.3c1.28-1.73,2.17-3.7,3.23-5.55.16-.29.55-.42.59-.49-.13.39-.16.83-.32,1.21Z"/>
  <path class="st18" d="M64.63,83.86c.53-.52,1.68-3.4,1.91-3.62.86-.8.61,1.66.62,1.99.02.41.33.69.33.73,0,.19-.53.66-.64.91-.74.04-1.49-.02-2.23,0Z"/>
  <path class="st6" d="M92,29.49c.36-4.14-.15-8.34-.95-12.38,2.25,4.16,3.18,7.88.95,12.38Z"/>
</svg>