<?xml version="1.0" encoding="UTF-8"?>
<svg id="Layer_1" xmlns="http://www.w3.org/2000/svg" version="1.1" viewBox="0 0 384 384">
  <!-- Generator: Adobe Illustrator 29.6.1, SVG Export Plug-In . SVG Version: 2.1.1 Build 9)  -->
  <defs>
    <style>
      .st0 {
        fill: #a4ccfe;
      }

      .st1 {
        fill: #90b8fe;
      }

      .st2 {
        fill: #637fa7;
      }
    </style>
  </defs>
  <path class="st0" d="M289.95,262.4c-13.83,6.97-30.84,11.49-46.63,12.52-2.76.18-14.79-.45-15.92-.07-1.03.35-1.65,1.17-2.37,1.9l-.68-1.04c-17.52-1.78-35.43-5.62-52.26-11.91-.58-.22-1.11-.58-1.64-.95s-1.05-.83-1.54-1.29c-23.57-8.74-46.84-20.77-68.27-34.37-7.89,17.01-22.85,29.16-41.5,32.76-6.57,1.27-19.81,3.77-21.89-5.54-.89-4.01-.56-20.8,0-25.2.91-7.05,5.72-21.01,10.64-25.75l8.21-7.9-8.46-8.79c-5.53-5.74-10.43-20.3-11.51-28.03-.67-4.77-1.51-19.88-.72-24.13,1.64-8.87,14.47-5.42,20.99-3.56,15.8,4.49,29.87,15.26,38.85,29.34,1.68,2.63,2.89,5.53,4.47,8.2,14.35-8.01,29.66-14.62,45.22-20.21.3-.4.62-.78.99-1.11s.72-.64,1.14-.78c27.19-9.22,54.91-15.31,84.48-13.24.45.03.91.25,1.38.48s.92.53,1.36.85c17.1,1.99,38.8,9.6,53.96,18.79l-.81,2.07c-30.56,25.59-29.74,75.94,1.63,104.82l.87,2.16Z"/>
  <path class="st1" d="M289.95,262.4c-33.96-29.94-34.83-82.66-1.69-109.05,17.83,10.82,34.1,25.98,46.26,43.03,1.94,2.71,6.49,9.1,7.49,11.89,1.65,4.58-2.75,9.63-5.12,13.07-11.72,17-28.46,31.74-46.94,41.06Z"/>
  <path class="st1" d="M234.3,134.56c-28.87-3.35-62.97,4.32-89.36,13.8-4.99-6.47-11.22-12.72-14.93-19.88-.33-4.07.37-6.08,3.95-7.98,9.41-4.97,36.71-11.44,47.92-12.85,20.86-2.64,41.36,7.76,52.42,26.91Z"/>
  <path class="st1" d="M225.03,276.75c-10.04,12.83-32.1,23.41-48.26,26.47-7.53,1.43-24.77,5.21-23.32-7.84l15.46-33.83c18.47,6.85,37.71,11.71,57.02,13.21-.36.47-.59,1.59-.89,1.99Z"/>
  <path class="st1" d="M239.04,165.94c6.56,4.81,1.96,11.26.7,17.28-2.57,12.33-2.85,26.56-.36,39.26.76,3.89,4.42,14.16,4.15,16.9-.45,4.49-4.5,6.86-8.81,5.83-5.27-1.25-6.57-8.13-7.82-12.64-4.92-17.68-5.29-38.84-.87-56.01,1.09-4.23,1.98-10.31,6.71-11.71,1.66-.49,4.82,0,6.31,1.08Z"/>
  <path class="st1" d="M204.82,167.86c1.86,1.93,2.34,3.72,2.17,6.21-.55,7.81-2.76,15.58-2.99,23.93-.36,12.71,2.29,22.13,3.81,34.3,1.19,9.53-10.05,11.69-13.74,4.09-2.13-4.39-3.87-19.04-4.29-24.31-.82-10.3-.54-32.98,2.92-42.09,1.92-5.05,8.16-6.23,12.12-2.12Z"/>
  <path class="st2" d="M297.17,189.77c8.08,6.4-.99,17.37-8.35,11.56-8.02-6.33.65-17.66,8.35-11.56Z"/>
</svg>