<?xml version="1.0" encoding="UTF-8"?>
<svg id="Layer_1" xmlns="http://www.w3.org/2000/svg" version="1.1" viewBox="0 0 384 384">
  <!-- Generator: Adobe Illustrator 29.6.1, SVG Export Plug-In . SVG Version: 2.1.1 Build 9)  -->
  <defs>
    <style>
      .st0 {
        fill: #a9e1f9;
      }

      .st1 {
        fill: #6cbef7;
      }

      .st2 {
        fill: #cbeefc;
      }

      .st3 {
        fill: #75cef8;
      }
    </style>
  </defs>
  <path class="st2" d="M279.07,43.36c6.02.71,6.57,4.82,6.84,10.04.24,97.08-7.45,198.6-28.36,295.38-2.05,4.33-5.75,6.99-10.74,7.4H118.43c-5.45-.1-10.57-4.86-11.51-9.87-12.51-67.16-21.46-132.18-25.57-200.33-1.98-32.82-3.34-66.35-1.24-97.77,1.08-3.44,2.59-4.34,6.06-4.85h192.9Z"/>
  <path class="st0" d="M299.07,43.36c2.84,1.67,4.74,2.96,5.18,6.4,2.19,17.25-1.69,38.56.01,56.25-2.21,80.69-11.14,161.29-27.31,240.52-1.06,4.85-5.72,7.79-10.13,9.65h-20c4.41-1.86,9.07-4.8,10.13-9.65,16.2-79.84,25.22-161.04,27.31-242.35-1.65-17.11,2.11-37.72-.01-54.42-.44-3.44-2.34-4.74-5.18-6.4h20Z"/>
  <path class="st3" d="M253.27,142.33c1.57-.41,3.78,4.15,3.72,5.05-4.06,60.63-9.57,122.24-22.76,181.38,4.74.75,10.07.78,15.02.66l1.43,1.08-117.76-.59c-6.67-31.38-11.86-63.25-15.71-95.1-3.05-25.28-6.42-53.39-7.2-78.71-.14-4.35-1.59-13.08,4.19-13.8,46.35.3,92.72-.28,139.06.03Z"/>
  <path class="st1" d="M250.69,330.51c-5.59.76-12.91-.56-18.71,0,.98-1.48,1.35-3.07,1.74-4.76,13.18-57.69,17-119.42,22.02-178.24l-2.47-5.18c4.99.03,14.6-.78,18.89.13,4.65.98,3.07,5.53,3.04,8.12-.28,32.16-4.85,68.09-9.13,100.1-3.18,23.77-6.63,51.95-12.36,75.05-.5,2.01-.49,4.42-3.03,4.76Z"/>
</svg>