<?xml version="1.0" encoding="UTF-8"?>
<svg id="Ebene_1" xmlns="http://www.w3.org/2000/svg" version="1.1" viewBox="0 0 384 384">
  <!-- Generator: Adobe Illustrator 29.5.1, SVG Export Plug-In . SVG Version: 2.1.0 Build 141)  -->
  <defs>
    <style>
      .st0 {
        fill: #d1a94a;
      }

      .st1 {
        fill: #d1aa4a;
      }

      .st2 {
        fill: #1e1f1e;
      }

      .st3 {
        fill: #e6ba51;
      }

      .st4 {
        fill: #b15d23;
      }

      .st5 {
        fill: #a45016;
      }

      .st6 {
        fill: #fee069;
      }

      .st7 {
        fill: #c36627;
      }

      .st8 {
        fill: #a55016;
      }

      .st9 {
        fill: #1d1e1e;
      }

      .st10 {
        fill: #e7cc60;
      }

      .st11 {
        fill: #e7cc61;
      }
    </style>
  </defs>
  <path class="st7" d="M59.25,167.67c.67-3.41.54-6.96,1.54-10.81,3.57-13.68,10.85-29.57,18.4-41.52,5.47-8.66,24.07-35.21,36.28-27.36,1.77,1.14,4.53,6.35,4.53,8.2v11.6c15.65-16.32,34.2-33.72,54.72-43.82,8.82-4.34,29.97-12.67,27.59,5.08-.56,4.15-2.66,7.36-4.3,11.04,14.11-5.59,28.86-9.84,43.98-11.87,12.75-1.71,55.02-6.57,36.89,18.1-2.15,2.93-5.32,4.98-7.37,7.98,19.05-.34,39.98,2.64,57.51,10.36,15.94,7.02,31.43,18.39,8.51,30.45,18.58,13.3,37.77,28.74,46.49,50.53v5.99c-3.53,7.39-10.2,6.45-17.25,5.25,5.47,7.34,11.73,16.86,12.75,26.19-5.32,6.21-13.31,7.47-21.29,8.44-16.01,1.94-34.79,1.59-50.86.3-59.1-4.73-119.95-12.96-174.05-38.23l-1.3-1.95-.78-1.55c6.06-10.16,10.11-36.41-8.13-35.02l-3.09-.86-1.11,1.75c-10.86,2.6-18.72,10.56-23.69,20.23l-1,.25c-11.35-7.13-21.2-10.44-34.61-5.91-1.18.14-1.29-.81-.34-2.84Z"/>
  <path class="st7" d="M17.25,221.57c5.01.1,3.03,10.34,1.34,13.51-1.95,3.66-7.15,9.12-11.09,6.7l-3.41.46c-.56.95-.92.73-1.09-.46-.96-.23-1.95-1.84-3-2.25v-5.99c1.78-3.44,3.05-7.37,6.05-10.06,2.73-2.45,8.24-5.23,11.2-1.92Z"/>
  <path class="st6" d="M120,154.2c5.06-.56,7.64,5.33,8.52,9.6,2.78,13.62-1.67,29.41-14.19,36.8l8.1-1.86,1.32,1.12,4.3.85c62.97,33.19,138.66,40.78,209.05,42.76,11.18.32,23.2.06,33.81-3.29l1.84.85c.79,1.71.52,3.55.75,5.24-3.33,18.68-27.47,22.96-43.36,25.61-.47.31-.38,9.12.4,10.61l-1.29,1.2c-.07,7.89-.39,17.63-1.71,25.62-2.07,12.59-4.97,16.91-18.14,17.83-15.56,1.09-34.43.18-50.29-.02-1.27-.02-3.33.48-4.11-.76l2.38-1.34c6.19.09,12.53.12,18.59-.6-6.84-6.92-2.6-15.06,4.54-19.62,5.45-2.4,10.69-4.94,15.73-7.63-.83-1.22-.69-2.84.44-4.86-.32-2.96.29-4.83,1.81-5.62l-1.48-.61c.25-3.58.16-7.12-.28-10.62l-154.06.75-.94-1.49c2.45,1.1,2.35,10.29,0,11.6,2.57-.42,10.32-1.7,9.75,1.87h-9.75v16.09c0,1.84-1.66,9.04-2.29,11.18-2.91,9.82-7.9,11.07-17.55,11.68-15.51.98-33.79.17-49.55-.02-1.27-.02-3.33.48-4.11-.76l2.38-1.34c6.21.12,12.46.06,18.64-.54-6.82-6.89-2.58-15.13,4.52-19.69,5.67-2.58,11.33-5.23,16.46-8.36-1.08-1.98-.63-8.6,1.5-9.73l-1.45-1.16c.11-1.12.4-10.71-.13-10.78-23.12-.86-45.87-3.72-68.24-8.58-1.57-.61-1.86-1.38-.68-2.68l-.27-1c10.07-10.85-6.77-5.1-12.22-2.76-2.86.96-4.94.72-6.26-.73-5.44.81-22.39-11.55-19.14-16.73l4.14-.49c4.12-1.46,7.2-2.6,9.41-6.7,1.89-3.5,3.12-10.4.34-13.51,15.32-11.99,20.53-35.44,34.89-47.89,2.07-1.8,6.58-3.32,7.11-6-.28,2.47.71,1.28,2.08.96,9.12-2.1,15.03-2.87,23.94,1.14,1.59.72,8.6,5.84,9.22,5.38,3.98-10.19,14.69-19.11,25.51-20.96Z"/>
  <path class="st4" d="M132,191.63c5.97,1.6,11.3,5.04,17.05,7.31,45.41,17.92,101.87,27.33,150.58,30.86,16.37,1.19,62.21,3.9,75.14-4.33,2.27-1.45,2.27-4.27,4.73-2.4.75,6.81.22,14.79-6.75,17.96-10.82,4.93-33.4,3.97-45.38,3.75-40.61-.74-81.55-5.6-121.13-14.59-28.18-6.4-57.91-15.04-82.49-30.33-.22-.27-.4-.56-.48-.87-.13-.5,6.05-6.84,6.97-7.56l1.76.19Z"/>
  <path class="st10" d="M298.5,286.69l-1.31,1.14c-8.96.62-17.9,1.21-26.8,1.78l-1.15-1.42c-36.68.93-81.57,2.33-117.75,0-.1,0-.86-.69-1.81-.78-1.52-.14-7.94.66-7.94-1.09v-11.6l154.88-.75c.59.05,1.18.18,1.55.7.66.95.42,9.97.33,12.02Z"/>
  <path class="st10" d="M111.75,286.69l-.99,1.42-25.62-2.08c-.68,1.29-1.56,2-2.64,2.15v-4.5c-11.89-.54-24.37-2.33-36.01-4.85-10.55-2.29-19.78-4.96-29.24-10.11l1.58-1.51c6.95-.2,14.02-1.21,20.32-4.28l2.1.55c.46,1.49,1.89,1.44,3.12,1.76,21.01,5.43,44.56,6.14,66.15,8.08.97.25,1.07.91,1.23,1.77.48,2.59.13,8.64,0,11.6Z"/>
  <path class="st3" d="M82.5,291.93c8.47,1.19,17.04,2.28,25.7,3.26l2.05,1.23c-2.51,5.61-11.4,6.58-16.45,10.15-6.03,4.26-9.43,11.46-3.08,17.2,1.33,1.21,3.19,1.27,3.78,2.58-8.5-.53-17.86.74-26.25,0-12.09-1.06-13.72-12.9-3.68-19.77,8.23-5.63,14.95-3.31,17.93-14.67Z"/>
  <path class="st3" d="M296.25,297.17c-.23.37-.03,1.09-.77,1.82-2.84,2.84-11.03,4.81-14.94,7.58-6.41,4.53-9.54,11.75-2.68,17.55,1.18,1,3.07.99,3.38,2.23-8.5-.53-17.86.74-26.25,0-6.83-.6-12.21-6.24-9.78-13.14,2.91-8.26,16.12-9.75,21.78-15.31l1.31-1.53s9.01-.23,27.02-.69l.92,1.47Z"/>
  <path class="st10" d="M329.25,283.7c0-.67-.81-2.39-.78-4.08.02-1.93-.46-8.25.74-9.07,16.97-2.8,37.19-6.48,44.29-24.28,3.77,28.25-22.2,33.55-44.25,37.43Z"/>
  <path class="st2" d="M41.25,263.49c-6.65,3.95-16.35,5.26-24,5.24-5.7-3.1-9.73-4.8-12.75-11.23-.62-1.72.06-2.42,1.82-2.13,5.31,1.57,10.7,2.78,16.18,3.62,3.44-.36,5.92-.53,9.33-1.54,3.95-1.18,9.04-5.6,12.43-1.84s.16,5.99-3.01,7.87Z"/>
  <path class="st1" d="M298.5,286.69c-.21,4.62.26,6.36-2.25,10.48l-29.25.75c1.28-3.06,2.36-6.38,2.25-9.73,2.01-.05,3.7-.71,5.6-.78,7.9-.28,15.77.17,23.65-.72Z"/>
  <path class="st0" d="M111.75,286.69c-.16,3.68.09,6.17-1.5,9.73-8.6-1-17.28-1.31-25.89-2.27-2.21-.24-1.99.59-1.86-2.23.26-.99-.22-2.65,0-3.74.1-.5.97-3.74,1.17-3.77l28.08,2.28Z"/>
  <path class="st11" d="M7.5,241.78c-1.23.43-2.08,1.22-3.75.76,2.86,8.81,11.48,12.16,18.75,16.46-6.24.66-8.5.35-14.61-1.52-.99-.3-2.73-1.41-3.39.02-2.58-5.49-2.46-9.87-1.5-15.72,1.2.29,3.15-.2,4.5,0Z"/>
  <path class="st10" d="M132,191.63c-1.01,1.47-7.01,7.6-8.25,8.23-.83.43-7.43,2-8.71,2.16-2.32.31-4.72-.02-7.04.07,1.08-1.65,3.88-1.94,5.64-2.97,11.36-6.68,14.99-19.2,13.88-31.86-.46-5.25-2.49-10.75-7.53-13.07,2.27-.39,3.46-1.06,6.38-.75,16.17,1.75,12.33,28.39,5.62,38.17Z"/>
  <path class="st5" d="M189,118.27c-2.48-.19-4.62.84-6.78,1.84-4.64,2.14-10.94,9.5-15.54,7.34-10.53-4.95,13.3-17.23,18.39-17.96,14-2.02,15.43,10.02,9.49,19.95-1.87,3.12-6.71,9-10.12,4.23s4.85-10.36,4.55-15.4Z"/>
  <path class="st8" d="M267.75,130.25c-6.41-1.47-17.47,8.82-22.51,6.36-2.03-.99-2.01-5.1-.79-6.79,2.17-3.02,15.98-8.21,19.93-8.54,16.61-1.41,15.46,15.36,6.03,23.97-2.53,2.31-4.52,3.16-7.2.38-5.29-5.5,6.06-9.35,4.54-15.38Z"/>
  <path class="st8" d="M201.75,173.66c-6.16-2.27-15.14,6.33-19.2,6.74-4.96.5-6.56-5.11-2.57-8.63,7.56-6.68,32.74-13.74,31.36,3.54-.4,4.97-7.68,17.78-13.77,14.1-6.57-3.97,5.49-10.75,4.17-15.76Z"/>
  <path class="st8" d="M328.44,174.47c-.23-.35-6.69-1.47-7.73-1.48-4.5-.04-12.83,3.96-15.5-.4-5-8.18,14.51-9.01,19.08-8.57,9.57.92,17.17,7.35,12.34,17.37-1.94,4.03-11.23,12.25-15.23,7.22-4.78-6.01,9.9-9.89,7.04-14.15Z"/>
  <path class="st5" d="M270,193.13c-3.05-.2-6.07.37-9.01,1.11-4.55,1.16-15.09,8.63-15.08-.74,0-3,.87-3.07,3.17-4.4,7.95-4.61,28.18-9.82,30.2,3.43,1.07,7.04-9.07,22.52-14.97,15.64-4.35-5.08,7-9.32,5.69-15.03Z"/>
  <path class="st9" d="M64.29,195.54c12.34-2.53,15.37,14.93,4.76,17.47-12.95,3.1-15.63-15.24-4.76-17.47Z"/>
</svg>