<?xml version="1.0" encoding="UTF-8"?>
<svg id="Layer_1" xmlns="http://www.w3.org/2000/svg" version="1.1" viewBox="0 0 384 384">
  <!-- Generator: Adobe Illustrator 29.6.1, SVG Export Plug-In . SVG Version: 2.1.1 Build 9)  -->
  <defs>
    <style>
      .st0 {
        fill: #ef8d1f;
      }

      .st1 {
        fill: #ea721b;
      }

      .st2 {
        fill: #619638;
      }

      .st3 {
        fill: #f8bb28;
      }

      .st4 {
        fill: #e86618;
      }

      .st5 {
        fill: #68a13c;
      }

      .st6 {
        fill: #72b242;
      }

      .st7 {
        fill: #c17a44;
      }

      .st8 {
        fill: #eb7b1c;
      }

      .st9 {
        fill: #e24a13;
      }

      .st10 {
        fill: #e96c19;
      }

      .st11 {
        fill: #fbcc2e;
      }

      .st12 {
        fill: #e45012;
      }

      .st13 {
        fill: #fcfdfb;
      }

      .st14 {
        fill: #f1941f;
      }

      .st15 {
        fill: #64a759;
      }

      .st16 {
        fill: #e34d13;
      }

      .st17 {
        fill: #ee7d19;
      }

      .st18 {
        fill: #f1901e;
      }

      .st19 {
        fill: #db3816;
      }

      .st20 {
        fill: #e55111;
      }

      .st21 {
        fill: #f39b21;
      }

      .st22 {
        fill: #f5ab24;
      }

      .st23 {
        fill: #fcd42e;
      }

      .st24 {
        fill: #f5a824;
      }

      .st25 {
        fill: #ec6f16;
      }

      .st26 {
        fill: #dc3b15;
      }

      .st27 {
        fill: #ec7f1d;
      }

      .st28 {
        fill: #e85811;
      }

      .st29 {
        fill: #a86a3b;
      }

      .st30 {
        fill: #f6b328;
      }

      .st31 {
        fill: #fdda30;
      }

      .st32 {
        fill: #ef8d20;
      }

      .st33 {
        fill: #cd171c;
      }

      .st34 {
        fill: #d72e18;
      }

      .st35 {
        fill: #d42819;
      }

      .st36 {
        fill: #68a03c;
      }

      .st37 {
        fill: #f7ba29;
      }

      .st38 {
        fill: #e95c11;
      }

      .st39 {
        fill: #f9c62b;
      }
    </style>
  </defs>
  <path class="st33" d="M245.3,245.53l-1.21,1.93c-2.14,1.36-26.93-12.62-21.12-19.65,1.35-1.63,3.95-1.1,5.33.24,8.64,7.78-5.86-11-8.33-12.37l-1.89-3.74c-3.06,1.46-5.84.13-8.35-3.98-8.58-3.26-5.05-8.84,2.74-7.76.72-2.4.08-5.18-1.92-8.34-.02-5.3-1-10.2-2.96-14.71.31-3.8-.93-3.28-1.91-.34l-.42,11.77c-1.69,1.97-2.09,3.87-1.19,5.69,2.05,3.05,4.68,7.51-.93,6.83-3.15-2.22-2.89-.39-.42,2.01,1.5,6.93-18.51,1.55-12.88-5.16-5.99-2.61-4.77-6.55.26-9.19-.59-1.88-1.13-3.91.09-5.69l-.03-1.72c4.64-3.01,2.03-3.81-1.92-.45l-3.91-.92c-13.58,3.85-11.37-12.45.56-8.76.73-4.1,2.66-6.59,5.78-7.47-2.72-2.51-3.48-5.28-2.28-8.3-1.17-2.22-1.38-4.24-.63-6.05,3.46-3.54,5.81-9.18-1.13-9.04-1.2-5.2-14.46,1.11-13.02,4.01,7.17-2.61,11.88,9.62,3.77,9.28-1.1-.05-8.67-5.45-9.55-6.53-2.36-2.9-2.67-6.28-.22-9.08-6.38,2.69-8.69-5.04-1.38-5.32-1.46-1.45-2.41-3.01-2.84-4.67-7.4.13-9.73-11.96-6.8-17.37-4.15-10.79,3.61-13.08,6.04-1.88.67-3.33,1.66-6.87,2.97-9.64l-4.12-1.47c-5.37,3.87-7.55,1.52-5.25-4.2-1.15-4.66-.35-7.94,2.38-9.86-.76-4.47,1.36-8.67,3.58-12.42,3.44-4.63,6.38-9.48,8.83-14.55-.21-4.72,3.03-13.15,8.61-10.07,3.32-4.17,7.37-7.83,12.17-10.99,3.75-1.19,10.12-1.12,14.19-1.19,42.9-.72,89.08,19.26,112.07,56.62l-.12,1.7c-6.7,2.99-21.39,11.35-19.63,20.08.99,4.92,3.72,4.61,7.9,3.47,6.83-2.7,13.51-4.66,21.08-4.34l1.68,1.42c.5.2.99.42,1.42.72s.79.57.94.94c3.36,8.17,4.74,16.3,5.41,25.07,2.33,2.57,2.45,9.78-.2,12.11l-.99,1.59c-36.67,19.87-72.66,48.86-87.83,89.17l-2.42,2.59Z"/>
  <path class="st16" d="M218.2,300.8q1.94-2.78,0,0l-1.24,1.17c-3.67-.6-7.03-1.6-10.06-3.02-2.54,4.92-5.69,4.16-6.26-1.37-4.96-2.59-9.98-2.85-7.21,4.03-.25,1.45-1.07,1.79-2.4,2.08-4.24.95-22.09-18.73-24.49-23.19l-10.26-8.18-.84-2.53c1.21-3.38.92-6.25-.89-8.6-.55,5.15-3.72,3.56-5.89.09-5.78.12-9.52-4.99-4.88-9.61-4.08,1.13-6.69-.2-4.68-4.55l-.85-1.48c-8.36,2.26-9.3-2.8-4.17-7.93,9.79,3.72,12.51,3.8,8.18.22-2.71-5.26-5.82-10.38-11.85-10.13-1.33-4.34-3.31-5.6-5.92-3.79-3.61-2.37-7.27-8.66-1.05-10.56l-3.53.89c-3.92,12.43-10.37,2.69-7.46-5.22l.11-2.15c-4.41-.1-5.58-6.23-4.63-9.88,1.82-1.45,3.81-6.83,1.87-7.68,1.4,3.68-2.82,4.82-4.71,2l-.98-.38c-1.8-6.24-3.75-.85.55,2.68,3.97,3.8-.84,6.4-4.02,2.67-.59,5.42-2.04,7.29-4.36,5.62-.68.11-.75-.14-.27-.7-1.32-1.77-2.35-1.65-3.07.37,3.35,2.17-1.36,13.7-3.52,5.18.46-2.78-.39-5.29-3.59-4.87-2.71.31-1.44-4.53-.27-6.03l-1.43-.55c-6-3.37,1.04-4.68,5.08-3.7-1.98-4.72-.57-10.09,4.5-11.19.72-1.54,1.25-3.19,1.59-4.94,6.72.82,3.38-2.39-1.63-1.61-2.01-2.18-4.22-3.04-6.03-.31-1.5.43-2.07-.18-2.84-1.39-.39-.61.71-13.24,2.03-14.01l-.96-.44c1.19-4.9-.32-7.13-4.52-6.69-.63,4.07-6.12,5.51-7.32,1.34-3.09-.07-4.09-.82-3-2.28-1.5-4.45-.76-7.69,2.24-9.74-2.84-2.39-2.86-5.8-.05-10.24l-.06-3.67c9.04-16.83,18.31-30.08,31.37-44.06,1.02-.8,1.24-.89.97.43-.58,5.35-.51,6.45.21,3.27,3.95-5.74,6.15,4.79,4.17,7.5-3.75,1.75-4.21,3.08-1.4,4.01,2.41,3.77-2.85,13.61-5.16,17.39-2.2,3.74.24,29.54,3.21,29.79,4.64-3.2,6.78-1.02,4.7,3.98,8.13-3.93,8.8,3.19,3.72,8.2-.69,1.79.12,3.73,2.46,5.81-1.68,7.33-.37,9.84,3.93,7.55,2.11-.4,3.92.67,3.53,2.88-2.53,2.02-4.06,4.44-4.6,7.26,2.71,2.84,3.22,6.44-.68,8.49l4.05,1.29c3.03,3.74,3.71-.38.11-1.99-6-7.38,8.7-7.69,11.95-5.76,2.58,1.53,5.08,9.5-.34,9.06-2.56-1.67-2.58-1.04-1.57,1.52,3.41,2.26,5.55,4.23,3.01,8.35,3.03-.45,5.14-.3,7.59,1.63,1.27,1,5.47,10.48,4.88,11.6-.64,1.24-1.9,1.66-3.19,1.31-8.55-7.62-5.56,6.25,1.59,5.01,3.07,6.64,4.3,12.4,4.35,19.69l3.13,1.42c6.45-6.09,7.46-.71,5.44,5.51-.6,1.99.23,3.49,2.5,4.49,4.31,6.03,7.95,10.57,14.82,13.24,2.77,4.33,5.65,8.57,8.62,12.72,4.05-2.48,5.99,1.35,5.87,5.25,1.9-1.72,4.01-2.81,6.32-3.28l12.79,5.36c3.05-2.01,17.62,4.26,18.22,6.13.36,1.12-4.08,10.52-6.6,8.61.79,1.06.92,1.72-.08,2.77-1.09,2.19-4.95.11-4.84-2.17Z"/>
  <path class="st35" d="M190.2,183.06c-.84,1.99-.86,4.13-.06,6.41-3.39.63-5.32,2.85-3.34,6.17.03,2-.39,3.43-2.6,3.67-2.54.28-9.89-11.98-10.95-14.75l-1.05-.27c-5.35-.04-2.61-7.66-.59-10.84-2.44-2.61-3.33-4.88-2.74-8.44-5.78-1.57-8.58-4.35-8.42-8.33-5.49,2.2-9.44,3.13-11.37-3.45-6.58-1.68-3.54-14.02,2.42-9.04-1.32-4.28-2.66-12.61,3.95-7.08,3.85-.26,4.34-1.45,1.47-3.57,1.2-3.03-.24-4.22-4.32-3.55-8.26,14.19-21.88-7.2-5.04-8.6-10.21.62-11.6-4.53-5.5-11.89-7.09-9.42-.48-23.47,4.32-32.59-2.64,1.11-13.72,4.79-11.26-.55,3.6-1.28,7.01-3.09,10.22-5.44,1.72,1.57,3.25.83,4.57-2.23,2.43-.09,3.73-1.21,3.9-3.38-2.37,1.44-5.89,1.7-4.27-1.6-3.29-.75-2.44-3.27,2.54-7.58.94-6.03,4.57-5.21,4.4.59.91-1.3,1.48-1.96,2.94-.79l.64-1.56c3.62.99,5.68-1.06,6.15-6.15,2.46-.93,3.63-2.59,3.5-4.98l4.02-2.4c.79-1.32,1.89-.18,2.64.6l1.94.87c2.4-4,8.29-5.61,12.78-6.48.23-.09.46-.19.7-.27-.42,4.04-5.24,5.27-7.6,7.35-1.12.99-1.82,3.3-3.14,4.4-2.46,2.05-2.29,1.66-3.31-.18-.82-1.47-4.02,3.44-4.42,4.26-.98,1.95-.34,4.48-1.1,6.48-2.53,6.63-11.72,15.27-12.35,23.54-.07.93.82,2.52.64,2.89-.2.41-2.02.53-2.79,1.94-.87,1.58.25,5.55-.03,7.55-.57,4.05-4,6.41,3.66,2.43l7.94,2.47c-4.8,2.51-3.95,7.33-5.6,11.6-5.13,1.49-2.44-10.21-6.65-6.91-1.41,1.11.92,4.93,1.05,6.86s-1.63,3.6-1.54,5.12,1.99,8.63,2.92,9.81c1.17,1.49,3.95.86,5,1.86.64.61.35,1.77.76,2.35.6.87,1.89,1.14,2.32,2.47,1.07,3.34-4.28,2.27-4.55,2.96.74,5.78,3.77-.43,5.37,1.63,2.18,2.81-1.12,3.04-.99,5.27.31,5.2,3.3,5.4,6.28,7.55,2.1,1.52,1.03,3.72,5.86,2.5,1.49-.38.87-.35.63-1.4-1.29-5.77-3.01-4.92-8.03-4.2-.39-2.33.62-5.08,2.53-6.47.68-.5,9.87-3.71,10.4-3.57.63.16,1.35,2.39,2.21,2.87s4.65-.03,5.97,1.54c-1.32,1.77-.68,4-1.32,5.77s-3.36,3.54-3.27,4.93c.08,1.28,1.09,2.6,1.22,4.03.13,1.34-1.11,2.84-.5,4.39s3.19,2.09,2.8,4.17c-.42,2.19-3.3,1.71-4.2,2.74-.8.91-.13,5.2-2.91,6.17-.58.2-1.61-.88-2.33-.89-3.6-.07-8.62,2.94-5.19,6.36,2.15,2.15,4.61.23,6.88.24,1.14,0,2.77,1.05,3.62.99.96-.07,3.85-3.78,5.21-3.18.8.35.74,2.87.37,3.94-.85,2.48-2.55,2.03-3.4,2.83Z"/>
  <path class="st36" d="M221.74,339.58l-.82-1c-2.99.88-14.58,2.7-15.2-1.84-.21-1.52,17.11-20.99,19.62-23.57l1.71.31c1.06.93,1.08,2.23.07,3.9,24.15-21.11,45.69-48.17,65.33-73.73,4.5-7.47,8.89-15.01,13.17-22.63l2.92-1.19c0-.84.52-1.57,1.57-2.2l-1.19-1.32c4.12-8.95,8.08-17.89,11.87-26.82l1.63-.64c-.27-.46.02-1.11.87-1.94l-1.23-1.11c2.23-5.32,3.98-10.82,5.24-16.49-1.6-.41-2.27-1.22-2.01-2.43-.18-2.61,7.88-7,9.54-4.44.28.53.54,1.06.7,1.62,1.72,6.16-11.86,36.14-15.45,43.37-20.54,41.42-50.63,81.87-86.16,111.15-11.12,10.08-3.21,5.52,3.43.5,15.4-11.66,28.02-25.54,40.13-39.87,4.76-3.27,5.75,5.84,2.79,7.56l-.52,3.04c-6.61,5.31-10.45,11.72-11.51,19.21l-1.07.63c-1.79-1.44-4.72-1.58-4.92,1.28-.16,2.26,21.18-8.67,22.6-9.49,35.3-20.46,55.39-56.09,59.6-96.51,1.21-11.58.65-22.13-8.04-5.84l-1.92.4c-2.01-.87-4.77-6.77-4.59-9.35,3.44-8.39,6.36-17.01,8.74-25.88l1.88-1.58c14.42,35.8,7.7,72.33-13.24,103.62-22.17,33.14-66.79,64.84-105.56,73.28Z"/>
  <path class="st39" d="M145.25,332.61l-2.56,1.64c-16.45,1.96-37.09,2.81-52.59-2.8-4.86-1.76-12.09-4.95-10.13-11.08-5.49-.28-14.21-3.33-10.36-10.14-6.44,1.43-10.88-7.96-10.27-13.38l-2.58-2.95c-4.98-17.15-7.26-34.94-6.84-53.39-1.45-3.11-3.61-5.92-6.47-8.45l-.68-4.06c.63-6.62,1.41-12.1,2.54-18.62,1.75-.78,3.28.69,4.61,4.42,1.32,1.55,4.86-4.7,3.18-6.66,9.47-6,10.93,1.13,7.35,9.44,1.96,3.19,1.88,6.62-.25,10.29,2.45,6.98,4.43,14.57,3.34,21.95,4.71,5.27,5.12,8.97,1.22,11.1,3.48,3.72,3.96,6.96,1.44,9.71-.46,5.45,1.71,11.58,3.66,16.73,8.03-1.66,13.99,4.3,6.49,11.04l.32.39c6.8-6.75,9.85.43,2.1,4.4.34,1.62,1.67,2.85,3.1,3.56.84-2.34,2.86-6.09,5.54-4.89,1.86-1.2,4.87.83,4.41,3.14,3.33-.33,5.28,3.17,2.81,5.59-12.06,3.03-3.62,10.41,4.11,13.27,12.99,4.81,26.82,5.25,40.33,4.39,3.5-.75,10.98,3.29,6.19,5.36Z"/>
  <path class="st6" d="M280.28,286.78c-.28-2.04.26-4.64-.15-6.75-.25-.66-1.2,0-1.73.39-3.15,2.34-8.59,10.46-11.83,13.88-8.28,8.76-26.76,26.81-37.19,31.59-4.28,1.96-3.91-.73-1.37-3.55,6.14-6.81,16.65-14.21,23.72-21.33,31.85-32.06,74.57-93.98,83.11-138.55-1.93-2.03-.71-8.91,1.7-10.28.38-3.84.14-8.23.2-12.11l-3.41-24.96,1.07-2.24c-2.18-.19-1.89-1.51-.1-2.37,1.25-.93,2.99-1.68,4.47-.9,4.01,16.82,5.19,36.08,1.77,53.1-1.02,5.06-2.93,10.74-4.46,15.72-.75,2.44-4.6,10.55-4.68,11.85-.16,2.52,2.34,6.55,3.1,9.24,3,1.36,5.11,15.35,3.98,17.03-.21.31-.73.43-1.33.55-3.26.65-5-11.9-3.95-14.68-1.62-.32-2.67-1.7-3.14-4.13-5.2,11.12-10.86,21.84-16.88,32.3.04,3.43-.19,6.84-.68,10.21.73.7,1.5,1.49,1.74,2.51.53,2.28,2.28,16.91,1.89,17.72-.53,1.08-3.16.93-3.56-.71-1.04-3.69-1.86-7.43-2.48-11.21-9.27,9.35-11.43,15.97-8.04,28.96-.1,2.38-2.22,3.08-3.76,1.35l-2.37-10.53-10.49,13.19c.56,3.52,1.49,21.33-4.93,13.4-1.34-1.65-1.53-6.82-.23-8.7Z"/>
  <path class="st2" d="M221.74,339.58c-5.48,1.19-16.69,3.67-21.94,2.93-3.32-.47.06-1.9,1.27-3.18,8-8.46,12.27-15.54,18.16-25.28-.98-.73-.46-1.47,1.57-2.2-1.01-2.8,1.74-8.27,4.61-8.98-.78-1.65-.8-3.17.97-3.73,2.9-6.73,5.57-13.66,8-20.78l2.05-1.35c-1.04-4.07.79-10,3.97-12.75-.77-5.92,1.05-14.21,4.91-18.72,11.85-38.68,50.55-71.41,84.88-90.68,1.86-1.04,4.2-2.79,6.36-2.67-.31,3.14-1.1,7.11-1.7,10.28-3.49.58-6.8,3.26-9.54,4.44l-2.6,2.8c-35.39,15.37-55.21,48.52-68.09,83.25-7.23,20.99-15.84,41.23-25.83,60.73l-1.73-.19-20.02,23.29c.17,1.29,1.49,1.02,2.39,1.13,3.24.4,7.52.04,10.96.24.99.06,2.85-.49,1.36,1.45Z"/>
  <path class="st31" d="M42.78,227.99c1.94,5.41,7.49,6.85,8.63,12.29,1.15,15.84.38,38.28,6.69,52.94.56,1.3,2.16,1.81,2.6,2.98s-.41,2.61.04,3.96c.32.95,3.13,6.26,3.76,7.08,2.4,3.12,4.52.52,7.43,1.54-.49,1.77-2.84,4.39-1.6,6.06.14.19,3.46,2.84,3.67,2.95.99.51,6.95.71,7.67,1.78.6.89-.98,2.9-.53,4.15,1.48,4.07,12.76,7.72,16.86,8.62,15.13,3.31,31.89,1.04,47.24.28,1.98-.75,5.86.64,3.44,2.7-14.19,2.68-33.75,4.91-48.11,4.26-58.56-2.66-62.1-66.66-57.79-111.59Z"/>
  <path class="st37" d="M87.41,300.87c-1.7,1.62-4.56,3.88-4.02,6.34-2.27,1.2-6.84-3.28-6-5.61.44-1.24,6.16-3.43,4.81-5.96-1.82.38-5.03,5.4-6.87,2.99s2.52-4.49,3.11-6.72c.9-3.41-1.06-2.12-1.9-2.72-.74-.53-1.06-1.73-2.05-1.93-1.54-.31-4.22,1.3-5.34.56-1.72-1.13-4.91-14.79-4.72-17.31.16-2.21,2.37-3.7,2.29-4.82-.14-1.83-4.16-3.69-3.31-6.56.35-1.16,3.03-1.13,2.94-2.9-.07-1.35-3.65-4.88-4.24-7.06-.48-1.8.68-3.28.43-5.08-.42-3.07-1.1-7.55-1.67-10.63-.48-2.61-2.66-5.08-2.06-7.9.24-1.15,1.51-1.94,1.72-3.3.31-2.01-.92-3.91-.99-5.68-.06-1.52,2.24-9.74.61-10.48-.97.71-5.63.77-5.88,1.43-.11.28,1.02,1.73.86,2.71-.07.41-3.41,5.78-4.37,5.84-2.41.15-3.57-5.8-5.44-6.73,1.69-9.83,3.34-16.82,6.01-26.37,2.89-.8,3.2.31,3.29,3.42.01.44,2.55-.85,2.79-1.62-.38-3.83.46-6.06,2.5-6.67,2.65-.7,3.23,2.89,2.77,4.44l1.04,1.34c.44.35.85.71,1.19,1.14,1.7,2.16,2.76,22.68,3.01,28.04.08,1.66-.09,3.05-1.35,4.26l4.6,17.4c-.25,3.31-.2,6.45.15,9.41,4-.12,4.53,3.92.41,4.56l.98,8.58c4.58-.85,6.51.29,5.79,3.42-4.08,3.57-6.62,6.56-.61,9.86,4.75.63,4.78,3.27.1,7.93-1.04,2.77,4.06,11.36,5.16,4.48,1.06-.88,7.46-1.15,8.36.03,3.2,4.2-2.65,9.06-7.14,8.85l-1.26.93,4.91,6.52-.59,1.59Z"/>
  <path class="st3" d="M148.69,335.31l-.34-.93c-1.22-.52-2.59-.22-3.1-1.77-.09-.28.44-1.28.09-1.99-.2-.4-1.19.01-1.36-.13-.37-.32-.13-1.26-.85-1.46-2.83-.77-11.39.31-15.22.13-11.92-.55-23.93-1.13-34.51-7.28-4.04-2.35-6.04-3.17-6.02-8.53.02-6.81,12.66-2.35,4.44-9.34,2.45-6.21,9.3,1.89,5.68,6.51-.94,8.22,35.46,13.86,42.64,12.66,1.71.21,3.38.69,4.48,2.11,2.47-1.79,3.93-1.7,4.37.27,1.28-1.1,2.94-.9,4.99.59-1.29-3.02,4.08-6.5,6.06-3.19,1.28.64,2.58,1.96,3.67,3.07,1.81,0,3.3,3.92,2.61,4.97-4.31,1.88-12.74,3.38-17.62,4.31Z"/>
  <path class="st20" d="M158.85,48.12c-.94,2.6-3.42,4.14-7.43,4.64-.62,2.42-2.12,3.76-3.95,5.35-11.98,7.6-21.9,16.96-29.75,28.1-3.06,1.87-5.4.87-7.5-1.73-1.66,1.07-4.32.74-4.73-1.59-.25-.01-.64-.38-.97-.43,16.92-18.12,31.73-29.44,55.1-38.65,1.21.58,1.18,4.34-.77,4.31Z"/>
  <path class="st7" d="M334.3,110.49c-2.68,2.09-5.75-4.32-6.76-6.71-1.77-4.15-2.81-8.73-2.06-13.22-4.08,2.45-6.56,2.6-7.43.44,3.17-1.41,12.45-5.35,15.29-4.93,6.98,1.04,9.86,18.93,5.44,23.52-1.33,1.38-2.61,2.02-4.47.9Z"/>
  <path class="st17" d="M206.62,318.86c-4.11-.9-8.14-.79-11.02,2.37h-3.63c-1.42-1.54-3.11-2.28-4.05-.86-1.77,1.62-4.25.99-7.42-1.87-8.07.12-5.67-8.68,2.14-5.59.62-3.13,7.86-3.8,9.19-1.26.41-.4.83-.78,1.3-1.07,1.67-1.02,16.94-.6,20.05-.16,1.56.22,2.11.48,2.79,1.82,1.59-1.3,3.9-3.02,4.82-.4-.53.91-1.16,1.53-1.57,2.2-4.2,1.59-8.41,3.22-12.62,4.81Z"/>
  <path class="st23" d="M59.9,178.12c-1.49,2.51-.31,5.47-1.16,7.32s-2.8,1.91-3.05,2.45,2.18,3.93-3.23,2.28c.35-1.95.7-3.98.93-5.96.05-.47-2.16.54-2.06-1.21,2.02-7.23,3.93-13.8,6.47-20.93,1.62-1.86,3.8.41,2.47,2.27l1.54.78-.68,7.19c.69,1.91.66,3.44-.09,4.58,1.01,1.79.78,1.9-1.13,1.23Z"/>
  <path class="st30" d="M63.34,163.97c-2.42-.26-2.79-2.49-1.11-6.67-1.15-.15-1.97-.38-2.1-1.74,2.59-6.8,5.3-13.47,8.41-20.06,2.75-.55,2.69,4.26.2,4.74-.05,1.07-.38,1.9-.98,2.49,2.32,3.35,1.04,7.81-.36,10.86.74,1.54.89,3.35.47,5.44,1.96.54,1.78,1.17-.17,1.67.6.84.64,1.14-.43.97,1.03,2.32-2.39,4.23-3.94,2.3Z"/>
  <path class="st10" d="M73.92,172.78c-.6-.05-1.08-.13-1.16-.36-1.77-5.09-3.31-11.92-2.46-17.2l-1.88-3.07c1.34-3.19.72-6.62-.83-9.92l1.16-1.99c-.08-1.49.73-3.15-.2-4.74,1.46-3.11,2.99-5.96,4.61-8.98,4.55,2.88-1.71,8.23-.6,11.08.64,1.64,6.14,2.86,5.5,3.9-1.41,1.64-2.82-.58-3.03-.5-.62.22-3.7,3.29-3.96,3.9-.12.28.05,5.75.18,6.03.72,1.53,2.77-.81,2.91-.73.34.19.94,4.2,3.97,3.03s.79-5.42,3.47-6.65c.72,5.44.48,2.75,2.57,3.28,5.14,1.31,3,4.1,2.68,8.37l-1.4,2.51c.57,4.68-2.87,7.89-6.02,3.42-2.82.6-4.02-.12-3.63-2.16-2.5.4-2.55,3.46-.15,9.19.2,1.07-.62,1.47-1.72,1.59Z"/>
  <path class="st22" d="M183.93,326.7c-5.34-.89-10.55-.51-15.62,1.14-.45,4.51-3.52.98-3.49-2.22-2.86-.07-5.58-2.53-3.21-4.86-1.19-1.58.56-3.45,2.27-2.47,1.65-2.32,6.74-2.17,8.08.13.86-1.36,2-1.14,3.42.67,3.83-2.93,8.24.89,10.98,3.62,1.16-.27,1.66-1.15,1.58-2.35-1.18-1.76.53-2.16,1.84-2.16,1.94,0,2.65,1.84,2.97,1.9.55.11,1.27-1.41,1.72-1.25.26.09.41,1.31.94,1.11,1.07-.42,1.03-1.83,2.17-2.28,1-.4,9.48-1.97,9.05,1.19-7.52,2.84-15.16,5.09-22.69,7.84Z"/>
  <path class="st11" d="M167.01,330.74l-.36-.94c1.12.13,2.46-.93,1.66-1.96.28-.42-.26-1.4,1.16-1.99s9.7-2.25,10.16.08l1.16-2,3.13,2.78-16.92,4.04Z"/>
  <path class="st9" d="M173.74,40.85c-.69,1.03-1.94,1.58-3.75,1.64-1.98,7.09-14.16,14.59-8.97.8,5.09-1.94,9.15-3.25,14.28-4.64,2.17.35,2.46,1.1,1.07,2.8-1.17.93-1.98-.48-2.64-.6Z"/>
  <path class="st32" d="M60.27,164.34c-.41-.2-1.46-2.06-2.47-2.27.79-2.2,1.5-4.31,2.34-6.51,7.29.03.75,4.33,3.2,8.41.14,2.45-2.47,2.81-3.07.37Z"/>
  <path class="st19" d="M178.31,42.32c-2.8-.71-.93-3.65,1.47-4.57,3.51-.77,7.51-2.64,11.31-1.9-4.29,1.7-7.8,4.59-12.78,6.48Z"/>
  <path class="st27" d="M167.01,330.74c-.22.12-.47.17-.7.27-1.04-.48-1.28-3.19-1.46-3.32-.28-.2-1.31.22-2.26-.65-1.38-1.27-2.21-2.48-2.55-4.08-2.09-.35-1.9-1.27.17-1.67-.48-1.61.34-1.87,1.4-.53-1.54,4.43,4.11,2.53,4.6,3.53s-.91,8.15,2.11,3.54l.83.09c.97,1.05-.98,2.19-2.13,2.81Z"/>
  <path class="st33" d="M176.37,41.45c-.33-.94-.73-1.86-1.07-2.8,1.81-.49,3.01-.58,4.47-.9-.16,1.77-2.35,2.71-1.47,4.57-.48.18-.38,1.65-1.76.67-.85-.61-.04-1.14-.18-1.54Z"/>
  <path class="st33" d="M159.42,55.93c-.69.03-.77-.2-.27-.7-1.29-1.95-1.27-3.3.07-4.04-1.92-.38-2.04-1.4-.37-3.07-.01-1.28.95-2.87.77-4.31.46-.18.93-.36,1.4-.53,2.61,1.4-.54,1.55-.27,2.88.25,1.19,2.74,1.38-.94,2.4,3.45,3.73,5.8-3.67,9.22-5.19-2.7-2.27,2.24-2.99,4.69-2.53,1.36,2.21-2.05,2.08-2.99,3.47-.52.77.38,2.26-.12,2.97-.71,1-2.53.95-3.22,1.77-.4.47-.72,5.04-2.39,6.23-1.94,1.39-4.51.33-5.6.65Z"/>
  <path class="st35" d="M240.4,264.25c-1.25,1.42-2.8.21-4.67-3.63-9.27-.98-12.11-4.73-15.46-12.82l-2.56-1.61c-5.06,0-6.69-1.51-4.88-4.54-7.46-.07-8.14-2.53-6.28-9.33-2.53,1.15-4.42,1.71-6.48-.51-2.33,12.35-11.87-2.43-10.08-9.04-5.37.33-7.92-7.23-4.21-10.94.48-2.06-1.95-9.92-4.52-10.13-1.15,3.48-2.4,2.01-3.64-.67l-2.63-3.03c-4.28-3.94-5.26-7.96-2.94-12.05-1.53-.69-1.47-1.25.17-1.67.72-.89,1.32-2.52,2.22-.45,1.01,2.32,3.78,6.57,5.31,8.8,8.87,12.86,3.5-1.24,6.94-3.25.69-.4,2.45-.03,2.57-.35.17-.43-1.9-3.3.94-5.98-.83,1.61,1.33,6.18.89,6.8-.39.55-8.04,2.46-2.67,5.59,4.45,2.59,4.8-3.41,5.17-3.88,2.09-2.63,2.42,1.12,3.47,2.74.9,1.39,3.18,1.73,1.79,3.96-2.46,3.96-6.53-4.96-8.83,2.9,2,1.71,9.76,6.11,11.24,2.54.74-1.79-2.8-1.07-3.02-1.65-.06-.17,1.61-2.81,2-3.13,1.96-1.6,3.1,1.88,5.12.81-1.14-2.84-3.51-4.83-3.37-8.16.06-1.37,1.58-1.96,1.79-3.29.77-4.85-2.28-17.43,5.93-15.07-2.03,3.85.51,5.15,1.15,7.76.88,3.59.28,7.55,1.29,11.08.77,2.7,3,4.5,2.29,7.38-.96,3.93-3.69,1.41-6.28,2.38-5.54,2.09,1.29,4.03,2.47,4.95,1.3,1,3.78,4.47,4.06,4.57.76.28,3.73-1.69,4.16-1.5.21.1,1.06,3.27,1.84,4.33,1.52,2.08,5.19,5.36,6.65,7.22,1.95,2.5,8.64,9.84,2.86,10.66-.89.13-3.4-5.43-6.12-3.32-1.25,1.88.09,3.64,1.14,5.19,2.41,3.54,12.24,10.05,16.37,11.44,1.37.46,2.21,1.03,3.7.16-1.89,6.15-3.11,12.51-4.91,18.72Z"/>
  <path class="st29" d="M328.97,113.33c-4.57.27-9.15.13-13.65,1.29s-14.6,7.08-17.49,1.37c-5.79-11.43,11.92-21.29,20.23-24.99,1.27,1.28,8.01-2.7,10.08-3.03-3.93,5.7,1.04,19.44,6.17,22.52.32.73-.03,1.78.1,2.37-.57,2.06-4.57,2.51-5.44.47Z"/>
  <path class="st13" d="M328.97,113.33c1.81-.11,3.61-.67,5.44-.47,2.2,10.32,2.49,16.81,2.34,27.2-2.24-9.04-3.82-18.2-7.78-26.73Z"/>
  <path class="st26" d="M223.04,302.97c-4.71-6.8,1.9-3.67,2.77-4.26.56-.38.23-1.89.55-2.39,1.03-1.56,3.47-2.18,1.58-4.83-5.72-1.75-10.23-6.01-16.58-4.59l-12.74-5.36c-1.14-.07-4.02,1.98-4.84,2.79-1.59,1.58-.1,2.9-2.24,3.34-1.45-2.82.31-5.79-1.73-8.46-1.18-1.54-2.1.52-3.15.6-2.23.18-7.77-11.47-10.15-13.71-2.04-1.92-4.45-1.33-5.8-2.62-2.89-2.75-6.3-7.14-8.73-10.33-.65-.85-2.19-1.19-2.62-1.91-1.33-2.23,1.18-9.4.91-9.83-1.36-2.14-3.02,1.99-5,2.19-.8.08-3.96-1.34-4.43-1.99-1.61-2.22-.18-7.37-.77-10.01-.82-3.69-3.54-5.56-2.84-9.7-4.47,3.19-11.37-8.1-5.81-9.65,3.4-.95,4.03,2.96,5.85,2.41,2.27-.68-.77-3.26-1.37-4.71-.36-.87-.18-2.04-.58-2.85-2.56-5.1-4.82-4.48-10.05-3.93-.97-2.03,1.66-3.62,1.09-5.67-.65-2.38-4.89-1.9-4.56-6.64.31-4.42,3.22-.62,3.76-.65,3.95-.24.01-5.16-.98-6.88-3,1.06-10.35-1.76-10.64,1.7s5.91,3.7,3.16,7.22c-2.48,3.17-3.14-.06-4.2-.64-1.54-.84-3.85-.26-4.96-2.29-1.04-1.9,2.68-1.34,2.95-3.94.24-2.32-1.59-3.06-2.08-4.49-.6-1.78,2.48-7.58,4.97-7.86-1.38-3.7-5.08,2.28-7.7-1.63-1.93-2.88.16-7.74-.17-8.59-.54-1.35-2.64-.96-2.88-4.16-.27-3.63,4.53-4.43,3.5-8.93-.57-2.5-4.86,2.06-6.42.02-1.35-1.77,1.36-3.57.37-5.33l-4.62,2.53c-.92-1.7-2.09-3.01-2.73-4.91-1.2-3.61-2.63-21.04-2.1-24.82.42-3,3.3-6.31,4.28-8.83.36-.91,2.61-8.04,2.57-8.48-.28-2.83-4.21-2.19-5.71-.49-1.33-3.01,3.01-2.62,3.69-5.01l-4.28-.76,3.52-3.36,1.35,3.5c5.46-1.14.94-4.58,2.5-8.17-2.69-.05-1.78,2.98-2.38,3.35-3.8,2.34-4.03-4.68-1.06-6.06,2.34.1,2.03.82,2.74.95s1.19-.91,1.88-.9c2.27.02,2.51,4.92,7.48,1.6l7.84-11.02c6.1-6.15,18.1-13.04,23.63-19,.91-.98.44-2.48,1.07-2.83,1.67-.94,6.66-1.11,8.74-3.57,0,.22.32,1.64.37,3.07-.8,1.1-.82,2.44-.07,4.04l.27.7c-1.53.44-1.8,3.51-3.59,2.18-2.54-1.88,1.09-4.84-2.21-4.79,2.03,3.81-4.24,6.76-4.68,8.4-.21.76.67,1.75.6,1.98,2.2,1.64-2.5,6.45-4.34,7.8-1.51,1.11-7.77,4.37-9.58,4.17-1.56-3.2-3.16,3.21-2.13,3.95,4.14,1.05,4.53,3.34,2.41,6.87-3.93,5.87-6.81,12.09-8.66,18.64.77,2.44,2.25,4.78,4.42,7.02-2.79,4.1-3.87,7.72-3.22,10.87-2.49,8.38-.78,11.17,5.13,8.36,2.64-.65,6.58,11.8,6.39,12.52-.44,1.69-2.59,2.46-4.17,2.66,4.22,2.93,5.69,4.96,1.35,8.72-.67,1.06-.52,2.17-.19,3.33,1.01,3.6,2.05,6.27,5.82,6.15.51,3.99,2.51,3.45,6-1.63,6.69-5.81,10.5,6.86,3.26,7.46,3,4.5-1.24,6.7-4.68,3.25-.36.31-2.32,8.71-1.26,9.08,5.04-.41,6.77,2.65,5.18,7.21l.98,3.3c-1.35,3.33-.71,4.23,1.91,2.71-2.64-6.96,7.35-8.67,4.52-.77.91.66,1.26,1.69.92,2.77,7.3-5.92,10.84-1.21,6.46,5.95-.29,1.04,3.32,9.13,3.98,10.06.09.13,2.56,1.53,2.66,1.41-1.05-7.31,12.05-4.69,11.12,1.31,5.76,8.7,8.02,17.39,8.87,27.62,3.39.22,7.69.53,5.44,4.88l.44,1.34c6.5,4.06,11.41,9.29,14.74,15.69,2.21.81,3.72,1.48,4.01,4.1.36-7.6,13.3-2.89,15.78.5.51,3.03.79,4.28,3.32,5.96-3.52,10.41-6.01,16.21-11.01,25.87-1.17,1.45-1.96,1.48-2.37.1Z"/>
  <path class="st12" d="M220.81,311.85c-4.33-.49-6.03,6.57-6.4.04-7.56.17-15.01-.69-22.56-.24-1.5-.4-1.29-1.15-.62-2.27-8.84-2.7-17.55-5.64-25.89-9.81-2.21-1.18-2.63-3.31-2.78-5.61-5.04.23-7.03-3.86-5.96-12.3l-3.7-6.99c-.1-5.44-5.95-4.82-6.27.25l-3.55,1.5c-1.89,2.41-2.64,3.29-5.06.89-2.24.9-4.68-2.15-4.55-4.59-4.01-.89-6.35-3.3-3.16-6.56-.27-1.32-.06-2.23.62-2.75,2.28-3.07,0-5.34-2.96-7.79-2.64-.8-5.07-2.26-7.28-4.36-2.41-.73-1.24-3.94-.12-5.68.04-.46-2.6-7.98-5.45-6.04-1.8-2.93-4.02-4.71-7.22-6.71-.47-2.11-1.21-4.17-2.23-6.16l1.1-1.41c-.11-1.76.54-3.37,1.96-4.83l-.71-6.02c1.11-.59,2.11-6.15,1.77-6.26-3.62,1.05-6.49-6.02-3.53-9-1.35-1.21-.88-2.73-.21-4.12-2.37-1.77-2.69-2.99-.96-3.65l4.04.07c-1.72-3.05-.88-3.6,2.58-3.79,1,2.18-.09,6.42-1.04,8.55-.41.91-2.3,1.04-2.11,3.46.03.32,1.91,5.49,2.16,5.65.86.53,2.81-.38,3.87.5-1.78,4.74-2.51,8.52.22,13.16,3.22-.21,3.28-5.12,4.08-5.96.61-.64,3.99-.62,5.1-1.54,3.04,3.69-2.44,4.02-2.85,5.12-.23.63,3.06,4.44,2.38,6.29,6.52-4.41,7.4,3.94,8.01,4.18.32.13,1.88-1.11,2.73-.93.33.07,1.28,1.65,2.2,2.21.73.44,2.13.22,2.61.62.53.44.2,1.78.68,2.41,2.17,2.91,1.35.64,3.47,5.24.79,1.72,4.1,2.55,1.87,4.99s-9.96-3.19-11.04-2.65c.2,1.49-2.31,4.04-1.68,5.03,1.82,2.87,6.37-2.96,8.14,2.58.52,1.63-1.92,3.74-.04,3.98.84.11,5.56-.78,6.34-1.2,2.18-1.17.8-2.83,2.11-4.03l3.28,4.36c-4.61.71-13.67,5.68-6.34,9.62,2.85,1.54,2.73-1.33,5.6,3.09,2.12,3.27,1.64-3.39,1.24-4.61-.43-1.31-2.67-2.01-2.09-3.77.26-.81,1.66-1.39,1.97-1.26.63.28.79,3.68,1.24,4.63,1.1,2.3,3.15,3.62,3.83,6.62.71,3.15-2.52,5.98.93,8.46,2.64,1.9,5.94,4.18,8.65,6.59s4.62,6.96,7.79,9.85c3.72,3.39,2.92,2.29,6.29,6.71.47.61,9.22,6.63,9.81,6.65,2.28.06-.51-3.71-.08-5.21,1.21-4.24,8.94-2.4,10.78-.44.98,1.05.39,3.06,1.23,4.32,1.75-.16,2.25-3.27,3.55-3.42,1.61-.19,2.48,1.3,3.16,1.41,4.11.67,4.21.4,8.47,1.85,1.43.49,3.52,1.84,4.84,2.17.46.12,1.67-.38,2.37-.1-1.6,3.1-2.72,5.75-4.61,8.98Z"/>
  <path class="st27" d="M105.73,262.59c-1.07,1.36-5.22.71-5.27-1.2-3.01,2.93-5.25-3.38-2.84-5.34l-.79-1.98c1.5-5.04,1.46-10.04-5.06-10.51-.98-1.87-1.22-3.67-.7-5.41-1.59-1.18-1.86-3.13-.56-4.64-2.75-1.69-6.02-5.39-1.87-6.93,2.87-4.37,5.78-2.87,6.62,1.95l1.44-.9c-2.64-7.58-6.73-14.82-11.01-21.67l-.28-3.03c-.89-.66-.68-1.11.43-.97l2.43-4.14c-.52,2.83,2.22,4.43,2.55,5.51.52,1.68-.46,4.45.34,6.23.89-1.84,1.75-5.98,1.8-7.91-.12-2.23,2.29-2.37,3.07-.37.07.24.17.47.27.7l2.07,1.06c3.44,6.49,6.54,13.14,9.28,19.95l-.86,2.29c.34,1.19.95,2.33,1.34,3.5,1.81-1.35-.69-3.38,1.37-3.74.67-.12.56.92,1,.97.95.1,4.22-.86,4.75.46,1.01,2.51-4.86,1.12-5.02,1.52l.98,3.63-1.42-2.66c-3.49,4.04,2.09,2.92,3.25,6.4,4.5-2.69,1.98-.74,1.94,2.77,6.91.09,4.34,2.7,6.19,6.03.13.23,2.62,1.64,4.03,2.95.33.3,4.66,2.39,2,3.29-.33.11-4.74-3.28-6.06-3.28-.86,1.3-.21,2.79-.42,4.16,1.32,1.47,1.04,1.9-.87,1.94-1.95,1.76-3.46.09-3.61-2.22,1.07-1.07-1.63-6.13-1.98-6.07-.19.03-2.88,1.22-3.18,1.37-.54.27-1.07.5-1.71.48.37.56.23.88-.43.97,1.03,2.3-.84,4.06-2.97,2.74-4.57.81-2.34,6.76.56,7.67.75,1.07.99,4.5-.76,4.44Z"/>
  <path class="st8" d="M83.47,202.05c-.69.03-.77-.2-.27-.7-.15-2.27.16-4.26.93-5.97-.25,1.28-.56,2.39-1.84,1.5-5.02-2.98-7.3-8.11-9.05-13.75s-3.09-10.01-3.17-15.9c-.49-2.39-1.35-4.34-2.36-6.53.17-.29.04-1.19.17-1.67.33-2,.18-3.82-.47-5.44-.01-.61-.77-1.52-.67-2.89s1.71-3.84,1.45-5.17c-.32-1.63-4.62-2.59.56-5.28.21,3.94,1.67,6.72,2.15,9.88.09.6-1.1,1.07-1.1,1.35.04,2.96,2.49.79,2.79.95,1.65.9-.6,1.78-.72,2.4-1.31,7.3-.04,11.13,2.05,17.95,1.75.28,2.94,2.31,3.59,6.09.88-1.18,2.02-1.35,3.08-.33.75,3.51,2.76,4.51,1.85-.04,2.85-2.39,5.66-4.83,8.42-7.32,3.08.77,6.15,7.96,2.85,9.32-.37,1.81-3.81,4.08-3.95,5.5-.52,5.47,5.85,8.62-6.69,6.58.19.92.95,1.96,1.06,2.81.63-.49,1.29-.9,1.82-1.5l1.78,2.53c-4.04,2.28-3.24,2.13-1.9,5.55.11.29.03.94-.43.97-1.19,2.07-2.59,1.44-1.94-.87Z"/>
  <path class="st28" d="M93.71,180.49c.3-1.45-.6-8.18-2.69-7.86-3.11.47-3.07,6.27-7.6,6.17,2.99,4.92-4.06,6.24-4.04-.07-1.1.28-.14,3.87-1.99,3.16-.85-.33-3.09-7.84-3.48-9.11,1.18-2.57-2.48-8.5-1.51-10.26,1.61-2.91,6.41-2.72,4.45,1.11,1.72-1.83,4.7-1.04,4.57,1.47,5.47-1.03-.49-5.18,5.41-6.87-.33,4.36.65,8.37-.39,12.17-1.47,5.4,3.32-1.37,4.66-.96.34.11-1.09,3.58,5.32,3.03,6.69-.57.44-4.61,6.27-4.92,3.25-.17.48,5.13,2.39,6.98-1.9,1.54-3.59-2.42-4.9-1.33-2.04,1.68,3.07,3.01.88,4.47-1.93,1.28-5.79-3.15-5.21,0,.35,1.89,3.29.2,3.16,1.99-2.96,5.5-1.4.13-5.3.82Z"/>
  <path class="st1" d="M106.76,225.28c-2.69-9.34-7.09-14.83-10.48-23.29,3.42-.42,1.47-5.16,3.5-6.86s1.6.12,2.41.78c1.02.83,2.62,1.25,3.1.24.2-.42-5.7-5.12-5.18-7.55.11-.54,2.38-1.68,2.42-1.83.05-.18-1.7-1.48-1.5-1.82.06-.11,1.9-1.11,2.27-.39,1.57,3.09,1.99,3.78,1.8,6.86-.15,2.49,2.1,1.81,2.44,4.2.07.49-1.04.87-1.06,1.08-.09.79,1.31,1.34,1.25,2.54s-1.76,2.2-1.26,4.13c.33,1.26,1.99,2.63,1.71,4.54,1.15-2,2.96-1.35,3.29.64.14.85-.86,1.75-.88,2.45-.02.81,1.17,1.61,1.09,1.94-.1.38-1.9,1.08-2.28,1.88-.15.31,1.3,5.29.69,6.41-.43.79-2.48,3.23-3.31,4.08Z"/>
  <path class="st12" d="M109.96,183.13c5.42-.95.79-6.17,3.63-9.41,2.48,2.6,1.51,4.21,1.89,6.96.28,2.02,2.87,4.32-.72,5.23-1.77.45-4.18-.97-4.8-2.78Z"/>
  <path class="st12" d="M126.96,208.74c-.26-.06-2.64-4.36-2.58-4.62.41-1.58,5.38-2.14,5.56,2.18.06,1.4-2.23,2.62-2.98,2.43Z"/>
  <path class="st1" d="M92.94,201.65c.03-1.49-1.63-3.02-.55-4.59.49.84,3.35,1.44,3.46,1.61.78,1.28.09,2.39.15,2.61l-3.07.37Z"/>
  <path class="st26" d="M121.98,197.82c3.11-1.45,5.4-1.17,6.5,2.33-.14.47-5.96-1.24-6.5-2.33Z"/>
  <path class="st26" d="M218.2,300.8c-.06-1.11,1.48-4.54,2.43-4.13,1.23.52-1.03,4.03-2.43,4.13Z"/>
  <path class="st34" d="M236.43,277c-5.32.81-3.59-4.45-5.1-6.06-.67-.72-9.29-3.45-10.26-3.23-2.9.64-1.79,4.29-2.75,4.96-2.33,1.6-2.56-3.2-3.03-3.71-.6-.63-2.28-.55-3.25-1.71-1.68-2.01-2.97-5.89-5.09-8.1-2.96-3.07-13.78-7.2-9.17-11.97-1.43-1.35-5.25-.57-6.21-1.78-.5-.63-1.94-12.91-2.84-15.64-1.66-5.02-4.22-7.78-6.2-12.08-.49-1.07-.04-2.88-.64-3.67-.26-.34-6.19-1.31-7.4-1.68-.55,11.81-3.03,3.08-4.51,3.29-.52.07-2.96,1.03-3.03,1.18-.28.6,2.43,3.08-.33,3.34-.46-2.51-.59-4.31-2.4-6.3l4.03.06c-.15-2.78-3.54-6.22-3.83-8.35-.44-3.24,4.05-5.63,1.2-9.1-3.68,1.96-9.15,4.12-6.98,9.08-7.87-2.55.26-7.81,0-8.42-.09-.22-1.53-.41-1.75-.94-.17-.42,1.99-3.91.45-4.58-.38-.16-1.98.64-2.21,1.62-.68,2.95,3.84,3.52-3.9,5.52-2.34-2.32-.38-4.94-.41-5.23-.12-1.04-.99-2.1-1.03-3.26-.05-1.46,1.05-2.63.41-4.25-.98-2.47-3.73-.91-4.94-1.83-3.05-2.31.12-5.76.58-8.51.27-1.61-1.49-3.99,1.79-3.27,1.21.27,2.18,2.9,4.42,1.14-4.5-5.89,1.38-3.77,2.1-4.85.3-.46.41-5.18-1.21-5.55-3.91-.89-6.82,7.92-9.8,5.66-1.78-1.35.46-5.03-4.9-2.03.01-4.28-4.55-7.62-2.57-11.9.45-.97,3.17-3.15,2.95-3.89-.11-.38-4.96-3.88-5.83-5.25-2.79-4.42,1.29-6.26,2.88-.45,5.5-1.73,1.87-3.06,1.05-5.62-1.97-6.18-.57-8.81-9.11-4.95-2.85-4.34-1.03-7.51-.64-11.52.05-.47-.85-1.35-.69-2.68.26-2.23,4.06-7.65,3.99-8.16-.19-1.44-4.27-2.45-4.53-6.65-.17-2.74,2.57-8.44,3.83-11.08.97-2.04,6.89-10.97,6.13-12.24-.66-1.11-3.74-.64-4.21-3.12-.09-.5,2.21-8.48,2.55-8.79,1.92-1.76,1.25,3.57,1.94,4.03,1.11-.2,2.33-.01,3.42-.45,2.57-1.03,9.32-7.58,10.13-10.3.57,2.86,4.03-.45,5.44-.46,1.22.53-.28,4.9-1.08,5.66-1.1,1.05-2.35.48-3.12.95-.91.56-1.48,3.49-2.66,3.83-.84.24-2.66-1.61-3.84-1.4-1.27.22-5.46,4.83-8.18,4.57.52,1.71.24,1.32,1.57,1,3.09-.75,6.34-1.8,9.38-2.77,2.45,2.24-1.25,4.98-2.1,7.19-1.62,4.24-5.58,16.66-4.6,20.62.48,1.92,3.63,6.38,3.45,7.05-.06.21-1.93,1.48-2.54,2.64-.47.9-1.38,4.9-1.27,5.86.3,2.73,8.77-.9,9.02,2.84.18,2.71-5.85,2.41-7.04,3.22-3.08,2.07,1.39,11.41,6.17,8.64,1.55-.9,2.17-3.86,4.05-4.57.95-.36,8.2.39,8.8,1.04,2.53,2.77-2.74,1.57-3.08,2.35.02,1.61,4.69,4.17,2.47,5.35-.23.12-4.5,1.17-5.01,1.24-.96.14-2.62-2.9-4.37-1.55,2.04,1.77.97,3.14,1.26,4.93.17,1.05,1.92,2.14.57,3.15-2.37,1.77-2.2.79-3-.63-1.27-2.25-4.64,3.87-1.95,6.53.5.49,1.75.5,2.37,1.31,2.1,2.75.31,5.26,5.61,4.33,1.68-.29,3.92-1.69,5.3-1.45,2.23.39-.15,2.86.9,4.33s7.7,4.11,7.99,4.47c.88,1.12-.23,3.51.44,5.31.59,1.58,2.58,2.91,2.82,3.78.2.75-2.94,5.08-2.73,7.9.11,1.48,1.26,2.12,1.66,3.33.32.97-.15,1.28-.17,1.67-1.61,3-2.46,8.41,1.67,9.88l4.72,6.68c1.16.51,1.82.25,2.82-.81,1.66-.4,2.28-1.23,3.47.68.98,1.58,2.63,7.44,2.56,9.29-.09,2.36-2.92,2.03-1.49,6.34,1.79,5.38,4.3,2.15,5.44,3.65.58.76.12,6.73,1.28,8.97.14.27,3.66,4.51,3.94,4.61,2.79.95,1.48-4.27,2.52-4.97,1.47-.99,3.08,1.8,4.01,1.7,1.34-.14,2.98-1.39,4.41-1.69,2.05,2.66-1.6,6.73.28,9.02,1.02,1.24,5.71-.45,7.18,2.19-3.91,4.75.77,1.83,4.18,3.65,5.45,2.91,3.32,6.12,6.66,9.79,4.16,4.57,8.44,2.62,11.25,4.71,2.38,1.77.84,4.35,3.45,4.62-1.27,4.4-2.5,8.41-3.97,12.75Z"/>
  <path class="st33" d="M179.55,142.24c.25-.38,4.85-1.32,5.08-1.2,1.75.98-.44,5.8-3.73,5.06-1.34-.3-1.69-3.35-1.35-3.87Z"/>
  <path class="st33" d="M182.29,164.39l3,3.67c-3.01,1.2-2.14-1.94-3-3.67Z"/>
  <path class="st33" d="M168.31,159.3c.3-.61,2.51-.78,3.2,0,1.85,2.08-4.12,1.87-3.2,0Z"/>
  <path class="st15" d="M308.55,219.83c-5.2,5.28-10.72,20.99-16.89,27.01-18.53,22.15-37.9,49.61-59.64,68.58-2.32,2.02-4.86,4.35-7.74,5.53.88-2.24,1.75-5.4,2.77-7.47.35-.7,1.55-1.6,2.15-2.81,27.46-54.71,32.12-116.28,96.09-143.78.73.53,3.46.85,3.68,1.4s-2.66,10.31-3.1,11.94c-.36,1.35-2.61,6.33-2.59,6.69-1.26,1.16-7.62,2.07-9.95,2.01-.48-.01,9.06-1.78,9.09-.07-.12.13-.22,2.47-.66,3.48-2.9,6.61-10.13,19.32-11.65,25.29-1.8,1.1-2.32,1.83-1.57,2.2Z"/>
  <path class="st15" d="M334.51,199.5c3.64-6.94,11.39-18.35,11.66-2.62.66,37.23-21.67,80.74-52.7,101.33-4.73,3.14-27.39,15.36-31.46,14.4s2.38-6.33,3-7.98c.92.21.8,5.96,2.37,3.1.3-.55.37-5.5,1.31-7.26,2.21-4.12,8.74-9.57,11.58-13.7.23,1.69.73,5.06,1.07,6.6.22.97.99,3.06,2.04,2.63,1.74-.71.38-12.36.7-14.5l12.83-16.32c1.01,3.75,1.14,7.99,2.17,11.72.22.81.31,2.76,1.5,2.12.02-4.74-2.53-12.71-1.29-17.14,1.1-3.91,8.74-11.83,10.7-16.13,2.69,3.39,2.1,8.01,3.32,11.95.24.77.77,3.49,1.92,2.9-1.58-6.51-2.09-13.19-2.73-19.82l.48-4.01c6.14-11.44,12.29-22.87,18.46-34.29l1.74-.07c1.31,3.89,1.65,7.7,2.75,11.41.24.8.47,2.81,1.61,2.17-.81-5.58-1.51-11.02-3.06-16.49Z"/>
  <path class="st6" d="M308.55,219.83l-22.99.74c7.7-3.45,16.42-1.86,24.56-2.95-.05.2.64.92.42,1.35-.28.56-1.68.55-1.99.86Z"/>
  <path class="st6" d="M322.43,188.86c-4.74-.51-9.49.91-14.18,1.15-.83.04-2.18.63-2.4-.44l17.45-2.64c.01.14,1.37.91,1.24,1.13-.2.33-1.76.45-2.11.81Z"/>
  <path class="st24" d="M89.74,260.66l.71-.14c.5,2.43,1.67,4.1,4.18,4.72-.65,1.21-1.04,2.59-1.17,4.15-3.11.23-5.86,8.37-3.11,8.62,6.31-1.9,5.19,1.67,3.65,5.93l1.22,2.76c6.22-2.42,11.19-2.04,6.11,5.73-1.41,3.93,1.65,9.21,6.08,8.01,3.98-2.59,5.18-.24,3.61,7.05,8.78,5.95,19.29,8.38,29.74,9.55,1.44,2.66,3.19,3,5.26,1.01,9.26-1.62,14.57,8.42,2.98,7.54-.15.08-1.18-.26-1.93.07-.83.36-2.48,1.97-2.95,1.77-.16-.07-.38-1.64-2.17-2.28-3.35-1.21-13.91-.78-18.55-1.42-6.46-.9-21.09-4.6-25.41-9.42-4.04-4.5-.55-5.42-.68-6.5-.17-1.43-1.48-3.18-1.8-4.71l-3.67.94c-1.66-1.41-2.89-1.62-4.41-3.14-.98-.98-6.11-7.57-5.99-8.17,1.19-3.38,6.18-2.42,8.07-3.96.15-.12,1.73-3.25,1.66-3.43-1.17-3.24-2.99-1.15-4.66-.93-.76.1-.75-1.22-1.37-1.11-1.83.32-.23,1.98-1.39,2.9-2.93,2.32-5.07-.14-6.21-2.76-2.91-6.68.07-5.58,3.11-10.85-4.41.08-9.39-3.66-7.27-8.5.65-1.49,3.84-3.85,4-4.31.91-2.61-5.08.04-5.92-1.3-.35-.55-1.52-10.72-1.21-11.21.29-.45,2.32.05,3.02-.36-.17-2.26-2.07-.61-2.99-1.76-2.21-2.76-.06-6.26-.37-8.76-.68-5.57-3.79-12.35-4.3-18.21-.12-.21-5.18.36-4.07-2.11.51-1.14,3.69.35,4.34-.06,1.12-.71.24-6.31.13-8-.52-7.69-1.03-16.44-2.27-24.08-2.46-1.13-1.09-5.27,1.74-3.87-.03-.71.21-.79.7-.27,3.12-1.1,2.78,2.32,2.22,4.62,1.65,7.08,2.61,14.25,2.89,21.54,3.99,11.04,7.18,22.18,9.57,33.44,3.35,1.98,2.88,4.86-1.14,5.17l1.66,2.93c-1.93,5.15,2,9.12,6.91,9.76l1.5,3.44Z"/>
  <path class="st5" d="M312.52,240.79c-.27-2.79-1.76-7.42-.97-10.03,1.14-3.76,6.72-11.64,8.79-15.82,3.14-6.32,5.68-12.97,9.16-19.14,1.48-.9,1.23.33,1.7,1.34.75,1.59,1.44,3.58,2.01,5.27l-20.69,38.38Z"/>
  <path class="st21" d="M59.9,178.12c.25-.43.82-.8,1.13-1.23,1.94-.91,4.6,1.24,4.41,3.14-1.52,1.2-2.03,2.05-1.74,3.87-4.78,1.1-.32-3.9-3.8-5.77Z"/>
  <path class="st14" d="M160.03,322.96c-.75-.22-5.14.89-5.17,1.16-.15,1.33,2.59,2.96-.7,3.52-2.22.38-2.42-2.65-5.18-2.07.65-.33.88-1.77,1.22-2.07.53-.46.5.97,1.15,1,.38.01,2.37-1.12,3.23-1.07-.15-2.96-4.78-4.26-7.15-4.14-1.55.08-3.31,1.24-4.27,1.1-.32-.05-1.6-1.57-2.89-1.96-3.21-.94-7.64-.79-10.92-1.58-3.64-.88-18.39-5.99-19.81-8.89-.99-2.02,1.82-7.43.86-7.82-5.62,5.7-12.63-1.81-10.59-7.95.6-1.81,3.26-3.76,1.91-6.4l-6.73,3.37c-1.53-2.7-3.09-3.8-2.25-7.15.28-1.11,2.2-1.31.62-3.47-6.63,3.74-6.7-4.53-3.62-8.3,1.12-1.37,2.9-1.63,3.53-2.48,1.33-1.77-1.43-2.95-2.24-4.2-.63-.97-.85-2.3-1.28-2.91-1.4-1.95-2.12-4.09-2.13-6.42-3.01.45-4.54-1.64-4.62-4.43.38-4.91.28-8.64-2.37-12.94-1.71-3.24-2.96-13.2,1.9-11.98.81.35,1.23,1.6,1.27,3.75,2.47,2.07,4.71,5.91,2.71,8.96,3.73,3.65,4.51,6.37,2.36,8.15-1.51-.67-1.57-.11-.17,1.67,2.68,3.56,3.93,7.58,3.75,12.05.38,2.71.63,3.92,3.26,2.21,1.29.87,2.87.78,4.74-.27,1.54.39,3.76.48,5.27,1.2,1.58-.56,1.46.13.53,1.4,1.18,2.3-.2,2.85-4.15,1.67-.35.8-.97,1.17-1.89,1.43l-1.02,1.36c-4.74-2.53-4.32,4.16-2.05,4.31,5.64-.98,12.93.59,5.32,5.41-3.58,7.53.4,6.74,4.72,1.85l2.85.19c1.45-.76,1.76-.15.27.7-.52,3.22-2.06,6.09-4.61,8.61-.5,2.52,11.94,14.8,14.77,15.13,4.95-2.51,7.19-1.5,6.74,3.03,5.04,2.1,10.17,4.07,15.36,5.93l1.35,2.33c1.87-2.51,4.3-3.32,6.07-.39l1.67-.38c.92,1.7,2.17,1.73,3.76.1,1.35.89,2.67,1.11,3.96.67,2.03-2.03,4.08-1.96,2.29.77.76,1.3-.69,3.48-1.47,4.57-.03.51-.31,1.01-.17,1.67Z"/>
  <path class="st4" d="M187.93,320.36c1.38.88,1.85,1.69,2.73,2.96-2.74.05-4.18.78-6.31,2.4,2.55-3.01-3.52-6.68-5.48-6.64s-4.05,2.76-4.9,2.57c-.19-.04.22-2.89-2.03-3.23-2.72-2.09-3.54-4.08-2.46-5.94-1.99.25-3.4-.13-4.25-1.13-1.03.46-4.63-1.44-5.8-2.76-5.19-9.56-10.24-19.23-15.15-29.02-.34,7.86-2.93,5.56-6.18.86l1.35,5.36c-4.26,5.74-8.31-.09-8.35-5.87-7.47,2.68-6.91-4.66-6.32-9.62-1.91.65-3.54.48-5.33-.55-.62-.36-7.37-10.48-7.98-11.78-1.3-2.81-3.53-7.66-2.59-10.22.18-.28.26-.66.43-.97l2.21.59c2.55,4.37,5.52,8.41,8.91,12.13l.2,2.23c3.48-2.33,5.85-1.64,7.1,2.05.97-1.59,2.09-1.98,3.18-.35,1.02,1.56-.9,5.76-.63,6.27.48.89,3.48,1.21,4.21,2.01.81.89.29,2.2.89,3.09.14.2,3.84,2.63,4.08,2.68,1.41.29,1.56-1.51,2.79-2.3.99-.64,2.44-.69,3.33-1.27.79-.52-.22-2.92,1.88-3.98.98-.49,5-.33,5.74.24.8.62.45,2.67,1.05,3.93,3.32,6.96,4.53,4.89,3.92,14.03-.43,6.52,3.99,3.44,5.5,4.66.89.72-.12,3.25,1.53,4.88,1.35,1.34,9.73,4.28,12.13,5.43,3.71,1.77,1.38,1.25,5.93,2.28,1.73.39,10.18,1.73,9.41,4.32l-.87,1.94c-1.24.07-7.58.22-7.81.57l1.42,2.65-8.14-1.32c-.53,6.45,2.4,2.75,3.51,3.21.35.14.63,1.34,1.28,1.72.96.55,2.86,1.99,3.06,1.95,1.16-.23.14-1.77,2.77-.08Z"/>
  <path class="st18" d="M100.46,261.39l-2.08,4-3.11-2.82-.16,1.65c-5.71.84-3.81-9.18-4.57-11.64-.59-1.9-2.25.06-1.83-5.18-1.53-.36-1.36-1.17.17-1.67.2-1,.88-2.21,1.16-3.26l-2.24.45c.25-2.7-1.98-3.24-2.78-4.96-.71-1.54,1.91-1.87,1.52-4.63-.56-4.01-2.96-2.29-3.79-4.23-.64-1.5.05-3.1-.22-4.23-3.76-.77-4.81-6.49-4.31-10.19-3.09-8.25-5.98-16.6-8.66-25.04.94-5.83-.2-9.13-3.42-9.9-.24.11-.54.14-.7.27-1.26-1.06-3.53-1.72-4.41-3.14-2.9-4.68-.37-7.88-.77-12.55.8.4,2.22-.08,3.07-.37,1.17-.39,3.14-1.42,3.94-2.3,2.71,1.28,5.61,13.55,1.04,13.25-.6.87-.57,1.66.1,2.37-.25-1.63,1.34-2.23,2.48-1.41,1.48,1.06,5.01,15.28,3.93,18.23l1.97,1.07c3.33,5.88,7.06,13.95,7.04,20.68,4.99.71,9.7,12.48,2.13,10.89,2.75,5.21,3.92,9.78,5.36,15.43.12.46.5.68.94.78-.7,6.06.36,7.95,5.45,10.65l-.09,2.44c1.28,2.99-.51,4.49,2.84,5.34Z"/>
  <path class="st0" d="M83.47,202.05c.9,5.31-4.6,1.16-3.06-3.4-1.71-1.67-3.57-3.18-5.58-4.54-1.73-5.21-2.88-10.46-3.62-15.88-.92-1.8-1.64-.9-2.79-.94-1.99-.49-1.93-1.46-.1-2.37.27-1.2,1.41-1.89,1.43-3.72.02-2.94-.62-7.24-2.46-9.53.13-.14.25-.66.43-.97,1.38,1.07,1.95,2.65,2.43,4.26,1.97,6.64,1.6,12.81,4.9,18.96,1.64,3.06.84,2.21,1.63,4.22,1.65,4.24,4.58,6.49,5.63,8.73,1.26.13,1.56,1.62.9,4.47l.27.7Z"/>
  <path class="st0" d="M67.41,153.59c2.96,1.32.9,3.86.47,5.44-1.2-1.83-.44-3.63-.47-5.44Z"/>
  <path class="st25" d="M160.2,321.29c.03-.43-.65-1.22-.44-2.21s1.32-1.62,1.9-2.36c1.02-2.62-2.21-1.03-3.87.22l-1.78-1.46c-1.55-6.56-6.18-10.53-13.91-11.89-5.88-3.08-2.21-6.64,1.21-9.68.54-3.94-3.94-4.98-6.9-3.32,2.84,5.1,1.63,12.78-4.05,5.75-5.51-2.99-13.21-7.51-10.09-14.78-3.71,3.92-7.35-2.2-5.67-6.31-3.84-.73-7.64-4.58-3.85-7.67-4.59,1.94-7.72-.82-4.65-5.09-1.13-1.12-1.87-2.8-2.22-5.04-3.3-1.6-3.61-6.57.05-6.97.74-.82,1.83-.93,2.97-2.74,2.01,3.17,2.95,7.95,4.7,11.17,1.01,1.85,2.5,2.93,3.65,4.55,1.58,2.23.9,4.97,5.04,5.73,1.72.32,2.7-1.76,3.84.48,1.7,3.31-1.7,4.65-.32,6.94.99,1.64,2.86,4.03,4.41,2.16.38-.46-.51-2.67,1.46-2.8,1.41,2.85.6,9.23,3.66,10.63.86.4,2.48.33,2.71-.22s-3.04-6.16-.48-8.65c1.93,1.81,3.9,3.59,4.42,6.34,1.48-1.85-.79-8.14,3.34-5.52,5.25,8.26,8.73,18.18,13.7,26.49.78,1.31,1.77,3.12,2.78,4.17.89.91,2.79,1.29,3.41,2.13,3.77-.09,2.12,6.62-1.37,6.94-.19.25-1.84,2.03-2.27,2.47-.23.24-1.02.29-1.4.53Z"/>
  <path class="st35" d="M181.25,201.71c-.83,11.25-1.47,3.37-4.26-.22-1.29-1.67-2.25-2.14-4.18-4.94-.69-1.01-2.05-1.49-2.42-2.33-.33-.75.15-4.26.09-5.78-.07-1.73-1.37-1.74,1.55-2.48-.07,1.8-1.31,6.08-.24,7.55.58.81,2.24.83,2.84,1.66,1.52,2.08-.22,1.55,3.08,4.72.79.76,1.23,2.44,1.45,2.57.28.16,1.48-.61,2.07-.75Z"/>
  <path class="st33" d="M212.76,216.99c-1.34-3.76,1.33-4.73,4.5-2.91l-4.5,2.91Z"/>
  <path class="st33" d="M204.75,212.82c-3,2.5-4.96-2.96-3.34-3.52.7-.24,3.54,3.13,3.34,3.52Z"/>
  <path class="st35" d="M159.22,51.19c.05,1.51.93,2.81-.07,4.04-2.62-1.87-4-4.12.07-4.04Z"/>
  <path class="st25" d="M130.93,263.42c-.58.3-1.91.55-2.1.81-.07.09,1.56,1.16.44,2.22-2.54.19-4.52-5.21-4.86-5.36-.61-.27-2.8,2.18-3.23,2.04-.23-.08-.29-1.18-.54-1.4l-.55-1.91c5.52-2.14,5.65-3.75.38-4.83l-.67-1.77c-.18-.77.82-1.62.87-1.94,4.55-.59,2.54.54,3.96,1.89.74.7,2-.49,1.4,1.68,2.59-3.64,8.18,5.6,7.81,6.7-.45,1.35-1.92,1.36-2.93,1.88Z"/>
  <path class="st32" d="M97.62,256.05c-1.6-3.72-4.73-1.95-6.37-5.98-1.09-2.68-.16-6.59-.61-7.67-1.59-3.78-1.4-2.8-2.54-7.17-.99-3.83-3.87-6.32-3.89-10.18,1.21-1.09,3.46,1.07,3.94.89,1.8-.68-1.61-6.9-2.82-8-.92-.83-2.27-.35-2.63-.89-.89-1.33-.12-4.5-.84-6.74-1.58-4.91-5.18-10.6-7.04-16.2,1.67-1.93,6.72,3.26,6.96,4.03.37,1.16-.39,4.44.56,5.15.29.21.94-1.2,1.13-1.23.1-.02,1.16,1.13,1.94.87,5.46,7.52,9.62,16.78,13.64,25.29-2.74.71-4.06,3.79-5.6.15-.47-1.11.52-2.95-1.44-2.85-.97.05-3.74,2.2-3.93,3.43.23,2.57,1.84,1.78,2.45,2.36,3.36,3.18.16,2.79.63,4.7.22.89,1.38,1.01,1.61,1.9.33,1.32-2.26,2.72-.2,4.83l2.43-4.13c1.99,1.55-.63,3.72.07,4.37.77.71,1.96.35,3.06,2.03,1.72,2.62.91,8.4-.49,11.05Z"/>
  <path class="st38" d="M109.33,246.77c.34-.59.27-2.07.96-2.77,1.22-1,1.45,1.01,1.85.84.54-.22,1.26-1.73,2.18-1.49,1.45.38,2.76,2.56,1.67,4.09l2.12-.8c1.01,3.26-2.55,5.07,1.7,6.57,2.63.93,5.08.66,6.43,4.3-.76,2.66-4.32,1.2-5.59,4.21-4.99-4.41-7.55-9.47-11.31-14.95Z"/>
  <path class="st18" d="M105.73,262.59c-.04-.63.72-3.07.34-3.33l-3.08.35c1.33-2.58-.73-3.92-.74-6.27,0-.4,2.62-6.57,3.68-2.86-2.21,2.45-2.8,3.62.56,5.62.81.48,1.52-.05,1.58,0,.33.26-.58,1.51-.5,2.38.13,1.28.36,2.72.53,4.01-.33,1.77-.95,2.27-1.84,1.5-.09-.47-.51-1-.53-1.4Z"/>
  <path class="st27" d="M82.3,196.88c.47-.68,1.21-1.02,1.84-1.5.29,2.19.04,3.99-.93,5.97-.57-1.37-.3-3.18-.9-4.47Z"/>
  <path class="st35" d="M162.54,177.32c-.69-.56-.83-2-1.5-2.44-1.15-.76-4.91,1.46-5.86-2.02,2.13-3.25-.91-17.35,5.1-13.18,6.15,4.27,1.3,9.13,4.51,13.23,1.34,1.71,5.16.54,5.87,3.14-1.76.9-6.49,2.62-8.12,1.28Z"/>
  <path class="st35" d="M162.94,189.41c-3.66-5.35,1.27-9.8,3.84-2.32l-3.84,2.32Z"/>
  <path class="st26" d="M155.09,183.59l-.46-5.44c.41-.64,4.22-.33,4.63.01,3.22,2.78-1.89,3.82-4.17,5.42Z"/>
  <path class="st26" d="M175.38,203.15l1.6,4.2c-2.9,1.25-4.59-3.2-1.6-4.2Z"/>
  <path class="st26" d="M144.41,155.55l-1.07-2.8c2.8-1.05,3.82,1.75,1.07,2.8Z"/>
  <path class="st21" d="M89.74,260.66c-2.61-3.64-3.85-1.83-5.07-2.59-.31-.19-5.05-4.79-5.18-5.13-.76-2,.74-3.66.4-5.13s-3-3.18-1.06-4.57c.51-.36,3.48-.07,2.85-1.58-.05-.13-1.58-.46-2.19-1.61-2.34-4.42-1.47-9.05-2.68-12.79-2.19-6.81-7.79-19.5-7.7-26.11.11-7.76-.4-8.85-2.19-16.2-.4-1.66,1.5-4.49-.78-5.19.21-.1.05-1.1,1.79-.92,4.43.46,2.54,9.12,3.27,12.2,1.78,7.44,6.07,14.45,8.09,21.06.92,3,.01,5.34.46,7.19.41,1.69,2.22,3.33,2.77,5.59-2.28,1.04-2.01,6.44-1.58,8.3.75,3.25,3.02,6.64,3.6,9.75s-2.16,12.45,4.37,9.22l.83,8.51Z"/>
  <path class="st27" d="M161.67,316.72c-1.05-3.67-3.18,1.84-4.19,1.58-.21-.05-.99-1.72-1.89-1.69-1.44.21-.6,4.63-5.61-1.06-1.54-1.11-3.14-2.25-4.79-3.42-14.62-4.06-30.57-12.18-36.42-26.9l1.52-4.32c-.11-.57.66,0-.27-.7-4.28,1.36-7.66-1.92-4.14-5.53.07-.07-1.08,1.19-.31-1.05-3.82-.33-9.4-3.3-5.36-6.54.27-4.99,4.28-2.03,5.18-2.19.42-.07.61-.76.86-.91.53-.32,1.05-1.28,1.84-1.5.19,1.43-.19,3.01.91,4.44.52.25,7.87-2.97,6.66.68-.08.25-3.15,1.33-3.11,2.5.78,3.75,5.1,3.37,5.65,4.27.73,1.19-2.04,3.63.62,6.27,2.21,2.2,1.93.1,2.52-.22,5-2.69,1.27,4.19,1.42,4.92.18.87,2.16,3.91,2.9,4.75,1.89,2.16,5.6,3.52,7.7,5.13.68.52,3.58,5.51,3.11.64-.37-3.78-3.82-6.16,1.21-7.35,4.01-.95,8.03,1.69,7.06,5.81-.54,2.3-9.17,5.42-.4,8.57,4.58,1.64,8.22,2.02,11.4,7.1.71,1.13,1.34,9.15,5.03,4.3,1.04-1.37-1.44-2.7-1.23-3.16.26-.56,3.19-.23,3.73.18,1.15.87-.2,4.66-.79,5.49-.31.44-.78-.09-.8-.06Z"/>
  <path class="st18" d="M149.99,315.55c-4.96-1.62-4.02,1.94-7.44,3.63.13-1.76-.05-3.8-1.52-5.03-.82-.68-10.11-2.72-12.27-3.72-3.95-1.83-3.02-2.57-3.23-6.42-5.56,3.94-7.03,1.94-11.56-2.08-1.2-1.07-4.39-4.26-5.63-5.59-8.49-9.11-1.95-7.43,1.97-15.42.44,2.25-.45,4.48.12,5.65,1.45,3,7.95,10.18,10.64,12.49,1.67,1.43,11.2,7,13.29,7.96,3.82,1.76,11.81,2.75,14.33,5.66.78.91.93,2.44,1.31,2.88Z"/>
  <path class="st27" d="M163.87,318.29c1.29-1.75,2.77-5.06,1.37-6.94,2.28-.72,4.31-.71,6.54.33.82,2.22-3.64,1.17-.54,3.83.63.54,2.33-1.54,2.15.35-.01.15-1.31,2.48-1.44,2.56-.8.54-6.55-.73-8.08-.13Z"/>
  <path class="st30" d="M62.78,172.97c-.32-.25-.48-1.49-.81-2.06l2.11-.81c-1.26-.65-3.37-3.36-2.46-4.58.5-.67,4.69-1.42,5.05-1.17.65.44.69,7.41.46,7.71-.48.62-4.13,1.07-4.35.91Z"/>
  <path class="st32" d="M68.41,177.29c-2.57-.09-3.29,1.42-4.13-2.43l4.03.06c-.11.49.38,1.66.1,2.37Z"/>
  <path class="st18" d="M110.04,280.21c-3.4.57-6.9,8.78-10.44,3.25-.62-.96,1.1-5.45,1.74-6.25.99-1.26,6.93-3.72,2.66-3.61-7.55.19-10.37,3.68-9.73-7.44l5.96.94c-.31,5.7,5.12,4.88,6.84,7.44.4.59-2.23.79-.98,3.41.81,1.7,2.66,1.29,3.95,2.27Z"/>
  <path class="st21" d="M88.71,247.41l-2.72.24c-.05-2.01,1.7-6.39,2.89-1.9-.1.54-.12,1.12-.17,1.67Z"/>
</svg>