<?xml version="1.0" encoding="UTF-8"?>
<svg id="Layer_1" xmlns="http://www.w3.org/2000/svg" version="1.1" viewBox="0 0 384 384">
  <!-- Generator: Adobe Illustrator 29.6.1, SVG Export Plug-In . SVG Version: 2.1.1 Build 9)  -->
  <defs>
    <style>
      .st0 {
        fill: #8c818e;
      }

      .st1 {
        fill: #8b808e;
      }

      .st2 {
        fill: #e8a42d;
      }

      .st3 {
        fill: #bdd8fc;
      }

      .st4 {
        fill: #8b818e;
      }

      .st5 {
        fill: #766d78;
      }

      .st6 {
        fill: #dceafc;
      }

      .st7 {
        fill: #fefefe;
      }

      .st8 {
        fill: #edbf6b;
      }

      .st9 {
        fill: #786f7a;
      }

      .st10 {
        fill: #8c818f;
      }

      .st11 {
        fill: #9dc7fb;
      }
    </style>
  </defs>
  <path class="st8" d="M78.7,166.13l1.86.4c4.28,6.82,13.12,8.08,20.74,8.3l17.84-.4,1.16,1.38,2.74,1.07c16.03,19.16,32.06,38.31,48.09,57.46l.09,2.31c1.67,1.42,1.24,5.19-.72,6.22-4.9.93-9.55.02-13.63-2.77l-2.01-1.95c-14.31-49.1-83.92-63.91-117.94-24.62l-2.67.99-1.02,1.31c-3.63-.17-7.26,1.24-8.79,4.57l-1.66.34c-5.1-2.44-12.47-3.82-15.06-8.99v-3.46c15.38-23.47,42.2-39.54,70.99-42.17Z"/>
  <path class="st5" d="M374.86,251.85c-.32,4,.43,8.53,0,12.44-4.27,38.49-58.15,53.04-83.18,21.43l2.41-.38c41.79,19.43,83.6-25.71,58.32-63.52-.25-1,.58-1.45,1.65-1.09,7.5,4.06,12.63,11.02,16.63,18.19l4.17,12.92Z"/>
  <path class="st1" d="M354.06,220.05c-.1.13.08.46,0,.69-.05.14-.49.34-.37.73,26.29,40.05-18.7,86.17-62.02,64.26-7.26-9.17-10.04-15.88-10.04-27.65-2.82-4.62.08-13.11,2.2-18.12,2-4.72,4.82-9.12,8.37-12.9,3.58-3.81,9.96-9.74,15.25-9.07,4.88,7.08,7.84,15.74,8.61,24.2l-.12,1.87c-16.83,13.62.18,39.81,20.35,30.61,17.3-7.89,12.7-33.31-6.28-34.4l-1.04-1.54c-.77-.29-1.41-.24-1.97.6-2.73.21-8.4-19.87-8.79-25.48,4.19-3.5,12.8-2.34,18.26-1.37s14.42,3.12,17.6,7.59Z"/>
  <path class="st8" d="M273.75,123.95c5.28,8.04,8.93,17.5,10.04,26.96l-.76,1.86c-12.25,7.97-26.18,15.36-41.03,9.51-11.78-5.65-23.69-7.51-36.95-5.62l-34.28,3.83-1.71-1.29c-2.01-.4-1.96-5.75-.72-6.91,19.2-8.08,42.45-32.83,63.48-34.56,13.65-1.12,28.29,5.3,41.94,6.21Z"/>
  <path class="st6" d="M280.92,108.74l1.52.31c4.12,13.13,8.56,25.94,13.34,38.44,1.17.29,1.73.7,1.63,2.04-1.62,0-2.61-.6-2.02,1.59,3.49,12.86,10.32,27.72,14.92,40.58,4.55,6.58,7.23,14.25,7.89,22.12,2.78,7.63,5.42,15.35,8.01,23.05.41.64,2.09,1.68,2.75,1.84,1.13,4.7,2.71,9.43,4.74,14.19,3.84,9.56-4.75,17.44-11.87,7.45-1.13-1.58-6.3-15.07-6.36-16.65-.02-.58.21-1.09.58-1.54-2.94-7.98-5.7-16.19-8.61-24.2-4.68-6.45-7.43-14.96-7.89-22.81-3.75-10.38-7.73-20.74-11.47-31.11-3.37-2.86-5.12-8.86-4.3-13.14-3.26-9.01-6.76-17.97-10.04-26.96-2.79-7.63-4.98-15.56-7.87-23.17-1.44-3.8-2.84-11.36-7.45-11.34l-38.04,6.16c-3.71-.81-6.38-4.21-4.56-7.77,1.58-3.09,5.25-3.17,8.3-3.78,8.89-1.76,24.07-4.62,32.78-5.03,17.04-.8,18.15,15.5,22.74,27.87.33.89,1.18,1.56,1.28,1.84Z"/>
  <path class="st5" d="M169.05,159.21c2.2,5.22,2.11,11.35,0,16.59-.68.38-1.36.74-2.08,1-3.44,1.24-26.6,1.11-30.22-.08-.73-.24-1.43-.57-2.12-.92-4.82,1.73-9.53,1.75-14.34,0-13.16-.1-34.72,3.75-41.59-9.68-2.86-5.59-2.63-10.36,0-15.9l1.92-.07c3.71,3.8,7.99,7.17,13.56,7.67,23.1-.08,46.25-.07,69.35.21,1.9.02,3.75.6,5.53,1.18Z"/>
  <path class="st8" d="M354.06,220.05c-11.42-5.68-22.92-8.61-35.86-6.22-2.68-7.35-5.25-14.75-7.89-22.12,13.03-3.33,26.57-2.75,39.44,1.04,7.88,2.32,22.05,7.19,14.34,17.28-2.45,3.21-7.77,7.1-10.04,10.03Z"/>
  <path class="st1" d="M168.33,152.3c1.16,2.06.69,4.6.72,6.91-24.64,1.13-50.19-.84-74.93,0-6.83-.67-10.95-4.47-15.43-8.98,5.56-11.7,20.16-13.66,31.06-7.48,2.22,1.26,4.26,3.51,6.56,4.74,11.35,6.06,29.61,2.26,42.3,4.85l9.71-.03Z"/>
  <path class="st11" d="M302.43,149.53l-1.43-.64v-47.62l1.43-.83c7.06-.33,17.14.24,17.96,8.61.78,7.87.79,24.7,0,32.56-.41,4.06-1.35,5.38-5.22,6.72-4.91,1.71-7.98,1.47-12.75,1.19Z"/>
  <path class="st3" d="M302.43,100.45v49.09c-1.6-.09-3.53.22-5.02,0-.28-.04-2.83-.97-2.94-1.12-4.04-12.22-8.62-24.27-13.06-36.36-.44-1.19-.24-2.63-.49-3.31,6.1-4.85,13.58-7.93,21.51-8.3Z"/>
  <path class="st6" d="M34.23,214.52l2.31-1.11c8.48,1.41,16.91,3.08,25.28,5l1.09,1.64,3.69-.18c15.47,2.6,30.89,6.18,46.18,9.77,1.18.28,2.31.73,3.44,1.21s2.24,1.05,3.33,1.64c2.27-2.04,6.47-.59,8.61,1.38,9.57-.22,20.06,2.19,28.68,6.22,4.53.95,9.1,1.82,13.63,2.77l1.81-1.01c13.87,3.38,27.98,6.5,42.33,9.36l2.47,1.33c-2.91,5.99-9.42,10.89-16.03,12.55-7.66,1.93-10.97.03-18.13-.71-15.86-1.64-31.75-3.21-47.6-4.93-4.44.89-8.78.43-12.91-1.38-4.24,1.01-10.01,1.67-13.63-1.38l-1.19.85-38.97-4.31-24.59-2.67c-.22.86-1.03.81-1.94.59.24-2.47.19-1.72-1.65-2.18-9.52-2.37-22.7,1.8-21.22-11.92.29-2.65,2.69-13.88,3.51-16.32,1.61-4.81,6.54-6.76,11.47-6.22Z"/>
  <path class="st2" d="M283.79,150.92c1.57,4.33,2.75,8.84,4.3,13.14l-10.04,6.91c-4.86,4.96-11.38,7.95-18.26,9.38l-1.82-1.09c-3.51,3.09-13.2,2.24-15.78-1.38l-1.91.83c-11.33-5.99-23.23-6.77-35.98-5.26l-33.35,3.64-1.91-1.28c-.05-5.52.07-11.07,0-16.59,16.32-.75,45.23-7.19,59.67-3.26,11.29,3.08,16.26,8.36,29.59,6.69,10.07-1.26,16.6-8.01,25.47-11.73Z"/>
  <path class="st4" d="M42.12,251.16c.05-.31.94-1.22.8-1.97,6.88.88,14.03,1.19,20.97,2.06,1.08.14,5.33.12,4.75,1.99l1.06,1.3c-3.25,26.3,36.35,30.18,37.76,3.45l1.34-1.3c4.49.49,9.36.92,13.63,1.38-4.75,10.32-8.73,18.8-18.9,25.88-15.01,10.45-35.4,10.78-50.65,3.16-8.35-9.71-12.78-23.27-10.76-35.95Z"/>
  <path class="st8" d="M307.45,217.98c-16.37,7.19-25.82,22.89-25.82,40.1-23.59,1.48-28.61-.9-20.62-22.99,6.43-17.8,20.87-32.2,38.55-39.92,2.73,7.56,5.16,15.28,7.89,22.81Z"/>
  <path class="st5" d="M122.44,258.07c4.3.47,8.62.92,12.91,1.38-1.11,40.95-55.02,59.59-82.47,27.65.7-1.45,2.21-.26,3.12.1,23.39,9.08,49.1,1.64,60.83-20.37,1.29-2.41,1.77-5.32,3.06-7.45.81-1.33.48-1.65,2.55-1.32Z"/>
  <path class="st5" d="M207.77,222.12c4.11-.65,10.77,7.29,9.32,11.06,4.47,2.64,4.85,11.86,1.43,15.9-.14.56-1.11,2.79-1.43,3.46-12.32-1.9-24.52-4.59-36.71-7.13-3.29-.69-6.82-1.91-9.9-2.55-.08-2.06.17-4.25.72-6.22-1.64-3.08,2.98-11.35,6.45-11.06.51-4.87,9.59-7.39,14.3-7.92s14.13-.12,15.82,4.46Z"/>
  <path class="st10" d="M278.05,170.96c-18.24,24.63-36.78,49.09-55.35,73.5-1.21,1.59-2.43,3.57-4.17,4.62,1.46-5.81.86-10.46-1.43-15.9l.41-2.54,9.29-12.37,2.49-.98c2.98-7.32,8.01-13.73,14.34-18.67,1.99-5.79,7.04-12.35,11.22-17.28.81-.96,1.97-1.55,3.12-2.08,8.45-1.3,12.8-4.65,20.08-8.3Z"/>
  <path class="st7" d="M156.86,240.1c-9.56-2-19.27-4.25-28.68-6.22-5.04-3.79-9.58-8.17-13.63-13.14l-2.78-.02c-13.91-8.02-30.7-8.26-45.04-1.09l-3.81.42c-7.87-1.61-20.93-4.69-28.68-5.53,34.79-43.15,109.24-27.32,122.63,25.58Z"/>
  <path class="st0" d="M134.63,175.8l2.75,1.02c13.61,15.75,27.22,31.49,40.82,47.23l-.54,1.53c-2.41,2.32-5.57,7.9-6.45,11.06l-50.91-60.84c4.77.04,9.57,0,14.34,0Z"/>
  <path class="st6" d="M242.2,177.88c1.63,2.4-6.83,12.82-8.25,13.03l-1.79-.58c-1.02.76-2.31.95-3.87.59-2.72.69-14.91,13.23-9.3,16.5l-.45,1.57.43,2.05c-1.19,2.3-7.49,11.54-9.47,11.77l-1.72-.68c-9.3-5.39-22.39-3.99-30.12,3.46l-43.03-49.78c11.31-.02,23.2.48,34.42,0,17.21-.74,44.44-7.05,60.06-2.94,4.52,1.19,8.83,3.76,13.08,5.02Z"/>
  <path class="st10" d="M114.55,220.74c2.52,2.72,6.75,8.43,5.02,11.75-18.86-3.92-38.08-8.65-56.65-12.44,16.78-9.42,35.21-9.47,51.63.69Z"/>
  <path class="st9" d="M128.18,233.88c-2.53-.53-5.66-.77-8.61-1.38l-5.02-11.75c5.61,3.47,10.04,7.69,13.63,13.14Z"/>
  <path class="st3" d="M257.97,179.26c-4.41,6.7-9.5,12.96-14.34,19.36-.95,1.06-2.08.96-3.39-.31l-8.02-6.4-.07-1.59c1.62.11,1.85-1.08,2.61-1.98,2.63-3.1,5.39-6.97,7.43-10.47,5.73,1.69,9.87,2.3,15.78,1.38Z"/>
  <path class="st3" d="M229.29,217.28c-4.01,5.3-7.57,11.04-12.19,15.9-1.69-4-5.47-8.83-9.32-11.06,1.6.05,1.92-.93,2.74-1.85,2.91-3.26,5.82-7.51,8.02-11.28,1.75-.99,10.68,5.56,11.12,6.58l-.36,1.72Z"/>
  <path class="st11" d="M232.16,190.32c3.64,1.59,7.48,6.74,11.47,8.3-4.73,6.25-9.61,12.42-14.34,18.67-2.67-3.32-7.96-5.44-10.76-8.3-3.36-3.42-3.37-5.07-1.01-8.92.98-1.6,7.58-9.49,8.91-10.07,1.91-.84,3.92-.46,5.73.33Z"/>
  <path class="st11" d="M171.71,183.55c1.85-.52,19.06-.46,21.21,0,5.52,1.19,5.1,8.98,0,10.07-2.18.47-19.35.53-21.21,0-4.54-1.28-4.54-8.81,0-10.09Z"/>
  <path class="st11" d="M171.71,200.14c1.85-.52,19.06-.46,21.21,0,5.52,1.19,5.1,8.98,0,10.07-2.18.47-19.35.53-21.21,0-4.54-1.28-4.54-8.81,0-10.09Z"/>
</svg>