<?xml version="1.0" encoding="UTF-8"?>
<svg id="Ebene_1" xmlns="http://www.w3.org/2000/svg" version="1.1" viewBox="0 0 1024 1024">
  <!-- Generator: Adobe Illustrator 29.5.1, SVG Export Plug-In . SVG Version: 2.1.0 Build 141)  -->
  <defs>
    <style>
      .st0 {
        fill: #fced98;
      }

      .st1 {
        fill: #ec9fc5;
      }

      .st2 {
        fill: #fae016;
      }

      .st3 {
        fill: #3b7d57;
      }

      .st4 {
        fill: #af7d4a;
      }

      .st5 {
        fill: #fbf09a;
      }

      .st6 {
        fill: #cae1ad;
      }

      .st7 {
        fill: #fef2bc;
      }

      .st8 {
        fill: #90b657;
      }

      .st9 {
        fill: #69853d;
      }

      .st10 {
        fill: #cae0ac;
      }

      .st11 {
        fill: #407f58;
      }

      .st12 {
        fill: #fef2bd;
      }

      .st13 {
        fill: #74bd8c;
      }

      .st14 {
        fill: #873862;
      }

      .st15 {
        fill: #3e7f59;
      }

      .st16 {
        fill: #6a853e;
      }

      .st17 {
        fill: #90b658;
      }

      .st18 {
        fill: #91b658;
      }

      .st19 {
        fill: #f5c9df;
      }

      .st20 {
        fill: #ce88a9;
      }

      .st21 {
        fill: #e371a8;
      }

      .st22 {
        fill: #6a3f13;
      }

      .st23 {
        fill: #3e7e58;
      }

      .st24 {
        fill: #fcf1bc;
      }

      .st25 {
        fill: #fced99;
      }

      .st26 {
        fill: #f5cfe3;
      }

      .st27 {
        fill: #74be8c;
      }

      .st28 {
        fill: #3d7e58;
      }

      .st29 {
        fill: #3e7e57;
      }

      .st30 {
        fill: #c9e0ac;
      }

      .st31 {
        fill: #883862;
      }

      .st32 {
        fill: #e371a9;
      }
    </style>
  </defs>
  <g>
    <path class="st3" d="M208.5,465.24c-12.82-3.86-22.48-9.29-36.77-10.04-14.22-.75-25.54,3.34-38.62,7.53.92-5.22-.77-16.05-4.34-20.32-1.02-1.23-4.45.16-5.88-1.33.92,7.24.55,13.92-2.24,20.8-1.17.79-19.42-8.09-20.19-9.3-.63-1,1.89-11.82,1.59-15.26-.37-4.18-2.59-8.05-3.55-12.09l-2.6,10.46c-2.06,2.92-2.98,10.54-7.63,7.92-1.07-.6-12.45-11.49-12.69-12.32-.5-1.73,3.48-11.07,3.49-14.82,0-1.77-3.61-17.7-5.38-15.42.45,6.13-1.36,14.41-5.82,19.14-1.6,1.7-3.52-2.9-4.28-4.23-3.44-6.06-12.3-35.15-12.85-42.1-2.91-36.25,54.03-29.51,77.94-26.15l-2.63,3.77-10.67,8.72c9.43.98,15.54-1.15,22.61-6.67,1.11-.87,1.52-2.85,2.81-3.25,2.77-.86,22.43,7.37,22.45,8.67-3.86,4.76-8.04,9.55-14.17,11.67,8.15,4.16,16.43-1.66,23.37-5.29,3.33.61,16.73,17.73,17.3,21.33.9,5.66-16.14,7.61-20.27,7.3,7.46,6.7,18.01,8.52,27.48,4.59l15.98,39.19c2.5,9.21,2.49,19.13,0,28.35-.4,2.86-4.58,1.95-4.44-.83Z"/>
    <path class="st3" d="M227.13,446.9l15.12-36.67c9.89,3.67,19.7,2.34,27.46-4.6-3.98.31-19.06-1.98-20.32-5.96-1.18-3.74,13.94-20.98,18.11-23.62,5.95,6.19,14.85,9.04,23.5,6.65l-7.99-4.57c-2.41-2.59-6.54-4.76-6.13-8.7,5.21-1.26,15.63-8.27,20.74-7.59,1.92.25,8.06,6.96,12.29,8.53,4.6,1.7,9.05,1.66,13.92,1.5l-9.77-7.9-3.53-4.59c24.56-3.31,80.51-10.58,78.04,26.24-.5,7.49-3.8,12.89-5.76,19.59-2.73,9.32-3.51,20.32-11.07,27.52l-5.09-9.82-2.01-11.02c-3.17,6.85-4.53,14.53-3.48,22.02.27,1.9,3.37,8.18,3.06,8.84-.39.81-12.17,11.83-13.29,12.53-.85.53-1.53,1.02-2.64.85-1.29-.19-5.16-9.69-5.62-11.51-.57-2.27.63-6.51-1.97-7.72-3.38,8.74-5.29,17.41-1.1,26.29l-.65.77c-2.27,1.8-19.25,10.65-20.42,9.63-.35-3.58-2.34-6.83-2.66-10.43-.32-3.59.8-6.9.45-10.4-1.44,1.48-4.86.11-5.88,1.33-3.76,4.5-4.75,14.77-4.34,20.33-13.45-4.7-24.77-8.44-39.5-7.53-13.79.85-21.28,5.8-33.23,9.21-.03,2.4-.95,2.69-2.66.83-1.32,2.63-3.35,1.92-3.55-.83-.75-1.09-1.53-2.28-1.62-3.61-.29-4.33-.76-21.23.46-23.77.3-.64.72-1.22,1.16-1.8Z"/>
    <path class="st8" d="M173.91,486.09l1.35,1.11c.98,10.86,9.77,24.61,21.46,27.07,1.92-3.56,3.44-2.29,6.07-.04,8.4,13.77,30.55,12.54,38.71-.87,3.78-3.9,5.24-1.98,7.08,1.97,5.33-3.88,8.62-10.87,8.72-17.44l1.75-1.79c2.88.08,5.46,1.8,7.74,5.15,1.92,3.39,4.08,5.01,6.46,4.85.68.86,1.16,1.66,1.77,2.5.53.85.53,1.41,0,1.67-3.83,4.47-7.54,9.42-11.12,14.84l-10.24,8.37c-.13.33,1.21,6.9,1.58,6.91,7.73.13,19.51-17.37,17.94-24.88l1.83-1.9c3.3,2.12,5.85,5.38,7.63,9.8.68,3.41,1.98,5.43,3.9,6.04.2.77.75,1.47.89,2.5-1.88,1.39-12.64,14.69-12.23,15.61.13.3,5.54,2.45,6.34,2.34,2.59-.37,4.74-12.45,4.17-15.01l1.72-1.27c1.98,3.13-.08,17.95,3.26,19.06,1.2.4,2.7-.05,3.84.12,6.17,1.76,15.59,5.73,16.85,11.67-.13.6-.3,1.18-.57,1.72-2.92,5.79-28,11.83-35.58,11.6,12.73,9.45,30.94,4.4,36.01-10l1.91-.82c1.81-1.02,3.6.13,5.39,3.45l5.1,8,1.92.22c.35.58.58,1.12.89,1.67,1,2.29.71,3.12-.89,2.5l-1.31-.31c-13.95,9.4-30.6,15.76-48.14,14.67,14.71,10.87,39.8,3.62,47.05-12.39l2.4-1.14c.42-.12.83-.19,1.21-.11.88.18,6.16,14.62,6.28,15.96l-1.28,1.66-.82,2.88c-14.39,12.93-38.59,20.37-56.81,11.26l-16.71-1.81c-12.73,7.83-30.13,7.12-44.83,4.75-6.79-1.1-15.74-3.79-12.37-11.75-10.31,2.92-21.73,4.65-31.73.97-20.92,7.4-43.29.35-58.48-14.64,1.62-6.76,4.21-12.88,7.1-19.18,1.25,1.32,1.55.76.89-1.67,3.1-6.28,5.04-10.29,9.76-15.84,2.83,2.5,3.13,2.23.89-.83,2.42-2.68,5.04-5.74,8.06-7.85,2.38-1.66,9.85-4.18,10.16-4.62.34-.47.9-7.87,1.29-10.04.64-.39,1.28-.48,1.94-.18.89,6.79,4.2,10.59,9.94,11.42,3.17,3.96,5.74,4.28,7.68.96-6.54-4.84-13.1-9.99-17.54-16.72l-.25-2.98c2.24-7.38,5.49-15.64,10.64-21.68,1.01.08,1.22-.56.89-1.67,2.18-5.75,8.1-11.38,12.42-15.84Z"/>
    <path class="st8" d="M110.04,595.31l2.35,1.04c8.29,18.42,32.92,27.11,50.64,14.7,5.87-5.49,7.89-2.98,5.83,3.35,10.42,4.35,21.36,2.2,31.5-2.04,10.44,16.13,36.97,20.05,51.52,6.94,4.78-8.02,9.62-8.25,9.05,1.86,1.17,1.45,15.38,2.18,16.15,1.22-2.69-5.65,2.09-6.71,5.74-2.55,16.37,9.53,39.8,5.06,48.36-11.85l2.38-1c1.99,2.64,2.95,6.09,2.86,10.34-.29,3.07.24,5.46,1.58,7.17-.14,2.76-.11,3.27-.89,5.84-1.28.5-2.07.46-2.55-.7-13.07,7.84-36.58,18.36-49.94,6.88-7.29,1.78-14.93,2.21-22.91,1.31-5.61,11.63,13.34,7.37,20.24,5.69,3.44-2.57,5.85-3.07,7.26-1.51-5.13,15.06-22.59,21.32-34.58,8.34-.26,2.45-1.86,5.65-1.85,7.98,0,2.11,3.02,0,.96,3.69-15.62,4.13-32.05,7.18-47.71.55l-2.85-3.05c-2.25-7.06-3.54-13.51-4.45-20.84l-5.72,7.53c-14.33,12.56-30.64.37-35.07-14.2l1.94-.81c7.46,7.12,16.81,9.95,27.42,7.66,1.7-.37,11.4-3.45,11.84-3.88.21-.21-2.76-4.49-3.24-4.54-11.38,2.55-24.36,2.76-35.22-1.4-.98.87-1.89,1.86-2.74,2.97-.33-.18-1.33.17-1.77,0-16.24.59-32.17-.01-45.79-10.65l-2.11,1.48c-1.4-4.09-1.21-10.23-.88-14.58.33-4.43,1.75-8.65,2.65-12.93Z"/>
    <path class="st9" d="M110.04,592.81c1.65-1.31,2.02-.07,3.11.8,12.58,10.07,25.33,16.32,42.56,15.02,3.91-.29,9.34-2.46,12.41-2.5,2.77-.03,6.77,1.45,9.79,1.66,9.24.64,16.66-1.5,25.26-4.15-3.83,9.36-2.04,9.88,6.91,12.26,9.89,2.63,24.92,2.77,35,.86,3.74-.71,11.49-4.6,13.48-4.67,1.43-.05,14.36,1.26,16,1.56,2.16.39,3.9,2.74,8.1,3.23,21.39,2.48,33.89-3.13,49.13-15.74-.39-2.78,1.42-3.63,3.55-1.67.13.47-.13,1.18,0,1.67.17,2.79-.42,4.74-1.77,5.84-7.86,18.84-33.36,24.67-51.35,14.5-1.55-.88-3.09-3.78-4.53-2.41l1.77,4.58c-3.46,1.42-18.15,1-20-1.63-.96-1.37.35-7.61-1.74-7.52-.45.02-3.69,5.17-4.85,6.27-13.42,12.8-44.23,10.02-52.86-7.11-7.93,4.58-17.3,5.89-26.34,3.95-7.94-1.7-7.4-2.02-5.11-8.96-18.83,18.48-49.58,9.37-58.53-13.34.16-.75-.17-1.78,0-2.5Z"/>
    <path class="st17" d="M212.94,466.08l1.78.87c-1.66,7.46-.18,13.29,4.43,17.48.97-1.02,2.53-1.78,4.68-2.27.7-2.65,1.8-4.67,3.3-6.07,1.04.59,2.33.97,3.55.83,3.95,1.16,6.62,2.83,7.98,5l.58,1.78-8.54,10.77c8.27,9.06,8.88-3.03,8.94-9.49l1.68-1.39c4.18-.54,15.18,5.34,14.19,10,1.79,2.15-1.58,6.34-3.29,8.34-4.2,2.71-6.45,5.44-6.74,8.2.03,1.18-2.78,3.06-4.36,3.96-5.79,3.3-32.27,3.38-38.63.19-3.6-1.26-4.58-3.26-2.94-5.98l-15.07-10.26c-3.2-2.76-9.56-9.1-9.69-12.79,2.83-2.82,11.53-11.69,15.08-12.51,1.65,3.18,1.94,3.18.89,0,4.65-4.71,11.86-5.15,17.74-7.5,1.47.44,2.7,1.15,4.44.83Z"/>
    <path class="st9" d="M161.49,501.93c16.65,29.94,57.15,41.86,89.58,27.51-5.01,17.72-34.49,20.73-48.72,11.2-3.7-2.48-10.28-12.77-8.93-2.03-18.01-.64-35.42-17.89-32.81-35.02.14-.94.74-1.27.89-1.67Z"/>
    <path class="st9" d="M174.79,485.25l10.63,11.27c2.31,2.93,15.8,9.16,15.92,11.6.05,1.01-1.31,3.14-.82,3.79s14.44,3.22,16.41,3.34c4.53.28,22.96-1.6,26.19-3.73,1.45-.96-.18-2.43.38-3.73.5-1.16,6.04-5.45,7.54-7.14,2-2.25,3.36-5.74,4.46-7.06-.81-2.5,1.38-3.08,2.66-.83,2.36.33,3.58,2.24.89,3.33.31,7.12-1.95,12.79-6.73,18.27-6.22,7.14-3.65,1.19-8.34-2.43-7.12,17.3-35.48,18.63-43.49,1.67-3.03-.54-1.06,2.86-4.66,2.37-10.12-1.36-24.01-19.78-21.93-29.89.28-.29.6-.55.89-.83Z"/>
    <path class="st9" d="M118.03,571.96c12.25,9,34.5,16.24,50.04,14.1,2.84-.39,4.52-2.14,7.13-2.47,4.25-.54,9.55.34,14.12-.06,6.25-.55,14.22-2.67,19.63-5.73.42,7.65-11.31,13.84-18.15,15.46-3.46.82-14.61,2.25-17.26.47-1.49-1,.36-5.34-.96-6.76-16.85,15.65-48.46,7.85-55.44-13.34.27-.6.61-1.11.89-1.67Z"/>
    <path class="st9" d="M289.22,642c-1.67.01-4.69,2.43-6.85,3.15-5.7,1.89-11.26,2.41-17.31,1.64-9.58-1.21-4.81-3.55-5.11-10.63,6.73.25,13.14.47,19.86-.08,1.58-.13,4.64-1.47,5.47-1.34.66.1,2.22,4.11,8.83,4.75,14.45,1.39,29.57-4.28,40.81-12.5l2.2,3.34c-.6,1.97-1.97,4.42-2.66,6.67-6.96,13.34-27,17.12-39.92,9.17-1.54-1.5-2.82-4.19-5.32-4.17Z"/>
    <path class="st4" d="M227.13,425.23c.64,6.69-.06,14.78,0,21.68.08,9.47.52,19.8,0,29.18-.29,5.16-1.13,9.68-7.98,8.34-2.92-1.66-3.8-3.19-2.66-4.59l-1.18-.26c-.71-17.75-.91-35.67-.59-53.77l1.77-1c-1.92-4.39,9.96-4.28,10.64.42Z"/>
    <path class="st9" d="M156.17,631.99c-1.98,2.53-5.74,5.56-8.87,6.67-12.1,8.03-33.91.48-39.03-12.51-.13-1.04,0-2.25,0-3.33-.01-1.51-.39-3.75.44-5,7.31,6.41,19.29,11.63,29.29,12.49,4.9.42,11.5-.75,15.97.02,1.8.31,2.03,1.59,2.19,1.66Z"/>
    <path class="st9" d="M203.18,659.5c16.64,7.7,30.88,6.06,47.87,1.23,1.72-.49,3.07-1.23,2.68,1.28-1.57,2.81-3.73,5.46-6.21,7.5-8.37,11.69-32.75,9.62-40.8-1.67-1.49-3.09-2.43-4.84-3.55-8.34Z"/>
    <path class="st9" d="M128.67,555.29c7.59,4.71,17.07,9.05,26.27,9.9,5.26.49,11.02-.8,15.87.92l.43-3.32c3.75,2.82,30.56-1.68,31.05-3.77l-1.78-3.73c17.9,5.89,35.7,5.81,51.9-4.16,2.3-.52.5,1.98.16,2.66-7.31,14.63-26.39,19.33-41.9,14.04-6.19-2.11-4.68-3.42-8.38-7.53-3.25,8.2-12.64,13.86-21.84,14.08-.9.02-7.12-.56-7.39-.79-.43-.37-.52-6.41-1.37-7.45-13.44,15.12-39.55,9.62-43.91-10.01.26-.3.62-.54.89-.83Z"/>
    <path class="st17" d="M247.53,669.51c-9.26,21.99-29.16,21.51-40.3.74-.49-.92-.29-1.96-.51-2.41,3.41,1.17,5.72,3.71,9.14,5.16,9.77,4.16,23.45,3.28,31.66-3.5Z"/>
    <path class="st17" d="M294.54,646.16c4.58-.17,8.86,2.43,13.74,2.56,10.78.29,19.09-4.72,26.17-11.73-2.19,7.17-1.63,13.21-9.46,18.21-11.92,7.61-22.48-1.25-30.46-9.03Z"/>
    <path class="st18" d="M147.3,638.66c-15.87,19.75-36.27,10.34-39.03-12.51,3.07,1.47,4.27,4.59,6.66,6.66,7.96,6.88,22.29,9.41,32.37,5.84Z"/>
    <path class="st22" d="M212.94,437.73c.07-4.16-.6-9.86.05-13.71,1.26-7.47,13.16-8.96,14.14,1.2-1.57-2.36-10.64-2.26-10.64-.42v55.03c0,.47,2.48,3.46,2.66,4.59-8.88-1.74-6.08-11.37-6.21-18.34-.18-9.41-.16-18.94,0-28.35Z"/>
    <path class="st9" d="M149.96,525.27c5.74,8.38,12.8,14.22,21.29,20-2.17-.41-5.89,5-6.65,5-.38,0-4.06-4.03-5.47-4.85-2.21-1.27-5.54-1.49-6.31-1.99-1.56-1.02-3.24-8.85-4.64-10.65.52-2.91.91-4.67,1.77-7.5Z"/>
    <path class="st9" d="M190.76,472.75c1.65.37,5.26,5.47,7.09,7.1,1.24,1.11,7.64,5.14,7.88,5.54.49.81-.68,2.95-.71,4.36-.02,1.02.99,2.26.87,3.32-.03.24-2.87,1.21-2.27,3.86-9.74-4.52-15.06-14.03-13.74-24.19.21-.05.68-.05.89,0Z"/>
    <path class="st16" d="M287.44,531.94c.07.54-.04,1.12,0,1.67.31,4.71-.5,14.46-4.84,17.59-2.43,1.76-8.29-3.65-12.01-2.59,5.82-4.43,8.85-10.52,13.04-15.62,1.38-1.68,1.77-1.1,3.81-1.05Z"/>
    <path class="st30" d="M325.59,578.63c-.75,1.5-1.45,2.48-3.08.81-3.09-3.17-4.56-10.2-9.34-12.48-1.32-.55-1.91-1.39-1.77-2.5-5.32-5.39-9.22-8.97-16.85-11.67,15.16,2.17,24.09,14.35,31.05,25.85Z"/>
    <path class="st30" d="M233.34,476.08l21.57,11.82c2.25,1.04,2.46,2.2,3.26,4.02.78.26.77.54,0,.83-.74.14-2.25.34-2.66.83-3.37-4.45-8.96-7.71-14.19-10-.75-1.01-1.64-1.56-2.66-1.67l-8.87-3.34.89-1.66c.48-.05,1.9-.62,2.66-.83Z"/>
    <path class="st10" d="M273.25,506.1l-2.64,3.33c-2.57-5-7.34-9.47-11.55-13.33-.09-2-.52-2.07-.89-3.33-.08-.27.1-.61,0-.83,6.68,1.62,11.19,9.25,15.08,14.17Z"/>
    <path class="st6" d="M286.56,529.44c-2.77,4.98-4.07-2.85-5.43-5.32-1.95-3.53-4.43-6.84-6.1-10.52-1.72-1.05-1.72-2.28,0-3.33v-1.67c5.27,7.2,9.22,11.87,11.53,20.84Z"/>
    <path class="st30" d="M335.34,599.48c-1.33.18-2.56.85-3.55,1.67l-6.21-17.51c-.77-.28-.77-.56,0-.83.26-.64,1.33-1.29.89-2.5,3.84,6.75,6.65,11.38,8.87,19.18Z"/>
    <path class="st30" d="M338,624.49l-2.67,1.25c.55-6.24-1.94-12.61-1.77-18.76.06-2.02.09-4.33,1.77-5.84,2.21,8.67,3.12,14.13,2.66,23.34Z"/>
    <path class="st13" d="M205.83,456.91c-30.36-33.22-68.87-61.29-113.34-75.63l-17.93-3.56c4.81-.22,9.65.31,14.37,1.07,36.88,5.92,83.72,37.46,107.12,64.39,3.51,4.04,7.81,8.93,9.77,13.74Z"/>
    <path class="st27" d="M361.95,389.38l-13.29,2.92c-45.33,14.08-84.48,42.61-115.31,76.28,2.33-4.8,6.25-9.64,9.77-13.73,23.19-26.89,69.09-57.43,105.5-64.25,4.38-.82,8.83-1.49,13.33-1.21Z"/>
    <path class="st9" d="M325.59,583.63c-6.19,15.78-23.81,22.39-40.85,19.64-4.47-.72-10.41-5.48-11.04-5.45-.73.04-.92,2.26-1.95,2.5-4.17,1-18.07-1.54-20.22-5.85-7.53,15.38-30,19.39-41.7,5.84-.52-.61-5.42-6.37-1.91-5.72,4.4.82,9,2.68,13.56,3.11,10.35.99,19.63-1.38,29.61-3.24l-4.87-8.34c4.61,1.5,9.44,2.73,14.3,3.23,2.08.22,10.6-.27,10.98.1.47.46-1.15,4.92,1.45,5.72,1.88.58,12.29.3,14.86.03,6.76-.71,18.66-4.57,24.77-7.57,2.93-1.44,7.93-5.57,10.1-6.35,1.5-.54,3.45-.81,2.92,1.5-.1.24.1.59,0,.83Z"/>
    <path class="st9" d="M311.39,564.46c.31.32,2.15-1.14,1.77,2.5-.96,9.29-13.29,17.14-22.66,17.52-9.13.37-14.5-5.47-17.84-5.71-1.11-.08-2.27,1.51-4.24,1.58-8.14.31-18.91-6.53-20.89-14.22,8.11,2.02,16.35,3.94,24.83,3.34l-.89,6.66c14.43.1,28.17-3.85,39.92-11.67Z"/>
    <path class="st9" d="M275.03,510.27c0,1.11,0,2.22,0,3.33-.08,13.76-7.31,24.53-21.28,29.18,0-2.79-1.82-7.18-1.74-9.67.04-1.12,8.57-6.97,10.57-9.11,1.79-1.91,3.67-4.64,5.17-6.81,2.05-2.96,2.27-7.84,7.27-6.92Z"/>
    <path class="st9" d="M157.94,631.99c-.19-.63-.85-2.11-.73-2.36.08-.17,2.71-2.44,2.9-2.47.63-.09,4.35,1.66,5.79,1.94,10.43,2.03,22.79,2.19,32.84-1.28-1.92,7.71,9.79,10.53,15.98,12.08,9.2,2.32,18.29,2.98,27.71,1.04,6.26-1.29,11.61-4.91,17.53-6.87-9.54,24.95-47.76,23.95-60.86,2.15-10.2,5.35-21.44,7.09-32.32,2.05-3.71-1.72-5.82-4.64-8.84-6.28Z"/>
    <path class="st9" d="M238.66,481.92c2.94-2.38,2.49-.4,2.66,1.67.38,4.53.26,9.34-2.18,13.38-4.36,7.23-5.6-1.43-12.01-1.72,4.25-2.98,8.12-10.57,11.53-13.33Z"/>
  </g>
  <g>
    <path class="st14" d="M698.35,663.67c2.89-.49,5.63.36,8.23,2.55,5.76.98,7.7,3.04,5.84,6.19-4.04,3.05-8.2,7.06.16,6.77,4.57-.63,7.37.32,8.4,2.87-1.95,3.88-3.48,7.91-4.59,12.08,3.53-.75,7.03-1.68,10.5-2.8l1.31,1.29c2.16.34,1.69,7.32,1.46,9.7.43,2.15-.06,3.5-1.46,4.03,4.15-2.36,7.98-5.25,11.51-8.67,3.89.42,5.22,3.77,5.24,7.56,1.54,2.97.09,7.42-2.91,8.91l.88,1.71c-1.95,4.53-4.2,8.97-6.99,13.03l-1.89.1c-3.41,4.46-10.8,10.94-15.37,14.4-1.81,1.37-14.88,10.32-15.93,9.36-1.7-11.62-.55-24.41,2.91-35.63-11.28,3.52-23.08,5.54-34.95,5.19,3.3-9.14,8.47-17.27,13.83-25.23-8.45-1.64-17.44-2.69-25.29-6.53-2.31-1.13,1.16-4.19,2.33-5.38,7.17-7.26,17.99-14.65,27.32-18.54,1.03-3,6.95-4.8,9.47-2.97Z"/>
    <path class="st19" d="M988.87,543.41c-2.63,2.02-5.08,3.96-8,5.57,2.77,2.59,4.73,5.95,6.54,9.27-7.75,1.76-15.03.26-22.57-1.47.35,2.5,1.28,5.31,1.44,7.8,3.49,54.31-59.5,123.91-103.62,148.22-34.77,19.16-78.56,25.75-115.07,7.4-3.75,4.86-7.04,9.97-11.75,13.98l-1.82-5.18c2.94-3.84,6.2-10.32,8.01-14.85l2.3-.93c74.51,31.67,146.19-19.41,188.35-80.05,15.91-22.88,29.92-50.17,26.66-78.82l.5-2.87c6.28-1.26,12.43-2.86,18.43-4.81l2.59.46c.74-2.76,5.58-5.21,8.01-3.71Z"/>
    <path class="st21" d="M929.9,518.17c1.52-1.48,2.43-.38,1.46,1.48,3.02,1.49,1.92,5.39-1.74,4.61-44.54-12.62-93.9-4.23-135.9,13.94-43.91,19-84.62,59.27-85.94,109.76-1.01,1.9-4.96,3.2-6.51,1.61-.76-3.66-.55-8.01,0-11.88,2.46-44.47,37.92-82.81,75.09-101.99,38.97-20.11,112.67-36.5,153.55-17.54Z"/>
    <path class="st20" d="M947.37,501.83c1.29,1.42,2.05,3.5,2.3,6.24,5.01-2.98,10.3-5.58,16.04-6.68,2.36-.54,3.47.18,2.8,2.47-1.11,4.85-2.19,9.47-3.25,13.85,2.98-.51,14.54-2.2,15.86.73,1.24,2.76-7.1,13.05-9.41,15.33,5.32.34,13.04,3.25,17.58,6.12l1.04,2.01c-.53.42-.95,1.1-1.46,1.48-2.78,1.07-5.25,2.54-8.01,3.71l-2.75.22c-4.03-3.57-8.49-6.34-13.38-8.29-.3-2.85-2.19-3.5-5.67-1.94-5.39,4.7-10.31-.04-10.07-5.74,1.14-.86,9.66-7.69,9.11-8.44-.13-.17-3.3,1.61-3.82,1.97-4.07,4.02-10.99,9.83-12.34.59,1.55-1.12,4.98-9.7,3.96-10.08-.9-.33-5.6,7.26-5.69,8.9-2.34,1.73-6.35-1.14-3.76-3.17-2.1-3.86,2.15-10.37,4.54-13.94,1.42-3.09,3.31-4.88,5.65-5.36h.73Z"/>
    <path class="st31" d="M947.37,501.83c.79-3.46,22.35-16.62,24.02-14.84-.67,8.53-1.57,16.75-4.37,24.86,1.23,1.02,3.82-1.1,4.74-1.1h19.3c-1.3,6.36-6.56,12.08-10.91,16.7l18.19,7.06c1.16,1.57-6.8,6.46-8.01,7.41-5.35-2.03-10.21-5.12-15.83-6.51-1.66-.41-5.28.41-6.02-1.29,5.27-3.58,8.94-9.44,11.65-15.21-6.19-1.58-12.02.1-18.2.73,1.88-1.79,6.81-16.02,5.82-17.06-7.18.9-13.58,4.45-19.65,8.16.51-2.83-1.34-6.25-.74-8.91Z"/>
    <path class="st19" d="M946.64,501.83c-4.45,5.92-8.69,11.76-10.19,19.3-.87,2.24-4.8.75-5.1-1.48-.47-.24-1-1.28-1.46-1.48,1.3-3.66.82-8.22,1.64-12.06.7-3.27,6.69-16.81,9.28-18.01,1.18-.55,2.61,3.38,3.04,4.34,1.28,2.84,2.75,6.26,2.79,9.41Z"/>
    <path class="st19" d="M701.26,649.57c2.25,2.52,2.69,9.49,1.46,12.62-.08,1.64-1.53,2.14-4.37,1.48-3.36.81-6.27,1.64-9.47,2.97l-5.09-5.56c1.19-2.3,14.58-5.15,14.54-5.95-.97-1.23-3.22-1.36-2.9-3.33,8.46-1.06,3.38-8.5,5.82-14.12-.21,3.73-.14,8.12,0,11.88Z"/>
    <path class="st1" d="M936.45,521.14c.17.11.42,2.8,2.9,2.23.76-4.81,4.48-8.3,8.01-11.14.28,3.66-.24,7.12-1.77,10.44-.95,2.07-3.31,2.7-1.91,4.8,2.91,4.37,6.51-1.8,10.02-3.96,1.05-.65,6.93-3.66,7.5-3.11-2.15,5.52-7.2,8.86-11.63,12.24.95.91,3.72,5.43,4.71,5.44.27,0,3.01-2.04,4.71-2.5,2.65-.71,6.01-1.01,8.77-1.08.14,1.18-4.1,2.07-2.19,3.34,1.4.94,4.15,1.52,6.05,2.74,3.24,2.07,5.72,5.09,9.25,6.53-2.78,1.18-5.31,2.36-8.28,3.07-3.93.94-7.86,1.21-11.79,2.08-.1,5.81.8,11.55.32,17.4-3.8,46.09-53.89,103.65-90.39,128.32-31.75,21.46-72.2,32.85-109.91,22.63-6.42-1.74-12.38-4.98-18.77-6.47,1.15-2.88,2.17-5.89,2.91-8.91-.66-3.11-.51-6.36.47-9.74-1.58,3.06-3.03,3.98-4.35,2.76-.45.37-.87.63-1.14.52-1.71-.68-2.14-8.31-2.2-10.22-3.03,2.53-6.09,3.83-9.17,3.89-.85-3.73-.14-7.77,2.14-12.13l-6.18,1.74c-8.08.78-4.37-4.64-.58-8.65l-9.62-1.26c-4.21-1.63-1.34-5.56,2.42-7.05-4.08-.95-8.28-1.63-12.48-1.55l-1.55-1.36c-1.25-4.16-1.3-8.34-1.46-12.62.85-.87,4.81-1.31,5.02-1.56.41-.48.62-10.32,1.01-12.7,7.65-46.91,47.43-82.49,88.64-99.67,40.91-17.06,92.89-25.9,135.76-12.26l-.35-3.72c1.14.57,4.68,1.22,5.1,1.48Z"/>
    <path class="st20" d="M702.72,662.19c6.27-.7,11.42,1.35,17.47,1.49.4,1.77-.29,1.2-.95,1.65-2.1,1.46-5.12,2.38-6.33,5.02,4.84,1.03,9.57,1.91,14.56,1.5-.57,1.23-7.74,7.84-6.55,8.9,4.61.43,8.75-1.94,13.1-2.96-2.53,4.3-4.54,9.05-5.09,14.1,3.77-1.65,7.12-3.9,10.18-6.68.05,3.14.11,9.43,1.47,12.16.41.83.67.5,1.44.45l5.1-7.41c.17,4.99-.99,10.03-2.18,14.84l-4-6.68c-2.73,1.97-8.32,7.81-11.26,8.58-.8.21-1.48-.54-1.48-.79v-13.73c-4.7.6-8.95,3.49-13.83,2.96,1.22-5.22,3.32-10.14,5.82-14.84-5.22.17-10.28.09-15.29-1.5-.24-.33,4.03-5.95,4.7-6.72.71-.82,3.69-1.74,2.58-2.91-.23-.24-4.98-1.43-6.32-2.1-2.53-1.25-4.63-3.33-7.51-3.85,1.16-.28,3.09-1.34,4.37-1.48Z"/>
    <path class="st26" d="M883.29,643.63c4.13-4.36,9.44-7.44,13.84-11.5,19.04-17.53,37.21-49.05,44.6-74.05.32-1.1,2.19-11.83,3.44-10.96,15.21,32.03-7.66,78.46-38.08,92.19-2.11.95-11.51,4.31-13.25,4.31h-10.56Z"/>
    <path class="st21" d="M879.49,522.76c16.59-2.29,17.32,24.99-.88,22.08-10.92-1.75-10.96-20.44.88-22.08Z"/>
    <path class="st32" d="M844.51,529.48c15.89-2.99,18.32,20.61,3.39,22.06-13.12,1.28-16.35-19.62-3.39-22.06Z"/>
    <path class="st21" d="M733.55,607c-10.72-10.93,7.12-27.09,16.52-14.98,8.49,10.94-6.81,24.88-16.52,14.98Z"/>
    <path class="st21" d="M804.46,540.61c19-4.01,17.29,26.99-.69,21.14-10.74-3.5-8.73-19.15.69-21.14Z"/>
    <path class="st21" d="M725.83,620.04c15.28-2.46,17.57,20.53,3.38,22.05-14.38,1.55-16.26-19.98-3.38-22.05Z"/>
    <path class="st21" d="M912.24,525.76c16.25-2.61,17.15,23.58.55,22.1-12.07-1.07-12.37-20.2-.55-22.1Z"/>
    <path class="st21" d="M768.77,562.86c9.8-2.25,17.43,5.53,13.46,15.21-4.53,11.02-21.7,7.06-20.53-6.08.34-3.8,3.31-8.26,7.07-9.13Z"/>
    <path class="st21" d="M822.66,566.59c12.67-2.64,14.99,14.78,4.62,17.32-11.85,2.91-15.16-15.13-4.62-17.32Z"/>
    <path class="st21" d="M769.51,597.77c13.27-2.76,14.58,15.74,4.02,17.49-11.51,1.9-14.28-15.35-4.02-17.49Z"/>
    <path class="st21" d="M793.52,579.94c14.54-3.42,15.04,19.4,1.5,17.51-10.05-1.4-9.47-15.64-1.5-17.51Z"/>
    <path class="st21" d="M757.13,625.99c14.06-2.59,14.51,17.05,2.63,17.6-10.33.48-12.44-15.79-2.63-17.6Z"/>
    <path class="st21" d="M853.96,562.87c7.12-1.66,12.95,2.76,11.56,10.26-2.26,12.12-21.69,7.01-16.62-5.78.61-1.53,3.46-4.11,5.06-4.49Z"/>
  </g>
  <g>
    <path class="st2" d="M449.54,438.95c11.54.85,22.16,6.56,26.07,18.31,3.87-1.67,6.74-1.75,8.59-.23,23.1-4.55,45.18-5.43,68.52-1.82,7.6,1.18,15.15,3.22,22.61,5.09,8.22-17.11,22.28-23.93,40.38-20.29,2.75,1.41,4.86,2.82,4.44,6.51-2.25,3.1-3.35,5.09.6,6.11.73,3.37,1.81,7.03,5.34,4.71,2.87.7,6.52,1.08,8.98-.32,3.37-1.61,7.6,7.37,4.08,9.04,3.37.99,3.14,14.25,0,15.95l1.72,1.72c-1.76,3.24-3.24,6.52-4.46,9.84,10.03,9.44,17.39,20.48,22.1,33.11,2.16-1.94,7.53-2.46,9.18.54.34,0,.68,0,1.02,0,9.08.97,16.76,3.22,22.83,10.77,2.75,3.43,5.51,7.08,3.67,11.56,4.51,1.86.79,6.23-3.12,4.06-1.95,1.23-2.48,3.11-1.61,5.64-2.61,2.5-3.05,4.78.6,6.12.65,3.33,2.01,5.93,5.15,7.58,2.8,4.77-3.63,12.3-7.22,15.8-4.96,4.82-9.53,6.65-16.23,7.6-1.02.05-2.04-.04-3.06,0-3.07,2.03-6.71,2.68-10.9,1.96-5.85,12.45-13.41,23.46-22.66,33.04l4.59,9.12-1.61,2.15c3.39,1.02,3.12,14.3,0,15.95,3.71,2.87-3.1,13.83-7.14,13.29-2.46,2.19-3.59,1.64-5.67-.96-2.76,1.21-5.19.77-5.54-2.72-7.96.92-10.14,3.4-11.08,12.02,3.14,2.54,3.44,4.36.89,5.48-10.65.56-22.59-3.6-29.54-12.26-2.24-2.8-3.41-6.8-5.12-9.01-4.95-2.43-9.45-3.05-13.5-1.85-.97,2.44-2.25,4.12-3.83,5.04-8.24,1.56-16.1,2.8-24.47,3.19l-2.09-1.02c-1.14-7.77-10.68-7.24-12.07.15l-2.15.87c-11.05-.34-21.68-1.3-32.62-3.19-2.47,1.43-5.49,1.23-9.07-.61-4.74,10.05-12.68,16.7-23.56,17.63-4.32.25-4.75.77-9.17,0l-.77-1.25c-.2-3.3-.65-7.44-1.35-12.42l-2.42.43c-3.12-3.49-5.37-3.98-6.76-1.46-4.4-.12-7.11-.18-5.67,5.4-1.22,3.18-3.33,3.12-5.46.81-6.19-10.52-10.66-15-9.97-28.92.21-4.22,4.7-13.42,4.64-14.17-.04-.5-5.52-5.32-6.9-6.9l-1.06-2.22c4.17-8.86.45-15.46-9.02-11.34l-2.16-1.33c-1.7-2.62-6.62-14.28-7.3-14.72-1.31-.85-12.03.17-15.4-.43-12.2-2.15-19.11-12.41-23.18-23.14-.8-3.94,2.47-3.73,5.42-1.84,2.43-.91,5.41-.69,7.96-.36l.56-2.71c3.02-2.04,4.77-3.43,1.96-6.32.82-5.03.47-6.98-4.28-6.53-1.59-3.17-2.73-4.66-4.89-1.19-2.91,1.49-7.05.19-6.73-3.38,3.13-11.67,14.73-21.51,26.26-23.12,2.94-.41,11.02.59,11.52.28.69-.42,6.54-12.05,8.1-14.39l2.08-1.13c8.54,5.41,17.35-2.38,8.83-10.24l.31-2.45c1.28-1.51,6.79-7.39,6.99-8.19.46-1.9-3.6-11.99-3.83-15.89-.71-12.16,4.71-17.76,10.1-26.96,1.67-2.09,2.97-1.27,3.47,1.39-.47.71,1.96,4.87,2.5,5.43,2.8,2.88,12.08,4.38,12.22-1.24,1.79-.7,3.03-2.16,3.73-4.38-2.53-2.27-3.38-10.86,1.52-10.77,1.69-.05,3.41-.04,5.1,0Z"/>
    <path class="st12" d="M669.74,596.36c-5.82,6.91-9.66,15.55-15.32,22.83-1.71,2.2-9.74,9.41-10,10.82-.23,1.24,4.05,8.82,4.69,11.8,3.15,14.69-2.38,32.05-16.07,38.57-7.43.32-8.08-8.4-1.02-8.51,2.21-2.95,7.14-9.52,7.14-13.29v-15.95c0-2.48-4.49-8.98-4.95-10.89-.72-2.97,6.46-8.29,8.53-10.9,5.88-7.37,10.69-15.37,14.76-23.96,1.93-1.23,9.3-.41,12.25-.52Z"/>
    <path class="st12" d="M642.22,451.72c10.23,11.88,9.49,28.6,2.19,41.85,9.2,10.01,17.87,20.87,23.3,33.66-3.59.02-6.6.29-10.1,1-2.8-7.77-7.57-15.14-12.35-21.71-2.15-2.95-9.63-9.96-10.74-12.28-1.19-2.5,4.64-9.57,4.64-12.2v-15.95c0-1.51-2.53-7.71-4.08-9.04-.6-5.61,2.32-9.03,7.14-5.32Z"/>
    <path class="st23" d="M615.71,440.02c3.78.76,3.74,2.79,4.6-2.14l4.57,2.14,1.53-6.37c1.37,4.7,3.93,2.02,4.64,2.56,2.15,1.63-1.69,5.58,7.08,2.76l-1.03,4.24,3.06.53-3.04,3.2c1.73,1.77,3.41,2.85,5.08,4.79-4.36-.22-6.34.56-3.06,4.24-1.38.12-3.53-.6-4.08,1.07-.32.98.23,3,0,4.25l-5.09-2.12-.02,4.24c-1.64.02-2.17-4.23-3.56-4.23-.72,0-2.5,4-4.58,3.17v-4.25s-3.05,1.06-3.05,1.06l1.01-5.31-6.11-.02c.01-1.29,3.06-3.17,3.04-3.71-.05-1.18-3.39-.98-3.03-2.64l5.09-1.08-3.06-6.37Z"/>
    <path class="st29" d="M350.66,550.62c8,4.08,4.14,1.85,8.13-3.19.99,4.21,1.36,3.15,4.09,1.06l.02,5.31,7.13-2.11c-1.63,3.39-4.02,5.41,1.02,5.83l-3.05,3.71,5.07,2.67c-2.67,2.76-5.49-.01-3.04,4.78h-4.08s1.02,6.38,1.02,6.38l-5.08-3.19-1.53,3.19c-2.66-5.98-2.72-1.05-6.63,1.07v-4.78s-3.07,1.59-3.07,1.59c-2.63-6.94-3.63-3.93-5.1-5.33-1.92-1.84,3.04-2.89,3.04-3.71,0-1.19-3.81-.91-3.05-3.18.36-1.06,5.33,1.1,2.04-6.92,4.57.62,2.47-1,3.06-3.2Z"/>
    <path class="st11" d="M610.62,685.69c.28-3.35-2.53-3.32-5.1-3.2l3.06-4.22-3.06-2.14c5.49-.18,4.28-2.59,2.04-6.38l4.07-.02-1.01-4.25c6.85,7.02,5.89-2.19,7.64-2.11,1.61.08.21,5.68,4.58,1.04l.02,5.31,7.13-2.11-1.54,3.18,3.58,1.06c-.83,1.11-3.31,3.73-3.06,4.76s3.69,2,4.08,3.75c-3.17,1.51-4.99-.45-3.06,4.25h-4.08s1.02,6.39,1.02,6.39l-5.08-3.2-2.03,3.19c-1.32-6.06-2.91-.65-6.13,1.07l-.02-5.32-4.06,2.13c-.54-1.43.96-2.6,1.01-3.19Z"/>
    <path class="st11" d="M421,448.52c.03-.05-1.01-.68-.6-1.08,2.57-2.59,6.5,1,.6-7.41l5.09,1.05-1.01-4.25,5.08,3.19,2.57-6.37c.79-.34.74,5.51,4.57,1.06l.02,5.31c2.09.21,3.84-1.7,5.78-1.85.77-.06,1.25.79,1.35.79l-2.05,4.25,3.06.53-3.03,3.2,5.07,3.19c-1.24,2.72-7.15-.33-2.03,5.84l-5.09-1.05,1.01,6.37c-1.95.66-3.05-2.52-4.57-2.13-1.34.34-.89,3.49-2.55,3.2-1.33-5.93-3.26-1.98-6.13,0l-.02-5.32-4.06,2.13,1.01-5.31h-5.09c-.68-3.61,5.9-2.54,1.01-5.32Z"/>
    <path class="st15" d="M421,676.12c6.59-.13,2.51-2.88,1.02-6.37,3.49.2,4.67.82,4.09-3.21l5.08,2.14,1.04-5.32c1.59-.05,1.67,2.81,2.15,3.14,1.04.72,3.37-3.56,3.97,3.24l6.1-2.12c-2.78,5.34,1.16,5.5,1.02,5.84-.3.74-2.35,1.66-2.05,3.17.39,1.93,4.94,1.74,5.1,3.74-1.34.52-3.41.58-4.55,1.08-1.22.54,1.71,2.86-.54,3.19-.94-.16-2.08.07-3.06,0l1.01,6.38c-3.63-1.81-4.97-4.33-5.59,1.06-1.43-1.59-1.35-4.31-4.07-3.17-1.58.66-.66,4.12-3.57,3.17v-5.31s-3.06,1.06-3.06,1.06l1.01-4.24-5.09-.02c-.48-2.22,2.03-2.74,2.07-4.77.01-.77-1.5-.44-1.73-.87-.49-.89-.27-1.68-.34-1.8Z"/>
    <path class="st28" d="M695.23,549.56c-.42-9.24,5.09-3.38,6.74,2.26,1.92-1.13,3.41-1.18,4.47-.14.47.51,3.52-1.5,1,3.71l3.08.56c-5.97,6.92-1.77,3.65,2.03,8.49l-5.09,1.09,2.04,3.17-5.1.02c.99,2.08,1.25,4.06,1.02,6.37-2.73.3-6.75-.99-9.17-2.13-1.62.87-2.49,2.49-4.07,3.19l-.02-5.32-3.04,1.06,1.01-5.31-6.11-.02c6.97-3.95-.85-5.49,0-6.36l5.09-1.09-3.05-6.37c5.77,3.44,3.4-2.06,4.59-2.14l4.57,2.14c.18-.97-.24-2.42,0-3.19Z"/>
    <path class="st24" d="M706.44,551.69c-7.96,6.82-6.68-3.85-9.69-5.31-.45.76-1.3,2.47-1.52,3.19-3.44-12.94-14.85-19.31-26.51-22.33,16.56.08,26.91,2.91,35.86,18.43.83,1.45,1.64,5.8,1.86,6.04Z"/>
    <path class="st24" d="M705.42,575.09c-.57,5.69-8.27,14.03-12.92,16.83-7.43,4.47-11.63,4.03-19.7,4.44,10.78-4.05,19.98-11.62,23.45-23.4,4.03-2.17,6.15-.75,9.17,2.13Z"/>
    <path class="st7" d="M484.21,457.03c-2.34.46-7.98,3.35-10.05,1.97-.27-.18-1.68-4.71-2.76-6.16-5.68-7.61-12.96-11.67-21.85-13.89,15.75.33,26.01,3.21,34.66,18.08Z"/>
    <path class="st12" d="M485.22,667.61l-8.69,9.54c-8.6,7.48-13.61,6.87-23.93,7.47,10.01-3.41,17.8-9.69,22.38-19.73,1.13-.71,8.46,2.4,10.25,2.71Z"/>
    <path class="st5" d="M396.53,513.4c3.66-5.5,7.19-9.08,11.21-13.83,12.3,9.46.66,22.46-11.21,13.83Z"/>
    <path class="st5" d="M408.77,626.14c-4.07-4.61-8.9-9.73-12.23-14.89,12.77-6.33,18.8,3.06,12.23,14.89Z"/>
    <path class="st0" d="M534.16,670.8c-5.26.24-11.03.16-16.31,0,.74-11.58,16.29-11.7,16.31,0Z"/>
    <path class="st0" d="M558.62,667.61c-.06-7.68,6.13-10.07,12.36-7,.37.18,4.78,3.56,4.97,3.81-5.88.35-11.57,2.1-17.33,3.19Z"/>
    <path class="st0" d="M433.99,511.46c11.38-2.37,14.1,13.46,5.42,16.35-12.98,4.32-14.92-14.37-5.42-16.35Z"/>
    <path class="st0" d="M425.82,562.53c11.95-2.72,14.02,14.46,4.63,16.6-11.95,2.72-14.02-14.46-4.63-16.6Z"/>
    <path class="st0" d="M599.17,595.48c12.34-1.68,12.72,21.69-2.88,16.35-6.23-2.13-6.1-15.13,2.88-16.35Z"/>
    <path class="st0" d="M561.41,564.63c9.86-2.14,14.45,13.37,5.42,16.35-13.55,4.47-14.96-14.28-5.42-16.35Z"/>
    <path class="st25" d="M673.5,546.71c6.67,6.37-.93,19.08-10.43,13.54-9.78-5.71,1.01-22.55,10.43-13.54Z"/>
    <path class="st0" d="M602.17,630.62c14.12-3.47,14.32,14.8,4.64,16.62-10.39,1.95-13.06-14.54-4.64-16.62Z"/>
    <path class="st0" d="M517.11,604.57c-8.67-9.06,7.31-21.56,13.02-10.92,5.31,9.9-6.61,17.62-13.02,10.92Z"/>
    <path class="st0" d="M444.73,488.64c-8.67-9.06,7.31-21.56,13.02-10.92,5.31,9.9-6.61,17.62-13.02,10.92Z"/>
    <path class="st0" d="M512.45,509.35c10.5-1.63,12.7,13.87,5.46,16.34-14.43,4.93-15.5-14.79-5.46-16.34Z"/>
    <path class="st0" d="M485.96,550.92c8.94,9.33-7.38,21.37-13.01,10.92-5.04-9.35,6.35-17.88,13.01-10.92Z"/>
    <path class="st0" d="M495.12,626.36c15.49-4.78,14.56,17.63,3.11,16.6-8.89-.81-10.42-14.34-3.11-16.6Z"/>
    <path class="st0" d="M455.36,639.12c16.08-5,14.46,20.15,1.3,16.37-7.13-2.05-8.11-14.25-1.3-16.37Z"/>
    <path class="st25" d="M563.42,622.1c12.37-3.91,15.41,14.28,4.65,16.61s-12.77-14.05-4.65-16.61Z"/>
    <path class="st0" d="M601.14,527.45c12.37-3.91,15.41,14.28,4.65,16.61s-12.77-14.05-4.65-16.61Z"/>
    <path class="st0" d="M522.67,548.68c9.85-2.14,14.46,13.37,5.42,16.35-12.69,4.19-15.42-14.17-5.42-16.35Z"/>
    <path class="st0" d="M602.19,461.47c9.85-2.14,14.46,13.37,5.42,16.35-12.69,4.19-15.42-14.17-5.42-16.35Z"/>
    <path class="st0" d="M480.84,509.35c10.86-1.69,12.64,13.89,5.46,16.34-14.21,4.86-15.28-14.82-5.46-16.34Z"/>
    <path class="st0" d="M564.44,509.35c10.44-1.64,13.75,13.48,5.47,16.35-14.42,4.99-14.41-14.94-5.47-16.35Z"/>
    <path class="st0" d="M389.13,538.05c13.85-3,12.17,22.64-2.53,16.03-6.79-3.05-4.37-14.53,2.53-16.03Z"/>
    <path class="st25" d="M423.79,590.2c9.9-.99,12.57,14.1,4.65,16.57-13.26,4.13-15.7-15.46-4.65-16.57Z"/>
    <path class="st0" d="M466.61,590.2c10.19-1.03,11.39,15,2.8,16.77-13.17,2.72-13.87-15.64-2.8-16.77Z"/>
    <path class="st25" d="M552.21,468.96c12.86-4.01,16.05,14.65,4.63,16.61-9.24,1.58-12.91-14.03-4.63-16.61Z"/>
    <path class="st0" d="M638.86,568.93c10.38-3.23,15.55,9.67,8.85,14.53-11.65,8.44-18.67-11.48-8.85-14.53Z"/>
    <path class="st25" d="M497.15,471.08c17-5.28,12.94,23.85-1.45,14.89-5.47-3.41-4.11-13.16,1.45-14.89Z"/>
    <path class="st25" d="M615.43,495.55c15.93-3.77,12.71,21.58-.47,15.98-6.41-2.72-6.02-14.45.47-15.98Z"/>
  </g>
</svg>