<?xml version="1.0" encoding="UTF-8"?>
<svg id="Ebene_1" xmlns="http://www.w3.org/2000/svg" version="1.1" viewBox="0 0 1024 1024">
  <!-- Generator: Adobe Illustrator 29.5.1, SVG Export Plug-In . SVG Version: 2.1.0 Build 141)  -->
  <defs>
    <style>
      .st0 {
        fill: #3b7d57;
      }

      .st1 {
        fill: #af7d4a;
      }

      .st2 {
        fill: #cae1ad;
      }

      .st3 {
        fill: #90b657;
      }

      .st4 {
        fill: #69853d;
      }

      .st5 {
        fill: #cae0ac;
      }

      .st6 {
        fill: #74bd8c;
      }

      .st7 {
        fill: #6a853e;
      }

      .st8 {
        fill: #90b658;
      }

      .st9 {
        fill: #91b658;
      }

      .st10 {
        fill: #6a3f13;
      }

      .st11 {
        fill: #74be8c;
      }

      .st12 {
        fill: #c9e0ac;
      }
    </style>
  </defs>
  <path class="st0" d="M473.17,370.09c-31.91-9.85-55.95-23.71-91.53-25.62-35.39-1.9-63.56,8.52-96.12,19.22,2.3-13.31-1.93-40.94-10.8-51.85-2.55-3.12-11.07.4-14.63-3.39,2.3,18.48,1.37,35.52-5.58,53.07-2.91,2-48.35-20.65-50.24-23.72-1.57-2.54,4.71-30.16,3.95-38.94-.93-10.69-6.46-20.55-8.82-30.85l-6.47,26.7c-5.12,7.44-7.42,26.9-19,20.19-2.65-1.55-30.99-29.32-31.59-31.43-1.25-4.4,8.65-28.26,8.69-37.82.02-4.52-8.97-45.16-13.38-39.35,1.13,15.64-3.38,36.78-14.48,48.82-3.99,4.33-8.77-7.39-10.66-10.8-8.57-15.47-30.6-89.68-31.99-107.42-7.23-92.49,134.49-75.3,193.99-66.71l-6.56,9.61-26.55,22.26c23.46,2.5,38.68-2.94,56.28-17.02,2.75-2.2,3.79-7.27,7.01-8.28,6.91-2.18,55.82,18.82,55.87,22.11-9.62,12.13-20.01,24.36-35.27,29.77,20.28,10.62,40.9-4.23,58.17-13.49,8.3,1.56,41.64,45.24,43.06,54.43,2.23,14.45-40.17,19.4-50.44,18.61,18.57,17.1,44.82,21.74,68.39,11.71l39.76,99.98c6.22,23.5,6.2,48.82,0,72.33-1,7.31-11.39,4.97-11.04-2.13l-.02.02Z"/>
  <path class="st0" d="M519.52,323.3l37.62-93.58c24.62,9.36,49.04,5.98,68.34-11.73-9.9.77-47.44-5.04-50.58-15.22-2.94-9.56,34.71-53.53,45.07-60.25,14.82,15.81,36.96,23.08,58.49,16.97l-19.89-11.64c-6-6.62-16.27-12.16-15.28-22.19,12.96-3.21,38.89-21.08,51.61-19.37,4.77.64,20.06,17.77,30.59,21.76,11.44,4.33,22.53,4.25,34.64,3.81l-24.32-20.14-8.77-11.73c61.13-8.45,200.39-27,194.23,66.95-1.25,19.1-9.45,32.9-14.33,50-6.79,23.79-8.74,51.83-27.55,70.21l-12.66-25.05-5-28.11c-7.89,17.49-11.29,37.08-8.67,56.18.66,4.84,8.4,20.87,7.6,22.55-.96,2.07-30.28,30.19-33.07,31.97-2.11,1.36-3.8,2.6-6.57,2.17-3.21-.49-12.84-24.73-13.99-29.38-1.42-5.78,1.57-16.6-4.92-19.69-8.42,22.29-13.16,44.42-2.74,67.07l-1.62,1.95c-5.64,4.59-47.91,27.17-50.82,24.56-.86-9.14-5.81-17.42-6.61-26.61-.79-9.16,1.99-17.59,1.12-26.54-3.58,3.78-12.08.29-14.63,3.39-9.35,11.47-11.83,37.68-10.82,51.86-33.48-12-61.67-21.54-98.32-19.22-34.32,2.17-52.96,14.8-82.69,23.49-.07,6.13-2.37,6.87-6.62,2.13-3.3,6.7-8.33,4.91-8.84-2.13-1.86-2.79-3.8-5.81-4.04-9.21-.73-11.04-1.88-54.18,1.13-60.65.76-1.63,1.79-3.12,2.89-4.59l.02.02Z"/>
  <path class="st3" d="M387.06,423.28l3.36,2.84c2.45,27.7,24.3,62.8,53.42,69.05,4.78-9.09,8.57-5.85,15.13-.1,20.9,35.13,76.03,32,96.34-2.22,9.41-9.96,13.03-5.06,17.63,5.02,13.27-9.9,21.45-27.74,21.7-44.5l4.36-4.57c7.18.2,13.59,4.59,19.25,13.15,4.78,8.65,10.14,12.77,16.07,12.38,1.69,2.2,2.89,4.23,4.41,6.38,1.3,2.18,1.3,3.6,0,4.25-9.53,11.41-18.76,24.02-27.68,37.87l-25.48,21.35c-.34.84,3.01,17.61,3.94,17.62,19.25.34,48.57-44.3,44.65-63.49l4.56-4.86c8.23,5.41,14.55,13.74,19,25,1.69,8.72,4.92,13.86,9.7,15.42.49,1.97,1.88,3.76,2.21,6.38-4.68,3.54-31.47,37.48-30.44,39.83.32.76,13.77,6.27,15.77,5.98,6.46-.94,11.8-31.77,10.38-38.3l4.29-3.26c4.93,7.98-.19,45.81,8.11,48.62,2.99,1.01,6.71-.12,9.55.3,15.36,4.49,38.8,14.63,41.94,29.79-.34,1.53-.74,3.02-1.42,4.4-7.28,14.77-69.68,30.17-88.55,29.6,31.69,24.13,77.01,11.22,89.63-25.52l4.77-2.08c4.5-2.6,8.97.32,13.44,8.82l12.69,20.4,4.78.57c.88,1.48,1.44,2.87,2.21,4.25,2.5,5.83,1.76,7.96-2.21,6.38l-3.26-.79c-34.71,23.99-76.17,40.22-119.82,37.43,36.62,27.74,99.06,9.24,117.1-31.6l5.98-2.91c1.05-.3,2.08-.49,3.01-.29,2.2.47,15.34,37.31,15.63,40.72l-3.19,4.23-2.04,7.34c-35.83,33-96.06,51.98-141.38,28.73l-41.61-4.62c-31.67,19.96-75,18.16-111.57,12.11-16.9-2.81-39.17-9.68-30.79-29.97-25.67,7.44-54.08,11.86-78.95,2.49-52.07,18.87-107.75.91-145.56-37.35,4.04-17.25,10.48-32.84,17.66-48.92,3.13,3.36,3.85,1.95,2.21-4.25,7.72-16.03,12.54-26.26,24.28-40.42,7.05,6.38,7.77,5.68,2.21-2.13,6.03-6.85,12.56-14.65,20.06-20.03,5.93-4.25,24.5-10.67,25.28-11.79.84-1.21,2.25-20.08,3.23-25.62,1.59-1.01,3.19-1.23,4.82-.45,2.21,17.3,10.46,27.03,24.74,29.13,7.91,10.11,14.28,10.92,19.13,2.45-16.27-12.37-32.62-25.5-43.67-42.67l-.61-7.61c5.56-18.83,13.65-39.9,26.5-55.31,2.52.18,3.03-1.43,2.21-4.25,5.42-14.68,20.16-29.03,30.91-40.42l-.02-.02Z"/>
  <path class="st3" d="M228.11,701.95l5.85,2.65c20.63,46.99,81.95,69.17,126.04,37.52,14.62-14.01,19.64-7.59,14.52,8.55,25.92,11.11,53.17,5.63,78.4-5.19,25.99,41.14,92,51.14,128.23,17.71,11.88-20.46,23.95-21.05,22.51,4.75,2.91,3.7,38.29,5.58,40.2,3.11-6.69-14.41,5.19-17.12,14.28-6.5,40.73,24.31,99.05,12.92,120.38-30.24l5.93-2.55c4.97,6.74,7.33,15.54,7.11,26.39-.73,7.83.59,13.93,3.94,18.28-.34,7.04-.27,8.33-2.21,14.89-3.18,1.28-5.15,1.18-6.34-1.78-32.53,20.01-91.05,46.84-124.3,17.57-18.15,4.54-37.15,5.64-57,3.33-13.96,29.69,33.19,18.8,50.38,14.52,8.55-6.55,14.57-7.83,18.07-3.85-12.78,38.42-56.22,54.4-86.07,21.27-.64,6.23-4.61,14.4-4.61,20.36,0,5.39,7.5,0,2.38,9.41-38.89,10.55-79.78,18.31-118.75,1.39l-7.1-7.78c-5.59-18.01-8.8-34.47-11.07-53.16l-14.25,19.2c-35.66,32.04-76.25.96-87.29-36.24l4.83-2.05c18.57,18.16,41.84,25.4,68.26,19.54,4.22-.94,28.36-8.79,29.47-9.9.52-.54-6.86-11.44-8.08-11.58-28.34,6.5-60.64,7.04-87.66-3.56-2.43,2.22-4.71,4.74-6.81,7.58-.83-.47-3.31.44-4.41,0-40.42,1.51-80.09-.03-113.95-27.17l-5.26,3.76c-3.48-10.43-3.01-26.11-2.18-37.2.83-11.31,4.34-22.08,6.61-33l-.05-.05Z"/>
  <path class="st4" d="M228.11,695.56c4.11-3.33,5.02-.17,7.72,2.05,31.31,25.69,63.05,41.65,105.93,38.34,9.73-.76,23.25-6.28,30.89-6.37,6.88-.07,16.85,3.71,24.37,4.23,23.02,1.63,41.47-3.83,62.88-10.58-9.53,23.89-5.09,25.2,17.19,31.28,24.61,6.72,62.04,7.06,87.12,2.2,9.29-1.8,28.59-11.74,33.55-11.93,3.55-.12,35.74,3.23,39.83,3.98,5.37.99,9.7,6.99,20.16,8.23,53.23,6.33,84.36-7.98,122.27-40.17-.98-7.07,3.53-9.27,8.84-4.25.34,1.21-.3,3.01,0,4.25.42,7.12-1.05,12.1-4.41,14.89-19.57,48.08-83.03,62.95-127.79,36.98-3.85-2.23-7.69-9.63-11.27-6.15l4.41,11.69c-8.62,3.61-45.17,2.55-49.77-4.15-2.38-3.49.88-19.4-4.33-19.19-1.12.05-9.19,13.19-12.07,15.99-33.41,32.66-110.07,25.57-131.55-18.14-19.74,11.68-43.04,15.02-65.55,10.1-19.76-4.33-18.4-5.14-12.73-22.87-46.86,47.16-123.4,23.91-145.69-34.04.39-1.92-.42-4.54,0-6.38h0Z"/>
  <path class="st8" d="M484.2,372.22l4.41,2.2c-4.12,19.03-.44,33.9,11.04,44.59,2.42-2.6,6.3-4.54,11.66-5.78,1.74-6.75,4.48-11.91,8.21-15.49,2.59,1.51,5.8,2.47,8.84,2.13,9.84,2.97,16.46,7.22,19.87,12.77l1.45,4.54-21.26,27.49c20.58,23.12,22.1-7.74,22.26-24.21l4.17-3.54c10.39-1.39,37.79,13.63,35.32,25.52,4.46,5.49-3.94,16.18-8.2,21.29-10.46,6.9-16.04,13.89-16.76,20.93.08,3.02-6.93,7.81-10.85,10.1-14.4,8.42-80.32,8.64-96.14.49-8.96-3.23-11.41-8.3-7.32-15.25l-37.52-26.18c-7.96-7.06-23.79-23.22-24.12-32.64,7.05-7.21,28.7-29.82,37.53-31.9,4.11,8.11,4.83,8.11,2.21,0,11.56-12.03,29.51-13.14,44.16-19.15,3.67,1.13,6.71,2.94,11.04,2.13l-.02-.02Z"/>
  <path class="st4" d="M356.15,463.7c41.45,76.39,142.24,106.78,222.95,70.19-12.49,45.23-85.83,52.87-121.25,28.58-9.21-6.32-25.59-32.58-22.22-5.17-44.83-1.63-88.15-45.65-81.68-89.34.35-2.39,1.83-3.23,2.21-4.25h-.02Z"/>
  <path class="st4" d="M389.26,421.14l26.46,28.75c5.76,7.48,39.34,23.37,39.61,29.6.12,2.57-3.26,8-2.03,9.66s35.93,8.22,40.85,8.52c11.27.71,57.14-4.08,65.18-9.53,3.6-2.44-.46-6.18.96-9.53,1.25-2.96,15.02-13.91,18.76-18.21,4.99-5.75,8.37-14.65,11.1-18.03-2.01-6.37,3.43-7.85,6.62-2.13,5.88.82,8.92,5.71,2.21,8.5.76,18.16-4.87,32.64-16.75,46.62-15.5,18.23-9.09,3.04-20.75-6.2-17.71,44.15-88.32,47.53-108.24,4.27-7.54-1.38-2.62,7.29-11.59,6.05-25.18-3.46-59.76-50.47-54.59-76.27.69-.74,1.49-1.39,2.21-2.13l-.03.07Z"/>
  <path class="st4" d="M247.98,642.37c30.49,22.97,85.87,41.43,124.55,35.99,7.08-.99,11.26-5.44,17.76-6.3,10.58-1.38,23.76.87,35.15-.17,15.55-1.41,35.39-6.82,48.86-14.62,1.03,19.52-28.15,35.3-45.17,39.43-8.62,2.1-36.37,5.73-42.98,1.21-3.72-2.55.9-13.63-2.38-17.25-41.94,39.93-120.61,20.03-137.98-34.04.68-1.53,1.52-2.82,2.21-4.25h-.02Z"/>
  <path class="st4" d="M674.05,821.06c-4.14.03-11.68,6.2-17.05,8.03-14.2,4.84-28.02,6.13-43.08,4.2-23.85-3.07-11.98-9.06-12.73-27.12,16.75.66,32.7,1.21,49.43-.22,3.94-.34,11.56-3.75,13.6-3.43,1.66.27,5.54,10.5,21.99,12.13,35.96,3.56,73.6-10.92,101.57-31.89l5.48,8.52c-1.49,5.04-4.9,11.27-6.62,17.02-17.34,34.04-67.21,43.68-99.35,23.4-3.82-3.83-7.01-10.69-13.25-10.63l.02-.02Z"/>
  <path class="st1" d="M519.52,267.99c1.61,17.07-.15,37.7,0,55.31.2,24.18,1.28,50.52,0,74.46-.71,13.17-2.81,24.7-19.87,21.27-7.25-4.23-9.46-8.13-6.62-11.69l-2.94-.66c-1.76-45.29-2.25-91.01-1.47-137.19l4.41-2.55c-4.78-11.19,24.79-10.92,26.5,1.06Z"/>
  <path class="st4" d="M342.9,795.54c-4.93,6.47-14.3,14.2-22.07,17.02-30.11,20.5-84.41,1.23-97.14-31.9-.3-2.65.02-5.75,0-8.5-.03-3.86-.98-9.56,1.1-12.75,18.18,16.35,48.01,29.67,72.9,31.87,12.2,1.08,28.63-1.92,39.76.07,4.48.79,5.04,4.07,5.46,4.23l-.02-.03Z"/>
  <path class="st4" d="M459.92,865.73c41.42,19.64,76.86,15.47,119.16,3.12,4.29-1.26,7.64-3.14,6.68,3.26-3.9,7.17-9.28,13.93-15.45,19.15-20.84,29.82-81.51,24.55-101.55-4.25-3.7-7.88-6.05-12.35-8.84-21.27v-.02Z"/>
  <path class="st4" d="M274.46,599.83c18.89,12.01,42.49,23.08,65.4,25.27,13.1,1.24,27.43-2.05,39.51,2.35l1.08-8.47c9.35,7.19,76.05-4.3,77.26-9.63l-4.41-9.51c44.55,15.02,88.84,14.83,129.18-10.62,5.73-1.33,1.23,5.06.41,6.77-18.2,37.33-65.69,49.31-104.29,35.82-15.41-5.39-11.66-8.72-20.87-19.22-8.08,20.92-31.47,35.36-54.37,35.94-2.23.05-17.71-1.43-18.4-2.03-1.06-.94-1.3-16.35-3.41-19.02-33.46,38.57-98.44,24.56-109.29-25.54.64-.77,1.54-1.38,2.21-2.13l-.02.02Z"/>
  <path class="st8" d="M570.29,891.25c-23.05,56.1-72.58,54.89-100.3,1.9-1.23-2.35-.73-5.01-1.27-6.15,8.48,2.99,14.25,9.46,22.75,13.17,24.32,10.62,58.35,8.38,78.8-8.92h.02Z"/>
  <path class="st8" d="M687.3,831.7c11.41-.44,22.05,6.2,34.2,6.52,26.84.72,47.52-12.03,65.15-29.92-5.46,18.3-4.04,33.7-23.54,46.45-29.66,19.4-55.94-3.19-75.79-23.05h-.02Z"/>
  <path class="st9" d="M320.83,812.56c-39.51,50.38-90.26,26.39-97.14-31.9,7.64,3.75,10.61,11.71,16.58,17,19.81,17.56,55.48,24.01,80.56,14.9h0Z"/>
  <path class="st10" d="M484.2,299.9c.17-10.62-1.49-25.15.12-34.98,3.13-19.07,32.77-22.85,35.2,3.07-3.9-6.01-26.5-5.78-26.5-1.06v140.4c0,1.21,6.19,8.84,6.62,11.69-22.12-4.44-15.13-29-15.45-46.81-.44-23.99-.39-48.33,0-72.33h0Z"/>
  <path class="st4" d="M327.46,523.26c14.3,21.39,31.86,36.27,52.98,51.02-5.41-1.04-14.67,12.75-16.56,12.75-.93,0-10.11-10.28-13.6-12.37-5.49-3.26-13.79-3.81-15.7-5.09-3.89-2.6-8.06-22.58-11.54-27.18,1.3-7.41,2.28-11.91,4.41-19.15l.02.02Z"/>
  <path class="st4" d="M429.01,389.24c4.11.96,13.1,13.94,17.64,18.11,3.09,2.84,19.01,13.12,19.62,14.15,1.23,2.07-1.69,7.54-1.77,11.14-.05,2.6,2.47,5.76,2.16,8.47-.07.6-7.13,3.09-5.66,9.86-24.23-11.54-37.48-35.8-34.2-61.71.52-.12,1.69-.12,2.21,0v-.02Z"/>
  <path class="st7" d="M669.64,540.28c.17,1.38-.08,2.86,0,4.25.76,12.03-1.25,36.89-12.05,44.87-6.05,4.49-20.63-9.31-29.9-6.62,14.5-11.29,22.04-26.83,32.46-39.85,3.43-4.28,4.41-2.82,9.48-2.67v.02Z"/>
  <path class="st12" d="M764.56,659.39c-1.88,3.83-3.6,6.33-7.66,2.07-7.69-8.08-11.34-26.04-23.24-31.85-3.3-1.41-4.77-3.53-4.41-6.38-13.25-13.74-22.95-22.9-41.94-29.79,37.72,5.53,59.96,36.61,77.26,65.94l-.02.02Z"/>
  <path class="st12" d="M534.97,397.74l53.69,30.16c5.59,2.65,6.13,5.61,8.11,10.27,1.94.67,1.93,1.38,0,2.13-1.83.35-5.59.86-6.62,2.13-8.4-11.36-22.31-19.67-35.32-25.52-1.88-2.57-4.07-3.98-6.62-4.25l-22.09-8.53,2.21-4.23c1.2-.13,4.71-1.58,6.62-2.13l.02-.02Z"/>
  <path class="st5" d="M634.32,474.34l-6.57,8.48c-6.39-12.75-18.27-24.18-28.75-34.02-.22-5.11-1.28-5.28-2.21-8.5-.2-.71.24-1.56,0-2.13,16.63,4.13,27.87,23.6,37.53,36.15v.02Z"/>
  <path class="st2" d="M667.43,533.89c-6.9,12.72-10.12-7.29-13.52-13.57-4.85-9.01-11.04-17.46-15.19-26.85-4.29-2.69-4.29-5.83,0-8.5v-4.25c13.1,18.36,22.95,30.27,28.7,53.17h.02Z"/>
  <path class="st12" d="M788.85,712.58c-3.33.47-6.37,2.17-8.84,4.25l-15.45-44.67c-1.91-.71-1.91-1.43,0-2.13.66-1.61,3.3-3.29,2.21-6.38,9.57,17.22,16.54,29.05,22.07,48.92v.02Z"/>
  <path class="st12" d="M795.47,776.39l-6.64,3.18c1.37-15.93-4.83-32.17-4.41-47.85.15-5.16.22-11.05,4.41-14.89,5.51,22.13,7.76,36.05,6.62,59.56h.02Z"/>
  <path class="st6" d="M466.51,348.82c-75.57-84.74-171.41-156.36-282.09-192.97l-44.61-9.09c11.96-.55,24.01.79,35.78,2.72,91.8,15.12,208.37,95.56,266.61,164.29,8.74,10.32,19.43,22.78,24.32,35.05h0Z"/>
  <path class="st11" d="M855.08,176.55l-33.09,7.44c-112.82,35.92-210.26,108.72-286.99,194.62,5.8-12.26,15.55-24.61,24.32-35.05,57.73-68.61,171.95-146.52,262.57-163.92,10.9-2.1,21.99-3.8,33.17-3.09h.02Z"/>
  <path class="st4" d="M764.56,672.16c-15.41,40.25-59.27,57.14-101.67,50.1-11.14-1.85-25.92-13.99-27.48-13.91-1.81.1-2.3,5.76-4.85,6.38-10.38,2.54-44.97-3.93-50.33-14.92-18.74,39.25-74.66,49.46-103.8,14.9-1.3-1.55-13.49-16.26-4.77-14.6,10.95,2.08,22.39,6.82,33.75,7.93,25.77,2.52,48.86-3.53,73.68-8.27l-12.12-21.27c11.49,3.81,23.49,6.96,35.59,8.25,5.17.55,26.38-.69,27.33.25,1.17,1.18-2.86,12.57,3.62,14.6,4.68,1.48,30.6.76,36.99.07,16.83-1.81,46.46-11.68,61.65-19.3,7.3-3.66,19.74-14.21,25.15-16.2,3.73-1.38,8.58-2.08,7.27,3.81-.25.62.24,1.5,0,2.13l-.02.03Z"/>
  <path class="st4" d="M729.24,623.24c.78.81,5.36-2.91,4.41,6.38-2.38,23.72-33.07,43.73-56.39,44.71-23.32.97-36.1-13.94-44.41-14.57-2.75-.2-5.64,3.85-10.56,4.03-20.26.79-47.07-16.67-52-36.27,20.18,5.16,40.69,10.05,61.8,8.52l-2.21,17c35.91.25,70.12-9.81,99.35-29.77l.02-.03Z"/>
  <path class="st4" d="M638.73,484.97v8.5c-.2,35.11-18.2,62.58-52.96,74.46,0-7.11-4.53-18.33-4.33-24.68.08-2.86,21.33-17.79,26.31-23.25,4.46-4.87,9.13-11.83,12.88-17.37,5.1-7.54,5.64-20.01,18.1-17.66h0Z"/>
  <path class="st4" d="M347.32,795.54c-.47-1.61-2.11-5.38-1.83-6.03.2-.44,6.74-6.23,7.22-6.3,1.57-.22,10.83,4.23,14.4,4.94,25.96,5.19,56.71,5.59,81.73-3.26-4.77,19.67,24.37,26.86,39.76,30.83,22.88,5.91,45.51,7.61,68.97,2.65,15.56-3.29,28.9-12.53,43.63-17.52-23.74,63.64-118.87,61.1-151.47,5.48-25.4,13.66-53.37,18.09-80.44,5.22-9.24-4.4-14.48-11.83-21.99-16.03l.02.02Z"/>
  <path class="st4" d="M548.22,412.64c7.32-6.08,6.2-1.02,6.62,4.25.93,11.56.64,23.84-5.41,34.14-10.85,18.46-13.94-3.66-29.91-4.38,10.58-7.59,20.21-26.96,28.7-34h0Z"/>
</svg>