<?xml version="1.0" encoding="UTF-8"?>
<svg id="Layer_1" xmlns="http://www.w3.org/2000/svg" version="1.1" viewBox="0 0 482.16 482.16">
  <!-- Generator: Adobe Illustrator 29.5.1, SVG Export Plug-In . SVG Version: 2.1.0 Build 141)  -->
  <defs>
    <style>
      .st0 {
        fill: #129f49;
        stroke: #176533;
        stroke-miterlimit: 10;
        stroke-width: .5px;
      }
    </style>
  </defs>
  <g>
    <path class="st0" d="M86.64,277.62c-2.34-3.99-4.53-8.09-5.91-12.47l.43-1.01c-.38-2.64,3.34-2.08,3.82.22l1.34,1.18c1.29,6.18,4.86,12.3,10.21,15.73l.33-14.38c.19-.73.62-1.29,1.19-1.68l.81-1.63c16.12-2.86,27.61-13.93,31.52-30.44.76-3.2,1.43-19.38-1.19-21.85-3.2-2.98-23.65-1.8-27.09.56-1.24.06-1.72-.51-1.24-1.68-1.34.34-2.29-2.92-2.58-4.16-3.34-13.59-2.29-26.51,4.77-37.58,13.16-20.67,43.44-24.49,63.33-5.62,8.82,8.87,14.83,17.41,17.22,29.71,1.14.51,1.62,1.63,1.43,3.26,8.68,1.07,16.4,5.39,23.22,11.46,1.34,1.35,2.72,2.81,4.01,4.21,30,39.82-8.92,88.41-51.26,65.71-10.01,22.41-36.96,29.09-59.18,15.61-6.63-4.66-10.21-8.65-15.12-15.28l-.05.11Z"/>
    <path class="st0" d="M212.16,211.51c17.02,19.27,19.7,46.06,3.39,63.58-4.67,5.05-10.78,7.92-16.98,10.62,10.59,5.5,25.7,10.84,29.66,23.98,1.91,6.4-.14,13.7-3.82,18.42-11.25,14.38-52.93,43.19-72.29,26.57-13.26-11.35-10.21-27.91-6.72-41.68,1.43-5.62,5.15-10.28,1.38-16.57-13.78,7.69-30.9,6.35-45.06-3.54-.62-1.46.95-.06,1.34.11,23.13,11.68,46.16,5.39,57.46-16.68,8.06,3.43,15.55,5.84,23.94,5.45,28.99-1.52,45.49-31.96,32.81-60.6-1.48-3.37-3.53-6.4-5.15-9.66h.05Z"/>
    <path class="st0" d="M166.33,162.87c-9.97-7.53-21.03-11.91-32.71-11.01-26.37,2.08-41.25,26.23-34.53,53.25.29,1.18,1.81,4.44,1.76,5.05,1.05.62,1.05,1.46-.1,2.53,1.43,1.85.72,3.26-.95,4.21-15.26,7.81-22.32,27.07-18.03,45.38l-.62,1.8c1.34,4.66,3.53,9.04,5.48,13.48-17.07-23.03-10.35-54.14,12.26-65.71-18.93-33.53,4.86-72.17,41.06-64.76,10.73,2.19,18.41,7.58,26.42,15.67l-.05.11Z"/>
    <path class="st0" d="M183.55,192.58c9.68,1.63,17.55,7.53,24.65,14.72-7.39-5.28-15.64-9.55-24.27-10.56,0-1.4-.1-2.75-.38-4.16Z"/>
    <path class="st0" d="M81.16,264.14c-4.58-16.06.1-33.81,11.49-43.92,1.57-1.4,7.15-4.21,7.77-5.39.38-.67-.95-1.68-.86-2.36.1-.56,1.24-1.4,1.29-2.3.76,1.07,1.34.39,2.1.22,4.34-1.01,7.92-2.19,12.54-2.25,2.48,0,12.49,1.01,14.26,2.3,2.15,1.52,2.67,13.93,2.48,16.68-.86,16.4-11.25,30.39-25.75,35.67-2.81,1.01-5.87,1.07-8.49,2.42-.91-5.39-.72-10.9.52-16.51l2.15-10.95c-10.73,1.91-16.02,14.43-14.78,25.39l-.91,1.18c-1.29-.62-2.77-1.29-3.82-.22v.06Z"/>
    <path class="st0" d="M84.98,264.42c-1.76-10.17,2.58-22.35,11.4-26.51,1.29-.62,5.15-2.36,5.29,0,.14,2.19-1.76,8.65-2.15,11.4-.72,5.22-1.19,10.67-1.57,16.01s0,10.78-.33,15.67c-.19,2.86-2.24,1.12-3.86-.22-4.96-4.32-7.77-10-8.87-16.29l.1-.06Z"/>
    <path class="st0" d="M140.29,161.97c-9.44,5.95-17.69,13.42-25.75,21.17-.62.62-1.62.84-2.24,1.46-1.62,1.63-2.62,4.72-5.15,5.62-9.16-19.66,15.78-41.39,33.14-28.25Z"/>
  </g>
  <g>
    <path class="st0" d="M234.52,220.83c1-4.55,2.15-9.1,4.01-13.26l.95-.39c1.48-2.13,3.82.9,2.62,2.92l.14,1.8c-3.2,5.39-4.67,12.41-3.1,18.7l9.82-10.17c.62-.34,1.29-.45,2-.39l1.67-.56c13.59,9.49,29.23,9.72,43.06.62,2.72-1.8,13.92-12.97,13.69-16.68-.33-4.44-15.88-18.25-19.93-18.98-.91-.84-.91-1.57.24-2.08-1.19-.73.29-3.76.91-4.89,6.63-12.19,16.02-20.84,28.47-23.76,23.27-5.5,47.74,13.42,49.5,41.34.43,12.75-.86,23.2-7.34,33.81.48,1.24.1,2.36-1.14,3.37,5.58,6.96,8.3,15.67,9.16,24.94.1,1.97.1,3.99.05,5.9-4.82,50.27-65.28,57.51-80.83,10.78-22.17,9.04-46.07-5.45-53.17-31.12-1.72-8.09-1.62-13.59-.76-21.9h0Z"/>
    <path class="st0" d="M369.29,263.07c-.52,26.12-16.4,47.4-39.87,48.42-6.72.28-13.07-2.02-19.36-4.49,3.96,11.57,11.35,26.29,5.44,38.59-2.86,6.01-9.25,9.83-15.02,10.56-17.74,2.36-67-6.74-69.96-32.63-2-17.69,11.21-27.47,22.89-34.94,4.77-3.03,10.59-3.71,12.06-11.01-15.07-4.32-26.56-17.58-30.23-34.88.52-1.52.76.62.91,1.07,8.97,24.99,29.76,36.96,52.65,29.15,3.53,8.26,7.34,15.39,13.69,21.06,21.94,19.71,54.17,9.49,64.09-20.28,1.14-3.48,1.72-7.13,2.72-10.67v.06Z"/>
    <path class="st0" d="M368.57,195.05c-2.19-12.58-7.3-23.7-16.36-31.4-20.41-17.41-47.26-10.62-60.42,13.76-.57,1.07-1.67,4.49-2.1,4.94.38,1.18-.24,1.8-1.76,1.74-.19,2.36-1.67,2.86-3.48,2.36-16.21-5.28-34.14,3.54-43.25,19.88l-1.67.84c-2.15,4.32-3.43,9.04-5.01,13.65,3-28.87,28.56-46.56,52.6-38.7,8.63-37.86,51.55-48.7,72.77-17.36,6.29,9.27,8.25,18.7,8.63,30.27h.05Z"/>
    <path class="st0" d="M361.23,228.87c5.91,8.14,7.63,18.03,8.01,28.31-1.86-9.1-4.96-18.14-10.54-25.05.91-1.07,1.76-2.08,2.53-3.26h0Z"/>
    <path class="st0" d="M239.53,207.19c7.39-14.88,22.56-24.38,37.58-23.53,2.1.11,7.96,2.08,9.2,1.68.72-.22.43-1.91.95-2.3.43-.34,1.81-.11,2.48-.73-.14,1.29.67,1.24,1.38,1.68,3.82,2.36,7.15,4.1,10.59,7.36,1.81,1.74,8.35,9.66,8.77,11.91.52,2.64-7.34,11.96-9.3,13.87-11.54,11.23-28.37,13.87-42.35,7.3-2.72-1.29-4.96-3.43-7.77-4.32,2.96-4.55,6.72-8.37,11.35-11.57l8.82-6.4c-9.06-6.29-21.22-1.07-27.61,7.75l-1.43.22c-.52-1.35-1.14-2.92-2.62-2.92h-.05Z"/>
    <path class="st0" d="M242.15,210.11c5.53-8.59,16.74-14.27,25.89-11.01,1.34.45,5.25,2.02,3.86,3.82-1.34,1.68-7.01,5-9.11,6.68-4.01,3.26-7.96,6.85-11.78,10.45-3.82,3.59-7.15,7.81-10.68,11.06-2.05,1.91-2.38-.79-2.62-2.92-.72-6.68,1.05-12.81,4.43-18.09h0Z"/>
    <path class="st0" d="M350.36,175.73c-10.78-2.47-21.7-2.98-32.71-3.15-.86,0-1.72-.56-2.58-.56-2.29,0-5.05,1.52-7.44.39,6.44-20.78,39.01-18.59,42.73,3.37v-.06Z"/>
  </g>
  <g>
    <path class="st0" d="M150.69,251.89c-1.14-4.38-2.19-8.82-2.38-13.31l.67-.79c.29-2.53,3.67-1.01,3.53,1.29l.91,1.46c-.38,6.18,1.48,12.86,5.58,17.52l3.91-13.37c.38-.62.91-1.01,1.53-1.29l1.19-1.29c15.83,1.68,29.33-5.5,37.2-19.94,1.53-2.81,6.2-17.75,4.39-20.78-2.24-3.65-21.7-8.14-25.47-6.85-1.14-.28-1.48-.95-.72-1.91-1.34-.06-1.38-3.37-1.38-4.61.29-13.65,4.53-25.44,13.92-33.92,17.55-15.78,46.83-11.12,60.71,11.96,6.01,10.73,9.49,20.33,8.63,32.52.95.79,1.1,1.97.52,3.43,7.82,3.31,14.02,9.49,18.84,17.07.91,1.63,1.86,3.37,2.67,5.05,18.07,45.44-30.62,80.32-64.57,47.63-15.02,18.31-41.92,17.19-59.32-1.46-5.05-6.12-7.39-10.9-10.3-18.42h-.05Z"/>
    <path class="st0" d="M284.88,224.15c11.06,22.69,6.82,48.47-12.83,60.44-5.63,3.43-12.11,4.49-18.55,5.34,8.54,8.03,21.32,17.19,21.7,30.5.19,6.52-3.58,12.81-8.2,16.23-14.16,10.45-60.47,26.01-74.39,5.22-9.54-14.21-2.53-28.93,4.2-40.83,2.72-4.89,7.44-8.2,5.48-15.16-14.83,3.43-30.57-2.47-41.3-15.56-.24-1.52.91.17,1.24.45,18.74,17.24,41.82,17.58,57.99,0,6.68,5.39,13.07,9.72,21.03,11.57,27.52,6.46,50.64-17.58,46.02-47.8-.52-3.54-1.67-6.96-2.38-10.45v.06Z"/>
    <path class="st0" d="M254.22,166.13c-7.44-9.77-16.69-16.85-27.9-19.21-25.18-5.22-45.21,13.37-45.73,40.5,0,1.18.57,4.66.38,5.22.86.84.62,1.63-.76,2.36.86,2.13-.19,3.2-1.96,3.65-16.26,3.15-27.71,19.27-28.33,37.58l-1.05,1.52c.05,4.72,1.05,9.44,1.76,14.1-10.16-26.23,3.96-53.53,28.04-58.19-9.3-36.56,22.75-66.28,54.75-49.48,9.49,5,15.31,12.13,20.79,21.85v.11Z"/>
    <path class="st0" d="M262.85,198.59c8.68,4.21,14.5,11.85,19.36,20.5-5.58-6.96-12.26-13.2-20.08-16.46.33-1.35.62-2.58.72-3.99v-.06Z"/>
    <path class="st0" d="M148.93,237.8c-.24-16.29,8.58-31.62,21.84-38.02,1.86-.9,7.73-2.02,8.63-2.92.52-.51-.48-1.85-.24-2.42.24-.51,1.53-.95,1.76-1.8.48,1.18,1.14.73,1.91.79,4.29.22,7.96.11,12.3,1.29,2.34.62,11.45,4.32,12.78,6.01,1.62,2.02-1,13.76-1.86,16.29-4.96,15.11-18.22,25.39-33.1,26.4-2.91.17-5.77-.56-8.58,0,.52-5.28,2.1-10.39,4.63-15.33l4.77-9.66c-10.54-1.12-18.65,9.16-20.27,19.77l-1.14.9c-1.05-.9-2.24-1.97-3.53-1.29h.1Z"/>
    <path class="st0" d="M152.45,239.09c.91-10,8.06-20.22,17.36-21.74,1.34-.22,5.39-.79,4.96,1.46-.38,2.08-3.82,7.58-4.86,10.05-2,4.72-3.82,9.66-5.48,14.55-1.67,4.89-2.72,10.05-4.29,14.6-.91,2.64-2.38.45-3.53-1.29-3.58-5.39-4.77-11.46-4.2-17.64h.05Z"/>
    <path class="st0" d="M230.09,158.21c-10.35,2.98-19.93,7.75-29.42,12.81-.76.39-1.72.34-2.48.73-1.96,1.07-3.67,3.71-6.2,3.88-3.62-20.89,25.23-34.49,38.15-17.41h-.05Z"/>
  </g>
  <g>
    <path class="st0" d="M35.05,302.28c-2.34-3.99-4.53-8.09-5.91-12.47l.43-1.01c-.38-2.64,3.34-2.08,3.82.22l1.34,1.18c1.29,6.18,4.86,12.3,10.21,15.73l.33-14.38c.19-.73.62-1.29,1.19-1.68l.81-1.63c16.12-2.86,27.61-13.93,31.52-30.44.76-3.2,1.43-19.38-1.19-21.85-3.2-2.98-23.65-1.8-27.09.56-1.24.06-1.72-.51-1.24-1.68-1.34.34-2.29-2.92-2.58-4.16-3.34-13.59-2.29-26.51,4.77-37.58,13.16-20.67,43.44-24.49,63.33-5.62,8.82,8.87,14.83,17.41,17.22,29.71,1.14.51,1.62,1.63,1.43,3.26,8.68,1.07,16.4,5.39,23.22,11.46,1.34,1.35,2.72,2.81,4.01,4.21,30,39.82-8.92,88.41-51.26,65.71-10.01,22.41-36.96,29.09-59.18,15.61-6.63-4.66-10.21-8.65-15.12-15.28l-.05.11Z"/>
    <path class="st0" d="M160.56,236.17c17.02,19.27,19.69,46.06,3.39,63.58-4.67,5.05-10.78,7.92-16.98,10.62,10.59,5.5,25.7,10.84,29.66,23.98,1.91,6.4-.14,13.7-3.82,18.42-11.25,14.38-52.93,43.19-72.29,26.57-13.26-11.35-10.21-27.91-6.72-41.68,1.43-5.62,5.15-10.28,1.38-16.57-13.78,7.69-30.9,6.35-45.06-3.54-.62-1.46.95-.06,1.34.11,23.13,11.68,46.16,5.39,57.46-16.68,8.06,3.43,15.55,5.84,23.94,5.45,28.99-1.52,45.49-31.96,32.81-60.6-1.48-3.37-3.53-6.4-5.15-9.66h.05Z"/>
    <path class="st0" d="M114.73,187.53c-9.97-7.53-21.03-11.91-32.71-11.01-26.37,2.08-41.25,26.23-34.53,53.25.29,1.18,1.81,4.44,1.76,5.05,1.05.62,1.05,1.46-.1,2.53,1.43,1.85.72,3.26-.95,4.21-15.26,7.81-22.32,27.07-18.03,45.38l-.62,1.8c1.34,4.66,3.53,9.04,5.48,13.48-17.07-23.03-10.35-54.14,12.26-65.71-18.93-33.53,4.86-72.17,41.06-64.76,10.73,2.19,18.41,7.58,26.42,15.67l-.05.11Z"/>
    <path class="st0" d="M131.95,217.24c9.68,1.63,17.55,7.53,24.65,14.72-7.39-5.28-15.64-9.55-24.27-10.56,0-1.4-.1-2.75-.38-4.16Z"/>
    <path class="st0" d="M29.52,288.8c-4.58-16.06.1-33.81,11.49-43.92,1.57-1.4,7.15-4.21,7.77-5.39.38-.67-.95-1.68-.86-2.36.1-.56,1.24-1.4,1.29-2.3.76,1.07,1.34.39,2.1.22,4.34-1.01,7.92-2.19,12.54-2.25,2.48,0,12.49,1.01,14.26,2.3,2.15,1.52,2.67,13.93,2.48,16.68-.86,16.4-11.25,30.39-25.75,35.67-2.81,1.01-5.87,1.07-8.49,2.42-.91-5.39-.72-10.9.52-16.51l2.15-10.95c-10.73,1.91-16.02,14.43-14.78,25.39l-.91,1.18c-1.29-.62-2.77-1.29-3.82-.22v.06Z"/>
    <path class="st0" d="M33.38,289.02c-1.76-10.17,2.58-22.35,11.4-26.51,1.29-.62,5.15-2.36,5.29,0,.14,2.19-1.76,8.65-2.15,11.4-.72,5.22-1.19,10.67-1.57,16.01s0,10.78-.33,15.67c-.19,2.86-2.24,1.12-3.86-.22-4.96-4.32-7.77-10-8.87-16.29l.1-.06Z"/>
    <path class="st0" d="M88.7,186.57c-9.44,5.95-17.69,13.42-25.75,21.17-.62.62-1.62.84-2.24,1.46-1.62,1.63-2.62,4.72-5.15,5.62-9.16-19.66,15.78-41.39,33.14-28.25Z"/>
  </g>
  <g>
    <path class="st0" d="M296.66,234.65c1-4.55,2.15-9.1,4.01-13.26l.95-.39c1.48-2.13,3.82.9,2.62,2.92l.14,1.8c-3.2,5.39-4.67,12.41-3.1,18.7l9.82-10.17c.62-.34,1.29-.45,2-.39l1.67-.56c13.59,9.49,29.23,9.72,43.06.62,2.72-1.8,13.92-12.97,13.69-16.68-.33-4.44-15.88-18.25-19.93-18.98-.91-.84-.91-1.57.24-2.08-1.19-.73.29-3.76.91-4.89,6.63-12.19,16.02-20.84,28.47-23.76,23.27-5.5,47.74,13.42,49.5,41.34.43,12.75-.86,23.2-7.34,33.81.48,1.24.1,2.36-1.14,3.37,5.58,6.96,8.3,15.67,9.16,24.94.1,1.97.1,3.99.05,5.9-4.82,50.27-65.28,57.51-80.83,10.78-22.17,9.04-46.07-5.45-53.17-31.12-1.72-8.09-1.62-13.59-.76-21.9h0Z"/>
    <path class="st0" d="M431.43,276.89c-.52,26.12-16.4,47.4-39.87,48.42-6.72.28-13.07-2.02-19.36-4.49,3.96,11.57,11.35,26.29,5.44,38.59-2.86,6.01-9.25,9.83-15.02,10.56-17.74,2.36-67-6.74-69.96-32.63-2-17.69,11.21-27.47,22.89-34.94,4.77-3.03,10.59-3.71,12.06-11.01-15.07-4.32-26.56-17.58-30.23-34.88.52-1.52.76.62.91,1.07,8.97,24.99,29.76,36.96,52.65,29.15,3.53,8.26,7.34,15.39,13.69,21.06,21.94,19.71,54.17,9.49,64.09-20.28,1.14-3.48,1.72-7.13,2.72-10.67v.06Z"/>
    <path class="st0" d="M430.66,208.82c-2.19-12.58-7.3-23.7-16.36-31.4-20.41-17.41-47.26-10.62-60.42,13.76-.57,1.07-1.67,4.49-2.1,4.94.38,1.18-.24,1.8-1.76,1.74-.19,2.36-1.67,2.86-3.48,2.36-16.21-5.28-34.14,3.54-43.25,19.88l-1.67.84c-2.15,4.32-3.43,9.04-5.01,13.65,3-28.87,28.56-46.56,52.6-38.7,8.63-37.86,51.55-48.7,72.77-17.36,6.29,9.27,8.25,18.7,8.63,30.27h.05Z"/>
    <path class="st0" d="M423.32,242.63c5.91,8.14,7.63,18.03,8.01,28.31-1.86-9.1-4.96-18.14-10.54-25.05.91-1.07,1.76-2.08,2.53-3.26h0Z"/>
    <path class="st0" d="M301.62,220.95c7.39-14.88,22.56-24.38,37.58-23.53,2.1.11,7.96,2.08,9.2,1.68.72-.22.43-1.91.95-2.3.43-.34,1.81-.11,2.48-.73-.14,1.29.67,1.24,1.38,1.68,3.82,2.36,7.15,4.1,10.59,7.36,1.81,1.74,8.35,9.66,8.77,11.91.52,2.64-7.34,11.96-9.3,13.87-11.54,11.23-28.37,13.87-42.35,7.3-2.72-1.29-4.96-3.43-7.77-4.32,2.96-4.55,6.72-8.37,11.35-11.57l8.82-6.4c-9.06-6.29-21.22-1.07-27.61,7.75l-1.43.22c-.52-1.35-1.14-2.92-2.62-2.92h-.05Z"/>
    <path class="st0" d="M304.24,223.87c5.53-8.59,16.74-14.27,25.89-11.01,1.34.45,5.25,2.02,3.86,3.82-1.34,1.68-7.01,5-9.11,6.68-4.01,3.26-7.96,6.85-11.78,10.45-3.82,3.59-7.15,7.81-10.68,11.06-2.05,1.91-2.38-.79-2.62-2.92-.72-6.68,1.05-12.81,4.43-18.09h0Z"/>
    <path class="st0" d="M412.45,189.49c-10.78-2.47-21.7-2.98-32.71-3.15-.86,0-1.72-.56-2.58-.56-2.29,0-5.05,1.52-7.44.39,6.44-20.78,39.01-18.59,42.73,3.37v-.06Z"/>
  </g>
</svg>