<?xml version="1.0" encoding="UTF-8"?>
<svg id="Ebene_1" xmlns="http://www.w3.org/2000/svg" version="1.1" viewBox="0 0 482.16 482.16">
  <!-- Generator: Adobe Illustrator 29.5.1, SVG Export Plug-In . SVG Version: 2.1.0 Build 141)  -->
  <defs>
    <style>
      .st0 {
        fill: #f0874b;
      }

      .st1 {
        fill: #524283;
      }

      .st2 {
        fill: #282d63;
      }

      .st3 {
        fill: #ec6d1b;
      }

      .st4 {
        fill: #ec6d1a;
      }

      .st5 {
        fill: #85be53;
      }

      .st6 {
        fill: #f5af89;
      }

      .st7 {
        fill: #f0864b;
      }

      .st8 {
        fill: #dbcfa0;
      }

      .st9 {
        fill: #272c63;
      }

      .st10 {
        fill: #aea5c7;
      }
    </style>
  </defs>
  <g>
    <path class="st9" d="M382.32,279.39c-2.59,17.14-24.9,17.57-28.46.67-2.21-.04-4.19.08-6.35-.58-.66-.2-2.74-1.38-3.09-1.31-.21.04-2.55,2.26-3.32,2.73-7.98,4.78-18.46.9-20.89-8.77-2.92.72-5.85.22-8.75-.28-3.71,9.87-15.76,12.55-23.04,5.33-3.24-3.21-5.24-8.56-4.53-13.25-11.58-.27-18.46-13.29-12.31-24.14.5-.89,2.18-2.5,2.02-3.38-.09-.49-3.04-4.25-3.62-4.97-3.29-4.18-11.55-11.84-11.8-17.28-.15-3.12,2.09-5.6,4.43-7.05,16.23-10.06,12.6,17.91,15.43,26.86,1.51-.89,3.28-1.09,4.98-1.26,1.06-.22,1.32.89.29.32-8.1,2.81-11.29,14.62-3.98,20.36,8.31,6.52,19.33-2.12,16.18-12.8l.69-.3c1.61,2.91,2.4,6.43,2.34,9.78.22.13.56.34.52.54-.34,1.97-2.19,6-3.3,7.64l-.74.02.11.82c-1.51,1.69-3.33,3.06-5.3,4.03,2.66,16.45,24.53,10.6,19.97-5.31.82-1.82,1.93.03,2.3,1.31.77,4.03,1.74,5.23,5.71,5.7,7.11.85,12.07-4.4,12.14-11.95l.53-.6c2.37-.86,4.65-.6,7.03,0l-.05.36c-2.07.21-3.94.83-5.63,1.84-.1,5.25-.77,10.63-4.9,14.18,5.37,11.57,20.54,7.29,20.2-5.61,1.58-1.98,1.89,2.15,1.76,3.54-.57,3.84-.63,5.95,3.28,6.94,6.13,1.56,11.34-.84,13.33-7.5,2.46-1.04.46,4.31-.05,5.5-.92,2.15-2.13,3.68-3.77,5.19,1.07,11.33,15.32,13.37,19.84,3.06l.81-.4Z"/>
    <path class="st1" d="M360.34,251.96c.29.21.61.4.88.63.01.93-.82,1.14-2.51.64-11.16,3.56,1.09,18.05,5.22,6.16,0-2.94.41-3.43,1.61-.44.32.79.49,1.64.65,2.47.1.01.2-.01.29,0,.61.31.81,1.12.59,2.41,3.22-1.06,6.31-1.38,9.38.42.42.31.78.59,1.17.95-.51.74-1.51.93-2.99.59-10.03,3.54.49,17.03,5.51,6.77.19-2.08.66-4.81,1.75-1.22.55,1.53.97,3.6.71,5.2.04,1.12.12,1.8-.29,2.84-3.48,8.82-14.03,10.68-19.46,2.81-.72-1.04-2.26-4.53-1.79-5.64.23-.54,1.71-1.71,2.2-2.38,1.56-2.14,2.79-5.3,2.93-8.03-.53.34-.5,1.43-.82,2.1-2.69,5.64-8.87,7.98-14.31,5.52-1.49-.67-3.09-1.52-3.05-3.37.07-2.58.77-5.06-.28-7.72l-.37,3.86c-2.25,11.51-16.98,13-20.97,2.02,2.38-2.51,4.26-5.9,4.6-9.54.34-3.58-1.24-5.34,3.01-6.22,1.22-.25,2.43.03,3.47-.52.33.08.6.23.88.32-.06.81-.83,1.2-2.31,1.19-3.2,1.33-3.72,6.36-1.28,8.76,4.77,4.7,11.06-2.75,6.97-7.62l.13-.76c.22-1.23,1.33-.17,1.96.44l1.85,1.96c2.87-5.53,9.52-7.52,14.65-4.6Z"/>
    <path class="st1" d="M320.5,242.18c.21.69-.34,1.1-1.64,1.23-9.25,7.09,6.41,16.69,6.89,3.93-.62-2.73-.48-3.33,1.61-1.22.67.67,1.22,1.5,1.64,2.37.45.74,1.36,2.94,1.47,3.78.61,4.89-2.56,10.75-6.95,12.54-2.89,1.18-8.26,1.04-10.61-1.36-.89-.91-1-5.11-2.65-6.13,5.2,17.39-18.78,23.33-21.06,5.41,1.99-.88,4.45-2.7,5.82-4.46l.73.14c3.69,6.93,12.81-.16,7.94-6.19-1.14-.43-1.58-1.88-.17-1.53.18-.23.4-.39.67-.45.6-.12,2.99,1.82,3.57,2.38.89-6.37,6.31-12.48,12.76-10.44Z"/>
    <path class="st1" d="M283.28,233.03l.14.71c-3.79,1.77-3.53,8.62.42,9.86,5.62,1.76,9.07-5.27,4.76-9.34-.08-.39.05-.64.39-.77.31-.12,3.69,2.19,4.26,2.7,1.12,1.23,2.11,2.61,2.93,4.1-.39.75.25,1.7.3,2.67,1.05,18.06-23.62,17.31-21.66-.58.49-4.46,4.36-8.69,8.47-9.34Z"/>
    <path class="st10" d="M293.25,236.19l-4.39-2.52c4.77,4.35,1.5,12.02-4.77,10.65-4.02-.88-5.26-6.93-2.41-10.02.42-.45,1.09-.72,1.61-1.26.02-.02.34.04.29-.31h-.59c4.06-.4,7.26.19,10.26,3.47Z"/>
    <path class="st10" d="M328.99,248.49c-.71-1.17-2.23-2.52-3.22-3.47,1.28,3.13.54,7.35-2.64,8.67-7,2.92-10.93-7.82-4.31-10.95.57-.27,1.31-.05,1.68-.56-.26-.09-.25-.19,0-.32,3.28.87,7.34,2.92,8.5,6.62Z"/>
    <path class="st10" d="M377.63,265.2c3.19,2.83,4.77,5.09,5.24,9.66.05.52.24,1.37-.26,1.69-.09-2.49-.77-4.61-1.47-6.94l-.36,2.92c-2.36,7.39-12.23,4.77-10.64-3.26.32-1.64,2.28-3.8,3.84-4.06,1.2-.2,2.47.19,3.64-.02Z"/>
    <path class="st10" d="M361.22,252.59c2.49,2.12,5.11,5.19,4.98,8.83l-1.76-4.41c1.09,5.46-4.15,9.6-8.48,6.44-4.17-3.04-2.38-10.32,2.5-10.84,1.03-.11,1.96.58,2.75-.02Z"/>
    <path class="st10" d="M341.3,253.53c.69-.52.92-.18.59.63,4.99,5.11-1.56,14.04-7.33,8.99-3.06-2.67-2.27-8.85,1.52-10.05.8-.25,1.69,0,2.29-.53.63.19,2.51.7,2.93.95Z"/>
    <path class="st10" d="M303.5,250.38c.25.1.25.21,0,.32-.01.04-.49.34-.28.61.04.06.59.13.87.48,5.63,7.02-5.29,14.9-9.09,6.48.98-1.25,3.49-6.79,3.52-8.2l4.98.32Z"/>
    <path class="st9" d="M360.34,251.96l-3.36-.64c-4.46-.56-9.02,1.57-11,6-.63.46-2.88-3.42-4.1-3.15-.15-.16-.55-.61-.59-.63,5.68-5.45,12.71-6.27,19.05-1.58Z"/>
    <path class="st9" d="M320.5,241.86v.32c-6.52-.89-12.37,4.97-12.02,11.98-1.48-1.4-2.97-2.96-4.98-3.47.03-.1-.03-.23,0-.32,2.72-7.11,10.27-10.31,16.99-8.52Z"/>
    <path class="st2" d="M376.46,264.26l-3.37-.63c-2.4-.25-4.4.3-6.59,1.26v-3.47c1.03.15,2.28-.11,3.36,0,2.67.3,4.46,1.24,6.6,2.83Z"/>
  </g>
  <g>
    <path class="st7" d="M184.75,243.57l.6,1.04c-1.95,4.91,1.05,9.63,6.25,9.35l.76.93,1.08.32,1.76,5.4c1.75-1,3.02-1.1,3.82-.3l1.19.82c.64,5.08,1.03,9.57,1.18,13.46.66.68.36.98-.48.49-.32,1.14-1.45,2.04-3.39,2.72l1.7,5.12-.68,1.02-.83.78c-3.64-.84-7.2,1.49-8.11,5.21l-1.05.41c-1.1.74-2.64.87-4.6.39,10.23,3.39,17.23,13.78,19.67,24.34,2.9,4.14,3.74,11.67,3.05,16.68l-.98.93-.95.62c-12.1-3.43-12.21,16.23.45,12.04l.97.63c.27,2.55-3.61,7.66-6.19,7.39l-1.08.33c-4.75-3.85-11.55.66-10.5,6.71l-.8.83c-.22-.06-3.43.93-4.5,1-2.25.15-4.54-.51-6.2-.51h-9.52c-.2,0-1.05.49-1.87.53-2.23.1-5.32.27-7.41-.53.05-.54.63-.32.6-.32-4.72-.79-7.51-1.42-11.65-4.15-2.44-1.61-6.51-4.39-6.55-7.34l.78-.95c13.86-2.2,2.61-20.86-5.92-9.43l-1.04.03c-.32-.11-.63-.24-.91-.42-2.4-1.56-4.3-14.48-3.89-17.74l.99-1.54.71-.99c6.69-.29,8.11-9.68,2.36-12.63l-.22-1.15c-.64-1.52-.28-3.23,1.08-5.15,3.88-5.64,7.5-11.42,10.86-17.35.43-2.14,1.21-3.84,2.33-5.08l.8-.94c8.93.12,8.66-14-.62-12.9l-.65-.93c-.44-.92-.04-1.44,1.18-1.55,1.63-9.03,7.89-17.43,17.37-18.14,5.71-.24,13.55-.73,19.03.49Z"/>
    <path class="st4" d="M143.83,264.75l.89.9-.18,9.48c.5.88,1.36,1.33,2.59,1.38l.52,1.05c-1.36,10.92-11.27,17.32-14.27,27.58-.75.87-4.01,1.07-4.76,0-1.09-.96-.91-2.53.53-4.73,4.15-5.65,7.89-11.45,11.23-17.41-9.25-14.98-32.82-10-36.31,7.94l-1.14.9.68,2.73c-.25,13.55,9.58,22.2,22.17,22.48,1.26.36,4.29,1.83,4.75,2.86-.28,6.71.82,13.7,3.81,19.7l.73.87c-.97,3.78,1.18,7.73,4.98,8.42l.48,1.05c4.69,6.04,12.06,10.28,19.51,11.33.11.85-1.37.49-1.9.49-15.11-.06-28.11-14.89-31.38-29.33-16.02.33-31.13-9.03-36.2-25.08-10.64-33.67,24.7-61.43,53.3-42.6Z"/>
    <path class="st4" d="M217.11,331.23l-.68-1.55c.67-4.03.83-8.14.39-12.2l.76-1.51.6-1.37c7.83-3.97,12.43-12.33,11.69-21.33l.56-2.41-1.17-.88c-2.92-11.99-15.33-18.36-26.54-14.79l-1.32-.59c-1.51.28-.8-.77-.96-1.69-.72-4.25-.21-8.41-1.42-12.59-.6-.47-.28-.64.95-.49,45.64-11.63,64.42,58.21,17.13,71.4Z"/>
    <path class="st5" d="M147.16,262.78c3.87-.43,8.04,1.13,8.58,5.65.67,5.66-2.42,9.65-8.1,9.12s-3.99-3.33-3.9-7.14c.04-1.91-.11-3.5.09-5.66.02-.16-.02-.33,0-.49.48-1.78,2.24-3.3,3.33-1.48Z"/>
    <path class="st6" d="M217.11,331.23c-1.9,9.27-8.42,19.89-15.7,25.61-1.19-.16-1.98-2.39-1.43-3.45,2.54-1.94,4.37-4.75,6.19-7.39-.4-1.15.24-2.56,1.93-4.24.19-1.46.65-2.51,1.4-3.14.3-5.2,1.07-8.22,6.8-8.22l.81.83Z"/>
    <path class="st5" d="M199.98,353.39c.77.75,1.5,2.33,1.43,3.45-2.4,1.89-9.78,5.67-12.62,5.43-.93-.08-1.11-.97-1.18-.99-1.93-7.64,6.98-13.17,12.37-7.88Z"/>
    <path class="st3" d="M165.72,243.08c-7.37,1.98-12.15,6.45-15.16,13.61-.73,1.73-.97,4.1-1.47,5.27-.3.7-1.59.02-1.92.81-1.46.16-2.19.51-3.33,1.48,1.53-13.21,9.14-20.65,21.89-21.17Z"/>
    <path class="st5" d="M196.17,253.42c.51,1.62-3.22,3.18-3.81,1.48-6.7.71-10.41-5.15-7.61-11.33,5.13,1.14,8.88,5.3,11.42,9.85Z"/>
    <path class="st6" d="M199.98,259.82c-.17.04-.54.37-.95.49-.81.24-4.51,1.73-4.76,1.48.05-2.46-1.31-4.59-1.91-6.9,1.57-.17,2.48-.74,3.81-1.48,1.01,1.81,1.41,3.05,2.23,4.83.38.83.33,1.65,1.58,1.57Z"/>
    <path class="st5" d="M128.61,305.13c1.95-.25,2.43-.85,4.76,0,7.27,2.65,6.12,15.05-2.85,14.77-2.66-.08-3.02-1.28-5.04-1.92-2.7-.86-5.52-.47-8.54-1.51-9.77-3.37-15.72-14.28-14.02-24.64l1.35.38c5,7.82,14.13,13.93,23.43,12.19l.92.73Z"/>
    <path class="st8" d="M188.56,290.35c.96-.87,2.26-.8,3.9.23,2.6,1.05,7.83,3.83,7.99,6.66l1.07-.28c1.96,2.2,3.71,4.62,5.2,7.18l-.56.98c1.42.54,2.32,1.85,2.72,3.93,1.13,2.9,2.74,8.3,1.09,10.85l.97,1.43c.22,3.72-.49,10.66-3.35,12.85.7,1.29-1.24,4.78-2.49,4.46-1.45-.37-1-5.74.59-5.94.15-4.06.16-9.65-.97-13.52-.49-1.68-1.74-2.78-2.14-4.19-2.89-10.25-5.35-13.94-13.42-20.71-2.15-1.8-6.39-3.2-9.16-2.95,1.99-2.39,6.02-1.49,8.56-.98Z"/>
    <path class="st5" d="M181.73,303.33c5.97,5.8-1.06,16.88-9.04,12.06-9.34-5.64,1-19.87,9.04-12.06Z"/>
    <path class="st5" d="M160.36,247.63c8.77-1.54,12.33,9.98,5.38,13.94-10.43,5.95-15.79-12.11-5.38-13.94Z"/>
    <path class="st5" d="M182.25,321.5c1.89-.33,3.2-.26,4.91.59,7.86,3.92,3.4,17.23-5.85,13.93-6.84-2.44-6.08-13.29.94-14.52Z"/>
    <path class="st5" d="M169.88,342.67c12.01-2.31,12.02,15.63,1.35,15.11-8.33-.4-8.95-13.65-1.35-15.11Z"/>
    <path class="st5" d="M140.5,349.94c-4.93-.41-7.82-5.65-6.19-10.34.75-2.15,3.21-4.16,5.46-4.44,11.77-1.46,11.73,15.7.73,14.78Z"/>
    <path class="st5" d="M167.97,276.19c10.19-1.73,11.73,14.08,2.21,15.11-9.56,1.04-11.24-13.58-2.21-15.11Z"/>
    <path class="st5" d="M157.98,320.02c8.76-1.88,12.71,9.35,5.82,13.9-4.98,3.29-11.33-.67-11.22-6.79.06-3.04,2.49-6.48,5.4-7.1Z"/>
    <path class="st5" d="M178.91,262.88c9.27-2.17,13.2,8.82,6.82,13.46-6.22,4.52-14.21-2.62-10.85-9.76.51-1.08,2.91-3.44,4.04-3.7Z"/>
    <path class="st5" d="M148.94,295.4c11.7-2.23,12.53,14.89,1.78,14.69-9.03-.17-8.93-13.33-1.78-14.69Z"/>
    <path class="st5" d="M205.69,332.7c-.07,1.82-.73,3.56-.47,5.41l2.37-3.94c1.72-.24,2.8,2.93,1.9,4.43.38,3.77-1.6,4.88-3.33,7.39-3.39,1.65-7.48,1.46-9.92-1.8-4.96-6.64,2.48-15.34,9.45-11.5Z"/>
    <path class="st6" d="M200.93,275.09c.98,11.69,10.08,19.18,13.8,29.55,2.13-.11,2.73,4.67,0,3.94-1.07-1.45-2.56-2.46-4.26-2.87l-.51-1.07-1.27-.57c-1.38-3.34-2.93-6.67-5.36-9.34l-.04-1.41-.85-.7c.27-2.97-1.07-6.2-3.74-7.54l-.17-1.12c-.39-1.55-2.21-5.16-1.94-6.56.14-.69,3.51-1.97,4.31-2.31Z"/>
    <path class="st5" d="M198.55,283.95c3.49,1.15,5.47,5.81,4.76,9.36,1.24,1.4-1.24,4.97-2.85,3.94-3.06-3.09-7.7-6.05-11.9-6.89.77-4.83,5.48-7.89,9.99-6.4Z"/>
    <path class="st5" d="M217.59,315.96l-.75.1c-.9,2.33-4.9,5.94-6.86,3.84-.14-4.97-1.53-10.36-3.81-14.77.18-1.6,3.14-2.01,3.81-.49,1.95.16,4.56,1.67,5.47,3.45.79-.03-.57-3.06-.71-3.45,6.91-2.35,12.29-7.21,15.7-13.79,2.07,10.7-3.35,20.82-12.85,25.11Z"/>
    <path class="st0" d="M217.59,315.96c.74,4.8.5,10.51-.48,15.27-1.25.35-4.43.51-5.23,1.23-.92.83-.89,5.08-2.38,6.16-.15-1.53-1.38-3.01-1.9-4.43,1.89-4.64,2.52-9.26,2.38-14.28,4.22-.49,7.11-3.92,6.67-8.37l.95,4.43Z"/>
    <path class="st0" d="M209.97,304.63c-1.35-.11-2.5.34-3.81.49-1.16-2.25-3.94-6.09-5.71-7.88.92-.46,2.68-3.07,2.85-3.94,3.11,2.93,5.06,7.35,6.66,11.33Z"/>
  </g>
</svg>