<?xml version="1.0" encoding="UTF-8"?>
<svg id="Layer_1" xmlns="http://www.w3.org/2000/svg" version="1.1" viewBox="0 0 481.92 482.16">
  <!-- Generator: Adobe Illustrator 29.5.1, SVG Export Plug-In . SVG Version: 2.1.0 Build 141)  -->
  <defs>
    <style>
      .st0 {
        fill: #aab6da;
      }

      .st1 {
        fill: #4266a3;
      }

      .st2 {
        fill: #1b3d7b;
      }

      .st3 {
        fill: #8387b1;
      }

      .st4 {
        fill: #5b7eb8;
      }

      .st5 {
        fill: #8386b1;
      }

      .st6 {
        fill: #1c3e7b;
      }

      .st7 {
        fill: #7c96c4;
      }
    </style>
  </defs>
  <path class="st4" d="M230.11,141.38l1.3-.14c2.28,3.31,6.28,5.01,11.97,5.11,2.39,2.71,5.31,4.78,8.77,6.21,2.51,2.42,3.93,4.9,4.27,7.44,2.23,6.58,4.66,13.16,7.29,19.74,1.68,15.8-1.09,31.38-8.31,46.73-13.49,55.27-29.3,133.05,19.58,176.91,7.79,10.42,5.99,29.2-7.86,32.31-8.41,1-18.81-5.53-26.03-10.35-32.45-21.67-47.55-60.95-53.4-97.15-9.93-61.46,5.6-127.77,36.24-181.38-1.86-.4-3.24-.74-2.82-2.95,4.45-1.91,8.16,3.78,9-2.47Z"/>
  <path class="st1" d="M221.12,143.85c.99.76,5.02,1.47,5.3,1.99-25.48,44.11-39.83,95.18-39.7,146.29.13,54.69,19.63,124.99,80.4,143.56.47.72-.15,1.46-1.84,2.23-8.63,2.27-18.56,2.52-27.73,1.29-99.04-21.71-108.55-139.18-84.15-216.67,8.67-27.53,20.61-60,45.3-75.42,4.5-1.75,8.59-2.91,13.5-3.71l.63-1.89c2.75.43,4.96.05,7.48-.91.43.85.13,2.71.81,3.22Z"/>
  <path class="st2" d="M230.11,141.38l20.28-81.38c.04-1.49-4.24-4.31-5.56-6.17-10.72-15.06,10.12-32.22,24.67-17.85,8.58,8.48,1.41,25.33-10.95,24.71-6.25,19.45-9.57,39.96-15.38,59.65l-2.79,15.14,37.12-66.42c.46-1.5-6.07-8.28-4.37-15.36,5.9-24.56,44.6-5.11,26.32,14.33-5.9,6.28-12.95,3.06-14.72,4.19-2.84,1.82-10.31,20.25-13.55,24.17l5.37-4.73c28.88-11.36,33.22,34.2,2.43,27.22-.93,1.68-1.24,3.62-2.2,5.3-6.12,10.77-15.9,24.77-20.37,35.81-2.06-2.49-6.43-4.55-4.27-7.44-.79-.22-1.27-.67-1.38-1.42l19.54-35.87-2.47-8.35-22.27,39.39-2.19.04c-.71,4.01-12.51-1.35-13.13-2.19-.2-.28.44-2.05-.14-2.78Z"/>
  <path class="st6" d="M237.55,439.21c-103.51-13.84-110.46-145.73-85.87-220.56,7.75-23.59,22.4-61.96,47.02-71.52,1.83,1.47-1.13,2.2-1.97,2.72-23.49,14.49-41.28,67.84-47.11,94.01-15.95,71.51-1.87,170.64,83.68,193.26,1.37.36,3.99.04,4.25,2.09Z"/>
  <path class="st7" d="M265.28,437.92c.48-.83,1.02-1.69,1.84-2.23,8.58-5.57,12.39-13.62,9.8-23.92-2.24-8.9-8.22-11.52-13.76-17.63-34.38-37.91-22.87-119.94-10.78-164.09,5.06-18.5,15.09-34.69,8.23-54.34-2.08-5.97-6.77-9.3-4.18-15.71,21.59,26.03,7.03,46.07-.26,73.41-11.1,41.63-20.46,117.28,7.42,154.82,8.73,11.76,24.41,19.12,17.73,36.7-2.99,7.86-8.44,10.99-16.04,12.98Z"/>
  <path class="st2" d="M220.31,140.62c-.9,4.44-5.4,2.36-8.11,2.8l8.67-61.33c-1.71-3.25-4.6-4.35-6.48-7.92-7.18-13.64,7.58-27.25,21.17-19.94,9.57,5.15,10.81,17.04,3.49,24.28-3.32,3.28-9.76,3.07-10.91,6.07l-7.83,56.04Z"/>
  <path class="st0" d="M240.15,408.04c-20.76-20.2-33.84-47.8-39.78-75.35-8.81-40.88-2.17-82.99,10.77-121.95,3.97-11.94,10.04-23.46,12.45-35.78,1.7,1.83.97,5.58.78,7.88-1.36,16.14-7.22,33.94-10.11,50.15-10.8,60.6-8.25,120.67,25.89,175.05Z"/>
  <path class="st5" d="M296.22,50.42c10.93,2.06.86,18.71-6.03,8.76-3.28-4.74,1.04-9.7,6.03-8.76Z"/>
  <path class="st5" d="M265.26,38.82c8.47,1.61,5.1,13.88-2.62,11.52-7.16-2.19-4.39-12.85,2.62-11.52Z"/>
  <path class="st3" d="M292.17,101.54c7.57.6,7.59,10.25,1.91,11.66-8.8,2.19-10.03-12.3-1.91-11.66Z"/>
  <path class="st3" d="M233.34,61.96c11.16.85,7.24,15.51-2.09,10.67-5.73-2.97-1.74-10.97,2.09-10.67Z"/>
</svg>