<?xml version="1.0" encoding="UTF-8"?>
<svg id="Layer_1" xmlns="http://www.w3.org/2000/svg" version="1.1" viewBox="0 0 482.16 482.16">
  <!-- Generator: Adobe Illustrator 29.5.1, SVG Export Plug-In . SVG Version: 2.1.0 Build 141)  -->
  <defs>
    <style>
      .st0 {
        fill: #2da9e0;
      }

      .st1 {
        fill: #bdbcbc;
      }

      .st2 {
        fill: #de7983;
      }

      .st3 {
        fill: #da4f57;
      }

      .st4 {
        fill: #34a3d8;
      }

      .st5 {
        fill: #575656;
      }

      .st6 {
        fill: #e20613;
      }
    </style>
  </defs>
  <path class="st0" d="M158.12,203.45c.94.66,1.39,1.87,1.35,3.65,1.41,3.01,1.52,5.22.33,6.64l.95,2.03c-10.79,52.77,23.05,105.49,72.25,114.38,43.06,7.78,81.94-20.53,99.34-62.4l2.02-1.98c12.11,4.25,24.26,8.49,36.37,12.71.06.58.1,1.15.06,1.72s-.09,1.09-.29,1.54c-22.35,49.91-71.95,87.79-124.06,86.47-70.04-1.78-116.17-66.15-118.7-138.36-.24-6.87-.22-29.22,2.51-34.07.28-.5.63-.95.99-1.39,8.93,3.08,17.91,6.07,26.86,9.08Z"/>
  <path class="st3" d="M131.26,194.37c-12.07,69.52,20.12,147.46,85.74,167.76,63.52,19.65,126.58-22.31,153.74-83.66,4.82,1.68,9.72,3.12,14.55,4.84.13.53.23,1.07.26,1.61.25,5.13-10.44,24.31-13.7,29.64-29.53,48.3-77.2,81.35-132.03,77.05-14.7-.56-28.22-3.73-41.96-9.08-64.57-25.93-97.98-96.32-86.78-169.16.74-4.81,3.15-19.84,5.61-22.77.34-.4.74-.75,1.15-1.08,4.5,1.52,8.94,3.29,13.43,4.84Z"/>
  <path class="st4" d="M324.3,262.13c.07.47.12.95.1,1.42-.32,6.11-18.12,25.26-23.23,29.77-57.35,50.61-128.33,9.25-127.62-68.22-.35-4.14.29-7.72,1.92-10.76-.92-1.49,1.28-4.31,2.8-3.63,48.78,16.78,97.35,34.36,146.04,51.43Z"/>
  <path class="st6" d="M175.46,214.34c-5.13,40.11,13.85,83.87,50.92,96.5,38.76,13.2,78.82-12.89,97.91-48.7,3.08,1.08,7,2.55,10.07,3.63-11.52,29.42-34.38,54.34-63.23,63.23-55.85,17.2-111.6-28.65-113.58-90.76-.28-8.73,1.63-16.16,2.23-24.5.03-1.83.86-1.67,2.23-1.06,3.43,3.11,8.16,3.92,12.06,1.25l1.37.42Z"/>
  <path class="st5" d="M158.12,203.45c.29-4.3,1.94-6.9,5.41-8.98,1.38-.83,2.91-.16,2.43-2.17l-20.07-100.98c.87-1.61,2.52-1.94,3.84-.71,7.39,33.57,14.3,67.47,20.71,101.35,1.09-.25.98-1.21,1.12-2.11,4.66-31.11,7.82-62.52,12.44-93.64.89-2.65,4.73-2.32,4.74.95l-13.29,97.56c-.08,2.02,1.88,2.72,2.74,4.29,1.72,3.13,1.71,8.53.08,11.71-.23.44-2.47,3.35-2.8,3.63-3.25,2.75-7.29,3-11.08,1.4-1.72-.73-2.91-2.97-4.58-2,.24-3.28-2.03-5.11-1.68-10.29Z"/>
  <path class="st6" d="M117.83,189.53c-1.36,4-2.5,8.18-3.43,12.32-16.9,75.29,15.93,152.62,83.86,179.94l-.42.74c-9.41-3.66-18.3-7.98-26.81-13.66-56.88-38-82.4-113.02-62.15-182.37,3,.94,5.97,2.02,8.95,3.03Z"/>
  <path class="st2" d="M385.28,283.31c2.01.71,4.62,1.27,6.72,1.82-15.64,55.98-63.46,96.05-116.26,105.1-11.21,1.92-21.52,2.13-32.86,2-.95-.01-2.49.39-3.07-.62,53.88,2.05,101.36-28.79,130.38-76.53,5.96-9.81,11.51-20.69,15.1-31.78Z"/>
  <path class="st1" d="M173.79,208.89l1.39-10.88c3.7,2.67,3.33,10.34-1.39,10.88Z"/>
</svg>