<?xml version="1.0" encoding="UTF-8"?>
<svg id="Ebene_1" xmlns="http://www.w3.org/2000/svg" version="1.1" viewBox="0 0 1024 1024">
  <!-- Generator: Adobe Illustrator 29.5.1, SVG Export Plug-In . SVG Version: 2.1.0 Build 141)  -->
  <defs>
    <style>
      .st0 {
        fill: #e76951;
      }

      .st1 {
        fill: #9ccbc7;
      }

      .st2 {
        fill: #f3cfc9;
      }

      .st3 {
        fill: #f8e1dd;
      }

      .st4 {
        fill: #85cfed;
      }

      .st5 {
        fill: #da9034;
      }

      .st6 {
        fill: #818080;
      }

      .st7 {
        fill: #727271;
      }

      .st8 {
        fill: #2da9e0;
      }

      .st9 {
        fill: #62b9b6;
      }

      .st10 {
        fill: #40403f;
      }

      .st11 {
        fill: #f7c963;
      }

      .st12 {
        fill: #b5d9d8;
      }

      .st13 {
        fill: #272726;
      }

      .st14 {
        fill: #c4e5f6;
      }

      .st15 {
        fill: #fbfbfb;
      }

      .st16 {
        fill: #fbd641;
      }

      .st17 {
        fill: #90908f;
      }

      .st18 {
        fill: #bb6523;
      }

      .st19 {
        fill: #f8e2de;
      }

      .st20 {
        fill: #e76a52;
      }

      .st21 {
        fill: #f3baa9;
      }

      .st22 {
        fill: #fbd741;
      }

      .st23 {
        fill: #feec00;
      }

      .st24 {
        fill: #e87a65;
      }

      .st25 {
        fill: #f3beb0;
      }

      .st26 {
        fill: #12a099;
      }

      .st27 {
        fill: #565655;
      }

      .st28 {
        fill: #bebdbd;
      }

      .st29 {
        fill: #dcdcdc;
      }

      .st30 {
        fill: #3c3c3b;
      }

      .st31 {
        fill: #e88673;
      }

      .st32 {
        fill: #fcd69c;
      }

      .st33 {
        fill: #fcdb9f;
      }

      .st34 {
        fill: #f8b23c;
      }

      .st35 {
        fill: #767575;
      }

      .st36 {
        fill: #a4a3a3;
      }

      .st37 {
        fill: #feec01;
      }
    </style>
  </defs>
  <g>
    <path class="st4" d="M735.56,581.44l1.91-.36c29.67,57.64,59.35,115.31,89.05,173l-.38,3.34-275.4.98,89.66-176.96,4.02-.15c27.46,12.89,59.65,12.75,87.13-.02l4.01.17h0Z"/>
    <path class="st34" d="M765.76,557.59c-1.7,1.75-4.06,4.67-5.49,5.96l-.1,2.66c-7.03,6.02-14.44,11.6-22.33,16.22l-2.27-.98c-28.58,15.15-66.59,15.32-95.16,0-86.44-46.37-75.14-188.93,16.47-216.74,106.69-36.71,186.63,107.03,108.88,192.88Z"/>
    <path class="st8" d="M826.14,757.42l-90.58-175.98c7.4-3.91,18.31-12.13,24.71-17.9l92.06,141.16c.84,2.7-1.15,5.22-2.23,7.65-6.72,15.12-17.21,29.75-23.94,45.07h0Z"/>
    <path class="st33" d="M765.76,557.59l14.11-20.96c49.34-91.81-28.33-200.67-122.99-171.92,51.03-21.72,110.84,7.25,132.83,60.97,18.73,45.76,9.23,97.64-23.94,131.9h0Z"/>
    <path class="st14" d="M802.31,743.46c-4.04.25-11.7,8.79-14.52,4.41l-41.25-120.69,55.77,116.28Z"/>
    <path class="st5" d="M725.5,426.35h-3.25c-41.6-29.39-93.94,12.43-81.85,63.63l2.09.87c3.37,10.76,9.97,20.36,18.03,27.51v2.44c42.05,31.65,97.81-12.85,81.41-66.48l.94-3.12c15.94,35.62-5.23,80.19-40.24,89-47.89,12.05-88.03-36.8-70.9-87,13.92-40.83,63.38-56.15,93.76-26.86h0Z"/>
    <path class="st18" d="M725.5,426.35c6.54,5.08,14.58,16.64,17.38,24.86,14.48,42.43-15.39,85.92-57.08,81.4-8.23-.89-19.48-5.18-25.27-11.81l3.07-.24c12.81,8.25,28.84,9.08,42.43,2.57l2.99.66c36.73-26.96,33.69-78.89-8.23-97.43l-2.63,1.35c-33.29-8.33-62.81,23.16-56.42,59.47l-1.35,2.81c-8.08-24.09,2.87-52.21,22.21-65.84,19.19-13.53,44.35-12.19,62.88,2.22v-.02Z"/>
    <path class="st32" d="M779.46,480.03l-8.71-25.81c-14.46-36.81-37.54-56.5-68.16-76.11-1.18-.76-2.3.18-1.8-2.47,47.89-1.08,90.52,52.81,78.67,104.39h0Z"/>
    <path class="st10" d="M700.79,426.35c36.91,18.49,39.58,71.81,8.23,97.43-15.19,8.38-34.13,7.52-48.49-2.99-7.99-5.84-18.03-20.63-20.13-30.82-8.25-40.21,23.81-74.11,60.39-63.63h0Z"/>
    <path class="st13" d="M709.02,523.78c-1.83-.42.96-2.52,1.37-2.99,18.37-19.87,25.19-45.84,11.26-71.89-5.47-10.22-12.86-15.23-20.86-22.57,43.42,12.45,48.49,75.21,8.23,97.43h0Z"/>
    <path class="st6" d="M674.03,446.5c31.86-4.55,45.11,43.62,16.98,59.21-39.68,21.99-60.39-53.01-16.98-59.21Z"/>
    <path class="st30" d="M659.03,498.57c-26.55-28.86,17.38-72.51,40.84-37.92,18.87,27.8-17.32,63.5-40.84,37.92h0Z"/>
    <path class="st27" d="M674.03,452.46c31.73-4.88,35.93,45.13,8.7,50.2-32.47,6.05-37.71-45.74-8.7-50.2Z"/>
    <path class="st35" d="M685.24,457.17c.38.1,2.89,1.57,3.66,1.98,2.25,1.49,4.04,3.57,5.49,5.96.82,1.54,2.19,4.4,2.75,5.96,8.22,35.17-43.53,38.89-38.86,2.49.33-2.61,1.72-7.1,4.09-7.47l.92,2.18c-7.48,14.38,7.25,33.59,21.46,25.8,24.08-13.21-1-49.52-20.33-27.55l-2.04-.44c-.42-.28-.74-.5-.71-.56,3.79-9,15.56-11.87,23.59-8.38h0Z"/>
    <path class="st7" d="M685.24,457.17c-7.6-2.06-15.48-.83-21.11,5.43-1.35,1.49-1.2,2.61-1.76,3.52-1.68,2.74-3.03,3.18-3.57,7.54-4.27,34.53,44.42,32.84,38.35-2.57,8.32,23.36-21.6,39.83-35.25,20.9-12.86-17.84,3.76-44.45,23.35-34.82Z"/>
    <path class="st7" d="M694.39,465.12l-5.49-5.96c4.13,2.25,3.34,1.89,5.49,5.96Z"/>
    <path class="st17" d="M662.36,466.11c1.39-2.29,8.06-7.19,10.74-7.73,22.13-4.43,31.55,24.77,14.27,36.39-17.1,11.5-35.15-11.96-25.01-28.67Z"/>
    <path class="st36" d="M674.01,460.39c18.82-3.78,27.6,21.39,12.99,32.01-14.23,10.34-31.72-7.35-23-24,1.82-3.47,6.37-7.27,10-8Z"/>
    <path class="st28" d="M674.93,462.38c5.76-1.01,10.83.69,14.34,5.82,10.35,15.14-7.28,32.99-20.52,21.3-9.14-8.06-5.18-25.13,6.18-27.12h0Z"/>
    <path class="st29" d="M674.91,466.33c9.93-2.49,17.95,9.23,11.29,18.22-8.31,11.19-23.39-.15-17.6-12.17,1.1-2.29,3.97-5.46,6.31-6.05h0Z"/>
    <path class="st15" d="M677.69,470.29c8.31-.78,9.23,14.11.62,14.72-8.27.58-9.55-13.88-.62-14.72Z"/>
  </g>
  <g>
    <path class="st24" d="M407.15,477.6c5.01,1.02,10.23,2.62,14.67,5.08.66.36.91,1.04.95,1.77,1.01,1.62-1.75,3.63-3.25,2.49l-1.34.63c-6.4-3.99-13.82-6.39-21.58-4.42,4.08,4.14,7.88,8.5,11.43,13.09l.42,2.53-.19,2.33c-9.99,13.59-10.34,32.01-3.38,46.8,2.04,4.91-2.38,8.69-6.88,5.17-13.33-10.6-31.38-12.98-47.88-8.64,6.42,14.35,18.06,26.2,34.36,30.2,1.78.41,2.06,1.95,1.74,3.45-3.23,12.76-1.97,23.37,3.45,35.81.9,2.08,9.62,14.13,11.17,14.29,2.27.25,10.81-12.95,11.51-14.38,6.21-12.73,6.57-25,2.96-38.53,13.07-6.54,25.7-14.58,30.96-28.45l1.87-1.4c1.18-1.52,5.01-.04,4.56,1.87,5.6.3,11.66,6.16,15.5,10.21,9.67,10.19,14.82,23.67,13.91,37.45-.35,5.26-1.23,13.13-5.32,16.49l.94,1.07c-1.67,3.48-3.62,6.86-5.81,10.07l-1.64.08.38,1.56c-9.49,10.79-21.81,17.44-36.83,18.37-3.87.11-8.73.44-12.36-.63-.44-1.02,3.68-.25,3.48-.29-10.96-1.99-14.99-3.83-23.71-9.96l-.6-1.57c-1.77.33-3.29.96-4.56,1.87-.8.75-1.81.62-3.04-.41-.91.76-1.61,1.18-2.82.41-1.46,3.35-7.24,6.13-10.92,7.54-4.73,1.81-10.75,2.72-15.76,2.42-.24-.3-.44-.6-.58-.93-1.12-2.84,7.02-4.03,9.09-4.05,6.73-2.97,13.12-6.52,19.2-10.65-10.75-13.41-15.08-31.79-10.41-48-12.34-1.55-21.76-10.77-29.18-19.91-2.46-3.03-7.99-11.57-3.73-14.21-1.35-1.11-1.11-1.4.65-1.24-.27-1.67.65-3.09,2.18-3.94,4.95-2.77,22.4-1.88,28.11-.58,7.29,1.65,12.93,4.46,19.16,7.96-5.64-15.66-4.14-33.48,4.78-47.75-3.08-4.83-6.13-9.3-11.32-12.15-3.58-5.5,2.92-8.86,6.71-9.1l1.15-.42c.1-1.73,3.84-2.25,4.56-.63.18.04,1.6.83,3.25,1.24h0Z"/>
    <path class="st24" d="M347.93,544.23c-1.52,3.94,1.63,8.73,3.88,12.15,6.56,9.99,17.93,18.82,29.96,21.47-3.66,17.37-.51,35.24,11.71,48.88.08.25-2.83,1.05-3.58,1.55-5.12,3.37-10.83,7.95-17.07,9.81-2.92.87-8.14-.14-9.27,3.89-.18.26-.61.47-1.3.63-3.74.03-6.89-.22-10.41-.63-.74-1.05,3.45-.6,3.25-.62-9.4-.82-14.72-2.84-22.29-8.42-33.23-24.5-25.83-74.08,12.7-89.16l2.44.43h0Z"/>
    <path class="st24" d="M399.33,476.98c.34,1.62-.78,1.29-1.81,1.67-2.44.9-5.71,1.44-5.71,4.87s3.36,3.38,4.56,4.7c1.12,1.25,2.8,3.1,3.87,4.39,1.24,1.49,2.57,4.29,4.07,5.85-9.57,15.38-11.06,34.22-3.68,50.73l-13.68-7.15c-4.6-1.43-9.82-3.04-14.64-3.43-3.87-.3-18.26-.24-21.1,1.58-.16.1-2.54,2.61-2.64,2.77-.73-.36-1.47-.82-1.86-1.55-1.92-3.65-2.29-13.03-2.04-17.33,1.29-22.7,17.34-39.84,38.39-45.89,2.97-.68,3.97-.91,7.16-1.24.68-2.33,8.4-2.23,9.11,0l-.02.02Z"/>
    <path class="st26" d="M275.68,622.05c2.29,1.32-1.05,3.68-2.61,1.87l-1.22.8c-3.08-2.02-6.22-2.79-9.41-2.3l5.18,6.12-.41,1.61.28,1.98c-7.25,12.21-3.33,26.19,8.25,34.29l-.08,1.71c-24.7,12.78-50.57-12.98-36.96-36.3,7.33-12.58,23.94-16.6,36.96-9.77h0Z"/>
    <path class="st26" d="M511.27,488.18c2.28,1.35-1.12,3.69-2.61,1.87l-1.24.78c-3.87-2.31-14.34-4.94-5.96,1.52,1.68,1.34,2.13,2.66,1.35,3.93l.27,1.98c-7.13,11.73-3.41,25.97,7.68,34.09l.5,1.91c-10.52,5.39-22.06,4.49-31.24-3.11l-1.57.32c-2.35-1.78-8.11-8.41-6.24-10.9-8.33-23.02,16.31-43.88,39.05-32.38h0Z"/>
    <path class="st26" d="M536,622.05c1.13,1.51-1.24,3.04-2.61,1.87-2.01.29-4.27-.2-6.79-1.48-5.53-1.47-5.13.39,1.17,5.57l-.24,1.51c1.71.35,1.64.75,0,1.24l.24,1.81c-7.71,11.17-3.04,26.19,7.83,33.79l.39,1.76c-22.23,11.25-47.21-8.47-39.7-31.14-1.6-2.33,3.38-9.39,5.37-11.19l1.78-.02c8.54-7.88,22.3-8.92,32.54-3.74h0Z"/>
    <path class="st26" d="M403.89,662.53c2.15.51,3.47,1.61,5.2,2.49,1.71,1.27-.29,2.76-1.95,1.87l-1.69.63c-2.89-1.67-5.9-2.48-9.03-2.42l4.73,6.58-.52,1.44.26,1.96c-7.22,12.08-3.24,26.42,8.35,34.35l-.14,1.67c-23.78,12.04-49.43-11.71-37.87-34.68,3.18-6.34,11.6-13.48,19-14.51l.55-1.32c4.22-.3,8.52-.11,12.7.58l.43,1.36h0Z"/>
    <path class="st26" d="M409.1,404.75c2.26,1.34-1,3.67-2.61,1.87l-1.19.81c-3.84-2.37-14.59-5.24-6.01,1.48,1.68,1.34,2.13,2.66,1.35,3.93l.27,1.98c-7.16,11.73-3.3,25.92,7.71,34.09l.49,1.91c-1.6.81-3.44,2.07-5.2,2.49l-.38,1.35c-4.08.67-8.27.85-12.4.61l-.89-1.34c-6.73-.94-15.14-7.65-18.33-13.28-13.12-23.17,12.68-48.16,37.2-35.91h0Z"/>
    <path class="st26" d="M299.11,488.81c1.15,1.59-1.87,3.08-3.25,1.87l-1.2.75c-4.27-1.48-14.54-5.02-5.94,1.53,1.62,1.45,2.05,2.77,1.29,3.93l.31,1.95c-7.03,11.79-3.51,26.48,8.2,34.15l.6,1.88c-19.98,9.9-42.51-3.68-41.03-25.25,1.32-19.19,23.53-29.79,41.03-20.83v.02Z"/>
    <path class="st0" d="M383.07,478.23c1.63.6-.72.94-1.14,1.07-27.57,8.98-42.47,36.97-33.34,63.67-.1.17-.6,1.1-.65,1.24-30.82,10.75-44.14,44.9-28.1,72.65,7.04,12.18,20.84,22.03,35.25,24.5l-3.25.62c-13.73-1.56-27.26-8.04-35.8-18.68l-1.73-.14c-1.83-1.78-6.11-8.87-4.78-11.06-10.4-23.28-1.32-52.34,22.13-64.76l.28-1.54c3.49-1.59,7.22-2.66,10.93-3.65-.74-1.62-.58-2.79.5-3.53-6.03-28.28,10.5-53.72,39.7-60.4h0Z"/>
    <path class="st9" d="M282.84,626.42l1.52-.23c2.41,3.07,4.33,6.46,5.86,10.01l-.88,1.42c3.52,12.37-2.04,24.5-13.67,30.51-2.61-2.67-5.68-4.57-7.96-7.64-6.9-9.3-6.75-20.8-.5-30.34.19-.54.4-.53.65,0h1.33l8.37,11.11c2.95-5.23-.06-11.77-4.58-15.24l.09-1.46c-.56-.18-.55-.39,0-.63.46-.37,2.37-.37,2.61-1.87,1.83.96,5.83,3.05,7.16,4.36h0Z"/>
    <path class="st9" d="M311.48,521.81l.83,1.23c-2.08,3.44-4.45,6.67-7.15,9.7l-1.49-.34c-.31.25-3.85,2.14-4.56,2.49-13.85-8.26-17.86-24.66-9.11-37.98l1.96.33c3.23,3.43,5.98,7.16,8.26,11.19,3.53-5.32-.22-12.51-4.61-16.35l.26-1.4,3.25-1.87c11.73,6.01,17.06,21.14,12.36,33h0Z"/>
    <path class="st9" d="M511.27,534.26c-13.15-8.97-17.33-24.59-8.46-37.98.19-.54.4-.53.65,0l1.35.11,8.22,11.15c3.16-5.17.02-11.88-4.48-15.4l.11-1.45c-.56-.18-.55-.39,0-.63.46-.37,2.37-.37,2.61-1.87,19.36,9.8,19.47,36.1,0,46.07h0Z"/>
    <path class="st9" d="M409.1,450.83c-13.03-9.03-17.38-24.61-8.46-37.98.19-.54.4-.53.65,0l1.35.11,8.22,11.15c3.16-5.19.1-11.89-4.46-15.39l.09-1.46c-.56-.18-.55-.39,0-.63.46-.37,2.37-.37,2.61-1.87,19.33,9.66,19.51,36.17,0,46.07h0Z"/>
    <path class="st9" d="M409.1,711.1c-2.27-2.49-5.31-4.24-7.43-6.9-7.19-9.05-7.6-21.7-1.03-31.08.19-.54.4-.53.65,0l1.41-.25,8.33,11.39c2.72-5.53.08-11.58-4.48-15.41l.6-1.33c-.6-.21-.6-.41,0-.63.3-.66,1.65-1.02,1.95-1.87,19.5,9.9,19.33,36.29,0,46.07h0Z"/>
    <path class="st9" d="M536,668.14c-12.65-7.79-18.04-25.45-8.46-37.36.89-.84,1.84-.6,2.88.74l7.22,10.28c2.41-5.36.55-11.93-4.14-15.62l-.1-1.62c-.57-.18-.56-.38,0-.63l2.61-1.87c19.07,9.65,19.02,36.45,0,46.07h0Z"/>
    <path class="st19" d="M483.94,615.21c-.18.53-.4.52-.65,0-1.78,1.21-6.28-1.85-6.51-3.74,10.69-24.93-.14-51.27-24.08-64.13-2.63-1.5.36-3.3,2.61-2.49-.43-1.23.23-1.45,1.3-.63,3.54,2.86,7.93,4.56,11.66,7.22,16.16,11.5,23.58,31.2,19.94,50.1-.9,4.7-3.11,9.05-4.27,13.67h0Z"/>
    <path class="st23" d="M343.37,538.62c.32,1.48.68,2.96,1.3,4.35-3.83.97-9.64,2.58-13.02,4.36l-27.98-14.95c1.6-1.29,7.08-8.73,7.81-10.58l31.89,16.82h0Z"/>
    <path class="st23" d="M309.52,612.1c1.57,3.51,4.07,8.18,6.51,11.21l-26.69,14.32c-.76-2.66-4.56-9.28-6.51-11.21l26.69-14.32Z"/>
    <path class="st37" d="M397.38,633.26c1.69-1.51,6.79,2.33,6.51,4.36v24.91c-3.27-.77-10.37-1.08-13.67-.63v-24.91c.54-2.18,4.61-5.51,6.51-3.74.14-.58.36-.56.65,0h0Z"/>
    <path class="st23" d="M480.03,531.15l-23.42,13.08c-.42.23-.89.39-1.3.63-2.25.48-6.05.14-7.05-2-.25-.52,2.03-9.63,3.15-10.45-.81-.92-.44-1.27.65-.63,6.68-3.78,13.56-7.29,20.17-11.21,1.3,3.59,4.79,8.09,7.81,10.58h0Z"/>
    <path class="st37" d="M403.89,453.32v23.04c-.22-.05-2.96.73-4.56.63-4.05-.27-4.83-.46-9.11,0v-23.04c3.18.44,10.51.12,13.67-.63Z"/>
    <path class="st23" d="M503.46,625.79c-2.21,2.05-6.23,8.41-7.16,11.21l-20.17-11.21-.7-1.26c.49-.96,5.78-8.97,6.27-9.27.44-.28,1.06-.17,1.58-.06.16.09.49-.09.65,0,6.48,3.55,12.85,7.35,19.52,10.58h0Z"/>
    <path class="st2" d="M452.05,531.77c-.23.13-.41.49-.65.63-.03,1.91-2.32,3.18-3.91,1.87l-1.04-2.15c2.03-18.06-6.73-35.64-22.62-45.54l-1.06-2.11c-4.68-2.72-10.09-5.44-15.62-6.85,27.45,2.88,46.89,28.34,44.91,54.17h0Z"/>
    <path class="st19" d="M475.47,625.79c-11,12.15-25.28,16.32-41.65,16.82,6.68-1.67,13.16-2.95,19.31-6.12,5.42-2.8,13.5-9.09,17.13-13.8,2.32-.76,4.85.81,5.2,3.11Z"/>
    <path class="st22" d="M483.29,615.21l-7.16,10.58c-.16-.09-.49.09-.65,0-1.74-.97-3.47-2.11-5.2-3.11,1.88-2.43,5.3-8.38,6.51-11.21,2.42.82,4.33,2.55,6.51,3.74h0Z"/>
    <path class="st20" d="M400.63,630.15c3.12.89,9.37,6.13,13.53,7.92,3.56,1.53,7.31,2.76,11.2,3.3-.09,1.12-3.04.64-3.9.62-4.9-.15-13.17-2.33-17.58-4.36-1.52-.7-5.22-3.93-6.51-4.36-1.24-1.87,1.35-3.19,3.25-3.11h0Z"/>
    <path class="st3" d="M390.22,637c-9.75,4.44-17.25,5.52-27.98,5.61.16-.61.75-.58,1.3-.63,11.09-.74,17.77-4.23,26.69-9.96,2.22.5,1.55,3.8,0,4.98h0Z"/>
    <path class="st31" d="M447.49,534.26c.95,2.61.77,5.63-.54,9.06,1.01.48,1.59.91,1.2,2.15-4.81,14.51-17.65,24.36-31.84,30.25,5.3,15.59,2.62,32.62-7.31,45.92-1.1,1.47-6.49,7.91-8.02,7.91-2.51,0-11.28-12.72-12.61-15.35-3.64-7.22-5.66-16.86-5.31-24.86.09-2.08,2.48-12.68,1.92-13.31-16.48-3.69-30.89-16.65-35.78-32.05,14.09-5.35,31.37-3.03,44.25,4.33,1.88,1.07,6.99,5.57,8.49,4.97,4.56-1.86.84-6.14-.16-9.2-5.06-15.48-3.93-32.26,6.68-45.31l1.6.59c6.73,7.17,12.65,14.93,17.78,23.27,6.64-10.85,1.33-25.98-8.11-33.92l-.2-1.78,3.25-2.49c18.1,10.51,27.7,29.5,24.73,49.81h0Z"/>
    <path class="st25" d="M419.51,486.94c9.67,7.21,15.31,21.58,11.19,32.81-.32.89-2.49,5.97-3.69,4.54-5.12-9.22-11.84-17.38-18.55-25.52-4.6-5.57-8.87-11.28-14.31-16.18,5.63-1.98,11.97-1.76,17.56.31,1.6.59,6.57,3.1,7.82,4.03h0Z"/>
    <path class="st21" d="M455.96,620.18c3.6-17.12,4.94-34.87,4.24-52.31,16.36,4.97,19.63,26.97,12.6,40.09-3.03,5.66-9.7,12.37-16.84,12.21h0Z"/>
    <path class="st11" d="M451.4,532.4c1.02,1.76-2.29,10.14-1.96,10.58.18.24,5.02.91,5.86,1.88-1.14.64-3.01,1.34-2.61,2.49-1.51-.81-3.25-1.23-4.56-1.87-.43-.21-2.62-1.5-2.66-1.64.6-3.23,1.53-6.29,2.01-9.57,1.27-.67,2.67-1.18,3.91-1.87h0Z"/>
    <path class="st16" d="M396.08,632.02c1.75-.24,1.98.13.65,1.24-1.26.18-4.74,2.94-6.51,3.74v-4.98c2.88-1.85,2.29-2.47,5.86,0h0Z"/>
    <path class="st24" d="M400.63,630.15l-3.25,3.11c-.14-.05-.49-.03-.65,0-.25-.31-.42-1.08-.65-1.24-.5-2.97,2.31-2.51,4.56-1.87h0Z"/>
    <path class="st1" d="M273.08,623.92c-.11.08.11.53,0,.63.61,1.9-3.36,4.98-5.2,5.61h-.65c-2.05-2.79-4.21-5.91-7.15-7.78,4.04-3.3,9.04-.39,13.01,1.56h0Z"/>
    <path class="st1" d="M508.66,490.05c-.11.08.11.53,0,.63.91,1.72-3.41,4.96-5.2,5.61h-.65c-1.75-3.1-4.65-5.27-7.14-7.78,4.13-2.99,9.16-.41,13,1.56h0Z"/>
    <path class="st12" d="M533.4,624.55c4.92,3.18,7.23,8.98,6.45,14.58-.14,1.01-1.46,5.74-2.86,4.09-2.3-2.72-4.85-7.4-7.22-10.53-.6-.79-2.15-1.78-2.22-1.91-.13-.24.09-.88,0-1.24-.45-2.35,3.43-6.91,5.86-4.98h0Z"/>
    <path class="st1" d="M533.4,623.92v.63c-2.79.45-3.8,3.48-5.86,4.98-1.92-1.78-4.6-4.25-6.19-6.23-.5-.63-1.26-.8-.97-1.87,4.81-1.51,8.87.28,13.01,2.49h0Z"/>
    <path class="st1" d="M407.15,666.89c-.04.09-.04.53,0,.63-.4,1.9-3.91,4.93-5.86,5.61h-.65l-6.51-8.71c4.72-1.81,8.85.69,13.01,2.49h0Z"/>
    <path class="st1" d="M406.49,406.62c-.11.08.11.53,0,.63.91,1.72-3.41,4.96-5.2,5.61h-.65c-1.75-3.1-4.65-5.27-7.14-7.78,4-3.31,9.11-.35,13,1.56h0Z"/>
    <path class="st12" d="M295.86,490.68c5.57,3.94,10.52,15.01,3.91,19.92-2.08-5.16-6.18-9.43-9.77-13.69-.81-.96-1.38-2.12-2.27-3.12-.74-.83-4.87-4.33-4.87-4.66-.06-2.77,10.94.1,13,1.56h0Z"/>
    <path class="st12" d="M273.08,624.55c6.2,3.92,9.95,14.06,3.92,19.3-.28-3.34-8.98-11.68-9.12-13.69-.12-1.71,3.83-4.43,5.2-5.61Z"/>
    <path class="st12" d="M508.66,490.68c6.09,3.91,9.98,14.13,3.92,19.3-.32-3.28-9.12-11.77-9.12-13.69,0-1.82,3.76-4.37,5.2-5.61h0Z"/>
    <path class="st12" d="M406.49,407.25c6.2,3.92,9.95,14.06,3.92,19.3-.32-3.28-9.12-11.77-9.12-13.69,0-1.82,3.76-4.37,5.2-5.61h0Z"/>
    <path class="st12" d="M407.15,667.51c.32.72,3.34,3.21,4.27,4.95,2.44,4.58,3.04,9.78-.36,14.05l-9.77-13.4c-.09-1.43,4.09-5.34,5.86-5.61h0Z"/>
  </g>
</svg>