<?xml version="1.0" encoding="UTF-8"?>
<svg id="Ebene_1" xmlns="http://www.w3.org/2000/svg" version="1.1" viewBox="0 0 1024 1024">
  <!-- Generator: Adobe Illustrator 29.5.1, SVG Export Plug-In . SVG Version: 2.1.0 Build 141)  -->
  <defs>
    <style>
      .st0 {
        fill: #fced98;
      }

      .st1 {
        fill: #fae016;
      }

      .st2 {
        fill: #fbf09a;
      }

      .st3 {
        fill: #fef2bc;
      }

      .st4 {
        fill: #407f58;
      }

      .st5 {
        fill: #fef2bd;
      }

      .st6 {
        fill: #3e7f59;
      }

      .st7 {
        fill: #3e7e58;
      }

      .st8 {
        fill: #fcf1bc;
      }

      .st9 {
        fill: #fced99;
      }

      .st10 {
        fill: #3d7e58;
      }

      .st11 {
        fill: #3e7e57;
      }
    </style>
  </defs>
  <path class="st1" d="M328.58,239.76c27.09,1.99,52.02,15.28,61.19,42.61,9.09-3.9,15.82-4.07,20.16-.53,54.23-10.6,106.04-12.64,160.82-4.22,17.84,2.74,35.56,7.48,53.07,11.86,19.31-39.82,52.29-55.71,94.8-47.24,6.45,3.28,11.41,6.57,10.41,15.16-5.27,7.21-7.85,11.86,1.4,14.24,1.71,7.84,4.24,16.35,12.53,10.97,6.74,1.63,15.32,2.52,21.09-.75,7.9-3.74,17.84,17.16,9.58,21.04,7.92,2.31,7.36,33.17,0,37.13l4.05,4c-4.13,7.54-7.62,15.17-10.48,22.9,23.53,21.98,40.83,47.66,51.86,77.06,5.08-4.52,17.67-5.73,21.54,1.26h2.39c21.31,2.25,39.34,7.5,53.59,25.09,6.47,7.98,12.95,16.5,8.63,26.91,10.6,4.32,1.85,14.51-7.35,9.46-4.58,2.86-5.84,7.23-3.77,13.13-6.12,5.83-7.16,11.12,1.4,14.24,1.52,7.74,4.72,13.8,12.1,17.66,6.57,11.11-8.5,28.65-16.96,36.78-11.63,11.23-22.37,15.5-38.08,17.69-2.39.12-4.79-.09-7.17,0-7.23,4.75-15.75,6.24-25.58,4.56-13.74,28.97-31.48,54.62-53.19,76.92l10.77,21.23-3.79,5.02c7.95,2.38,7.33,33.31,0,37.13,8.71,6.69-7.28,32.2-16.75,30.94-5.77,5.09-8.42,3.81-13.33-2.23-6.48,2.81-12.2,1.8-13-6.33-18.69,2.13-23.82,7.93-26.02,27.97,7.38,5.9,8.07,10.16,2.09,12.76-25,1.31-53-8.39-69.34-28.54-5.27-6.52-8-15.82-12.01-20.97-11.62-5.66-22.2-7.09-31.7-4.3-2.28,5.68-5.27,9.59-8.99,11.74-19.34,3.64-37.81,6.53-57.43,7.43l-4.89-2.38c-2.66-18.08-25.07-16.84-28.35.34l-5.03,2.02c-25.95-.78-50.89-3.03-76.58-7.43-5.79,3.32-12.88,2.86-21.28-1.41-11.13,23.39-29.77,38.87-55.3,41.03-10.15.6-11.15,1.79-21.52,0l-1.8-2.91c-.47-7.69-1.52-17.32-3.16-28.92l-5.67.99c-7.33-8.11-12.6-9.25-15.87-3.4-10.34-.27-16.66-.41-13.29,12.59-2.87,7.42-7.83,7.25-12.83,1.89-14.52-24.48-25.01-34.91-23.41-67.31.48-9.82,11.03-31.23,10.89-32.98-.1-1.16-12.95-12.4-16.21-16.06l-2.49-5.17c9.78-20.62,1.04-35.99-21.16-26.4l-5.05-3.11c-3.98-6.09-15.54-33.24-17.13-34.26-3.08-1.99-28.23.39-36.13-1-28.63-5-44.84-28.88-54.42-53.89-1.88-9.19,5.79-8.68,12.72-4.29,5.7-2.13,12.71-1.62,18.69-.85l1.33-6.31c7.09-4.76,11.2-7.99,4.6-14.73,1.95-11.72,1.11-16.26-10.04-15.19-3.75-7.37-6.41-10.85-11.48-2.77-6.85,3.45-16.54.46-15.78-7.86,7.35-27.17,34.57-50.06,61.63-53.82,6.88-.97,25.86,1.38,27.02.66,1.62-.99,15.35-28.03,19.02-33.49l4.87-2.62c20.04,12.6,40.73-5.55,20.73-23.85l.73-5.72c3.01-3.52,15.94-17.2,16.39-19.07,1.09-4.42-8.47-27.91-8.99-37-1.66-28.31,11.05-41.34,23.7-62.77,3.91-4.88,6.97-2.94,8.14,3.25-1.09,1.67,4.62,11.35,5.88,12.64,6.57,6.72,28.35,10.21,28.68-2.89,4.2-1.63,7.12-5.04,8.75-10.21-5.95-5.29-7.95-25.28,3.58-25.06,3.98-.12,8-.09,11.96,0h.1l-.05-.03Z"/>
  <path class="st5" d="M845.43,606.17c-13.66,16.07-22.66,36.18-35.97,53.16-4.01,5.1-22.87,21.89-23.48,25.18-.54,2.89,9.51,20.51,11.01,27.46,7.4,34.19-5.58,74.61-37.72,89.78-17.44.75-18.98-19.56-2.39-19.82,5.2-6.87,16.75-22.18,16.75-30.94v-37.13c0-5.78-10.53-20.92-11.62-25.36-1.68-6.92,15.16-19.31,20.02-25.36,13.78-17.16,25.08-35.77,34.64-55.76,4.53-2.87,21.83-.97,28.75-1.19h-.02.02Z"/>
  <path class="st5" d="M780.83,269.48c24.01,27.66,22.28,66.58,5.13,97.42,21.59,23.29,41.95,48.58,54.69,78.35-8.42.03-15.49.68-23.72,2.31-6.57-18.08-17.75-35.25-28.97-50.54-5.03-6.86-22.61-23.17-25.2-28.58-2.78-5.82,10.89-22.27,10.89-28.41v-37.13c0-3.52-5.95-17.93-9.58-21.04-1.4-13.05,5.45-21.01,16.75-12.38h-.02.02Z"/>
  <path class="st7" d="M718.62,242.25c8.87,1.77,8.76,6.48,10.79-4.97l10.73,4.97,3.6-14.83c3.22,10.95,9.23,4.69,10.89,5.97,5.03,3.79-3.96,12.98,16.61,6.43l-2.4,9.87,7.17,1.24-7.12,7.43c4.05,4.13,8,6.62,11.91,11.14-10.25-.51-14.88,1.29-7.17,9.88-3.23.27-8.28-1.39-9.58,2.5-.76,2.28.54,6.99,0,9.88l-11.94-4.93-.03,9.88c-3.85.03-5.1-9.83-8.35-9.85-1.71,0-5.88,9.32-10.75,7.37l-.03-9.88-7.14,2.45,2.37-12.37-14.35-.03c.03-3.01,7.17-7.37,7.12-8.64-.12-2.74-7.95-2.3-7.12-6.16l11.94-2.52-7.17-14.83h.03Z"/>
  <path class="st11" d="M96.46,499.72c18.77,9.49,9.73,4.3,19.1-7.43,2.33,9.82,3.2,7.33,9.59,2.48l.03,12.37,16.73-4.92c-3.84,7.91-9.42,12.6,2.39,13.59l-7.16,8.64,11.91,6.21c-6.28,6.43-12.88-.02-7.14,11.12l-9.59.03,2.4,14.82-11.94-7.43-3.6,7.43c-6.26-13.91-6.38-2.43-15.58,2.5v-11.12l-7.21,3.71c-6.17-16.14-8.52-9.13-11.98-12.4-4.51-4.27,7.12-6.72,7.14-8.62,0-2.77-8.95-2.11-7.14-7.42.85-2.45,12.52,2.55,4.79-16.09,10.73,1.46,5.79-2.31,7.17-7.43v-.03h.07Z"/>
  <path class="st4" d="M706.66,814.13c.66-7.81-5.95-7.72-11.96-7.45l7.17-9.83-7.17-4.97c12.9-.43,10.04-6.04,4.77-14.87l9.58-.03-2.37-9.88c16.08,16.33,13.83-5.09,17.91-4.92,3.79.17.48,13.23,10.73,2.43l.03,12.37,16.73-4.92-3.61,7.4,8.38,2.48c-1.95,2.57-7.76,8.69-7.17,11.09s8.66,4.64,9.59,8.73c-7.45,3.52-11.72-1.04-7.17,9.88l-9.59.03,2.39,14.83-11.91-7.45-4.75,7.43c-3.09-14.12-6.83-1.51-14.38,2.5l-.03-12.38-9.52,4.95c-1.26-3.33,2.25-6.06,2.37-7.43h.02-.02Z"/>
  <path class="st4" d="M261.58,262.06c.09-.12-2.37-1.56-1.42-2.52,6.03-6.04,15.26,2.35,1.42-17.27l11.96,2.43-2.37-9.88,11.91,7.42,6.02-14.83c1.85-.78,1.75,12.81,10.73,2.45l.03,12.37c4.91.49,9.02-3.96,13.59-4.29,1.8-.14,2.96,1.82,3.15,1.82l-4.79,9.88,7.17,1.24-7.12,7.43,11.91,7.42c-2.9,6.33-16.77-.77-4.77,13.61l-11.96-2.43,2.39,14.82c-4.6,1.53-7.16-5.85-10.72-4.95-3.15.78-2.09,8.11-5.98,7.45-3.13-13.8-7.64-4.59-14.38,0l-.03-12.38-9.52,4.95,2.37-12.37-11.94-.03c-1.61-8.37,13.85-5.89,2.39-12.37l-.03.03h.02Z"/>
  <path class="st6" d="M261.58,791.86c15.47-.31,5.89-6.7,2.39-14.82,8.19.48,10.96,1.91,9.59-7.47l11.91,4.97,2.45-12.38c3.73-.12,3.91,6.53,5.03,7.31,2.45,1.67,7.9-8.3,9.33,7.55l14.33-4.93c-6.52,12.42,2.73,12.79,2.39,13.59-.71,1.72-5.51,3.88-4.79,7.37.92,4.47,11.6,4.05,11.98,8.69-3.15,1.22-8,1.34-10.67,2.52-2.87,1.26,4.01,6.65-1.26,7.42-2.21-.37-4.87.15-7.17,0l2.37,14.83c-8.5-4.22-11.67-10.07-13.12,2.45-3.35-3.71-3.15-10.05-9.58-7.4-3.72,1.53-1.54,9.58-8.38,7.37l-.03-12.37-7.14,2.45,2.37-9.87-11.96-.03c-1.12-5.17,4.77-6.4,4.86-11.11.02-1.8-3.51-1.04-4.05-2.02-1.14-2.06-.64-3.9-.8-4.18v.05l-.05.02Z"/>
  <path class="st10" d="M905.26,497.25c-.99-21.5,11.96-7.86,15.83,5.27,4.49-2.64,8-2.76,10.49-.31,1.11,1.17,8.26-3.5,2.35,8.62l7.24,1.29c-14,16.09-4.15,8.51,4.77,19.75l-11.96,2.53,4.77,7.37-11.96.03c2.33,4.85,2.92,9.44,2.39,14.82-6.41.71-15.85-2.3-21.52-4.95-3.82,2.04-5.84,5.78-9.54,7.43l-.03-12.38-7.14,2.45,2.37-12.37-14.35-.03c16.35-9.19-1.99-12.77,0-14.8l11.96-2.53-7.14-14.82c13.54,7.99,7.99-4.8,10.77-4.97l10.73,4.97c.41-2.26-.57-5.65,0-7.42h-.02l-.02.03Z"/>
  <path class="st8" d="M931.59,502.2c-18.7,15.87-15.7-8.96-22.75-12.37-1.07,1.77-3.04,5.73-3.58,7.42-8.07-30.11-34.87-44.94-62.21-52,38.88.2,63.18,6.77,84.17,42.9,1.97,3.39,3.85,13.51,4.37,14.05h0Z"/>
  <path class="st8" d="M929.2,556.67c-1.33,13.25-19.4,32.68-30.34,39.18-17.46,10.39-27.31,9.37-46.24,10.34,25.31-9.42,46.9-27.05,55.04-54.47,9.46-5.05,14.42-1.75,21.52,4.95h.02,0Z"/>
  <path class="st3" d="M409.95,281.87c-5.5,1.09-18.74,7.79-23.6,4.58-.64-.43-3.96-10.97-6.48-14.32-13.33-17.72-30.41-27.17-51.29-32.34,36.96.77,61.06,7.47,81.35,42.08h.02Z"/>
  <path class="st5" d="M412.34,772.04l-20.4,22.22c-20.19,17.42-31.95,16.01-56.18,17.4,23.49-7.94,41.76-22.54,52.52-45.93,2.64-1.65,19.86,5.58,24.06,6.31h0Z"/>
  <path class="st2" d="M204.17,413.07c8.59-12.81,16.87-21.13,26.33-32.18,28.87,22.03,1.54,52.27-26.33,32.18Z"/>
  <path class="st2" d="M232.87,675.51c-9.54-10.72-20.88-22.66-28.71-34.65,29.97-14.73,44.13,7.13,28.71,34.65h0Z"/>
  <path class="st0" d="M527.2,779.47c-12.36.58-25.88.37-38.27,0,1.73-26.94,38.24-27.23,38.27,0Z"/>
  <path class="st0" d="M584.61,772.04c-.14-17.9,14.38-23.42,29.01-16.3.86.41,11.22,8.3,11.65,8.86-13.79.83-27.14,4.9-40.69,7.43h.03Z"/>
  <path class="st0" d="M292.06,408.56c26.71-5.53,33.09,31.33,12.72,38.05-30.48,10.05-35.01-33.46-12.72-38.05Z"/>
  <path class="st0" d="M272.9,527.45c28.06-6.33,32.9,33.68,10.87,38.63-28.06,6.33-32.9-33.68-10.87-38.63Z"/>
  <path class="st0" d="M679.77,604.15c28.97-3.91,29.85,50.49-6.76,38.07-14.62-4.95-14.33-35.21,6.76-38.07Z"/>
  <path class="st0" d="M591.16,532.35c23.13-4.97,33.9,31.15,12.72,38.05-31.81,10.39-35.13-33.24-12.72-38.05Z"/>
  <path class="st9" d="M854.26,490.6c15.64,14.83-2.16,44.43-24.49,31.5-22.97-13.29,2.37-52.49,24.49-31.5Z"/>
  <path class="st0" d="M686.81,685.95c33.14-8.08,33.6,34.45,10.89,38.68-24.39,4.54-30.65-33.85-10.89-38.68Z"/>
  <path class="st0" d="M487.19,625.31c-20.35-21.09,17.17-50.18,30.56-25.41,12.46,23.07-15.51,41.03-30.56,25.41h0Z"/>
  <path class="st0" d="M317.29,355.44c-20.35-21.09,17.17-50.18,30.56-25.41,12.46,23.07-15.51,41.03-30.56,25.41Z"/>
  <path class="st0" d="M476.24,403.64c24.63-3.79,29.8,32.3,12.83,38.04-33.88,11.48-36.37-34.41-12.83-38.04Z"/>
  <path class="st0" d="M414.06,500.42c20.99,21.71-17.34,49.74-30.53,25.43-11.84-21.76,14.9-41.61,30.53-25.43Z"/>
  <path class="st0" d="M435.55,676.02c36.35-11.12,34.19,41.05,7.29,38.63-20.86-1.87-24.46-33.37-7.29-38.63Z"/>
  <path class="st0" d="M342.24,705.73c37.74-11.64,33.95,46.92,3.04,38.1-16.73-4.78-19.03-33.17-3.04-38.1Z"/>
  <path class="st9" d="M595.88,666.12c29.06-9.1,36.18,33.24,10.91,38.66-25.27,5.43-29.97-32.71-10.91-38.66Z"/>
  <path class="st0" d="M684.42,445.76c29.06-9.1,36.18,33.24,10.91,38.66-25.19,5.41-29.97-32.71-10.91-38.66Z"/>
  <path class="st0" d="M500.24,495.21c23.11-5,33.93,31.11,12.74,38.05-29.77,9.75-36.2-32.98-12.74-38.05h0Z"/>
  <path class="st0" d="M686.88,292.21c23.11-5,33.93,31.11,12.74,38.05-29.77,9.75-36.2-32.98-12.74-38.05Z"/>
  <path class="st0" d="M402.05,403.64c25.48-3.93,29.68,32.34,12.83,38.04-33.35,11.3-35.87-34.48-12.83-38.04Z"/>
  <path class="st0" d="M598.25,403.64c24.49-3.81,32.26,31.37,12.83,38.05-33.85,11.62-33.83-34.77-12.83-38.05Z"/>
  <path class="st0" d="M186.76,470.44c32.52-6.97,28.57,52.68-5.95,37.3-15.94-7.09-10.25-33.83,5.95-37.3Z"/>
  <path class="st9" d="M268.15,591.85c23.25-2.3,29.51,32.81,10.91,38.56-31.12,9.61-36.85-35.99-10.91-38.56Z"/>
  <path class="st0" d="M368.63,591.85c23.91-2.4,26.72,34.91,6.57,39.04-30.89,6.33-32.55-36.42-6.57-39.04Z"/>
  <path class="st9" d="M569.56,309.61c30.18-9.32,37.68,34.11,10.86,38.66-21.69,3.69-30.3-32.64-10.86-38.66Z"/>
  <path class="st0" d="M772.95,542.35c24.37-7.5,36.49,22.5,20.76,33.83-27.33,19.63-43.82-26.71-20.76-33.83Z"/>
  <path class="st9" d="M440.34,314.58c39.9-12.28,30.37,55.54-3.41,34.65-12.84-7.93-9.65-30.65,3.41-34.65Z"/>
  <path class="st9" d="M717.93,371.51c37.39-8.76,29.84,50.23-1.11,37.22-15.02-6.33-14.14-33.63,1.11-37.22Z"/>
</svg>