<?xml version="1.0" encoding="UTF-8"?>
<svg id="Ebene_1" xmlns="http://www.w3.org/2000/svg" version="1.1" viewBox="0 0 482.16 482.16">
  <!-- Generator: Adobe Illustrator 29.5.1, SVG Export Plug-In . SVG Version: 2.1.0 Build 141)  -->
  <defs>
    <style>
      .st0 {
        fill: #f0874b;
      }

      .st1 {
        fill: #d3e198;
      }

      .st2 {
        fill: #524283;
      }

      .st3 {
        fill: #cdab71;
      }

      .st4 {
        fill: #282d63;
      }

      .st5 {
        fill: #e41c20;
      }

      .st6 {
        fill: #cdaa71;
      }

      .st7 {
        fill: #4cad32;
      }

      .st8 {
        fill: #ec6d1b;
      }

      .st9 {
        fill: #fbe0d9;
      }

      .st10 {
        fill: #ec6d1a;
      }

      .st11 {
        fill: #85be53;
      }

      .st12 {
        fill: #f5af89;
      }

      .st13 {
        fill: #060302;
      }

      .st14 {
        fill: #030101;
      }

      .st15 {
        fill: #fbded7;
      }

      .st16 {
        fill: #0a0404;
      }

      .st17 {
        fill: #e31c20;
      }

      .st18 {
        fill: #cdaa70;
      }

      .st19 {
        fill: #e41d20;
      }

      .st20 {
        fill: #f0864b;
      }

      .st21 {
        fill: #0c0505;
      }

      .st22 {
        fill: #e31d20;
      }

      .st23 {
        fill: #dbcfa0;
      }

      .st24 {
        fill: #040202;
      }

      .st25 {
        fill: #272c63;
      }

      .st26 {
        fill: #080303;
      }

      .st27 {
        fill: #0d0505;
      }

      .st28 {
        fill: #aea5c7;
      }

      .st29 {
        fill: #cdab70;
      }

      .st30 {
        fill: #84bc2d;
      }

      .st31 {
        fill: #eb635a;
      }

      .st32 {
        fill: #fbdfd8;
      }

      .st33 {
        fill: #fce1da;
      }
    </style>
  </defs>
  <g>
    <path class="st25" d="M161.29,250.06c-2.59,17.14-24.9,17.57-28.46.67-2.21-.04-4.19.08-6.35-.58-.66-.2-2.74-1.38-3.09-1.31-.21.04-2.55,2.26-3.32,2.73-7.98,4.78-18.46.9-20.89-8.77-2.92.72-5.85.22-8.75-.28-3.71,9.87-15.76,12.55-23.04,5.33-3.24-3.21-5.24-8.56-4.53-13.25-11.58-.27-18.46-13.29-12.31-24.14.5-.89,2.18-2.5,2.02-3.38-.09-.49-3.04-4.25-3.62-4.97-3.29-4.18-11.55-11.84-11.8-17.28-.15-3.12,2.09-5.6,4.43-7.05,16.23-10.06,12.6,17.91,15.43,26.86,1.51-.89,3.28-1.09,4.98-1.26,1.06-.22,1.32.89.29.32-8.1,2.81-11.29,14.62-3.98,20.36,8.31,6.52,19.33-2.12,16.18-12.8l.69-.3c1.61,2.91,2.4,6.43,2.34,9.78.22.13.56.34.52.54-.34,1.97-2.19,6-3.3,7.64l-.74.02.11.82c-1.51,1.69-3.33,3.06-5.3,4.03,2.66,16.45,24.53,10.6,19.97-5.31.82-1.82,1.93.03,2.3,1.31.77,4.03,1.74,5.23,5.71,5.7,7.11.85,12.07-4.4,12.14-11.95l.53-.6c2.37-.86,4.65-.6,7.03,0l-.05.36c-2.07.21-3.94.83-5.63,1.84-.1,5.25-.77,10.63-4.9,14.18,5.37,11.57,20.54,7.29,20.2-5.61,1.58-1.98,1.89,2.15,1.76,3.54-.57,3.84-.63,5.95,3.28,6.94,6.13,1.56,11.34-.84,13.33-7.5,2.46-1.04.46,4.31-.05,5.5-.92,2.15-2.13,3.68-3.77,5.19,1.07,11.33,15.32,13.37,19.84,3.06l.81-.4Z"/>
    <path class="st2" d="M139.31,222.62c.29.21.61.4.88.63.01.93-.82,1.14-2.51.64-11.16,3.56,1.09,18.05,5.22,6.16,0-2.94.41-3.43,1.61-.44.32.79.49,1.64.65,2.47.1.01.2-.01.29,0,.61.31.81,1.12.59,2.41,3.22-1.06,6.31-1.38,9.38.42.42.31.78.59,1.17.95-.51.74-1.51.93-2.99.59-10.03,3.54.49,17.03,5.51,6.77.19-2.08.66-4.81,1.75-1.22.55,1.53.97,3.6.71,5.2.04,1.12.12,1.8-.29,2.84-3.48,8.82-14.03,10.68-19.46,2.81-.72-1.04-2.26-4.53-1.79-5.64.23-.54,1.71-1.71,2.2-2.38,1.56-2.14,2.79-5.3,2.93-8.03-.53.34-.5,1.43-.82,2.1-2.69,5.64-8.87,7.98-14.31,5.52-1.49-.67-3.09-1.52-3.05-3.37.07-2.58.77-5.06-.28-7.72l-.37,3.86c-2.25,11.51-16.98,13-20.97,2.02,2.38-2.51,4.26-5.9,4.6-9.54s-1.24-5.34,3.01-6.22c1.22-.25,2.43.03,3.47-.52.33.08.6.23.88.32-.06.81-.83,1.2-2.31,1.19-3.2,1.33-3.72,6.36-1.28,8.76,4.77,4.7,11.06-2.75,6.97-7.62l.13-.76c.22-1.23,1.33-.17,1.96.44l1.85,1.96c2.87-5.53,9.52-7.52,14.65-4.6Z"/>
    <path class="st2" d="M99.47,212.85c.21.69-.34,1.1-1.64,1.23-9.25,7.09,6.41,16.69,6.89,3.93-.62-2.73-.48-3.33,1.61-1.22.67.67,1.22,1.5,1.64,2.37.45.74,1.36,2.94,1.47,3.78.61,4.89-2.56,10.75-6.95,12.54-2.89,1.18-8.26,1.04-10.61-1.36-.89-.91-1-5.11-2.65-6.13,5.2,17.39-18.78,23.33-21.06,5.41,1.99-.88,4.45-2.7,5.82-4.46l.73.14c3.69,6.93,12.81-.16,7.94-6.19-1.14-.43-1.58-1.88-.17-1.53.18-.23.4-.39.67-.45.6-.12,2.99,1.82,3.57,2.38.89-6.37,6.31-12.48,12.76-10.44Z"/>
    <path class="st2" d="M62.25,203.7l.14.71c-3.79,1.77-3.53,8.62.42,9.86,5.62,1.76,9.07-5.27,4.76-9.34-.08-.39.05-.64.39-.77.31-.12,3.69,2.19,4.26,2.7,1.12,1.23,2.11,2.61,2.93,4.1-.39.75.25,1.7.3,2.67,1.05,18.06-23.62,17.31-21.66-.58.49-4.46,4.36-8.69,8.47-9.34Z"/>
    <path class="st28" d="M72.22,206.86l-4.39-2.52c4.77,4.35,1.5,12.02-4.77,10.65-4.02-.88-5.26-6.93-2.41-10.02.42-.45,1.09-.72,1.61-1.26.02-.02.34.04.29-.31h-.59c4.06-.4,7.26.19,10.26,3.47Z"/>
    <path class="st28" d="M107.96,219.16c-.71-1.17-2.23-2.52-3.22-3.47,1.28,3.13.54,7.35-2.64,8.67-7,2.92-10.93-7.82-4.31-10.95.57-.27,1.31-.05,1.68-.56-.26-.09-.25-.19,0-.32,3.28.87,7.34,2.92,8.5,6.62Z"/>
    <path class="st28" d="M156.6,235.87c3.19,2.83,4.77,5.09,5.24,9.66.05.52.24,1.37-.26,1.69-.09-2.49-.77-4.61-1.47-6.94l-.36,2.92c-2.36,7.39-12.23,4.77-10.64-3.26.32-1.64,2.28-3.8,3.84-4.06,1.2-.2,2.47.19,3.64-.02Z"/>
    <path class="st28" d="M140.19,223.26c2.49,2.12,5.11,5.19,4.98,8.83l-1.76-4.41c1.09,5.46-4.15,9.6-8.48,6.44-4.17-3.04-2.38-10.32,2.5-10.84,1.03-.11,1.96.58,2.75-.02Z"/>
    <path class="st28" d="M120.27,224.2c.69-.52.92-.18.59.63,4.99,5.11-1.56,14.04-7.33,8.99-3.06-2.67-2.27-8.85,1.52-10.05.8-.25,1.69,0,2.29-.53.63.19,2.51.7,2.93.95Z"/>
    <path class="st28" d="M82.47,221.05c.25.1.25.21,0,.32-.01.04-.49.34-.28.61.04.06.59.13.87.48,5.63,7.02-5.29,14.9-9.09,6.48.98-1.25,3.49-6.79,3.52-8.2l4.98.32Z"/>
    <path class="st25" d="M139.31,222.62l-3.36-.64c-4.46-.56-9.02,1.57-11,6-.63.46-2.88-3.42-4.1-3.15-.15-.16-.55-.61-.59-.63,5.68-5.45,12.71-6.27,19.05-1.58Z"/>
    <path class="st25" d="M99.47,212.53v.32c-6.52-.89-12.37,4.97-12.02,11.98-1.48-1.4-2.97-2.96-4.98-3.47.03-.1-.03-.23,0-.32,2.72-7.11,10.27-10.31,16.99-8.52Z"/>
    <path class="st4" d="M155.43,234.92l-3.37-.63c-2.4-.25-4.4.3-6.59,1.26v-3.47c1.03.15,2.28-.11,3.36,0,2.67.3,4.46,1.24,6.6,2.83Z"/>
  </g>
  <g>
    <path class="st30" d="M379.66,167.08c23.63,4.39,39.4,23.66,38.07,45.33-.5,16.97-.72,33.92-.66,50.87-.52,25.45-28.25,43.32-55.14,40.64-2.62-.26-4.97-.57-7.54-1.02-11.87-2.8-22.23-9.52-29.03-18.9-6.45-8.89-6.75-16.08-6.93-26.73.25-17.86.32-35.71.22-53.55,3.21-23.59,29.57-39.88,54.98-37.66,1.49.04,4.33.77,6.04,1.02Z"/>
    <path class="st1" d="M361.93,303.93c21.14.93,43-9.01,51.37-27.07,4.87-10.52,2.79-26.98,2.94-38.64.15-12.1,2.32-30.45-1.39-41.71-4.9-14.89-19.08-25.17-35.18-29.43,29.33,4.39,43.22,22.04,43.02,48.3-.11,15.13-.17,30.59-.79,45.7-.42,10.25-.5,15.1-7.22,23.84-12.38,16.09-32.02,21.09-52.74,19Z"/>
    <path class="st7" d="M373.62,166.06c-25.38-.72-51.41,14.24-54.32,38.4,1.07,20.59-1.19,42.72.36,63.14,1.23,16.25,18.11,30.97,34.96,34.92l-.24.38c-19.97-3.55-36.77-15.89-40.38-34.62l-.74-62.8c1.79-21.76,22.24-37.46,45.5-39.72,5.11-.5,9.76,0,14.85.3Z"/>
    <path class="st31" d="M335.9,248.3c10.24,1.29,10.68,14.8.38,16.38-.71.04-1.55.04-2.26,0-10.32-1.52-10.04-15.22.38-16.38.49-.02,1.02-.02,1.51,0Z"/>
    <path class="st31" d="M336.65,210.08c10.36,2.03,9.17,15.98-1.51,16.38-.25,0-.51.01-.75,0-9.99-1.36-10.85-13.99-1.13-16.38,1.31-.12,1.93-.14,3.4,0Z"/>
    <path class="st31" d="M366.83,264.68c10.69.29,11.98,14.27,1.89,16.38-1.81.21-2.46.24-4.15,0-9.02-3-8.27-14.81,1.51-16.38.25-.02.5,0,.75,0Z"/>
    <path class="st31" d="M368.72,188.24c10.14,2.28,8.78,15.97-1.89,16.38-.25,0-.51.01-.75,0-9.81-1.58-10.43-13.4-1.51-16.38,1.72-.24,2.33-.19,4.15,0Z"/>
    <path class="st31" d="M399.28,248.3c10.52,1,10.97,14.6.75,16.38-.81.05-1.83.05-2.64,0-10.11-1.75-9.59-15.41.75-16.38.37-.01.76-.01,1.13,0Z"/>
    <path class="st31" d="M400.03,210.08c10.4,1.85,9.62,15.7-1.13,16.38-.37,0-.76.02-1.13,0-9.82-1.49-10.31-13.81-1.13-16.38,1.39-.16,1.91-.09,3.4,0Z"/>
    <path class="st31" d="M367.97,226.46c10.2,1.42,10.2,14.96,0,16.38-.61.03-1.27.03-1.89,0-10.38-1.4-10.4-14.99,0-16.38.61-.02,1.28-.03,1.89,0Z"/>
    <path class="st18" d="M366.83,204.62c9.8-1.66,10.85-12.75,1.89-16.38,3.52.38,6.14,1.27,7.74,4.43,3.33,6.58-2.31,11.94-9.63,11.95Z"/>
    <path class="st29" d="M398.9,226.46c9.85-1.95,10.4-13.24,1.13-16.38,12.66.79,11.84,16.24-1.13,16.38Z"/>
    <path class="st22" d="M366.08,226.46c-9.4,2.78-9.38,13.59,0,16.38-12.65-.52-12.65-15.86,0-16.38Z"/>
    <path class="st29" d="M368.72,281.06c8.97-3.63,7.92-14.72-1.89-16.38,12.78-.09,13.5,13.96,4.16,16.22-.88.21-1.52.07-2.27.16Z"/>
    <path class="st6" d="M367.97,242.84c9.18-2.71,9.18-13.67,0-16.38,12.54.71,12.54,15.67,0,16.38Z"/>
    <path class="st19" d="M398.14,248.3c-9.36,2.24-9.81,13.32-.75,16.38-11.95-.71-12.33-15.9.75-16.38Z"/>
    <path class="st17" d="M364.57,188.24l.28.42c-7.03,2.38-7.9,11.22-1.39,14.74.89.48,1.94.52,2.62,1.22-11.93-.67-12.73-14.8-1.51-16.38Z"/>
    <path class="st22" d="M396.64,210.08l.24.38c-6.35,1.79-7.96,9.4-3.46,13.62,1.29,1.21,2.93,1.46,4.35,2.38-12.04-.73-12.55-15.05-1.13-16.38Z"/>
    <path class="st3" d="M400.03,264.68c9.12-3.1,8.83-14.07-.75-16.38,12.99.47,13.02,15.66.75,16.38Z"/>
    <path class="st5" d="M333.26,210.08l-2.82,1.72c-5.92,4.85-3.36,12.53,3.95,14.66-12.56-.63-12.65-15.33-1.13-16.38Z"/>
    <path class="st3" d="M336.28,264.68c9.32-2.9,8.82-13.81-.38-16.38,12.7.62,12.72,15.62.38,16.38Z"/>
    <path class="st5" d="M334.39,248.3c-9.43,2.47-9.65,13.56-.38,16.38-12.44-.62-12.31-15.92.38-16.38Z"/>
    <path class="st3" d="M335.15,226.46c9.81-1.91,10.74-12.95,1.51-16.38,11.96,1.11,10.98,14.75,1.23,16.3-.92.15-1.82.07-2.74.08Z"/>
    <path class="st17" d="M366.08,264.68c-.68.69-1.72.73-2.62,1.22-6.52,3.53-5.69,12.37,1.39,14.74l-.28.42c-11.12-1.57-10.51-15.65,1.51-16.38Z"/>
    <path class="st13" d="M335.84,255.19c1.36.76.29,3.85-2.2,2.5-1.71-.92.28-3.57,2.2-2.5Z"/>
    <path class="st33" d="M341.18,216.57l-2.29-2.53-4.87-2.24c3.61-1.26,7.85,1.14,7.16,4.77Z"/>
    <path class="st16" d="M333.7,219.58c-1.3-.74-.34-3.84,1.83-2.85,2.31,1.05-.15,3.81-1.83,2.85Z"/>
    <path class="st9" d="M372.86,271.51c-.74-.31-.76-1.38-1.34-2.02-1.18-1.29-4.01-2.4-5.82-2.58,3.35-1.9,8.48,1.03,7.16,4.6Z"/>
    <path class="st26" d="M367.51,274.5c-2.57,1.34-3.72-3.49-.5-3.01,1.63.24,1.47,2.51.5,3.01Z"/>
    <path class="st9" d="M372.86,194.72l-2.67-2.87-1.85-1.05-2.64-.85c3.39-1.39,8.45,1.29,7.16,4.77Z"/>
    <path class="st21" d="M367.51,194.8c.97.5,1.13,2.77-.5,3.01-3.22.48-2.08-4.35.5-3.01Z"/>
    <path class="st15" d="M404.93,254.79l-2.67-2.53c-1.4-1.04-2.24-1.23-3.93-1.58s.29-1.06,1.45-1c2.77.16,5.6,2.44,5.15,5.1Z"/>
    <path class="st24" d="M399.6,257.81c-1.82,1.04-4.05-1.5-2.21-2.51,2.19-1.21,3.42,1.83,2.21,2.51Z"/>
    <path class="st9" d="M404.18,216.57c-.6-2.54-3.84-3.96-6.42-4.6,2.64-2.07,9.14,2.09,6.42,4.6Z"/>
    <path class="st27" d="M398.04,216.62c2.17-.55,2.5,2.51.99,2.97-2.48.75-3.19-2.41-.99-2.97Z"/>
    <path class="st32" d="M372.86,233.29c-.64-.03-.42-.96-.8-1.49-.34-.48-.82-.86-1.28-1.23l-4.71-2.39c3.4-1.32,8.22,1.75,6.78,5.11Z"/>
    <path class="st14" d="M365.97,233.35c2.81-.76,3.08,3.04.32,2.68-1.67-.22-1.82-2.27-.32-2.68Z"/>
  </g>
  <g>
    <path class="st20" d="M246.4,246.02l.6,1.04c-1.95,4.91,1.05,9.63,6.25,9.35l.76.93,1.08.32,1.76,5.4c1.75-1,3.02-1.1,3.82-.3l1.19.82c.64,5.08,1.03,9.57,1.18,13.46.66.68.36.98-.48.49-.32,1.14-1.45,2.04-3.39,2.72l1.7,5.12-.68,1.02-.83.78c-3.64-.84-7.2,1.49-8.11,5.21l-1.05.41c-1.1.74-2.64.87-4.6.39,10.23,3.39,17.23,13.78,19.67,24.34,2.9,4.14,3.74,11.67,3.05,16.68l-.98.93-.95.62c-12.1-3.43-12.21,16.23.45,12.04l.97.63c.27,2.55-3.61,7.66-6.19,7.39l-1.08.33c-4.75-3.85-11.55.66-10.5,6.71l-.8.83c-.22-.06-3.43.93-4.5,1-2.25.15-4.54-.51-6.2-.51h-9.52c-.2,0-1.05.49-1.87.53-2.23.1-5.32.27-7.41-.53.05-.54.63-.32.6-.32-4.72-.79-7.51-1.42-11.65-4.15-2.44-1.61-6.51-4.39-6.55-7.34l.78-.95c13.86-2.2,2.61-20.86-5.92-9.43l-1.04.03c-.32-.11-.63-.24-.91-.42-2.4-1.56-4.3-14.48-3.89-17.74l.99-1.54.71-.99c6.69-.29,8.11-9.68,2.36-12.63l-.22-1.15c-.64-1.52-.28-3.23,1.08-5.15,3.88-5.64,7.5-11.42,10.86-17.35.43-2.14,1.21-3.84,2.33-5.08l.8-.94c8.93.12,8.66-14-.62-12.9l-.65-.93c-.44-.92-.04-1.44,1.18-1.55,1.63-9.03,7.89-17.43,17.37-18.14,5.71-.24,13.55-.73,19.03.49Z"/>
    <path class="st10" d="M205.47,267.19l.89.9-.18,9.48c.5.88,1.36,1.33,2.59,1.38l.52,1.05c-1.36,10.92-11.27,17.32-14.27,27.58-.75.87-4.01,1.07-4.76,0-1.09-.96-.91-2.53.53-4.73,4.15-5.65,7.89-11.45,11.23-17.41-9.25-14.98-32.82-10-36.31,7.94l-1.14.9.68,2.73c-.25,13.55,9.58,22.2,22.17,22.48,1.26.36,4.29,1.83,4.75,2.86-.28,6.71.82,13.7,3.81,19.7l.73.87c-.97,3.78,1.18,7.73,4.98,8.42l.48,1.05c4.69,6.04,12.06,10.28,19.51,11.33.11.85-1.37.49-1.9.49-15.11-.06-28.11-14.89-31.38-29.33-16.02.33-31.13-9.03-36.2-25.08-10.64-33.67,24.7-61.43,53.3-42.6Z"/>
    <path class="st10" d="M278.75,333.67l-.68-1.55c.67-4.03.83-8.14.39-12.2l.76-1.51.6-1.37c7.83-3.97,12.43-12.33,11.69-21.33l.56-2.41-1.17-.88c-2.92-11.99-15.33-18.36-26.54-14.79l-1.32-.59c-1.51.28-.8-.77-.96-1.69-.72-4.25-.21-8.41-1.42-12.59-.6-.47-.28-.64.95-.49,45.64-11.63,64.42,58.21,17.13,71.4Z"/>
    <path class="st11" d="M208.81,265.22c3.87-.43,8.04,1.13,8.58,5.65.67,5.66-2.42,9.65-8.1,9.12s-3.99-3.33-3.9-7.14c.04-1.91-.11-3.5.09-5.66.02-.16-.02-.33,0-.49.48-1.78,2.24-3.3,3.33-1.48Z"/>
    <path class="st12" d="M278.75,333.67c-1.9,9.27-8.42,19.89-15.7,25.61-1.19-.16-1.98-2.39-1.43-3.45,2.54-1.94,4.37-4.75,6.19-7.39-.4-1.15.24-2.56,1.93-4.24.19-1.46.65-2.51,1.4-3.14.3-5.2,1.07-8.22,6.8-8.22l.81.83Z"/>
    <path class="st11" d="M261.62,355.83c.77.75,1.5,2.33,1.43,3.45-2.4,1.89-9.78,5.67-12.62,5.43-.93-.08-1.11-.97-1.18-.99-1.93-7.64,6.98-13.17,12.37-7.88Z"/>
    <path class="st8" d="M227.36,245.52c-7.37,1.98-12.15,6.45-15.16,13.61-.73,1.73-.97,4.1-1.47,5.27-.3.7-1.59.02-1.92.81-1.46.16-2.19.51-3.33,1.48,1.53-13.21,9.14-20.65,21.89-21.17Z"/>
    <path class="st11" d="M257.82,255.86c.51,1.62-3.22,3.18-3.81,1.48-6.7.71-10.41-5.15-7.61-11.33,5.13,1.14,8.88,5.3,11.42,9.85Z"/>
    <path class="st12" d="M261.62,262.27c-.17.04-.54.37-.95.49-.81.24-4.51,1.73-4.76,1.48.05-2.46-1.31-4.59-1.91-6.9,1.57-.17,2.48-.74,3.81-1.48,1.01,1.81,1.41,3.05,2.23,4.83.38.83.33,1.65,1.58,1.57Z"/>
    <path class="st11" d="M190.25,307.57c1.95-.25,2.43-.85,4.76,0,7.27,2.65,6.12,15.05-2.85,14.77-2.66-.08-3.02-1.28-5.04-1.92-2.7-.86-5.52-.47-8.54-1.51-9.77-3.37-15.72-14.28-14.02-24.64l1.35.38c5,7.82,14.13,13.93,23.43,12.19l.92.73Z"/>
    <path class="st23" d="M250.2,292.8c.96-.87,2.26-.8,3.9.23,2.6,1.05,7.83,3.83,7.99,6.66l1.07-.28c1.96,2.2,3.71,4.62,5.2,7.18l-.56.98c1.42.54,2.32,1.85,2.72,3.93,1.13,2.9,2.74,8.3,1.09,10.85l.97,1.43c.22,3.72-.49,10.66-3.35,12.85.7,1.29-1.24,4.78-2.49,4.46-1.45-.37-1-5.74.59-5.94.15-4.06.16-9.65-.97-13.52-.49-1.68-1.74-2.78-2.14-4.19-2.89-10.25-5.35-13.94-13.42-20.71-2.15-1.8-6.39-3.2-9.16-2.95,1.99-2.39,6.02-1.49,8.56-.98Z"/>
    <path class="st11" d="M243.37,305.77c5.97,5.8-1.06,16.88-9.04,12.06-9.34-5.64,1-19.87,9.04-12.06Z"/>
    <path class="st11" d="M222,250.08c8.77-1.54,12.33,9.98,5.38,13.94-10.43,5.95-15.79-12.11-5.38-13.94Z"/>
    <path class="st11" d="M243.89,323.94c1.89-.33,3.2-.26,4.91.59,7.86,3.92,3.4,17.23-5.85,13.93-6.84-2.44-6.08-13.29.94-14.52Z"/>
    <path class="st11" d="M231.52,345.11c12.01-2.31,12.02,15.63,1.35,15.11-8.33-.4-8.95-13.65-1.35-15.11Z"/>
    <path class="st11" d="M202.14,352.38c-4.93-.41-7.82-5.65-6.19-10.34.75-2.15,3.21-4.16,5.46-4.44,11.77-1.46,11.73,15.7.73,14.78Z"/>
    <path class="st11" d="M229.62,278.64c10.19-1.73,11.73,14.08,2.21,15.11-9.56,1.04-11.24-13.58-2.21-15.11Z"/>
    <path class="st11" d="M219.62,322.46c8.76-1.88,12.71,9.35,5.82,13.9-4.98,3.29-11.33-.67-11.22-6.79.06-3.04,2.49-6.48,5.4-7.1Z"/>
    <path class="st11" d="M240.55,265.32c9.27-2.17,13.2,8.82,6.82,13.46-6.22,4.52-14.21-2.62-10.85-9.76.51-1.08,2.91-3.44,4.04-3.7Z"/>
    <path class="st11" d="M210.58,297.84c11.7-2.23,12.53,14.89,1.78,14.69-9.03-.17-8.93-13.33-1.78-14.69Z"/>
    <path class="st11" d="M267.33,335.15c-.07,1.82-.73,3.56-.47,5.41l2.37-3.94c1.72-.24,2.8,2.93,1.9,4.43.38,3.77-1.6,4.88-3.33,7.39-3.39,1.65-7.48,1.46-9.92-1.8-4.96-6.64,2.48-15.34,9.45-11.5Z"/>
    <path class="st12" d="M262.57,277.53c.98,11.69,10.08,19.18,13.8,29.55,2.13-.11,2.73,4.67,0,3.94-1.07-1.45-2.56-2.46-4.26-2.87l-.51-1.07-1.27-.57c-1.38-3.34-2.93-6.67-5.36-9.34l-.04-1.41-.85-.7c.27-2.97-1.07-6.2-3.74-7.54l-.17-1.12c-.39-1.55-2.21-5.16-1.94-6.56.14-.69,3.51-1.97,4.31-2.31Z"/>
    <path class="st11" d="M260.19,286.4c3.49,1.15,5.47,5.81,4.76,9.36,1.24,1.4-1.24,4.97-2.85,3.94-3.06-3.09-7.7-6.05-11.9-6.89.77-4.83,5.48-7.89,9.99-6.4Z"/>
    <path class="st11" d="M279.23,318.4l-.75.1c-.9,2.33-4.9,5.94-6.86,3.84-.14-4.97-1.53-10.36-3.81-14.77.18-1.6,3.14-2.01,3.81-.49,1.95.16,4.56,1.67,5.47,3.45.79-.03-.57-3.06-.71-3.45,6.91-2.35,12.29-7.21,15.7-13.79,2.07,10.7-3.35,20.82-12.85,25.11Z"/>
    <path class="st0" d="M279.23,318.4c.74,4.8.5,10.51-.48,15.27-1.25.35-4.43.51-5.23,1.23-.92.83-.89,5.08-2.38,6.16-.15-1.53-1.38-3.01-1.9-4.43,1.89-4.64,2.52-9.26,2.38-14.28,4.22-.49,7.11-3.92,6.67-8.37l.95,4.43Z"/>
    <path class="st0" d="M271.61,307.08c-1.35-.11-2.5.34-3.81.49-1.16-2.25-3.94-6.09-5.71-7.88.92-.46,2.68-3.07,2.85-3.94,3.11,2.93,5.06,7.35,6.66,11.33Z"/>
  </g>
</svg>