<?xml version="1.0" encoding="UTF-8"?>
<svg id="Ebene_1" xmlns="http://www.w3.org/2000/svg" version="1.1" viewBox="0 0 1024 1024">
  <!-- Generator: Adobe Illustrator 29.5.1, SVG Export Plug-In . SVG Version: 2.1.0 Build 141)  -->
  <defs>
    <style>
      .st0 {
        fill: #f8bf8d;
      }

      .st1 {
        fill: #237862;
      }

      .st2 {
        fill: #1ba8e5;
      }

      .st3 {
        fill: #f4a119;
      }

      .st4 {
        fill: #9384ba;
      }

      .st5 {
        fill: #edaf32;
      }

      .st6 {
        fill: #eaa995;
      }

      .st7 {
        fill: #fcd093;
      }

      .st8 {
        fill: #96d4f5;
      }

      .st9 {
        fill: #94d4f4;
      }

      .st10 {
        fill: #52b09e;
      }

      .st11 {
        fill: #04a0e2;
      }

      .st12 {
        fill: #eec76d;
      }

      .st13 {
        fill: #8dc9b7;
      }

      .st14 {
        fill: #ad3333;
      }

      .st15 {
        fill: #56beec;
      }

      .st16 {
        fill: #aa9bca;
      }

      .st17 {
        fill: #604594;
      }

      .st18 {
        fill: #bcc890;
      }

      .st19 {
        fill: #f3c777;
      }

      .st20 {
        fill: #6f62a4;
      }

      .st21 {
        fill: #f3d79b;
      }

      .st22 {
        fill: #029fe2;
      }

      .st23 {
        fill: #54b69d;
      }

      .st24 {
        fill: #9eb9c3;
      }

      .st25 {
        fill: #604393;
      }

      .st26 {
        fill: #ac3333;
      }

      .st27 {
        fill: #2da68f;
      }

      .st28 {
        fill: #1f765f;
      }

      .st29 {
        fill: #e6302a;
      }

      .st30 {
        fill: #ab9dcb;
      }

      .st31 {
        fill: #ce2125;
      }

      .st32 {
        fill: #44b8ea;
      }

      .st33 {
        fill: #ee7b17;
      }

      .st34 {
        fill: #28a98c;
      }

      .st35 {
        fill: #dcd6ec;
      }

      .st36 {
        fill: #fefefe;
      }

      .st37 {
        fill: #67579d;
      }

      .st38 {
        fill: #60c2ee;
      }

      .st39 {
        fill: #29a98d;
      }

      .st40 {
        fill: #746b9d;
      }

      .st41 {
        fill: #afd5ca;
      }

      .st42 {
        fill: #b8e0d6;
      }

      .st43 {
        fill: #f5a017;
      }

      .st44 {
        fill: #f4b099;
      }
    </style>
  </defs>
  <g>
    <path class="st25" d="M373.36,272.72c.74.71.74,1.07,0,1.1,4.35,1.8,4.84,3.26,1.48,4.42,1.57.52,2.43,1.57,2.63,3.12,69.43,11.14,75.9,64.96,58.29,108-11.1,27.13-23.7,54.43-40.19,79.94-2.52,7.12-6.61,15.82-13.33,20.98l-1.19-1.64,8.59-16.03-1.34-3.08c17.36-31.2,36.1-65.55,41.83-99.29,7.49-44.22-26.27-80.17-89.5-73.49.59,5.8.39,11.6-.59,17.38l-3.7.54-2.86-.49c.28,34.16-.24,68.19-1.58,102.1,2.19,11.1,2.33,23.15,0,34.24-1.69,32.43-1.75,65.24-1.44,98.02-.34,4.79-5.07,7.64-8.94,2.89l-10.22-252.43c-39.48-12.68-89.47,15.03-87.46,47.93l-3,3.1c3.06,3.64,4.54,8.13,4.46,13.48,9.11,32.52,21.97,65.67,37.83,97.65l50.51,102.63c-5.45,9.23-17.57-11.62-15.79-17.17-12.19-17.13-21.07-35.78-29.61-54.12-20.77-37.28-42.48-76.61-55.29-116.06-10.44-32.17-11.95-63.76,29.7-83.47-3.86,2.4-7.18,3.02-9.95,1.84-1.68-3.39,1.66-6.35,9.99-8.86l18.78-6.64c2.38-2.93,5.13-5.13,8.23-6.59,13.6-14.71,64.87-13.52,85.19-7.76,7.28,2.06,12.84,6.16,18.47,7.76v.03Z"/>
    <path class="st23" d="M269.69,272.72c-1.96,2.11-2.36,5.52-4.49,7.15-5.77,4.43-27.22,7.54-32.55,14.93l.46,2.55c-9.75,6.7-17.64,15.18-22.3,24.44l-3.33.62c-6.62,14.44-4.75,29.47-.55,44.12,3.77,13.13,9.1,26.09,15.36,38.72,2.28-.14,3.33,2.33,1.48,3.32l5.93,12.15c12.86,23.63,25.28,47.76,37.02,71.79,10.65,20.28,21,38.32,31.09,54.12,3.83,6.44,8.65,12.64,11.85,19.32l1.17-1.96c-26.48-53.33-55.47-107.2-75.97-162.04-6.09-16.32-13.93-35.04-14.07-51.9,7.98-3.48,9.95,3.81,9.29,8.75,9.85,28.94,19.66,57.83,29.43,86.69,15.75,22.49,28.05,46.4,36.88,71.7l19.83,37.52c2.49,5.26,3.48,10.06,3.79,12.91-4.53,3.52-14.63,3.47-19.26,0-1.54-1.04-3.03-2.1-4.37-3.26-3.66-3.19-18.08-21.87-18.46-24.05-.15-.89-.08-1.71.61-2.51l-4.88-3.63c-32.77-41.88-61.48-86.6-87.76-130.34-30.81-51.28-35.79-93.14,42.29-121.17,13.33-4.13,27-8.51,41.46-9.95h.03Z"/>
    <path class="st43" d="M361.51,586.38c6.53-2.77,14.51-3.46,23.95-2.07,9.56-.44,17.37.98,23.44,4.27l4.47-1.62c9.43.35,37.86,8.61,44.43,13.51,1.17.88,1.33,2.31,1.47,3.57l4.25-.23c9.78,6.59,16.87,15.48,20.92,24.53-1.45,5.8,5.84,18.69,7.23,26.08,2.56,13.69,1.22,29.02-1.68,42.67-2,9.39-10.29,38.29-15.61,45.79-7.23,10.15-27.99,6.47-29.64-3.83-1.05-6.49,11.85-33.63,14.1-43.11,1.37-5.75,3.2-13.82,3.49-19.52.13-2.45.95-6.11-3.06-7.21l-2.36-1.92c1.79-10.92-2.19-23.62-10.16-32.83l.67-2.81c-9.75-10.74-19.29-13.48-35.54-17.68-4.47.96-9.41.62-14.81-1.01-6.09,0-10.54-1.14-13.32-3.41-9.08,3.1-25.46,3.78-34.06,0-6.54,3.39-11.7-5.37-12.07-9.96-.77-9.67,12.56-19.41,23.91-13.23h-.01Z"/>
    <path class="st43" d="M274.14,611.78l-3.48,2.5c-13.44,1.02-26.93,2.64-39.19,7.04l-4.72-.7c-8.92,3.52-13.93,6.85-20.74,12.15l.59,2.75c-7.11,5.02-11.63,11.09-13.47,18.25l-3.41,1.1c-6.64,20.45-.35,36.97,12.06,55.62,3.87,5.83,20.38,22.52,20.63,26.68.66,10.92-19.05,14.97-29.71,6.6-31.84-24.98-48.75-80.88-26.66-112.09l-.75-3.11c5.8-5.87,11.75-11.55,17.97-17.17l3.51.4c-.49-2.82,1.96-5.06,7.35-6.72l27.49-11.6,3.66.66c1.7-4.93,6.96-6.45,15.76-4.56,13.92-2.24,27.75-3.07,41.52-2.47,25.11,3.54,18.48,34.11-8.4,24.7h0Z"/>
    <path class="st12" d="M268.21,543.3c8.83,4.83,17.37,15.07,17.78,23.19-.7.74-1.17,1.35-.91,1.49,11.66,6.59,27.17,9.06,41.41,6.71,5.24-.87,19.61-4.12,17.25-8.21-1.96-2.49,3.61-9.03,7.41-9.95,6.44.61,11.66,10.96,13.15,15.72,1.34,4.26,3.66,12.48-2.8,14.1-4.49.21-7.81-.23-12.26,1.36-11.79,4.23-11.64,18.19.41,21.83.66.65,1.59,1.59,1.16,2.11-1.97,2.4-18.53,19.94-19.9,20.71-1.58.88-3.06,1.27-4.96,1.48,2.07,1.55,1.15,2.2-1.48,1.1l-2.8,1.46c-17.9-5.35-33.01-12.72-47.71-21.95l.15-2.69c10.97-.85,20.32,1.62,20.86-10.48.91-20.21-39.68-10.07-54.35-9.52-9.03.35-6.01-3.56-15.39,2.32-3.9-4.03-.6-18.06,5.93-19.88-.64-.3-1.22-.62-1.55-1.06-1.2-1.54,13.28-20.55,19.31-18.83,4.85-3.92,12.69-8.84,19.26-11.05l.03.03Z"/>
    <path class="st33" d="M484.43,628.35c-3.58.58-3.07-1.35-4.18-2.9-6.04-8.52-10.62-15.25-21-21.39l-2.21-2.84c10.37-33.84-10.1-48.6-52.7-31.3l-2.85-1.2c-.96.48-2.52,1.11-3.09.7-2.88-2.1-21.84-18.56-21.56-19.83l2.45-1.85c61.41-28.02,129.2-11.5,116.62,48.87-2.25,10.8-8.9,21.52-11.47,31.75h0Z"/>
    <path class="st42" d="M228.23,282.66c-8.5,5.02-18.36,8.52-26.68,13.79-61.73,39.19-26.12,84.38,1.24,129.43,22.58,37.19,49.61,76.02,75.79,111.91,1.72,3.17-7.34,6.85-10.37,4.42-35.45-49.05-92.32-121.82-110.32-174.51-14.48-42.38,21.44-69.89,70.34-85.04h0Z"/>
    <path class="st19" d="M411.86,614c-4.4-.67-2.59,1.64-3.35,3.51-13.92,33.84-51.23,57.13-100.31,52.81-9.53-2.31-9.99-3.21-7.8-10.4,1.13-3.72,16.48-22.66,20.17-24.62,1.12-.6,2.63-.48,3.93-.32.36-.4,1.09-.7,1.48-1.1l3.26-1.75c20.77.21,37.66-9.21,49.58-21.2l4.92-1.35c11.89.48,17.15,1.59,28.13,4.42h0Z"/>
    <path class="st33" d="M248.96,554.35c-5.02,4.07-15.11,14.92-17.78,19.88l-3.82,1.5c-33.32-7.26-56.92,8.09-39.51,32.81l-1.1,3.24c-2.03,1.4-19.37,17.95-20.74,19.88-22.16-23.83-35.68-59.93,5.9-76.78,23.88-9.67,52.17-6.22,77.03-.53h.01Z"/>
    <path class="st5" d="M274.14,611.78l24.72,14.14,25.63,9.05c-5.69,6.23-24.93,24.14-22,31.25.78,1.9,4.16,2.62,5.72,4.09-28.3-2.5-52.39-12.32-68.16-30.34-5.59-6.4-8.44-12.83-13.29-19.36,15.64-6.18,30.09-7.49,47.39-8.83h-.01Z"/>
    <path class="st28" d="M362.99,539.99c.28,6.5-4.33,13.21-11.85,16.56-2.22,2.98-7.18,5.8-7.41,9.95-.35,2.23-1.82,2.12-2.96,0,.8-5.34,6.25-12.15,10.37-16.56,17.41-28.23,34.6-56.56,51.6-85l4.68-4.45c16.9-26.55,32-53.65,46.2-81.05,27.43-52.98-9.17-85.12-77.04-102.82l-3.21-2.77c-.06-.16-.98-.23-1.3-.57l1.3-.54c22.47,6.33,36.32,6.72,58.22,17.87,71.08,36.19,42.85,78.64,14.6,126.45-24.3,41.13-54.34,83.44-83.19,122.95h0Z"/>
    <path class="st33" d="M459.25,669.22c-2.67,6-25.64,28.98-32.95,31.2-13.57,4.12-28.69-4.45-25.97-14.91,1.22-4.65,17.08-15.77,22.23-21,9.99-10.17,17.41-21.56,24.85-32.83,1.44,1.58,3.03,2.03,4.72,4.77,5.1,8.26,10.97,24.14,7.13,32.79h-.01Z"/>
    <path class="st21" d="M379.29,547.72c.15.09.28,1.93,1.44,2.75l20.78,18.23c3,.56,11.01,17.5,10.36,18.4s-1.7,1.29-2.95,1.48c-14.72-1.89-32.51-2.89-47.39-2.21,4.05-11.41-3.03-20.32-10.37-29.82,4.02-5.41,7.85-11.1,11.85-16.56,3.26,2.84,7.98,4.77,12.02,7.1,1.37.79,3.91.43,4.28.63h-.01Z"/>
    <path class="st33" d="M189.71,654.85c3.7-11.4,5.44-13.65,16.29-22.09,6.08,6.51,13.7,12.25,21.44,17.7,8.83,6.22,21.76,9.06,12.42,21.37-12.24,16.12-41.21-9.54-50.16-16.98Z"/>
    <path class="st18" d="M300.79,567.61c-3.14,3.19-12.48,2.47-14.81-1.1-5.46-7.86-12.16-15.42-17.78-23.19-.21-.28.21-.82,0-1.1l10.37-4.42c.24.34,2.25,1.11,3.26,2.49,6.55,8.97,12.9,18.17,18.96,27.32h0Z"/>
    <path class="st23" d="M389.66,472.62c-5.16,10.32-10.89,20.49-17.58,30.32-10.64,15.6-22.64,32.54-37.22,45.88-2.43-11.43-2.22-23.88,0-35.34-2.73-52.49-1.97-105,1.48-156.84-3.95-13.77-4.01-28.19,0-41.97,3.65-2.69.06-18.85,1.5-19.86,57.28-6.2,92.84,17.95,96.32,60.14,2.36,28.66-27.49,90.88-44.5,117.67h0Z"/>
    <path class="st23" d="M220.82,350.03c-.2-24.02,12.49-40.84,41.94-51,4.75-1.64,19.77-6,24.33-6.16,7.46-.28,18.67,4.11,27.04,3.04l10.37,256.24c2.7-.41,2.75-2.18,3-3.82,2.73-18.14.59-42.01,1.37-60.83.11-2.62,1.51-5.02,1.61-7.64.35-9.58-1.64-20.1,1.43-29.32,2.19,10.88,2.4,22.27,0,33.14,1.41,21.34,1.87,42.68,1.47,64.05-.13-2.58.94-1.35,1.5,1.11,1.13.21,2.53.47,2.96,1.2,1.57,2.68-1.55,10.2-2.96,13.16,1.3.31,1.27.69,0,1.1-3.41,1.09-4.93-.47-4.56-4.66-1.45,4.49-4.37,7.16-8.78,7.98-.28.98-.78.95-1.48,0-4.68.66-2.43-1.75-3.12-3.7-5.06-14.45-15.79-30.65-22.78-44.92-7.74-15.82-17.04-43.95-26.65-57.43-5.1-7.16-9.42-10-12.27-19.57-3.2-10.74-5.76-20.72-9.88-31.29-6.88-17.64-14.04-33.23-18.17-51.6-.87-3.85,2.71-7.02-6.36-9.06h-.01Z"/>
    <path class="st34" d="M407.42,460.48c-1.33-.97-1.34-1.88-.74-3.02,16-29.82,29.33-55.01,39.38-86.47.35-1.1,1.33-1.81,2.82-2.19,5.84-15.23,2.63-30.63-4.44-45.29-2-1.05-3.48-2.89-4.44-5.52-1.5-.01-3.03-.28-3.73-1.23-14.44-19.58-27.29-30.65-58.49-35.78l-2.96-2.76c-.01-.31-1.19-3.57-1.48-4.42,36.13,8.6,74.47,24.98,88.5,52.73,9.5,18.78,4.01,32.49-4.07,50.56-12.69,28.41-32.69,56.54-50.38,83.37h.03Z"/>
    <path class="st16" d="M232.67,294.81c3.56-1.98,27.24-11.46,30.73-11.98,3.87-.56,5.42.43,7.76,2.59-43.6,10.75-66.55,33.19-62.01,68.34,4.75,36.76,40.4,102.61,59.06,138.74-.42.96-.91.95-1.48,0-12.61-23.78-26.65-47.38-37.02-71.79l-5.93-12.15c-.45-1.22-1.1-2.29-1.48-3.32-4.42-9.01-8.54-18.16-11.74-27.47-6.23-18.19-11.46-37.04-3.07-55.36,2.88-8.39,15.72-22.34,25.18-27.61h0Z"/>
    <path class="st16" d="M440.01,318c12.82,25.5,8.54,53.88-2.7,79.34-10.36,23.48-22.71,46.93-36.27,69.75l-3.98,3.33c-1.58,1.57-2.07,1.19-1.48-1.1,13.29-24.25,27.78-52.45,37.43-77.57,15.05-39.28,16.39-87.63-42.96-105.5-3.13-.95-16.18-3.07-16.69-3.59-.57-.6,1.57-3.25,1.5-4.4,21.94,3.41,43.76,11.67,56.01,26.15,3.56,4.21,5.98,9.19,9.15,13.61h-.01Z"/>
    <path class="st39" d="M382.25,490.3c.52.83.85,1.61.56,2.23-8.05,16.55-18.73,33.45-30.19,48.59l-13.72,20.33c-.68,1.31-2.08,1.85-4.05,1.75v-14.36c17.87-25.39,38.35-50.28,54.8-76.21-2.32,5.59-4.63,12.3-7.41,17.68h.01Z"/>
    <path class="st30" d="M331.9,416.29l-1.51-119.75c.2-1.09,5.72-.79,5.94-.65.91.65-.01,16.08,0,18.78.13,13.97.01,28,0,41.97l-2.95,58.38-1.5,1.27h.01Z"/>
    <path class="st41" d="M334.86,513.49l-1.55.47c-.38-10.06-.84-20.15-1.41-30.28-.03-11.02-.17-22.11,0-33.14.17-11.4-.34-22.86,0-34.24.28-9.57,2.89-20.34,1.43-30.42l3.02-29.23c-.03,20.42-1.31,41.01-1.54,61.25-.36,31.86.41,63.74.06,95.58h0Z"/>
    <path class="st35" d="M363.01,284.86c-.87-13.93-26.32-14.62-40-18.22,12.45-8.15,50.21,1.76,43.04,15.49-.6,1.17-1.03,2.58-3.05,2.73h0Z"/>
    <path class="st4" d="M397.06,470.41l-1.24,6.07c-13.36,23.97-28.26,47.34-44.66,70.14v-1.1c-1.41-.97-.92-2.45,1.48-4.42,10.64-15.05,21.35-34.85,29.61-50.8,4.85-6.67,9.49-13.99,13.33-20.98l1.48,1.1h0Z"/>
    <path class="st24" d="M297.83,546.62l-1.86.85c-10.52-18.09-19.52-36.65-29.25-54.97h1.48c9.25,17.92,19.19,36.58,29.61,54.12h.01Z"/>
    <path class="st3" d="M285.99,566.5c4.95.38,9.52.91,14.81,1.1,6.78.25,13.18.09,19.26,0h1.48c3.31-2.63,7.83-3.47,10.37,0,3.07-2.81,5.06-2.81,5.93,0,1.03-1.33,2.03-1.7,2.96-1.1.98-.05,1.98.04,2.96,0,2.05-.08,5.9-.45,7.39.54-18.34,14.34-52.78,14.31-71.08,0,.77-.98,4.46-.66,5.91-.54h0Z"/>
    <path class="st37" d="M222.3,405.25c-6.14-9.52-11.03-21.42-14.39-31.79-5.55-17.08-9.99-34.1-.42-51.05-9.66,28.11,4.82,56.03,14.81,82.83h0Z"/>
    <path class="st20" d="M229.71,420.71c-4.19-3.17-4.43-8.11-5.93-12.15,4.29,2.94,4.3,8.35,5.93,12.15Z"/>
    <path class="st36" d="M459.25,604.05c-13.93-8.24-33-13.22-50.35-15.46,1.05-4.03-9.92-17.88-7.41-19.88,2.04-1.62,20.93-6.82,24.81-7.45,39.2-6.24,39.33,21.99,32.94,42.79h.01Z"/>
    <path class="st21" d="M383.73,609.57c-12.83,14.04-33.37,26.64-57.76,24.29,3.14-3.34,21.66-23.94,23.7-24.29,11.29.32,22.79-.45,34.06,0Z"/>
    <path class="st7" d="M459.25,610.67c-6.68-1.92-12.65-5.08-19.27-7.15-15.07-4.74-31.05-7.74-47.05-10.19l-25.48-2.53c30.68-5.23,70.57,2.1,91.82,19.85h-.01Z"/>
    <path class="st36" d="M231.19,574.23c-3.05,5.67-4.33,13.8-5.93,19.88-9.6,6.02-28.48,10.74-38.5,17.68-21.26-29.53,4.57-46.44,44.43-37.55h0Z"/>
    <path class="st7" d="M263.75,594.13l-18.14,3.56c-24.5,7.14-48.81,15.68-67.72,29.55,4.5-9.88,19.2-17.61,31.05-22.66,15.27-6.5,37.38-12.94,54.81-10.46h0Z"/>
    <path class="st0" d="M484.42,560.98c-14.02-10.58-31.33-20.4-52.57-19.96-7.35.16-14.32,3.19-21.45,2.84,26.02-15.32,62.55-4.22,74.03,17.12h0Z"/>
    <path class="st0" d="M235.62,557.65c-29.01-5.59-58.92-2.45-79.95,14.36,9.43-21.15,51.57-26.24,75.48-17.09,1.7.65,4.11,1.02,4.47,2.73h0Z"/>
    <path class="st17" d="M444.45,323.52c7.13,14.63,10.29,30.08,4.44,45.29-2.61,23.92-28.31,68.35-41.46,91.67-17.06,30.26-37.05,59.94-56.28,89.46-1.73-.54-.8-2.12,0-3.32,16.53-24.81,31.65-50.54,45.91-76.21,10.79-19.44,21.91-39.17,31.12-59.06,14.58-31.47,25.56-59.91,11.82-93.34,1.27,1.77,3.17,3.68,4.44,5.52h0Z"/>
    <path class="st40" d="M351.14,546.62c-.2,1.04.28,2.38,0,3.32-1.64,5.36-7.59,11.37-10.37,16.56-.31.01-1.58,1.05-2.96,1.1-.55-.63-1.01-1.27-1.16-1.96-.49-2.19,11.32-17.57,14.49-20.14v1.1h0Z"/>
    <path class="st13" d="M334.86,513.49c.42,11.73,0,23.61,0,35.34l-2.99-.65c0-21.5.07-43.02.03-64.52,3.06,8.47,1.06,18.3,1.43,27.14.06,1.42,1.54,2.53,1.54,2.67h0Z"/>
    <path class="st1" d="M351.14,545.52c-3.97,7.42-9.82,14.48-13.33,22.09-1.96.08-3.95-.09-5.93,0-2.66-2.54-1.01-4.01,2.96-3.32v-1.1c5.95-6.33,10.12-13.53,15.04-20.31.75-1.05,2.56-1.53,2.74-1.77-.61,1.42-.74,3.04-1.48,4.42h0Z"/>
    <path class="st27" d="M321.53,567.61c2.49-1.89,7.8-12.44,8.9-13.25,4-2.91,2.81,6.09,2.89,7.26.1,1.5,1.52,2.53,1.52,2.68,0,.69-2.45,2.4-2.96,3.32-3.42.16-6.93-.06-10.37,0h.01Z"/>
    <path class="st10" d="M448.9,368.81c1.66-15.13-.7-30.48-4.44-45.29,10.47,15.22,14.77,28.8,4.44,45.29Z"/>
  </g>
  <g>
    <path class="st26" d="M640.46,689.42l-7.66,15.52h-19.14c-13.41-13.82-14.88-22.26-3.83-38.81,8.01-9.12,34.27,12.42,30.62,23.28h.01Z"/>
    <path class="st29" d="M724.68,320.77c11.89-1.63,22.9,13.13,15.31,23.28,18.26,6.82,35.43,47.16,30.62,65.97,12.21,1.81,24.37,17.06,15.31,27.16,26.18,64.61,54.46,167.97,0,225.07,3.99,12.29-24.95,31.61-34.45,23.28-29.72,15.35-80.65,18.54-111.01,3.88-1.73-.83-28.09-20.88-30.62-23.28-29.43-27.92-48.04-80.53-34.45-120.3,3.97,5.17,6.52,11.63,7.66,19.4,5.7,6.71,8.75,16.8,9.16,30.28,10.71,10.07,15.32,19.38,13.81,27.93,44.67,23.58,89.1,33.89,126.7-7.99,84.91-94.58-77.83-213.57-144.44-94.69l-9.06-2.1c5-26.36,19.53-64.59,30.62-89.25-9.56-9.23,3.62-26.11,15.31-27.16-3.88-19.07,12.65-47.71,30.62-54.33-8.77-7.51-.36-25.17,11.48-23.28,3.78-5.9,29.72-41.41,32.56-42.67,6.43,13.94,17,25.99,24.86,38.79h.01Z"/>
    <path class="st31" d="M579.22,518.68c17.57-15.39,23.38-33.94,45.74-44.84,41.11-20.06,85.77-12.06,115.13,23.42,74.98,90.6-48.93,211.01-134.07,126.2l6.3-6.26c104.52,8.88,37.79-135.63-20.98-54.49l-8.29,2.54-7.62,3.88c.08-7.73-.26-15.55-.04-23.28.31-10.94,1.91-17.03,3.83-27.16h0Z"/>
    <path class="st22" d="M609.84,266.44c23.1,8.93,39.3,41.35,57.42,58.21-3.6,5.62-7.35,16.35-11.48,23.28-3.67,3.79-7.54,6-10.92,2.12l-45.43-49.16-45.4,91.93c22.05,2.4,44.26,2.85,66.62,1.35l4.51,8.09c-4.43,8.84-11.94,19.66-15.31,27.16-27.63-4.08-76.03,12.78-88.04-19.4-1.53-6.96-.26-9.55,3.83-7.76,3.93-.13,5.67-5.9,5.23-17.31l47.1-103.24c7.42-9.03,18.05-14.12,31.89-15.27h-.02Z"/>
    <path class="st11" d="M755.3,309.13l28.17-18.04c23.54-15.17,44.29-15.58,49.32,16.44l16.36,100.38c-.32-3.49,1.78-5.25,5.68-5.65,1.09-3.39,2.37-3.34,3.83,0,1.71,48.15-37.75,47.18-72.73,34.92-2.74-6.76-11.21-18.31-15.31-27.16.27-5.19,1.55-9.48,6.43-8.67l46.38,6.79c-4.02-34.27-11.06-68.18-19.05-101.72-19.6,16.49-39.56,30.24-59.88,41.24l-4.5-3.62c-3.27-5.79-10.76-15.88-15.31-23.28,5.48-4.98,13.56-7.67,19.14-11.64,4.17-1.43,8-1.43,11.48,0h-.01Z"/>
    <path class="st8" d="M820.38,274.2c24.67,12.74,23.64,56.8,26.8,81.49,5.87,15.87,8.42,31.39,7.66,46.57,2.68,33.53-30.39,29.42-53.57,23.24l31.74-4.62c5.81-1.75,9.67-6.99,10.42-13.01.81-6.57-16.89-95.84-20.2-107.44-8.83-30.95-45.39,1.3-67.92,8.7,10.18-18.86,40.72-41.22,65.08-34.92h0Z"/>
    <path class="st9" d="M609.84,266.44l-2.97,4.9c6.13,1,17.64,18.34,14.42,22.26-12.62-4.55-23.51-24.23-37.27-10.59-14.97,14.84-34.33,89-50.13,110.25-1.62,16.97,28.34,9.06,33.82,20.6-15.08-1.02-34.64,6.08-42.09-11.6-5.71-4.66-5.71-12.42,0-23.28,5.5-16.3,11.83-27.94,19.14-42.69,3.64-13.43,10.02-25.07,19.14-34.92,1.84-5.37-1.62.58,3.86-10.38,10.56-21.11,12.01-36.17,42.07-24.54h0Z"/>
    <path class="st14" d="M785.93,662.26c16.31,29.7-16.44,50.63-34.45,23.28,3.68-1.9,33.01-21.77,34.45-23.28Z"/>
    <path class="st2" d="M820.38,274.2c-24.44-2.07-47.28,19.78-65.08,34.92-3.26,1.07-4.99,6.15-11.48,0,21.72-15.44,47.93-49.71,76.56-34.92h0Z"/>
    <path class="st15" d="M858.66,402.26h-3.83c-.98-12.25-5.74-31.56-7.66-46.57,6.11,12.36,11,32.99,11.48,46.57h.01Z"/>
    <path class="st38" d="M563.9,301.37c-4.33,12.6-13.68,23.89-19.14,34.92,1.45-10.44,7.56-35.77,19.14-34.92h0Z"/>
    <path class="st32" d="M525.62,402.26c-.11,1.05-4.2,4.86-3.83,7.76-8.35-22.36-.76-17.43,3.83-31.04-3.68,7.29.55,17.79,0,23.28Z"/>
    <path class="st6" d="M606.01,623.45c-20.14-20.06-27.45-26.2-22.97-58.21,6.19-44.21,77.92-46.73,90.06-.13,11.13,42.73-28.8,70.81-67.09,58.34Z"/>
    <path class="st44" d="M789.72,534.18l-72.69-174.57c6.96-1.46,9.53,3.4,13.16,7.96,30.29,38.06,56.18,117.79,59.53,166.6h0Z"/>
  </g>
</svg>