<?xml version="1.0" encoding="UTF-8"?>
<svg id="Ebene_1" xmlns="http://www.w3.org/2000/svg" version="1.1" viewBox="0 0 1024 1024">
  <!-- Generator: Adobe Illustrator 29.5.1, SVG Export Plug-In . SVG Version: 2.1.0 Build 141)  -->
  <defs>
    <style>
      .st0 {
        fill: #85cfed;
      }

      .st1 {
        fill: #da9034;
      }

      .st2 {
        fill: #818080;
      }

      .st3 {
        fill: #727271;
      }

      .st4 {
        fill: #2da9e0;
      }

      .st5 {
        fill: #40403f;
      }

      .st6 {
        fill: #272726;
      }

      .st7 {
        fill: #c4e5f6;
      }

      .st8 {
        fill: #fbfbfb;
      }

      .st9 {
        fill: #90908f;
      }

      .st10 {
        fill: #bb6523;
      }

      .st11 {
        fill: #565655;
      }

      .st12 {
        fill: #bebdbd;
      }

      .st13 {
        fill: #dcdcdc;
      }

      .st14 {
        fill: #3c3c3b;
      }

      .st15 {
        fill: #fcd69c;
      }

      .st16 {
        fill: #fcdb9f;
      }

      .st17 {
        fill: #f8b23c;
      }

      .st18 {
        fill: #767575;
      }

      .st19 {
        fill: #a4a3a3;
      }
    </style>
  </defs>
  <path class="st0" d="M542.08,552.19l2.06-.39c31.97,62.15,63.95,124.33,95.95,186.53l-.41,3.6-296.74,1.06,96.61-190.8,4.33-.16c29.59,13.9,64.27,13.75,93.88-.02l4.32.18h0Z"/>
  <path class="st17" d="M574.62,526.47c-1.83,1.89-4.38,5.04-5.92,6.43l-.11,2.87c-7.57,6.49-15.56,12.51-24.06,17.49l-2.45-1.06c-30.79,16.33-71.75,16.52-102.53,0-93.14-50-80.96-203.7,17.75-233.69,114.96-39.58,201.09,115.4,117.32,207.96Z"/>
  <path class="st4" d="M639.68,741.93l-97.6-189.74c7.97-4.22,19.73-13.08,26.62-19.3l99.19,152.2c.91,2.91-1.24,5.63-2.4,8.25-7.24,16.3-18.54,32.08-25.8,48.59h-.01Z"/>
  <path class="st16" d="M574.62,526.47l15.2-22.6c53.16-98.99-30.53-216.36-132.52-185.37,54.99-23.42,119.43,7.82,143.12,65.74,20.18,49.34,9.95,105.28-25.8,142.22h0Z"/>
  <path class="st7" d="M614.01,726.88c-4.35.27-12.61,9.48-15.64,4.76l-44.45-130.13,60.09,125.37Z"/>
  <path class="st1" d="M531.24,384.97h-3.5c-44.82-31.69-101.22,13.4-88.19,68.61l2.25.94c3.63,11.6,10.74,21.95,19.43,29.66v2.63c45.31,34.13,105.39-13.85,87.72-71.68l1.01-3.36c17.17,38.41-5.64,86.46-43.36,95.96-51.6,12.99-94.85-39.68-76.4-93.8,15-44.02,68.29-60.54,101.03-28.96h.01Z"/>
  <path class="st10" d="M531.24,384.97c7.05,5.48,15.71,17.94,18.73,26.8,15.6,45.75-16.58,92.64-61.5,87.77-8.87-.96-20.99-5.58-27.23-12.73l3.31-.26c13.8,8.89,31.08,9.79,45.72,2.77l3.22.71c39.58-29.07,36.3-85.06-8.87-105.05l-2.83,1.46c-35.87-8.98-67.68,24.97-60.79,64.12l-1.45,3.03c-8.71-25.97,3.09-56.29,23.93-70.99,20.68-14.59,47.79-13.14,67.75,2.39v-.02Z"/>
  <path class="st15" d="M589.39,442.85l-9.39-27.83c-15.58-39.69-40.45-60.92-73.44-82.06-1.27-.82-2.48.19-1.94-2.66,51.6-1.16,97.54,56.94,84.77,112.55h0Z"/>
  <path class="st5" d="M504.62,384.97c39.77,19.94,42.65,77.43,8.87,105.05-16.37,9.04-36.78,8.11-52.25-3.22-8.61-6.3-19.43-22.24-21.69-33.23-8.89-43.35,25.65-79.91,65.07-68.61h0Z"/>
  <path class="st6" d="M513.49,490.02c-1.97-.45,1.03-2.72,1.48-3.22,19.79-21.42,27.14-49.43,12.13-77.51-5.89-11.02-13.86-16.42-22.48-24.33,46.79,13.42,52.25,81.09,8.87,105.05h0Z"/>
  <path class="st2" d="M475.79,406.69c34.33-4.91,48.61,47.03,18.3,63.84-42.75,23.71-65.07-57.16-18.3-63.84Z"/>
  <path class="st14" d="M459.62,462.84c-28.61-31.12,18.73-78.18,44.01-40.89,20.33,29.97-18.66,68.47-44.01,40.89h0Z"/>
  <path class="st11" d="M475.79,413.12c34.19-5.26,38.71,48.66,9.37,54.13-34.99,6.52-40.63-49.32-9.37-54.13Z"/>
  <path class="st18" d="M487.86,418.2c.41.11,3.11,1.69,3.94,2.14,2.42,1.61,4.35,3.85,5.92,6.43.88,1.66,2.36,4.74,2.96,6.43,8.86,37.92-46.9,41.93-41.87,2.69.36-2.81,1.85-7.65,4.41-8.05l.99,2.35c-8.06,15.5,7.81,36.22,23.12,27.82,25.95-14.24-1.08-53.39-21.91-29.7l-2.2-.47c-.45-.3-.8-.54-.77-.6,4.08-9.7,16.77-12.8,25.42-9.04h-.01Z"/>
  <path class="st3" d="M487.86,418.2c-8.19-2.22-16.68-.89-22.75,5.85-1.45,1.61-1.29,2.81-1.9,3.8-1.81,2.95-3.27,3.43-3.85,8.13-4.6,37.23,47.86,35.41,41.32-2.77,8.96,25.19-23.27,42.95-37.98,22.53-13.86-19.24,4.05-47.93,25.16-37.54Z"/>
  <path class="st3" d="M497.72,426.77l-5.92-6.43c4.45,2.43,3.6,2.04,5.92,6.43Z"/>
  <path class="st9" d="M463.21,427.84c1.5-2.47,8.68-7.75,11.57-8.33,23.85-4.78,34,26.71,15.38,39.24-18.43,12.4-37.87-12.89-26.95-30.91Z"/>
  <path class="st19" d="M475.76,421.67c20.28-4.08,29.74,23.06,14,34.51-15.33,11.15-34.18-7.92-24.78-25.88,1.96-3.74,6.86-7.84,10.78-8.63Z"/>
  <path class="st12" d="M476.76,423.82c6.21-1.09,11.67.74,15.45,6.27,11.15,16.32-7.84,35.57-22.11,22.97-9.85-8.69-5.58-27.09,6.66-29.24h0Z"/>
  <path class="st13" d="M476.73,428.07c10.7-2.68,19.34,9.95,12.16,19.65-8.95,12.07-25.2-.16-18.96-13.12,1.19-2.47,4.28-5.89,6.8-6.52h0Z"/>
  <path class="st8" d="M479.73,432.34c8.95-.84,9.94,15.21.67,15.87-8.91.63-10.29-14.97-.67-15.87Z"/>
</svg>