<?xml version="1.0" encoding="UTF-8"?>
<svg id="Layer_1" xmlns="http://www.w3.org/2000/svg" version="1.1" viewBox="0 0 481.92 482.16">
  <!-- Generator: Adobe Illustrator 29.5.1, SVG Export Plug-In . SVG Version: 2.1.0 Build 141)  -->
  <defs>
    <style>
      .st0 {
        fill: #f7ec1a;
      }

      .st1 {
        fill: #fbf05d;
      }

      .st2 {
        fill: #cde3b3;
      }

      .st3 {
        fill: #f2662f;
      }

      .st4 {
        fill: #fefefe;
      }
    </style>
  </defs>
  <path class="st0" d="M376.29,161.61c7.7,12.6-1.73,29.45-13.5,38.57-13.31,9.93-23.37,18.65-30.4,33.44-9.75,29.8-18.86,53.39-52.61,67.05-16.3,4.8-32.95,8.01-49.96,9.61-18.81,4.01-31.38,11.58-46.71,22.31-11.36,6-28.6,8.63-36.66-1.6-12.34-13.54-26.82-23.18-16.96-43.49,7-14.41,22.23-20.27,32.57-32.64,22.6-27.03,13.58-52.6,50-76.45,31.07-20.35,60.24-5.92,88.63-23.7,6.17-3.86,11.83-9.5,18.08-13.27,14.66-8.84,33.45-8.38,44.09,3.91,4.63,5.35,9.1,10.72,13.44,16.27h0Z"/>
  <path class="st2" d="M146.45,330.98c8.11,5.59,17.24,6.6,27.31,3.76,11.5-3.23,17.94-10.41,27.95-16,36.92-20.65,66.84-3.22,102.78-35.4,22.4-20.05,18.15-43.08,34.55-63.87,14.58-18.48,37.13-23.17,38.41-48.69.18-3.59-.37-5.77-1.15-9.18,7.03,9,10.13,12.35,6.79,24.5-5.18,18.84-20.74,22.89-33.34,36.43-18.76,20.16-15.33,43.33-33.55,63.4-36.5,40.2-71.56,18.13-110.8,42.48-3.76,2.33-7.01,5.47-10.7,7.8-15.41,9.73-34.11,11.94-46.25-1.51-1.31-1.45-1.85-3.56-2-3.72h0Z"/>
  <path class="st4" d="M279.26,195.17c40.33,37.52-12.87,95.87-57.88,72.35-32.21-16.83-28.98-60.55,5.25-77.72,16.36-8.21,40.16-6.23,52.63,5.37h0Z"/>
  <path class="st1" d="M241.32,287.37c12.81-5.84,26.84-10.25,39.47-16.38,4.32-2.1,13.16-6.35,16.52-9.14,6.29-5.22,11.73-21.6,15.67-29.04,6.12-11.57,14.39-22.49,25.42-30.72l-13.19,22.34c-6.71,17.07-8.64,33.88-19.92,49.62-13.97,19.49-45,27.31-63.97,13.32h0Z"/>
  <path class="st3" d="M267.69,204.66c33.39,28.8-16.28,71.8-43.7,47.17-32.16-28.89,17.21-70.01,43.7-47.17Z"/>
</svg>