<?xml version="1.0" encoding="UTF-8"?>
<svg id="Ebene_1" xmlns="http://www.w3.org/2000/svg" version="1.1" viewBox="0 0 1024 1024">
  <!-- Generator: Adobe Illustrator 29.5.1, SVG Export Plug-In . SVG Version: 2.1.0 Build 141)  -->
  <defs>
    <style>
      .st0 {
        fill: #e76951;
      }

      .st1 {
        fill: #9ccbc7;
      }

      .st2 {
        fill: #f3cfc9;
      }

      .st3 {
        fill: #f8e1dd;
      }

      .st4 {
        fill: #62b9b6;
      }

      .st5 {
        fill: #f7c963;
      }

      .st6 {
        fill: #b5d9d8;
      }

      .st7 {
        fill: #fbd641;
      }

      .st8 {
        fill: #f8e2de;
      }

      .st9 {
        fill: #e76a52;
      }

      .st10 {
        fill: #f3baa9;
      }

      .st11 {
        fill: #fbd741;
      }

      .st12 {
        fill: #feec00;
      }

      .st13 {
        fill: #e87a65;
      }

      .st14 {
        fill: #f3beb0;
      }

      .st15 {
        fill: #12a099;
      }

      .st16 {
        fill: #e88673;
      }

      .st17 {
        fill: #feec01;
      }
    </style>
  </defs>
  <path class="st13" d="M533.48,432.77c7.4,1.48,15.12,3.83,21.69,7.43.98.53,1.35,1.52,1.4,2.58,1.5,2.36-2.59,5.3-4.81,3.64l-1.98.91c-9.47-5.84-20.43-9.35-31.9-6.45,6.03,6.05,11.66,12.43,16.89,19.13l.62,3.7-.28,3.41c-14.77,19.87-15.28,46.79-5,68.41,3.02,7.17-3.51,12.7-10.17,7.55-19.71-15.49-46.39-18.98-70.79-12.62,9.49,20.98,26.7,38.29,50.8,44.15,2.63.59,3.05,2.86,2.57,5.04-4.77,18.66-2.91,34.16,5.1,52.35,1.33,3.04,14.23,20.66,16.52,20.9,3.36.36,15.99-18.93,17.02-21.02,9.18-18.61,9.72-36.55,4.38-56.32,19.32-9.56,37.99-21.32,45.77-41.58l2.77-2.04c1.75-2.23,7.4-.06,6.74,2.73,8.28.43,17.23,9,22.91,14.92,14.3,14.9,21.92,34.59,20.56,54.74-.52,7.69-1.81,19.19-7.87,24.1l1.38,1.56c-2.47,5.08-5.35,10.03-8.59,14.71l-2.43.11.57,2.27c-14.04,15.78-32.24,25.49-54.45,26.85-5.72.16-12.9.64-18.28-.91-.65-1.48,5.44-.37,5.15-.42-16.2-2.91-22.16-5.6-35.05-14.56l-.88-2.3c-2.62.48-4.86,1.4-6.74,2.73-1.18,1.1-2.68.9-4.49-.61-1.35,1.11-2.38,1.72-4.17.61-2.15,4.9-10.7,8.96-16.15,11.03-6.99,2.65-15.9,3.97-23.3,3.54-.35-.43-.65-.88-.86-1.36-1.65-4.15,10.37-5.89,13.45-5.92,9.95-4.34,19.4-9.53,28.39-15.57-15.9-19.6-22.3-46.46-15.4-70.17-18.24-2.26-32.17-15.74-43.14-29.1-3.64-4.43-11.81-16.91-5.51-20.77-2-1.62-1.64-2.04.96-1.82-.4-2.45.96-4.51,3.22-5.76,7.31-4.04,33.12-2.74,41.56-.85,10.78,2.41,19.11,6.52,28.33,11.63-8.33-22.89-6.12-48.94,7.06-69.79-4.56-7.06-9.06-13.59-16.73-17.77-5.3-8.04,4.32-12.95,9.92-13.3l1.7-.62c.15-2.53,5.68-3.29,6.74-.91.26.06,2.37,1.21,4.81,1.82h0Z"/>
  <path class="st13" d="M445.93,530.16c-2.24,5.76,2.42,12.76,5.74,17.77,9.69,14.6,26.51,27.51,44.29,31.38-5.41,25.38-.76,51.51,17.31,71.45.11.36-4.18,1.53-5.29,2.26-7.57,4.92-16.01,11.62-25.24,14.34-4.32,1.27-12.04-.2-13.71,5.69-.26.38-.91.68-1.93.91-5.53.04-10.18-.32-15.4-.91-1.1-1.53,5.1-.88,4.81-.9-13.9-1.2-21.77-4.15-32.96-12.3-49.12-35.81-38.18-108.28,18.78-130.33l3.6.63h-.01Z"/>
  <path class="st13" d="M521.93,431.85c.5,2.36-1.16,1.89-2.67,2.44-3.6,1.31-8.45,2.1-8.45,7.12s4.97,4.95,6.74,6.87c1.66,1.83,4.14,4.54,5.73,6.42,1.84,2.18,3.8,6.27,6.02,8.56-14.15,22.48-16.35,50.02-5.44,74.16l-20.22-10.45c-6.8-2.09-14.52-4.45-21.64-5.01-5.73-.45-26.99-.35-31.2,2.31-.24.15-3.75,3.81-3.9,4.04-1.08-.53-2.18-1.2-2.74-2.26-2.85-5.34-3.39-19.04-3.02-25.33,1.9-33.18,25.63-58.23,56.77-67.07,4.39-.99,5.87-1.32,10.59-1.82,1.01-3.4,12.41-3.26,13.47,0l-.03.02Z"/>
  <path class="st15" d="M339.12,643.92c3.39,1.93-1.55,5.38-3.85,2.73l-1.8,1.17c-4.56-2.96-9.19-4.08-13.91-3.36l7.65,8.94-.6,2.35.42,2.89c-10.73,17.85-4.92,38.28,12.2,50.12l-.11,2.5c-36.52,18.68-74.77-18.97-54.65-53.07,10.84-18.39,35.4-24.27,54.65-14.28h.01Z"/>
  <path class="st15" d="M687.43,448.24c3.37,1.98-1.65,5.39-3.85,2.73l-1.84,1.14c-5.73-3.38-21.2-7.22-8.81,2.23,2.48,1.97,3.15,3.88,1.99,5.75l.4,2.89c-10.54,17.15-5.05,37.96,11.36,49.83l.74,2.79c-15.55,7.88-32.62,6.57-46.19-4.55l-2.32.47c-3.47-2.61-12-12.29-9.23-15.94-12.31-33.64,24.12-64.14,57.73-47.33h.01Z"/>
  <path class="st15" d="M723.99,643.92c1.67,2.21-1.84,4.45-3.85,2.73-2.97.42-6.31-.3-10.03-2.16-8.17-2.15-7.59.57,1.72,8.15l-.35,2.21c2.53.51,2.43,1.1,0,1.82l.35,2.65c-11.41,16.33-4.49,38.28,11.58,49.39l.58,2.57c-32.87,16.44-69.8-12.38-58.69-45.51-2.37-3.41,5-13.72,7.94-16.36l2.63-.02c12.63-11.52,32.97-13.03,48.1-5.46h.01Z"/>
  <path class="st15" d="M528.66,703.08c3.17.74,5.12,2.35,7.69,3.64,2.53,1.85-.43,4.03-2.88,2.73l-2.51.91c-4.27-2.45-8.72-3.62-13.36-3.54l7,9.62-.77,2.1.38,2.87c-10.68,17.66-4.8,38.62,12.35,50.21l-.21,2.45c-35.16,17.59-73.08-17.11-55.98-50.69,4.71-9.26,17.15-19.71,28.09-21.22l.82-1.93c6.24-.45,12.59-.16,18.77.84l.63,1.99h-.01Z"/>
  <path class="st15" d="M536.37,326.28c3.34,1.97-1.49,5.37-3.85,2.73l-1.76,1.19c-5.68-3.46-21.57-7.65-8.89,2.16,2.48,1.97,3.15,3.88,1.99,5.75l.4,2.89c-10.59,17.15-4.87,37.9,11.39,49.83l.72,2.79c-2.37,1.19-5.09,3.03-7.69,3.64l-.57,1.98c-6.03.98-12.22,1.24-18.33.89l-1.31-1.97c-9.95-1.37-22.38-11.19-27.1-19.41-19.4-33.86,18.75-70.4,55-52.48h0Z"/>
  <path class="st15" d="M373.75,449.15c1.7,2.32-2.77,4.5-4.81,2.73l-1.78,1.1c-6.31-2.16-21.5-7.34-8.79,2.24,2.39,2.13,3.03,4.04,1.9,5.75l.45,2.84c-10.4,17.24-5.19,38.71,12.12,49.93l.89,2.74c-29.55,14.48-62.85-5.38-60.66-36.91,1.95-28.05,34.78-43.55,60.66-30.45v.02Z"/>
  <path class="st0" d="M497.88,433.68c2.42.88-1.06,1.37-1.69,1.57-40.76,13.13-62.8,54.04-49.3,93.08-.15.25-.88,1.61-.96,1.82-45.56,15.71-65.26,65.63-41.54,106.19,10.41,17.8,30.82,32.21,52.12,35.81l-4.81.9c-20.29-2.29-40.3-11.76-52.93-27.3l-2.56-.21c-2.71-2.6-9.03-12.97-7.06-16.17-15.37-34.03-1.95-76.51,32.72-94.66l.42-2.25c5.16-2.32,10.68-3.88,16.16-5.33-1.1-2.36-.86-4.08.74-5.16-8.91-41.33,15.52-78.52,58.69-88.29h-.01Z"/>
  <path class="st4" d="M349.71,650.3l2.24-.33c3.56,4.49,6.41,9.45,8.66,14.63l-1.3,2.08c5.2,18.08-3.01,35.81-20.21,44.6-3.85-3.91-8.4-6.68-11.77-11.16-10.2-13.59-9.98-30.4-.74-44.35.28-.79.59-.78.96,0h1.96l12.38,16.23c4.36-7.64-.09-17.21-6.77-22.28l.14-2.14c-.83-.26-.82-.57,0-.91.68-.54,3.5-.54,3.85-2.73,2.71,1.41,8.62,4.46,10.59,6.37h.01Z"/>
  <path class="st4" d="M392.04,497.39l1.23,1.79c-3.07,5.03-6.58,9.76-10.57,14.18l-2.2-.49c-.45.36-5.69,3.13-6.74,3.64-20.47-12.08-26.4-36.05-13.47-55.51l2.9.48c4.77,5.01,8.84,10.47,12.21,16.36,5.22-7.78-.33-18.29-6.81-23.9l.38-2.04,4.81-2.73c17.34,8.78,25.23,30.9,18.28,48.24h-.01Z"/>
  <path class="st4" d="M687.43,515.59c-19.44-13.11-25.62-35.94-12.51-55.51.28-.79.59-.78.96,0l2,.16,12.15,16.3c4.67-7.55.03-17.36-6.62-22.51l.16-2.13c-.83-.26-.82-.57,0-.91.68-.54,3.5-.54,3.85-2.73,28.63,14.33,28.79,52.77,0,67.35h.01Z"/>
  <path class="st4" d="M536.37,393.64c-19.26-13.19-25.69-35.98-12.51-55.51.28-.79.59-.78.96,0l2,.16,12.15,16.3c4.67-7.59.15-17.38-6.6-22.5l.14-2.14c-.83-.26-.82-.57,0-.91.68-.54,3.5-.54,3.85-2.73,28.58,14.12,28.84,52.87,0,67.35h.01Z"/>
  <path class="st4" d="M536.37,774.07c-3.36-3.64-7.86-6.19-10.98-10.09-10.63-13.23-11.24-31.71-1.52-45.43.28-.79.59-.78.96,0l2.08-.37,12.31,16.64c4.02-8.09.11-16.93-6.62-22.53l.89-1.94c-.89-.31-.89-.61,0-.91.44-.96,2.44-1.48,2.88-2.73,28.83,14.47,28.58,53.05,0,67.35h0Z"/>
  <path class="st4" d="M723.99,711.28c-18.71-11.39-26.68-37.2-12.51-54.61,1.31-1.22,2.72-.88,4.26,1.08l10.68,15.02c3.56-7.84.82-17.45-6.12-22.84l-.15-2.36c-.84-.26-.83-.56,0-.91l3.85-2.73c28.19,14.11,28.12,53.28,0,67.35h0Z"/>
  <path class="st8" d="M647.01,633.92c-.26.78-.59.77-.96,0-2.63,1.77-9.29-2.71-9.62-5.46,15.8-36.44-.2-74.94-35.6-93.74-3.89-2.19.53-4.82,3.85-3.64-.64-1.79.34-2.13,1.93-.91,5.24,4.18,11.72,6.66,17.23,10.55,23.89,16.81,34.86,45.61,29.48,73.23-1.33,6.87-4.6,13.23-6.31,19.98h-.01Z"/>
  <path class="st12" d="M439.19,521.96c.47,2.16,1.01,4.33,1.93,6.36-5.67,1.42-14.25,3.77-19.25,6.38l-41.37-21.85c2.37-1.88,10.46-12.76,11.54-15.47l47.15,24.58h0Z"/>
  <path class="st12" d="M389.15,629.37c2.32,5.13,6.02,11.96,9.62,16.38l-39.45,20.93c-1.12-3.88-6.74-13.56-9.62-16.38l39.45-20.93Z"/>
  <path class="st17" d="M519.04,660.3c2.49-2.21,10.03,3.4,9.62,6.37v36.41c-4.83-1.13-15.33-1.58-20.21-.91v-36.41c.79-3.19,6.81-8.06,9.62-5.46.2-.85.53-.82.96,0h.01Z"/>
  <path class="st12" d="M641.24,511.04l-34.63,19.11c-.62.33-1.31.57-1.93.91-3.32.7-8.95.2-10.42-2.92-.37-.77,3-14.08,4.66-15.28-1.2-1.35-.65-1.85.96-.91,9.88-5.53,20.05-10.66,29.82-16.38,1.93,5.25,7.09,11.82,11.54,15.47h0Z"/>
  <path class="st17" d="M528.66,397.27v33.68c-.33-.07-4.38,1.06-6.74.91-5.99-.4-7.14-.67-13.47,0v-33.68c4.7.64,15.54.17,20.21-.91Z"/>
  <path class="st12" d="M675.88,649.38c-3.27,2.99-9.22,12.29-10.59,16.38l-29.82-16.38-1.03-1.84c.72-1.41,8.55-13.11,9.27-13.55.65-.41,1.56-.25,2.34-.09.24.14.72-.14.96,0,9.58,5.19,19,10.74,28.87,15.47h.01Z"/>
  <path class="st2" d="M599.87,511.95c-.34.19-.6.72-.96.91-.05,2.79-3.44,4.65-5.78,2.73l-1.54-3.14c3-26.4-9.95-52.09-33.45-66.57l-1.57-3.09c-6.92-3.97-14.92-7.95-23.09-10.01,40.59,4.2,69.33,41.42,66.4,79.18h-.01Z"/>
  <path class="st8" d="M634.5,649.38c-16.27,17.75-37.38,23.86-61.57,24.58,9.87-2.45,19.46-4.32,28.55-8.95,8.02-4.09,19.95-13.29,25.33-20.18,3.44-1.11,7.18,1.19,7.69,4.55Z"/>
  <path class="st11" d="M646.06,633.92l-10.59,15.47c-.24-.14-.72.14-.96,0-2.57-1.42-5.14-3.09-7.69-4.55,2.78-3.55,7.83-12.25,9.62-16.38,3.58,1.2,6.41,3.73,9.62,5.46h0Z"/>
  <path class="st9" d="M523.85,655.75c4.61,1.3,13.85,8.96,20,11.57,5.26,2.24,10.81,4.03,16.55,4.82-.14,1.63-4.49.94-5.77.9-7.24-.22-19.48-3.4-25.98-6.37-2.24-1.03-7.72-5.75-9.62-6.37-1.84-2.73,2-4.66,4.81-4.55h0Z"/>
  <path class="st3" d="M508.46,665.77c-14.41,6.49-25.51,8.07-41.37,8.2.24-.89,1.11-.85,1.93-.91,16.39-1.08,26.27-6.18,39.45-14.56,3.29.73,2.29,5.55,0,7.28h-.01Z"/>
  <path class="st16" d="M593.13,515.59c1.41,3.82,1.15,8.23-.81,13.24,1.5.7,2.35,1.34,1.78,3.14-7.11,21.2-26.1,35.61-47.07,44.21,7.83,22.79,3.88,47.68-10.81,67.12-1.62,2.15-9.59,11.56-11.86,11.56-3.71,0-16.68-18.6-18.64-22.44-5.38-10.55-8.37-24.64-7.86-36.34.14-3.04,3.66-18.53,2.83-19.45-24.36-5.39-45.67-24.34-52.9-46.85,20.84-7.81,46.38-4.43,65.43,6.33,2.78,1.57,10.34,8.15,12.55,7.26,6.75-2.72,1.25-8.98-.24-13.45-7.48-22.63-5.8-47.16,9.88-66.23l2.37.87c9.95,10.48,18.71,21.82,26.29,34.01,9.82-15.86,1.96-37.97-11.99-49.58l-.3-2.6,4.81-3.64c26.76,15.36,40.95,43.13,36.56,72.81h-.01Z"/>
  <path class="st14" d="M551.76,446.42c14.3,10.55,22.64,31.54,16.54,47.96-.48,1.3-3.68,8.73-5.45,6.64-7.57-13.48-17.51-25.41-27.43-37.3-6.8-8.15-13.12-16.48-21.16-23.65,8.32-2.89,17.7-2.57,25.96.46,2.37.87,9.72,4.54,11.56,5.9h-.01Z"/>
  <path class="st10" d="M605.65,641.19c5.33-25.02,7.3-50.96,6.27-76.46,24.18,7.27,29.02,39.42,18.63,58.61-4.48,8.27-14.34,18.08-24.9,17.85h0Z"/>
  <path class="st5" d="M598.91,512.86c1.51,2.57-3.39,14.82-2.9,15.47.26.35,7.42,1.32,8.66,2.74-1.69.94-4.44,1.95-3.85,3.64-2.23-1.19-4.81-1.79-6.74-2.73-.64-.31-3.88-2.19-3.93-2.4.89-4.72,2.27-9.2,2.97-13.98,1.88-.98,3.94-1.72,5.78-2.73h0Z"/>
  <path class="st7" d="M517.12,658.48c2.59-.35,2.93.19.96,1.82-1.86.26-7.01,4.29-9.62,5.46v-7.28c4.26-2.71,3.39-3.61,8.66,0h0Z"/>
  <path class="st13" d="M523.85,655.75l-4.81,4.55c-.21-.07-.73-.04-.96,0-.37-.46-.62-1.58-.96-1.82-.74-4.34,3.41-3.67,6.74-2.73h-.01Z"/>
  <path class="st1" d="M335.27,646.65c-.16.12.16.78,0,.91.91,2.78-4.97,7.28-7.69,8.2h-.96c-3.03-4.08-6.22-8.64-10.57-11.37,5.98-4.82,13.37-.57,19.24,2.27h-.01Z"/>
  <path class="st1" d="M683.57,450.97c-.16.12.16.78,0,.91,1.35,2.51-5.05,7.25-7.69,8.2h-.96c-2.59-4.53-6.87-7.7-10.56-11.37,6.11-4.36,13.55-.61,19.22,2.27h-.01Z"/>
  <path class="st6" d="M720.15,647.57c7.28,4.65,10.69,13.13,9.53,21.32-.2,1.47-2.15,8.4-4.23,5.98-3.4-3.97-7.18-10.82-10.68-15.39-.88-1.15-3.19-2.61-3.29-2.79-.19-.35.13-1.29,0-1.82-.67-3.44,5.07-10.1,8.66-7.28h0Z"/>
  <path class="st1" d="M720.15,646.65v.91c-4.13.66-5.61,5.09-8.66,7.28-2.85-2.6-6.8-6.22-9.15-9.1-.74-.91-1.86-1.16-1.44-2.73,7.11-2.21,13.12.41,19.24,3.64h.01Z"/>
  <path class="st1" d="M533.48,709.46c-.06.14-.06.78,0,.91-.59,2.78-5.78,7.21-8.66,8.2h-.96l-9.62-12.73c6.97-2.65,13.08,1,19.24,3.64h0Z"/>
  <path class="st1" d="M532.52,329.01c-.16.12.16.78,0,.91,1.35,2.51-5.05,7.25-7.69,8.2h-.96c-2.59-4.53-6.87-7.7-10.56-11.37,5.92-4.83,13.47-.51,19.22,2.27h-.01Z"/>
  <path class="st6" d="M368.94,451.88c8.23,5.76,15.55,21.93,5.78,29.12-3.07-7.54-9.14-13.79-14.44-20.02-1.2-1.4-2.04-3.1-3.36-4.56-1.1-1.21-7.2-6.33-7.2-6.81-.09-4.04,16.18.15,19.22,2.27h0Z"/>
  <path class="st6" d="M335.27,647.57c9.16,5.72,14.72,20.55,5.79,28.21-.42-4.88-13.28-17.07-13.48-20.02-.18-2.5,5.67-6.48,7.69-8.2Z"/>
  <path class="st6" d="M683.57,451.88c9,5.71,14.75,20.65,5.79,28.21-.47-4.8-13.48-17.21-13.48-20.02,0-2.66,5.55-6.39,7.69-8.2h0Z"/>
  <path class="st6" d="M532.52,329.92c9.17,5.72,14.72,20.55,5.79,28.21-.47-4.8-13.48-17.21-13.48-20.02,0-2.66,5.55-6.39,7.69-8.2h0Z"/>
  <path class="st6" d="M533.48,710.36c.47,1.05,4.93,4.69,6.31,7.23,3.6,6.69,4.49,14.29-.53,20.54l-14.44-19.58c-.14-2.09,6.04-7.8,8.66-8.2h0Z"/>
</svg>