<?xml version="1.0" encoding="UTF-8"?>
<svg id="Layer_1" xmlns="http://www.w3.org/2000/svg" version="1.1" viewBox="0 0 482.16 482.16">
  <!-- Generator: Adobe Illustrator 29.5.1, SVG Export Plug-In . SVG Version: 2.1.0 Build 141)  -->
  <defs>
    <style>
      .st0 {
        fill: #b07f3c;
      }

      .st1 {
        fill: #e5007e;
      }

      .st2 {
        fill: #af803c;
      }

      .st3 {
        fill: #f9e71c;
      }

      .st4 {
        fill: #fbf19d;
      }

      .st5 {
        fill: #f6a92d;
      }

      .st6 {
        fill: #fbf19e;
      }
    </style>
  </defs>
  <path class="st3" d="M293.5,97.69c.19-3.67,7.08-8.09,10.53-7.21,19.66-11.25,55.35-16.2,74.52-2.3,6.99,5.07,11.03,16.03,6.94,24.14,1.18,4.15-4.95,9.61-8.19,12.4-18.72,16.11-55.11,23.62-77.94,14.24-3.94-1.62-11.22-4.93-11.22-9.33-10.05-11.03-4.26-22.78,5.36-31.93Z"/>
  <path class="st3" d="M198.17,262.07c16.1-18.14,37.38,4.98,44.87,19.8,2.22-.72,5.95,8.43,6.17,10.26l-1,1.64c5.66,17.07,8.11,52.74-10.58,63.11-3.47,1.93-11.41,2.73-14.98,1.26-4.06,1.52-9.88-4.16-12.87-7.17-10.35-10.42-18.02-26.46-19.54-41.11-3.76-10.89-3.87-24.2-.44-35.35,1.3-4.22,3.94-11.83,8.38-12.45Z"/>
  <path class="st3" d="M345.07,222.06c3.95.56,8.34,6.34,8.11,10.31,8.38,12.39,14.15,32.86-3.98,40.24-2.1,4.01-10.07,3.81-14.41,3.55-18.98-1.12-37.86-13.21-51.08-26.2-5.38-5.28-10.44-12.4-13.38-19.36-1.72-4.06-4.51-11.36-1.46-14.75.7-15.23,14.68-19.82,27.53-18.84,17.54,1.34,36.57,12.68,48.68,25.06Z"/>
  <path class="st1" d="M169.42,304.04c2.12-2,8.64-1.27,9.84,1.46,10.68-4.68,10.83,16.84,0,12.82-.71,2.56-6.72,1.49-7.59-.79-20-2.37-39.87-7.94-59.96-9.55-5.26-.42-16.5-2.57-17.76,4.41-2.01,11.16,6.62,31.16,9.03,42.73,1.18,5.69,4.12,20.9-4.98,21.21-7.79.26-5.6-6.91-6.15-11.22-2.06-16.05-16.36-47.49-7.96-61.64,5.95-10.03,19.65-8.97,29.47-8.07,18.04,1.65,38.01,5.72,56.08,8.64Z"/>
  <path class="st5" d="M288.14,129.62c20.91,22.96,83.42,10.35,97.35-17.31,15.28,16.45-7.19,36.49-22.97,41.48-2.2.45-4.42-4.12-3.1-5.86-.91-1.26-.67-1.92-.16-3.26-.36-7.6-24.62-1.01-12.36,8.16,2.19-.73,5.18,4.48,3.1,5.86-17.72,4.99-54.66,5-62.43-15.34-1.72-4.51-1.44-9.23.56-13.72Z"/>
  <path class="st5" d="M198.17,262.07c-21.02,23.68-3.58,84.55,24.48,96.07-10.62,11.81-24.58,4.56-33.67-4.96s-14.34-23.18-17.32-35.65c1.77.21,6.29.89,7.59.79l2.07.15c9.85,8.69,8.87-19.42-.19-13.23l-1.87.26c-3.06-.72-6.66-.94-9.84-1.46-1.34-17.71,5.1-48.03,28.75-41.97Z"/>
  <path class="st5" d="M268.87,215.84c-1.4,30.63,51.88,68.33,80.33,56.76-.49,13.5-11.87,18.87-23.81,18.73-15.85-.2-30.94-7.92-43.16-17.5.24-2.6,5.96-5.44,7.94-3.55l1.88-1.61c10.24-1.62-9.03-20.7-10.89-9.02l-1.6,1.3c-.95,2.65-5.4,4.8-7.94,3.55-11.64-12.92-24.55-38.13-2.75-48.66Z"/>
  <path class="st1" d="M359.42,147.93c.77.99,2.67,4.63,3.1,5.86,1.7,4.81,3.63,15.11,4.19,20.35,2.15,19.93-2.37,41.33-13.54,58.23-2.42-3.58-5.09-7.22-8.11-10.31,10.14-19.03,12.99-43.35,4.94-63.38-1.23-3.06-1.99-3.65-3.1-5.86-4.3-2.48-2.18-8.79,1.96-10.51,3.94-1.65,11.22.98,10.55,5.62Z"/>
  <path class="st1" d="M271.61,264.5c2.61-1.21,5.23-2.61,7.94-3.55,1.6-3.63,7.94-4.33,11.07-2.24,3.68,2.46,4.89,10.6-.46,11.57-2.98.9-5.3,2.47-7.94,3.55-12.43,5.1-23.58,11.19-34.01,19.93-1.01-3.03-3.68-8.95-5.17-11.9,9.05-6.88,18.29-12.61,28.57-17.37Z"/>
  <path class="st1" d="M304.03,90.47c-3.67,2.1-7.43,4.27-10.53,7.21-6.85-8.81-10.77-20.62-6.9-31.62,1.62-4.61,4.07-10.71,9.97-9.32,8.57,2.01,3.05,9.53,1.59,14.21-2.03,6.54,1.63,14.61,5.87,19.52Z"/>
  <path class="st4" d="M351.67,88.42c-16.15,4.82-32.36,9.71-47.49,17.4l-12.83,7.74c10.02-16.03,29.07-24.13,47.16-25.76,1.62-.15,12.92-.38,13.16.62Z"/>
  <path class="st6" d="M245.18,336.5c-2.39-15.73-4.5-32.09-9.88-47.11-1.92-5.37-4.63-10.3-6.41-15.68,17.43,14.27,22.37,41.71,16.29,62.8Z"/>
  <path class="st6" d="M356.44,258.49c-7.74-12.68-16.11-24.97-25.77-36.28l-13.99-13.79c18.53,5.71,33.32,23.63,38.67,41.99.31,1.07,2.28,7.85,1.09,8.08Z"/>
  <path class="st2" d="M179.26,318.31c4.84-.37,8.38-4.7,6.04-9.35-1.72-3.4-3.04-2.76-6.04-3.47,2.21-4,4.35-3.87,7.57-1.1,6.6,5.68,1.75,25.59-7.58,13.92Z"/>
  <path class="st0" d="M359.42,147.93c-7.67-9.79-16.22-2.46-12.52,4.9-8.57-2.68-5.18-9.31,1.46-12.1,5.25-2.21,16.2-.45,11.06,7.21Z"/>
  <path class="st0" d="M290.17,270.28c1.91-2.09,2.68-4.87,1.64-7.5-2.39-6.06-7.8-3.37-12.25-1.83,1.21-17.15,23.85,3.67,15.08,8.79-1.21.71-3.45.23-4.47.54Z"/>
</svg>