<?xml version="1.0" encoding="UTF-8"?>
<svg id="Ebene_1" xmlns="http://www.w3.org/2000/svg" version="1.1" viewBox="0 0 1024 1024">
  <!-- Generator: Adobe Illustrator 29.5.1, SVG Export Plug-In . SVG Version: 2.1.0 Build 141)  -->
  <defs>
    <style>
      .st0 {
        fill: #ec9fc5;
      }

      .st1 {
        fill: #873862;
      }

      .st2 {
        fill: #f5c9df;
      }

      .st3 {
        fill: #ce88a9;
      }

      .st4 {
        fill: #e371a8;
      }

      .st5 {
        fill: #f5cfe3;
      }

      .st6 {
        fill: #883862;
      }

      .st7 {
        fill: #e371a9;
      }
    </style>
  </defs>
  <path class="st1" d="M199.61,641.91c6.61-1.26,12.89.94,18.84,6.58,13.2,2.53,17.65,7.86,13.38,15.96-9.26,7.86-18.79,18.23.38,17.46,10.46-1.63,16.88.83,19.24,7.41-4.48,10.02-7.98,20.41-10.51,31.17,8.08-1.93,16.09-4.33,24.05-7.22l3,3.32c4.95.86,3.87,18.89,3.34,25.04.98,5.55-.14,9.02-3.34,10.39,9.5-6.1,18.28-13.54,26.36-22.38,8.9,1.09,11.95,9.72,12,19.49,3.53,7.67.21,19.15-6.67,22.98l2,4.41c-4.47,11.7-9.62,23.14-16.02,33.63l-4.33.26c-7.82,11.52-24.75,28.23-35.21,37.14-4.14,3.53-34.09,26.63-36.49,24.16-3.9-29.99-1.27-62.98,6.66-91.92-25.84,9.1-52.87,14.29-80.05,13.37,7.57-23.58,19.39-44.56,31.68-65.08-19.36-4.22-39.96-6.94-57.92-16.84-5.29-2.93,2.65-10.82,5.34-13.88,16.43-18.74,41.21-37.81,62.59-47.83,2.34-7.73,15.92-12.38,21.69-7.65v.04Z"/>
  <path class="st2" d="M865.05,331.62c-6.02,5.21-11.62,10.22-18.31,14.37,6.35,6.68,10.83,15.34,14.98,23.93-17.75,4.56-34.44.68-51.69-3.81.8,6.45,2.93,13.69,3.3,20.12,7.99,140.12-136.29,319.69-237.34,382.41-79.64,49.44-179.93,66.45-263.58,19.09-8.59,12.55-16.12,25.73-26.91,36.09l-4.18-13.37c6.73-9.9,14.19-26.61,18.35-38.3l5.27-2.4c170.66,81.72,334.83-50.1,431.39-206.55,36.44-59.04,68.53-129.45,61.07-203.38l1.15-7.41c14.39-3.24,28.46-7.39,42.21-12.42l5.94,1.18c1.68-7.13,12.77-13.45,18.35-9.58v.04Z"/>
  <path class="st4" d="M729.96,266.48c3.47-3.83,5.56-.98,3.34,3.83,6.91,3.86,4.4,13.92-3.99,11.89-102.01-32.56-215.09-10.92-311.28,35.95-100.59,49.01-193.83,152.93-196.84,283.19-2.31,4.9-11.36,8.25-14.91,4.15-1.75-9.43-1.25-20.67,0-30.65,5.63-114.73,86.86-213.66,171.97-263.14,89.26-51.88,258.07-94.15,351.69-45.24l.02.02Z"/>
  <path class="st3" d="M769.99,224.35c2.94,3.66,4.71,9.02,5.27,16.11,11.48-7.67,23.58-14.4,36.75-17.24,5.41-1.41,7.94.47,6.42,6.38-2.55,12.53-5.03,24.44-7.45,35.75,6.81-1.33,33.29-5.66,36.32,1.89,2.84,7.13-16.26,33.67-21.55,39.56,12.19.88,29.87,8.38,40.27,15.81l2.38,5.2c-1.22,1.09-2.17,2.83-3.34,3.83-6.37,2.78-12.02,6.56-18.35,9.58l-6.3.58c-9.23-9.21-19.44-16.35-30.64-21.4-.68-7.37-5.01-9.02-12.97-5.01-12.34,12.13-23.62-.11-23.07-14.82,2.6-2.21,22.13-19.84,20.86-21.79-.29-.45-7.56,4.16-8.75,5.08-9.31,10.37-25.18,25.38-28.26,1.54,3.54-2.87,11.4-25.04,9.07-26.01-2.05-.86-12.84,18.74-13.02,22.96-5.36,4.48-14.55-2.93-8.63-8.18-4.79-9.96,4.93-26.75,10.41-35.95,3.25-7.97,7.56-12.58,12.94-13.84h1.66l-.03-.02Z"/>
  <path class="st6" d="M769.99,224.35c1.81-8.95,51.19-42.88,55.03-38.3-1.54,22-3.59,43.21-10.01,64.13,2.81,2.64,8.76-2.85,10.87-2.85h44.19c-2.98,16.41-15.01,31.17-24.99,43.1l41.66,18.23c2.65,4.07-15.57,16.67-18.35,19.13-12.25-5.23-23.38-13.22-36.25-16.79-3.8-1.05-12.1,1.05-13.78-3.34,12.07-9.23,20.49-24.34,26.68-39.24-14.19-4.07-27.54.24-41.69,1.88,4.31-4.61,15.59-41.34,13.33-44.02-16.43,2.31-31.1,11.48-45,21.06,1.16-7.3-3.06-16.11-1.68-22.98l-.02-.02Z"/>
  <path class="st2" d="M768.32,224.35c-10.18,15.27-19.91,30.33-23.35,49.8-1.99,5.78-10.99,1.93-11.67-3.83-1.08-.6-2.29-3.28-3.34-3.83,2.98-9.43,1.87-21.19,3.77-31.12,1.61-8.44,15.32-43.36,21.26-46.48,2.7-1.43,5.97,8.72,6.97,11.18,2.94,7.33,6.3,16.17,6.38,24.27h-.02Z"/>
  <path class="st2" d="M206.28,605.5c5.15,6.51,6.16,24.48,3.34,32.56-.19,4.24-3.51,5.51-10.01,3.83-7.68,2.08-14.36,4.22-21.69,7.65l-11.66-14.35c2.72-5.95,33.41-13.28,33.31-15.34-2.21-3.19-7.36-3.51-6.64-8.59,19.39-2.74,7.75-21.94,13.33-36.42-.48,9.62-.33,20.95,0,30.65l.02.02Z"/>
  <path class="st0" d="M744.97,274.15c.39.28.98,7.22,6.66,5.76,1.75-12.42,10.25-21.4,18.35-28.73.63,9.43-.55,18.38-4.04,26.93-2.17,5.33-7.58,6.98-4.38,12.38,6.68,11.29,14.91-4.65,22.95-10.2,2.41-1.67,15.87-9.45,17.17-8.05-4.91,14.24-16.48,22.84-26.65,31.58,2.17,2.34,8.52,14.03,10.8,14.03.62,0,6.88-5.27,10.78-6.45,6.08-1.84,13.76-2.61,20.08-2.78.31,3.04-9.38,5.35-5.03,8.63,3.2,2.42,9.5,3.92,13.86,7.07,7.43,5.35,13.09,13.13,21.19,16.86-6.37,3.04-12.15,6.08-18.96,7.91-9,2.42-18.02,3.11-27.01,5.36-.22,15,1.83,29.78.72,44.9-8.69,118.93-123.44,267.43-207.04,331.09-72.72,55.37-165.37,84.76-251.73,58.4-14.7-4.48-28.36-12.85-42.99-16.69,2.64-7.43,4.96-15.19,6.67-22.98-1.52-8.03-1.16-16.39,1.08-25.11-3.61,7.9-6.93,10.28-9.96,7.11-1.04.94-1.99,1.61-2.62,1.35-3.92-1.74-4.91-21.42-5.03-26.37-6.95,6.53-13.95,9.87-21,10.03-1.95-9.6-.31-20.05,4.91-31.28l-14.15,4.5c-18.5,2.01-10-11.97-1.33-22.32l-22.03-3.26c-9.65-4.22-3.06-14.35,5.55-18.19-9.34-2.46-18.96-4.2-28.58-4.01l-3.56-3.53c-2.86-10.73-2.98-21.51-3.34-32.56,1.93-2.23,11.01-3.38,11.5-4.01.94-1.24,1.44-26.61,2.33-32.77,17.53-121.03,108.63-212.82,203.04-257.16,93.71-44.02,212.76-66.84,310.97-31.64l-.8-9.6c2.62,1.48,10.71,3.13,11.67,3.83l-.02-.04Z"/>
  <path class="st3" d="M209.62,638.06c14.38-1.82,26.17,3.47,40.02,3.84.91,4.56-.67,3.09-2.17,4.28-4.81,3.77-11.72,6.13-14.5,12.94,11.07,2.66,21.92,4.93,33.36,3.86-1.3,3.17-17.73,20.22-14.99,22.96,10.58,1.11,20.04-5.01,30-7.63-5.8,11.1-10.41,23.37-11.66,36.37,8.64-4.26,16.31-10.07,23.31-17.24.1,8.1.26,24.33,3.35,31.38.94,2.14,1.54,1.29,3.3,1.16l11.69-19.13c.38,12.87-2.26,25.86-4.98,38.3l-9.16-17.24c-6.25,5.08-19.05,20.14-25.79,22.15-1.83.54-3.41-1.39-3.41-2.04v-35.43c-10.77,1.56-20.5,9-31.68,7.65,2.79-13.49,7.62-26.18,13.33-38.28-11.95.43-23.53.23-35.02-3.86-.56-.84,9.24-15.34,10.77-17.33,1.63-2.12,8.45-4.48,5.92-7.52-.53-.64-11.4-3.69-14.48-5.42-5.8-3.23-10.61-8.59-17.2-9.94,2.65-.71,7.09-3.47,10.01-3.83h-.03Z"/>
  <path class="st5" d="M623.23,590.18c9.46-11.25,21.62-19.21,31.71-29.65,43.63-45.22,85.22-126.56,102.14-191.06.74-2.83,5.01-30.52,7.87-28.26,34.85,82.64-17.54,202.45-87.22,237.88-4.83,2.46-26.37,11.12-30.35,11.12h-24.18l.02-.02Z"/>
  <path class="st4" d="M614.5,278.35c38-5.91,39.67,64.48-2.02,56.96-25.02-4.5-25.09-52.74,2.02-56.96Z"/>
  <path class="st7" d="M534.38,295.68c36.39-7.73,41.95,53.17,7.75,56.92-30.05,3.3-37.47-50.62-7.75-56.92Z"/>
  <path class="st4" d="M280.24,495.67c-24.56-28.21,16.31-69.88,37.82-38.66,19.44,28.23-15.61,64.18-37.82,38.66Z"/>
  <path class="st4" d="M442.65,324.4c43.52-10.33,39.6,69.64-1.57,54.54-24.61-9.02-19.99-49.42,1.57-54.54Z"/>
  <path class="st4" d="M262.56,529.34c35-6.36,40.24,52.97,7.75,56.89-32.93,3.99-37.24-51.54-7.75-56.89Z"/>
  <path class="st4" d="M689.52,286.1c37.21-6.75,39.3,60.84,1.27,57.02-27.64-2.78-28.33-52.12-1.27-57.02Z"/>
  <path class="st4" d="M360.9,381.81c22.44-5.8,39.93,14.27,30.82,39.24-10.37,28.43-49.7,18.21-47.03-15.7.77-9.79,7.58-21.32,16.21-23.56v.02Z"/>
  <path class="st4" d="M484.34,391.43c29.03-6.81,34.33,38.13,10.58,44.69-27.14,7.5-34.71-39.03-10.58-44.69Z"/>
  <path class="st4" d="M362.6,471.87c30.4-7.13,33.41,40.61,9.21,45.11-26.36,4.91-32.71-39.59-9.21-45.11Z"/>
  <path class="st4" d="M417.61,425.88c33.31-8.82,34.45,50.06,3.44,45.18-23.02-3.62-21.7-40.34-3.44-45.18Z"/>
  <path class="st4" d="M334.25,544.68c32.19-6.68,33.24,43.98,6.02,45.41-23.65,1.24-28.5-40.74-6.02-45.41Z"/>
  <path class="st4" d="M556.02,381.83c16.31-4.28,29.66,7.13,26.46,26.48-5.17,31.28-49.69,18.08-38.06-14.91,1.39-3.94,7.92-10.62,11.59-11.57h.02Z"/>
</svg>