<?xml version="1.0" encoding="UTF-8"?>
<svg id="Ebene_1" xmlns="http://www.w3.org/2000/svg" version="1.1" viewBox="0 0 482.16 482.16">
  <!-- Generator: Adobe Illustrator 29.5.1, SVG Export Plug-In . SVG Version: 2.1.0 Build 141)  -->
  <defs>
    <style>
      .st0 {
        fill: #524283;
      }

      .st1 {
        fill: #282d63;
      }

      .st2 {
        fill: #272c63;
      }

      .st3 {
        fill: #aea5c7;
      }
    </style>
  </defs>
  <path class="st2" d="M326.42,283.24c-3.81,26.36-36.65,27.03-41.9,1.03-3.25-.06-6.18.12-9.35-.89-.97-.31-4.03-2.12-4.55-2.01-.3.06-3.76,3.48-4.89,4.19-11.75,7.36-27.18,1.38-30.76-13.49-4.29,1.1-8.61.34-12.89-.43-5.47,15.18-23.2,19.3-33.92,8.2-4.77-4.93-7.72-13.17-6.67-20.38-17.05-.41-27.18-20.44-18.13-37.12.74-1.36,3.2-3.84,2.97-5.2-.13-.75-4.48-6.53-5.32-7.65-4.85-6.42-17-18.2-17.38-26.57-.22-4.79,3.08-8.62,6.52-10.84,23.9-15.47,18.55,27.54,22.72,41.3,2.23-1.37,4.83-1.68,7.33-1.94,1.56-.33,1.94,1.37.43.48-11.93,4.32-16.62,22.49-5.85,31.31,12.24,10.02,28.46-3.25,23.82-19.69l1.02-.47c2.37,4.48,3.53,9.89,3.45,15.03.33.2.82.53.77.83-.5,3.02-3.22,9.23-4.85,11.75l-1.09.03.16,1.26c-2.22,2.6-4.9,4.7-7.81,6.2,3.92,25.3,36.11,16.3,29.4-8.16,1.2-2.8,2.84.05,3.38,2.01,1.13,6.19,2.56,8.04,8.41,8.77,10.46,1.3,17.76-6.76,17.87-18.37l.78-.93c3.49-1.33,6.84-.92,10.35,0l-.07.56c-3.04.32-5.8,1.27-8.28,2.84-.15,8.07-1.13,16.35-7.22,21.81,7.91,17.8,30.23,11.22,29.74-8.63,2.33-3.04,2.78,3.3,2.6,5.45-.84,5.9-.92,9.15,4.82,10.68,9.02,2.4,16.69-1.29,19.62-11.53,3.61-1.61.68,6.63-.08,8.46-1.35,3.3-3.13,5.66-5.55,7.98,1.58,17.43,22.55,20.56,29.21,4.7l1.19-.61Z"/>
  <path class="st0" d="M294.07,241.04c.42.33.89.61,1.29.97.02,1.43-1.21,1.75-3.69.98-16.42,5.48,1.61,27.76,7.69,9.48,0-4.53.6-5.28,2.38-.68.47,1.21.73,2.52.96,3.8.14.02.29-.02.43,0,.9.48,1.19,1.72.86,3.71,4.74-1.64,9.29-2.12,13.8.65.62.48,1.14.91,1.73,1.45-.75,1.13-2.22,1.44-4.4.91-14.76,5.45.73,26.19,8.12,10.42.29-3.2.97-7.4,2.57-1.87.8,2.36,1.42,5.54,1.04,8,.06,1.73.17,2.76-.43,4.36-5.12,13.56-20.65,16.43-28.65,4.32-1.06-1.6-3.33-6.96-2.63-8.67.34-.82,2.51-2.63,3.23-3.66,2.29-3.29,4.11-8.14,4.32-12.35-.78.52-.74,2.2-1.21,3.24-3.97,8.67-13.05,12.27-21.07,8.49-2.19-1.03-4.55-2.34-4.48-5.18.1-3.97,1.13-7.79-.41-11.87l-.54,5.93c-3.31,17.7-25,20-30.87,3.11,3.51-3.86,6.27-9.08,6.78-14.68s-1.83-8.21,4.43-9.57c1.79-.39,3.58.05,5.11-.8.49.13.88.35,1.29.48-.09,1.24-1.23,1.85-3.4,1.83-4.71,2.04-5.48,9.78-1.88,13.48,7.02,7.22,16.28-4.23,10.26-11.72l.19-1.16c.32-1.89,1.95-.26,2.88.67l2.72,3.01c4.22-8.5,14.02-11.56,21.57-7.08Z"/>
  <path class="st0" d="M235.41,226.01c.31,1.06-.5,1.69-2.42,1.89-13.62,10.9,9.43,25.66,10.15,6.04-.91-4.21-.71-5.12,2.37-1.87.98,1.03,1.79,2.3,2.41,3.64.66,1.15,2,4.53,2.16,5.82.9,7.52-3.77,16.54-10.23,19.29-4.25,1.81-12.16,1.6-15.63-2.1-1.31-1.39-1.47-7.86-3.9-9.43,7.66,26.75-27.64,35.87-31,8.31,2.92-1.35,6.55-4.15,8.56-6.86l1.07.22c5.43,10.65,18.86-.25,11.68-9.51-1.68-.66-2.33-2.89-.25-2.35.26-.36.58-.6.99-.69.88-.19,4.4,2.8,5.25,3.66,1.3-9.8,9.29-19.19,18.78-16.06Z"/>
  <path class="st0" d="M180.63,211.94l.2,1.09c-5.58,2.73-5.2,13.25.62,15.16,8.28,2.71,13.35-8.1,7.01-14.37-.11-.59.08-.98.57-1.19.46-.19,5.44,3.37,6.27,4.15,1.66,1.89,3.1,4.01,4.31,6.3-.57,1.15.37,2.62.45,4.1,1.54,27.77-34.77,26.62-31.89-.9.72-6.86,6.42-13.36,12.46-14.36Z"/>
  <path class="st3" d="M195.29,216.79l-6.47-3.88c7.03,6.69,2.2,18.49-7.02,16.38-5.92-1.36-7.74-10.66-3.55-15.41.62-.7,1.61-1.11,2.37-1.94.03-.03.51.06.43-.48h-.86c5.98-.62,10.69.29,15.1,5.33Z"/>
  <path class="st3" d="M247.92,235.71c-1.04-1.79-3.28-3.88-4.74-5.33,1.88,4.81.79,11.3-3.89,13.33-10.31,4.48-16.09-12.03-6.35-16.84.84-.41,1.93-.08,2.48-.86-.38-.14-.37-.3,0-.48,4.83,1.35,10.8,4.49,12.51,10.18Z"/>
  <path class="st3" d="M319.52,261.41c4.69,4.36,7.02,7.82,7.71,14.86.08.79.36,2.1-.38,2.6-.13-3.83-1.13-7.09-2.16-10.67l-.52,4.49c-3.47,11.36-18.01,7.34-15.67-5.01.48-2.52,3.35-5.84,5.66-6.25,1.76-.31,3.63.29,5.36-.03Z"/>
  <path class="st3" d="M295.36,242.01c3.66,3.27,7.53,7.98,7.33,13.58l-2.58-6.79c1.6,8.39-6.11,14.76-12.48,9.91-6.14-4.68-3.51-15.88,3.68-16.67,1.52-.17,2.88.9,4.05-.03Z"/>
  <path class="st3" d="M266.03,243.47c1.02-.8,1.36-.28.86.97,7.35,7.86-2.29,21.59-10.79,13.83-4.5-4.11-3.34-13.61,2.24-15.45,1.17-.39,2.49,0,3.38-.81.92.29,3.69,1.08,4.31,1.45Z"/>
  <path class="st3" d="M210.39,238.62c.37.16.37.32,0,.48-.02.07-.72.52-.42.94.07.09.87.2,1.28.74,8.29,10.8-7.78,22.92-13.37,9.96,1.44-1.93,5.14-10.44,5.18-12.61l7.33.48Z"/>
  <path class="st2" d="M294.07,241.04l-4.95-.99c-6.56-.87-13.27,2.42-16.2,9.23-.93.71-4.25-5.25-6.03-4.85-.23-.24-.81-.94-.86-.97,8.35-8.38,18.71-9.65,28.04-2.42Z"/>
  <path class="st2" d="M235.41,225.52v.48c-9.6-1.37-18.21,7.65-17.69,18.43-2.18-2.16-4.38-4.55-7.33-5.33.05-.15-.05-.35,0-.48,4.01-10.93,15.11-15.85,25.02-13.09Z"/>
  <path class="st1" d="M317.79,259.96l-4.96-.97c-3.53-.39-6.48.46-9.7,1.93v-5.33c1.52.23,3.36-.18,4.95,0,3.92.46,6.56,1.9,9.71,4.36Z"/>
</svg>