<?xml version="1.0" encoding="UTF-8"?>
<svg id="Ebene_1" xmlns="http://www.w3.org/2000/svg" version="1.1" viewBox="0 0 1024 1024">
  <!-- Generator: Adobe Illustrator 29.5.1, SVG Export Plug-In . SVG Version: 2.1.0 Build 141)  -->
  <defs>
    <style>
      .st0 {
        fill: #f8bf8d;
      }

      .st1 {
        fill: #237862;
      }

      .st2 {
        fill: #1ba8e5;
      }

      .st3 {
        fill: #f4a119;
      }

      .st4 {
        fill: #9384ba;
      }

      .st5 {
        fill: #ea5367;
      }

      .st6 {
        fill: #edaf32;
      }

      .st7 {
        fill: #eaa995;
      }

      .st8 {
        fill: #fcd093;
      }

      .st9 {
        fill: #96d4f5;
      }

      .st10 {
        fill: #94d4f4;
      }

      .st11 {
        fill: #52b09e;
      }

      .st12 {
        fill: #04a0e2;
      }

      .st13 {
        fill: #3f6db2;
      }

      .st14 {
        fill: #eec76d;
      }

      .st15 {
        fill: #8dc9b7;
      }

      .st16 {
        fill: #ad3333;
      }

      .st17 {
        fill: #56beec;
      }

      .st18 {
        fill: #aa9bca;
      }

      .st19 {
        fill: #604594;
      }

      .st20 {
        fill: #bcc890;
      }

      .st21 {
        fill: #f3c777;
      }

      .st22 {
        fill: #6f62a4;
      }

      .st23 {
        fill: #f3d79b;
      }

      .st24 {
        fill: #029fe2;
      }

      .st25 {
        fill: #54b69d;
      }

      .st26 {
        fill: #9eb9c3;
      }

      .st27 {
        fill: #604393;
      }

      .st28 {
        fill: #ac3333;
      }

      .st29 {
        fill: #2da68f;
      }

      .st30 {
        fill: #b24348;
      }

      .st31 {
        fill: #1f765f;
      }

      .st32 {
        fill: #e6302a;
      }

      .st33 {
        fill: #ab9dcb;
      }

      .st34 {
        fill: #9daad7;
      }

      .st35 {
        fill: #ce2125;
      }

      .st36 {
        fill: #44b8ea;
      }

      .st37 {
        fill: #ee7b17;
      }

      .st38 {
        fill: #28a98c;
      }

      .st39 {
        fill: #dcd6ec;
      }

      .st40 {
        fill: #f4aaaa;
      }

      .st41 {
        fill: #fefefe;
      }

      .st42 {
        fill: #67579d;
      }

      .st43 {
        fill: #60c2ee;
      }

      .st44 {
        fill: #29a98d;
      }

      .st45 {
        fill: #746b9d;
      }

      .st46 {
        fill: #afd5ca;
      }

      .st47 {
        fill: #b8e0d6;
      }

      .st48 {
        fill: #f5a017;
      }

      .st49 {
        fill: #f4b099;
      }
    </style>
  </defs>
  <g>
    <path class="st27" d="M246.04,434.66c.64.62.64.94,0,.96,3.76,1.57,4.19,2.85,1.28,3.86,1.36.45,2.11,1.37,2.28,2.73,60.14,9.73,65.75,56.77,50.49,94.39-9.61,23.71-20.53,47.57-34.82,69.87-2.18,6.23-5.73,13.83-11.55,18.34l-1.03-1.44,7.44-14.01-1.16-2.69c15.04-27.27,31.27-57.29,36.23-86.78,6.49-38.65-22.76-70.07-77.52-64.23.51,5.07.34,10.14-.51,15.19l-3.21.48-2.48-.43c.24,29.86-.21,59.6-1.37,89.23,1.9,9.7,2.02,20.24,0,29.93-1.46,28.34-1.51,57.02-1.25,85.67-.29,4.19-4.39,6.68-7.75,2.52l-8.85-220.63c-34.2-11.08-77.5,13.14-75.76,41.89l-2.6,2.71c2.65,3.18,3.93,7.11,3.86,11.78,7.89,28.42,19.03,57.4,32.77,85.35l43.75,89.7c-4.72,8.07-15.22-10.15-13.68-15.01-10.56-14.97-18.26-31.27-25.65-47.3-17.99-32.59-36.8-66.96-47.89-101.43-9.04-28.11-10.35-55.73,25.72-72.96-3.34,2.09-6.22,2.64-8.62,1.61-1.45-2.97,1.44-5.55,8.66-7.74l16.27-5.81c2.06-2.56,4.44-4.48,7.13-5.76,11.78-12.86,56.19-11.82,73.8-6.78,6.31,1.8,11.13,5.39,16,6.78v.02Z"/>
    <path class="st25" d="M156.24,434.66c-1.69,1.84-2.05,4.82-3.89,6.25-5,3.87-23.58,6.59-28.19,13.05l.4,2.23c-8.45,5.85-15.28,13.27-19.32,21.36l-2.88.54c-5.74,12.62-4.12,25.76-.47,38.56,3.27,11.48,7.88,22.81,13.3,33.84,1.97-.12,2.88,2.04,1.28,2.9l5.13,10.62c11.14,20.66,21.9,41.74,32.07,62.75,9.22,17.72,18.19,33.49,26.93,47.3,3.32,5.63,7.49,11.05,10.27,16.89l1.02-1.71c-22.94-46.61-48.05-93.69-65.81-141.63-5.28-14.26-12.07-30.63-12.19-45.36,6.91-3.04,8.62,3.33,8.05,7.65,8.53,25.3,17.03,50.55,25.49,75.76,13.64,19.66,24.3,40.55,31.95,62.67l17.18,32.79c2.15,4.6,3.01,8.79,3.28,11.28-3.92,3.08-12.67,3.03-16.68,0-1.33-.91-2.63-1.83-3.79-2.85-3.17-2.78-15.66-19.12-15.99-21.02-.13-.78-.07-1.49.53-2.2l-4.22-3.17c-28.39-36.6-53.25-75.69-76.02-113.92-26.69-44.82-31-81.4,36.63-105.91,11.55-3.61,23.39-7.44,35.92-8.69h.02Z"/>
    <path class="st48" d="M235.77,708.8c5.65-2.42,12.57-3.02,20.75-1.81,8.28-.38,15.05.86,20.3,3.74l3.87-1.41c8.17.31,32.79,7.53,38.48,11.81,1.02.77,1.15,2.01,1.27,3.12l3.68-.2c8.47,5.76,14.61,13.53,18.12,21.44-1.26,5.07,5.06,16.33,6.26,22.8,2.22,11.96,1.05,25.36-1.45,37.29-1.73,8.21-8.91,33.47-13.52,40.02-6.26,8.87-24.25,5.66-25.68-3.35-.91-5.67,10.27-29.39,12.21-37.68,1.19-5.03,2.77-12.08,3.03-17.06.11-2.14.82-5.34-2.65-6.3l-2.05-1.68c1.55-9.54-1.9-20.64-8.8-28.69l.58-2.46c-8.45-9.38-16.71-11.78-30.78-15.45-3.87.84-8.15.54-12.83-.88-5.28,0-9.13-1-11.54-2.98-7.87,2.71-22.06,3.3-29.5,0-5.67,2.97-10.13-4.7-10.46-8.7-.67-8.45,10.88-16.97,20.71-11.57h-.01Z"/>
    <path class="st48" d="M160.09,731.01l-3.01,2.18c-11.65.89-23.33,2.31-33.94,6.16l-4.09-.61c-7.72,3.08-12.07,5.99-17.96,10.62l.51,2.4c-6.16,4.39-10.07,9.69-11.67,15.95l-2.95.96c-5.75,17.87-.3,32.31,10.45,48.61,3.35,5.09,17.65,19.68,17.87,23.32.57,9.54-16.5,13.08-25.74,5.77-27.58-21.83-42.22-70.69-23.1-97.97l-.65-2.72c5.02-5.13,10.18-10.1,15.57-15.01l3.04.35c-.42-2.47,1.69-4.43,6.37-5.87l23.81-10.14,3.17.58c1.48-4.31,6.03-5.64,13.66-3.98,12.06-1.96,24.04-2.68,35.97-2.16,21.75,3.09,16,29.81-7.28,21.58h0Z"/>
    <path class="st14" d="M154.96,671.15c7.65,4.22,15.05,13.17,15.4,20.27-.61.65-1.02,1.18-.79,1.3,10.1,5.76,23.53,7.92,35.87,5.86,4.54-.76,16.98-3.6,14.94-7.18-1.69-2.17,3.12-7.89,6.42-8.69,5.58.53,10.1,9.58,11.39,13.74,1.16,3.72,3.17,10.91-2.42,12.33-3.89.18-6.77-.2-10.62,1.19-10.22,3.7-10.08,15.9.35,19.08.57.57,1.38,1.39,1,1.84-1.71,2.09-16.05,17.43-17.24,18.1-1.37.77-2.65,1.11-4.3,1.29,1.79,1.36.99,1.92-1.28.96l-2.42,1.28c-15.51-4.67-28.59-11.11-41.33-19.18l.13-2.35c9.5-.75,17.6,1.41,18.07-9.16.79-17.67-34.37-8.81-47.08-8.32-7.82.31-5.21-3.11-13.33,2.03-3.38-3.52-.52-15.79,5.13-17.37-.56-.26-1.05-.54-1.34-.93-1.04-1.35,11.5-17.96,16.73-16.46,4.2-3.43,10.99-7.73,16.68-9.65l.02.02Z"/>
    <path class="st37" d="M342.25,745.48c-3.1.51-2.66-1.18-3.62-2.54-5.23-7.45-9.2-13.33-18.19-18.7l-1.91-2.48c8.98-29.57-8.75-42.48-45.65-27.36l-2.47-1.05c-.84.42-2.18.97-2.68.61-2.49-1.83-18.92-16.22-18.68-17.33l2.12-1.62c53.19-24.49,111.92-10.05,101.02,42.72-1.95,9.44-7.71,18.81-9.94,27.75h0Z"/>
    <path class="st47" d="M120.32,443.35c-7.36,4.39-15.91,7.45-23.11,12.05-53.47,34.25-22.63,73.75,1.08,113.13,19.56,32.51,42.97,66.44,65.65,97.81,1.49,2.77-6.36,5.99-8.98,3.86-30.71-42.87-79.97-106.47-95.56-152.53-12.54-37.04,18.57-61.09,60.93-74.33h0Z"/>
    <path class="st21" d="M279.39,732.94c-3.81-.59-2.24,1.44-2.91,3.07-12.06,29.57-44.38,49.94-86.89,46.16-8.26-2.01-8.66-2.81-6.75-9.09.98-3.25,14.27-19.81,17.47-21.52.97-.52,2.28-.42,3.4-.28.31-.35.94-.61,1.28-.96l2.82-1.53c17.99.18,32.62-8.05,42.95-18.53l4.26-1.18c10.3.42,14.85,1.39,24.37,3.86h0Z"/>
    <path class="st37" d="M138.27,680.81c-4.35,3.55-13.09,13.04-15.4,17.37l-3.3,1.31c-28.86-6.35-49.31,7.07-34.22,28.68l-.96,2.83c-1.76,1.22-16.78,15.69-17.96,17.37-19.2-20.83-30.91-52.38,5.11-67.11,20.69-8.45,45.19-5.43,66.73-.46h.01Z"/>
    <path class="st6" d="M160.09,731.01l21.41,12.36,22.2,7.91c-4.93,5.44-21.6,21.1-19.05,27.31.68,1.66,3.61,2.29,4.95,3.58-24.51-2.18-45.38-10.76-59.04-26.52-4.84-5.59-7.31-11.22-11.51-16.92,13.55-5.4,26.06-6.54,41.05-7.72h-.01Z"/>
    <path class="st31" d="M237.06,668.26c.24,5.68-3.75,11.54-10.27,14.48-1.92,2.6-6.22,5.07-6.42,8.69-.3,1.95-1.57,1.86-2.57,0,.69-4.66,5.41-10.62,8.98-14.48,15.08-24.67,29.97-49.44,44.69-74.29l4.06-3.89c14.64-23.2,27.72-46.89,40.02-70.84,23.76-46.3-7.94-74.4-66.74-89.87l-2.78-2.42c-.05-.14-.85-.2-1.13-.5l1.13-.48c19.47,5.53,31.46,5.87,50.43,15.62,61.57,31.63,37.12,68.74,12.65,110.52-21.05,35.95-47.07,72.92-72.06,107.46h0Z"/>
    <path class="st37" d="M320.44,781.2c-2.31,5.24-22.21,25.33-28.54,27.27-11.75,3.6-24.85-3.89-22.49-13.03,1.05-4.06,14.79-13.79,19.26-18.36,8.66-8.88,15.08-18.85,21.52-28.69,1.25,1.38,2.63,1.78,4.09,4.17,4.42,7.22,9.5,21.1,6.17,28.66h-.01Z"/>
    <path class="st23" d="M251.17,675.01c.13.08.24,1.69,1.25,2.4l18,15.94c2.6.49,9.54,15.29,8.97,16.08s-1.48,1.13-2.55,1.29c-12.75-1.65-28.16-2.52-41.05-1.94,3.51-9.97-2.63-17.76-8.98-26.07,3.49-4.73,6.8-9.7,10.27-14.48,2.82,2.48,6.91,4.17,10.41,6.2,1.19.69,3.39.37,3.7.55h-.01Z"/>
    <path class="st37" d="M86.96,768.65c3.21-9.96,4.71-11.93,14.12-19.31,5.27,5.69,11.86,10.71,18.57,15.47,7.65,5.43,18.85,7.92,10.76,18.68-10.6,14.09-35.7-8.34-43.45-14.84Z"/>
    <path class="st20" d="M183.17,692.4c-2.72,2.78-10.81,2.16-12.83-.96-4.73-6.87-10.53-13.48-15.4-20.27-.18-.25.18-.71,0-.96l8.98-3.86c.21.29,1.95.97,2.82,2.17,5.68,7.84,11.17,15.88,16.43,23.88h0Z"/>
    <path class="st25" d="M260.15,609.38c-4.47,9.02-9.43,17.91-15.23,26.5-9.21,13.64-19.61,28.44-32.24,40.1-2.11-9.99-1.92-20.87,0-30.89-2.36-45.87-1.71-91.77,1.28-137.08-3.43-12.03-3.47-24.64,0-36.68,3.16-2.35.05-16.48,1.3-17.36,49.62-5.42,80.42,15.69,83.43,52.56,2.05,25.05-23.81,79.43-38.54,102.85h0Z"/>
    <path class="st25" d="M113.91,502.23c-.17-21,10.82-35.7,36.33-44.57,4.12-1.44,17.13-5.24,21.08-5.39,6.46-.25,16.17,3.59,23.42,2.66l8.98,223.96c2.34-.36,2.38-1.9,2.6-3.34,2.36-15.86.51-36.72,1.19-53.16.1-2.29,1.31-4.39,1.39-6.68.3-8.38-1.42-17.57,1.23-25.62,1.9,9.51,2.08,19.47,0,28.96,1.22,18.65,1.62,37.31,1.27,55.98-.11-2.25.81-1.18,1.3.97.98.18,2.19.41,2.57,1.05,1.36,2.34-1.34,8.92-2.57,11.5,1.13.27,1.1.6,0,.96-2.95.95-4.27-.41-3.95-4.07-1.26,3.93-3.79,6.26-7.6,6.97-.24.86-.68.83-1.28,0-4.06.58-2.11-1.53-2.7-3.24-4.38-12.63-13.68-26.79-19.73-39.26-6.71-13.83-14.76-38.41-23.09-50.2-4.42-6.26-8.16-8.74-10.63-17.1-2.77-9.38-4.99-18.11-8.56-27.35-5.96-15.42-12.17-29.04-15.74-45.1-.75-3.36,2.35-6.13-5.51-7.92h-.01Z"/>
    <path class="st38" d="M275.54,598.76c-1.15-.85-1.16-1.64-.64-2.64,13.86-26.07,25.41-48.08,34.11-75.57.3-.96,1.15-1.58,2.45-1.91,5.06-13.31,2.28-26.77-3.85-39.58-1.73-.92-3.01-2.52-3.85-4.82-1.3-.01-2.63-.25-3.23-1.08-12.51-17.11-23.64-26.79-50.66-31.27l-2.57-2.41c-.01-.27-1.03-3.12-1.28-3.86,31.29,7.52,64.51,21.83,76.66,46.09,8.23,16.41,3.47,28.4-3.52,44.19-10.99,24.83-28.31,49.42-43.64,72.87h.02Z"/>
    <path class="st18" d="M124.17,453.97c3.09-1.73,23.59-10.02,26.62-10.47,3.35-.49,4.7.37,6.72,2.26-37.77,9.39-57.65,29.01-53.71,59.73,4.12,32.13,35,89.69,51.16,121.26-.36.84-.79.83-1.28,0-10.92-20.78-23.09-41.41-32.07-62.75l-5.13-10.62c-.39-1.06-.96-2-1.28-2.9-3.83-7.88-7.4-15.87-10.17-24.01-5.4-15.9-9.93-32.37-2.66-48.39,2.49-7.33,13.62-19.52,21.81-24.13h0Z"/>
    <path class="st18" d="M303.77,474.24c11.1,22.29,7.4,47.1-2.34,69.35-8.97,20.52-19.67,41.02-31.41,60.96l-3.45,2.91c-1.37,1.37-1.79,1.04-1.28-.96,11.51-21.2,24.07-45.84,32.42-67.8,13.04-34.33,14.2-76.59-37.21-92.21-2.71-.83-14.02-2.68-14.45-3.14-.5-.52,1.36-2.84,1.3-3.85,19.01,2.98,37.9,10.2,48.52,22.85,3.09,3.68,5.18,8.04,7.93,11.9h-.01Z"/>
    <path class="st44" d="M253.74,624.83c.45.72.74,1.4.48,1.95-6.97,14.46-16.22,29.24-26.15,42.47l-11.89,17.77c-.59,1.14-1.8,1.62-3.51,1.53v-12.55c15.48-22.2,33.22-43.95,47.47-66.61-2.01,4.89-4.01,10.75-6.42,15.45h.01Z"/>
    <path class="st33" d="M210.12,560.14l-1.31-104.66c.17-.95,4.95-.69,5.14-.57.79.57-.01,14.06,0,16.41.11,12.21.01,24.47,0,36.68l-2.55,51.02-1.3,1.11h.01Z"/>
    <path class="st46" d="M212.69,645.1l-1.34.41c-.33-8.79-.73-17.61-1.22-26.46-.02-9.63-.15-19.32,0-28.96.15-9.96-.29-19.98,0-29.93.24-8.36,2.51-17.78,1.23-26.59l2.61-25.55c-.02,17.85-1.14,35.85-1.33,53.54-.31,27.84.35,55.71.05,83.54h0Z"/>
    <path class="st39" d="M237.07,445.27c-.75-12.18-22.79-12.78-34.65-15.92,10.79-7.12,43.5,1.54,37.29,13.54-.52,1.02-.9,2.25-2.64,2.39h0Z"/>
    <path class="st4" d="M266.57,607.44l-1.08,5.31c-11.57,20.95-24.48,41.38-38.69,61.3v-.96c-1.22-.85-.8-2.14,1.28-3.86,9.21-13.15,18.5-30.46,25.65-44.4,4.2-5.83,8.22-12.22,11.55-18.34l1.28.96h0Z"/>
    <path class="st26" d="M180.61,674.05l-1.61.75c-9.12-15.81-16.91-32.03-25.34-48.05h1.28c8.01,15.66,16.62,31.97,25.65,47.3h.01Z"/>
    <path class="st3" d="M170.35,691.43c4.29.33,8.24.79,12.83.96,5.87.22,11.42.08,16.68,0h1.28c2.87-2.3,6.78-3.03,8.98,0,2.66-2.46,4.38-2.46,5.13,0,.9-1.17,1.76-1.48,2.57-.96.85-.05,1.72.03,2.57,0,1.78-.07,5.11-.4,6.4.48-15.88,12.53-45.72,12.51-61.57,0,.67-.86,3.86-.58,5.12-.48h0Z"/>
    <path class="st42" d="M115.19,550.49c-5.31-8.32-9.55-18.72-12.47-27.79-4.81-14.93-8.66-29.8-.36-44.62-8.36,24.57,4.18,48.97,12.83,72.39h0Z"/>
    <path class="st22" d="M121.61,564c-3.63-2.77-3.84-7.09-5.13-10.62,3.72,2.57,3.73,7.3,5.13,10.62Z"/>
    <path class="st41" d="M320.44,724.25c-12.07-7.2-28.58-11.56-43.62-13.51.91-3.52-8.59-15.63-6.42-17.37,1.77-1.41,18.13-5.96,21.49-6.51,33.96-5.46,34.07,19.22,28.53,37.4h.01Z"/>
    <path class="st23" d="M255.02,729.07c-11.11,12.27-28.91,23.28-50.03,21.23,2.72-2.92,18.76-20.93,20.53-21.23,9.78.28,19.74-.4,29.5,0Z"/>
    <path class="st8" d="M320.44,730.03c-5.79-1.68-10.96-4.44-16.69-6.25-13.05-4.14-26.9-6.77-40.76-8.91l-22.07-2.21c26.57-4.57,61.13,1.83,79.53,17.35h-.01Z"/>
    <path class="st41" d="M122.89,698.18c-2.64,4.96-3.75,12.07-5.13,17.37-8.32,5.26-24.67,9.38-33.35,15.45-18.41-25.81,3.96-40.59,38.48-32.82h0Z"/>
    <path class="st8" d="M151.09,715.58l-15.71,3.11c-21.22,6.24-42.28,13.71-58.66,25.83,3.9-8.64,16.63-15.39,26.9-19.81,13.23-5.68,32.38-11.31,47.48-9.15h0Z"/>
    <path class="st0" d="M342.24,686.6c-12.14-9.25-27.14-17.83-45.54-17.44-6.37.14-12.41,2.78-18.58,2.48,22.54-13.39,54.18-3.69,64.12,14.96h0Z"/>
    <path class="st0" d="M126.73,683.7c-25.13-4.89-51.04-2.14-69.26,12.55,8.17-18.48,44.67-22.93,65.38-14.94,1.48.57,3.56.89,3.87,2.39h0Z"/>
    <path class="st19" d="M307.62,479.06c6.17,12.79,8.91,26.29,3.85,39.58-2.26,20.9-24.53,59.74-35.92,80.12-14.78,26.45-32.09,52.39-48.75,78.19-1.5-.48-.69-1.86,0-2.9,14.32-21.69,27.42-44.18,39.77-66.61,9.35-16.99,18.98-34.24,26.96-51.62,12.63-27.5,22.14-52.36,10.24-81.58,1.1,1.55,2.75,3.21,3.85,4.82h0Z"/>
    <path class="st45" d="M226.79,674.05c-.17.91.24,2.08,0,2.9-1.42,4.69-6.57,9.94-8.98,14.48-.27.01-1.37.92-2.57.96-.47-.55-.87-1.11-1-1.71-.42-1.91,9.81-15.36,12.55-17.6v.96h0Z"/>
    <path class="st15" d="M212.69,645.1c.36,10.25,0,20.63,0,30.89l-2.59-.57c0-18.79.06-37.6.02-56.39,2.65,7.4.92,15.99,1.23,23.72.05,1.24,1.33,2.21,1.33,2.33h0Z"/>
    <path class="st1" d="M226.79,673.09c-3.44,6.49-8.51,12.65-11.55,19.31-1.69.07-3.43-.08-5.13,0-2.3-2.22-.87-3.51,2.57-2.9v-.96c5.16-5.53,8.76-11.83,13.03-17.75.65-.92,2.22-1.34,2.37-1.55-.53,1.24-.64,2.66-1.28,3.86h0Z"/>
    <path class="st29" d="M201.14,692.4c2.15-1.65,6.75-10.88,7.71-11.58,3.46-2.55,2.43,5.32,2.51,6.35.08,1.31,1.32,2.21,1.32,2.34,0,.6-2.12,2.09-2.57,2.9-2.97.14-6-.06-8.98,0h.01Z"/>
    <path class="st11" d="M311.47,518.64c1.44-13.22-.61-26.64-3.85-39.58,9.07,13.3,12.8,25.17,3.85,39.58Z"/>
  </g>
  <g>
    <path class="st28" d="M471.36,705.45l-6.64,13.56h-16.58c-11.62-12.08-12.89-19.46-3.32-33.92,6.94-7.97,29.69,10.86,26.52,20.35h0Z"/>
    <path class="st32" d="M544.31,383.24c10.3-1.42,19.84,11.48,13.26,20.35,15.82,5.96,30.69,41.22,26.52,57.66,10.58,1.58,21.11,14.91,13.26,23.74,22.68,56.47,47.17,146.81,0,196.71,3.46,10.74-21.61,27.63-29.84,20.35-25.74,13.42-69.86,16.2-96.16,3.39-1.5-.73-24.33-18.25-26.52-20.35-25.49-24.4-41.61-70.38-29.84-105.14,3.44,4.52,5.65,10.16,6.64,16.96,4.94,5.86,7.58,14.68,7.93,26.47,9.28,8.8,13.27,16.94,11.96,24.41,38.69,20.61,77.18,29.62,109.75-6.98,73.55-82.66-67.42-186.66-125.12-82.76l-7.85-1.84c4.33-23.04,16.92-56.45,26.52-78.01-8.28-8.07,3.14-22.82,13.26-23.74-3.36-16.67,10.96-41.7,26.52-47.49-7.6-6.56-.31-22,9.94-20.35,3.27-5.16,25.74-36.19,28.2-37.29,5.57,12.18,14.73,22.72,21.53,33.9h0Z"/>
    <path class="st35" d="M418.31,556.22c15.22-13.45,20.25-29.66,39.62-39.19,35.61-17.53,74.3-10.54,99.73,20.47,64.95,79.19-42.38,184.43-116.13,110.3l5.46-5.47c90.54,7.76,32.73-118.54-18.17-47.63l-7.18,2.22-6.6,3.39c.07-6.76-.23-13.59-.03-20.35.27-9.56,1.65-14.88,3.32-23.74h0Z"/>
    <path class="st24" d="M444.84,335.76c20.01,7.8,34.04,36.14,49.74,50.88-3.12,4.91-6.37,14.29-9.94,20.35-3.18,3.31-6.53,5.24-9.46,1.85l-39.35-42.97-39.33,80.35c19.1,2.1,38.34,2.49,57.71,1.18l3.91,7.07c-3.84,7.73-10.34,17.18-13.26,23.74-23.93-3.57-65.86,11.17-76.26-16.96-1.33-6.08-.23-8.35,3.32-6.78,3.4-.11,4.91-5.16,4.53-15.13l40.8-90.23c6.43-7.89,15.64-12.34,27.62-13.35h-.02Z"/>
    <path class="st12" d="M570.84,373.07l24.4-15.77c20.39-13.26,38.37-13.62,42.72,14.37l14.17,87.73c-.28-3.05,1.54-4.59,4.92-4.94.94-2.96,2.05-2.92,3.32,0,1.48,42.08-32.7,41.24-63,30.52-2.37-5.91-9.71-16-13.26-23.74.23-4.54,1.34-8.29,5.57-7.58l40.18,5.93c-3.48-29.95-9.58-59.59-16.5-88.9-16.98,14.41-34.27,26.43-51.87,36.04l-3.9-3.16c-2.83-5.06-9.32-13.88-13.26-20.35,4.75-4.35,11.75-6.7,16.58-10.17,3.61-1.25,6.93-1.25,9.94,0h0Z"/>
    <path class="st9" d="M627.21,342.54c21.37,11.13,20.48,49.64,23.21,71.22,5.08,13.87,7.29,27.44,6.64,40.7,2.32,29.31-26.32,25.71-46.4,20.31l27.49-4.04c5.03-1.53,8.38-6.11,9.03-11.37.7-5.74-14.63-83.77-17.5-93.9-7.65-27.05-39.32,1.14-58.83,7.6,8.82-16.48,35.27-36.03,56.37-30.52h0Z"/>
    <path class="st10" d="M444.84,335.76l-2.57,4.28c5.31.87,15.28,16.03,12.49,19.46-10.93-3.98-20.36-21.18-32.28-9.26-12.97,12.97-29.74,77.79-43.42,96.36-1.4,14.83,24.55,7.92,29.3,18-13.06-.89-30.01,5.31-36.46-10.14-4.95-4.07-4.95-10.86,0-20.35,4.76-14.25,10.25-24.42,16.58-37.31,3.15-11.74,8.68-21.91,16.58-30.52,1.59-4.69-1.4.51,3.34-9.07,9.15-18.45,10.4-31.61,36.44-21.45h0Z"/>
    <path class="st16" d="M597.37,681.71c14.13,25.96-14.24,44.25-29.84,20.35,3.19-1.66,28.59-19.03,29.84-20.35Z"/>
    <path class="st2" d="M627.21,342.54c-21.17-1.81-40.96,17.29-56.37,30.52-2.82.94-4.32,5.38-9.94,0,18.81-13.49,41.52-43.45,66.32-30.52h0Z"/>
    <path class="st17" d="M660.37,454.47h-3.32c-.85-10.71-4.97-27.58-6.64-40.7,5.29,10.8,9.53,28.83,9.94,40.7h0Z"/>
    <path class="st43" d="M405.04,366.29c-3.75,11.01-11.85,20.88-16.58,30.52,1.26-9.12,6.55-31.26,16.58-30.52h0Z"/>
    <path class="st36" d="M371.88,454.47c-.1.92-3.64,4.25-3.32,6.78-7.23-19.54-.66-15.23,3.32-27.13-3.19,6.37.48,15.55,0,20.35Z"/>
    <path class="st7" d="M441.52,647.79c-17.45-17.53-23.78-22.9-19.9-50.88,5.36-38.64,67.5-40.84,78.01-.11,9.64,37.35-24.95,61.89-58.12,50.99Z"/>
    <path class="st49" d="M600.65,569.77l-62.97-152.58c6.03-1.28,8.26,2.97,11.4,6.96,26.24,33.27,48.66,102.95,51.57,145.61h0Z"/>
  </g>
  <g>
    <path class="st13" d="M816.62,513.67l.56-.8c3.08.53,6.24,1.24,9.49,2.12l15.61-4.37c1.09-.4,1.63.02,2.12,1.03,13.25-1.26,28.16,1.67,39.78,7.36l1.72-.67c7.41,4,14.44,8.67,20.97,13.73l-.18,1.67c25.98,21.62,34.13,47,36.78,77.66l-.41,4.13c1.55,1.77,1.93,7.68-.35,9.26,1.99.17,2.53,9.83,2.23,10.31l-1.48,1.07,1,1.58c-.11,11.96-.05,23.96.17,36l-1.17,3.26c.04,3.69.25,7.62.62,11.77-.58.26-1.04.53-1.06.82-.16,2.34-.08,5.23.44,7.5.65.22.65.45,0,.67-1.45,21.54-.49,43.55-.73,65.29-1.87,8.89-13.31,12.71-21.29,6.91-5.49-4-3.39-8.21-5.52-13.16-4.75-11-22.65-9.14-24.82,2.37-.91,4.83,1.34,6.79-3.91,10.56-8.19,5.88-20.51,2.49-22.35-6.87-.79-3.98.78-5.9-2.78-9.57-5.48-5.66-16.49-4.81-21,1.39-2.37,3.26-1.6,7.1-3.06,10.66-3.47,8.51-16.35,9.74-22.51,2.71-4.05-4.63-1.17-8.8-4.98-13.63-6.77-8.58-21.84-5.55-23.69,4.74-.78,4.28.64,6.6-3.57,10.2-4.89,4.17-13.34,4.52-18.31.28-5.47-4.68-2.55-10.58-6.5-15.62-6.09-7.76-21.11-5.17-23.26,3.93-1.12,4.77.53,8.03-4.58,11.99-7.43,5.75-20.11,2.15-21.27-6.93-2.4-18.77.9-42.72.03-62.31-.06-1.29-.74-2.36-.79-2.96.58-2.69.64-5.62.56-8.4,0-.17-.41-.33-.95-.49-.23-3.63.03-6.58,1.13-9.86-.97.54-1.3.22-.75-.67l-.99-1.16c.15-13.4.14-26.86,0-40.37l1-1.98c-2.4-2.23-1.58-9.11.75-11.38l-1.5-3.08c.32-4.09.82-8.19,1.5-12.32,1.15-29.34,13.16-55.1,37.52-74.98l.64-2.3c6.17-4.79,12.85-9.08,19.98-12.66l2.65.24c15.75-7.36,29.25-8.41,46.54-4.69h-.04Z"/>
    <path class="st5" d="M844.39,511.66c-5.17.5-14.05,4.46-17.69,4.67-2.07.12-7.44-2.09-10.09-2.66-1.24-9.68-.46-19.42-.72-29.15-.53-20.23-1.63-40.67-2.27-60.9-.08-2.61-.35-6.23-.03-8.71,1.24-9.44,25.5-10.44,28.49-.62.26,32.54,2.13,64.9,2.3,97.37h0Z"/>
    <path class="st5" d="M770.09,518.35c-7.96,3.72-16.64,9.33-23.26,14.73l-48.23-69.16c-3.07-8.59,15.25-19.1,23.82-13.83l47.68,68.26h0Z"/>
    <path class="st5" d="M906.68,533.75c-5.2-4.33-16.31-11.69-22.51-14.73l42.78-69.29c7.97-6.13,27,3.53,24.42,12.39l-44.69,71.62h0Z"/>
    <path class="st5" d="M943.45,697.77c.02-.22-.02-.45,0-.67-.53-2.54-.74-5.61,0-8.03,1.1-2.19,10.31-2.09,11.63,0l.38-1.42c8.66-1.94,15.93-6.04,19.34-13.75-3.92,5.49-10,8.93-17.27,9.65-6.23.62-17.29.72-14.08-6.53l1.84-.74c41.59,8.76,41.01-48.36.03-39.31l-1.88-.78c0-3.12-.71-7.64-.75-11.38,2.42-3.71,10.56-4.06,15.31-4.09,6.79-.04,13.52,1.36,19.67,3.9-8.25-4.47-17.39-7.19-27.41-8.2l-1.57-1.65c22.28-2.33,44.76,12.17,49.91,31.47,8.17,30.64-20.78,57.05-55.16,51.55h0Z"/>
    <path class="st5" d="M706.3,614.76l-1.01,1.7c-10.11,1.25-19.37,4-27.77,8.28,5.47-2.33,11.4-3.61,17.43-3.91,4.43-.21,11.68-.52,14.37,2.62-.04,3.74-.73,7.96-.75,11.38l-1.77,1.07c-12.26-1.85-23.78,4.74-27.17,15.39l-1.83.96c-.26,2.9-.77,5.57-1.5,8.03,1.37,15.56,12.96,28.81,31.67,27.61.52.14.97.31,1.17.62.57.85-.32,7.64-.57,9.26-.61.47-1.77.6-2.59.68-19.07,1.64-39.07-9.21-46.55-24.79-14.24-29.65,11.2-61.01,46.89-58.9h0Z"/>
    <path class="st40" d="M943.45,611.41c.14,1.54-.1,3.14,0,4.69,1.99.24,3.36-1.14,5.25-1.33,11.57,2.16,22.33,3.19,31.88,10.06.93.67,7.2,5.9,6.39,6.68-12-9.11-29.63-12.23-44.27-6.7-.05-4.26-.59-9.37.75-13.39h0Z"/>
    <path class="st40" d="M709.3,623.46c-14.23-3.34-30.54-.47-41.27,8.7,2.02-4.62,7.31-8.02,11.99-10.39,9.78-4.94,16.93-4.15,26.28-7.01.5-.15,1.94.24,2.2-.02.7-.71-.96-5.72.8-6.67-.2,5.15.06,10.25,0,15.4h0Z"/>
    <path class="st41" d="M943.45,677.02c-1.69-13.66,0-27.24,0-40.84,21.57-8.15,42.28,11.89,31.81,30.72-5.57,10.01-20.41,15.01-31.81,10.12Z"/>
    <path class="st41" d="M708.55,634.84c-.05,13.09,1.3,26.59.79,39.87-.05,1.27.08,2.53-.79,3.65-.13.55-.4,1.12-.96,1.26-18.03,4.35-34.3-11.68-29.8-27.37,3.33-12.62,16.46-20.18,30.77-17.41h0Z"/>
    <path class="st34" d="M920.2,591.33c-7.81-29.9-32.51-55.85-63.8-68.29-1.87-2.22,11.15-.65,12.19-.49,32.25,5.02,57.62,35.22,53.77,64.36-.18,1.33-.58,3.93-2.15,4.43h0Z"/>
    <path class="st30" d="M943.45,677.02c.16,1.31-.19,2.68.03,3.99,17.71,4.28,29.72-1.45,34.48-17.08.33-1.08-.8-1.98,1.5-1.64-.76,9.12-5.02,18.95-14.48,23.57-1.39.68-8.83,3.21-9.91,3.21h-11.63c-.15,2.65.21,5.39,0,8.03-1.24-.7-.75-2.54-.76-3.67-.07-4.59-.45-10.31,0-14.75.08-.71-.37-1.64.76-1.66h0Z"/>
    <path class="st30" d="M676.28,660.28l.89.5c3.08,12.77,14.55,23.07,29.96,19.83-.09-1.51.45-2.16,2.17-1.58.59,2.81.41,13.96.04,17.14-.1.91,0,.98-.79,1.6-.2-2.87.14-5.83,0-8.71-19.82,1.46-32.89-11.56-32.28-28.78h0Z"/>
    <path class="st5" d="M708.55,678.35c.57.1.64.15.75.67-1.21.47-.17,2.26-1.24,2.71-1.43.59-6.38.73-8.17.67-13.83-.46-21.27-11.09-23.61-22.12.08-2.21.95-5.96,1.5-8.03-2.62,13.59,8.93,26.53,24.43,26.8,2.09.03,4.27-1.06,6.34-.69h0Z"/>
  </g>
</svg>