<?xml version="1.0" encoding="UTF-8"?>
<svg id="Ebene_1" xmlns="http://www.w3.org/2000/svg" version="1.1" viewBox="0 0 384 384">
  <!-- Generator: Adobe Illustrator 29.5.1, SVG Export Plug-In . SVG Version: 2.1.0 Build 141)  -->
  <defs>
    <style>
      .st0 {
        fill: #5ad15a;
      }

      .st1 {
        fill: #fed631;
      }

      .st2 {
        fill: #e7c32d;
      }

      .st3 {
        fill: #63e663;
      }

      .st4 {
        fill: #e01e1e;
      }

      .st5 {
        fill: #e0ab20;
      }

      .st6 {
        fill: #e0aa20;
      }

      .st7 {
        fill: #28afcf;
      }

      .st8 {
        fill: #ddd;
      }

      .st9 {
        fill: #30c2e4;
      }

      .st10 {
        fill: #f6bb23;
      }

      .st11 {
        fill: #1d1e1e;
      }

      .st12 {
        fill: #f62121;
      }

      .st13 {
        fill: #1d9bbd;
      }

      .st14 {
        fill: #f3f3f3;
      }
    </style>
  </defs>
  <path class="st4" d="M301.5,122.76c1.3-1.17,1.8-.92,1.5.75,17.68,56.46,10.9,126.2-50.25,151.2l-1.68,2.3c-5.19,2.69-13.69,5.61-19.32,4.44-.42.46-.85.89-1.34,1.24s-.95.66-1.44.72c-18.39,2.32-34.98,1.6-52.76-.53-1.36,1.29-2.6,1.81-3.7,1.56-34.64,38.7-69.98,76.63-119.6,96.59l-10.9,2.97h-8.25c-9.73-4.46-8.08-7.82-3.75-15.72l1.33-1.06c10.56,3.42,23.94-2.33,33.65-7.04,24.52-11.87,47.12-30.1,66.84-48.06,1.13-2.97-2-4.85-9.39-5.63l-.18-1.84.33-1.97,16.49-11.89c2.46-.99,5.1-1.61,7.93-1.86l1.91-1.6c28.62-3.67,51.65-24.36,71.59-43.31l.37-2.25c13.62-12.95,22.02-30.46,29.44-47.52l6.2-12.36c-1.49-2.93.97-9.56,3.75-11.23,1.75-2.11,2.51.14,3.08,1.99,5.32,17.29-16.78,57.27-26.1,72.59-2.14,17.67,21.81,3,27.89-1.58,38.27-28.78,29.82-88.79,15.64-128.2-.34-1.72.34-2.38,1.99-1.69.82-.22,1.72-.43,2.56-.15,2.19.73,12.25,5.34,13.94,6.5,1.05.72,1.67,1.43,2.25,2.63Z"/>
  <path class="st12" d="M265.5.75c8.71,3,17.07,6.4,24.56,12.32,4.5,3.55,11.7,9.67,11.44,15.38-2.93-.12-5.99-1.12-9.19-2.99-50.47-12.38-48.91,52.07-20.45,76.59,3.71,2.84,6.59,6,8.64,9.49,1.68-1.51,3.08.34,2.25,2.25-1.33.49-.11,2.33.19,3.18,15.18,43.59,22.17,109.48-27.17,134.19-8.74,4.38-22.11,8.7-19.92-6.41,9.57-14.4,29.78-54.55,26.18-70.97-.27-1.22-.35-2.65-1.77-3.1-1-.51-1.51-1.02-1.1-2.01-16.26,20.93-35.16,40.02-59.77,50.83-14.58,6.41-40.95,10.21-45.08-10.3-8.29,6.26-18.77,10.54-29.3,10.16-3.96-.14-11.07-.65-12.5-4.52-.65-.25-.65-.5,0-.75.1-2.25.47-4.45,1.23-6.57,5.3-14.82,16.02-32.48,24.37-46.1,7.29-11.88,15.63-23.89,23.89-34.15,5.36-4.5,12.15-9.6,19.01-11.34,1.97-.5,6.89-.4,7.63-1.37,8.49-37.13,14.13-88.87,52.95-107.34,7.22-3.43,15.87-6.04,23.91-6.46Z"/>
  <path class="st7" d="M102.75,242.53c.65.25.65.5,0,.75l1.09,1.24c-6.41,20.62,12.48,23.11,26.91,14.98,9.1-6.74,19.23-12.05,24.2,2.61,3.82,5.18,15.66,3.78,21.2,2.51,15.21-3.47,29.82-11.89,42.35-20.93l2.01.33c.02,1.48-1.02,2.08-1.86,3.01-16.18,17.78-46.85,41.17-71.64,41.91-5.28,1.5-11.13,1.7-15.69-1.52-21.23,13.9-45.06,26.62-69.58,33-7.52,1.96-24.17,5.26-31.25,2.61-.89-.33-1.48-1.13-1.97-1.91l53.25-38.19c-5.27-6.39-2.52-14.81-.69-22.01,3.6-14.13,10.14-27.1,16.44-40.11l1.33,1.27c-.8,6.2-1.11,13.47,3.62,18.25l.3,2.19Z"/>
  <path class="st1" d="M337.5,107.79c-9.47-11.03-21.33-20.97-35.39-26.35l-1.36-2.09-.96-1.8c3.22-8.4,7.67-16.4,13.17-23.54l2.04-.12.76-2.82c.67-1.2,7.59-7.14,8.99-6.91,23.13,10.38,39.35,31.35,34.28,57.79-.73,3.83-4.15,14.85-8.44,15.57-5.77.97-8.3-8.18-13.09-9.74Z"/>
  <path class="st12" d="M122.25,304.65c3.68,2.76,14.35.63,10.86,8.22-.52,1.14-12.21,11-14.25,12.72-18.35,15.43-60.37,46.69-84.67,44.12-1.46-.15-2.86-.88-4.19-1.43,7.11-12.98,18.95-24.1,27.75-35.93l2.46-2.12c20.72-5.43,40.32-14.64,58.78-25.37l3.26-.2Z"/>
  <path class="st13" d="M147,288.94c-.82,1.1-2.49.57-3.71,1.17-6.03,2.92-14.69,10.7-21.04,14.55-18.42,11.17-43.48,22.96-64.5,27.7-8.76,1.97-19.27,4.3-27.96,1.34-7.21-2.45-7.31-8.45-1.29-12.57,16.26,3.57,33.82-1.86,49.14-7.47,18.7-6.85,36.7-16.89,53.42-27.58,5.87,2.53,9.53,3.06,15.94,2.87Z"/>
  <path class="st2" d="M231.75,281.45c4.23-.87,8.21,4.63,6.75,8.23-.49.51-1,1-1.57,1.4s-1.1.75-1.69.89c-15.17,3.48-31.89,3.87-47,1.85-8.76-1.23-6.88,5.05-2.34,9.52.5,1.03.24,1.57-.85,1.57l-7.31-.25c-4.64-.78-6.3-.32-8.11-5.81l2.86-14.4c1.19-1.33,1.74-3.17,4.11-3.05l26.23,2.34c9.58-.61,19.47-.59,28.91-2.28Z"/>
  <path class="st1" d="M238.5,289.68c4.73.53,5.95,9.57,3.34,13.4,2.23.07,4.4.6,6.41,1.57,4.54-1.84,8.96-1.87,13.5,0-14.41,3.39-45.78.25-61.88,0-7.38-.11-15.05,1.18-22.12,0h7.5c-2.78-2.12-5.84-6.99-4.13-10.48,1.84-3.75,13.4-.82,17.22-.72,13.44.38,27.12-.57,40.16-3.77Z"/>
  <path class="st4" d="M324.75,44.16c-.37,1.82-8.1,7.81-9.75,9.73l-1.6-1.62c-1.31-7.74-4.53-14.93-9.65-21.58-1.59,1.55-3.35-.43-2.25-2.25-7.37-13.44-22.47-22.4-37.12-26.2l1.12-1.5c19.32-.99,40.32,8.8,51.62,24.45,2.75,3.8,8.55,14.43,7.63,18.96Z"/>
  <path class="st10" d="M298.5,88.33c.52-.18,1.04-.34,1.58-.4,5.44-.58,25.77,17.37,29.97,22.29l.7,2.81c-8.23,5.61-17.7,9.5-27.75,10.48-.7.1-1.11-.57-1.5-.75l-1.86-1.75c-2.91-9.97-4.53-19.88-2.94-30.55l1.8-2.14Z"/>
  <path class="st4" d="M112.5,214.08c-1.62,2.47-4.25-.96-5.34-2.77-1.69-2.83-1.78-4.58-.66-7.71,14.45-26.44,32.12-56.72,55.5-76.35,1.77.61-.23,2.02-.71,2.66-19.46,26.09-36.02,54.22-48.79,84.17Z"/>
  <path class="st5" d="M337.5,107.79c-.96,1.49-5.07,4.1-6.75,5.24-9.67-9.61-19.45-19.24-32.25-24.7-2.11-2.04-.54-8.13,2.25-8.98,10.09,3.49,21.14,10.62,28.89,17.95,1.51,1.42,7.05,7.24,7.92,8.63.44.72.38,1.19-.06,1.87Z"/>
  <path class="st6" d="M252.75,274.71c.72,2.72,4.59,4.08,6.45,5.95.82.83.82,2.02,1.05,2.28l-.42,1.64c-7.95,1.78-9.6,5.9-7.4,13.71-.07,3.54-.3,5.79-4.18,6.36-3.49-.02-7.01.02-10.5,0,1.68-2.07,3.34-1.53,3.78-4.82.7-5.2-.99-6.28-3.04-10.14-1.54-2.9-2.96-7.3-6.75-8.23,7.15-1.28,14.33-4.01,21-6.74Z"/>
  <path class="st10" d="M260.25,282.95c.46.54,1.58.92,2.25,1.85,4.61,6.42,10.5,17.21-.75,19.86-4.49-.02-9.01.03-13.5,0,6.1-5.1-.47-10.91,2.69-16.41,1.71-2.97,6.11-4.61,9.31-5.3Z"/>
  <path class="st0" d="M112.5,214.08c-.09.21.09.54,0,.75l.55,2.54c-3.3,7.6-6.58,15.22-8.37,23.34l-1.93,1.82c-6.72-4.86-6.37-14.32-5.25-21.71,2.92-6.03,5.87-11.49,9-17.22.03,3.71,2.11,9.35,6,10.48Z"/>
  <path class="st3" d="M260.25,170.67c-.91,3.61-2.6,7.66-3.75,11.23-11.18,24.1-30.12,44.36-51.43,60-16.7,12.26-57.82,29.26-63.04-2.6-8.7,4.74-18.74,9.73-29.27,8.79-3.32-.3-9.66-1.12-10.01-4.81.04-.24-.05-.51,0-.75,2.27-11.03,5.55-17.73,9.75-27.7,14.34,6.99,32.22,1.06,43.49-8.98-.53,18.72,20.1,19,33.75,15.34,28.83-7.73,54.53-34.77,71.63-58-.17,2.17-.61,5.42-1.13,7.48Z"/>
  <path class="st9" d="M220.5,244.02c-13.43,10.66-44.5,27.76-61.66,22.24-7.39-2.37-5.24-6.47-8.79-9.94-6.38-6.26-13.38,1.99-19.26,4.82-15,7.22-31.98,6.72-29.47-14.45.2-1.67,1.33-2.84,1.44-3.42,9.05,5.89,20.38,3.06,29.76-.61l10.74-6.12c2.17,30.29,36.12,18.8,53.48,8.83,25-14.36,44.91-39.25,59.77-63.48-5.9,18.27-20.9,50.14-36,62.13Z"/>
  <path class="st8" d="M315,53.89c-5.31,6.21-11.7,17.7-14.25,25.45-.92,2.79-1.81,6.09-2.25,8.98-.95,6.19-.86,12.05-.74,18.33l3.74,16.11c-6.28-2.89-12.87-5.05-18.75-8.98-.94-.63-1.61-1.78-2.25-2.25l-1.5-2.43c-2.06-22.55,5.73-42.69,20.87-59.56,4.31-6.54,6.26-10.34,2.57-17.69l1.31-1.16c6.75,5.92,10.96,14.08,11.25,23.2Z"/>
  <path class="st14" d="M301.5,28.44c.2.13,1.57,1.65,2.25,2.25.33,2.61,2.2,5.29,2.28,7.88.29,8.48-12.65,20.38-17.13,28.58-4.18,7.65-6.73,16.03-8.4,24.56v19.83c-20.18-14.76-35.33-41.46-28.6-67.09,5.97-22.76,31.21-28.47,49.59-16Z"/>
  <path class="st11" d="M283.33,39.07c12.42-1.7,14.42,20.12-.9,17.77-9.53-1.46-9.49-16.34.9-17.77Z"/>
</svg>