<?xml version="1.0" encoding="UTF-8"?>
<svg id="Ebene_1" xmlns="http://www.w3.org/2000/svg" version="1.1" viewBox="0 0 384 384">
  <!-- Generator: Adobe Illustrator 29.5.1, SVG Export Plug-In . SVG Version: 2.1.0 Build 141)  -->
  <defs>
    <style>
      .st0 {
        fill: #fed631;
      }

      .st1 {
        fill: #8b8b8b;
      }

      .st2 {
        fill: #e7c32d;
      }

      .st3 {
        fill: #606060;
      }

      .st4 {
        fill: #e0aa20;
      }

      .st5 {
        fill: #575757;
      }

      .st6 {
        fill: #ddd;
      }

      .st7 {
        fill: #c5c5c5;
      }

      .st8 {
        fill: #f6bb23;
      }

      .st9 {
        fill: #b3b3b3;
      }

      .st10 {
        fill: #7f7f7f;
      }

      .st11 {
        fill: #dcdcdc;
      }

      .st12 {
        fill: #1d1e1e;
      }

      .st13 {
        fill: #f3f3f3;
      }
    </style>
  </defs>
  <path class="st0" d="M186.75,336.09v24.17c7.53,4.71,22.19,13.26,16.5,23.73h-71.25c-2.9-.49-3.01-2.24-2.78-4.81.74-8.25,22.88-18.79,30.11-19.13-.96-4.59-.57-8.83,1.17-12.74l3.3-1.18c6.82.44,13.65.6,20.49.46l.21-9.44,1.5-1.06c.08-.69.34-.65.75,0Z"/>
  <path class="st8" d="M160.5,347.32c0,4.46.07,8.95-.08,13.4-7.64,1.85-29.96,10.88-29.85,19.93.01,1.22.95,2.28,1.42,3.35h-24.75c-5.69-7.39,6.08-14.14,11.73-17.11,3.08-1.61,14.77-5.43,16.02-6.84.31-6.09.56-12.08.75-17.96.55-.26,1.1-.49,1.68-.63,1.78-.42,17.1,3.09,20.35,4,1.08.3,1.94,1.1,2.72,1.87Z"/>
  <path class="st11" d="M164.25,118.27c-.44,2.31,1.14,1.28,2.5,1.59,3.39.77,11.45,2.31,14.03,3.33,7.03,2.78,23.25,18.91,28.85,25.01,16.15,17.56,33.01,40.65,46.11,60.64l-.11,1.77c-21.76,24.63-52.69,34.33-85.42,35.04-10.61.23-23.37.35-32.97-3.88-.18.65-.44.64-.75,0l-4.27-2.14c-16.51-17.55-29.94-41.7-30.04-66.28-.02-5.77.08-14.65,4.31-18.41-.47-.58-.89-1.25-.87-2.02.06-2.53,6.55-13.97,8.89-14.21.08,0,.37-.68-.52-.98l.18-1.72c13.69-13.77,28.95-19.86,48.58-18.86l1.49,1.12Z"/>
  <path class="st1" d="M164.25,118.27c-4.64,1.62-10.29.34-15.28.84-7.9.79-16.78,4.48-23.2,9.03-3.08,2.18-9.21,8.83-11.76,9.59-.07,2.51-9.96,3.93-10.88,1.5-.07.58-.25,1.46-.67,1.5-2.3.19-19.79.37-20.76,0-.56-.22-.84-.91-1.08-1.5-.17,2.5-7.58,1.58-7.88-.75-1.13.97-1.53.53-.75-.75,4.2-28.15.27-54.46-6.57-81.65-2.75-15.53-.92-32.54,7.32-45.6,22.53-15.16,55.39-13.09,74.23,7.13,22.69,24.35,23.64,61.62,27.81,92.78-.29,1.65-8.59,7.2-10.54,7.88Z"/>
  <path class="st9" d="M71.25,154.2c.65.25.65.5,0,.75.32.7.61,1.41.8,2.14s.34,1.4.31,2.09c-1.34,40.13-2.62,79.77,22.7,113.44,29.26,38.91,85.56,60.11,131.99,41.51l3.2.25c2.05-1.4,5.4.55,5.25,2.99-14.96,10.55-30.4,16.78-48.75,18.71-.25.03-.5-.02-.75,0l-2.25,1.69c-7.04.55-14.09.28-21.08-.64l-2.16-1.8c-7.41,1.56-17.51-1.4-23.97-5.25,1.31,4,.76,8.1-.78,11.99-.02,3.31.66,16.37-.75,17.96l-.09-31.36c-19.52-6.76-37.75-19.75-51.3-35.25-32.46-37.15-31.4-94.5-25.86-140.74,1.03-1.5,3.14-1.76,6.34-.8,3.59-.22,5.97.54,7.16,2.3Z"/>
  <path class="st1" d="M366.75,354.06c-.51.37-1.04.7-1.6.94-7.13,3.04-37.95-7.64-46.45-10.88-25.11-9.57-49.93-21.39-73.83-33.78-1.78-1.58-1.16-2.72,1.13-2.69l1.72-1.3c12.57,1.38,25.43,2.19,37.99.16,13.86-2.25,12.48-8.36,8.61-19.32l1.19-1.25c-.95-.7-1.85-1.5-2.35-2.58-2.09-4.44-5.37-13.2-6.72-17.91-.33-1.14-.18-2.32.08-3.46,18.85,16.51,37.83,34.26,54.39,53.14,7.84,8.94,24.06,27.55,25.86,38.93Z"/>
  <path class="st3" d="M255.75,208.84c3.15,4.81,5.98,10.06,9,14.97.6,1.58.58,2.6.17,4.11-4.6,16.74-24.61,33.08-39.51,40.84-7.66,3.98-18.3,9.15-26.66,8.2-.77,2.26-2.17,2.53-3.75.75-12.2-4.2-25.37-10.12-36.8-17.3-4.8-3.02-18.86-12.32-20.51-16.74-.22-.6-.35-1.24-.45-1.89,36.83,5.93,80.37,2,109.11-23.97,3.26-2.95,5.69-7.15,9.39-8.96Z"/>
  <path class="st11" d="M276.75,243.27c.85,11.27-4.81,23.51-11.57,32.58-3.65,4.89-8.92,11.69-14.68,13.08-.25.65-.5.65-.75,0l-4.09,1.06c-6.91-.07-46.48-7.93-47.62-11.33-.19-.56.29-1.2.71-1.7,27.7-6.35,57.28-24.95,66-53.15,3.88,6.3,8.47,13.07,12,19.46Z"/>
  <path class="st10" d="M224.25,302.41l19.7,3.45,2.05,1.79c-2.13,1.26-.1,1.41.73,1.86,17.76,9.57,37.88,18.93,56.51,26.72,19.85,8.29,41.83,17.3,63.51,17.83.8,5.05-1.16,7.9-6.56,8.8-20.52,3.44-71.24-19.79-91.21-29.12-10.97-5.12-22.76-10.8-33.48-16.36-1.65-.86-3.47-2.05-5.25-2.99-5.98-1.3-28.24-12.13-29.03-15.77-.16-.76,2.49-2.3,3.77-1.52l12.44,3.52c2.87,0,5.14.61,6.81,1.79Z"/>
  <path class="st10" d="M72,137.73c-3.33,1.31-9.96,1.34-12.33-1.12l.33-6.36c-.37-16.19-.57-31.62-6-47.16,1.38-2.33,1.84-4.85,2.07-7.66l1.68-1.32-1.27-2.06c.93-9.06-.5-18.95-4.69-26.98l.71-1.65c-.38-1.72,2.17-9.49,2.98-11.62,3.52-9.19,9.23-15.91,17.27-21.32,1.51.45,0,2.24-.37,3-15.54,33.03.73,55.04,2.61,86.45.64,10.76-.15,23.73-1.47,34.44-.17,1.35.31,2.81-1.52,3.35Z"/>
  <path class="st3" d="M286.5,261.99c3.5,7.51,6.64,15.91,9,23.95-.16.78-.36,1.66-1.01,2.16-6.15,4.75-35.35,5.28-43.12,2.45l-.87-1.62c9.31-7.83,17.4-17.28,21.77-28.8,2.09-5.53,2.81-11.25,4.48-16.86,3.29,5.96,6.88,12.57,9.75,18.71Z"/>
  <path class="st0" d="M57.75,74.11c-.42,2.89-6.11,1.8-6.38-.75-.16.58-.41,1.46-.86,1.5-4.71.38-12.84.38-17.56,0l-1.08-1.5c.15,4.03-11.23,2.68-13.88.75,5.13-15.56,19.02-26.49,34.5-30.69.04.2,1.65,2.23,2.07,3.55,3.23,10.14,4.54,16.38,3.18,27.14Z"/>
  <path class="st2" d="M57.75,74.11c-.38,3.04-.68,5.97-1.59,8.91-.7.28-1.45.03-2.16.08-3.14.23-5.62-.69-8.59-.78-9.03-.28-17.9,1-26.91.66-3.38-2.27-1.48-5.88-.5-8.86,3.86-.16,7.79.21,11.65.03.98-.05,1.95-.78,2.22-.78h19.5c1.18,0,4.36,1.53,6.38.75Z"/>
  <path class="st6" d="M60,130.25c.05,1.99-.05,4,0,5.98,3.97.54,8.03.95,11.99,1.5.2.03.54.72.75.75,2.12,4.52,1.31,11.56-1.5,15.72l-13.5-1.5,2.25-22.46Z"/>
  <path class="st2" d="M186,336.09v11.98c-8.53.04-17.03.22-25.5-.75-1.48-3.97-1.47-8,0-11.98,9.19,1.29,16.26,1.6,25.5.75Z"/>
  <path class="st4" d="M160.5,335.35c0,3.98,0,7.99,0,11.98-8.37-.96-16.58-3.34-24.75-5.24.02-4.23-.02-8.49,0-12.72,8.11,2.65,16.27,4.8,24.75,5.99Z"/>
  <path class="st7" d="M106.5,154.95c-10.01,30.19,8.27,66.15,30,86.83-4.44.87-9.21.29-14.31-1.77-.54-.17-1.01-.26-1.22-.07-.48.44,7.21,9.27,8.02,10.2,7.11,8.15,27.43,28.09,37.92,28.56,8.63.39,17.14-.57,25.64-1.94.92-.1,1.75.39,2.45.95,1.27-.24,2.49-.46,3.75-.75.48,1.43,1.83,1.47,2.98,1.89,15.49,5.68,31.68,8.39,48.02,10.08l-.15,2.05c-4.54,4.78-18.83,12.99-25.35,11.42-7.66,1.4-14.87-4.04-22.5-4.12,9.32,5.65,18.87,11.01,28.5,16.1-56.63,25.43-132.18-11.76-151.51-69.23-9.72-28.89-10.46-60.16-7.49-90.21.07-.59.27-1.48.69-1.5,9.09-.45,20.43-.46,29.51,0,2.71-.51,4.4,0,5.04,1.5Z"/>
  <path class="st5" d="M136.5,241.78c.24.04.51-.04.75,0,15.22,15.93,35.47,25.81,55.72,33.88,1.17.47,2.42.2,2.03,2.05-9.4,1.8-20.87,3.32-30.42,2.29-5.14-.55-20.23-12.51-24.72-16.5-4.84-4.29-19.41-19.66-21.34-25.11-.67-1.88.72-.65,1.27-.52,5.56,1.33,11.07,2.97,16.72,3.9Z"/>
  <path class="st13" d="M114,137.73c2.59-.14,1.19.39.45,1.57-2.89,4.64-6.24,10.49-7.95,15.65h-35.25c.02-.25-.03-.5,0-.75.54-5.23,1.25-10.47,1.5-15.72,1.76.21,6.56.75,7.88.75h22.5c1.15,0,9.72-1.15,10.88-1.5Z"/>
  <path class="st12" d="M96.55,31.61c12.7-2.57,16.89,16.92,4.15,19.12s-15.87-16.75-4.15-19.12Z"/>
  <path class="st5" d="M246,307.65c-5.93-.75-12.82-2.02-18.63-3.48-1.23-.31-2.66-.27-3.12-1.76,8.39-1.54,19.01-8.08,25.5-13.47.25.03.5-.02.75,0,2.83.28,6.38,1.38,9.34,1.53,11.29.57,25.55.81,35.66-4.52,2.2,7.5,6.76,16.53-3.24,20.35-11.57,4.41-33.82,2.94-46.26,1.36Z"/>
</svg>