<?xml version="1.0" encoding="UTF-8"?>
<svg id="Ebene_1" xmlns="http://www.w3.org/2000/svg" version="1.1" viewBox="0 0 409.6 409.6">
  <!-- Generator: Adobe Illustrator 29.5.1, SVG Export Plug-In . SVG Version: 2.1.0 Build 141)  -->
  <defs>
    <style>
      .st0 {
        fill: #fbc900;
      }

      .st1 {
        fill: #cb7400;
      }

      .st2 {
        fill: #fecc00;
      }

      .st3 {
        fill: #fdc901;
      }

      .st4 {
        fill: #ddb100;
      }

      .st5 {
        fill: #fe9711;
      }

      .st6 {
        fill: #dcb100;
      }

      .st7 {
        fill: #5eab24;
      }

      .st8 {
        fill: #6dc72a;
      }
    </style>
  </defs>
  <path class="st6" d="M181.25,394.25l2.75.06c9.87,5.91,20.6,9.97,32.21,12.18l1.77,2.12-3.99.8c-6.19-.43-13.07.58-19.16,0-8.05-.76-18.74-4.31-26.35-7.18-.31-1.92,1.29-3.72,4.83-5.41,2.28-2.37,4.39-3.23,6.35-2.57.25-2.12.99-2.03,1.6,0Z"/>
  <path class="st5" d="M253.9,130.89l.48,1.61-30.98,21.87c-1.46,1.75-1.91,2.66-.74,4.68,1.94,3.36,26.67,20.57,30.82,22.13,1.83.84,3.85,1.39,5.65.27l27.41-19.4,1.7.76c2.75,3.99,4.09,5.94,6.39,10.38.45,2.01-.64,3.69-3.28,5.03l-14.24,9.75c-5.3,4.53-5.11,5.25.19,9.82l27.9,18.81,1.4,2.87c.27,5.81-.08,11.74,0,17.56l-1.11,2.66-30.25,20.15c-2.86,2.33-2.2,5.53.58,7.68,9.99,6.82,19.98,13.68,29.96,20.57l.82,2.41c-.08,5.56.24,11.21,0,16.76l-1.14,2.82-24.93,16.49c-9.7,6.94-9.39,8.9-.33,15.16,5.29,3.04,10.41,6.31,15.36,9.82l-.14,1.99c-1.91,3.88-3.94,7.61-6.39,11.17-.26.64-.7.99-1.36,1l-28.76-20.27c-3.15-1.37-6.34-.22-9.56,3.45l-18.44,11.97c-8.21,4.25-10.45,8.34-6.72,12.29l30.66,21.65-.15,1.85c-4.3,2.46-8.3,3.88-12.78,5.59h-2.89s-33.88-22.31-33.88-22.31c-7.86,4.01-15.18,8.95-21.96,14.82l-1.95-.49h-1.6c-2.98.92-9.22-4.48-10.38-7.18-.7-.23-.69-.49,0-.8l.29-2.01c6.12-3.27,11.78-7.17,16.98-11.71,1.69-1.61,2.64-3.1,1.1-5.14l-32.26-22.62c-4.39.71-8.43,2.76-12.12,6.17l-1.93-.61c-2.94-.14-6.91-9.05-4.79-11.17-.71-.21-.7-.48,0-.8,1.13-3.63.33-7.09-2.4-10.38-2.92-3.84-4.2-12.06-1.6-15.96l.82-.72c6.78,4.74,13.84,8.97,21.19,12.7l32.05-21.66c1.45-.54,2.51-4.33,1.6-5.13-9.41-8.31-22.87-17.08-33.76-23.51-7.37,2.92-14.28,7.36-20.72,13.33l-1.97-.54c-.62-.08-1.52-.24-1.6-.7-.57-3.47-.37-11.73,1.6-14.47-.22-.75.05-1.02.8-.8l.05-1.66c5.48-3.05,6.19-7.9-.01-10.69l-.83-2.01c-.71-.15-.68-.42,0-.8-2.2-4.73-2.23-9.64,0-14.37,1.86-1.16,4.1-.47,6.72,2.07,5.2,5.34,10.85,8.63,16.96,9.86l30.81-21.15c1.48-1.41,2.72-2.68,1.89-4.77-1.64-4.11-27.22-20.48-32.7-23.66-7.46,2.57-14.58,6.69-21.36,12.37l-1.51-1.06c-2.59-4.22-1.45-11.95,1.6-15.96.23-1.85,1.21-3.75,2.94-5.7-.85-1.88-1.03-3.43-.54-4.67-1.66-2.45,1.81-10.75,4.79-11.17.27-.69.53-.69.8,0l1.63-.82c3.73,3.66,7.74,5.48,12.05,5.44,9.46-5.66,20.44-13.11,29.14-19.88,2.88-2.24,4.96-4.57,1.97-7.62-5.22-4.14-10.78-7.85-16.53-11.22l-.31-1.82c-.7-.23-.69-.49,0-.8-.42-2.93,7.67-8.3,10.38-7.18.25-2.12.99-2.03,1.6,0l1.93-.58c6.69,6.38,13.95,11.12,21.8,14.23,10.91-6.69,21.63-13.81,32.16-21.37l3.2-.26c3.57-1.48,11.53,1.9,12.78,5.59Z"/>
  <path class="st8" d="M103,67.04c26.07-14.2,53.43-.6,72.65,18.36-1.67-26.95,3.79-58.72,22.39-79.38,6.11-6.79,7.56-7.41,13.96-.43,18.85,20.56,24.46,52.79,22.75,79.82,22.84-22.79,55-34.8,82.61-11.95,2.87,2.38,14.13,11.79,8.21,14.54-3.3,1.53-11.26,2.29-15.58,3.58-16.33,4.85-33.54,13.59-44.9,26.55-25.99-17.84-58.68-22.88-88.86-14.71-4.43.74-8.43-.25-11.73-3.34-14.85-16.71-36.22-27.92-58.72-31.07l-2.77-1.95Z"/>
  <path class="st7" d="M265.08,118.12c-3.47,3.96-6.39,8.88-8.78,13.57-.81,2.11-2.62,1.46-2.4-.8-4.37-2.38-8.13-3.88-12.78-5.59l-3.1.57c-6.3-2.6-12.81-4.14-19.51-4.62l-1.34-1.53c-14.7.46-30.22,1-44.36,6.31l-2.75-.72c-.87,1.99-2.93,3.39-6.21,4.2-2.57,1.94-5.03,2.67-7.37,2.18.54,2.22-1.13,2.55-2.4.8-8.44-19.27-28.06-32.45-47.49-39.12-3.53-1.21-22.54-5.34-23.22-6.34-2.19-3.22,6.46-10.76,8.86-12.78,3.12-2.63,7.16-5.25,10.76-7.21,19.47,2.11,39.01,10.47,53.87,23.17,4.09,3.5,8.76,10.5,13.95,11.59,5.77,1.21,18.12-3.19,25.16-3.67,21.98-1.48,48.89,3.79,66.8,17.09,1.11.82,2.4,1.08,2.3,2.89Z"/>
  <path class="st2" d="M289.04,364.72c-8.78,12.79-20.82,24.21-34.33,31.92l-31.57-22.32c-2.18-2.22-3.54-3.83-2.17-7,2.24-5.19,26.72-17.92,31.86-23.23,2.08-1.34,4.84-1.35,6.94,0l29.26,20.62Z"/>
  <path class="st2" d="M256.3,131.68c12.54,7.35,23.8,19.3,31.94,31.13l-28.28,20.01c-2.42,1.46-4.72.87-7.13-.18-3.64-1.59-26.86-17.71-29.7-20.6-3.03-3.07-3.96-5.3-.8-8.84l31.57-22.31c.81.44,1.92.52,2.4.8Z"/>
  <path class="st2" d="M306.6,237.03c.26,17.77.26,35.71,0,53.47l-31.07-21.22c-4.06-2.75-5.35-7.3-1.27-10.7l32.34-21.55Z"/>
  <path class="st2" d="M241.93,402.23c-7.77,2.97-15.53,5.77-23.95,6.38-12.64-3.42-26.23-6.11-36.73-14.37,3.9-3.09,20.3-16.17,24.29-15.95l36.39,23.93Z"/>
  <path class="st6" d="M131.74,255.39c0,.27,0,.53,0,.8,1.62,1.96,2.11,4.83,1.47,8.59.68,2.51.46,4.43-.67,5.77-.29.22-.5.58-.8.8-.31.74-.65,1.45-1.09,2.11-2.3,3.46-17.65,12.98-22.51,15.88-1.31.78-2.86.99-4.35,1.16-.3-18.01-.32-36.26,0-54.27.35-.51,1.02-1.21,1.35-1.01,3.79,2.3,24.29,15.75,25.74,17.77l.85,2.39Z"/>
  <path class="st6" d="M169.27,386.27v.8l-.26,1.76c-2.97,2.61-9.66,7.93-13.31,7.02-15.42-8.92-24.3-17.17-34.33-31.92l1.61-2.8c2.58-2.05,14.74-10.71,16.57-10.86.59-.05,1.18,0,1.78.09l2.93,2.33c5.87,11.42,13.94,21.61,23.51,30.16l1.51,3.42Z"/>
  <path class="st6" d="M156.49,131.68c3.07-.44,11.09,4.58,13.5,6.83l.07,1.95v.8l-1.04,2.82c-10.42,8.41-18.91,19.17-24.43,31.37l-2.47,1.72c-.19-.12-.61.12-.8,0-.47.53-.97.54-1.6.44-1.06-.17-16.1-11.3-16.9-12.9-.3-.6-.49-1.24-.66-1.9,8.98-12.91,18.39-22.11,31.94-30.33.81-.49,1.87-.5,2.4-.8Z"/>
  <path class="st2" d="M295.42,353.55c-5.37-4.94-17.52-10.13-21.97-15.15-3.49-3.93-1.26-7.07,2.08-9.92,8.96-7.65,21.66-13.81,31.07-21.22-.75,17.55-3.43,30.55-11.18,46.29Z"/>
  <path class="st2" d="M306.6,219.47l-30.27-20.42c-1.49-1.25-4.43-3.79-4.73-5.7-.97-6.16,19.63-15.14,23.03-20.17,8.11,15.65,11.14,28.58,11.98,46.29Z"/>
  <path class="st1" d="M132.54,214.68c.69.27.69.53,0,.8l-1.24,2.71-8.71,5.46c-5.02,4.69-2.25,9.4,8.31,14.14l.84,2.43c.71.15.68.42,0,.8-.05,4.78,0,9.59,0,14.37l-27.95-19.15c.11-6,.45-11.82.8-17.56l1.21-2.74c8.74-5.25,17.21-10.87,25.42-16.86l2.91-.35c-1.18,5.34-1.2,10.59-1.6,15.96Z"/>
  <path class="st6" d="M136.53,188.35c4.34,4.78,1.44,7.03-2.4,10.38-8.31,7.24-20.33,13.64-29.54,19.95,1.12-18.6,2.64-28.66,11.18-45.49l2.01-.13c6.22,4.55,12.55,8.97,18.99,13.26l-.24,2.03Z"/>
  <path class="st6" d="M134.14,328.01c2.08,3.01,4.23,6.79,2.4,10.38.07.24-.08.56,0,.8l.11,1.85c-6.67,4.44-13.33,8.88-20,13.33l-1.67-.81c-7.44-15-10.36-29.57-11.18-46.29l3.34.48,20.64,13.6c2.81,1.76,5.27,3.42,6.36,6.67Z"/>
  <path class="st1" d="M131.74,286.51c-3.05,5.36-10.86,9.6-16.4,12.16,6.27,3.37,13.13,7.43,17.2,13.38.4,5.79.56,10.12,1.6,15.96-9.12-7.41-20.89-13.56-30.34-20.75-.27-5.54.09-11.2,0-16.76,9.06-6.69,18.9-12.47,27.95-19.15v15.16Z"/>
  <path class="st1" d="M136.53,339.18c.98,3.12,3.32,8.06,4.79,11.17-6.71,4.4-12.94,9.62-19.96,13.57-2.52-3.7-4.29-6.14-6.39-10.38l21.56-14.37Z"/>
  <path class="st1" d="M141.32,177.17l-4.79,11.17c-4.8-5.29-15.97-9.22-20.76-15.16,2.28-4.5,3.6-6.37,6.39-10.38,5.66,4.65,11.91,8.69,17.99,12.78.71.48,1.02,1.48,1.17,1.58Z"/>
  <path class="st1" d="M179.65,394.25l-11.18,7.98c-5.81-2.2-7.72-3.46-12.78-6.38,3.14-.72,11.46-8.65,13.57-8.78,1.85-.11,8.21,5.92,10.38,7.18Z"/>
  <path class="st2" d="M202.59,308.26c1.18-.32,2.61-.38,3.82-.25,6.23.71,25.34,18.59,32.72,21.6,3.76,4.48,2.3,6.6-1.28,9.89-8.01,7.37-20.75,12.97-29.18,20.31-2.46,1.58-4.45,1.09-6.94,0-5.01-2.2-20.27-13.66-25.53-17.58-4.68-3.48-10.24-6.39-4.94-12.62l31.33-21.35Z"/>
  <path class="st2" d="M204.21,166.13c.74-.12,1.24-.12,1.99,0,2.42.4,25.19,16.42,28.8,19.17,4.29,3.27,9.51,6.03,4.14,11.82-3.5,3.77-22.87,16.43-28.24,19.66s-5.34,3.58-10.9.32-24.12-15.46-28.26-19.63c-2.1-2.12-3.46-4.45-2.05-7.51.7-1.51,23.59-17.18,26.96-19.34,1.87-1.2,5.65-4.16,7.57-4.48Z"/>
  <path class="st2" d="M255.3,272.3c1.65-.32,3.07-.23,4.48.76,8.8,7.42,20.47,13.04,29.18,20.31,4.74,3.95,4.74,7.08,0,11.03-6.21,5.18-20.87,15.29-27.94,19.16-3.11,1.7-3.77,2.85-7.39,1.14-4.99-2.35-26.64-17.26-30.82-21.07-3.26-2.97-3.44-6.58,0-9.48l32.49-21.84Z"/>
  <path class="st2" d="M203.38,237.19c4-1.08,7,2,10.06,3.98,3.89,2.52,26.24,17.56,27.27,19.82,1.78,3.88-.69,5.62-3.2,7.94-7.89,7.32-20.38,12.76-28.65,20.04-2.32,1.29-4.91,1.05-7.31,0-4.67-2.04-19.62-13.27-24.54-16.97-6.39-4.8-11.98-7.68-3.67-14.55,8.79-7.27,20.73-13.41,30.05-20.26Z"/>
  <path class="st2" d="M253.7,202.11c2.3-.59,4.13-.38,6.26.54,3.22,1.39,27.66,18.24,30.27,20.82,4.33,4.28,1.84,7.48-2.06,10.7-4.68,3.86-23.55,17.37-28.4,19.49-2.46,1.08-4.48,1.57-6.96.01-8.53-7.45-20.85-13.03-29.19-20.3-4.7-4.1-4.1-6.74.35-10.69,8.38-7.45,20.87-13.3,29.72-20.57Z"/>
  <path class="st2" d="M132.54,312.05c-.45-.58-.86-1.16-1.19-1.8-2.13-4.21-1.58-19.01.39-23.74,4.5-3.17,15.19-12.05,19.37-13.76,1.35-.55,2.53-.9,3.98-.45,11.73,7.46,23.78,15.11,34.33,23.99,1.32,2.63.49,5.62-1.84,7.33l-32.48,21.88c-.68.22-1.32.1-2-.01-2.81-.47-17.07-10.99-20.56-13.43Z"/>
  <path class="st2" d="M131.74,241.02c0-.27,0-.53,0-.8-1.91-4.5-2.42-19.03-.38-22.99.32-.62.73-1.19,1.18-1.75.02-.26-.02-.53,0-.8,6.54-2.75,16.42-14.06,23.51-12.73,9.16,6.97,21.92,13.23,30.36,20.73,4,3.56,5.23,6.29.81,10.35l-31.31,21.4c-1.87.42-3.05.2-4.79-.47-5.9-2.28-12.98-10.49-19.38-12.94Z"/>
  <path class="st2" d="M169.27,386.27c-11.74-9.88-21.39-22-27.95-35.91,3.9-2.56,9.94-8.07,14.59-7.03l32.88,23.02c.78,1.04,1.31,2.16,1.23,3.51-.31,4.78-16.34,13.88-20.75,16.42Z"/>
  <path class="st2" d="M142.12,177.17c5.63-13.88,15.94-26.94,27.95-35.91,1.17-.14,16.61,10.38,18,11.94,3.79,4.24,1.5,6.88-2.1,9.94-8.47,7.21-20.45,13.19-29.43,20.05-5.27,1.78-10.16-3.21-14.41-6.02Z"/>
  <path class="st2" d="M217.18,119.71c7.04-.61,17.32,3.15,23.95,5.59l-32.46,22.22c-2.44,1.56-4.44,1.1-6.94,0-5.77-2.53-14.17-10.49-19.68-14.24-.11-.81.05-1.55.47-2.24,2.46-4.03,28.39-13.58,34.66-11.32Z"/>
  <path class="st6" d="M217.18,119.71c-10.79.94-26.25,7.36-35.13,13.57h-1.6c-2.91.99-10.59-4.91-10.38-7.98,16.32-5.87,25.34-6.58,42.73-6.4,1.35.01,3.55-.51,4.38.81Z"/>
  <path class="st1" d="M170.07,125.3l10.38,7.98-10.38,7.18-13.57-8.78c5.75-3.27,7.09-4.05,13.57-6.38Z"/>
  <path class="st0" d="M132.54,270.55c-1.48-4.25-.79-9.8-.8-14.37,4.91,1.55,9.04,5.73,5.59,10.78-1.4,2.05-3.23,2.38-4.79,3.58Z"/>
  <path class="st3" d="M136.53,338.39c-.94-3.13-1.82-7.15-2.4-10.38,3.71,3.01,7.17,6.04,2.4,10.38Z"/>
  <path class="st6" d="M131.74,240.22c-4.48-3.12-14.21-6.9-13.64-13.18.39-4.35,10.98-8.99,14.44-11.56-.56,8.51-.7,16.2-.8,24.74Z"/>
  <path class="st4" d="M132.54,312.05c-6.16-4.3-12.37-8.6-18.35-13.17,5.46-4.67,11.71-8.25,17.55-12.37,0,8.84.19,16.77.8,25.54Z"/>
</svg>