<?xml version="1.0" encoding="UTF-8"?>
<svg id="Layer_1" xmlns="http://www.w3.org/2000/svg" version="1.1" viewBox="0 0 800 800">
  <!-- Generator: Adobe Illustrator 29.5.0, SVG Export Plug-In . SVG Version: 2.1.0 Build 137)  -->
  <defs>
    <style>
      .st0 {
        fill: #d2d6d8;
      }

      .st1 {
        fill: #683529;
      }

      .st2 {
        fill: #fff;
      }

      .st3 {
        fill: #b5babc;
      }

      .st4 {
        fill: #4c2114;
      }

      .st5 {
        fill: #ffb300;
      }

      .st6 {
        fill: #d87b00;
      }
    </style>
  </defs>
  <path class="st3" d="M681.99,685.21c0,64.93-127.9,102.1-281.99,102.1s-281.99-37.17-281.99-102.1,127.9-133.07,281.99-133.07,281.99,68.14,281.99,133.07Z"/>
  <path class="st0" d="M387.91,477.38c195.36,0,312.73,55.29,312.73,145.71s-7.54,169.42-304.59,174.39c-239.26,4.01-290.98-76.65-290.98-167.08s87.48-153.03,282.84-153.03Z"/>
  <path class="st3" d="M681.99,648.04c0,64.93-127.9,102.1-281.99,102.1s-281.99-37.17-281.99-102.1,127.9-133.07,281.99-133.07,281.99,68.14,281.99,133.07Z"/>
  <path class="st0" d="M662.18,654.66c0,61.09-117.33,110.43-262.18,110.43s-262.18-49.55-262.18-110.43,117.33-110.43,262.18-110.43,262.18,49.34,262.18,110.43Z"/>
  <path class="st2" d="M2.44,607.48c0-87.3,180.29-137.15,397.56-137.15s397.56,50.06,397.56,137.15-180.29,178.87-397.56,178.87S2.44,694.78,2.44,607.48Z"/>
  <ellipse class="st0" cx="400" cy="607.46" rx="398.66" ry="167.89"/>
  <path class="st3" d="M681.99,610.45c0,64.93-127.9,102.1-281.99,102.1s-281.99-37.17-281.99-102.1,127.9-133.07,281.99-133.07,281.99,68.14,281.99,133.07Z"/>
  <path class="st0" d="M662.18,616.86c0,61.09-117.33,110.43-262.18,110.43s-262.18-49.55-262.18-110.43,117.33-110.43,262.18-110.43,262.18,49.55,262.18,110.43Z"/>
  <path class="st6" d="M370.22,518.49c-.02,43.93,54.59,79.55,121.98,79.56,67.39.01,122.03-35.59,122.05-79.51v-.05c0-43.93-54.63-79.54-122.02-79.54s-122.02,35.61-122.02,79.54h0Z"/>
  <path class="st5" d="M118.77,567.45c0,43.93,54.63,79.54,122.02,79.54s122.02-35.61,122.02-79.54-54.63-79.54-122.02-79.54-122.02,35.61-122.02,79.54Z"/>
  <path class="st1" d="M203.24,564.39c0,8.45,10.5,15.3,23.46,15.3,12.96,0,23.47-6.84,23.47-15.29h0c0-8.46-10.5-15.31-23.46-15.31-12.96,0-23.47,6.84-23.47,15.29h0Z"/>
  <path class="st1" d="M231.4,521.56c0,5.07,6.3,9.18,14.08,9.18s14.08-4.11,14.08-9.18-6.3-9.18-14.08-9.18-14.08,4.11-14.08,9.18Z"/>
  <path class="st1" d="M259.56,598.04c0,6.76,8.39,12.24,18.76,12.25,10.37,0,18.78-5.47,18.79-12.23v-.02c0-6.76-8.4-12.24-18.77-12.24s-18.77,5.48-18.77,12.24h0Z"/>
  <path class="st1" d="M156.31,576.63c0,5.07,6.29,9.18,14.07,9.18,7.78,0,14.08-4.1,14.09-9.17h0c0-5.08-6.3-9.19-14.08-9.19s-14.08,4.11-14.08,9.18h0Z"/>
  <path class="st1" d="M287.72,558.27c0,5.07,6.3,9.18,14.08,9.18s14.08-4.11,14.08-9.18-6.3-9.18-14.08-9.18-14.08,4.11-14.08,9.18Z"/>
  <path class="st1" d="M203.24,610.28c0,3.38,4.2,6.12,9.38,6.12s9.39-2.74,9.39-6.11h0c0-3.39-4.2-6.13-9.38-6.13s-9.39,2.74-9.39,6.11h0Z"/>
  <path class="st4" d="M418.36,494.04c0,6.76,8.39,12.24,18.76,12.25,10.37,0,18.78-5.47,18.79-12.23v-.02c0-6.76-8.4-12.24-18.77-12.24s-18.77,5.48-18.77,12.24h0Z"/>
  <path class="st4" d="M468.14,512.39c0,5.07,6.3,9.18,14.08,9.18s14.08-4.11,14.08-9.18-6.3-9.18-14.08-9.18-14.08,4.11-14.08,9.18Z"/>
  <path class="st4" d="M514.09,484.86c0,5.07,6.3,9.18,14.08,9.18s14.08-4.11,14.08-9.18-6.3-9.18-14.08-9.18-14.08,4.11-14.08,9.18Z"/>
  <path class="st4" d="M535.52,527.68c0,3.38,4.2,6.12,9.39,6.12s9.39-2.74,9.39-6.12-4.2-6.12-9.39-6.12-9.39,2.74-9.39,6.12Z"/>
  <g>
    <path class="st6" d="M474.4,661.22c0-43.93-54.63-79.54-122.02-79.54-67.39,0-122.02,35.61-122.02,79.54v.05c.02,43.93,54.66,79.53,122.05,79.51,67.39-.01,122-35.63,121.98-79.56h0Z"/>
    <path class="st5" d="M461.15,541.91c-67.39,0-122.02,35.61-122.02,79.54s54.63,79.54,122.02,79.54c67.39,0,122.02-35.61,122.02-79.54s-54.63-79.54-122.02-79.54Z"/>
    <path class="st1" d="M488.75,654.78c0-8.45-10.51-15.29-23.47-15.29-12.96,0-23.46,6.85-23.46,15.3h0c0,8.46,10.51,15.3,23.47,15.3,12.96,0,23.46-6.85,23.46-15.3h0Z"/>
    <path class="st1" d="M465.29,575.57c-7.78,0-14.08,4.11-14.08,9.18s6.3,9.18,14.08,9.18,14.08-4.11,14.08-9.18-6.3-9.18-14.08-9.18Z"/>
    <path class="st1" d="M415.65,642.87c0-6.76-8.4-12.24-18.77-12.24-10.37,0-18.77,5.48-18.77,12.24v.02c0,6.76,8.42,12.23,18.79,12.23,10.37,0,18.77-5.49,18.76-12.25h0Z"/>
    <path class="st1" d="M528.17,609.21c0-5.07-6.3-9.18-14.08-9.18s-14.08,4.11-14.08,9.18h0c0,5.08,6.31,9.19,14.09,9.18,7.78,0,14.07-4.12,14.07-9.18h0Z"/>
    <path class="st1" d="M407.2,590.86c-7.78,0-14.08,4.11-14.08,9.18s6.3,9.18,14.08,9.18c7.78,0,14.08-4.11,14.08-9.18s-6.3-9.18-14.08-9.18Z"/>
    <path class="st1" d="M465.29,618.38c0-3.38-4.21-6.12-9.39-6.11s-9.38,2.74-9.38,6.12h0c0,3.39,4.21,6.12,9.39,6.12,5.18,0,9.38-2.74,9.38-6.12h0Z"/>
    <path class="st4" d="M328.91,627.57c0-6.76-8.4-12.24-18.77-12.24s-18.77,5.48-18.77,12.24v.02c0,6.76,8.42,12.23,18.79,12.23,10.37,0,18.77-5.49,18.76-12.25h0Z"/>
    <path class="st4" d="M296.05,655.1c-7.78,0-14.08,4.11-14.08,9.18s6.3,9.18,14.08,9.18c7.78,0,14.08-4.11,14.08-9.18s-6.3-9.18-14.08-9.18Z"/>
    <path class="st4" d="M346.2,681.61c-7.78,0-14.08,4.11-14.08,9.18s6.3,9.18,14.08,9.18,14.08-4.11,14.08-9.18-6.3-9.18-14.08-9.18Z"/>
    <path class="st4" d="M310.14,696.68c-5.18,0-9.39,2.74-9.39,6.12s4.2,6.12,9.39,6.12,9.39-2.74,9.39-6.12-4.2-6.12-9.39-6.12Z"/>
  </g>
</svg>