<?xml version="1.0" encoding="UTF-8"?>
<svg id="Ebene_1" xmlns="http://www.w3.org/2000/svg" version="1.1" viewBox="0 0 798 359">
  <!-- Generator: Adobe Illustrator 29.5.1, SVG Export Plug-In . SVG Version: 2.1.0 Build 141)  -->
  <defs>
    <style>
      .st0 {
        fill: #b4b9bb;
      }

      .st1 {
        fill: #d1d5d7;
        stroke: #000;
        stroke-miterlimit: 10;
      }
    </style>
  </defs>
  <path class="st1" d="M353.09,355.65c-31.4-1.03-65.08-4.23-96.19-10.28-35.23-6.85-72.79-18.76-100.77-41.66,97,33.75,281.06,46.86,383.13,27.67,43.21-8.12,85.83-20.6,126.26-37.68l-12.77,11.22c-55.42,39.55-181.08,49.14-248.67,50.73-16.56.39-34.46.54-50.99,0Z"/>
  <path class="st1" d="M417.07,3c97.31.85,204.04,15.36,291.41,60.03,39.52,20.2,86.82,52.84,89.51,100.81v14.99c-2.64,48.46-53.35,83.02-93.93,102.99-119.95,59.03-286.7,69.14-418.53,52.67-79.74-9.96-202.7-38.19-259.07-100.34C12.58,218.85.59,200.03.15,178.83c.35-4.84-.48-10.23,0-14.99-.35-31.23,24-56.44,47.4-74.4,44.64-34.27,105.66-55.2,160.68-67.87,57.78-13.3,116.02-18.41,174.84-18.57h33.99Z"/>
  <path class="st0" d="M622.03,239.76c11.42-9.57,24-18.71,31.51-31.94,21.79-38.39-6.09-69.8-37.6-89.35-103.26-64.05-324.88-63.85-429.5-2.75-46.9,27.39-71.66,70.36-23.85,113.09,4.3,3.85,9.8,6.44,13.52,10.95-39.93-16.24-76.28-50.08-50.41-95.82,44.25-78.23,206.19-105.48,287.9-103.02,75.12,2.26,220.55,31.93,259.58,104.27,24.48,45.39-11.91,78.6-51.16,94.57Z"/>
</svg>