<?xml version="1.0" encoding="UTF-8"?>
<svg id="Layer_1" xmlns="http://www.w3.org/2000/svg" version="1.1" viewBox="0 0 384 384">
  <!-- Generator: Adobe Illustrator 29.6.1, SVG Export Plug-In . SVG Version: 2.1.1 Build 9)  -->
  <defs>
    <style>
      .st0 {
        fill: #f1c291;
      }

      .st1 {
        fill: #f6d9bb;
      }

      .st2 {
        fill: #f4936e;
      }

      .st3 {
        fill: #eab983;
      }

      .st4 {
        fill: #f1c290;
      }

      .st5 {
        fill: #f49e7f;
      }
    </style>
  </defs>
  <path class="st1" d="M202.5,87c13.92-5.29,53.9-15.89,60.55,3.57,6.93,20.29-24.71,48.04-39.32,58.54-23.63,16.99-53.83,31.2-83.49,30.9,4.47,12.95,4.54,26.34,2.26,39.74l9.73-10.88c37.87-30.14,101-48.22,145.53-23.26,33.05,18.52,52.14,58.44,50.24,95.85.1.46,1.05,1.05,1.5,1.29-1.98,17.01-8.11,31.81-18.39,44.41l-2.61.59c-8.88,9.21-20.79,15.09-33.12,18.26l-11.13,1.99h15.38c.79,0,4.65,3.61,5.19,4.56,3.06,5.46-.02,10.97-5.35,13.28-31.82.26-63.66.2-95.47.16-3.46-2.08-.04-9.58,1.99-12.4s7.96-7.96,11.13-5.6l.67-1.5c5.18.02,10.34.52,15.46,1.5-8.04-.77-14.35-1.81-21.6-6.32-46.61-28.98-29.63-99.18,24.6-102.43-1.92.31-13.91,2.12-15.05,1.5-.58-.31-.88-.9-1.08-1.5l-1.07,1.53c-50.3,4.87-55.54,70.97-25.58,102.05,4.37,2.69,5.4,4.86,3.07,6.5-6.75,2.02-8.55,9.48-8.99,15.75l-1.55.92c-15.99-.02-32.01.02-48,0,.84-16.39,15.54-19.69,29.5-17.97,4.08-8.26-2.08-17.2-9.49-21.17-3.29-1.76-6.86-2.26-10.26-3.61-22.42-15.07-28.65-24.08-24.18-52.56l3.8-18.37c-9.58,13.52-27.78,15.89-43.36,16.18-.17,0,3.05-.09,3,.74-.78,1.24-2.85.75-4.11.76-23.55.29-45.41-2.54-58.14-24.76l.55-1.45c14.25-5.41,9.99-23.27-2.95-8.69l-2.1-.35c-11.49-39.38,18.68-60.06,50.27-73.1,8.34-3.44,26.64-9.8,35.23-9.4l1.65-.7c4.19,1,8.47,2.06,12.83,3.17,13.59-32.77,48.4-54.2,79.72-68.34l2.54.62Z"/>
  <path class="st4" d="M202.5,87c-26.5,10.07-66.34,36.59-78.64,62.73-1.01,2.14-2.08,4.66-2.37,7.02-4.67-1.74-8.8-2.5-13.7-3.2-.74-.11-1.65-1.28-2.05-1.3-.46-26.91,12.62-53.86,27.58-75.54,11.53-16.71,39.7-49.04,61.96-46.62s13.43,43.15,7.21,56.91Z"/>
  <path class="st4" d="M186,366c.35-7.6,2.62-16.73,11.25-18.37-27.45-17.74-31.73-74.17-7.85-95.6,6.63-5.95,21.91-12.77,30.73-12.77h16.12c.19,1.1-1.41.97-2.23,1.14-1.77.36-3.58.29-5.31.7-52.6,12.49-57.77,82.6-8.6,103.18l13.14,3.73h-16.12c-.29,0-4.59,1.84-5.28,2.22-5.36,3.02-8.33,9.74-7.85,15.78-5.99,0-12.01,0-18,0Z"/>
  <path class="st4" d="M349.5,282.75c.73.4,1.98.43,3.02,1.08,28.89,18.19,5.93,58.26-24.02,43.92,13.21-13.71,15.08-25.28,18.96-42.95.28-1.27.33-2.4,2.04-2.05Z"/>
  <path class="st0" d="M87,269.25l-3-.74c9.7-.78,20.62-2.83,29.51-6.86,7.08-3.21,9.2-5.85,13.82-11.68.71-.9.85-2.04,2.41-1.7-2.55,15.03-8.1,30.26-5.66,45.78,2.04,12.99,15.3,20.57,24.27,28.24,1.87,1.6.6.81-.6.97-22.79-9.04-37.99-33.85-45.8-56.23-4.88,1.19-9.87,2.5-14.95,2.23Z"/>
  <path class="st3" d="M24.75,245.25c-1.93-3.37-3.4-6.74-4.5-10.5,3.01-1.68,5.12-6.27,8.69-6.73,4.44-.57,7.62,2.62,7.04,7.04-.34,2.62-7.78,10.89-11.23,10.19Z"/>
  <path class="st5" d="M228.6,99.97c18.88-1.76,22.91,9.87,10.95,22.95-18.3,20.03-62.16,41.67-89.18,43.57-23.04,1.62-17.67-8.51-6.75-21,20.34-23.26,53.85-42.61,84.98-45.52Z"/>
  <path class="st2" d="M66.55,189.93c6.76-1.16,21.69,2.56,17.8,11.81-3.19,7.56-11.25-1.11-15.57.16-3.58,1.05-2.29,7.9-8.43,8.15-11.8.5-5.37-18.13,6.2-20.12Z"/>
</svg>