<?xml version="1.0" encoding="UTF-8"?>
<svg id="Layer_1" xmlns="http://www.w3.org/2000/svg" version="1.1" viewBox="0 0 737.28 1105.92">
  <!-- Generator: Adobe Illustrator 29.6.1, SVG Export Plug-In . SVG Version: 2.1.1 Build 9)  -->
  <defs>
    <style>
      .st0 {
        fill: #090605;
      }

      .st1 {
        fill: #170e09;
      }

      .st2 {
        fill: #6a380e;
      }

      .st3 {
        stroke: #120f0d;
        stroke-miterlimit: 10;
      }

      .st3, .st4 {
        fill: #120f0d;
      }

      .st5 {
        fill: #fcfcfc;
      }

      .st6 {
        fill: #b16f3d;
      }

      .st7 {
        fill: #080808;
      }

      .st8 {
        fill: #0d0805;
      }

      .st9 {
        fill: #6c390e;
      }

      .st10 {
        fill: #070604;
      }

      .st11 {
        fill: #b06f3d;
      }

      .st12 {
        fill: #060504;
      }

      .st13 {
        fill: #b16f3c;
      }

      .st14 {
        fill: #eeeeec;
      }

      .st15 {
        fill: #262524;
      }

      .st16 {
        fill: #272524;
      }

      .st17 {
        fill: #f9f9f9;
      }

      .st18 {
        fill: #7d532f;
      }

      .st19 {
        fill: #315774;
      }

      .st20 {
        fill: #493e36;
      }

      .st21 {
        fill: #0e0805;
      }

      .st22 {
        fill: #6b390e;
      }

      .st23 {
        fill: #140c07;
      }

      .st24 {
        fill: #b26f3d;
      }

      .st25 {
        fill: #b4703d;
      }

      .st26 {
        fill: #b06f3c;
      }

      .st27 {
        fill: #fdfdfd;
      }
    </style>
  </defs>
  <path d="M334.47,356.17l-3.6,2.15c1.26-1.61,1.77-2.92,1.44-5.03-17.03,2.62-33.51,3.49-50.49-.22-13-2.84-21.75-5.83-29.65-17.11-1.15-1.64-1.69-5.33-3.29-3.91,1.42,8,4.2,15.15,8.62,21.95-35.03,1.03-58.14-35-61.87-66.19-.94-.19-1.15,1.32-1.25,1.97-1.16,7.12-1.33,16.37-.93,23.6.18,3.18,1.48,6.47,1.11,9.68-12.98-13.67-17.38-33.05-18.38-51.41-3.12-57.46,33.06-139.67,62.75-188.41,24.91-40.89,76.96-96.13,130.44-78.23,2.46.82,8.43,4.21,10.09,4.32,2.11.14,14.54-4.83,18.85-5.54,61.85-10.16,109.61,57.98,134.8,105.09,25.02,46.81,56.7,138.02,39.8,189.73-2.74,8.4-7.55,16.79-12.96,23.74-.74-9.48,2.01-21.35-.36-30.57-.26-1,.02-2.24-1.43-2.52-3.9,29.92-25.85,59.22-56.82,64.04-.44-.53,3.36-6.56,3.94-7.93,1.46-3.51,2.8-8.18,3.16-11.95.08-.8.66-2.58-.62-2.42-6.35,16.21-22.85,20.59-38.58,22.93-15.76,2.35-30.53,1.26-46.3.09-.8.72,4.97,7.36-.72,5.03l-1.95-1.5c-1.47-4.9-1.7-9.99-1.91-15.06l-13.56,6.63-2.01-.86c-16.08,5.72-34.35,6.2-50.35,0l-2.18.65-12.97-6.19c.24,5.18-.71,9.66-2.84,13.45h.02Z"/>
  <path class="st7" d="M333.03,361.2c1.16,1.52.64,3.33-1.56,5.44-10.82,6.15,1.38,18.83,7.65,23.93,21.84,17.75,63.3,14.1,83.23-5.26,6.07-5.9,11.28-12.83,2.54-18.54-1.47-1.69-3.93-4.66-.52-4.85,2.36-1.54,4.6,3.98,6.21,4.27.86.15,4.1-3.61,6.54-4.1,8.81-1.79,25.53,2.35,32.58,8.09,2.85,2.32,4.5,6.15,6.51,7.88,2.29,1.98,10.12,5.13,13.84,7.74,31.83,22.34,41.54,73.49,54.47,108.2.13,6.35-6.69,8.4-10.87,11.58,4.66,24.38,10.28,48.75,13.63,73.38,3.98,29.3,5.64,59.01,9.53,88.32,4.29,32.31,18.12,81.78.93,111.2-4.98,8.52-5.99,6.62-12.19,11.55-1.19.95-1.88,3.14-3.57,4.34-5.38,3.84-7.88-1.01-9.97-.61-.83.16-1.91,1.99-3.3,2.44-3.44,1.13-7.82-.96-8.55-4.53-.63-3.1,4.33-13.2,5.43-17.3,3.05-11.34,3.67-24.15.19-35.41l-5.37,12.96c-4.64,8.88-16.98,24.22-19.07,4.66,3.47-18.04.87-39.52,8.29-56.46,2.94-6.71,7.49-11.16,8.24-19.1.9-9.6-6.66-29.97-9.29-40.34-3.35-13.23-6.89-26.45-9.41-39.88-2.2,2.25-2.49,6.5-3.76,9.54-.86,2.06-1.97,4.36-3.05,6.3-1.99,3.56-6.31,7.45-6.14,11.1.22,4.72,4.67,21.36,2.73,24.71-1.54,2.66-6.75,1.34-7.05,6.28-.44,7.19,1.33,17.66,1.49,25.14,1.43,67.43-4.35,134.34-8.65,201.51-2.25,35.06-2.97,71.68-6.49,106.48-.35,3.45-.36,8.05-2.72,10.44-3.48,3.52-6.8,1.61-7.33,7.56-1.11,12.52,7.4,9.52,13.67,16.53,3.31,3.71,5.64,13.49,7.36,15.31,1.13,1.19,6.92,3.73,9.18,5.56,19.66,15.94,27.07,49.84-4.9,56.28-27.38,5.51-52.94-2.7-73.18-21.36-12.89-11.88-13.33-21.23-11.84-38.5.86-10,6.74-24.5,6.48-33.79-.18-6.51-7.19-4.56-9.35-10.13-1.03-64.39-3.61-128.75-7.2-192.82-1.28-22.76-1.68-45.62-4.41-68.26-.98-8.08-2.66-16.1-3.51-24.19h-5.75c-10.54,95.43-10.65,191.27-15.26,286.93-4.31,3.34-8.3,2.74-8.39,9.22-.14,9.68,5.6,23.42,6.38,33.75.6,7.91.86,19-2.74,26.03-4.79,9.38-27.6,24.56-37.55,28.64-18.88,7.74-64.38,13.25-66.91-15.79-1.37-15.75,5.37-29.72,18.5-38.39,1.69-1.11,5.63-2.29,6.69-3.38,1.87-1.93,3.94-11.51,7.93-15.81,2.81-3.03,9.6-5.65,11.5-7.92,1.02-1.21,1.16-11.48.39-12.62-.85-1.26-6.84-1.51-7.56-5.39-6-110.71-17.47-220.87-14.43-331.72.12-4.25,1.39-9.06.79-13.59-4.2-.51-7.62-3.6-7.99-7.97-.48-5.58,4.93-19.47,4.21-22.86-.5-2.38-6.26-7.84-7.18-10.84l-5.62-11.27c-2.43,9.88-4.79,19.82-7.41,29.65-3.35,12.6-8.52,26.92-10.97,39.39-3.62,18.45,8.53,25.63,11.1,42.19l3.71,48.17c-3.16,9.29-14.18-.26-16.71-5.67l-7.06-16.31c-2.68,10.73-3.28,22.45-.52,33.24,1.19,4.65,9.88,21.92,2.15,24.18-4.87,1.42-8-3.61-9.1-3.41-1.63.29-2.03,4.54-7.46,2.28-.89-.37-5.82-4.83-7.03-5.91-31.81-28.35-13.2-86.29-8.35-122.79,1.76-13.23,2.19-26.91,3.7-40.19,4.57-40.39,9.34-80.04,19.46-119.49-.04-4.1-13.44-7.35-11.52-13.55,13.88-32.78,22.04-82.92,51.82-105.07,5.13-3.82,13.45-6.51,17.17-9.44,2.24-1.76,4.17-5.8,6.88-8.22,6.82-6.1,25.01-10.94,33.44-7.59,1.41.56,2.91,2.64,3.84,2.48,2.04-.36,5.16-6.58,8.38-4.26h0Z"/>
  <path class="st6" d="M402.81,348.25c6.19-1.78,11.15-6,17.26-7.91-.38,6.73.13,12.35,2.16,18.7,1.19,3.72,1.09,1.74,2.16,2.88.05.05-.63.87-.26,1.43,5.51,8.28,11.01,6.68,3.73,17.52-14.94,22.25-55.19,27.8-78.54,17.65-9.41-4.09-24.83-16.06-23.52-27.63.35-3.06,3.15-3.41,5.08-5.73.97-1.17,1.46-2.64,2.16-3.96.57-1.07,1.74-1.84,2.05-3.45.19-.97-.62-1.51-.61-1.59.56-4.92,1.31-10.06,1.44-15.11.85-.17,1.38.1,2.12.39,4.51,1.81,9.66,4.91,14.42,6.8,15.82,6.2,34.34,5.71,50.35,0h0Z"/>
  <path class="st11" d="M492.01,206.51c2.27-2.81,2.73-6.71,5.03-9.71,7.1-9.23,21.12-7.79,24.11,3.93,2.13,8.36-1.24,30.35-4.57,38.64s-11.86,17.34-20.5,20.5c-1.97.72-7.59,2.25-9.04.52-.83-.99,3.94-21.69,4.23-25.48.07-.97.62-4.45-.7-4.66-8.15,37.24-20.94,73.24-53.01,96.28-19.09,13.71-50.25,24.69-73.62,19.95-26.4-5.36-62.94-32.48-77.24-55.13-12.41-19.66-16.05-40.97-21.29-63.25-1.25-.17-.68,1.64-.71,2.51-.25,6.19.63,12.31,1.77,18.38.3,1.6,2.51,8.47,2.42,8.99-.47,2.79-10,.13-12.1-.75-4.88-2.05-7.89-5.17-10.47-9.68-.49-.86-.93-2.82-1.06-2.91-.14-.1-1.78.99-2.14.74-.58-.42-4.36-11.77-4.84-13.52-2.79-10.07-6.48-30.56,1.24-38.65,8.7-9.11,20.27,1.03,25.16,8.99-.99-23.49,9.21-42.02,23.76-59.34,6.79-8.08,15.09-14.8,21.43-23.18,8.32-10.99,14.75-23.81,22.07-35.47,11.77,9.57,23.81,20.16,37.03,27.7,27.31,15.58,59.89,22.34,87.76,35.97,22.3,10.91,36.44,33.59,35.26,58.63h.02Z"/>
  <path class="st19" d="M479.05,656.93c.28,5.23,1.25,10.98,1.48,16.16,3.3,77.05-5.26,157.6-10.09,234.6-1.65,26.32-2.17,52.87-4.33,79.13-.21,2.59-.53,9.17-1.26,10.98-.35.87-1.89,2.49-2.69,3.07-7.78,5.7-35.45,5.92-45.23,4.94-3.25-.33-17.42-3.97-18.29-6.89l-2.99-109.26c-2.79-39.01-3.04-78.14-5.79-117.25-1.33-18.84-3.34-37.71-7.15-56.2-.08-.9.37-1.34,1.18-1.6,5.57-1.81,14.51-1.14,20.38-3.36,1.14-.43,2.43-1.33,2.86-2.52l-16.15,1.46c-12.65.08-25.27.18-37.79-1.46-1.68,1.51,4.75,3.14,5.6,3.39,4.24,1.26,8.67,1.92,13.1,1.64-.93,14.76-3.1,29.51-4.31,44.26-6.31,76.96-6.4,154.04-10.05,230.99-.16,3.4-1.24,7.04-.85,10.67-.41,1.19-8.37,3.79-10.13,4.26-11.3,3.02-33.13,3.11-44.43.15-4.51-1.18-11.66-2.73-12.25-7.89-2.02-17.67-1.76-37.47-2.87-55.41-3.49-56.53-8.02-113.3-10.77-169.82-1.86-38.23-1.92-76.54.72-114.76,19.03,5.51,38.86,8.4,58.62,10.07,28.18,2.37,59.58,2.43,87.75,0,18.69-1.61,37.76-4.19,55.74-9.35h-.01Z"/>
  <path class="st27" d="M432.3,370.57c2.36-.15,3.69-.29,4.87,1.95,3.92,7.42,7.51,25.95,9.17,34.72,9.74,51.36,13.41,104.33,24.43,155.44,1.64,7.62,4.45,15.32,5.93,22.85,3.95,20.2,5,41.66,10.21,61.78.04,4.67-8.98,6.69-12.9,7.82-47.08,13.54-130.63,12.76-178.52,2.3-4.55-1-26.2-5.48-26.3-10.76l9.99-62.67c19.71-62.07,21.64-129.43,35.64-192.44.84-3.77,3.75-17.41,5.35-19.84,2.75-4.17,4.57,6.42,5.54,8.68,11.9,27.66,54.11,31.32,79.02,21.23,10.64-4.31,31.98-17.38,27.56-31.06h0Z"/>
  <path class="st13" d="M251.04,761.27c-5.31.94-6.24-1.52-8.92-5.12-2.44-3.28-4.7-7.2-6.32-10.95-1.11-2.56-3.63-13.02-4.2-13.43-1.99-1.45-3.67,6.74-3.96,7.9-2.29,9.22-2.63,21.79-.87,31.11.99,5.27,5.71,15.19,5.59,19.66-.18,6.67-8.13.03-10.12-2.18-5.34-5.91-6.32-14.4-8.42-21.8l-3.78-23.91c-.76,16.71,1.62,33.93,10.08,48.54-5.29,3.99-8.16-4.82-9.99-8.71-6.19-13.16-10.27-28.88-10.9-43.43-1.26-.17-.68,1.63-.71,2.51-.64,15.15,4,29.64,9.34,43.54-8.38-8.57-13.65-21.62-15.09-33.47-3.39-27.78,7.6-73.71,11.4-102.99,4.69-36.15,7.49-71.66,13.99-107.6,2.07-11.42,5.63-22.68,5.53-34.4,7.06,2.16,13.89,5.77,21.01,8.12,7.5,2.47,15.28,4.36,23.08,5.7l1.14.98c-5.35,38.5-12.81,76.64-22.27,114.3-3.07,12.21-12.64,37.66-10.56,48.82,1.09,5.86,8.01,15.65,10.25,22.12,2.85,8.22,3.41,20.95,3.96,29.86.51,8.24.77,16.56.73,24.82h.01Z"/>
  <path class="st26" d="M532.22,507.33c4.05,24.07,8.96,48.12,12.19,72.34,3.15,23.59,5.11,47.41,8.11,71.04,4.28,33.77,13.23,72.23,9.96,105.87-.89,9.11-6.55,20.22-12.59,26.98-.55.11-.43-.65-.36-1.08.99-6.5,5.41-15.31,6.87-22.64,1.56-7.83,2.04-15.79,1.77-23.77h-2.15c.64,16.83-3.49,34.35-11.86,48.95-.88,1.54-4.12,7.14-5.15,7.85-1.52,1.05-3.75.12-3.58-1.75.09-.98,4.61-8.39,5.5-10.78,3.2-8.62,6.87-28.56,5.74-37.44-.17-1.31.25-1.17-1.44-1.07-2.44,14.75-1.93,33.42-11.53,45.67-1.39,1.78-7.83,8.64-9.95,5.3-1.1-1.72,4.97-20.65,5.56-24.8,1.09-7.62,1.65-29.6-3.18-35.5-2.89-3.54-2.97,3.62-3.56,5.73-1.63,5.86-6.21,18.54-11.21,21.89-1.88,1.26-6.45,3.62-7.14.05.72-7.65.81-15.37,1.44-23.02,1.27-15.37,2.52-24.87,8.29-39.2,2.01-5,5.51-9.2,6.08-14.78,1.27-12.48-9.16-42.68-12.45-56.6-8.11-34.3-14.78-68.96-19.97-103.85l.37-1.84c10.65-2.19,21.12-5.02,31.33-8.95,2.23-.86,11.37-5.89,12.9-4.6h.01Z"/>
  <path class="st2" d="M318.65,365.52c-10.66,33.01-13.22,68.2-18.82,102.41-4.92,30.06-9.04,67.35-17.67,96.01-1.19,3.94-2.5,9.5-5.22,12.4-5.45-24.15-6.42-48.32-5.79-73.06.52-20.39,1.94-41.44,3.63-61.84,1.31-15.74,3.15-53.92,12.24-65.47,3.88-4.93,12.69-10.45,19.04-10.45h12.59Z"/>
  <path class="st5" d="M279.08,384.23c-3.23,14.02-4.46,28.47-5.75,42.81-1.54,17.14-2.73,34.59-3.63,51.77-.67,12.81.09,25.9-1.78,38.53-10.85-2.43-21.57-5.53-31.76-9.96-3.95-1.71-21.74-9.96-21.68-14.01,4.56-12.7,8.9-25.49,13.71-38.1,7.4-19.38,15.13-43.05,30.1-57.67,2.19-2.13,18.87-15.33,20.78-13.38h.01Z"/>
  <path class="st2" d="M479.04,580.66c-1.43-1-2-4.09-2.51-5.75-2.09-6.89-3.8-14.38-5.17-21.45-9.34-48.1-13.25-98.14-22.03-146.33-2.59-14.2-6.38-28.06-11.28-41.6,9.88-.17,24.63,1.34,31.23,9.41,10.08,12.35,11.36,45.15,12.64,61.47,2.43,30.93,2.57,61.86,1.45,92.82-.62,17.24-1.07,34.45-4.33,51.44h0Z"/>
  <path class="st5" d="M478.34,383.51c9.3,4.09,17.9,10.57,24.43,18.37,10.89,13.01,20.95,41.25,27.17,57.72,4.2,11.12,8.02,22.39,11.66,33.71.11.83-.18,1.53-.5,2.26-1.25,2.85-13.57,8.85-16.97,10.39-11.45,5.19-23.68,8.56-36.12,10.49-1.86-.28-.32-3.78-.29-5.19.38-25.2-.91-53.27-2.92-78.45-1.32-16.52-3.36-33.03-6.46-49.29h0Z"/>
  <path class="st15" d="M354.61,1057.71c.23,7.86-3.96,14.49-9.72,19.41-21.4,18.28-51.71,31.11-80.03,21.09-7.34-2.6-14.24-12.06-11.31-19.63,10.46,15.34,36.07,14.76,52.16,10.44,15.23-4.09,28.29-14.04,40.61-23.41l8.29-7.89h0Z"/>
  <path class="st16" d="M501.34,1080.74c.57,11.16-5.11,14.96-14.71,18.01-27.28,8.68-56.44-2.7-76.97-20.91-4.99-4.43-8.13-11.29-8.28-17.97,4.23,3.55,7.82,7.78,12.28,11.09,7.25,5.37,19.96,13.32,28.34,16.27,18.6,6.55,43.66,6.78,59.35-6.49h-.01Z"/>
  <path class="st22" d="M485.53,533.9l1.31,3.35c1.57,16.51,9.97,37.77,10.24,53.85.15,8.99-5.59,22.16-11.21,29.12-1.1,0-2.58-9.15-2.89-10.76-1.07-5.52-3.22-15.32-3.24-20.55-.04-9.08,4.14-24.3,5.05-34.51.61-6.77.74-13.7.73-20.5h.01Z"/>
  <path class="st9" d="M275.31,603.55c-.03.08-1.07.12-1.21.67-1.24,4.78-1.43,9.94-3.29,14.57-6.39-6.46-10.14-15.25-11.9-24.13l10.1-57.16,3.8,32.52c4.89,12.59,4.07,17.61,1.91,30.47-.19,1.16.76,2.62.58,3.06h.01Z"/>
  <path class="st25" d="M299.94,1015.98l-.72-8.64c9.75.99,19.31,2.63,29.17,2.19,3.13-.14,17.89-2.71,19.08-1.88.53.37.56.91.67,1.48,1.8,9.2-9.88,18.34-16.91,22.54-7.55-10.28-18.15-16.63-31.28-15.69h-.01Z"/>
  <path class="st24" d="M454.6,1008.06v7.92c-8.87-.58-18.08,1.99-24.8,7.93-1.69,1.5-4.97,6.47-6.49,6.46-2.16-.01-10.4-8.4-11.86-10.45-2.89-4.07-4.12-7.41-3.61-12.58,15.6,3.41,31,2.16,46.76.72h0Z"/>
  <path class="st0" d="M426.36,147.68c12.01-2,34.05,3.54,42.98,12.06.97.93,7.53,9.1,7.54,9.71.02.82-1.23.98-2.16.76-6.07-1.44-12.84-6.5-18.69-8.66-10.47-3.87-21.83-2.26-32.57-4.84-4.65-3.73-2.68-8.1,2.9-9.03Z"/>
  <path class="st10" d="M281.97,166.21c-1.62-1.8,6.83-12.53,8.6-14.05,9.06-7.76,29.26-9.53,40.29-6.43,2.44.69,9.92,3.18,5.72,5.68-2.24,1.34-19.99,3.29-24.54,4.23-5.9,1.22-13.93,2.87-19.44,5.02-3.83,1.49-6.74,4.4-10.63,5.55Z"/>
  <path class="st21" d="M424.37,277.74c.13.12.79,2.78.78,3.26-.11,3.5-2.98,3.03-5,4.37-4.41,2.92-8.41,6.61-13.26,9.04-19.74,9.92-46.17,9.36-64.44-3.43-1.54-1.07-5.67-5.34-6.56-5.73-1.36-.59-2.43.51-3.56.06-1.97-.79-6.19-6.51-1.46-6.86.18,4.63,2.6,5.23,3.96.72,4.64,8.29,11.24,11.7,19.95,14.58,17.32,5.73,32.94,5.6,49.72-1.74,2.18-.95,11.78-5.77,12.94-7.03.77-.83.48-3.62,1.55-3.65.41-.01,2.16,2.22,3.79.53.98-1.01-.29-5.97,1.6-4.14v.02Z"/>
  <path class="st8" d="M397.05,256.16c-.59,5.7-10.87,8.6-15.66,9.15-12.11,1.39-28-4.79-19.17-19.18,1.48-2.42,5.42-7.5,8.29-4.06,2.25,2.7-4.26,4.71-6.21,8.3-3.9,7.16-.56,8.16,6.14,9.76,10.24,2.44,16.98-1.47,26.62-3.96h-.01Z"/>
  <path class="st1" d="M506.38,210.83c2.56,2.6-7.41,6.86-8.28,8.62-2.31,4.7,3.44,16.75-5.39,17.99,4.08-4.63.35-9.16.67-14.01.3-4.59,7.69-13.69,12.99-12.6h.01Z"/>
  <path class="st23" d="M393.45,310.12c.65,2.98-2.81,3.32-5.04,3.95-7.19,2.02-15.38,1.55-22.27-1.44-1.28-.56-3.46-1.17-3.62-2.86,3.78-.7,6.67,2.17,10.4,2.55,6.54.65,14.17-.69,20.53-2.19h0Z"/>
  <path class="st21" d="M261.82,236.01c-1.46-.78-3.27-3.14-3.55-4.71-.49-2.69.75-10.87.35-11.82-1-2.38-7.51-7.36-9.01-10.08,5.82,1.08,10.94,4.93,11.54,11.11.31,3.15-.66,6.64-.53,9.3.09,1.72,1.89,4,1.2,6.21h0Z"/>
  <g>
    <path class="st17" d="M459.08,230.06c-1.53,1.93-3.65,3.55-6.34,4.87-8.43,3.39-16.68,4.68-25.37.9-11.95-5.21-18.26-18.06-15.59-31.31,10.64-20.41,40.95-22.36,52.05-6.59,6.12,11.04,5.3,24.49-4.76,32.13h.01,0Z"/>
    <path class="st3" d="M457.44,231.81c-.81.8,2.31-.64,2.84-1.71,11.39-9.93,7.28-25.66,4.39-29.87-15.32-22.27-50.75-8.91-53.5,7.77,0-2.29.63-5.58,2.75-8.41,11.48-12.83,18.04-13.96,24.38-14.6,30.11,1.1,37.5,31.25,20.78,45.08l-1.64,1.74h0Z"/>
    <path class="st20" d="M452.74,234.93c1.46-1.92,4.74-3.29,6.34-4.87l.58.61h0"/>
    <path class="st18" d="M453.32,225.8c-1.87,1.58-4.69,3.31-6.92,4.26-8.69,1.95-17.02,1.32-22.85-6.68-7-9.62-5.03-24.66,5.16-30.89,21.25-13.01,41.53,15.58,24.61,33.31Z"/>
    <path class="st4" d="M453.32,225.8l4.33-7.91c5.06-11.02-3.15-25.89-14.48-27.31-29.17-3.62-30.2,36.94-6.86,39.46h10.09c-24.48,10.4-38.59-26.55-16.54-39.04,21.79-12.34,41.12,19.88,23.46,34.78h0Z"/>
    <path class="st12" d="M444.09,200.86c-.86,4.39-.39,5.69,4.03,4.87,1.72-.34,1.14.94,1.16,2.1.13,8.82-5.91,14.78-14.06,11.2-9.28-4.08-6.59-16.87,2.94-18.63,2.7-.49,3.88.24,5.92.46h.01Z"/>
    <path class="st14" d="M448.13,205.73c-2.93,4.27-8.36-1.4-4.03-4.87.18,0,.96-.67,1.87-.5,2.41.45,3.65,3.21,2.16,5.36h0Z"/>
  </g>
  <g>
    <path class="st17" d="M296.36,228.66c-10.07-7.63-10.89-21.09-4.76-32.13,11.09-15.77,41.4-13.82,52.05,6.59,2.67,13.25-3.63,26.1-15.59,31.31-8.69,3.78-16.93,2.49-25.37-.9-2.7-1.32-4.81-2.94-6.34-4.87h.01Z"/>
    <path class="st3" d="M296.35,228.66c-16.72-13.81-9.32-43.96,20.78-45.08,6.34.65,12.89,1.78,24.38,14.6,2.12,2.84,2.75,6.14,2.75,8.41-2.75-16.68-38.18-30.06-53.5-7.77-2.89,4.19-7,19.92,4.39,29.87.53,1.07,3.65,2.52,2.84,1.71l-1.64-1.74h0Z"/>
    <path class="st20" d="M295.77,229.27h0l.58-.61c1.6,1.58,4.88,2.95,6.34,4.87"/>
    <path class="st18" d="M326.73,191.09c10.19,6.23,12.16,21.27,5.16,30.89-5.83,8-14.16,8.63-22.85,6.68-2.23-.95-5.05-2.68-6.92-4.26-16.92-17.73,3.36-46.32,24.61-33.31Z"/>
    <path class="st4" d="M302.11,224.38c-17.67-14.9,1.67-47.12,23.46-34.78,22.06,12.49,7.95,49.43-16.54,39.04h10.09c23.34-2.52,22.31-43.08-6.86-39.46-11.34,1.42-19.54,16.29-14.48,27.31l4.33,7.91h0Z"/>
    <path class="st12" d="M311.36,199.46c2.04-.22,3.22-.95,5.92-.46,9.53,1.76,12.22,14.55,2.94,18.63-8.15,3.58-14.19-2.38-14.06-11.2.01-1.16-.56-2.44,1.16-2.1,4.42.82,4.89-.48,4.03-4.87h.01Z"/>
    <path class="st14" d="M307.3,204.31c-1.49-2.15-.26-4.91,2.16-5.36.91-.16,1.69.52,1.87.5,4.33,3.47-1.1,9.14-4.03,4.87h0Z"/>
  </g>
</svg>