<?xml version="1.0" encoding="UTF-8"?>
<svg id="Layer_1" xmlns="http://www.w3.org/2000/svg" version="1.1" viewBox="0 0 473.25 450.75">
  <!-- Generator: Adobe Illustrator 29.5.1, SVG Export Plug-In . SVG Version: 2.1.0 Build 141)  -->
  <defs>
    <style>
      .st0 {
        fill: #3b484a;
      }

      .st1 {
        fill: #3b494a;
      }

      .st2 {
        fill: #fecc38;
      }

      .st3 {
        fill: #eaae03;
      }
    </style>
  </defs>
  <path class="st2" d="M118.31,421.5l-1.39-.76,23.78-142.38c.92-7.63-.9-14.96-5.9-20.86l-82.63-83.96c-4.51-4.35-8.43-9.21-11.74-14.52,35.54-6.5,72.84-8.97,107.98-15.97,9.8-1.95,12.66-4.67,17.46-13.26,17.88-32.05,31.56-68.21,49.47-100.46,7.64-13.6,25.75-13.29,33.11.46,17.73,32.12,31.39,68.11,49.18,99.99,4.8,8.59,7.66,11.31,17.46,13.26,38.42,7.65,79.32,9.1,117.48,18.09,9.71,5.23,13.37,18.6,6.21,27.49l-84.61,83.25c-4.88,5.04-4.92,11.26-4.38,17.92,2.96,36.36,15.52,75.9,19.37,112.62.25,14.71-12.72,23.8-26.6,18.37l-100.93-53.41c-6.78-2.98-12.93-3-19.74,0-28.63,12.6-58.65,31.92-87.08,46.28-5.18,2.61-11.12,6.15-16.49,7.86Z"/>
  <path class="st3" d="M40.44,159c31.12,33.15,63.86,64.79,95.48,97.49,5.51,6.86,7.1,13.28,6.27,22.04l-23.87,142.97c-12.23,3.89-22.74-4.54-24-16.86l19.41-115.61c.65-7.94-.1-11.82-5.13-17.92-24.17-23.55-48.41-47-72.26-70.88-8.64-8.65-18.83-13.99-14.41-28.65,2.96-9.81,10-11.03,18.51-12.58Z"/>
  <path class="st0" d="M214.54,216.75h34.45c1.62,0,1.24,8.49,1.11,10.11-2.05,25.12-34.62,25.12-36.67,0-.13-1.62-.5-10.11,1.11-10.11Z"/>
  <path class="st1" d="M172.03,208.66c7.95-.78,7.46,10.73,6.97,16-.29,3.09-1.16,6.44-4.48,7.51-9.34,3-8.83-10.85-8.31-16.57.31-3.4,2-6.56,5.83-6.93Z"/>
  <path class="st1" d="M290.34,208.66c2.41-.24,5.49,1.58,6.37,3.79s.98,13.16.24,15.6c-2.14,6.95-11.45,5.78-12.4-2.67-.58-5.17-1.19-16.03,5.79-16.72Z"/>
</svg>