<?xml version="1.0" encoding="UTF-8"?>
<svg id="Layer_1" xmlns="http://www.w3.org/2000/svg" version="1.1" viewBox="0 0 629.28 1536.24">
  <!-- Generator: Adobe Illustrator 29.5.1, SVG Export Plug-In . SVG Version: 2.1.0 Build 141)  -->
  <defs>
    <style>
      .st0 {
        fill: #9c9c9c;
      }

      .st1 {
        fill: #844611;
      }

      .st2 {
        fill: #844511;
      }

      .st3 {
        fill: #fbfbfb;
      }

      .st4 {
        fill: #171310;
      }

      .st5 {
        fill: #050302;
      }

      .st6 {
        fill: #c0773d;
      }

      .st7 {
        fill: #14110e;
      }

      .st8 {
        fill: #854611;
      }

      .st9 {
        fill: #010000;
      }

      .st10 {
        fill: #768484;
      }

      .st11 {
        fill: #060402;
      }

      .st12 {
        fill: #356488;
      }

      .st13 {
        fill: #fafafa;
      }

      .st14 {
        fill: #c0763d;
      }

      .st15 {
        fill: #904b14;
      }

      .st16 {
        fill: #989292;
      }
    </style>
  </defs>
  <path d="M128.65,965.03c-7.27-1.59-13.42-4.7-18.46-9.34-1.06-6.72-.48-13.75,1.73-21.1,9.49-33.87,14.82-68.13,15.97-102.79-15.05,38.48-28.25,77.41-39.6,116.81-1.11,16.67.68,33.47,5.38,50.4.3,18.69,2.71,36.82,7.24,54.41,5.89,28.95-24.29,24.33-30.25,2.96-2.1,13.64,2.22,24.95,7.98,36.84,5.06,11.19.19,23.08-13.05,21.81-2.38,14.65-17.12,7.95-23.46.1-15.2,6.43-25.92-9.78-32.03-21.68-7.84-15.3-9.09-29.42-10.09-46.53v-7.68c.96-9.2,1.7-18.81,2.22-28.83l13.96-70.94c7.75-69.45,20.92-137.91,39.22-205.44l7.73-36.14c-6.26-4.25-11.73-9.15-16.42-14.72l-.17-3.26c9.46-22.04,18.57-44.24,27.34-66.59,19.27-48.74,50.05-95.92,104.3-108.25-11.13-2.19-20.61-9.27-28.47-17.11,1.68,4.68,1.33,8.3-1.07,10.86-39.44-3.1-70.11-33.21-75.62-71.88.53,13.92,2.22,27.76,5.07,41.52.37,5.6-.55,5.46-5.4,3.7-3.98-1.44-10.48-6.96-13.92-9.96-36.2-31.57-34.77-87.4-28.34-131.05,13.15-89.27,49.13-204.19,109.94-273.49C166.7,27.64,203.89-.83,245.57,1.14c5.52-.94,11.75-.93,17.27,0,13.67-1.68,25.57,2.01,37.54,7.29l5.53,1.31c43.46-15.91,89.8-13.1,129.11,14.28,71.96,50.12,112.99,161.51,134.32,243.58,14.09,54.24,31.75,138.42-4.2,186.69-2.61,3.51-15.19,18.66-18.73,17.03-.48-.22-.69-1.04-.83-2.03,3.63-18.4,5.21-36.98,4.73-55.74-4.27,31.06-19.31,64.95-49.16,78.79-4.19,1.94-13.53,5.68-17.78,5.51-2.36-.09-2.87-.28-3.87-2.37l3.12-11.92c-10.18,8.33-21.51,14.47-33.99,18.44,79.77,22.07,111.17,107.3,136.75,177.72,1.88,5.32-2.77,9.11-6.72,11.77l-10.79,6.67,7.29,33.76c18.71,67.12,33.09,134.43,40.19,203.72l11.92,57.42c1.13,8.72,1.48,17.4,1.06,26.03.33,1.48.65,3.08.96,4.8v27.82c-.07,17.57-4.66,33.47-14.13,48.33-6.05,9.5-16.93,22.16-28.85,14.52-5.63,7.52-22.65,14.8-23.31-.05-15.9,2.75-17.56-7.58-13.51-20.48,4.73-10.11,8.61-20.44,11.62-30.98l1.98-1.26c-3.98-1.99-1.56-10.12,0-13.91-5.33,29.62-42.3,39.31-32.69-1.18l9.51-41.29c8.85-34.67,2.72-69.72-9.49-102.72-6.98-18.73-13.68-37.55-20.1-56.45-.36,16.48,0,33.04,4.04,49.12,6.5,20.09,10.15,39.88,10.97,59.37-4.87,5.24-11.32,8.82-19.33,10.74-4.41,70.96-11.56,145.36-19.4,217.29-7.61,69.82-17.08,140.99-27.26,209.5-2.33,15.7-3.35,22.28-20.13,26.75l.09,6.27c19.27,2.98,34.69,10.29,43.98,28.95,23.66,47.57-32.4,82.92-74.63,81.03-4.49.94-9.9.93-14.39,0-.44.84-1.19.64-1.92,0-1.7.04-3.3-.28-4.8-.96-7.16,1.87-17.59-1.13-24.85-4.2-17.75-7.5-20.61-16.14-21.02-34.67-.38-16.92,1.7-41.99,11.09-56.18,3.99-3.34,4.86-4.12,5.57-8.93,1.59-10.75-.26-14.27-11.06-17.21-3.1-1.85-5.98-5.64-6.38-9.26-1.25-11.41-2.25-23-2.56-34.58-2.14-69-4.78-138.37-8.02-207.84-1.85-39.79-4.01-79.6-6.7-119.33-.03-.45-8.96-.45-9.03,0-.5,10.19-1.41,20.38-2.72,30.52"/>
  <path d="M127.52,965.38c4.41,70.96,11.56,145.36,19.4,217.29,7.61,69.82,17.08,140.99,27.26,209.5,2.33,15.7,3.35,22.28,20.13,26.75l-.09,6.27c-19.27,2.98-34.69,10.29-43.98,28.95-23.66,47.57,32.4,82.92,74.63,81.03,4.49.94,9.9.93,14.39,0,.44.84,1.19.64,1.92,0,1.7.04,3.3-.28,4.8-.96,7.16,1.87,17.59-1.13,24.85-4.2,17.75-7.5,20.61-16.14,21.02-34.67.38-16.92-1.7-41.99-11.09-56.18-3.99-3.34-4.86-4.12-5.57-8.93-1.59-10.75.26-14.27,11.06-17.21,3.1-1.85,5.98-5.64,6.38-9.26,1.25-11.41,2.25-23,2.56-34.58,2.14-69,4.78-138.37,8.02-207.84,1.85-39.79,8.69-79.49,11.39-119.22"/>
  <path class="st0" d="M262.84.18v.96c-5.36-.27-11.91-.29-17.27,0V.18h17.27Z"/>
  <path class="st10" d="M408.65,1535.28v.96h-14.39v-.96c4.34.27,10.06.29,14.39,0Z"/>
  <path class="st16" d="M629.28,1023.9c-1.54-.81-.92-3.26-.96-4.8h.96v4.8Z"/>
  <path class="st12" d="M318.86,978c29.69-2.03,147.74-7.94,177.07-12.62-2.04,54.67-7.56,109.14-13.54,163.46-10.13,92.04-23.02,183.83-36.4,275.41-21.24,10.59-50.95,11.56-73.99,6.98-5.52-1.1-19.33-4.01-20.85-9.85-7.24-119.96-9-239.72-18.31-359.72.9-4.75,9.29-2.23,11.91-2.5,10.5-1.1,24.72-4.28,33.2-10.45-15.76,2.43-31.63,1.6-47.52,1.87"/>
  <path class="st12" d="M318.86,978c-29.69-2.03-151.26-12.75-180.6-17.44,2.04,54.67,7.56,109.14,13.54,163.46,10.13,92.04,23.02,183.83,36.4,275.41,21.24,10.59,50.95,11.56,73.99,6.98,5.52-1.1,19.33-4.01,20.85-9.85,7.24-119.96,9-239.72,18.31-359.72-.9-4.75-9.29-2.23-11.91-2.5-10.5-1.1-24.72-4.28-33.2-10.45,15.76,2.43,58.29,6.42,74.18,6.68"/>
  <path class="st2" d="M317.32,578.05c101.6-1.56,130.99,60.19,146.67,149.21,8.99,51.06,13.1,111.15,7.97,162.8-7.11,71.59-52.03,77.52-113.71,80.08-40.82,1.7-132.33,4.83-164.49-21.54-31.37-25.72-27.57-68.17-26.81-104.55,2.25-107.94,7.05-263.8,150.36-266Z"/>
  <path class="st14" d="M93.04,1064.19c-9.44,1.2-13.71-10.84-15.81-18.23-.87-3.06-3.54-20.37-4.37-21.06-4.26-3.57-8.39,10.04-9.06,12.45-3.3,11.74-3.3,26.61-1.17,38.57,1.45,8.11,8.14,20.01,8.4,26.22.27,6.53-5.29,5.52-8.25.49-8.48-14.39-9.48-34.25-14.69-49.59-.43-1.26-.28-2.93-2.04-3.23-2.03,10.07-.92,19.7,1.64,29.53,1.52,5.83,11.96,30.3,10.38,33.76-1.72,3.77-4.81.68-6.78-.91-10.17-8.2-17.57-28.17-19.63-40.81-.88-5.41.75-12.85-3.37-17.73-6.37,10.78-2.39,25.54,1.94,36.44,1.18,2.98,8.22,15.27,8.11,16.82-.09,1.3-1.76,1.22-2.89,1.02-9.93-1.75-18.95-20.33-21.74-29.13-13.1-41.35,3.75-89.24,10.93-130.51,4.56-26.21,6.71-52.79,11.16-79.03,9.62-56.73,26.73-111.92,36.16-168.69,16.91,5.8,34.03,10.64,51.61,14.09,5.06.99,12.38,1.16,16.82,2.37,2.53.69-.79,10.04-1.17,12.94-3.25,24.9-4.19,44.9-10.95,69.64-12.53,45.81-54.15,126.55-50.55,170.08,1.01,12.29,6.16,25.59,7.54,38.52.83,7.78.24,16.94,1.21,24.7,1.31,10.55,5.22,20.75,6.59,31.3Z"/>
  <path class="st6" d="M603.38,1054.12c-.1-.64-1.59-3.69-2.86-2.4-.96.97-4.1,22.56-5.29,26.86-2.36,8.54-9.14,25.53-15.79,31.22-1.32,1.13-8.71,6.25-8.7,2.83.03-7.06,7.22-15.96,10.07-22.57,5.81-13.48,7.31-28.98,3.38-43.14-1.86.39-1.68,1.92-1.91,3.35-1.81,11.23-.91,21.22-5.02,32.4-1.55,4.2-9.27,19.92-12.18,22.36-3.67,3.07-9.14,3.05-8.67-2.82.6-7.41,8.65-20.13,11-28.43,3.13-11.06,4.4-23.28,1.97-34.58-.65-3.03-6.24-20.68-10.59-15.29-1.65,2.04-3.19,16.76-4.55,21.35-1.52,5.14-6.83,18.25-12.91,18.77-1.49.13-2.49-1.24-3.02-2.43,2-13.25,6.22-26.05,8.34-39.28,4.49-27.95,10.54-58.11,4.46-85.74-10.54-47.89-36.39-94.85-45.14-142.9-4.57-25.08-4.55-52.04-9.08-77.27,21.3-3.27,42.21-8.25,62.36-15.84,6.69,50.9,24.78,99.3,34.08,149.65,4.84,26.18,7,52.75,11.17,79.02,7.46,46.96,28.68,107.33,9.6,152.88-2.77,6.61-12.64,25.03-20.05,26.05-6.93.95,1.79-12.03,3.06-15.22,1.15-2.87,6.27-15.85,6.27-17.72,0-6.16.83-15.45,0-21.11Z"/>
  <path class="st2" d="M450.86,956.73l10.53-10.09c18.23-22.23,20.41-62.36,21.16-90.13,1.75-64.63-9.4-192.05-51.87-242.75-42.11-50.26-132.52-57.1-188.01-26.91-69.35,37.73-80,153.18-83.45,223.56-1.79,36.69-7.43,97.62,14.01,128.97,4.47,6.53,10.84,11.24,15.74,17.35-15.99-4.98-31.1-15.42-39.49-30.05-17.4-30.31-11.54-100.23-8.46-135.44,10.92-125.02,34.87-261.09,192.32-252.81,125.2,6.59,148.09,110.12,159.72,214.43,4.76,42.68,9.55,92.74,6.76,135.31-2.02,30.84-18.32,59.35-48.96,68.55Z"/>
  <path class="st13" d="M150.61,616.62c-.13-1.46-1.85-3.97-.97-6.23l-1.9,5.28-6.73,93.53c-21.6-4.59-44.31-7.27-64.61-16.44-4.3-1.95-17.6-8.24-17.87-12.89,9.51-22.57,17.75-45.81,27.64-68.21,11.08-25.11,24.09-52.68,45.24-70.84,4.63-3.97,26.34-19.33,31.26-19.65,5.68-.37,14.29,10.73,17.51,15.02,4.36,5.79,20.21,31.17,19.37,37.21-.2,1.41-9.55,12.07-11.36,14.62-18.62,26.25-26.29,46.23-35.55,76.74-.48,1.58.77,2.69-2.04,2.23-1.06-16.28,1.42-34.3,0-50.37Z"/>
  <path class="st13" d="M488.27,664.11l-9.84-29.02c-8.44-23.35-22.49-43.8-37.15-63.54,4.55-11.24,10.22-22.91,16.85-33.05,2.17-3.32,9.06-14.61,13.19-14.26,2.23.19,16.71,9.98,19.56,12.05,46.99,34.09,60.44,94.13,82.74,144.63-.06,4.34-18.58,12.06-22.75,13.66-17.33,6.66-35.91,9.64-53.97,13.65-.84-12.9-.29-26-.93-38.89-.81-16.49-1.45-34.21-4.14-50.55-.5-3.06-1.01-8.53-3.57-10.34v55.65Z"/>
  <path class="st4" d="M441.27,1443.17c4.3,1.8,5.29,15.4,9.09,15.39,1.35,0,2.35-.83,2.27-2.24-.14-2.67-7.31-18.23-6.57-18.9,16.75,1.07,41.26,27.96,27.79,43.63-21.41,24.9-86.22,38.41-113.09,18.17-1.25-.94-6.82-6.17-7.26-7.13-1.05-2.32-.77-18.02-.48-21.55.18-2.23,3.61-19.71,5.26-19.67,15.59,15.74,44.07,17.75,64.29,11.51,9.17-2.83,19.47-7.9,18.7-19.2Z"/>
  <path class="st13" d="M398.1,506.76l-17.88,30.78c-38.16-10-78.64-10.58-116.75,0l-20.77-30.77h155.4Z"/>
  <path class="st2" d="M206.25,568.16c-3.45-12.86-11.03-28.2-19.66-38.39-3.98-4.7-9.68-8.05-12.96-12.93.36-1.53,23.22-7.34,26.64-7.91,6.55-1.1,15.19-1.9,21.81-2.17,2.38-.1,6.31-.43,8.43.19,3.27.96,20.4,29.01,23.68,33.81l-16.94,8.04-31,19.35Z"/>
  <path class="st2" d="M466.2,517.33c-15.27,12.91-25.26,31.11-31.67,49.88-14.21-10.38-29-20.78-46.04-25.91-1.49-2.01,17.41-30.7,20.78-34.37,19.49-.28,38.33,5.29,56.92,10.4Z"/>
  <path class="st6" d="M430.71,1418.23v32.14c-10.97,6.76-27.09,7.27-39.84,6.27-4.06-.32-24.43-4.44-24.43-9.15v-29.26c21.15,4.95,43.1,4.67,64.27,0Z"/>
  <path class="st7" d="M352.06,1501.7c1.07-1.21,8.42,5.99,9.88,6.9,13.51,8.43,35.54,9.3,50.91,7.37,23.81-3,48.01-13.39,63.9-31.54-4.29,26.71-40.08,40.16-63.9,42.09-18.75,1.52-59.56.8-60.79-24.82Z"/>
  <path class="st13" d="M177.46,960.59c-.5,1.98-1.42,1.53-2.85,1.5-5.57-.09-13.73-1.76-19.53-2.63-4.44-.67-33.87-5.84-35.03-7.65l8.5-59.35c1.76.3,1.61,1.97,2.04,3.23,2.88,8.49,3.94,18.15,7.08,26.49,6.04,16.01,23.57,33.18,39.79,38.41Z"/>
  <path class="st3" d="M515.06,951.86l-51.73,9.66,15.82-10.54c13.93-12.25,25.1-29.06,26.39-47.97l9.51,48.85Z"/>
  <path class="st10" d="M392.34,1535.28c-1.54-.06-3.98.6-4.8-.96,1.63.21,4.36.92,4.8.96Z"/>
  <path class="st9" d="M317.32,746.9c33.46-.59,105.6.33,125.69,32.03,14.94,23.58,15,85.66,9.32,112.6-10.74,50.92-60.64,46.62-101.76,47.9-35.5,1.11-121.91,6.21-148.64-19.16-25.16-23.87-24.52-105.38-9.64-134.35,20.26-39.46,86.54-38.34,125.03-39.01Z"/>
  <path class="st5" d="M57.54,998c.55.51,1.07,5.04,1.06,6.23-.13,15.07-13.56,38.11-29.82,39.81-1.97-1.79,11.51-13.56,12.96-15.33,7.88-9.62,9.76-18.29,13.8-29.38.37-1.01.48-2.77,2-1.33Z"/>
  <path class="st11" d="M604.33,1039.25c-19.37-4.99-29.6-27.15-27.8-46.05l11.69,24.28,16.12,21.77Z"/>
  <path class="st2" d="M200.49,828.17v31.18c0,3.07,10.14,5.42,12.95,5.35,2.98-.07,11.99-2.93,11.99-6.31v-28.3c11.69-.29,23.38,2.22,35.02,2.87,36.92,2.07,74.33.77,111.23-.03,24.82-.54,49.68.1,74.38-2.84v53.25c0,46.66-64.59,48.43-97.33,49.45-33.13,1.04-99.93,1.36-129.4-11.69-13.61-6.03-27.48-25.7-27.48-40.64v-52.29h8.63Z"/>
  <path class="st2" d="M444.15,809.95l-248.86-.95c-.41-24.75,20.85-40.13,42.84-46.32,34.25-9.65,120.18-9.58,155.21-2.18,26.04,5.5,49.93,20.11,50.81,49.45Z"/>
  <path class="st8" d="M444.14,814.74v7.68s-54.16,3.87-54.16,3.87c-55.03-.48-109.98-.25-164.84-3.86-1.21-1.44-4.53-5.3-1.17-5.77,7.84-1.11,16.23.73,23.96,1,47.74,1.65,96.16,1.44,143.89-.08,17.49-.56,35.02-.11,52.32-2.84Z"/>
  <path class="st1" d="M218.71,856h-11.51v-35.98c0-3.03,11.51-.43,11.51,1.92v34.06Z"/>
  <path class="st15" d="M204.32,815.71c-1.91,6.54-13.09,9.37-11.52,0h11.52Z"/>
  <path class="st4" d="M192.69,1442.09c-4.3,1.8-5.29,15.4-9.09,15.39-1.35,0-2.35-.83-2.27-2.24.14-2.67,7.31-18.23,6.57-18.9-16.75,1.07-41.26,27.96-27.79,43.63,21.41,24.9,86.22,38.41,113.09,18.17,1.25-.94,6.82-6.17,7.26-7.13,1.05-2.32.77-18.02.48-21.55-.18-2.23-3.61-19.71-5.26-19.67-15.59,15.74-44.07,17.75-64.29,11.51-9.17-2.83-19.47-7.9-18.7-19.2Z"/>
  <path class="st7" d="M279.4,1501.51c-1.07-1.21-8.42,5.99-9.88,6.9-13.51,8.43-35.54,9.3-50.91,7.37-23.81-3-48.01-13.39-63.9-31.54,4.29,26.71,40.08,40.16,63.9,42.09,18.75,1.52,59.56.8,60.79-24.82Z"/>
  <path class="st6" d="M202.13,1417.93v32.14c10.97,6.76,27.09,7.27,39.84,6.27,4.06-.32,24.43-4.44,24.43-9.15v-29.26c-21.15,4.95-43.1,4.67-64.27,0Z"/>
</svg>