<?xml version="1.0" encoding="UTF-8"?>
<svg id="Layer_1" xmlns="http://www.w3.org/2000/svg" version="1.1" viewBox="0 0 1024 1024">
  <!-- Generator: Adobe Illustrator 29.5.1, SVG Export Plug-In . SVG Version: 2.1.0 Build 141)  -->
  <defs>
    <style>
      .st0 {
        fill: #070609;
      }

      .st1 {
        fill: #e2edf1;
      }

      .st2 {
        fill: #6d54a3;
      }

      .st3 {
        fill: #010101;
      }

      .st4 {
        fill: #040405;
      }

      .st5 {
        fill: #ccd9df;
      }

      .st6 {
        fill: #6f615a;
      }

      .st7 {
        fill: #faee41;
      }

      .st8 {
        fill: #1b1b1e;
      }

      .st9 {
        fill: #151518;
      }

      .st10 {
        fill: #71c278;
      }

      .st11 {
        fill: #62544e;
      }

      .st12 {
        fill: #fefefe;
      }
    </style>
  </defs>
  <path class="st8" d="M638.54,736.79c-.05,3.03,2.59,4.74,5.12,6.06,15.03,2.08-3.78,14.97-7.92,4.17-.41-.3-10.51-.53-7.28,2.28l-.84,2.68c-4.91.11-9.23,1.21-12.95,3.28-7.65-.3-15.13-.51-22.44-.61-5.77-2.21-13.97-2.64-19.42-.91-45.04.42-90.61,2.56-137.83,4.91-1.5.07-2.6,1.19-.37,1.01l2.92.63c5.21,14.74,5.83,31.01,2.55,46.25l-1.99,1.16,1.88.52c50.4-7.32,106.6-15.34,157.67-22.16,10.78-.85,21.6-1.82,32.47-2.9,1.31,1.17,4.31.84,9.01-.99,5.5-4.41,9.18,11.41,8.78,12.44-3.66,2.94-8.21,4.91-13.64,5.92,2.85,4.69-9.31,5.17-11.9,4.25-.11-2.69-4.05-2-4.12.7-7.31.31-14.43,1.14-21.37,2.52-53.12,7.02-106.08,14.85-158.88,23.49-.95,2.06-.66,2.19.87.38.74.31,1.46.66,2.11,1.11s1.22.86,1.5,1.42c15.11,29.8,21.4,55.38,11.35,87.6l-2.53,2.07c46.22-7,92.77-14.29,138.55-22.12,17.8-4.46,34.85-8.02,53.04-6.13,1.26-3.71,12.7-3.48,14.04-2.17,2.02,2,3.48,11.87-1.77,9.95-6.69-6.21-4.21.71-.71,4.6-.5,4.45-15.85,4.31-19.37,4.06-1.22,3.47-7.59,4.69-9.82,1.64l-5.95,2.46c-2.29,2.67-9.46,3.99-12.65,2.48l-10.1,3.52c-11.24,1.49-22.35,3.58-33.34,6.26-.44,2.98-1.82,3.25-3.29.62-33.68,5.86-67.39,11.51-101.12,16.92.73-.1,1.7-.21,2.08.31,4.1,5.43,8.9,16.43,10.49,22.98,1.7,7.01,4.24,17.7-.2,23.36,10.46-1.78,21.21-3.95,32.23-6.49,14.07-4.48,28.56-8.62,43.26-12.78,5.33-1.51,11.21-3,16.09-4,8.41-2.97,17.02-5.54,25.82-7.71,9.59-5.78,21.13-6.93,31.74-5.03l2.76,2.05c4.89-2.09,10.87-2.07,8.53,4.79,2.31.6,2.95,2.05,2.6,4.55-60.99,20.61-122.3,39.02-184.02,52.2-1.73-.51-6.24-3.72-7.14-5.21-4.94-8.17,3.02-16.53,4.43-25.2,2.38-14.65-5.41-27.32-16.36-36.47-2.44-2.03-5.75-2.7-7.83-4.86-7.56-7.83-.6-14.82,1.75-23.16,1.1-3.89,1.25-7.97,2.33-11.85l-161.19,24.25,17.43-3.2-70.03,11.44c-19.82,3.39-40.03,6-59.97,3.34-26.03-7.06-53.35-34.6-59.21-61.02-12.98-58.48,40.53-107.18,97.53-101.38,34,3.46,45.32,39.52,14.5,55.21-11.68,5.94-26.79,1.68-38.61,8.61-9.72,5.7-16.48,22.24-8.89,31.88,1.96,2.48,8.04,4.08,8.27,4.86,2.18-.15,3.76.27,4.76,1.28-.03-.56-.04-1.01.02-1.02,80.76-12.99,164.24-26.08,245.13-38.43.23-.04.53.36.85.88-.86-1.6-.77-2.36.27-2.27-1.31-4.2-2.31-6-2.99-5.41-4.53-8.1-16.78-15.06-12.01-24.94,5.06-10.48,14.48-16.41,14.36-31.1,1.71-8.33-5.85-22.07-14.17-30.21-5.13-5.08.16-16.5,6.19-16.93,73.65-5.22,147.52-8.06,221.33-4.38l7.6,1.7Z"/>
  <path class="st9" d="M450.19,1020.38l97.6-25.55c28.66-8.62,57.34-17.11,85.4-27.44-.3-1.99-4.24-2.17-4.42-2.35-.3-.31,2.46-3.54,1.2-5.22-2.62-1.05-5.19,1.2-7.21.98-1.75-.18-2.96-2.62-4.94-2.92-3.05-.47-8.49.92-11.63.56-.99-.11-.66-1.97-2.43-1.68-1.98.32-10.36,3.19-12.35,4.1-.82.38-.44,2.03-1,2.14-3.7.71-9.04.19-13.58,2.12-.46.2-4.42,3.68-4.78,3.82-1.59.6-6.69-.82-7.41.12-.28.36.67,2.62.44,2.95-.77,1.09-4.62-1.28-6.57-.96-5.85.95-26.58,6.76-31.96,9.04-.76.32-.33,2.05-.92,2.18-1.78.38-4.84-1.08-7.82.2-.73.32-.33,2.06-.92,2.18-2.24.47-6.42-.65-10.05.46-1.85.57-1,2.22-1.7,2.42-4.23,1.18-14,1.31-19.72,2.96-1.82.53-1,2.16-1.74,2.42-2.71.93-10.7-.71-14.32,1.19-.99-3.75.92-1.07,1.82-1.29l5.34-2.72c103.92-25.74,205.97-60.77,300.61-111.58-63.23,21.07-132.78,40.52-199.5,49.95-3.42.48-6.9.12-10.31-.31l-9.72,2.54c-2.12.87-4.24,1.7-6.41,2.4s-4.32,1.38-6.53,1.77c-24.31,4.34-48.68,8.43-73.05,12.43-3.12.54-10.7.78-12.81-1.12.27-1.56,1.17-1.11,2.27-1.41,23.32-6.39,55.33-8,80.12-12.48,9.73-1.76,25.75-3.85,34.46-6.38,1.9-.55.68-2.27,2.52-2.61,5.44-1.02,12.79.06,19.03-1.81,3.11-.93,5.72-4.08,9.42-4.64,1.79-.27,1.52,1.64,2.4,1.71,1.39.11,6.22-.67,7.54-1.18.78-.3.41-1.86,1.55-2.55,1.27-.78,5.69-2.78,6.94-2.86,2.49-.16,1.93,2.5,4.38,2.48,5.6-.05,2.18-3.24,3.54-3.74,1.12-.41,5.48-1.05,6.7-.96.82.06.54,1.75,2.41,1.7,3.21-.08,7.08-1.56,10.42-1.72.63-2.9-3.19-3.76-3.69-5.12-.13-.37.87-5.34,1.07-5.53,2.85-2.68,4.73,3.87,7.46,2.81.3-1.75-2.06-2.32-2.2-3.2-.16-.97,2.02-2.04,1.12-3.71-2.64,1.74-6.16-1.03-7.72-.81-1.86.26-2.85,3.38-5.33,3.62-7.17.72-17.44-1.53-24.59-1-7.17.53-13.89,3.23-21.58,4.39-11.2,1.69-21.85,4.39-32.45,6.1-37.86,6.11-75.77,11.84-113.64,17.87-1.49-.28.32-1.01.34-1.07,4.61-2.72,9.6-3.49,14.82-2.32l14.66-3.31c7.57-3.19,15.52-4.43,23.71-3.72l43.47-6.81c11.7-4.61,24.01-6.49,36.55-5.73l9.72-2.54,3.56-1.94c43.08-9.2,86.45-18.61,128.61-31.03,40.03-11.8,79.73-26.29,114.5-49.81,6.63-1.74,6.62-2.33-.05-1.77-32.02-9.47-65.46-12.18-98.71-12.64-54.22-.75-107.49,4.72-161.7,10.39-3.35.35-6.71-.07-10.02-.56l-11.02.72c-39.58,9.22-80,15.81-120.53,18.9l-1.17,2.22c-2.74-5.39,2.93-3.53,6.41-4,47.53-6.43,95.12-15.81,142.4-21.29,4.07-.47,10.01-1.23,13.83-2.29,2.42-.67,2.43-3.7,6.61-1.99.66.27.85,1.67,1.69,1.72,1.32.08,6.46-.68,7.68-1.11s-.56-2.85.6-3.27c2.1-.76,5.53-.42,7.86-1.17l-.85,4.18,8.33-1.29c1.79-3.2-1.16-2.19-2.03-3.73,5.49-2.64,11.02-2.82,16.32-5.62-3.85-2.65-.37-10.95-6.29-11.14s-6.36,3.12-7.55,3.3c-3.71.56-3.39-2.29-4.67-2.42-4.17-.42-9.68,3.09-12.32,3-.72-.02-.85-1.72-1.64-1.79-4.41-.38-9.38,2.77-12.48,2.93-1.45.08-2.96-1.28-5.24-1.24-7.23.12-17.65,5.65-22.36,4.49-5.84-1.44-6.83-1.02-13.4.17-35.85,6.49-80.94,13.05-117.86,16.64-1.23.12-2.5,1.23-3.81,1.43-.85.17-.79-1.27-.82-1.91,26.27-6.62,52.98-10.83,80.02-12.55l20.9-2.26c3.28-1.53,6.66-2.9,10.24-3.57,38.33-7.18,81.68-9.99,120.78-12.2,30.12-1.7,60.49-2.47,90.45-1.8-104.27-23.55-213.68-19.53-320.41-14.66l-5.47-.99c-.3-.22-1.97.87-2.05-.18l2.16-1.79c26.83-1.51,53.75-2.17,80.57-3.57,2.8-.15,7.2-1.22,9.88-1.46,1.62-.15,2.9,1.46,4.2,1.28,1.47-.21,2.44-2.42,2.65-2.45.84-.12,1.61,2.71,2.52,2.71,2.13-.02,3.33-2.93,4.52-2.83.93.08,1.29,2.31,2.72,2.6,3.13.63,17.21.16,20.96-.21,1.66-.17,3.25-1.75,4.67-1.82.77-.04.56,2.76,3.39,1.58.42-.18-.25-2.04,1.6-2.41,2.52-.5,15.14-.44,17.24.58,1.27.62,1.97,2.59,2.61,2.53.9-.09,2.18-1.58,3.56-1.66.6-.04.84,1.6,1.69,1.73,1.62.26,16.05.74,16.88.51.72-.19.43-1.77.99-2.22,3.32-2.7,7.32-1.59,11.18-1.76.41-2.58-4.43-10.38-1.22-11.87,1.35-.63,9.82.32,8.72,1.58-12.14,2.79-4.19,6.94,3.59,3.49-1.03,6.74,5.73,6.24,9.61,3.07,2.86-2.34-3.64-1.98-4.12-2.2-.37-.17-6.42-4.38-6.63-4.73-.81-1.34,1.22-2.58,2.03-3.36.63-2.05,5.98-1.78,7.07-.1,4.97,2.06,11.64,2.01,16.27.49.64-1.15,2.16-.71,2.13.68,2.68.99,5.03.96,7.07-.1,1.06-.83,1.88-.67,2.13.68,2.31,1.25,4.34,1.27,6.08.06,7.94.85,15.77,1.31,23.5,1.38,35.05,4.44,72.24,11.29,105.76,22.37,3.45,1.14,12.43,5.81,14.84,6.06,13.38,1.39,43.23-8.08,59.07-9.01,55.18-3.24,72.07,83.66,7.33,98.08-12.97,2.89-41,3.75-51.15,8.22-2.79,1.23-15.68,12.83-20.16,15.93-80.39,55.76-197.27,95.15-291.68,120.77-22.27,6.04-48.82,13.81-71.08,18.26-2.21.44-3.4.46-5.54-.17Z"/>
  <path class="st4" d="M679.3,738.5c-1.46,1.41-3.49,1.39-6.08-.06-.69-.22-1.42-.54-2.13-.68-1.89,1.17-4.25,1.2-7.07.1-.71-.14-1.42-.57-2.13-.68-4.7,1.52-11.43,1.7-16.27-.49-2.73-.16-4.99.21-7.07.1-76.7-4.1-152.02-2.98-228.75,3.45-18.3,9.6-.19,19.07,4.67,29.65,2.62,5.71,3.47,10.85,4.2,17.08l-1.07-.36c-.06-7.26-3.71-16.25-7.97-22.07-3.52-4.81-7.59-5.67-8.63-12.27-1.11-7.11,3-11.71,9.5-13.97,96.8-5.39,195.97-10.61,292.3,1.58-.71,2.02-3.27,1.45-4.86,1.28-6.16-.64-12.46-2.13-18.63-2.66Z"/>
  <path class="st0" d="M415.24,842.65l.82-1.14c.54,1.58,4.97,8.33,1.9,8.81l-246,38.56c-.89.14-3.88-1.27-5.61-.15-.02-.51.87-1.06.85-1.13l250.44-39.26c-1-1.63-1.55-4.16-2.41-5.7Z"/>
  <path class="st3" d="M266.19,937.88c-28.09,4.31-87.59,18.35-112.57,11.57,2.51-2.47,7.28.28,10.55.53,7.53.58,14.77-.63,22.29-.57l240.59-37.75-3.29,1.52c-52.55,8.11-105.05,16.64-157.59,24.7Z"/>
  <path class="st7" d="M594.23,899.62l-9.72,2.54c-12.16,1.98-24.39,3.82-36.55,5.73l-43.47,6.81c-7.89,1.24-15.82,2.46-23.71,3.72l-14.66,3.31c-4.93.79-9.89,1.54-14.82,2.32,2.65-11.8,6.58-23.46,5.57-35.76-1.75-21.33-7.96-37.93-18-56.43,40.18-6.17,80.34-12.77,120.53-18.9l11.02-.72c42.03-6.39,86.76-9.62,129.32-11.15,48.87-1.76,100.7-1.27,147.43,13.83-45.88,32.68-102.31,49.59-156.55,63.5-30.92,7.93-64.95,16.12-96.38,21.19Z"/>
  <path class="st2" d="M539.03,792.88l-20.9,2.26c-26.66,4.15-53.36,8.39-80.02,12.55-.23-4.31,1.93-10.78,2.16-15.49.28-5.68-1.68-29.72-5.64-32.55,95.11-6.02,193.94-8.73,288.2,6.18,19.68,3.11,38.99,8.39,58.69,11.32.51,1.74-2,1.24-3.09,1.24-6.72,0-14.1-1.09-21.01-1.2-70.57-1.09-148.58,4.83-218.39,15.7Z"/>
  <path class="st10" d="M471.17,992.8c1.26-12.03-.88-23.52-5.92-34.49-1.15-2.51-6.7-10.69-6.45-12.15,4.02-1.56,8.78-.28,12.52-.86,28.59-4.49,57.54-9.97,86.27-14.62l9.72-2.54c61.17-9.95,128.65-25.55,187.82-43.78,11.21-3.45,22.1-8.15,33.23-11.66,1.02-.32,3.01-1.84,3.07.06-75.72,42.04-157.78,75.24-241.15,99.42-26.21,7.6-52.66,13.95-79.12,20.64Z"/>
  <path class="st6" d="M132.35,871.82c.6,20.34,20.84,42.28,42.04,38.96l148.68-23.31,2.79,17.78-150.66,23.62c-2,.31-9.2-.4-11.74-.7-27.09-3.2-48.39-32.27-47.69-58.81,2.34-.17,3.79,1.95,4.36,6.37.38.44,9.69,2.27,9.75-.38-.54-2.66-.17-6.83,2.48-3.53Z"/>
  <path class="st11" d="M132.35,871.82l-1.06-.35c3.13,10.8-6.93,6.22-13.11,6.58.61-2.77-2.25-7.47-2.42-8.69-4.83-36.54,44.52-65.22,76.96-59.36,4.23.77,10.94,3.42,7.66,8.59-3.92,6.17-25.98,6.4-33.77,8.64-18.05,5.2-34.83,25.44-34.26,44.59Z"/>
  <path class="st1" d="M430.23,873.7c.55,2.24,2.97,14.72.84,15.05l-81.5,12.78-2.63-16.79,76.88-12.65c3.75-1.23,5.89-.69,6.42,1.62Z"/>
  <path class="st5" d="M430.23,873.7c-1.23-1.73-1.67-1.69-3.68-1.52-26.04,2.25-53.42,9.89-79.61,12.55l82.25-13.93c1.15-.02.83,1.99,1.05,2.89Z"/>
  <path class="st9" d="M647.67,904.9c.12.76-3.75,4.31-4.76,1.74-1.14-2.87,4.44-3.79,4.76-1.74Z"/>
  <path class="st12" d="M864.32,833.99c14.35-16.76,11.98-31.9-6.81-43.47l25.19-3.95c2.64-.41,13.7,4.57,16.24,6.54,7.45,5.78,8.58,16.04,4.26,24.15-1.72,3.22-10.32,12.25-13.68,12.78l-25.19,3.95Z"/>
  <path class="st8" d="M504.48,914.7c14.47-2.27,28.99-4.54,43.47-6.81l-43.47,6.81Z"/>
  <path class="st8" d="M645.61,736.69c5.13.3,11.27-.31,16.27.49-.4,2.89-2.06,1.66-3.57,1.92-4.65.82-9.08,1.49-12.7-2.41Z"/>
  <path class="st8" d="M673.36,758.64c-2.01-2.09,2.25-6.68,5.14-5.84l-.07,5.65c-.67.97-4.89.38-5.07.19Z"/>
  <path class="st8" d="M518.13,795.14c6.66-1.04,14.32-3.1,20.9-2.26-6.66,1.04-14.31,3.1-20.9,2.26Z"/>
  <path class="st8" d="M642.62,756.39c-1.83-5.14,2.96-2.61,6.61-3.05.78,4.46-3.8,2.09-6.61,3.05Z"/>
  <path class="st8" d="M466.1,921.73c3.78-2.47,9.98-2.57,14.66-3.31-3.78,2.47-9.98,2.56-14.66,3.31Z"/>
  <path class="st8" d="M664.02,737.86c2.04-.12,5.17-.47,7.07-.1-.76,4.56-5.53.4-7.07.1Z"/>
  <path class="st8" d="M559.39,812.97c3.42-.52,8.13-2.12,11.02-.72-3.42.52-8.13,2.12-11.02.72Z"/>
  <path class="st8" d="M673.22,738.44c1.99.06,4.1-.11,6.08.06-1.41,4.97-4.68.4-6.08-.06Z"/>
  <path class="st8" d="M584.5,902.15c1.99-2.16,6.63-2.04,9.72-2.54-1.99,2.16-6.63,2.03-9.72,2.54Z"/>
  <path class="st8" d="M557.59,930.67c1.99-2.16,6.63-2.03,9.72-2.54-1.99,2.16-6.63,2.04-9.72,2.54Z"/>
  <path class="st5" d="M430.43,887.84l-79.03,12.39-2.32-14.82,79.03-12.39c.72,5.27,2.92,9.36,2.32,14.82Z"/>
</svg>