<?xml version="1.0" encoding="UTF-8"?>
<svg id="Ebene_1" xmlns="http://www.w3.org/2000/svg" version="1.1" viewBox="0 0 409.6 409.6">
  <!-- Generator: Adobe Illustrator 29.5.1, SVG Export Plug-In . SVG Version: 2.1.0 Build 141)  -->
  <defs>
    <style>
      .st0 {
        fill: #c60024;
      }

      .st1 {
        fill: #3fa35a;
      }

      .st2 {
        fill: #368b4c;
      }

      .st3 {
        fill: #fe0c38;
      }

      .st4 {
        fill: #d33c57;
      }

      .st5 {
        fill: #64c27d;
      }

      .st6 {
        fill: #010000;
      }

      .st7 {
        fill: #368a4c;
      }

      .st8 {
        fill: #4cb968;
      }
    </style>
  </defs>
  <path class="st0" d="M173.26,321.77c.62.37.96.9.94,1.61-.13,5.58-.01,8.42,3.68,13.2,4.01,5.18,14.06,8.92,11.68-1.3l1.26-1.53,3.04.46c43.64,23.03,88.5,42.07,137.55,48.56,14.62,1.94,26.09.92,39.11-3.93l1.54,1.22c-9.12,15.93-25.1,27.72-43.91,28.74-4.17.23-8.42.5-12.78.8h-2.4c-9.42-2.35-19.33-3.06-28.91-5.03-45.07-9.25-105.35-35.4-142.22-62.98-40.23-30.09-61.1-86.8-41.25-134.8l-.85-2.06c2.21-7.9,12.84-22.44,20.01-26.68.83-4.6,8.17-10.08,12.78-10.38l.35,2.96c-29.84,50.12-9.48,117.28,38.57,148.16l1.8,2.98Z"/>
  <path class="st4" d="M328.16,408.8v.8h-12.78c3.62-1.64,8.66-.57,12.78-.8Z"/>
  <path class="st3" d="M265.88,88.63c42.77-2.79,84.54,24.38,104.73,60.94,18.52,33.54,24.63,96.24,23.05,134.31-1.11,26.68-8.41,73.16-21.59,96.18l-15.77,4.59c-12.21,2.13-26.47-.34-38.67-2.44-45.07-7.76-87.14-26.51-126.8-48.45-.65.23-1.24.17-1.77-.25-3.05-5.94-8.34-13.57-15.8-11.73-44.21-26.31-67.44-84.35-50.31-133.75,2.48-7.15,6.42-13.55,9.59-20.35-.75-.65-.22-1.19,1.6-1.6.49-.89,1.01-1.77,1.61-2.57s1.21-1.59,1.96-2.16c9.47-7.25,19.1-14.32,28.75-21.36,2.51-1.83,5.22-3.19,8-4.57,11.94-10.53,25.37-19.57,38.96-27.72l2.95-.7c5.52-7.03,15.91-11.36,24.37-14.46,4.72-1.73,19.68-6.49,23.55-4.85.56.24,1.08.58,1.59.95Z"/>
  <path class="st8" d="M170.87,27.95c5.3-8.08,10.26-18.96,21.78-16.58,4.45.92,10.69,10.72,13.2,14.74,3.14,5.02,5.17,11.19,8.93,14.62,4.52,8.7,7.91,20.37,8.96,30.37.73,7.01,1.52,16.59-2.57,22.33,2.52,3.92-1.76,10.38-4.79,13.57-26.62,17.85-56.78,39.58-82.24,59.08-6.36,3.14-15.09,1.36-21.92-.2-14.83-3.39-27.71-11.55-39.16-21.19l-.4-1.76c-4.34-4.02-18.76-21.15-20.59-26.12-5.18-14.09,11.87-16.85,21.39-19.39l2.93,1.32c19.54,26.54,50.34,45.09,84.06,38.49,3.05-.6,11.28-2.32,13.28-3.77,2.15-1.56,6.38-8.86,7.96-11.69,16.28-29.3,8.8-64.51-10.36-90.55l-.46-3.26Z"/>
  <path class="st5" d="M170.87,27.95c24.3,31.4,30.88,74.75,3.77,106.77-40.14,15.75-77.94-4.46-101.18-37.31,18.06-4.83,34.46-6.13,52.87-.57l18.19,7.76,2.25.03,13.58,10.57-5.32-13.96.67-2.23-1.59-12.39c-1.71-22.71,4.62-40.17,16.76-58.68Z"/>
  <path class="st7" d="M265.88,88.63c-17.94,1.17-34.81,8.51-49.5,18.36,1.57-4.31,3.93-9.09,4.79-13.57l1.39-2.53c26.14-18.97,33.16-52.77,28.2-82.86l1.56-1.64c7.69-3.97,18.43-10.11,24.12.23s4.73,38.74,2.79,50.23c-1.89,11.17-6.92,22.57-13.34,31.77Z"/>
  <path class="st7" d="M119.77,178.05c-6.83,6.92-15.46,19.78-19.16,28.74-22.39,6.84-46.74,1.9-67.37-8.08-7.42-3.59-18.14-8.31-16.11-18.31.95-4.69,10.89-13.36,14.82-16.73l3.28.12c24.27,14.47,53.53,22.99,81.21,13.75l3.33.51Z"/>
  <path class="st1" d="M72.66,142.92c.19.17,1.33.18,2,.77,17.04,14.98,36.14,23.78,59.48,22.39-.38.29-.86,1.02-1.6,1.6-4.25,3.32-8.98,6.53-12.78,10.38-30.11,11.37-61.64,1.74-87.83-14.37,11.59-9.91,25.51-18.02,40.72-20.76Z"/>
  <path class="st1" d="M221.17,93.42c3.75-19.49-.36-33.14-6.79-51.06-.32-.88.46-1.58.4-1.63,8.37-14.32,22.85-26.75,37.53-34.33-.1,5.43,1.61,11.9,1.66,17.17.08,7.58-1.2,19.14-3,26.61-4.21,17.44-14.45,33.74-29.8,43.26Z"/>
  <path class="st2" d="M155.7,99.01c2.34,4.33,3.48,9.6,5.44,14.12,1.71,3.92,4.35,7.39,5.73,11.43-3.04-2.44-5.08-5.72-7.97-8.39-4.42-4.1-10.39-7.15-14.38-11.57-12.08-13.34-22.02-33.19-33.71-47.33-2.98-6.81,4.01-12.71,9.75-7.36,9.67,16.4,26.28,32.7,35.14,49.1Z"/>
  <path class="st6" d="M190.83,333.75c3.81,13.47-8.96,11.03-14.72,3.14-2.57-3.52-5.48-11.21-2.85-15.12,4.68-6.96,15.96,6.29,17.57,11.98Z"/>
  <path class="st6" d="M324.73,353.86c8.9-1.33,20.6,17.64,13.75,22.57-9.22,6.64-25.15-20.88-13.75-22.57Z"/>
  <path class="st6" d="M310.37,212.53c8.44-1.28,20.46,17.5,13.75,22.57-9.21,6.96-25.39-20.8-13.75-22.57Z"/>
  <path class="st6" d="M248.5,141.52c7.05-7.09,24.87,17.41,15.79,21.76-8.79,4.21-22.2-15.31-15.79-21.76Z"/>
  <path class="st6" d="M168.26,187.76c9.21-1.64,20.51,17.48,14.13,22.17-9.12,6.7-25.57-20.13-14.13-22.17Z"/>
  <path class="st6" d="M260.08,319.5c8.77-2.3,21.64,18.87,13.79,22.63-10.23,4.91-23.85-20-13.79-22.63Z"/>
  <path class="st6" d="M351.07,282.8c10.66-3.25,21.8,19.05,13.79,22.61-8.86,3.94-23.23-19.73-13.79-22.61Z"/>
  <path class="st6" d="M141.82,255.72c8.87-1.01,21.01,19.6,12.04,23.15s-24.02-21.79-12.04-23.15Z"/>
  <path d="M344.74,152.31c-7.45,7.44-25.24-17.19-15.78-21.78,8.06-3.91,21.79,15.78,15.78,21.78Z"/>
  <path d="M234.52,231.71c9.51-2.8,21.91,18.94,13.77,22.59-9.48,4.26-23.33-19.77-13.77-22.59Z"/>
</svg>