<?xml version="1.0" encoding="UTF-8"?>
<svg id="Ebene_1" xmlns="http://www.w3.org/2000/svg" version="1.1" viewBox="0 0 384 384">
  <!-- Generator: Adobe Illustrator 29.5.1, SVG Export Plug-In . SVG Version: 2.1.0 Build 141)  -->
  <defs>
    <style>
      .st0 {
        fill: #7f8283;
      }

      .st1 {
        fill: #a4a4a3;
      }

      .st2 {
        fill: #2c2f38;
      }

      .st3 {
        fill: #24ad5f;
      }

      .st4 {
        fill: #9ec8d2;
      }

      .st5 {
        fill: #464f5d;
      }

      .st6 {
        fill: #efc319;
      }

      .st7 {
        fill: #fefefe;
      }

      .st8 {
        fill: #4fb96f;
      }

      .st9 {
        fill: #475c5b;
      }

      .st10 {
        fill: #fdfdfd;
      }

      .st11 {
        fill: #f8e9af;
      }
    </style>
  </defs>
  <path class="st8" d="M349.5,186.39c16.88,1.14,31.67,15.47,33.75,32.19-.21.92-.51,1.75-1.42,1.66l-14.55-.53c-12.25-.06-9.3,11.85,1.97,10.33l13.65-.38,1.1,1.64v20.21c-1.03,10.21-2.98,20.27-5.83,30.19l-1.67.5c-2.04.76-4.89-2.49-3.75-4.49-1.86.08-3.57-1.21-5.15-3.85-2.62-1.58-3.9-3.29-3.85-5.14l-2.28.17c-6.37-4.93-13.67-8-21.7-8.94l-1.52-1.71c-1.44,1.28-3.63,1.61-6.57.97-2.81.64-4.87.31-6.18-.97l-1.62,1.73c-7.89.99-15.18,4.1-21.51,8.87l-2.36-.12c-.62,3.19-5.85,7.57-9,8.23-.23.78-1.18,1.33-2.03,1.5h-99.04l-.92-1.5.68-1.51,55.66-.72-4.73-54.73c-.04-2.76.26-5.48.89-8.17-2.79-8.31-2.87-17.22-2.5-25.92l110.5.47Z"/>
  <path class="st5" d="M325.5,258.25l1.53,1.2c-.99,6.42-.05,22.99,9.11,13.11.87-4.28,1.06-8.64.58-13.08l1.54-1.22c11,1.37,16.76,3.87,25.5,10.48l.45.94c-2.92,2.18-16.21,16.04-5.85,17.08,4.95-1.06,9.09-4.09,12.43-9.08l1.98.04c1.09,1.4,2.9,3.08,3.75,4.49l2.3,1.02c3.49,5.96,4.49,12.45,5.2,19.2v2.99c-1.19.74-1.99.4-1.95-.93-6.77-.65-23.19-.81-13.07,9.3,4.15.84,8.45,1.01,12.89.5l1.38,1.6c-.24,9.31-4.97,18.19-10.5,25.45-.53.48-1.11.61-1.76.35l-5.66-6.26c-6.46-7.23-14.97.37-7.29,7.06,2.89,2.13,5.04,4.49,6.46,7.09-8.44,6.65-15.46,9.71-26.25,11.23-.72.03-1.26-.25-1.58-.88,1.77-13.94-1.12-18.87-8.65-14.79-1.3,4.53-1.61,9.34-.92,14.43l-1.6,1.24c-10.76-1.51-16.29-4.04-24.75-10.48-.54-.45-.75-1-.58-1.67,10.64-9.11,11.82-14.66,3.53-16.63-4.18,2.07-7.73,5.2-10.66,9.39l-2.03-.07c-5.53-6.98-9.52-15.78-10.5-24.7-.67-.14-.64-.39,0-.75l1.25-1.53c5.81.97,10.92.24,15.33-2.2,1.97-6.8-3.15-9.27-15.37-7.41l-1.21-1.59c-2.18-3.61.5-10.12,2.13-14.06s4.34-10.36,8.37-11.39l1.86-.49c8.78,10.66,14.25,12.17,16.41,4.53-1.84-4.38-4.95-8.06-9.32-11.02l.06-2c8.56-6.4,14.8-9.14,25.5-10.48Z"/>
  <path class="st3" d="M136.5,49.4c2.51,31.28,2.22,63.01,0,94.32l1.5,2.7c.02,5.58-.02,11.14-.11,16.67,18.83,5.56,36.31,16.13,50.35,29.87,4.31,4.22,23.22,26.33,21.68,33.27-1.99,8.97-13.01,8.06-16.43.46-33.73-62.02-122.08-70.25-167.64-15.82l-3.34,1.72c-4.58,5.77-8.13,11.96-12.46,17.88-4.34,2.35-7.57-.1-10.04-3.66v-3.74c6.33-11.53,14.32-22.82,23.99-31.82,3.13-2.92,8.62-7.69,12.01-10.09,2.63-4.75,10.68-8.59,15.88-10.8,12.96-5.51,24.14-9.45,38.39-11.09,10.43-1.2,22.87-1.77,32.6,1.73-1.11-6.48-1.01-13.17.88-19.5-2.22-30.59-2.43-61.49,0-92.07,4.23-1.47,8.52-1.47,12.75,0Z"/>
  <path class="st11" d="M383.25,218.57h.75v12.73c-6.47-1.2-26.14,3.93-26.14-6.36,0-2.01,2.24-5.65,4.17-6.21,5.1-1.48,15.49.77,21.22-.16Z"/>
  <path class="st2" d="M383.25,315.88c-5.29-.68-14.93,2.22-17.9-3.46-2.02-3.87-.44-8.52,4.07-9.22,2.44-.38,10.31-.43,12.75-.11,1.65.22.92,1.39,1.83,2.31v10.48h-.75Z"/>
  <path class="st10" d="M384,302.41c-2.03-6.93-3.73-13.97-7.5-20.21l7.5-30.69v50.9Z"/>
  <path class="st4" d="M228,49.4l11.25,136.24,110.25.74h-109.5c.45,8.47.91,16.99,1.5,25.45-.08.59-.29,1.46-.7,1.48-2.35.14-19.76-.04-20.41-.83-15.77-33.05-45.02-58.5-81.08-66.65l-2.81-2.12c-.19-31.43.14-62.89,0-94.32,1.51-.39,3.02-.74,4.55-.98s3.04-.47,4.56-.48c24.41-.06,48.89,0,73.29.18,3.07.02,6.11.63,9.1,1.28Z"/>
  <path class="st4" d="M123.75,49.4c-.11,30.68.15,61.39,0,92.07,0,.59-.17,1.49-.53,1.49-26.22.25-53.36,0-79.57-.74l-.9-1.51c5.31-30.42,10.55-60.88,15.75-91.32,2.51-.65,5.07-1.3,7.67-1.33,16.61-.18,33.3-.26,49.91-.16,1.27,0,2.55.24,3.83.49s2.56.61,3.83,1Z"/>
  <path class="st8" d="M228,49.4c-30.16.87-61.25.05-91.5,0-4.24,0-8.51,0-12.75,0-21.67-.04-43.62.63-65.25,0-7.19-.21-13.01,1-17.59-6.02-6.02-9.23,2.18-20.75,12.68-20.21l181.45.12c10.08,1.21,15.75,11.51,10.09,20.38-4.39,6.88-10.13,5.53-17.13,5.73Z"/>
  <path class="st8" d="M123.75,141.47c-.03,6.73.03,13.48,0,20.21-23.13-4.09-47.41-.81-68.75,8.86-5.57,2.52-14.07,7.12-18.99,10.61,1.59-13.57,4.4-26.98,6.75-40.42l81,.75Z"/>
  <path class="st9" d="M241.5,211.84c1.52,21.47,3.99,42.89,5.25,64.38l-57.75.74c2.86.05,1.88,5.45-.75,5.24-2.46-1.23-2.35-10.53,0-11.98-.07.58-.24,1.44-.66,1.5-1.11.15-11.62.29-12.15,0-.57-.32-.87-.9-1.06-1.5l-.12,1.55c-10.73,9.5,5.23,11.54,12.63,10.42l1.37,1.5,1.21,2.03c-1.22,9.03-3.44,17.86-7.34,26.12l-2.12,1.04-1.71.77c-4.51-3.55-9.33-5.53-14.45-5.92-5.18,5.55-1.99,10.35,9.57,14.4l.59,1.99c-6.58,9.52-13,15.86-22.5,22.46l-1.05.13c-2.1-4.24-4.65-8.24-7.66-11.99-13.35-4.91-6.2,11.17-1.37,16.02l-.42,1.82c-10.86,5.18-17.95,7.09-30,8.23l-1.02-.26c.13-5.3-.5-10.39-1.89-15.28-7.62-4.29-10.63.46-9.03,14.25l-1.57,1.29c-11.52-1.1-20.32-3.15-30.75-8.23,2.16-4.3,4.38-8.58,6.65-12.85.15-.94.13-1.94-.31-2.82-5.01-10.02-12.51,4.5-14.7,8.82l-2.14.11c-10.5-7.32-14.43-11.06-21.75-21.71l-.14-1.04c4.84-2.22,8.95-5.16,12.35-8.83,1.44-11.94-12.08-4.42-16.73-.23l-1.48.36c-5.55-11.2-7.16-18.31-8.25-30.69l.29-1c4.71-.08,9.42-.59,14.14-1.55,10.14-10.21-8.61-10.46-15.18-9.43.65-11.79,3.91-21.74,9-32.19,5.15,3.49,10.42,5.59,15.83,6.31,5.42-5.19,2.24-10.11-9.52-14.75l-.32-2.04c.53-.82,2.36-2.89,1.93-3.76-5.14-3.73-9.86-7.82-13.93-12.71,42.58-53.7,125.11-52.71,165.61,2.76,2.86,3.91,8.3,15.39,12.58,15.94,3.44.44,7.46-2.15,7.81-5.67.38-3.83-8.25-16.13-10.94-19.7-15.3-20.35-36.69-33.9-60.7-41.97-.7-6.7-.32-13.51-.36-20.22,37.3,7.31,69.09,33.45,84.74,67.75l20.26.37Z"/>
  <path class="st1" d="M291,276.96c.65.25.65.5,0,.75-6.1,8.35-9.01,15.06-10.5,25.45l1.34,1.36.18,10.41-1.52.96c0,.25,0,.5,0,.75,0,.1-.76.82-.78,1.81-.26,11.49,1.89,21.56-13.1,23.63-24.52-2.22-54.69,3.08-78.55-.18-5.27-.72-9.85-3.4-11.62-8.61-1.2-3.52-.35-6.73-1.7-9.91-.67-2.77,2.42-9.72,5.25-10.48,5.18-11.27,6.4-16.85,8.25-29.19-1.99-.27-1.87-.85,0-1.5.19-1.26,1.45-3.21.75-5.24h102Z"/>
  <path class="st2" d="M111,360.8c-5.83.55-7.65.56-13.5,0,.6-6.49-2.95-19.24,7.14-18.79,8.73.39,5.96,13.13,6.36,18.79Z"/>
  <path class="st2" d="M20.25,283.7c-.35-3.98-.99-7.64-.75-11.98.72-1.44,1.05-1.43,2.55-1.55,5.58-.46,16.66-1.34,17,6.43.38,8.9-13.08,6.93-18.8,7.1Z"/>
  <path class="st2" d="M34.5,229.05c5,3.87,17.13,6.35,13.68,14.78s-13.31.83-17.84-2.06c-.97-.62-2.19-.64-1.84-2.24,2.06-4.23,3.46-6.54,6-10.48Z"/>
  <path class="st2" d="M151.5,346.57c-4.12,2.86-6.02,3.85-10.5,5.99-3.47-3.87-12-16.45-4.49-19.82,8.43-3.79,12.16,8.19,14.99,13.84Z"/>
  <path class="st2" d="M180,312.89c-1.76,3.82-2.75,6.66-5.25,10.48-.18.28-.56.48-.75.75-5.67-3.1-17.39-6.19-13.68-14.78,3.5-8.12,15.07,1.18,19.68,3.56Z"/>
  <path class="st2" d="M34.5,324.12c-2.58-3.75-3.89-5.46-6-9.73-.08-1.65,1.08-1.96,2.15-2.72,4.61-3.28,13.52-9.23,17.25-2.05s-8.2,12.04-13.4,14.5Z"/>
  <path class="st2" d="M56.25,345.82c3.81-3.41,5.37-12.61,10.93-13.44,4.5-.67,8.57,3.13,7.68,7.64-.4,2.01-4.51,8.52-5.86,10.7-.61.99-.66,2.18-2.25,1.84-4.57-2.23-6.7-4.09-10.5-6.74Z"/>
  <path class="st2" d="M300.75,350.32c-3.9-2.97-6.52-4.91-9.75-8.98,4.33-4.1,10.56-14.78,17.28-9.39,7.74,6.21-3.99,13.62-7.53,18.37Z"/>
  <path class="st2" d="M338.25,360.8c-5.5.77-7.23.77-12.75,0,.8-6.19-3.22-18.78,6.38-18.78s5.58,12.59,6.38,18.78Z"/>
  <path class="st2" d="M372.75,341.33c-3.21,4.22-4.17,5.02-8.25,8.23-1.47.02-2.09-1.01-3.01-1.86-4.11-3.77-11.95-9.63-6.02-15.02,6.76-6.14,13.02,4.49,17.28,8.64Z"/>
  <path class="st2" d="M372.75,277.71c-3.89,4.21-11.42,14.52-17.64,9-6.76-5.99,4.45-14.24,8.64-17.98,4.72,3.57,5.39,4.33,9,8.98Z"/>
  <path class="st2" d="M338.25,258.25c-.39,5.71,2.54,18.76-6.38,18.75s-6.06-13.23-6.37-18.75c5.59-.7,7.11-.7,12.75,0Z"/>
  <path class="st2" d="M291,277.71c.12-.16-.12-.59,0-.75,2.61-3.41,5.62-5.71,9-8.23,4.27,4.18,14.97,10.93,9.02,17.61s-13.37-5.68-18.02-8.63Z"/>
  <path class="st6" d="M329.05,296.6c19.25-3.23,21.46,24.89,3.39,25.84-16.09.85-18.11-23.36-3.39-25.84Z"/>
  <path class="st2" d="M280.5,315.88c.15-4.46-.8-7.12,0-12.73,6.16.78,18.88-3.19,18.83,6.37-.05,8.69-13.15,6.02-18.83,6.35Z"/>
  <path class="st7" d="M167.8,68.99c2.78-.57,4.89.88,6.97,2.47,13.05,10.03,25.19,27.46,38.23,38.19,5.01,7.23-2.1,14.39-9.38,9.36l-39.38-39.3c-3.38-3.53-1.07-9.77,3.55-10.73Z"/>
  <path class="st7" d="M200.04,69.01c1.94-.43,3.26-.19,4.99.7,1,.52,8.11,7.61,8.62,8.6,2.22,4.29.46,9.72-4.79,10.06-7.82.5-20.66-16.76-8.82-19.36Z"/>
  <path class="st2" d="M98.07,238.23c54.98-6.9,60.65,74.27,8.8,77.64s-55.94-71.72-8.8-77.64Z"/>
  <path class="st2" d="M111,193.12v12.35c0,.41-1.74,3.97-2.23,4.52-3.6,4-11.27.39-11.27-3.02v-13.85c4.55-1.06,8.94-1.06,13.5,0Z"/>
  <path class="st2" d="M151.4,206.71c.63,1.09-6.08,12.75-7.41,13.72-5.27,3.83-11.74-.48-10.32-7.3.23-1.08,5.96-11.04,6.59-11.43,1.4-.88,10.82,4.45,11.14,5.01Z"/>
  <path class="st2" d="M188.25,283.7c-7.06-.15-21.17,2.05-18.58-9.2.38-1.65,3.44-4.27,4.71-4.27h13.88v11.98c-.07.48.07,1.02,0,1.5Z"/>
  <path class="st2" d="M57.1,206.71c.43-.72,9.71-5.96,11.16-5.02.53.34,5.92,9.93,6.24,11.03,1.9,6.56-4.66,11.44-10.26,7.25-1.58-1.18-7.94-11.9-7.14-13.25Z"/>
  <path class="st2" d="M179.91,240.94c-5.66,1.85-12.84,10.59-18.32,4.61-7.5-8.2,7.07-12.85,12.04-16.48,1.17,1.8,7.06,10.53,6.28,11.87Z"/>
  <path class="st0" d="M234,309.15v32.19h-12.75v-32.19h-15.38c-.27,0-3.25-3.22-3.56-3.93-1.85-4.25,1.42-8.41,5.76-8.84,12.98-1.28,28.49.77,41.71.38,6.21,1.94,3.64,12.39-.41,12.39h-15.38Z"/>
  <path class="st6" d="M101.08,250.97c38.1-4.12,39.02,57.21-2.26,51.24-27.35-3.95-27.93-47.98,2.26-51.24Z"/>
</svg>