<?xml version="1.0" encoding="UTF-8"?>
<svg id="Ebene_1" xmlns="http://www.w3.org/2000/svg" version="1.1" viewBox="0 0 384 384">
  <!-- Generator: Adobe Illustrator 29.5.1, SVG Export Plug-In . SVG Version: 2.1.0 Build 141)  -->
  <defs>
    <style>
      .st0 {
        fill: #f17875;
      }

      .st1 {
        fill: #7fbacd;
      }

      .st2 {
        fill: #cdcdcd;
      }

      .st3 {
        fill: #e5e5e5;
      }

      .st4 {
        fill: #80bbcd;
      }

      .st5 {
        fill: #cda2a6;
      }

      .st6 {
        fill: #fe928c;
      }

      .st7 {
        fill: #a6cfe0;
      }

      .st8 {
        fill: #7a838a;
      }

      .st9 {
        fill: #fefefe;
      }
    </style>
  </defs>
  <path class="st3" d="M378,210.34l-.7,1.5h-58.4l-.91-1.5c-.73-4.12-1.44-8.27-1.49-12.46l-.17-49.69c-1.8-7.81-8.49-8.32-15.33-8.18l-1.02-1.52c-3.77,2.04-8.23,2.04-12,0l-1.02,1.52c-6.83-.14-13.53.37-15.33,8.18l-.17,49.69c-.05,4.19-.76,8.34-1.49,12.46l-.53,1.5H114.93l-.93-1.5c-.39-.88-.74-1.76-.99-2.68s-.48-1.8-.49-2.69c-.07-15.35-.03-30.82.17-46.16.02-1.86.67-3.64,1.31-5.36l-1.57-1.25c.06-8.33-3.84-12.22-12.18-12.16l-1.25-1.57-1.17,1.45-14.04-.32c-16.43-1.61-17.58,9.51-16.96,23.72l.66,42.21c-.21,1.22-.71,2.32-1.48,3.3-.64,0-1.28-.03-1.89-.15-5.99-1.26-27.8-26.28-28.22-32.38-.04-.63.02-1.26.11-1.9l1.01-1.54c17.98-2.87,11.04-46.69-9.69-28.93l-1.81-.22-1.77-1.5c-1.04-6.42-1.81-12.97-.8-19.45l1.82-1.5c1.6-.3,3.14-.98,4.84-.78l320.7.37c8.38,1.31,15.83,7.98,18.51,15.96,3.28,9.8,8.14,37.86,9.11,48.54.71,7.79.08,17.02.09,24.98Z"/>
  <path class="st2" d="M270,228.3c.58.16,1.44.4,1.5.87.24,1.91.35,14.61,0,16l-1.5,1.09c-8,1.86-15.99,1.85-24,0-35.99.04-72.01.04-108,0-8.01,1.85-16,1.86-24,0-.59-.16-1.44-.4-1.5-.87-.22-1.83-.33-14.78,0-16l1.5-1.09c51.91-2.51,104.08-2.22,156,0Z"/>
  <path class="st2" d="M24.75,121.26c-1.63,7.19-.46,15.27.75,22.46,2.04.28,1.84.69,0,1.5-.27,4.51-.39,9.04-.33,13.59.13,6.3,1.94,13.25,9.19,14.1l1.64,1.5c7.26,13.67,17.49,25.36,30,34.43,1.99.24,1.91.93,0,1.5l-.7,1.5H6.91l-.91-1.5c-.17-23.25-.04-46.54.19-69.79,1.8-9.77,8.69-17.4,18.56-19.28Z"/>
  <path class="st8" d="M66,246.27c15.95-2.02,32.05-2.07,48,0,7.99.01,16.01,0,24,0-.24,16.72-19.7,24.13-31.5,12.35l-4.87-7.86c-5.42,15.41-23.61,18.71-33.11,4.6-1.33-1.97-1.59-6.52-3.45-3.64-1.18,1.83-1.59,3.81-3.18,5.79-10.48,13.13-31.74,5.25-31.89-11.25,11.68-2.18,24.35-2.35,36,0Z"/>
  <path class="st8" d="M270,246.27c15.91-2.19,32.08-2.13,48,0,11.58-2.38,24.39-2.18,36,0-.24,16.72-19.7,24.13-31.5,12.35l-4.87-7.86c-5.42,15.41-23.61,18.71-33.11,4.6-1.33-1.97-1.59-6.52-3.45-3.64-1.18,1.83-1.59,3.81-3.18,5.79-10.48,13.13-31.74,5.25-31.89-11.25,7.99,0,16.01.01,24,0Z"/>
  <path class="st0" d="M66,210.34c1.47,5.97,1.47,11.99,0,17.96l-.7,1.5H6.91l-.91-1.5c-.15-5.97.04-11.99,0-17.96h60Z"/>
  <path class="st6" d="M378,210.34c.01,5.96.17,12.01,0,17.96-19.9,2.21-40.11,2.31-60,0-1.47-5.97-1.47-11.99,0-17.96h60Z"/>
  <path class="st2" d="M66,228.3c.58.16,1.44.4,1.5.87.24,1.91.35,14.61,0,16l-1.5,1.09c-11.98-.04-24.02.18-36,0-7.82-.12-16.55,2.1-21.74-4.87-3.27-4.38-2.13-8.01-2.26-13.09h60Z"/>
  <path class="st2" d="M378,228.3c-.13,4.51.73,8.64-1.91,12.69-4.72,7.23-14.55,5.15-22.09,5.28-11.98.2-24.02-.04-36,0-.59-.16-1.44-.4-1.5-.87-.22-1.83-.33-14.78,0-16l1.5-1.09c19.99.07,40.01-.06,60,0Z"/>
  <path class="st7" d="M99,138.48c3.46.82,1.31,4.32-1.61,4.81.08,1.65-.38,3.29-1.39,4.92,2.05,3.25,2.06,7.23,0,10.48.87,1.59,1.43,3.27,1.66,5.03,6.15,1.56,16.11-.58,10.34-8.03-2.12-.63-1.88-3.45,0-4.49.77-2.31,5.79,0,6,2.25.82,18.52,0,38.23,0,56.89l1.5.87v16l-1.5,1.09v17.96c-15.99-.02-32.01.05-48,0v-37.43c0-18.37-1.6-40.97-.03-58.79.48-5.48,3.94-10.45,9.59-11.39s17.29-.45,23.44-.18Z"/>
  <path class="st5" d="M270,210.34c1.47,5.97,1.47,11.99,0,17.96-51.99.19-104.01-.14-156,0v-17.96h156Z"/>
  <path class="st1" d="M300,138.48c2.87,1.23,1.61,7.33,0,9.73,2.48.59,2.28,9.45,0,10.48,1.22,23,1.97,46.01.99,69.02,5.73-1.09,11.36-1.19,17.01.59v17.96c-15.99.05-32.01-.02-48,0v-17.96c5.38-1.56,10.95-1.75,16.5-1.4v-87.51s1.5-.91,1.5-.91c3.95-.12,8.05-.12,12,0Z"/>
  <path class="st7" d="M288,138.48v89.83c-5.99,0-12.01-.03-18,0v-17.96c0-20.76-.15-41.56.18-62.32,2.76-9.91,9.32-9.29,17.82-9.54Z"/>
  <path class="st7" d="M318,210.34v17.96c-5.99-.02-12.01.01-18,0,0-23.19,0-46.42,0-69.62l1.61-.18c12.78,11.39,12-21.44.24-10.08l-1.85-.23v-9.73c8.5.25,15.06-.38,17.82,9.54.33,20.77.18,41.56.18,62.32Z"/>
  <path class="st7" d="M141.55,138.66c15.26-2.47,15.59,14.19,14.45,24.9-1.54,14.43-22.46,14.44-24,0-.91-8.49-1.48-23.11,9.56-24.9Z"/>
  <path class="st7" d="M189.55,138.66c15.26-2.47,15.59,14.19,14.45,24.9-1.54,14.43-22.46,14.44-24,0-.91-8.49-1.48-23.11,9.56-24.9Z"/>
  <path class="st7" d="M237.55,138.66c15.26-2.47,15.59,14.19,14.45,24.9-1.54,14.43-22.46,14.44-24,0-.91-8.49-1.48-23.11,9.56-24.9Z"/>
  <path class="st7" d="M360,174.41h-24v-35.93c11.08-.7,17.35.39,20.03,11.82,1.81,7.72,2.24,16.3,3.97,24.11Z"/>
  <path class="st7" d="M36,174.41c-.52-.17-1.02-.37-1.47-.66-3.39-2.13-10.71-23.28-9.03-28.54-.09-.46.08-1.03,0-1.5,5.4-6.49,15.65-7.53,20.59.04,2.56,3.92,2.36,14.29,1.94,19.08-.58,6.64-5.14,11.57-12.03,11.57Z"/>
  <path class="st7" d="M114,153.45l-6-2.25-1.62-.8c-.83-5.38-5.4-6-8.62-2.03l-1.76-.17c.05-1.58-.35-4.29.09-5.53.61-1.7,4.11-.18,2.91-4.2,11.56.51,14.49,3.42,15,14.97Z"/>
  <path class="st4" d="M36,174.41c-13.65,0-12.76-15.18-12-25.07.11-1.46.36-3.09,1.5-4.12,1.84,9.8,5.84,20.41,10.5,29.19Z"/>
  <path class="st9" d="M108,151.2c.12,1.3.12,3.19,0,4.49,2.63,1.09.14,5.78-1.59,6.93-4.36,2.9-9.83,1.36-10.41-3.93-.1-3.45-.11-7.03,0-10.48,4.4-6.14,11.26-5.04,12,2.99Z"/>
  <path class="st7" d="M96,158.69c4.4,6.14,11.26,5.04,12-2.99,3.4-.42,3.36,2.3,2.96,4.82-1.05,6.57-9.4,5.07-14.26,4.59-1.2-.84-.66-4.84-.7-6.41Z"/>
  <path class="st9" d="M300,158.69v-10.48c8.7-9.63,14.03.15,11.84,9.95-1.28,5.73-9.43,5.53-11.84.53Z"/>
</svg>