<?xml version="1.0" encoding="UTF-8"?>
<svg id="Layer_1" xmlns="http://www.w3.org/2000/svg" version="1.1" viewBox="0 0 1024 1024">
  <!-- Generator: Adobe Illustrator 29.6.0, SVG Export Plug-In . SVG Version: 2.1.1 Build 207)  -->
  <defs>
    <style>
      .st0 {
        fill: #555455;
      }

      .st1 {
        fill: #a8a51d;
      }

      .st2 {
        fill: #2da9e0;
      }

      .st3 {
        fill: #cdcdcd;
      }

      .st4 {
        fill: #e5e5e7;
      }

      .st5 {
        fill: #8bc0bd;
      }

      .st6 {
        fill: #636363;
      }

      .st7 {
        fill: #faf9fa;
      }

      .st8 {
        fill: #ece10e;
      }

      .st9 {
        fill: #ee7b49;
      }

      .st10 {
        fill: #d5c528;
      }

      .st11 {
        fill: #de2a26;
      }

      .st12 {
        fill: #fdee23;
      }

      .st13 {
        fill: #cd6944;
      }

      .st14 {
        fill: #cd6843;
      }

      .st15 {
        fill: #979797;
      }

      .st16 {
        fill: #fed623;
      }

      .st17 {
        fill: #d5d6d8;
      }

      .st18 {
        fill: #ee7c48;
      }
    </style>
  </defs>
  <path class="st3" d="M1005.11,815.91c9.3.4,15.29,7.55,18.89,15v18c-3.64,6.26-8.15,11.92-15.74,14-20.13.72-46.35,1.39-66.47.43-.08-7.32.95-12.32,0-15.43-1.32-9.25.7-21.98-2.79-31l.96-2,57.28.03c3.92-1.07,6.54-.75,7.87.97Z"/>
  <path class="st0" d="M1,847.91H0v-14h1c2.74,1.6,2.53,11.89,0,14Z"/>
  <path class="st11" d="M646.5,861.14c2.41.91,1.76,1.88-.5,2.77h-349v-22.5c0-12.59-11.92-39.16-19.19-49.81-49.89-73.09-155.4-57.37-185.81,24.31l-1.51,2H23.2l-1.2-2-.04-494.53c.38-4.81.86-6.42,5.08-8.91l615.39-.49c3.52.42,5.49,2.94,5.58,6.42-.18,32.5.18,65.03-.02,97.52"/>
  <path class="st15" d="M647.69,416.34c.32-.05.67.04,1,0,86.04-.14,172.04.19,258,1,13.6,1.96,21.35,8.51,28.54,19.96l68.46,169.04c-.49,1.11-1.05,3.77,0,2l2,208c-1.26-.06-5.16,1.03-7.44,1.03l-59.56-.03c-38.95-105.67-182.91-90.65-199.86,19.64l.56,26.39-92.71-1.03"/>
  <path class="st17" d="M22.08,815.91h67.68c1.09,0,1.83,1.08,1.47,2.1-4.92,13.71-7.87,27.18-7.32,42.01.02.65-.44,1.09-.93,1.51-.03.03-.06.07-.08.12-.24.61-.68,1.11-1.33,1.13-21.8.71-43.58.75-65.36.14-.13,0-.27-.02-.4-.06-6.05-1.65-13.85-8.58-14.81-14.95-.43-2.86-.4-11.09,0-14,1.24-9,12.12-17.27,20.92-17.99.06,0,.11,0,.17,0Z"/>
  <path class="st6" d="M128.93,771.22c77.86-64.62,189.7,16.2,154.28,106.8-23.45,59.96-100.64,83.01-153.23,40.67-48.03-38.66-48.53-108.07-1.05-147.47Z"/>
  <path class="st6" d="M829.48,748.61c83.93-9.88,136.42,87.35,85.43,153.07-52.77,68.01-157.32,36.32-168.75-45.75-6.93-49.8,31.84-101.26,83.32-107.32Z"/>
  <path class="st7" d="M84,861.91c.12.54.32,2.09-.51,2.01-19.83-1.21-41.42,1.58-61.03.03-2-.16-4.54-.55-6.46-1.04l66.01-.99.49-8.02c.21,2.88.88,5.28,1.5,8.01Z"/>
  <path class="st5" d="M872.68,466.9l85,150.02c-54.98.05-216.02-.05-271-.01v-150c5.32-.03,180.68.03,186,0Z"/>
  <path class="st16" d="M991.04,678.91v74c-12.5,2.02-25.52-5.27-27-18.5-.86-7.63-.85-37.04,1.82-43.19,4.3-9.9,15.02-13.69,25.19-12.31Z"/>
  <path class="st4" d="M188.78,805.2c47.9-5.09,53.99,72.14,3.75,73.77-45.66,1.47-50.2-68.83-3.75-73.77Z"/>
  <path class="st4" d="M866.65,869.56c-17,17.27-48.1,13.14-58.83-8.97-14.44-29.77,13.09-62.4,44.72-51.72,24.74,8.35,32.32,42.18,14.11,60.69Z"/>
  <path class="st12" d="M846.27,148.23c-4.07.08-7.6,2.59-9.61,6.82-13.75,9.91-26.95,21.03-41.07,30.25l-1.06,1.39c1.79,12.3,3.37,24.85,3.32,37.22-.02,3.69-.19,12.17-2.94,13.9-3.6,2.26-6.5-1.49-6.03-6.13,2.15-10.93.57-24.53-1.68-36.07l-1.68-2.58-139.94,102.92c-8.78,10.46-3.47,28.65,9.06,32.02l181.01,63.36c3.49.04,6.68.33,9.64-2.03l84.24-60.66c5.45-5.09,7.32-13.1,4.35-21.77l-61.47-155.71c-2.13-4.21-4.78-7.08-8.53-8.46-8.24-3.04-11.26,1.12-17.61,5.53Z"/>
  <path class="st2" d="M795.59,185.3c-3.13-19.49-8.31-47.57-20.81-61.69-1.63-1.84-4.45-3.34-5.67-5.32-2.62-4.25-3.68-10.94-7.62-16.85-15.26-22.95-36.37-24.85-57.02-21.78-11.79,1.75-19.73,2.24-26.81,14.35-8.53,14.6-3.04,30.58,1.22,47.47,1.26.85,2.9.59,4.91-.77,2.29-.26,3.86-1.17,4.7-2.75-2.16-14.6-9.67-30.55,1.77-40.27,4.32-3.66,26.81-6.13,33.19-5.97,10.62.25,24.24,7.52,30.59,19.42-11.35-2.93-18.4-1.32-20.13,13.83-1.39,12.22,1.04,27.88,12.46,31.43,10.35,3.22,15.05-.53,19.51-10.98.59-1.38,2.89-10.41,3.9-9.8,1.17.7,4.8,8.17,5.52,10.01,5.72,14.72,7.83,31.91,10.22,47.41,1.54,10.02,3.29,20.3,3.15,30.7-.06,4.38-1.97,7.3-.62,12.03,1.54,5.43,7.89,5.84,9.68.42,3.41-10.27-.21-38.93-2.13-50.89ZM752.49,143.6c-9.76,2.41-11.03-11.46-10.28-17.89.04-.33.1-.65.18-.96.42-2.67,2.76-5.13,6.15-4.3,4.96,1.22,10.66,4.86,12.21,9.98,1.69,5.55-2.8,11.83-8.26,13.17Z"/>
  <path class="st2" d="M907.38,31.92c-8.18-3.92-21.42.02-29.69,2.32-18.48,5.13-36.92,18.28-39.63,44.01-.38,3.6.62,13.77.45,14.55-.08.35-1.33,1.09-1.74,2.09-8.07,19.99-4.22,37.9-.11,60.15,3.17-2.28,6.42-4.6,9.61-6.82-2.08-13.52-5.13-26.57-2.63-39.81,1.39-.72,1.06.13,1.57.76,9.68,11.81,16.7,20.91,29.01,9.61,9.77-8.97,2.46-32.24-6.56-40.6-8.27-7.66-16.95,3.09-18.61,2,1.79-10.1,7.73-19.91,14.58-25.21,8.05-6.24,18.49-7.35,27.91-9.39,4.35-.94,6.63-3.58,11.92-1.58,13.54,5.11,14.7,22.73,16.56,37.12,1.42.9,3.19.95,5.32.14,2.14.68,3.77.52,4.91-.49-1.44-21.05-5.16-40.36-22.88-48.85ZM849.6,94.6c.61-4.45,4.06-8.7,8.79-8.93,5.24-.25,9.69,4.51,11.03,9.25,1.36,4.85,1.74,12.99-4.43,14.73-2.86.8-5.33-.21-7.27-2.05-.5-.23-.98-.53-1.41-.88-1.24-1.02-2.26-2.22-3.06-3.55-2.64-1.78-4.15-4.96-3.66-8.57Z"/>
  <path class="st9" d="M678.89,141.47c-1.36,1.28-3.4,6.63-3.76,8.92-1.73,11.17,3.99,18.89,11.97,23.21,13.85,3.63,21.57-14.79,12.4-28.76-2.17-2.1-8.57-6.79-11-6.9-2.14-.1-7.96,1.99-9.61,3.53Z"/>
  <path class="st9" d="M920.03,81.13c-1.35.67-3.23,2.31-4.49,3.35-3.78,5.03-5.13,11.26-2.55,18.41,1.04,2.88,3.71,8.23,6.28,7.2l1.24-.54c.57-.74,5.64-8.81,5.75-9.4.45-2.45-.21-3.42-1.86-4.94-11-9.14-8.64-8.33.94.71.68.54,1.38,1,2.17.86.65-.12,6.73-8.99,7.36-10.32l.05-1.64c-1.76-1.93-1.65-2.82-4.65-4.03-4.03-1.61-6.59-1.44-10.23.36Z"/>
  <path class="st8" d="M919.26,110.08c-.64,2.06.22,2.75,1.55,1.34l1.32.51c2.05-3.13,4.08-6.29,6.07-9.49l7.92,6.36,1.43-.65c.13-.21.95-.16,1.37-1.08.24-.54-.07-1.41.02-1.66l.14-1.72-7.45-6.39,5.38-9.28-.56-1.88c-.59-.89-1.2-.96-1.55-1.34-2.45.11-6.54,10.56-7.83,10.52-3.09-1.74-6.5-6.37-9.36-8.03-1.55-.9-2.7,1-2.56,1.78.16.84,9.37,7.16,10.18,9.44.05,1.83-6.69,8.27-6.08,11.56Z"/>
  <path class="st14" d="M929.34,115.52c1.88-2.14.32-3.31-4.67-3.51-1.79-1.35-3.07-1.54-3.85-.59-.23-.17-1.31-1.11-1.55-1.34-4.88-4.81-7.06-10.65-6.04-18.07l2.32-7.54c-14.49,11.95-1.41,38.32,13.8,31.04Z"/>
  <path class="st13" d="M687.1,173.61c16.07,8.69,26.27-15.33,12.4-28.76l2.8,11.32c.65,7.44-3.79,14.73-9.32,16.29-2.07.59-4.42-.31-5.87,1.15Z"/>
  <path class="st9" d="M920.81,111.43c3.34,2.43,3.7,2.28,7.27,2.73,1.25.16,2.05-1.41,1.25,1.36,3.71-1.78,5.9-3.65,8.21-7.37l-9.61-7.98-7.13,11.26Z"/>
  <path class="st9" d="M938.94,105.41c2.58-7.17,2.05-12.5-2.48-19.26l-6.73,11.6,9.21,7.66Z"/>
  <path class="st1" d="M910.6,256.61l-1.23-1.66c-22.95-2.24-45.89-4.43-68.83-6.58l-.76,1.52c-4.4,40.58-9.25,81.07-13.32,121.76-.27,10.42,8.11,18.59,15.9,15.09,26.84-21.15,57.73-38.41,84.03-60.18,4.67-3.87,7.6-8.89,5.5-16.82-4.35-16.44-15.77-35.1-20.12-52.17-.32-.82-1.13-.88-1.16-.97Z"/>
  <path class="st10" d="M839.77,249.9l70.83,6.72c-13.48-34.44-26.55-69.11-40.36-103.38-5.66-11.24-17.9-10.87-20.59,1.55-3.7,31.59-6.45,63.46-9.88,95.12Z"/>
  <path class="st8" d="M689.18,147.04c-12.7-1.2-8.86,23.81,2.65,19.82,8.22-2.85,5.04-19.09-2.65-19.82Z"/>
  <path class="st18" d="M684.56,152.97c-3,5.32,3.35,14.01,7.71,9.64,5.93-5.93-3.48-17.14-7.71-9.64Z"/>
</svg>