<?xml version="1.0" encoding="UTF-8"?>
<svg id="Layer_1" xmlns="http://www.w3.org/2000/svg" version="1.1" viewBox="0 0 1024 1024">
  <!-- Generator: Adobe Illustrator 29.6.0, SVG Export Plug-In . SVG Version: 2.1.1 Build 207)  -->
  <defs>
    <style>
      .st0 {
        fill: #555455;
      }

      .st1 {
        fill: #cdcdcd;
      }

      .st2 {
        fill: #e5e5e7;
      }

      .st3 {
        fill: #8bc0bd;
      }

      .st4 {
        fill: #636363;
      }

      .st5 {
        fill: #faf9fa;
      }

      .st6 {
        fill: #de2a26;
      }

      .st7 {
        fill: #979797;
      }

      .st8 {
        fill: #fed623;
      }

      .st9 {
        fill: #d5d6d8;
      }
    </style>
  </defs>
  <path class="st1" d="M1005.11,815.91c9.3.4,15.29,7.55,18.89,15v18c-3.64,6.26-8.15,11.92-15.74,14-20.13.72-46.35,1.39-66.47.43-.08-7.32.95-12.32,0-15.43-1.32-9.25.7-21.98-2.79-31l.96-2,57.28.03c3.92-1.07,6.54-.75,7.87.97Z"/>
  <path class="st0" d="M1,847.91H0v-14h1c2.74,1.6,2.53,11.89,0,14Z"/>
  <path class="st6" d="M646.5,861.14c2.41.91,1.76,1.88-.5,2.77h-349v-22.5c0-12.59-11.92-39.16-19.19-49.81-49.89-73.09-155.4-57.37-185.81,24.31l-1.51,2H23.2l-1.2-2-.04-494.53c.38-4.81.86-6.42,5.08-8.91l615.39-.49c3.52.42,5.49,2.94,5.58,6.42-.18,32.5.18,65.03-.02,97.52"/>
  <path class="st7" d="M647.69,416.34c.32-.05.67.04,1,0,86.04-.14,172.04.19,258,1,13.6,1.96,21.35,8.51,28.54,19.96l68.46,169.04c-.49,1.11-1.05,3.77,0,2l2,208c-1.26-.06-5.16,1.03-7.44,1.03l-59.56-.03c-38.95-105.67-182.91-90.65-199.86,19.64l.56,26.39-92.71-1.03"/>
  <path class="st9" d="M22.08,815.91h67.68c1.09,0,1.83,1.08,1.47,2.1-4.92,13.71-7.87,27.18-7.32,42.01.02.65-.44,1.09-.93,1.51-.03.03-.06.07-.08.12-.24.61-.68,1.11-1.33,1.13-21.8.71-43.58.75-65.36.14-.13,0-.27-.02-.4-.06-6.05-1.65-13.85-8.58-14.81-14.95-.43-2.86-.4-11.09,0-14,1.24-9,12.12-17.27,20.92-17.99.06,0,.11,0,.17,0Z"/>
  <path class="st4" d="M128.93,771.22c77.86-64.62,189.7,16.2,154.28,106.8-23.45,59.96-100.64,83.01-153.23,40.67-48.03-38.66-48.53-108.07-1.05-147.47Z"/>
  <path class="st4" d="M829.48,748.61c83.93-9.88,136.42,87.35,85.43,153.07-52.77,68.01-157.32,36.32-168.75-45.75-6.93-49.8,31.84-101.26,83.32-107.32Z"/>
  <path class="st5" d="M84,861.91c.12.54.32,2.09-.51,2.01-19.83-1.21-41.42,1.58-61.03.03-2-.16-4.54-.55-6.46-1.04l66.01-.99.49-8.02c.21,2.88.88,5.28,1.5,8.01Z"/>
  <path class="st3" d="M872.68,466.9l85,150.02c-54.98.05-216.02-.05-271-.01v-150c5.32-.03,180.68.03,186,0Z"/>
  <path class="st8" d="M991.04,678.91v74c-12.5,2.02-25.52-5.27-27-18.5-.86-7.63-.85-37.04,1.82-43.19,4.3-9.9,15.02-13.69,25.19-12.31Z"/>
  <path class="st2" d="M188.78,805.2c47.9-5.09,53.99,72.14,3.75,73.77-45.66,1.47-50.2-68.83-3.75-73.77Z"/>
  <path class="st2" d="M866.65,869.56c-17,17.27-48.1,13.14-58.83-8.97-14.44-29.77,13.09-62.4,44.72-51.72,24.74,8.35,32.32,42.18,14.11,60.69Z"/>
</svg>