<?xml version="1.0" encoding="UTF-8"?>
<svg id="Layer_1" xmlns="http://www.w3.org/2000/svg" version="1.1" viewBox="0 0 1024 1024">
  <!-- Generator: Adobe Illustrator 29.6.0, SVG Export Plug-In . SVG Version: 2.1.1 Build 207)  -->
  <defs>
    <style>
      .st0 {
        fill: #555455;
      }

      .st1 {
        fill: #a8a51d;
      }

      .st2 {
        fill: #a3cfb7;
      }

      .st3 {
        fill: #17884a;
      }

      .st4 {
        fill: #32ab5c;
      }

      .st5 {
        fill: #2da9e0;
      }

      .st6 {
        fill: #cdcdcd;
      }

      .st7 {
        fill: #a0ceb5;
      }

      .st8 {
        fill: #299c5b;
      }

      .st9 {
        fill: #e5e5e7;
      }

      .st10 {
        fill: #8bc0bd;
      }

      .st11 {
        fill: #16884a;
      }

      .st12 {
        fill: #abd3b1;
      }

      .st13 {
        fill: #636363;
      }

      .st14 {
        fill: #add5b3;
      }

      .st15 {
        fill: #198a4c;
      }

      .st16 {
        fill: #faf9fa;
      }

      .st17 {
        fill: #ece10e;
      }

      .st18 {
        fill: #ee7b49;
      }

      .st19 {
        fill: #d5c528;
      }

      .st20 {
        fill: #de2a26;
      }

      .st21 {
        fill: #fdee23;
      }

      .st22 {
        fill: #cd6944;
      }

      .st23 {
        fill: #abd4b3;
      }

      .st24 {
        fill: #cd6843;
      }

      .st25 {
        fill: #19894c;
      }

      .st26 {
        fill: #1a8a4d;
      }

      .st27 {
        fill: #979797;
      }

      .st28 {
        fill: #fed623;
      }

      .st29 {
        fill: #fefefe;
      }

      .st30 {
        fill: #d5d6d8;
      }

      .st31 {
        fill: #4db578;
      }

      .st32 {
        fill: #fdfefe;
      }

      .st33 {
        fill: #ee7c48;
      }

      .st34 {
        fill: #299d5b;
      }
    </style>
  </defs>
  <path class="st6" d="M1005.11,815.91c9.3.4,15.29,7.55,18.89,15v18c-3.64,6.26-8.15,11.92-15.74,14-20.13.72-46.35,1.39-66.47.43-.08-7.32.95-12.32,0-15.43-1.32-9.25.7-21.98-2.79-31l.96-2,57.28.03c3.92-1.07,6.54-.75,7.87.97Z"/>
  <path class="st0" d="M1,847.91H0v-14h1c2.74,1.6,2.53,11.89,0,14Z"/>
  <path class="st20" d="M646.5,861.14c2.41.91,1.76,1.88-.5,2.77h-349v-22.5c0-12.59-11.92-39.16-19.19-49.81-49.89-73.09-155.4-57.37-185.81,24.31l-1.51,2H23.2l-1.2-2-.04-494.53c.38-4.81.86-6.42,5.08-8.91l615.39-.49c3.52.42,5.49,2.94,5.58,6.42-.18,32.5.18,65.03-.02,97.52"/>
  <path class="st27" d="M647.69,416.34c.32-.05.67.04,1,0,86.04-.14,172.04.19,258,1,13.6,1.96,21.35,8.51,28.54,19.96l68.46,169.04c-.49,1.11-1.05,3.77,0,2l2,208c-1.26-.06-5.16,1.03-7.44,1.03l-59.56-.03c-38.95-105.67-182.91-90.65-199.86,19.64l.56,26.39-92.71-1.03"/>
  <path class="st30" d="M22.08,815.91h67.68c1.09,0,1.83,1.08,1.47,2.1-4.92,13.71-7.87,27.18-7.32,42.01.02.65-.44,1.09-.93,1.51-.03.03-.06.07-.08.12-.24.61-.68,1.11-1.33,1.13-21.8.71-43.58.75-65.36.14-.13,0-.27-.02-.4-.06-6.05-1.65-13.85-8.58-14.81-14.95-.43-2.86-.4-11.09,0-14,1.24-9,12.12-17.27,20.92-17.99.06,0,.11,0,.17,0Z"/>
  <path class="st13" d="M128.93,771.22c77.86-64.62,189.7,16.2,154.28,106.8-23.45,59.96-100.64,83.01-153.23,40.67-48.03-38.66-48.53-108.07-1.05-147.47Z"/>
  <path class="st13" d="M829.48,748.61c83.93-9.88,136.42,87.35,85.43,153.07-52.77,68.01-157.32,36.32-168.75-45.75-6.93-49.8,31.84-101.26,83.32-107.32Z"/>
  <path class="st16" d="M84,861.91c.12.54.32,2.09-.51,2.01-19.83-1.21-41.42,1.58-61.03.03-2-.16-4.54-.55-6.46-1.04l66.01-.99.49-8.02c.21,2.88.88,5.28,1.5,8.01Z"/>
  <path class="st10" d="M872.68,466.9l85,150.02c-54.98.05-216.02-.05-271-.01v-150c5.32-.03,180.68.03,186,0Z"/>
  <path class="st28" d="M991.04,678.91v74c-12.5,2.02-25.52-5.27-27-18.5-.86-7.63-.85-37.04,1.82-43.19,4.3-9.9,15.02-13.69,25.19-12.31Z"/>
  <path class="st9" d="M188.78,805.2c47.9-5.09,53.99,72.14,3.75,73.77-45.66,1.47-50.2-68.83-3.75-73.77Z"/>
  <path class="st9" d="M866.65,869.56c-17,17.27-48.1,13.14-58.83-8.97-14.44-29.77,13.09-62.4,44.72-51.72,24.74,8.35,32.32,42.18,14.11,60.69Z"/>
  <path class="st4" d="M377.97,356.81c3.7,2.73,7.31,5.72,10.8,8.98,2.33.35,4.46,1.11,6.4,2.29,1.21.25,2.03,1,2.99,1.5,11.39,2.58,16.61,12.81,20.87,22.66l-.68,2.12-1.28,1.11-6.18-2.33c9.37,19.71-1.13,34.74-14.62,48.89-1.54,3.15,19.5-4.86,20.29-7.08l1.79.71,1.18,1.22c2.09,17.46-4.52,33.98-20.28,42.06,6.78,2.87,11.96,7.25,15.56,13.16,2.5-.5,4.43-.04,5.79,1.38,6.01.44,10.65,1.31,16.46,3,11.14,6.32,16.76,16.69,18.32,29.16,3.07-.22,4.94.57,5.61,2.38,4.04.64,7.23,1.17,11.22,2.25,22.26,9.73,25.2,40.77,10.75,58.55-5.15,18.06-12.42,27.77-32.09,29.53-4.78.43-11.07.81-15.31-.23l1.24-2.19c6.46-3.62,15.24-9.16,2.29-3.29-16.13,6.65-31.27-6.91-37.05-21.19.58,5.82,3.61,11.22,6.61,16.16l-.77,1.51c-6.65-5.13-10.97-16.23-11.17-24.52-.07-2.97,1.25-5.26.52-8.73-.49-2.33-3.03-6.25-3.93-8.82-.96-2.75-.6-6.11-2.64-8.24-.79-1.61-1.04-3.6-.76-5.96-5.2,6.29-12.26,10.53-20.48,10.07l-8.06,1.17c-5.34,3.28-10.73,4.8-16.85,6.11-2.77,6.83-7.1,11.93-13.26,16.04,2.7,2.09,4.92,4.72,6.94,7.46,1.55-1.27,2.83-1.38,3.85-.34,11.49-4.12,19.1-3.09,30.67,0,9.18,4.14,14.7,10.85,17.64,20.38,16.78,12.36,19.14,37.78,7.16,54.19,2.1,22.66-11.8,43.21-36.01,41.81-1.11-.14-2.55-.52-3.74-.75l.99-1.86c7.24-.75,13.38-3.42,18.4-8-19.21,10.23-36.3-.08-43.91-18.92,1.6,9.95,7.81,19.87,17.08,24.14,1.45,1.33,1.12,2.88-.79,2.38-4.75-1.76-7.75-3.47-11.63-6.72-1.24-1.04-1.74-2.89-3.09-3.65-2.47-1.39-8.45-1.77-12.19-3.53-5.81-2.74-10.53-7.73-13.81-13.17-1.14-1.89-1.69-5.16-2.89-6.49-2.5-2.78-7.56-5.2-10.57-9.29-4.59-6.22-4.05-12.57-6.83-17.92-1.17-2.24-5.77-5.57-7.82-8.67s-3.48-8.99-4.88-10.87c-.71-.95-6.22-3.55-8.21-5.27-8.91-7.73-12.7-21.02-11.48-32.59.38-3.62,3.09-9.03,2.76-11.91-.06-.56-1.89-7.02-2.18-7.26-.76-.65-4.26.84-5.17-.82l1.39-.92-8.87.17c-4.14-.66-15.57-3.65-18.7-6.01l-1.4.24c-.1-4.53-11.5,1.16-11.55,1.83,1.45,7.14,1.6,14.32-.4,21.22,12.98,19.91,6.58,48.45-16.25,57.58-4.24,17.77-16.93,29.7-36.22,28-27.54-4.08-43.77-31.67-31.32-57.35,4.35-8.97,11.86-13.89,20.83-17.36-1.31-1.47-2.03-3.23-2.97-4.89-.51-1.24-.45-1.45.75-.75l1.65-.3c4.02,4.41,9.38,8.13,15.3,9.28l.63,1.53c.27-1.42,1.46-1.92,3.54-1.5l8.05,1.5c-24.64-1.8-35.25-23.4-26.05-45.52-3.55,4.69-5.48,10.41-6.02,16.24l-1.59,1.5c-.19,1.72-.69,2.47-1.5,2.25-.17-2.82-.19-6.41.19-9.19.46-3.36,3.46-8.35,3.45-10.71-.01-2.47-2.48-7.96-2.8-11.35-1.57-16.44,7.98-34.08,24.59-38.21,4.25-1.06,8.02-.39,11.23-2.62,3.75-7.1,10.09-10.58,17.69-12.73-1.8-.1-2.7-.86-2.73-2.28-3.17-1.07-5.93-2.45-8.58-4.52-2.39-1.87-6.47-7.68-7.85-8.56-.57-.37-6.84-.36-8.42-.63-23.47-4.03-37.21-15.81-35.01-41.5.22-2.58,2.41-8.24,2.13-9.55-.26-1.23-3.28-4.58-4.14-6.4-8.88-18.76-3.14-45.24,18.09-52,10.38-3.3,17.21-1.77,27.32.77,5.75,2.22,9.98,5.15,13.56,10.2,2.61,3.68,6.6,10.5,4.39,14.58.41,1.87,0,3.24-1.88,2.11-.54-2.09-10.96-16.2-12.21-13.63,5.39,19-.37,33.49-17.3,44.18,4.92,4.01-2.57,5.44-6.01,2.62l-1.24-1.65c-19.98-5.43-25.48-24.58-18.9-42.76-12.49,16.81-4.82,40.11,16.91,42.69l1.73,1.71c13.43,4.81,27.97-1.27,35.67-12.94l1.73.17c.42-.49.92-.71,1.53-.6l3.64,5.5c2.45-.68,4.22-.31,5.3,1.11,6.88.07,9.92.66,16.46,2.25l5.21,2c3.49,2.84,6.25,4.17,10.5,5.51,5.09.68,10.01,1.6,14.96,3,.16.92-1.07.33-1,.36,13.93,6.46,16.67,13.91,19.87,28.09,6.18,5.1,11.5,10.28,13.6,18.55l-1.05,1.81-1.41,1.54c-9.24.61-16.84,7.59-20.47,15.81,12.98-17.4,32.62-14.37,47.33-.91-4.72-7.99-13.36-13.01-22.31-14.82l-.9-1.62c-.08-1.26.43-1.69,1.59-1.5-.61-2.12-.4-3.62.65-4.51l5.86-14.77,7.61-10.01c2.33.58,3.72,6.37,2.24,8.26.24.32.49.32.75,0-1.02-2.96,3.76-9.89,6.04-12.33,2.89-3.09,5.95-5.51,9.71-7.47,3.08-1.6,10.06-5.03,12.3-1.97.16-.58.39-1.44.86-1.5,1.67-.23,17.29-.32,18.14,0l1.57,1.5-1.64-.54c-4.47-7.64-13.67-10.72-22.04-11.43l-1-1.54,1.14-2.21c7.66-4.53,14.22-8.46,1.44-2.93-16.82,6.03-31.17-7.47-36.88-22.38,1.31,7.11,4.37,13.6,9.2,19.46.29,1.45-.47,1.93-1.83,1.3-13.46-11.72-14-28.18-8.98-44.3,4.67-12.54,16.44-21.13,29.92-19.52,7.68.39,13.1-1.68,19.79-1.51,4.85.12,10.83,2.27,15.83,2.92,8,1.03,13.71.81,21.97,3.1Z"/>
  <path class="st11" d="M225.38,561.8c-1.11,1-6.65,1.26-6.77,1.93-.55,3.07,1.64,8.88,1.6,12.72-.04,2.86-2.3,9.26-2.12,10.38.13.82,3.4,5.9,4.13,7.81,5.43,14.21,2.39,33.25-9.94,42.98-2.04,1.61-9.48,4.95-9.89,5.46-.94,1.16-2.95,9.62-4.83,12.8-8.3,14.05-22.85,17.03-38,14.79,4.53-1.03,8.95-1.14,13.43-2.66,6.8-2.31,12.92-7.1,16.63-13.34,1.95-3.28,3.92-11.58,5.03-12.97.91-1.13,3.61-1.5,5.06-2.43,17.13-10.97,21.43-30.05,13.84-48.72-.7-1.72-2.78-3.88-3-5.26-.28-1.77,1.23-4.48,1.35-6.61.34-5.69-.09-11.38-1.49-16.88,2.98,1.32,10.02-3.59,11.58-3.49,2.13.13,3.17,3.34,3.37,3.49Z"/>
  <path class="st11" d="M398.17,369.58c10.56,1.17,18.88,7.88,23.8,17.03,7.56,14.07,13.29,26.67,7.96,43.01-.87,2.65-4.17,7.63-4.44,8.94-.53,2.54.7,9.41.28,13.16-1.38,12.42-10.7,25.33-23.1,28.25l11.9,6.44c2.23,2.13,4.88,4.1,6.05,7.07-1.68-.12-5.55.43-6.58-.16-.37-.22-3.3-4.93-4.24-5.87-3.88-3.88-9.91-7.41-15.36-8.24l10.09-5.25c8.13-6.68,13.38-16.7,13.86-27.37.18-3.88-1.33-7.53-.03-10.92l-.44-1.58c6.22-11.97,6.79-25.7-.27-37.69l.72-2.03c-5.33-11.66-8.22-18.54-20.2-24.78Z"/>
  <path class="st11" d="M361.52,709.73c2.92-1.31,6.61-1.08,9.75-1.85,12.84-3.17,22.7-14.95,24.47-28,.52-3.87-.5-9.08.37-12.39.47-1.79,3.83-5.74,4.89-8.61,4.78-12.97,2.8-28.65-6.18-39.26-1.38-1.63-5.02-4.07-5.66-5.03-1.92-2.89-2.81-9.03-5.97-11.84l-10.45-9.4c8.57,2.29,13.51,4.81,19.01,12.08,2.65,3.5,3.31,7.31,5.33,10.41,1.59,2.44,5.22,4.74,7.07,7.17,7.91,10.33,8.96,25.61,4.5,37.56-.89,2.38-4.92,8.34-5.04,9.1-.22,1.34.71,4.96.52,7.39-1.88,24.42-19.31,35.64-42.62,32.67Z"/>
  <path class="st11" d="M432.58,619.62c-6.33-1.5,1.1-5.25,2.99-1.5,15.97-1.66,27.14,1.46,38.53-12.76,4.94-6.17,4.49-10.48,7.29-16.71,1.53-3.4,4.52-6.2,6.15-10.34,5.94-15.08,2.47-33.43-10.08-43.92l-5.24-4.12c26.6,7.25,32.07,34.02,19.32,56.57-3.26,5.76-3.83,10.25-6.75,15.75-8.83,16.63-24.87,16.94-41.34,17.07-3.39.03-7.62.3-10.88-.03Z"/>
  <path class="st34" d="M326.36,422.89c8.5.14,21.73,4.62,24.68,13.52h-20.57c-7.48,0-17.06,5.46-21.63,11.33-.88,1.13-6.29,9.77-6.42,10.45-.21.66-.46.65-.75,0-.11-1.54-1.99-4.99-2.24-8.26-.06-.73-.01-1.51,0-2.25,1.67-10.96,10.88-18.58,20.88-22.03-5.19-2.12,3.89-5.82,6.05-2.75Z"/>
  <path class="st23" d="M299.43,416.13c1.42-.27-.41-2.17-.76-2.62-4.3-5.53-7.92-12.36-8.24-19.57-.04-.97.22-4.53,1.51-4.84,1.86,11.99,13.27,27.06,25.89,28.45,9.6,1.05,16.57-4.07,24.98-7.42-4.27,5.69-10.04,9.82-16.46,12.76-2.25-.04-4.95,1.35-7.48.76l7.47,2.24c-12.7,1.77-22.15,10.06-26.92,21.78.18-12.14,7.31-20.37,18.71-23.65-7.17-.99-13.24-3.12-18.71-7.88Z"/>
  <path class="st11" d="M342.07,593.34c-1.14.41-3.68,2.33-4.51,1.93-2.54-3.38-5.26-6.84-8.95-9.06,3.66-2.57,7.68-5.46,10.45-9.03,1.4-1.8,4.24-8.21,4.65-8.47.43-.28,7.86-1.59,9.97-2.38,2.28-.86,5.89-3.44,7.5-3.74,9.91-1.84,13.84.83,23.46-6.48,1.55-1.18,4.63-5.12,5.69-5.56,1.53-.64,1.05,1.04,1.11,1.86.14,1.85.29,4.83-.75,6.4-1.47,2.23-10.99,4.88-13.85,5.25-2.58.33-5.5-.42-8.06.16-1.63.37-4.17,2.57-6.32,3.42-2.73,1.08-9.22,1.88-10.64,2.84-.69.47-4.51,8.02-6.38,10.11-2.66,2.98-5.68,4.56-8.6,7.13l5.22,5.63Z"/>
  <path class="st11" d="M202.94,419.14c-1.32-.01-5.76.53-6.02.38-.86-.49-3.09-5.35-4.45-6.39l-.86-1.55c2.43-6.07,1.88-12.91,1.12-19.27,1.25-.17,1.54-.7,1.24-1.7-1.97-11.26-8.4-18.98-17.95-24.78,18.28,4.6,28.38,18.4,26.83,37.82-.26,3.2-2.23,8.06-2.19,10.65.04,2.37,2.12,2.72,2.29,4.84Z"/>
  <path class="st14" d="M349.55,706.72l.57-.93c-10.23-3.51-19.82-19.51-18.33-30.04.09-.64.34-2.27,1.31-2.06,1.75,11.38,12.98,26.54,25.07,27.77,9.95,1.02,16.37-3,25.05-6.74-3.38,4.02-7.37,8.43-12.21,10.64-4.26,1.95-8.85,2.18-13.23,3.62-3.38-.66-5.05-1.08-8.23-2.25Z"/>
  <path class="st14" d="M407.89,609.11c-2.56-3.48-6.47-11.5-7.14-15.73-.4-2.48-1.38-7.6,1.15-9.05.96,12.35,14.64,28.17,27.35,28.56,8.35.25,15.36-4.66,22.77-7.52-4.42,5.77-9.74,9.97-16.46,12.76-1.46.15-3.02-.12-4.48,0v.73s1.49.76,1.49.76c-7.43-.75-20.14-4.35-24.68-10.51Z"/>
  <path class="st11" d="M250.07,431.9c11.8,3.34,19.04,9.64,22.98,21.61.82,2.49,1.18,7.4,2.1,9.16,1.57,3.02,8.87,5.76,10.83,12.03.67,2.14,1.05,3.71.75,6.01h-3c-.74,1.74-1.49,1.74-2.24,0-1.03-4.1-3.12-8.58-5.67-11.95-2.03-2.68-6.99-5.83-8.13-7.61-1.34-2.09-1.94-8.23-3.04-11.21-3.13-8.42-8.07-12.37-15.13-17.11-1.96-1.32-.58-.81.56-.92Z"/>
  <path class="st3" d="M437.07,496.48c15.23,4.45,23.13,15.63,23.94,31.54-2.51-.4-4.78-1.19-7.48-.75-.57-14.04-6-22.14-17.05-29.82-1.92-1.33-.55-.89.6-.97Z"/>
  <path class="st7" d="M192.47,488.22l11.22,3c-7.03-.09-14.51,2.24-20.13,6.46-2.19,1.64-3.69,3.92-6.05,5.57,1.92-7.44,8.2-12.18,14.96-15.02Z"/>
  <path class="st2" d="M320.38,352.31c-13.36.4-23.98,7.74-29.92,19.52,4.22-13.56,13.26-20.96,28.11-20.3,1.61.07,1.71.77,1.81.78Z"/>
  <path class="st25" d="M377.97,356.81c7.45,2.06,12.54,4.74,17.2,11.26-1.45-.3-4.96.58-7.43-1.18-2.84-2.02-6.13-6.13-10.37-9.12-1.91-1.34-.55-.88.6-.97Z"/>
  <path class="st26" d="M235.11,428.9c-1.91-.25-4.04.49-5.98-.39s-6.54-6.27-9.73-7.12c2.27.55,3.7.3,6.49,1.37,3.08,1.18,7.25,3.46,9.22,6.14Z"/>
  <path class="st31" d="M146.84,590.34l-.75.75c-3.37-5.92-4.8-8.51-5.24-15.77l1.5-2.25,1.46,1.52c-.12,4.8.84,9.63,3.46,13.69l-.43,2.06Z"/>
  <path class="st15" d="M244.08,567.81l11.96-1.5v2.25c-1.48,0-2.99.02-4.48,0-2.8-.02-4.78-.32-7.48-.75Z"/>
  <path class="st34" d="M156.57,425.9c2.23.1,4.5-.06,6.73,0,.05-1.74-3.81-.9-2.99-2.61.35-.74,4.82-3.45,5.99-4.5,7.12-6.45,14.15-13.73,14.26-24.03.03-2.91-2.91-17.7-2.3-18.4,7.43,2.47,10.63,8.35,14.32,14.53.81,1.36,1.63,2.1,1.39-.27,1.03,5.88,1.77,17.13-1.5,22.53-.47.78-5.12,6.33-5.96,7.16-6.9,6.83-23.32,12.68-31.44,5.6.17-1.5.92-1.44,1.5,0Z"/>
  <path class="st8" d="M365.26,482.96c1.47-3.5,11.79-5.33,15.33-5.33,8.66,0,22.07,4.64,25.05,13.58-11.35-.66-27.53-1.27-37,6.03-5.5,4.24-7.95,10.36-11.99,15.73-3.96-5.42-3.1-13.75-1.12-19.88-.08-.41-.5-.28-.75-.38l.24-1.68c1.3-1.67,8.45-7.64,10.47-7.76.07,0-.99,1.23-.24-.33Z"/>
  <path class="st8" d="M418.37,394.36c3.58,7.84,6.4,12.9,6.01,22.19-.15,3.51-3.13,17.5-6.01,19.11-6.04,3.38-13.8,8.76-21.33,8.32-1.34-.08-2.48.12-3.35-1.2,8.4-10.09,20.63-21.53,19.35-35.94-.48-5.37-3.25-10.3-4.39-15.48l3.01.35,6.71,2.65Z"/>
  <path class="st14" d="M407.89,535.53c-14.57,20.31-41.14,16.92-49.73-6.77-1.41-3.89-3.64-11.36-.39-14.26.57,10.4,11.77,24.46,21.7,27.41,10.65,3.16,18.99-2.46,28.42-6.37Z"/>
  <path class="st14" d="M142.35,573.07c.27-7.01,2.8-14.64,7.46-19.92.6-.68,3.73-4.14,4.51-3.35-9.75,17.31-9.15,40.12,12.21,47.43l9.48,3.62h-11.59c-5.25,0-14.51-6.13-17.58-10.51-3.84-5.48-4.74-10.62-4.49-17.27Z"/>
  <path class="st14" d="M377.22,606.11c-12.21-6.9-31.38-9.55-41.44,2.32-4.36,5.14-5.59,10.87-7.83,16.92-.35.96-.17,2.3-1.58,2.54-2.04-23.27,13.28-39.31,36.81-32.07,5.2,1.6,11.9,5.02,14.04,10.3Z"/>
  <path class="st14" d="M136.38,648.91c11.19,10.71,30.47,17.5,43.38,5.64,4.82-4.42,7.1-10.49,11.2-15.4-1.82,32.84-41.61,37.96-54.59,9.76Z"/>
  <path class="st14" d="M302.43,458.18c-1.18,6.11,10.54,21.05,15.77,24.34,12.25,7.68,21.75,2.58,33.59-2.56,1.52,1.42-8.82,8.51-9.97,9.13-19.9,10.86-39.31-5.76-40.91-26.07-.15-1.92.85-3.72.77-4.84h.75Z"/>
  <path class="st14" d="M218.66,548.29c12.57,11.14,33.88,17.54,45.93,2.19l7.91-11.95c.08,12.6-9.37,25.83-22.25,27.58-11.84,1.61-27.44-6.3-31.59-17.83Z"/>
  <path class="st14" d="M281.48,480.71c.74,0,1.51-.06,2.24,0,5.86.51,13.86,4.45,18.3,8.28,3.93,3.39,8.09,8.93,8.62,14.24-7.13-8.75-20.1-17-31.79-15.77-10.31,1.09-17.4,10.71-23.55,18.02,2.7-12.3,12.54-24.88,26.17-24.78Z"/>
  <path class="st12" d="M330.1,579.08c-10.04,13.33-27.05,18.38-40.4,6.38-7-6.29-12.53-18.05-10.46-27.41l3.33,8.29c6.7,11.69,16.51,22.28,31.26,19.3,5.8-1.17,10.77-4.67,16.27-6.56Z"/>
  <path class="st14" d="M311.4,615.12c-6.81,8.88-15.83,14.04-27.31,12.76-14.54-1.61-26.47-20.62-23.55-34.54l3.45,8.91c6.58,12.03,15.48,21.48,30.38,19.42,6.06-.84,11.31-4.69,17.02-6.56Z"/>
  <path class="st14" d="M155.07,425.9c-28.71-2.67-34.11-33.74-14.59-51.07l-2.99,8.26c-6,20.3.32,35.47,21.32,40.56l-2.24,2.24c-.49-.02-1.01.05-1.5,0Z"/>
  <path class="st14" d="M179.76,471.7c11.6,10.21,30.57,16.75,43.39,4.9,4.44-4.1,6.61-10.12,10.45-14.66.09,10.92-8.26,24.35-19.24,26.85-12.78,2.92-29.91-4.38-34.6-17.09Z"/>
  <path class="st3" d="M365.26,482.96s.71.32.68.62c-4.67,1.85-6.44,7.78-11.15,9.14-1.31-.52-2.31.79-.79-2.67,1.98-4.52,6.71-6.43,11.26-7.09Z"/>
  <path class="st21" d="M846.27,148.23c-4.07.08-7.6,2.59-9.61,6.82-13.75,9.91-26.95,21.03-41.07,30.25l-1.06,1.39c1.79,12.3,3.37,24.85,3.32,37.22-.02,3.69-.19,12.17-2.94,13.9-3.6,2.26-6.5-1.49-6.03-6.13,2.15-10.93.57-24.53-1.68-36.07l-1.68-2.58-139.94,102.92c-8.78,10.46-3.47,28.65,9.06,32.02l181.01,63.36c3.49.04,6.68.33,9.64-2.03l84.24-60.66c5.45-5.09,7.32-13.1,4.35-21.77l-61.47-155.71c-2.13-4.21-4.78-7.08-8.53-8.46-8.24-3.04-11.26,1.12-17.61,5.53Z"/>
  <path class="st5" d="M678.89,141.47c1.26.85,2.9.59,4.91-.77,2.29-.26,3.86-1.17,4.7-2.75-2.16-14.6-9.67-30.55,1.77-40.27,4.32-3.66,26.81-6.13,33.19-5.97,10.62.25,24.24,7.52,30.59,19.42-11.35-2.93-18.4-1.32-20.13,13.83-1.39,12.22,1.04,27.88,12.46,31.43,10.35,3.22,15.05-.53,19.51-10.98.59-1.38,2.89-10.41,3.9-9.8,1.17.7,4.8,8.17,5.52,10.01,5.72,14.72,7.83,31.91,10.22,47.41,1.54,10.02,3.29,20.3,3.15,30.7-.06,4.38-1.97,7.3-.62,12.03,1.54,5.43,7.89,5.84,9.68.42,3.41-10.27-.21-38.93-2.13-50.89-3.13-19.49-8.31-47.57-20.81-61.69-1.63-1.84-4.45-3.34-5.67-5.32-2.62-4.25-3.68-10.94-7.62-16.85-15.26-22.95-36.37-24.85-57.02-21.78-11.79,1.75-19.73,2.24-26.81,14.35-8.53,14.6-3.04,30.58,1.22,47.47Z"/>
  <path class="st5" d="M930.26,80.77c-1.44-21.05-5.16-40.36-22.88-48.85-8.18-3.92-21.42.02-29.69,2.32-18.48,5.13-36.92,18.28-39.63,44.01-.38,3.6.62,13.77.45,14.55-.08.35-1.33,1.09-1.74,2.09-8.07,19.99-4.22,37.9-.11,60.15,3.17-2.28,6.42-4.6,9.61-6.82-2.08-13.52-5.13-26.57-2.63-39.81,1.39-.72,1.06.13,1.57.76,9.68,11.81,16.7,20.91,29.01,9.61,9.77-8.97,2.46-32.24-6.56-40.6-8.27-7.66-16.95,3.09-18.61,2,1.79-10.1,7.73-19.91,14.58-25.21,8.05-6.24,18.49-7.35,27.91-9.39,4.35-.94,6.63-3.58,11.92-1.58,13.54,5.11,14.7,22.73,16.56,37.12,1.42.9,3.19.95,5.32.14,2.14.68,3.77.52,4.91-.49Z"/>
  <path class="st18" d="M678.89,141.47c-1.36,1.28-3.4,6.63-3.76,8.92-1.73,11.17,3.99,18.89,11.97,23.21,13.85,3.63,21.57-14.79,12.4-28.76-2.17-2.1-8.57-6.79-11-6.9-2.14-.1-7.96,1.99-9.61,3.53Z"/>
  <path class="st18" d="M920.03,81.13c-1.35.67-3.23,2.31-4.49,3.35-3.78,5.03-5.13,11.26-2.55,18.41,1.04,2.88,3.71,8.23,6.28,7.2l1.24-.54c.57-.74,5.64-8.81,5.75-9.4.45-2.45-.21-3.42-1.86-4.94-11-9.14-8.64-8.33.94.71.68.54,1.38,1,2.17.86.65-.12,6.73-8.99,7.36-10.32l.05-1.64c-1.76-1.93-1.65-2.82-4.65-4.03-4.03-1.61-6.59-1.44-10.23.36Z"/>
  <path class="st17" d="M919.26,110.08c-.64,2.06.22,2.75,1.55,1.34l1.32.51c2.05-3.13,4.08-6.29,6.07-9.49l7.92,6.36,1.43-.65c.13-.21.95-.16,1.37-1.08.24-.54-.07-1.41.02-1.66l.14-1.72-7.45-6.39,5.38-9.28-.56-1.88c-.59-.89-1.2-.96-1.55-1.34-2.45.11-6.54,10.56-7.83,10.52-3.09-1.74-6.5-6.37-9.36-8.03-1.55-.9-2.7,1-2.56,1.78.16.84,9.37,7.16,10.18,9.44.05,1.83-6.69,8.27-6.08,11.56Z"/>
  <path class="st24" d="M929.34,115.52c1.88-2.14.32-3.31-4.67-3.51-1.79-1.35-3.07-1.54-3.85-.59-.23-.17-1.31-1.11-1.55-1.34-4.88-4.81-7.06-10.65-6.04-18.07l2.32-7.54c-14.49,11.95-1.41,38.32,13.8,31.04Z"/>
  <path class="st22" d="M687.1,173.61c16.07,8.69,26.27-15.33,12.4-28.76l2.8,11.32c.65,7.44-3.79,14.73-9.32,16.29-2.07.59-4.42-.31-5.87,1.15Z"/>
  <path class="st18" d="M920.81,111.43c3.34,2.43,3.7,2.28,7.27,2.73,1.25.16,2.05-1.41,1.25,1.36,3.71-1.78,5.9-3.65,8.21-7.37l-9.61-7.98-7.13,11.26Z"/>
  <path class="st18" d="M938.94,105.41c2.58-7.17,2.05-12.5-2.48-19.26l-6.73,11.6,9.21,7.66Z"/>
  <path class="st1" d="M910.6,256.61l-1.23-1.66c-22.95-2.24-45.89-4.43-68.83-6.58l-.76,1.52c-4.4,40.58-9.25,81.07-13.32,121.76-.27,10.42,8.11,18.59,15.9,15.09,26.84-21.15,57.73-38.41,84.03-60.18,4.67-3.87,7.6-8.89,5.5-16.82-4.35-16.44-15.77-35.1-20.12-52.17-.32-.82-1.13-.88-1.16-.97Z"/>
  <path class="st19" d="M839.77,249.9l70.83,6.72c-13.48-34.44-26.55-69.11-40.36-103.38-5.66-11.24-17.9-10.87-20.59,1.55-3.7,31.59-6.45,63.46-9.88,95.12Z"/>
  <path class="st29" d="M746.35,123.49c-2.79.39-2.32,16.51.34,19.13,1.26,1.24,4.82,1.48,6.26.82,2.21-1.01,6.75-13.59,5.94-16.4-.54-1.9-10.86-3.78-12.54-3.55Z"/>
  <path class="st32" d="M861.99,89.31c-2.09-.44-11.22,5.1-10.86,8.21.35,2.98,9.7,13.02,11.89,12.88.79-.05,4.31-2.33,4.82-3.05,2.1-2.94-3.61-17.56-5.86-18.03Z"/>
  <path class="st17" d="M689.18,147.04c-12.7-1.2-8.86,23.81,2.65,19.82,8.22-2.85,5.04-19.09-2.65-19.82Z"/>
  <path class="st33" d="M684.56,152.97c-3,5.32,3.35,14.01,7.71,9.64,5.93-5.93-3.48-17.14-7.71-9.64Z"/>
</svg>