<?xml version="1.0" encoding="UTF-8"?>
<svg id="Layer_1" xmlns="http://www.w3.org/2000/svg" version="1.1" viewBox="0 0 482.16 482.16">
  <!-- Generator: Adobe Illustrator 29.5.1, SVG Export Plug-In . SVG Version: 2.1.0 Build 141)  -->
  <defs>
    <style>
      .st0 {
        fill: #646375;
      }

      .st1 {
        fill: #c1d7e4;
      }

      .st2 {
        fill: #82b7f3;
      }

      .st3 {
        fill: #febf5d;
      }

      .st4 {
        fill: #609bd7;
      }

      .st5 {
        fill: #ecf7fe;
      }
    </style>
  </defs>
  <path class="st5" d="M31.24,321.42c-1.91-.49-2.81-2.38-2.7-5.67-2.37-2.85-2.62-5.28-.76-7.27l.5-150.9c1.87-14.67,14.1-26.8,30.11-27.42l323.53.06c13.54.98,27.59,14.44,22.37,27.21-7.71,1.12-15.75,1.28-24.13.47-1.45.43-2.72,1.45-3.81,3.08,0,.3-.05.64,0,.93-2.28,1.52-6.54,1.63-7.93-.93l-2.52,1.81-18.48-.35c-19.46.97-27.15,5.6-28.87,24.67-1.25,13.89-.39,28.69,1.37,42.51l-1.08,4.12c2.22.81,3.64,3.01,4.25,6.6,2.23,2.7,3.13,5.16,2.69,7.39l2.43-.14c3.23,4.25,7.62,6.53,13.18,6.58l1.25,1.95c4.16-2.58,12.89-2.97,16.86,0,.92-.47,1.85-.9,2.82-1.22s1.89-.59,2.83-.61c17.1-.46,34.26-.48,51.36-.27,1.98.32,3.8,1.03,5.47,2.1,25.23,1.36,39.89,10.95,41.69,35.87.53,7.33.6,21.83-1,28.79-.28,1.2-2.52,1.02-3,1.57l-2.24,1.82c-19.87-.27-39.75-.55-59.64-.85l-2.58-1.9-2.95-.99c-15.51-22.51-52.06-22.69-67.5-.02l-2.94,1.01-1.78,1.78c-10.49.1-20.98.13-31.48.09l-1.45-1.87c-.96-5.24-1.91-10.53-1.97-15.86l-.46-94.19c-18.45-1.55-37.7-1.13-56.3-.14l-1.77-1.74c-2.61-1.44-4.29-1.47-5.02-.11l.06,110.91-1.98,1.14c-21.47,1.83-42.99,1.83-64.46,0l-2.9-.98c-15.27-22.63-52.17-22.4-67.56,0l-2.92.97c-16.84,1.83-33.73,1.83-50.58,0Z"/>
  <path class="st3" d="M226.61,209.48c13.49-1.06,44.03-1.52,57.07-.05,1.06.12,2.28-.04,2.99.92.79,37,.43,74.06.43,111.06.77.19,1.92.49,1.98,1.05.26,2.29.26,17.04-.66,17.93-.32.31-.8.48-1.32.61h-63.47l-1.98-1.05v-17.23l1.98-1.31c-2.25-37.25-2.29-74.55-1.79-111.85,1.25-2.32,3.47-2.03,4.77-.09Z"/>
  <path class="st0" d="M395.19,321.42c5.55,2.15,9.83,15.08,5.95,19.59,0,51.55-84.29,52.43-84.29,0-3.72-3.35-.29-14.62,2.22-18.64l2.74-.95c15.57-26.5,57.68-26.36,73.39,0Z"/>
  <path class="st0" d="M155.2,321.42c1.43.29,2.1.53,2.97,1.5,1.88,2.12,5.82,16.37,1.99,18.08.03,52.38-84.29,51.57-84.29,0-3.88-4.5.4-17.43,5.95-19.59,15.59-26.38,58.33-26.24,73.39,0Z"/>
  <path class="st5" d="M28.27,321.42c-.28-.44-2.56.85-3.02-5.09,3.13-50.69-4.05-105.61.05-155.81,1.3-15.93,10.24-30.05,28.21-32.23l332.27.03c15.91,2.35,26.01,17.39,21.36,32.06l-30.79.6c0-1.64-.47-3.88,1.63-4.54,5.35-1.69,18.63,1.24,24.49-.09,3.09-.7.04-9.4-.82-11.23-3.39-7.19-11.6-12.27-19.85-13.05l-323.32-.05c-15.1.58-26.41,12.01-28.21,25.7l-.5,152.54-2.48.92c4.03,2.38,3.38,6.07,3.97,10.24.11,2.34-.88,2.34-2.98,0Z"/>
  <path class="st2" d="M421.97,256.12c-20.19-1.09-41.85.26-62.48,0l-1.2-1.71c11.53-17.47,23.06-34.95,34.6-52.43l2.31.04c8.79,18.06,18.75,35.7,26.78,54.1Z"/>
  <path class="st2" d="M389.24,188.96l.22,3.1c-14.58,21-29.15,42.01-43.73,63.01l-3.1,1.06c-8.83-.51-11.33-1.84-16.86-8.4l-.64-2.49c17.29-25,34.58-50,51.87-74.99l2.32.06c2.41,5.73,7.07,12.75,9.92,18.66Z"/>
  <path class="st4" d="M376.35,161.91c.25,1.52,2.25,6.67,2.98,8.4l-53.55,77.42c-4.53-5.36-5.17-7.69-6.94-13.99l.82-4.66c15.23-22.35,30.45-44.68,45.66-67l3.1-1.1c2.68.05,5.47-.47,7.93.93Z"/>
  <path class="st1" d="M219.66,321.42c0-2.73,3.31-2.61,3.97,0v19.59h-63.47c0-6.14-1.84-14.16-4.96-19.59h64.46Z"/>
  <path class="st1" d="M459.65,322.35c-1.34,1.51-2.26,4.28-3.99,6.04-16.34,16.72-32.42,12.17-54.52,12.61,0-6.94-2.41-13.64-5.95-19.59l64.46.93Z"/>
  <path class="st4" d="M389.24,188.96c2.08,4.31,3.87,8.79,5.95,13.06l-35.7,54.1c-5.54-.07-11.38.32-16.86,0l46.61-67.16Z"/>
  <path class="st1" d="M31.24,321.42h50.58c-3.53,5.97-5.95,12.62-5.95,19.59-15.13.02-29.87,2.15-41.18-9.31-3.19-3.23-4.34-7-6.42-10.28h2.98Z"/>
  <path class="st1" d="M321.81,321.42c-3.31,5.63-4.96,13.14-4.96,19.59h-29.75v-19.59h34.71Z"/>
  <path class="st2" d="M163.14,177.77l1.32,1.53c-13.95,21.18-27.91,42.36-41.88,63.56l-3.08,1.14c-13.25-.08-27.59.74-40.66,0l-1.19-1.73,42.15-62.66-11.65.02-1.55-1.86c3.18-2.68,15.81-.06,20.29.04,12.06.26,24.18-.26,36.24-.04Z"/>
  <path class="st2" d="M135.37,244c-.62-.46-1.47-1.28-1.19-1.73,11.96-18.99,26-41.16,39.47-59.06,1.25-3,3.04-4.5,5.36-4.51,6.41,1.61,11.11,4.92,14.06,10.56,4.21,8.05,4.37,35.16-.15,43.11-3.1,5.44-10.14,10.46-16.63,11.41-11.26,1.64-28.85.14-40.92.22Z"/>
  <path class="st2" d="M368.42,160.98l-49.58,72.76c-3.17-11.28-3.14-37.69-2.02-49.94,2.51-27.46,29.94-23.2,51.6-22.82Z"/>
  <path class="st2" d="M106.61,177.77l1.18,1.73c-13.5,19.96-27.01,39.92-40.52,59.89l-2.31-.06c-2.19-1.57-5.42-4.01-6.8-6.2-4.14-6.55-3.96-27.31-3.11-35.3,2.67-25.05,32.24-20.27,51.56-20.07Z"/>
  <path class="st4" d="M179,178.7l-43.63,65.3c-5.28.04-10.59.03-15.87,0l43.63-66.23c5.81.11,10.26-.48,15.87.93Z"/>
  <path class="st4" d="M106.61,177.77c4.44.05,10.25-.52,14.4,0,1.38.17,1.72-.51,1.46,1.39l-43.62,64.85c-7.38-.42-8.2-.58-13.88-4.66l41.65-61.57Z"/>
  <path class="st5" d="M219.66,321.42v-112.41c.73-3.57,6.57-3.55,6.94.47-.91.07-2.84-.51-2.99.55.03,37.12.02,74.27.02,111.39h-3.97Z"/>
  <path class="st5" d="M356.27,326.3c17.35-2.61,25.29,20.06,10.23,27.36-22.32,10.81-33.24-23.9-10.23-27.36Z"/>
  <path class="st5" d="M115.28,326.3c26.49-3.93,22.15,36.87-2.7,28.2-15.21-5.31-12.09-26.01,2.7-28.2Z"/>
</svg>