<?xml version="1.0" encoding="UTF-8"?>
<svg id="Ebene_1" xmlns="http://www.w3.org/2000/svg" version="1.1" viewBox="0 0 409.6 409.6">
  <!-- Generator: Adobe Illustrator 29.5.1, SVG Export Plug-In . SVG Version: 2.1.0 Build 141)  -->
  <defs>
    <style>
      .st0 {
        fill: #c60024;
      }

      .st1 {
        fill: #fe0c38;
      }

      .st2 {
        fill: #cce4ba;
      }

      .st3 {
        fill: #020000;
      }

      .st4 {
        fill: #ddedd2;
      }

      .st5 {
        fill: #010000;
      }

      .st6 {
        fill: #6dc72a;
      }
    </style>
  </defs>
  <path class="st6" d="M409.51,112.58c-.19,3.41.27,6.99,0,10.38-8.03,101.04-98.27,180.69-197.97,183.64-4.23.74-8.55.74-12.77,0C102.12,304.2,17.55,230.88,2.63,135.1c-1.75-11.26-6-29.88,10.15-31.31,8.61-1.02,17.76-.78,26.34,0l1.69,3.87c2.65,67.44,46.06,126.99,109.89,149.52,22.69,8.01,45.01,9.47,68.83,10.29l3.66-1.96c80.62-8.06,147.33-80.12,145.86-161.05l1.36-1.48c12.97.13,32.38-3.94,39.12,9.58Z"/>
  <path class="st1" d="M370.4,103c.97,4.56.49,11.53-.01,16.36-8.09,78.65-72.12,141.48-150.86,148.12-56.48-2.43-111.01-44.02-134.38-94.67-2.04-4.42-9.91-22.82-8.16-25.95.32-.57,1.35-.36,2.04.06,1.21-.06,2.6.17,4.17.68,8.71-4.11,1.24-30.8-4.83-12.79l-1.73.93c-1.45,3.64-2.57,2.42-3.57-1.45-1.19-4.58-4.01-26.11-2.33-29.04.3-.52.69-.99,1.11-1.44-.7-.23-.69-.49,0-.8,99.47,0,199.09-.96,298.55,0Z"/>
  <path class="st2" d="M71.84,103v.8c-10.85,2.21-21.88,2.16-32.73,0-8.34.03-18.24-.71-26.34,0,.83-1.32,3.03-.8,4.38-.81,18.22-.23,36.48.02,54.69.01Z"/>
  <path class="st4" d="M211.54,306.6c-3.4,1.35-9.54,1.33-12.77,0,4.22.1,8.56.12,12.77,0Z"/>
  <path class="st0" d="M71.84,103.8c-.47,11.15,1.72,22.13,3.2,33.12l1.59-1.19c1.38,1.09,1.97,3.03,1.77,5.81,1.06,2.11,1.27,3.9.62,5.37-1.53.79-.56,2.66-.24,3.83,13.93,51.62,61.06,96.16,112,110.75,9.43,2.7,19.17,3.98,28.74,5.99-33.56,2.83-66.25-4.27-95.53-20.62-51.21-28.59-84.24-84.16-84.88-143.06,10.9-.04,21.83.03,32.73,0Z"/>
  <path class="st3" d="M117.07,171.03c8.24-.78,8.77,21.44.63,22.23s-8.93-21.45-.63-22.23Z"/>
  <path class="st3" d="M173.8,223.32c-7.79,6.45-13.04-13.75-6.23-19.39,8.37-6.95,13.11,13.69,6.23,19.39Z"/>
  <path class="st5" d="M308.66,156.66c8.24-.78,8.77,21.44.63,22.23s-9.02-21.44-.63-22.23Z"/>
  <path class="st5" d="M222.49,160.65c10.19-3.06,10.03,20.6,2.2,21.42-8.02.84-9.13-19.34-2.2-21.42Z"/>
  <path class="st5" d="M271.19,123.9c8.31-2.46,9.88,17.09,3.87,20.67-9.67,5.76-11.93-18.28-3.87-20.67Z"/>
  <path class="st5" d="M164.22,130.28c8.4-1.31,9.21,22.17.62,22.17-7.99,0-8.04-21.01-.62-22.17Z"/>
  <path class="st5" d="M266.4,198.14c8.4-1.31,9.21,22.17.62,22.17-7.99,0-8.04-21.01-.62-22.17Z"/>
  <path class="st5" d="M79.03,146.91c-2.42-3.17-2.75-7.32-2.39-11.18s2.39-9.81,7.2-8.46c7.22,2.02,6.14,22-1.21,21.98-1.82,0-2.64-1.08-3.59-2.33Z"/>
</svg>