<?xml version="1.0" encoding="UTF-8"?>
<svg id="Ebene_1" xmlns="http://www.w3.org/2000/svg" version="1.1" viewBox="0 0 965 993">
  <!-- Generator: Adobe Illustrator 29.5.1, SVG Export Plug-In . SVG Version: 2.1.0 Build 141)  -->
  <defs>
    <style>
      .st0 {
        fill: #fefefe;
      }

      .st1 {
        fill: #989898;
      }
    </style>
  </defs>
  <path d="M326.17.07c40.71,1.39,84.83,11.88,119.03,36.33,14.26,6.24,29.62,10.19,46.09,11.86,57.75,16.51,117.56,89.55,141.36,142.89,31.02,69.55.68,129.97-42.36,186.05l117.44,4.86,52.4,5.67c26.45,2.64,51.24,10.72,74.15,21.77,41.61-50.55,36.87-115.94,7.16-169.99-8.48-25.58,9.92-43.65,36-36.94,48.6,12.5,87.2,73.54,87.57,122.48v33c-1.59,46.21-25.54,92.99-60.09,122.47,21.6,49.11,25.05,105.1,25.84,158.95,2.48,31.31,12.43,55.96,25.45,83.67,6.66,15.34,9.02,32.16,7.81,48.88,1.03,14.24.88,28.74,0,43,.61,35.28.45,70.53-.49,105.73-8.79,37.15-56.76,45.51-89.51,46.76-39.24,1.51-96.27-4.58-98.22-54.9-1.14-29.35,17.7-47.07,39.79-62.2,10.22-10.3,10.09-34.1,9.56-48.1-.67-17.73-8.65-24.11-22.79-34.33-28.19-16.88-51.82-40.58-68.86-69.02l-14.69,8.52c16.07,28.26,22.49,58.88,20.26,91.41-1.9,26.6-3.23,53.07-3.98,79.42-2.21,23.24-9.14,37.62-29.97,49.88-40.31,23.72-145.17,21.38-140.51-43.79,1.79-25.09,13.74-37.53,31.38-53,19.18-22.02,16.68-34.71,1.77-57.99-3.04-4.75-10.49-16.22-14.02-19.68-.88-.86-23.15,2.68-24.32,3.38-1.45.86-1.99,3.77-2.13,5.4-4.79,54.74-8.69,110.13-11.8,164.25-5.99,52.12-35.36,64.74-83.32,66.24h-38.99c-28.34-1.34-64.15-10.73-72.6-41.68-5.5-20.12.43-44.57,16.22-58.44,20.48-14.83,23.39-23.03,22.78-48.13-.65-27.08-3.04-61.07-7.04-87.64-.18-1.17-19.73-6.31-22.54-6.99l-16.34,160.91c-9.24,47.3-63.49,59.19-104.97,57.9-36.97-1.15-78.68-11.33-83.75-54.39-3.69-31.39,14.77-52.94,41.05-66.07,10.62-8.17,12.08-34.55,12.67-47.85,2.73-55.61,4.98-110.82,6.76-165.65l-1.22-5.94c-18.43-48.22-15.04-100.67-10.85-151.65-40.51-2.29-89.67-12.58-108.72-52.82-28.69-3.18-45.31-25.45-54.87-50.76l-3.47-2.99c-20.15-10.58-35.11-30.17-35.99-53.77.6-6.99-.82-15.19,0-22-.12-13.76,4.92-25.31,12.47-36.56,17.05-22.58,27.94-42.38,35.72-69.77,10.87-50.99,21.55-97.39,64.8-131.22,9.11-7.12,18.9-11.61,29.43-16.09,20.15-8.57,42.24-17.28,62.96-24.98C230.19,7.31,253.43-.87,280.19.07h45.99,0Z"/>
  <path class="st1" d="M965,815.01h-1c.08-14.27.43-28.75,0-43h1v43Z"/>
  <path class="st0" d="M868.03,943l-29.99-2v-19.5c1.86-9.29,14.36-19.51,7.84-28.84-2.98-4.27-8.06-4.55-12.81-3.08-9.27,2.86-17.8,37.09-15.03,46.42-19.17-5.54-21.9-25.23-14.18-41.68,8.18-17.44,32.83-23.95,39.94-42.05,5.45-13.89,6.33-61.14,1.71-75.23-5.09-15.52-23.54-23.35-35.78-32.21-44.28-32.03-72.02-79.48-80.37-133.6-1.16-7.49-.37-27.39-6.9-31.09-4.94-2.8-12.25-1.39-15.23,3.54-4.35,7.19-.31,24.96,1.16,33.53,3.35,19.49,8.55,38.74,16.66,56.74-52.4,27.75-108.73,50.24-167.94,58.07-1.45-1.42,2.74-24.47,2.99-28.51.63-10.28,2.78-31.28-13.72-25.71-6.42,2.17-7.24,11.06-8.14,16.85-10.64,68.83-6.48,143.08-14.13,212.85-2.64,24.11-3.08,48.17-29.44,57.54-4.19,1.49-24.74,6.51-27.59,4.51-3.64-2.55-2.63-22.84-1.47-27.58,1.85-7.62,12.33-20.44,1.91-25.84s-17.62,8.36-20.09,16.65c-3.68,12.35-3.64,25.66-1.29,38.21-7.56-1.14-28.34,2.16-29.93-7.55-1.22-7.48.46-20.69,2.9-27.98,2.14-6.37,10.58-16.61,3.56-22.48-8.67-7.25-15.19.21-19.32,7.71-1.88,3.42-8.19,18.73-8.19,21.81v20.5c-25.41-4.34-27.33-32.81-14.43-50.93,7.28-10.22,20.93-14.77,26.95-26.04,8.73-16.36,6.59-46.1,5.47-64.5-2.39-39.38-6.08-84-12.11-122.87-1.5-9.7-1.19-21.1-14.39-19.65-7.15.79-8.77,6.18-8.48,12.51.25,5.31,5.3,38.02,3.99,39.51-54.74-15.17-107.54-42.13-136.13-93.32-28-50.15-23.49-109.44-17.83-164.66,20.63-1.04,44.16-4.56,62.95-13.53,7.4-3.54,16.41-7.47,11.22-17.16-6.75-12.6-31.22,2.32-41.19,5.19-34.52,9.95-98.5,9.03-127.87-14.08-1.59-1.25-11.86-11.21-12.01-12.05-.64-3.58,19.29-10.88,21.43-15.3,37.9,36.71,97.66,30.94,130.49-9.55,13.21-16.29-3.02-31.04-15.53-17.53-5.87,6.34-8.56,12.22-16.16,17.84-30.51,22.56-76.39,14.09-91.48-22.15-2.21-5.3-6.4-19.91-4.68-25.04.72-2.16,17.51-4.9,21.53-6.45,35.25-13.63,46.43-52.66,4.1-66.46-23.37-7.62-70.04-11.68-80.54,17.01-8.46,23.14,11.53,45.66,32.6,52.43.41,5.79.31,12.53,1.28,18.23,2.88,16.96,12.83,23.42-10.12,32.09-43.74,16.53-57.38-39.44-52.85-71.86,5.14-36.82,22.14-42.03,40.7-68.28s11.55-71.25,18.65-103.33C149.65,22.36,304.81-2.64,411.83,46.89c10.08,4.67,16.15,9.78,25,15,12.56,7.41,32.05,7.36,46.52,11.46,54.4,15.44,121,94.83,134.07,148.88,15.37,63.57-41.07,163.14-105.29,179.32-52.34,13.19-88.77-20.71-92.03-71.96-3.97-62.49,20-125.34,16.08-187.07-.56-8.74-4.36-36.76-14.59-38.4-21.73-3.48-9.24,20.09-7.55,30.54,2.86,17.6.05,41.84-2.04,59.75-6.49,55.78-26.34,123.32-4.04,177.31,26.23,63.47,105.95,71.23,155.65,30.31,66.63,3.88,136.69-1.11,202.61,11.32,72.05,13.58,118.89,56.63,132.46,129.49,9.57,51.36-.17,103.27,19.84,153.14,11.5,28.67,21.93,41.1,23.51,74.48,1.9,40.36-2.57,81.54-2.09,122.08.06,4.82,1.51,9.5,1.08,14.99-1.69,21.27-22.17,32.05-41.54,33.45-2.65.19-10.31.96-11.29-1.68-1.86-4.99-1.14-14.33.06-19.56,1.62-7.05,9.89-16.47,3.27-22.77-3.69-3.51-9.87-4-14.03-1-2.15,1.55-9.48,16.27-9.48,18.52v28.5h.02Z"/>
  <path class="st0" d="M336,739.18c-.25,21.06-1.92,42.31-3.84,63.33-2.58,28.28-5.68,58.88-10.13,86.86-3.4,21.31-6.28,38.77-28.59,47.4-9.36,3.62-19.47,4.33-29.24,6.25-3.04-9.76-3.72-17.87-1.35-27.84,1.33-5.6,5.87-12.46,5.32-17.56-.98-8.92-12.62-10.24-18.22-3.35-8.86,10.9-8.68,35.45-6.75,48.74l-23.78-2.21c-5.88-8.17-4.79-18.71-1.68-27.76,2.85-8.3,14.13-19.4,6.54-27.58-6.13-6.61-11.81-1.71-16.57,3.55-10.85,11.99-12.54,29.42-12.49,45-22.94-7.57-18.98-40.78-4.02-54.51,8.37-7.68,22.46-11.02,29.43-20.56,12.94-17.71,10.26-63.27,11.59-85.4,1.04-17.29,3.18-34.67,4.03-51.96.85-17.48,1.06-35.04.97-52.54,8.33,8.2,15.34,17.55,23.97,25.51,21.47,19.81,47.47,34.64,74.83,44.65l-.02-.02Z"/>
  <path class="st0" d="M647.09,917.01c-3.98-.62-22.81-.53-23.86-3.63-.73-2.16-.26-12.75.13-15.61,1.08-7.95,8.32-18.78,8.71-24.38.58-8.42-8.3-9.71-14.69-7.6-10.44,3.43-16.59,31.12-15.27,41.23-13.1-.89-13.93-19.25-11.74-29.25,4.92-22.5,30.19-30.06,38.5-50.49,12.84-31.58-3.27-58.69-21.76-83.24l87.41-29.05c12.67,22.21,21.29,42.36,20.55,68.53-.6,21.31-1.6,42.9-1.98,64.02-.38,21.29,1.28,48.14-19.99,60-4.66,2.6-19,7.93-23.95,8.1-.85.03-2.06-.44-2.06-1.12v-17c0-7.6,11.09-15.22,5.01-23.01-4.25-5.45-12.19-4.19-16.56.47-1.51,1.62-8.45,16.09-8.45,17.55v24.5-.02Z"/>
  <path class="st0" d="M887.14,459.92c-.7-.41-6.97-10.96-9.09-13.41-6.81-7.87-16.65-15.6-25.02-21.49,36.76-45.27,45.09-104.34,25.75-159.23-4.37-12.41-11.26-23.63-16.35-35.7-1.37-9.08,12.43-3.47,16.85-1.8,81.71,30.83,78.7,174.89,18.74,225.26-1.76,1.48-8.97,7.5-10.89,6.37h.01Z"/>
  <path class="st0" d="M37.24,341.05c-18.2-16.94-17.06-43.84-6.17-64.68,4.46-8.54,11.86-15.87,16.99-24,35.43-56.19,24.61-135.2,83.16-177.3.29,1.93-.68,3.41-1.45,5.04-5.95,12.58-15.55,24.43-21.39,37.6-13.87,31.25-10.71,62.12-15.27,94.72-3.92,28.08-11.5,28.9-27.38,48.61-18.69,23.2-27.39,50.22-28.49,80.01Z"/>
  <path d="M293.92,184.3c32.33-5.24,34.05,65.76,1.73,66.81-29.4.95-28.86-62.4-1.73-66.81Z"/>
  <path d="M149.95,174.3c21.12-3.93,26.1,23.48,24,39-1.11,8.23-7.84,22.96-16.19,25.8-31.89,10.85-31.65-60.37-7.82-64.81h.01Z"/>
</svg>